<svg width="116" height="24" viewBox="0 0 116 24" fill="none" xmlns="http://www.w3.org/2000/svg">
<path d="M24.2615 2.29235C24.2615 1.03862 23.366 0.175658 22.1122 0.175658C18.9698 0.175658 15.8273 0.175658 12.6848 0.175658C9.54237 0.175658 6.56272 0.240787 3.50166 0.143093C1.61292 0.0942467 0.847656 1.25028 0.847656 2.82966C0.880221 5.907 0.847656 8.98434 0.847656 12.078C0.847656 15.1716 0.847656 17.9721 0.847656 20.9192C0.847656 22.3683 1.71061 23.3778 2.96435 23.3778C9.36326 23.3778 15.7622 23.3778 22.1448 23.3778C23.3497 23.3778 24.2452 22.4823 24.2452 21.2774C24.2452 14.9599 24.2452 8.62613 24.2452 2.30863L24.2615 2.29235ZM3.69705 9.00062C4.28321 7.90971 4.95078 6.86765 5.65091 5.84187C6.15566 5.09289 7.1326 4.93007 7.88158 5.38597C8.66313 5.84187 8.95621 6.81881 8.5003 7.63292C7.89786 8.69126 7.24657 9.70076 6.59528 10.7265C6.28592 11.215 5.79745 11.443 5.22757 11.443C3.94128 11.443 3.0946 10.1404 3.69705 9.00062ZM7.00234 20.1539C5.63463 20.1539 4.85308 18.7862 5.55322 17.5651C6.54643 15.8717 7.60478 14.1947 8.63056 12.5176C10.4053 9.61935 12.1801 6.72111 13.9548 3.82288C14.3782 3.13902 14.8829 2.60171 15.7459 2.65056C17.081 2.73197 17.7649 4.11596 17.0159 5.35341C15.4528 7.97484 13.8409 10.5637 12.2452 13.1526C11.0403 15.139 9.81916 17.1092 8.61428 19.0956C8.23979 19.7143 7.7676 20.1377 7.00234 20.1539ZM21.2656 10.7265C20.3863 12.2408 19.442 13.7225 18.5302 15.2204C17.5207 16.8487 16.5274 18.4932 15.5179 20.1051C14.8504 21.1797 13.906 21.4728 13.0105 20.9029C12.1475 20.3656 11.9847 19.3724 12.6034 18.3466C14.4922 15.2693 16.3809 12.1919 18.2696 9.09832C18.6441 8.47959 19.1326 8.05625 19.8979 8.07254C21.2493 8.07254 21.9983 9.47281 21.2819 10.7103L21.2656 10.7265Z" fill="#0E121B"/>
<path d="M78.9557 6.28125H84.0032C85.1918 10.3681 86.3804 14.4224 87.569 18.4929C87.6342 18.4929 87.6993 18.4929 87.7644 18.4929C88.953 14.4224 90.1416 10.3681 91.3139 6.29753H96.3777C94.3587 12.0614 92.356 17.7439 90.3859 23.4102H84.9313C82.9449 17.7277 80.9584 12.0614 78.9395 6.28125H78.9557Z" fill="#0E121B"/>
<path d="M73.324 0.454102H77.9156V23.3795H73.324V0.454102Z" fill="#0E121B"/>
<path d="M53.6809 9.19784C53.1924 6.46243 51.9875 4.10151 49.6592 2.40816C47.9333 1.17071 45.9794 0.519418 43.9116 0.454289C40.7854 0.340314 37.6429 0.421725 34.4353 0.421725V23.3797C34.6144 23.4122 34.7447 23.4448 34.8749 23.4448C38.1151 23.3959 41.3715 23.5099 44.6117 23.2494C48.7637 22.9238 51.6293 20.6768 53.111 16.7691C54.0391 14.3105 54.1531 11.7542 53.6972 9.19784H53.6809ZM48.6985 14.6687C48.0635 17.3064 46.305 18.8695 43.5859 19.0649C42.1856 19.1626 40.7854 19.0812 39.3037 19.0812V4.476C41.9088 4.58997 44.6605 3.82471 46.8424 5.79486C47.6728 6.54384 48.2915 7.6836 48.6334 8.75822C49.2521 10.6795 49.1707 12.6822 48.6985 14.6687Z" fill="#0E121B"/>
<path d="M106.667 15.9906H112.577C112.708 13.6459 112.48 11.5292 111.356 9.59165C110.021 7.31214 107.904 6.22123 105.348 5.99328C102.303 5.73276 99.6167 6.57944 97.7768 9.13575C96.002 11.5944 95.7089 14.4112 96.2788 17.3257C96.6045 19.0028 97.3046 20.5659 98.6072 21.6893C101.782 24.4248 106.699 24.5876 110.135 22.1778C111.242 21.4288 112.17 20.0937 112.447 18.498C110.949 18.4166 109.549 18.3352 108.165 18.2538C106.862 20.3542 104.811 20.4845 103.199 19.9634C101.587 19.4424 100.708 17.9607 100.854 16.0068H106.651L106.667 15.9906ZM104.778 9.49396C106.667 9.57537 108.181 11.2199 107.986 13.0272H100.887C100.887 10.9594 102.613 9.39626 104.778 9.49396Z" fill="#0E121B"/>
<path d="M71.6232 13.8402C71.4278 10.5512 70.1089 8.0112 66.9664 6.59464C63.3843 4.9827 58.7602 6.25272 56.5947 9.50916C55.113 11.7398 54.999 14.231 55.2758 16.7548C55.4549 18.4155 56.0736 19.9298 57.2297 21.1998C59.3626 23.5444 62.1306 24.0003 65.094 23.7398C67.1455 23.5607 68.9529 22.7303 70.3043 21.1184C70.923 20.3694 71.3789 19.3762 71.4278 18.497C69.9624 18.4155 68.5621 18.3341 67.2107 18.2527C65.9732 20.4671 63.482 20.5974 61.7887 19.767C60.3559 19.0668 59.7371 17.2758 60.0791 15.9895H71.5092C71.558 15.7778 71.5906 15.7127 71.5906 15.6313C71.5906 15.0288 71.6232 14.4427 71.5906 13.8565L71.6232 13.8402ZM67.0967 13.0098H60.0139C59.6883 11.5933 61.3165 9.70455 63.2378 9.49288C65.2242 9.28121 67.2758 10.9257 67.0967 13.0098Z" fill="#0E121B"/>
</svg>
