<svg width="154" height="24" viewBox="0 0 154 24" fill="none" xmlns="http://www.w3.org/2000/svg">
<g clip-path="url(#clip0_1237_598)">
<path d="M9.19687 5.98438H1.53207C1.11142 5.98438 0.743897 6.13509 0.447224 6.43208C0.150551 6.72907 0 7.09256 0 7.5181C0 7.94364 0.150551 8.30713 0.442796 8.60855C0.739469 8.91441 1.10699 9.06512 1.52765 9.06512H3.7062V18.1301C3.7062 18.6575 3.8479 19.0831 4.12243 19.3934C4.41025 19.717 4.82205 19.881 5.3534 19.881C5.88476 19.881 6.3187 19.717 6.61537 19.389C6.90319 19.0698 7.05374 18.6487 7.05374 18.1301V9.06512H9.19687C9.62195 9.06512 9.98505 8.90998 10.2817 8.60855C10.5784 8.30713 10.7245 7.93921 10.7245 7.5181C10.7245 7.09699 10.574 6.72907 10.2773 6.43208C9.98062 6.13509 9.61753 5.98438 9.19244 5.98438H9.19687Z" fill="#02BFDF"/>
<path d="M13.7895 9.52592C13.3069 9.52592 12.9216 9.68106 12.6471 9.98249C12.3814 10.2795 12.2441 10.674 12.2441 11.1572V18.2451C12.2441 18.715 12.377 19.1095 12.6427 19.4065C12.9172 19.7168 13.3024 19.8763 13.7895 19.8763C14.2766 19.8763 14.6618 19.7212 14.9408 19.4109C15.2153 19.1095 15.3526 18.7194 15.3526 18.2451V11.1572C15.3526 10.674 15.2153 10.275 14.9408 9.97806C14.6618 9.67663 14.2721 9.52148 13.7895 9.52148V9.52592Z" fill="#02BFDF"/>
<path d="M26.4786 6.29932C26.1465 6.62734 25.9826 7.02628 25.9826 7.48286V13.7773L20.6514 6.42787C20.3326 6.02449 19.8898 5.82058 19.3407 5.82058C18.8846 5.82058 18.4905 5.98459 18.1629 6.30818C17.8352 6.63177 17.6758 7.02628 17.6758 7.48286V18.2145C17.6758 18.6711 17.8396 19.0656 18.1629 19.3892C18.4861 19.7128 18.8846 19.8768 19.3407 19.8768C19.7968 19.8768 20.1909 19.7128 20.523 19.3892C20.8551 19.0656 21.0233 18.6666 21.0233 18.2101V11.9156L26.3679 19.2651C26.6778 19.6596 27.1162 19.859 27.6785 19.859C28.1346 19.859 28.5287 19.6995 28.852 19.3803C29.1796 19.0611 29.3435 18.6666 29.3435 18.2101V7.47842C29.3435 7.02185 29.1796 6.62734 28.8564 6.29488C28.201 5.62554 27.1295 5.63884 26.4786 6.29488V6.29932Z" fill="#02BFDF"/>
<path d="M43.7717 7.45171C43.7717 6.99514 43.6078 6.60506 43.289 6.28147C42.9702 5.96231 42.585 5.80273 42.1378 5.80273C41.6108 5.80273 41.1725 6.01994 40.8315 6.44105L36.8198 11.3126H34.9955V7.55366C34.9955 7.03947 34.8538 6.61392 34.5704 6.2992C34.2781 5.97118 33.8575 5.80717 33.3173 5.80717C32.777 5.80717 32.3697 5.97561 32.0774 6.30363C31.794 6.62279 31.6523 7.0439 31.6523 7.5581V18.1346C31.6523 18.6488 31.794 19.0743 32.0774 19.3891C32.3697 19.7171 32.7859 19.8855 33.3173 19.8855C33.8486 19.8855 34.2781 19.7215 34.5704 19.3891C34.8538 19.0699 34.9955 18.6488 34.9955 18.1346V14.3756H36.8198L40.8271 19.2383C41.1592 19.6683 41.602 19.8855 42.1378 19.8855C42.5805 19.8855 42.9702 19.7259 43.289 19.4068C43.6078 19.0876 43.7717 18.6931 43.7717 18.2365C43.7717 17.8376 43.6521 17.4874 43.413 17.1904L39.8086 12.8463L43.413 8.49783C43.6477 8.20527 43.7717 7.85509 43.7717 7.45614V7.45171Z" fill="#02BFDF"/>
<path d="M53.7288 8.76422C54.1007 8.76422 54.4195 8.62238 54.6852 8.34311C54.942 8.06828 55.0749 7.74026 55.0749 7.36348C55.0749 6.9867 54.942 6.65868 54.6808 6.38828C54.4195 6.11788 54.0963 5.98047 53.7288 5.98047H46.954C46.4226 5.98047 46.0064 6.14891 45.7141 6.4725C45.4308 6.79166 45.2891 7.21277 45.2891 7.72696V17.9355C45.2891 18.4542 45.4308 18.8753 45.7141 19.19C46.0064 19.518 46.4226 19.6865 46.954 19.6865H53.7288C54.0963 19.6865 54.4151 19.5535 54.6808 19.2875C54.942 19.026 55.0749 18.698 55.0749 18.3212C55.0749 17.9444 54.942 17.6208 54.6852 17.3416C54.4195 17.0623 54.1007 16.9204 53.7288 16.9204H48.6499V14.2253H51.8646C52.2365 14.2253 52.5553 14.0835 52.821 13.8042C53.0823 13.5294 53.2107 13.2014 53.2107 12.8246C53.2107 12.4478 53.0778 12.1198 52.821 11.845C52.5598 11.5657 52.2365 11.4239 51.8646 11.4239H48.6499V8.74649H53.7288V8.76422Z" fill="#02BFDF"/>
<path d="M66.2485 14.7084C66.0315 14.3405 65.7747 14.0302 65.4824 13.7687C66.0581 13.516 66.5319 13.1304 66.895 12.6162C67.3732 11.9424 67.6167 11.0736 67.6167 10.0363C67.6167 8.75085 67.2403 7.74462 66.492 7.03981C65.7525 6.33944 64.7297 5.98926 63.4544 5.98926H58.5571C58.0169 5.98926 57.5918 6.1577 57.304 6.48129C57.0206 6.80045 56.8789 7.22156 56.8789 7.73575V18.1305C56.8789 18.6447 57.0206 19.0702 57.304 19.385C57.5962 19.713 58.0169 19.8814 58.5615 19.8814C59.1062 19.8814 59.5268 19.7174 59.8191 19.385C60.1025 19.0658 60.2442 18.6447 60.2442 18.1305V14.7749H61.2316C62.0021 14.7749 62.5688 15.0941 62.9674 15.7457L64.9998 19.0614C65.3452 19.5977 65.8367 19.8814 66.4123 19.8814C66.864 19.8814 67.2625 19.7219 67.5901 19.4071C67.9222 19.088 68.0905 18.6935 68.0905 18.2325C68.0905 17.9 67.9975 17.5941 67.8248 17.3459L66.2485 14.7084ZM64.278 10.3732C64.278 10.883 64.1408 11.2686 63.8574 11.5568C63.5784 11.8405 63.2153 11.9823 62.7548 11.9823H60.2442V8.76858H62.7548C63.2153 8.76858 63.5784 8.90599 63.8574 9.19412C64.1408 9.48225 64.278 9.8679 64.278 10.3777V10.3732Z" fill="#02BFDF"/>
<path d="M85.6145 5.80326C84.8706 5.80326 84.3349 6.14458 84.0736 6.79619L80.9873 14.6909L77.8966 6.79176C77.6354 6.14458 77.1084 5.79883 76.3734 5.79883C75.9173 5.79883 75.5188 5.96727 75.1911 6.29529C74.859 6.62332 74.6952 7.02226 74.6952 7.47883C74.6952 7.74036 74.7528 7.9886 74.8546 8.1925L79.4685 18.8975C79.7519 19.5093 80.2611 19.8462 80.9873 19.8727C81.3194 19.8727 81.6249 19.7797 81.895 19.6024C82.1607 19.425 82.3644 19.1901 82.5061 18.8931L87.1112 8.21467C87.2352 7.97087 87.2972 7.72263 87.2972 7.48327C87.2972 7.02669 87.1289 6.62775 86.8012 6.29973C86.4736 5.96727 86.075 5.80326 85.619 5.80326H85.6145Z" fill="#02BFDF"/>
<path d="M90.3422 9.52592C89.8596 9.52592 89.4744 9.68106 89.1998 9.98249C88.9341 10.2795 88.7969 10.674 88.7969 11.1572V18.2451C88.7969 18.715 88.9297 19.1095 89.1954 19.4065C89.4699 19.7168 89.8552 19.8763 90.3422 19.8763C90.8293 19.8763 91.2145 19.7212 91.4935 19.4109C91.768 19.1095 91.9053 18.7194 91.9053 18.2451V11.1572C91.9053 10.674 91.768 10.275 91.4935 9.97806C91.2145 9.67663 90.8249 9.52148 90.3422 9.52148V9.52592Z" fill="#02BFDF"/>
<path d="M90.3451 5.21342C89.8226 5.21342 89.3843 5.38629 89.0478 5.73205C88.7157 6.07337 88.543 6.51221 88.543 7.03084C88.543 7.54947 88.7112 7.99274 89.0478 8.32963C89.3843 8.67095 89.8182 8.84826 90.3451 8.84826C90.8721 8.84826 91.306 8.67538 91.6514 8.33406C92.0012 7.99274 92.1783 7.5539 92.1783 7.0264C92.1783 6.49891 92.0012 6.0645 91.6514 5.71875C91.306 5.37743 90.8632 5.20898 90.3451 5.20898V5.21342Z" fill="#02BFDF"/>
<path d="M102.502 16.6323H97.5913V7.55411C97.5913 7.03992 97.4496 6.61437 97.1662 6.29965C96.874 5.97163 96.4533 5.80762 95.9087 5.80762C95.364 5.80762 94.9434 5.97606 94.6556 6.30408C94.3722 6.62324 94.2305 7.04435 94.2305 7.55854V17.9533C94.2305 18.4719 94.3722 18.893 94.6556 19.2078C94.9478 19.5358 95.3685 19.7042 95.9131 19.7042H102.506C102.931 19.7042 103.294 19.5535 103.582 19.2565C103.87 18.9595 104.016 18.596 104.016 18.1749C104.016 17.7538 103.87 17.3903 103.582 17.0933C103.29 16.7964 102.927 16.6456 102.506 16.6456L102.502 16.6323Z" fill="#02BFDF"/>
<path d="M113.824 16.6314H108.914V7.55314C108.914 7.03894 108.772 6.6134 108.488 6.29867C108.196 5.97065 107.776 5.80664 107.231 5.80664C106.686 5.80664 106.266 5.97508 105.978 6.30311C105.694 6.62226 105.553 7.04337 105.553 7.55757V17.9523C105.553 18.4709 105.694 18.8921 105.978 19.2068C106.27 19.5348 106.691 19.7032 107.235 19.7032H113.829C114.254 19.7032 114.617 19.5525 114.905 19.2555C115.192 18.9585 115.339 18.5951 115.339 18.174C115.339 17.7528 115.192 17.3894 114.905 17.0924C114.612 16.7954 114.249 16.6447 113.829 16.6447L113.824 16.6314Z" fill="#02BFDF"/>
<path d="M123.881 6.77793C123.598 6.16622 123.089 5.82933 122.362 5.80273C122.03 5.80273 121.725 5.89582 121.455 6.07313C121.189 6.25044 120.985 6.48537 120.844 6.78237L116.239 17.4785C116.128 17.7002 116.07 17.9484 116.07 18.2099C116.07 18.6665 116.239 19.0655 116.571 19.3891C116.898 19.7126 117.297 19.8767 117.753 19.8767C118.501 19.8767 119.028 19.5309 119.281 18.8749L120.126 16.5698H124.607L125.453 18.8793C125.626 19.3359 126.038 19.8767 126.994 19.8767C127.45 19.8767 127.849 19.7126 128.176 19.3891C128.508 19.0655 128.677 18.6665 128.677 18.2099C128.677 17.9706 128.615 17.7223 128.5 17.4963L123.886 6.7735L123.881 6.77793ZM123.598 13.8082H121.149L122.38 10.4571L123.598 13.8082Z" fill="#02BFDF"/>
<path d="M140.578 11.4412H136.42C136.026 11.4412 135.694 11.583 135.437 11.8667C135.184 12.1415 135.056 12.4696 135.056 12.8419C135.056 13.2143 135.184 13.5423 135.437 13.8171C135.694 14.0964 136.026 14.2382 136.42 14.2382H138.917V16.0955C138.293 16.7826 137.474 17.1195 136.42 17.1195C135.304 17.1195 134.463 16.756 133.852 16.0024C133.232 15.2444 132.917 14.1806 132.917 12.8419C132.917 11.5032 133.232 10.4305 133.856 9.68137C134.472 8.94111 135.313 8.58206 136.42 8.58206C137.452 8.58206 138.479 8.88791 139.497 9.50406C139.674 9.59272 139.86 9.63705 140.046 9.63705C140.454 9.63705 140.79 9.51293 141.047 9.27356C141.308 9.02533 141.441 8.68401 141.441 8.25847C141.441 7.7487 141.202 7.31873 140.75 7.02174C139.604 6.21498 138.147 5.80273 136.42 5.80273C134.361 5.80273 132.687 6.44548 131.443 7.71324C130.203 8.981 129.574 10.7053 129.574 12.8419C129.574 14.9785 130.194 16.6585 131.416 17.944C132.643 19.2295 134.325 19.8811 136.42 19.8811C138.514 19.8811 140.277 19.1541 141.499 17.7622C141.8 17.5273 142.008 17.2702 142.11 17.0042C142.207 16.7516 142.256 16.428 142.256 16.0113V13.1389C142.256 12.6513 142.101 12.2435 141.8 11.9243C141.49 11.6007 141.078 11.4367 140.578 11.4367V11.4412Z" fill="#02BFDF"/>
<path d="M152.653 16.9343H147.574V14.2392H150.788C151.16 14.2392 151.479 14.0973 151.745 13.8181C152.006 13.5432 152.135 13.2152 152.135 12.8384C152.135 12.4616 152.002 12.1336 151.745 11.8588C151.484 11.5795 151.16 11.4377 150.788 11.4377H147.574V8.76032H152.653C153.025 8.76032 153.343 8.61847 153.609 8.33921C153.866 8.06438 153.999 7.73636 153.999 7.35957C153.999 6.98279 153.866 6.65477 153.605 6.38437C153.343 6.11398 153.02 5.97656 152.653 5.97656H145.878C145.346 5.97656 144.93 6.14501 144.638 6.4686C144.355 6.78775 144.213 7.20886 144.213 7.72306V17.9316C144.213 18.4503 144.355 18.8714 144.638 19.1861C144.93 19.5141 145.346 19.6826 145.878 19.6826H152.653C153.02 19.6826 153.339 19.5496 153.605 19.2836C153.866 19.0221 153.999 18.6941 153.999 18.3173C153.999 17.9405 153.866 17.6169 153.609 17.3377C153.343 17.0584 153.025 16.9165 152.653 16.9165V16.9343Z" fill="#02BFDF"/>
<path d="M16.9054 2.37614C16.9807 0.736025 15.7984 -0.03527 14.2885 0.000191851C12.7785 0.0356537 11.521 0.869007 11.4413 2.50912C11.4369 2.63767 11.4413 2.76178 11.4457 2.8859C11.4457 3.19619 11.5254 3.48432 11.6405 3.77244C11.6804 3.86997 11.7247 3.96748 11.769 4.06057C11.9948 4.52158 12.2915 4.97371 12.504 5.45688C12.8848 6.339 12.7785 6.53404 12.7785 6.53404L15.1873 6.47641C15.1873 6.47641 15.0899 6.2858 15.5549 5.38153C16.0198 4.47725 16.7725 3.67492 16.8567 2.77951C16.8788 2.65096 16.8921 2.51355 16.901 2.38057L16.9054 2.37614Z" fill="#F6921E"/>
<path d="M15.212 6.22363C15.212 6.22363 14.7249 6.48516 13.9899 6.50733C13.2504 6.52506 12.7899 6.28569 12.7899 6.28569C12.7899 6.28569 12.3958 6.61371 12.4888 6.73783C12.5818 6.86195 12.6305 6.83978 12.6305 6.83978C12.6305 6.83978 12.5021 8.11198 12.8165 8.44443C13.1087 8.75029 13.8128 8.71926 13.9146 8.71483C14.0076 8.71483 14.6674 8.71483 14.9862 8.39124C15.3316 8.04549 15.3227 6.77772 15.3227 6.77772C15.3227 6.77772 15.3714 6.79989 15.4733 6.66691C15.5751 6.53836 15.212 6.22807 15.212 6.22807V6.22363Z" fill="#02BFDF"/>
<path d="M13.1628 6.49933C13.1628 6.05606 13.154 5.2094 13.1053 4.46027C13.03 4.46914 12.9592 4.46914 12.8927 4.45141C12.7732 4.42038 12.6182 4.33616 12.5429 4.09679C12.3481 3.46291 12.4057 2.84676 12.6758 2.72707C12.7378 2.70048 12.9016 2.66502 13.061 2.93098C13.1717 3.12159 13.2426 3.62249 13.2868 4.19431C13.3798 4.14998 13.4772 4.08349 13.5658 3.99927C13.5259 3.88845 13.4949 3.7599 13.4905 3.63135C13.4728 3.34322 13.5348 2.90882 13.7296 2.84233C13.7783 2.82459 13.8315 2.83789 13.8713 2.86449C14.0086 2.97531 13.9909 3.39642 13.9687 3.63578C13.9555 3.79536 13.9023 3.92834 13.8093 4.03916C13.8492 4.11009 13.8935 4.16328 13.9422 4.19874C13.9864 4.2342 14.0307 4.24307 14.0706 4.22977L14.1237 4.42481C14.0263 4.45141 13.9245 4.42481 13.827 4.35832C13.7651 4.31399 13.7119 4.25193 13.6632 4.18101C13.5481 4.27853 13.4241 4.35389 13.3045 4.40265C13.3621 5.31136 13.3621 6.31315 13.3621 6.4949H13.1584L13.1628 6.49933ZM12.7909 2.91325C12.7909 2.91325 12.7732 2.90882 12.7643 2.91325C12.6669 2.95758 12.5429 3.39198 12.7422 4.03916C12.782 4.16328 12.844 4.2342 12.9459 4.25637C12.9902 4.26523 13.0433 4.26967 13.0964 4.25637C13.0566 3.68011 12.9902 3.19251 12.8927 3.0285C12.8529 2.96201 12.8175 2.92655 12.7909 2.91325ZM13.7695 3.08613C13.7296 3.18365 13.6853 3.38755 13.6986 3.61805C13.6986 3.68011 13.7119 3.74217 13.7252 3.7998C13.7518 3.74217 13.7651 3.68454 13.7739 3.61805C13.796 3.37425 13.7872 3.18808 13.7739 3.08613H13.7695Z" fill="black"/>
<path d="M14.5189 6.45896C14.5277 6.38361 14.6207 5.32862 14.7713 4.36671C14.6561 4.32239 14.5454 4.2559 14.4392 4.16724C14.3816 4.25146 14.3152 4.31795 14.2488 4.36671C14.1558 4.4332 14.0539 4.45537 13.9609 4.4332L14.0052 4.23373C14.0539 4.2426 14.1026 4.22043 14.1336 4.19827C14.1912 4.15838 14.2488 4.09632 14.2975 4.01653C14.2178 3.90571 14.1779 3.77273 14.1779 3.61758C14.1779 3.42254 14.1912 2.95711 14.3417 2.85072C14.3816 2.81969 14.4303 2.81083 14.479 2.82856C14.665 2.89061 14.7004 3.32945 14.6561 3.62201C14.6384 3.75056 14.5986 3.87468 14.5454 3.98993C14.6251 4.06529 14.7137 4.12291 14.8067 4.16724C14.9041 3.58655 15.0236 3.06792 15.1521 2.87732C15.3336 2.60692 15.4842 2.62908 15.5639 2.67341C15.8163 2.80639 15.8163 3.40481 15.5639 4.04312C15.4576 4.30466 15.2805 4.39331 15.1476 4.41547C15.0901 4.42434 15.0325 4.42877 14.9705 4.41991C14.851 5.1779 14.7624 6.03342 14.7181 6.48113L14.5189 6.4634V6.45896ZM15.4709 2.84185C15.4709 2.84185 15.4 2.85515 15.3203 2.97927C15.2052 3.14771 15.0989 3.63975 15.0015 4.21157C15.0369 4.21157 15.0768 4.21157 15.1078 4.20714C15.2273 4.18497 15.3203 4.10075 15.3735 3.9589C15.6259 3.32059 15.555 2.88618 15.4664 2.84185H15.4709ZM14.4392 3.07236C14.4082 3.16988 14.3816 3.36492 14.3816 3.61758C14.3816 3.67964 14.3904 3.73727 14.4082 3.78603C14.4303 3.71953 14.448 3.65304 14.4569 3.58655C14.4923 3.36492 14.4702 3.16988 14.4392 3.07236Z" fill="black"/>
<path d="M12.6349 6.92819C12.5906 6.90603 12.5685 6.85283 12.5862 6.80407C12.6039 6.75088 12.6615 6.72428 12.7146 6.74201C12.7146 6.74201 13.1751 6.89716 13.9589 6.89716C14.7382 6.89716 15.2828 6.67996 15.2872 6.67552C15.3404 6.65336 15.3979 6.67552 15.4201 6.72872C15.4422 6.78191 15.4201 6.83953 15.367 6.8617C15.3448 6.87056 14.7825 7.09663 13.9589 7.09663C13.1397 7.09663 12.6703 6.93262 12.6482 6.92819H12.6349Z" fill="black"/>
<path d="M12.9066 7.50467C12.8623 7.48251 12.8402 7.43375 12.8534 7.38499C12.8711 7.33179 12.9243 7.30077 12.9774 7.3185C12.9818 7.3185 13.5176 7.47807 14.0667 7.42045C14.6202 7.35839 14.9124 7.22541 14.9124 7.22541C14.9611 7.20324 15.0231 7.22541 15.0453 7.27417C15.0674 7.32293 15.0453 7.38499 14.9966 7.40715C14.9833 7.41158 14.6778 7.55343 14.0844 7.61992C13.4911 7.68641 12.9376 7.51797 12.9154 7.51354C12.911 7.51354 12.9066 7.51354 12.9021 7.5091L12.9066 7.50467Z" fill="black"/>
<path d="M12.8831 8.04569C12.8389 8.02352 12.8167 7.97476 12.83 7.926C12.8477 7.87281 12.9008 7.84178 12.954 7.85951C12.9584 7.85951 13.4942 8.01909 14.0433 7.96146C14.5968 7.89941 14.889 7.76642 14.889 7.76642C14.9377 7.74426 14.9997 7.76642 15.0218 7.81518C15.044 7.86394 15.0218 7.926 14.9731 7.94817C14.9598 7.9526 14.6543 8.09445 14.0654 8.16094C13.4721 8.22743 12.9186 8.05898 12.8964 8.05455C12.892 8.05455 12.8876 8.05455 12.8831 8.05012V8.04569Z" fill="black"/>
</g>
<defs>
<clipPath id="clip0_1237_598">
<rect width="154" height="24" fill="white"/>
</clipPath>
</defs>
</svg>
