<svg width="20" height="20" viewBox="0 0 20 20" fill="none" xmlns="http://www.w3.org/2000/svg">
<g clip-path="url(#clip0_97_85)">
<path fill-rule="evenodd" clip-rule="evenodd" d="M9.99902 0C4.47618 0 -0.000976562 4.47716 -0.000976562 10C-0.000976562 15.5229 4.47618 20 9.99902 20C15.5219 20 19.999 15.5229 19.999 10C19.999 4.47716 15.5219 0 9.99902 0Z" fill="#D3D3D3"/>
<path fill-rule="evenodd" clip-rule="evenodd" d="M6.54299 8.53701C5.73707 8.53421 5.08462 7.88002 5.08462 7.07343C5.08462 6.26513 5.73987 5.60986 6.54819 5.60986L6.55425 5.60988C7.35977 5.61315 8.01177 6.26715 8.01177 7.07345C8.01177 7.88175 7.3565 8.53702 6.54819 8.53702L6.54299 8.53701ZM5.13205 11.3893C4.9348 11.3893 4.7749 11.5492 4.7749 11.7464C4.7749 12.5357 5.15992 13.6568 5.99109 14.5803C6.83416 15.5171 8.14019 16.2556 9.97606 16.2556C11.8119 16.2556 13.118 15.5171 13.961 14.5803C14.7922 13.6568 15.1772 12.5357 15.1772 11.7464C15.1772 11.5492 15.0174 11.3893 14.8201 11.3893H5.13205ZM13.4465 8.53701C12.6398 8.53515 11.9864 7.88059 11.9864 7.07343C11.9864 6.26513 12.6416 5.60986 13.45 5.60986L13.4534 5.60988C14.2601 5.61173 14.9135 6.26629 14.9135 7.07345C14.9135 7.88175 14.2583 8.53702 13.45 8.53702L13.4465 8.53701Z" fill="#B1A7A6"/>
</g>
<defs>
<clipPath id="clip0_97_85">
<rect width="20" height="20" fill="white" transform="translate(-0.000976562)"/>
</clipPath>
</defs>
</svg>
