<svg width="345" height="336" viewBox="0 0 345 336" fill="none" xmlns="http://www.w3.org/2000/svg">
<path d="M1.536 15V3.704H3.12V13.624H8.176V15H1.536ZM9.02875 12.728C9.02875 10.056 12.5488 9.944 13.9088 9.944H14.2608V9.8C14.2608 8.472 13.5088 8.024 12.4848 8.024C11.2368 8.024 10.2288 8.808 10.2288 8.808L9.58875 7.672C9.58875 7.672 10.7568 6.712 12.6128 6.712C14.6608 6.712 15.8128 7.832 15.8128 9.88V15H14.3728V14.232C14.3728 13.864 14.4048 13.592 14.4048 13.592H14.3728C14.3728 13.592 13.7168 15.192 11.7808 15.192C10.3888 15.192 9.02875 14.344 9.02875 12.728ZM10.5968 12.648C10.5968 13.304 11.1088 13.944 12.1168 13.944C13.4288 13.944 14.2768 12.568 14.2768 11.368V11.112H13.8768C12.7088 11.112 10.5968 11.192 10.5968 12.648ZM18.0419 12.792V3.704H19.5939V12.52C19.5939 13.496 19.9779 13.672 20.4579 13.672C20.6019 13.672 20.7299 13.656 20.7299 13.656V15.032C20.7299 15.032 20.4899 15.064 20.2179 15.064C19.3379 15.064 18.0419 14.824 18.0419 12.792ZM22.3563 5.288V3.704H23.9243V5.288H22.3563ZM22.3723 15V6.904H23.9243V15H22.3723ZM26.6926 12.04V8.264H25.6366V7.016H26.7406V4.68H28.2446V7.016H30.1966V8.264H28.2446V11.864C28.2446 13.48 29.3806 13.688 29.9726 13.688C30.1966 13.688 30.3406 13.656 30.3406 13.656V15.032C30.3406 15.032 30.1166 15.064 29.7966 15.064C28.7566 15.064 26.6926 14.744 26.6926 12.04ZM36.5204 15V3.704H40.4724C42.3764 3.704 43.7524 4.76 43.7524 6.584C43.7524 7.688 43.2084 8.568 42.3444 9.016V9.048C43.5284 9.4 44.2004 10.52 44.2004 11.784C44.2004 13.912 42.5524 15 40.5684 15H36.5204ZM38.1044 8.456H40.4724C41.4964 8.456 42.1364 7.736 42.1364 6.744C42.1364 5.752 41.5284 5.08 40.4404 5.08H38.1044V8.456ZM38.1044 13.624H40.6484C41.8644 13.624 42.5844 12.856 42.5844 11.704C42.5844 10.552 41.8164 9.768 40.6324 9.768H38.1044V13.624ZM46.325 5.288V3.704H47.893V5.288H46.325ZM46.341 15V6.904H47.893V15H46.341ZM50.3254 15V3.704H51.8774V7.848C51.8774 8.232 51.8454 8.52 51.8454 8.52H51.8774C52.2294 7.736 53.2534 6.712 54.8694 6.712C56.7734 6.712 57.6534 7.752 57.6534 9.816V15H56.1014V10.168C56.1014 9.032 55.8614 8.136 54.5654 8.136C53.3494 8.136 52.3414 8.968 52.0054 10.136C51.9094 10.456 51.8774 10.824 51.8774 11.208V15H50.3254ZM59.31 12.728C59.31 10.056 62.83 9.944 64.19 9.944H64.542V9.8C64.542 8.472 63.79 8.024 62.766 8.024C61.518 8.024 60.51 8.808 60.51 8.808L59.87 7.672C59.87 7.672 61.038 6.712 62.894 6.712C64.942 6.712 66.094 7.832 66.094 9.88V15H64.654V14.232C64.654 13.864 64.686 13.592 64.686 13.592H64.654C64.654 13.592 63.998 15.192 62.062 15.192C60.67 15.192 59.31 14.344 59.31 12.728ZM60.878 12.648C60.878 13.304 61.39 13.944 62.398 13.944C63.71 13.944 64.558 12.568 64.558 11.368V11.112H64.158C62.99 11.112 60.878 11.192 60.878 12.648ZM68.4191 15V6.904H69.9231V7.976C69.9231 8.296 69.8911 8.568 69.8911 8.568H69.9231C70.2431 7.864 71.2031 6.712 72.9631 6.712C74.8671 6.712 75.7471 7.752 75.7471 9.816V15H74.1951V10.168C74.1951 9.032 73.9551 8.136 72.6591 8.136C71.4271 8.136 70.4351 8.952 70.0991 10.12C70.0031 10.44 69.9711 10.808 69.9711 11.208V15H68.4191ZM78.0438 5.288V3.704H79.6118V5.288H78.0438ZM78.0598 15V6.904H79.6118V15H78.0598Z" fill="#B1A7A6"/>
<path d="M0 65.92C0 52.9314 0 46.4371 2.44734 41.4415C4.79057 36.6583 8.65833 32.7906 13.4415 30.4473C18.4371 28 24.9314 28 37.92 28H147C158.046 28 167 36.9543 167 48C167 59.0457 158.046 68 147 68H0V65.92Z" fill="#181010"/>
<path d="M24.5533 53L23.4173 49.752H19.1613L18.0413 53H16.4093L20.4733 41.704H22.1373L26.2013 53H24.5533ZM21.3213 43.256H21.2893C21.2893 43.256 21.0333 44.28 20.8413 44.856L19.5773 48.44H23.0013L21.7533 44.856C21.5613 44.28 21.3213 43.256 21.3213 43.256ZM29.1144 53L26.5064 44.904H28.1544L29.8344 50.584C29.9624 51 30.0264 51.448 30.0424 51.448H30.0744C30.0744 51.448 30.1544 51 30.2824 50.584L32.0424 44.92H33.4664L35.2104 50.584C35.3384 51 35.4344 51.448 35.4344 51.448H35.4664C35.4664 51.448 35.5304 51 35.6584 50.584L37.3544 44.904H38.9864L36.3784 53H34.6664L32.9864 47.8C32.8584 47.384 32.7624 46.92 32.7624 46.92H32.7304C32.7304 46.92 32.6344 47.384 32.5064 47.8L30.8424 53H29.1144ZM39.9216 48.952C39.9216 46.376 41.6656 44.712 43.9696 44.712C46.2576 44.712 47.4736 46.408 47.4736 48.504C47.4736 48.712 47.4256 49.176 47.4256 49.176H41.5216C41.6016 50.952 42.8656 51.848 44.3056 51.848C45.6976 51.848 46.7056 50.904 46.7056 50.904L47.3456 52.04C47.3456 52.04 46.1456 53.192 44.2096 53.192C41.6656 53.192 39.9216 51.352 39.9216 48.952ZM41.5696 48.008H45.8896C45.8416 46.616 44.9776 45.944 43.9376 45.944C42.7536 45.944 41.7936 46.68 41.5696 48.008ZM48.7006 52.008L49.4526 50.904C49.4526 50.904 50.3646 51.848 51.7726 51.848C52.4446 51.848 53.1166 51.496 53.1166 50.84C53.1166 49.352 48.9566 49.656 48.9566 47.016C48.9566 45.544 50.2686 44.712 51.8846 44.712C53.6606 44.712 54.4926 45.608 54.4926 45.608L53.8686 46.776C53.8686 46.776 53.1486 46.056 51.8686 46.056C51.1966 46.056 50.5406 46.344 50.5406 47.048C50.5406 48.504 54.7006 48.184 54.7006 50.84C54.7006 52.184 53.5486 53.192 51.7726 53.192C49.7886 53.192 48.7006 52.008 48.7006 52.008ZM55.9365 48.936C55.9365 46.488 57.8885 44.712 60.3045 44.712C62.7205 44.712 64.6725 46.488 64.6725 48.936C64.6725 51.4 62.7205 53.192 60.3045 53.192C57.8885 53.192 55.9365 51.4 55.9365 48.936ZM57.5205 48.936C57.5205 50.632 58.7845 51.848 60.3045 51.848C61.8405 51.848 63.0885 50.632 63.0885 48.936C63.0885 47.256 61.8405 46.056 60.3045 46.056C58.7845 46.056 57.5205 47.256 57.5205 48.936ZM66.5129 53V44.904H68.0169V45.976C68.0169 46.296 67.9849 46.568 67.9849 46.568H68.0169C68.4009 45.624 69.5369 44.712 70.8009 44.712C72.1609 44.712 72.9609 45.336 73.2329 46.552H73.2649C73.7129 45.576 74.8329 44.712 76.1449 44.712C77.9689 44.712 78.8169 45.752 78.8169 47.816V53H77.2649V48.152C77.2649 47.016 77.0409 46.12 75.8249 46.12C74.6889 46.12 73.8409 47.08 73.5529 48.184C73.4729 48.52 73.4409 48.888 73.4409 49.304V53H71.8889V48.152C71.8889 47.096 71.7289 46.12 70.4809 46.12C69.2969 46.12 68.4649 47.096 68.1609 48.248C68.0809 48.568 68.0649 48.936 68.0649 49.304V53H66.5129ZM80.5779 48.952C80.5779 46.376 82.3219 44.712 84.6259 44.712C86.9139 44.712 88.1299 46.408 88.1299 48.504C88.1299 48.712 88.0819 49.176 88.0819 49.176H82.1779C82.2579 50.952 83.5219 51.848 84.9619 51.848C86.3539 51.848 87.3619 50.904 87.3619 50.904L88.0019 52.04C88.0019 52.04 86.8019 53.192 84.8659 53.192C82.3219 53.192 80.5779 51.352 80.5779 48.952ZM82.2259 48.008H86.5459C86.4979 46.616 85.6339 45.944 84.5939 45.944C83.4099 45.944 82.4499 46.68 82.2259 48.008ZM95.7863 53L93.1783 44.904H94.8263L96.5063 50.584C96.6343 51 96.6983 51.448 96.7143 51.448H96.7463C96.7463 51.448 96.8263 51 96.9543 50.584L98.7143 44.92H100.138L101.882 50.584C102.01 51 102.106 51.448 102.106 51.448H102.138C102.138 51.448 102.202 51 102.33 50.584L104.026 44.904H105.658L103.05 53H101.338L99.6583 47.8C99.5303 47.384 99.4343 46.92 99.4343 46.92H99.4023C99.4023 46.92 99.3063 47.384 99.1783 47.8L97.5143 53H95.7863ZM106.562 48.936C106.562 46.488 108.514 44.712 110.93 44.712C113.346 44.712 115.298 46.488 115.298 48.936C115.298 51.4 113.346 53.192 110.93 53.192C108.514 53.192 106.562 51.4 106.562 48.936ZM108.146 48.936C108.146 50.632 109.41 51.848 110.93 51.848C112.466 51.848 113.714 50.632 113.714 48.936C113.714 47.256 112.466 46.056 110.93 46.056C109.41 46.056 108.146 47.256 108.146 48.936ZM117.138 53V44.904H118.642V46.312C118.642 46.648 118.61 46.92 118.61 46.92H118.642C119.01 45.736 119.954 44.808 121.202 44.808C121.41 44.808 121.602 44.84 121.602 44.84V46.376C121.602 46.376 121.394 46.328 121.154 46.328C120.162 46.328 119.25 47.032 118.882 48.232C118.738 48.696 118.69 49.192 118.69 49.688V53H117.138ZM123.138 53V41.704H124.69V47.88H125.826L128.034 44.904H129.794L127.106 48.472V48.504L130.098 53H128.29L125.858 49.192H124.69V53H123.138ZM132.2 49.896L132.088 41.704H133.688L133.592 49.896H132.2ZM132.104 53V51.448H133.688V53H132.104ZM137.294 49.896L137.182 41.704H138.782L138.686 49.896H137.294ZM137.198 53V51.448H138.782V53H137.198ZM142.387 49.896L142.275 41.704H143.875L143.779 49.896H142.387ZM142.291 53V51.448H143.875V53H142.291ZM147.481 49.896L147.369 41.704H148.969L148.873 49.896H147.481ZM147.385 53V51.448H148.969V53H147.385Z" fill="white"/>
<path d="M0 113.92C0 100.931 0 94.4371 2.44734 89.4415C4.79057 84.6583 8.65833 80.7906 13.4415 78.4473C18.4371 76 24.9314 76 37.92 76H147C158.046 76 167 84.9543 167 96C167 107.046 158.046 116 147 116H0V113.92Z" fill="#181010"/>
<path d="M24.5533 101L23.4173 97.752H19.1613L18.0413 101H16.4093L20.4733 89.704H22.1373L26.2013 101H24.5533ZM21.3213 91.256H21.2893C21.2893 91.256 21.0333 92.28 20.8413 92.856L19.5773 96.44H23.0013L21.7533 92.856C21.5613 92.28 21.3213 91.256 21.3213 91.256ZM29.1144 101L26.5064 92.904H28.1544L29.8344 98.584C29.9624 99 30.0264 99.448 30.0424 99.448H30.0744C30.0744 99.448 30.1544 99 30.2824 98.584L32.0424 92.92H33.4664L35.2104 98.584C35.3384 99 35.4344 99.448 35.4344 99.448H35.4664C35.4664 99.448 35.5304 99 35.6584 98.584L37.3544 92.904H38.9864L36.3784 101H34.6664L32.9864 95.8C32.8584 95.384 32.7624 94.92 32.7624 94.92H32.7304C32.7304 94.92 32.6344 95.384 32.5064 95.8L30.8424 101H29.1144ZM39.9216 96.952C39.9216 94.376 41.6656 92.712 43.9696 92.712C46.2576 92.712 47.4736 94.408 47.4736 96.504C47.4736 96.712 47.4256 97.176 47.4256 97.176H41.5216C41.6016 98.952 42.8656 99.848 44.3056 99.848C45.6976 99.848 46.7056 98.904 46.7056 98.904L47.3456 100.04C47.3456 100.04 46.1456 101.192 44.2096 101.192C41.6656 101.192 39.9216 99.352 39.9216 96.952ZM41.5696 96.008H45.8896C45.8416 94.616 44.9776 93.944 43.9376 93.944C42.7536 93.944 41.7936 94.68 41.5696 96.008ZM48.7006 100.008L49.4526 98.904C49.4526 98.904 50.3646 99.848 51.7726 99.848C52.4446 99.848 53.1166 99.496 53.1166 98.84C53.1166 97.352 48.9566 97.656 48.9566 95.016C48.9566 93.544 50.2686 92.712 51.8846 92.712C53.6606 92.712 54.4926 93.608 54.4926 93.608L53.8686 94.776C53.8686 94.776 53.1486 94.056 51.8686 94.056C51.1966 94.056 50.5406 94.344 50.5406 95.048C50.5406 96.504 54.7006 96.184 54.7006 98.84C54.7006 100.184 53.5486 101.192 51.7726 101.192C49.7886 101.192 48.7006 100.008 48.7006 100.008ZM55.9365 96.936C55.9365 94.488 57.8885 92.712 60.3045 92.712C62.7205 92.712 64.6725 94.488 64.6725 96.936C64.6725 99.4 62.7205 101.192 60.3045 101.192C57.8885 101.192 55.9365 99.4 55.9365 96.936ZM57.5205 96.936C57.5205 98.632 58.7845 99.848 60.3045 99.848C61.8405 99.848 63.0885 98.632 63.0885 96.936C63.0885 95.256 61.8405 94.056 60.3045 94.056C58.7845 94.056 57.5205 95.256 57.5205 96.936ZM66.5129 101V92.904H68.0169V93.976C68.0169 94.296 67.9849 94.568 67.9849 94.568H68.0169C68.4009 93.624 69.5369 92.712 70.8009 92.712C72.1609 92.712 72.9609 93.336 73.2329 94.552H73.2649C73.7129 93.576 74.8329 92.712 76.1449 92.712C77.9689 92.712 78.8169 93.752 78.8169 95.816V101H77.2649V96.152C77.2649 95.016 77.0409 94.12 75.8249 94.12C74.6889 94.12 73.8409 95.08 73.5529 96.184C73.4729 96.52 73.4409 96.888 73.4409 97.304V101H71.8889V96.152C71.8889 95.096 71.7289 94.12 70.4809 94.12C69.2969 94.12 68.4649 95.096 68.1609 96.248C68.0809 96.568 68.0649 96.936 68.0649 97.304V101H66.5129ZM80.5779 96.952C80.5779 94.376 82.3219 92.712 84.6259 92.712C86.9139 92.712 88.1299 94.408 88.1299 96.504C88.1299 96.712 88.0819 97.176 88.0819 97.176H82.1779C82.2579 98.952 83.5219 99.848 84.9619 99.848C86.3539 99.848 87.3619 98.904 87.3619 98.904L88.0019 100.04C88.0019 100.04 86.8019 101.192 84.8659 101.192C82.3219 101.192 80.5779 99.352 80.5779 96.952ZM82.2259 96.008H86.5459C86.4979 94.616 85.6339 93.944 84.5939 93.944C83.4099 93.944 82.4499 94.68 82.2259 96.008ZM95.7863 101L93.1783 92.904H94.8263L96.5063 98.584C96.6343 99 96.6983 99.448 96.7143 99.448H96.7463C96.7463 99.448 96.8263 99 96.9543 98.584L98.7143 92.92H100.138L101.882 98.584C102.01 99 102.106 99.448 102.106 99.448H102.138C102.138 99.448 102.202 99 102.33 98.584L104.026 92.904H105.658L103.05 101H101.338L99.6583 95.8C99.5303 95.384 99.4343 94.92 99.4343 94.92H99.4023C99.4023 94.92 99.3063 95.384 99.1783 95.8L97.5143 101H95.7863ZM106.562 96.936C106.562 94.488 108.514 92.712 110.93 92.712C113.346 92.712 115.298 94.488 115.298 96.936C115.298 99.4 113.346 101.192 110.93 101.192C108.514 101.192 106.562 99.4 106.562 96.936ZM108.146 96.936C108.146 98.632 109.41 99.848 110.93 99.848C112.466 99.848 113.714 98.632 113.714 96.936C113.714 95.256 112.466 94.056 110.93 94.056C109.41 94.056 108.146 95.256 108.146 96.936ZM117.138 101V92.904H118.642V94.312C118.642 94.648 118.61 94.92 118.61 94.92H118.642C119.01 93.736 119.954 92.808 121.202 92.808C121.41 92.808 121.602 92.84 121.602 92.84V94.376C121.602 94.376 121.394 94.328 121.154 94.328C120.162 94.328 119.25 95.032 118.882 96.232C118.738 96.696 118.69 97.192 118.69 97.688V101H117.138ZM123.138 101V89.704H124.69V95.88H125.826L128.034 92.904H129.794L127.106 96.472V96.504L130.098 101H128.29L125.858 97.192H124.69V101H123.138ZM132.2 97.896L132.088 89.704H133.688L133.592 97.896H132.2ZM132.104 101V99.448H133.688V101H132.104ZM137.294 97.896L137.182 89.704H138.782L138.686 97.896H137.294ZM137.198 101V99.448H138.782V101H137.198ZM142.387 97.896L142.275 89.704H143.875L143.779 97.896H142.387ZM142.291 101V99.448H143.875V101H142.291ZM147.481 97.896L147.369 89.704H148.969L148.873 97.896H147.481ZM147.385 101V99.448H148.969V101H147.385Z" fill="white"/>
<path d="M0 161.92C0 148.931 0 142.437 2.44734 137.441C4.79057 132.658 8.65833 128.791 13.4415 126.447C18.4371 124 24.9314 124 37.92 124H307.08C320.069 124 326.563 124 331.559 126.447C336.342 128.791 340.209 132.658 342.553 137.441C345 142.437 345 148.931 345 161.92V222.08C345 235.069 345 241.563 342.553 246.559C340.209 251.342 336.342 255.209 331.559 257.553C326.563 260 320.069 260 307.08 260H0V161.92Z" fill="#181010"/>
<path d="M17.536 149V137.704H24.096V139.08H19.12V142.616H23.168V143.992H19.12V147.624H24.368V149H17.536ZM28.136 149L25.112 140.904H26.76L28.728 146.376C28.888 146.824 28.984 147.48 29 147.48H29.032C29.048 147.48 29.16 146.824 29.32 146.376L31.288 140.904H32.92L29.928 149H28.136ZM33.6873 144.952C33.6873 142.376 35.4313 140.712 37.7352 140.712C40.0233 140.712 41.2393 142.408 41.2393 144.504C41.2393 144.712 41.1913 145.176 41.1913 145.176H35.2873C35.3673 146.952 36.6313 147.848 38.0713 147.848C39.4633 147.848 40.4713 146.904 40.4713 146.904L41.1112 148.04C41.1112 148.04 39.9113 149.192 37.9753 149.192C35.4313 149.192 33.6873 147.352 33.6873 144.952ZM35.3353 144.008H39.6553C39.6073 142.616 38.7433 141.944 37.7033 141.944C36.5193 141.944 35.5593 142.68 35.3353 144.008ZM43.1223 149V140.904H44.6263V142.312C44.6263 142.648 44.5943 142.92 44.5943 142.92H44.6263C44.9943 141.736 45.9383 140.808 47.1863 140.808C47.3943 140.808 47.5863 140.84 47.5863 140.84V142.376C47.5863 142.376 47.3783 142.328 47.1383 142.328C46.1463 142.328 45.2343 143.032 44.8663 144.232C44.7223 144.696 44.6743 145.192 44.6743 145.688V149H43.1223ZM48.0956 151.864L48.6396 150.68C48.6396 150.68 49.0876 151.016 49.5836 151.016C50.2076 151.016 50.7356 150.568 51.0396 149.832L51.4396 148.904L48.0476 140.904H49.7916L51.8236 146.2C51.9836 146.616 52.1276 147.176 52.1276 147.176H52.1596C52.1596 147.176 52.2876 146.632 52.4316 146.216L54.3996 140.904H56.0796L52.2876 150.456C51.7916 151.704 50.7996 152.36 49.6636 152.36C48.7516 152.36 48.0956 151.864 48.0956 151.864ZM57.7239 146.04V142.264H56.6679V141.016H57.7719V138.68H59.2759V141.016H61.2279V142.264H59.2759V145.864C59.2759 147.48 60.4119 147.688 61.0039 147.688C61.2279 147.688 61.3719 147.656 61.3719 147.656V149.032C61.3719 149.032 61.1479 149.064 60.8279 149.064C59.7879 149.064 57.7239 148.744 57.7239 146.04ZM63.1223 149V137.704H64.6743V141.848C64.6743 142.232 64.6423 142.52 64.6423 142.52H64.6743C65.0263 141.736 66.0503 140.712 67.6663 140.712C69.5703 140.712 70.4503 141.752 70.4503 143.816V149H68.8983V144.168C68.8983 143.032 68.6583 142.136 67.3623 142.136C66.1463 142.136 65.1383 142.968 64.8023 144.136C64.7063 144.456 64.6743 144.824 64.6743 145.208V149H63.1223ZM72.7469 139.288V137.704H74.3149V139.288H72.7469ZM72.7629 149V140.904H74.3149V149H72.7629ZM76.7473 149V140.904H78.2513V141.976C78.2513 142.296 78.2193 142.568 78.2193 142.568H78.2513C78.5713 141.864 79.5312 140.712 81.2913 140.712C83.1953 140.712 84.0753 141.752 84.0753 143.816V149H82.5233V144.168C82.5233 143.032 82.2833 142.136 80.9873 142.136C79.7552 142.136 78.7633 142.952 78.4273 144.12C78.3313 144.44 78.2993 144.808 78.2993 145.208V149H76.7473ZM87.1079 150.472C87.1079 150.472 88.1159 151.016 89.3319 151.016C90.7399 151.016 91.8919 150.392 91.8919 148.744V148.152C91.8919 147.896 91.9079 147.64 91.9079 147.64H91.8759C91.3959 148.44 90.6439 148.904 89.4759 148.904C87.2199 148.904 85.8599 147.096 85.8599 144.76C85.8599 142.44 87.1559 140.712 89.3959 140.712C91.3479 140.712 91.9399 141.912 91.9399 141.912H91.9719C91.9719 141.912 91.9559 141.8 91.9559 141.656V140.904H93.4439V148.664C93.4439 151.336 91.4119 152.36 89.3639 152.36C88.3879 152.36 87.3799 152.088 86.5959 151.688L87.1079 150.472ZM89.7799 147.56C90.8999 147.56 91.9239 146.888 91.9239 144.776C91.9239 142.664 90.8999 142.056 89.6359 142.056C88.2279 142.056 87.4279 143.08 87.4279 144.728C87.4279 146.408 88.3239 147.56 89.7799 147.56ZM99.8856 146.792V137.704H101.438V146.52C101.438 147.496 101.822 147.672 102.302 147.672C102.446 147.672 102.574 147.656 102.574 147.656V149.032C102.574 149.032 102.334 149.064 102.062 149.064C101.182 149.064 99.8856 148.824 99.8856 146.792ZM103.624 144.936C103.624 142.488 105.576 140.712 107.992 140.712C110.408 140.712 112.36 142.488 112.36 144.936C112.36 147.4 110.408 149.192 107.992 149.192C105.576 149.192 103.624 147.4 103.624 144.936ZM105.208 144.936C105.208 146.632 106.472 147.848 107.992 147.848C109.528 147.848 110.776 146.632 110.776 144.936C110.776 143.256 109.528 142.056 107.992 142.056C106.472 142.056 105.208 143.256 105.208 144.936ZM113.608 144.936C113.608 142.488 115.56 140.712 117.976 140.712C120.392 140.712 122.344 142.488 122.344 144.936C122.344 147.4 120.392 149.192 117.976 149.192C115.56 149.192 113.608 147.4 113.608 144.936ZM115.192 144.936C115.192 146.632 116.456 147.848 117.976 147.848C119.512 147.848 120.76 146.632 120.76 144.936C120.76 143.256 119.512 142.056 117.976 142.056C116.456 142.056 115.192 143.256 115.192 144.936ZM124.185 149V137.704H125.737V143.88H126.873L129.081 140.904H130.841L128.153 144.472V144.504L131.145 149H129.337L126.905 145.192H125.737V149H124.185ZM131.951 148.008L132.703 146.904C132.703 146.904 133.615 147.848 135.023 147.848C135.695 147.848 136.367 147.496 136.367 146.84C136.367 145.352 132.207 145.656 132.207 143.016C132.207 141.544 133.519 140.712 135.135 140.712C136.911 140.712 137.743 141.608 137.743 141.608L137.119 142.776C137.119 142.776 136.399 142.056 135.119 142.056C134.447 142.056 133.791 142.344 133.791 143.048C133.791 144.504 137.951 144.184 137.951 146.84C137.951 148.184 136.799 149.192 135.023 149.192C133.039 149.192 131.951 148.008 131.951 148.008ZM143.232 146.728C143.232 144.056 146.752 143.944 148.112 143.944H148.464V143.8C148.464 142.472 147.712 142.024 146.688 142.024C145.44 142.024 144.432 142.808 144.432 142.808L143.792 141.672C143.792 141.672 144.96 140.712 146.816 140.712C148.864 140.712 150.016 141.832 150.016 143.88V149H148.576V148.232C148.576 147.864 148.608 147.592 148.608 147.592H148.576C148.576 147.592 147.92 149.192 145.984 149.192C144.592 149.192 143.232 148.344 143.232 146.728ZM144.8 146.648C144.8 147.304 145.312 147.944 146.32 147.944C147.632 147.944 148.48 146.568 148.48 145.368V145.112H148.08C146.912 145.112 144.8 145.192 144.8 146.648ZM154.005 149L151.397 140.904H153.045L154.725 146.584C154.853 147 154.917 147.448 154.933 147.448H154.965C154.965 147.448 155.045 147 155.173 146.584L156.933 140.92H158.357L160.101 146.584C160.229 147 160.325 147.448 160.325 147.448H160.357C160.357 147.448 160.421 147 160.549 146.584L162.245 140.904H163.877L161.269 149H159.557L157.877 143.8C157.749 143.384 157.653 142.92 157.653 142.92H157.621C157.621 142.92 157.525 143.384 157.397 143.8L155.733 149H154.005ZM164.812 144.952C164.812 142.376 166.556 140.712 168.86 140.712C171.148 140.712 172.364 142.408 172.364 144.504C172.364 144.712 172.316 145.176 172.316 145.176H166.412C166.492 146.952 167.756 147.848 169.196 147.848C170.588 147.848 171.596 146.904 171.596 146.904L172.236 148.04C172.236 148.04 171.036 149.192 169.1 149.192C166.556 149.192 164.812 147.352 164.812 144.952ZM166.46 144.008H170.78C170.732 142.616 169.868 141.944 168.828 141.944C167.644 141.944 166.684 142.68 166.46 144.008ZM173.591 148.008L174.343 146.904C174.343 146.904 175.255 147.848 176.663 147.848C177.335 147.848 178.007 147.496 178.007 146.84C178.007 145.352 173.847 145.656 173.847 143.016C173.847 141.544 175.159 140.712 176.775 140.712C178.551 140.712 179.383 141.608 179.383 141.608L178.759 142.776C178.759 142.776 178.039 142.056 176.759 142.056C176.087 142.056 175.431 142.344 175.431 143.048C175.431 144.504 179.591 144.184 179.591 146.84C179.591 148.184 178.439 149.192 176.663 149.192C174.679 149.192 173.591 148.008 173.591 148.008ZM180.827 144.936C180.827 142.488 182.779 140.712 185.195 140.712C187.611 140.712 189.563 142.488 189.563 144.936C189.563 147.4 187.611 149.192 185.195 149.192C182.779 149.192 180.827 147.4 180.827 144.936ZM182.411 144.936C182.411 146.632 183.675 147.848 185.195 147.848C186.731 147.848 187.979 146.632 187.979 144.936C187.979 143.256 186.731 142.056 185.195 142.056C183.675 142.056 182.411 143.256 182.411 144.936ZM191.404 149V140.904H192.908V141.976C192.908 142.296 192.876 142.568 192.876 142.568H192.908C193.292 141.624 194.428 140.712 195.692 140.712C197.052 140.712 197.852 141.336 198.124 142.552H198.156C198.604 141.576 199.724 140.712 201.036 140.712C202.86 140.712 203.708 141.752 203.708 143.816V149H202.156V144.152C202.156 143.016 201.932 142.12 200.716 142.12C199.58 142.12 198.732 143.08 198.444 144.184C198.364 144.52 198.332 144.888 198.332 145.304V149H196.78V144.152C196.78 143.096 196.62 142.12 195.372 142.12C194.188 142.12 193.356 143.096 193.052 144.248C192.972 144.568 192.956 144.936 192.956 145.304V149H191.404ZM205.469 144.952C205.469 142.376 207.213 140.712 209.516 140.712C211.805 140.712 213.021 142.408 213.021 144.504C213.021 144.712 212.973 145.176 212.973 145.176H207.069C207.149 146.952 208.413 147.848 209.853 147.848C211.245 147.848 212.253 146.904 212.253 146.904L212.892 148.04C212.892 148.04 211.693 149.192 209.757 149.192C207.213 149.192 205.469 147.352 205.469 144.952ZM207.117 144.008H211.437C211.389 142.616 210.525 141.944 209.485 141.944C208.301 141.944 207.341 142.68 207.117 144.008ZM214.904 149V147.352H216.536V149H214.904ZM223.395 149V137.704H224.979V149H223.395ZM231.313 144.952C231.313 142.376 232.833 140.712 234.977 140.712C236.849 140.712 237.473 141.992 237.473 141.992H237.505C237.505 141.992 237.473 141.752 237.473 141.448V137.704H239.025V149H237.553V148.232C237.553 147.912 237.569 147.688 237.569 147.688H237.537C237.537 147.688 236.881 149.192 234.881 149.192C232.689 149.192 231.313 147.464 231.313 144.952ZM232.897 144.952C232.897 146.712 233.841 147.848 235.185 147.848C236.385 147.848 237.521 147 237.521 144.936C237.521 143.496 236.769 142.056 235.233 142.056C233.953 142.056 232.897 143.112 232.897 144.952ZM240.858 144.936C240.858 142.488 242.81 140.712 245.226 140.712C247.642 140.712 249.594 142.488 249.594 144.936C249.594 147.4 247.642 149.192 245.226 149.192C242.81 149.192 240.858 147.4 240.858 144.936ZM242.442 144.936C242.442 146.632 243.706 147.848 245.226 147.848C246.762 147.848 248.01 146.632 248.01 144.936C248.01 143.256 246.762 142.056 245.226 142.056C243.706 142.056 242.442 143.256 242.442 144.936ZM251.435 149V140.904H252.939V141.976C252.939 142.296 252.907 142.568 252.907 142.568H252.939C253.259 141.864 254.219 140.712 255.979 140.712C257.883 140.712 258.763 141.752 258.763 143.816V149H257.211V144.168C257.211 143.032 256.971 142.136 255.675 142.136C254.443 142.136 253.451 142.952 253.115 144.12C253.019 144.44 252.987 144.808 252.987 145.208V149H251.435ZM260.867 140.52V137.512H262.099V140.52H260.867ZM264.661 146.04V142.264H263.605V141.016H264.709V138.68H266.213V141.016H268.165V142.264H266.213V145.864C266.213 147.48 267.349 147.688 267.941 147.688C268.165 147.688 268.309 147.656 268.309 147.656V149.032C268.309 149.032 268.085 149.064 267.765 149.064C266.725 149.064 264.661 148.744 264.661 146.04ZM274.169 149V137.704H275.721V141.848C275.721 142.232 275.689 142.52 275.689 142.52H275.721C276.073 141.736 277.097 140.712 278.713 140.712C280.617 140.712 281.497 141.752 281.497 143.816V149H279.945V144.168C279.945 143.032 279.705 142.136 278.409 142.136C277.193 142.136 276.185 142.968 275.849 144.136C275.753 144.456 275.721 144.824 275.721 145.208V149H274.169ZM283.154 146.728C283.154 144.056 286.674 143.944 288.034 143.944H288.386V143.8C288.386 142.472 287.634 142.024 286.61 142.024C285.362 142.024 284.354 142.808 284.354 142.808L283.714 141.672C283.714 141.672 284.882 140.712 286.738 140.712C288.786 140.712 289.938 141.832 289.938 143.88V149H288.498V148.232C288.498 147.864 288.53 147.592 288.53 147.592H288.498C288.498 147.592 287.842 149.192 285.906 149.192C284.514 149.192 283.154 148.344 283.154 146.728ZM284.722 146.648C284.722 147.304 285.234 147.944 286.242 147.944C287.554 147.944 288.402 146.568 288.402 145.368V145.112H288.002C286.834 145.112 284.722 145.192 284.722 146.648ZM294.183 149L291.159 140.904H292.807L294.775 146.376C294.935 146.824 295.031 147.48 295.047 147.48H295.079C295.095 147.48 295.207 146.824 295.367 146.376L297.335 140.904H298.967L295.975 149H294.183ZM299.734 144.952C299.734 142.376 301.478 140.712 303.782 140.712C306.07 140.712 307.286 142.408 307.286 144.504C307.286 144.712 307.238 145.176 307.238 145.176H301.334C301.414 146.952 302.678 147.848 304.118 147.848C305.51 147.848 306.518 146.904 306.518 146.904L307.158 148.04C307.158 148.04 305.958 149.192 304.022 149.192C301.478 149.192 299.734 147.352 299.734 144.952ZM301.382 144.008H305.702C305.654 142.616 304.79 141.944 303.75 141.944C302.566 141.944 301.606 142.68 301.382 144.008ZM16.56 170.728C16.56 168.056 20.08 167.944 21.44 167.944H21.792V167.8C21.792 166.472 21.04 166.024 20.016 166.024C18.768 166.024 17.76 166.808 17.76 166.808L17.12 165.672C17.12 165.672 18.288 164.712 20.144 164.712C22.192 164.712 23.344 165.832 23.344 167.88V173H21.904V172.232C21.904 171.864 21.936 171.592 21.936 171.592H21.904C21.904 171.592 21.248 173.192 19.312 173.192C17.92 173.192 16.56 172.344 16.56 170.728ZM18.128 170.648C18.128 171.304 18.64 171.944 19.648 171.944C20.96 171.944 21.808 170.568 21.808 169.368V169.112H21.408C20.24 169.112 18.128 169.192 18.128 170.648ZM25.6691 173V164.904H27.1731V165.976C27.1731 166.296 27.1411 166.568 27.1411 166.568H27.1731C27.4931 165.864 28.4531 164.712 30.2131 164.712C32.1171 164.712 32.9971 165.752 32.9971 167.816V173H31.4451V168.168C31.4451 167.032 31.2051 166.136 29.9091 166.136C28.6771 166.136 27.6851 166.952 27.3491 168.12C27.2531 168.44 27.2211 168.808 27.2211 169.208V173H25.6691ZM34.1738 175.864L34.7178 174.68C34.7178 174.68 35.1658 175.016 35.6618 175.016C36.2858 175.016 36.8138 174.568 37.1178 173.832L37.5178 172.904L34.1258 164.904H35.8698L37.9018 170.2C38.0618 170.616 38.2057 171.176 38.2057 171.176H38.2378C38.2378 171.176 38.3658 170.632 38.5098 170.216L40.4778 164.904H42.1578L38.3658 174.456C37.8698 175.704 36.8778 176.36 35.7418 176.36C34.8298 176.36 34.1738 175.864 34.1738 175.864ZM47.5754 173V164.904H49.0794V165.976C49.0794 166.296 49.0474 166.568 49.0474 166.568H49.0794C49.4634 165.624 50.5994 164.712 51.8634 164.712C53.2234 164.712 54.0234 165.336 54.2954 166.552H54.3274C54.7754 165.576 55.8954 164.712 57.2074 164.712C59.0314 164.712 59.8794 165.752 59.8794 167.816V173H58.3274V168.152C58.3274 167.016 58.1034 166.12 56.8874 166.12C55.7514 166.12 54.9034 167.08 54.6154 168.184C54.5354 168.52 54.5034 168.888 54.5034 169.304V173H52.9514V168.152C52.9514 167.096 52.7914 166.12 51.5434 166.12C50.3594 166.12 49.5274 167.096 49.2234 168.248C49.1434 168.568 49.1274 168.936 49.1274 169.304V173H47.5754ZM61.5444 170.728C61.5444 168.056 65.0644 167.944 66.4244 167.944H66.7764V167.8C66.7764 166.472 66.0244 166.024 65.0004 166.024C63.7524 166.024 62.7444 166.808 62.7444 166.808L62.1044 165.672C62.1044 165.672 63.2724 164.712 65.1284 164.712C67.1764 164.712 68.3284 165.832 68.3284 167.88V173H66.8884V172.232C66.8884 171.864 66.9204 171.592 66.9204 171.592H66.8884C66.8884 171.592 66.2324 173.192 64.2964 173.192C62.9044 173.192 61.5444 172.344 61.5444 170.728ZM63.1124 170.648C63.1124 171.304 63.6244 171.944 64.6324 171.944C65.9444 171.944 66.7924 170.568 66.7924 169.368V169.112H66.3924C65.2244 169.112 63.1124 169.192 63.1124 170.648ZM70.6375 163.288V161.704H72.2055V163.288H70.6375ZM70.6535 164.904H72.1895V173.272C72.1895 175.976 70.1095 176.296 69.1015 176.296C68.7655 176.296 68.5575 176.264 68.5575 176.264V174.936C68.5575 174.936 68.7015 174.952 68.9095 174.952C69.5015 174.952 70.6535 174.76 70.6535 173.176V164.904ZM74.0303 168.936C74.0303 166.488 75.9823 164.712 78.3983 164.712C80.8143 164.712 82.7663 166.488 82.7663 168.936C82.7663 171.4 80.8143 173.192 78.3983 173.192C75.9823 173.192 74.0303 171.4 74.0303 168.936ZM75.6143 168.936C75.6143 170.632 76.8783 171.848 78.3983 171.848C79.9343 171.848 81.1823 170.632 81.1823 168.936C81.1823 167.256 79.9343 166.056 78.3983 166.056C76.8783 166.056 75.6143 167.256 75.6143 168.936ZM84.6066 173V164.904H86.1106V166.312C86.1106 166.648 86.0786 166.92 86.0786 166.92H86.1106C86.4786 165.736 87.4226 164.808 88.6706 164.808C88.8786 164.808 89.0706 164.84 89.0706 164.84V166.376C89.0706 166.376 88.8626 166.328 88.6226 166.328C87.6306 166.328 86.7186 167.032 86.3506 168.232C86.2066 168.696 86.1586 169.192 86.1586 169.688V173H84.6066ZM95.148 173V166.264H94.14V165.016H95.148V164.632C95.148 161.96 97.164 161.624 98.188 161.624C98.54 161.624 98.78 161.672 98.78 161.672V163C98.78 163 98.62 162.968 98.38 162.968C97.788 162.968 96.684 163.16 96.684 164.664V165.016H98.604V166.264H96.684V173H95.148ZM99.531 168.952C99.531 166.376 101.275 164.712 103.579 164.712C105.867 164.712 107.083 166.408 107.083 168.504C107.083 168.712 107.035 169.176 107.035 169.176H101.131C101.211 170.952 102.475 171.848 103.915 171.848C105.307 171.848 106.315 170.904 106.315 170.904L106.955 172.04C106.955 172.04 105.755 173.192 103.819 173.192C101.275 173.192 99.531 171.352 99.531 168.952ZM101.179 168.008H105.499C105.451 166.616 104.587 165.944 103.547 165.944C102.363 165.944 101.403 166.68 101.179 168.008ZM108.406 168.952C108.406 166.376 110.15 164.712 112.454 164.712C114.742 164.712 115.958 166.408 115.958 168.504C115.958 168.712 115.91 169.176 115.91 169.176H110.006C110.086 170.952 111.35 171.848 112.79 171.848C114.182 171.848 115.19 170.904 115.19 170.904L115.83 172.04C115.83 172.04 114.63 173.192 112.694 173.192C110.15 173.192 108.406 171.352 108.406 168.952ZM110.054 168.008H114.374C114.326 166.616 113.462 165.944 112.422 165.944C111.238 165.944 110.278 166.68 110.054 168.008ZM117.313 168.952C117.313 166.376 118.833 164.712 120.977 164.712C122.849 164.712 123.473 165.992 123.473 165.992H123.505C123.505 165.992 123.473 165.752 123.473 165.448V161.704H125.025V173H123.553V172.232C123.553 171.912 123.569 171.688 123.569 171.688H123.537C123.537 171.688 122.881 173.192 120.881 173.192C118.689 173.192 117.313 171.464 117.313 168.952ZM118.897 168.952C118.897 170.712 119.841 171.848 121.185 171.848C122.385 171.848 123.521 171 123.521 168.936C123.521 167.496 122.769 166.056 121.233 166.056C119.953 166.056 118.897 167.112 118.897 168.952ZM127.45 173V161.704H129.002V165.4C129.002 165.8 128.97 166.088 128.97 166.088H129.002C129.002 166.088 129.69 164.712 131.594 164.712C133.77 164.712 135.146 166.44 135.146 168.952C135.146 171.528 133.594 173.192 131.466 173.192C129.658 173.192 128.922 171.8 128.922 171.8H128.89C128.89 171.8 128.922 172.056 128.922 172.408V173H127.45ZM128.954 168.984C128.954 170.424 129.706 171.864 131.242 171.864C132.522 171.864 133.578 170.808 133.578 168.968C133.578 167.208 132.634 166.072 131.29 166.072C130.074 166.072 128.954 166.92 128.954 168.984ZM136.388 170.728C136.388 168.056 139.908 167.944 141.268 167.944H141.62V167.8C141.62 166.472 140.868 166.024 139.844 166.024C138.596 166.024 137.588 166.808 137.588 166.808L136.948 165.672C136.948 165.672 138.116 164.712 139.972 164.712C142.02 164.712 143.172 165.832 143.172 167.88V173H141.732V172.232C141.732 171.864 141.764 171.592 141.764 171.592H141.732C141.732 171.592 141.076 173.192 139.14 173.192C137.748 173.192 136.388 172.344 136.388 170.728ZM137.956 170.648C137.956 171.304 138.468 171.944 139.476 171.944C140.788 171.944 141.636 170.568 141.636 169.368V169.112H141.236C140.068 169.112 137.956 169.192 137.956 170.648ZM144.921 168.952C144.921 166.552 146.713 164.712 149.257 164.712C151.289 164.712 152.297 165.896 152.297 165.896L151.561 166.984C151.561 166.984 150.697 166.056 149.321 166.056C147.689 166.056 146.505 167.272 146.505 168.936C146.505 170.584 147.689 171.848 149.369 171.848C150.873 171.848 151.865 170.76 151.865 170.76L152.489 171.896C152.489 171.896 151.369 173.192 149.257 173.192C146.713 173.192 144.921 171.384 144.921 168.952ZM154.247 173V161.704H155.799V167.88H156.935L159.143 164.904H160.903L158.215 168.472V168.504L161.207 173H159.399L156.967 169.192H155.799V173H154.247ZM166.187 168.936C166.187 166.488 168.139 164.712 170.555 164.712C172.971 164.712 174.923 166.488 174.923 168.936C174.923 171.4 172.971 173.192 170.555 173.192C168.139 173.192 166.187 171.4 166.187 168.936ZM167.771 168.936C167.771 170.632 169.035 171.848 170.555 171.848C172.091 171.848 173.339 170.632 173.339 168.936C173.339 167.256 172.091 166.056 170.555 166.056C169.035 166.056 167.771 167.256 167.771 168.936ZM177.099 170.04V166.264H176.043V165.016H177.147V162.68H178.651V165.016H180.603V166.264H178.651V169.864C178.651 171.48 179.787 171.688 180.379 171.688C180.603 171.688 180.747 171.656 180.747 171.656V173.032C180.747 173.032 180.523 173.064 180.203 173.064C179.163 173.064 177.099 172.744 177.099 170.04ZM182.497 173V161.704H184.049V165.848C184.049 166.232 184.017 166.52 184.017 166.52H184.049C184.401 165.736 185.425 164.712 187.041 164.712C188.945 164.712 189.825 165.752 189.825 167.816V173H188.273V168.168C188.273 167.032 188.033 166.136 186.737 166.136C185.521 166.136 184.513 166.968 184.177 168.136C184.081 168.456 184.049 168.824 184.049 169.208V173H182.497ZM191.578 168.952C191.578 166.376 193.322 164.712 195.626 164.712C197.914 164.712 199.13 166.408 199.13 168.504C199.13 168.712 199.082 169.176 199.082 169.176H193.178C193.258 170.952 194.522 171.848 195.962 171.848C197.354 171.848 198.362 170.904 198.362 170.904L199.002 172.04C199.002 172.04 197.802 173.192 195.866 173.192C193.322 173.192 191.578 171.352 191.578 168.952ZM193.226 168.008H197.546C197.498 166.616 196.634 165.944 195.594 165.944C194.41 165.944 193.45 166.68 193.226 168.008ZM201.013 173V164.904H202.517V166.312C202.517 166.648 202.485 166.92 202.485 166.92H202.517C202.885 165.736 203.829 164.808 205.077 164.808C205.285 164.808 205.477 164.84 205.477 164.84V166.376C205.477 166.376 205.269 166.328 205.029 166.328C204.037 166.328 203.125 167.032 202.757 168.232C202.613 168.696 202.565 169.192 202.565 169.688V173H201.013ZM211.458 170.04V166.264H210.402V165.016H211.506V162.68H213.01V165.016H214.962V166.264H213.01V169.864C213.01 171.48 214.146 171.688 214.738 171.688C214.962 171.688 215.106 171.656 215.106 171.656V173.032C215.106 173.032 214.882 173.064 214.562 173.064C213.522 173.064 211.458 172.744 211.458 170.04ZM216.857 173V161.704H218.409V165.848C218.409 166.232 218.377 166.52 218.377 166.52H218.409C218.761 165.736 219.785 164.712 221.401 164.712C223.305 164.712 224.185 165.752 224.185 167.816V173H222.633V168.168C222.633 167.032 222.393 166.136 221.097 166.136C219.881 166.136 218.873 166.968 218.537 168.136C218.441 168.456 218.409 168.824 218.409 169.208V173H216.857ZM225.841 170.728C225.841 168.056 229.361 167.944 230.721 167.944H231.073V167.8C231.073 166.472 230.321 166.024 229.297 166.024C228.049 166.024 227.041 166.808 227.041 166.808L226.401 165.672C226.401 165.672 227.569 164.712 229.425 164.712C231.473 164.712 232.625 165.832 232.625 167.88V173H231.185V172.232C231.185 171.864 231.217 171.592 231.217 171.592H231.185C231.185 171.592 230.529 173.192 228.593 173.192C227.201 173.192 225.841 172.344 225.841 170.728ZM227.409 170.648C227.409 171.304 227.921 171.944 228.929 171.944C230.241 171.944 231.089 170.568 231.089 169.368V169.112H230.689C229.521 169.112 227.409 169.192 227.409 170.648ZM234.95 173V164.904H236.454V165.976C236.454 166.296 236.422 166.568 236.422 166.568H236.454C236.774 165.864 237.734 164.712 239.494 164.712C241.398 164.712 242.278 165.752 242.278 167.816V173H240.726V168.168C240.726 167.032 240.486 166.136 239.19 166.136C237.958 166.136 236.966 166.952 236.63 168.12C236.534 168.44 236.502 168.808 236.502 169.208V173H234.95ZM248.7 173V161.704H250.252V167.88H251.388L253.596 164.904H255.356L252.668 168.472V168.504L255.66 173H253.852L251.42 169.192H250.252V173H248.7ZM256.437 168.952C256.437 166.376 258.181 164.712 260.485 164.712C262.773 164.712 263.989 166.408 263.989 168.504C263.989 168.712 263.941 169.176 263.941 169.176H258.037C258.117 170.952 259.381 171.848 260.821 171.848C262.213 171.848 263.221 170.904 263.221 170.904L263.861 172.04C263.861 172.04 262.661 173.192 260.725 173.192C258.181 173.192 256.437 171.352 256.437 168.952ZM258.085 168.008H262.405C262.357 166.616 261.493 165.944 260.453 165.944C259.269 165.944 258.309 166.68 258.085 168.008ZM265.312 168.952C265.312 166.376 267.056 164.712 269.36 164.712C271.648 164.712 272.864 166.408 272.864 168.504C272.864 168.712 272.816 169.176 272.816 169.176H266.912C266.992 170.952 268.256 171.848 269.696 171.848C271.088 171.848 272.096 170.904 272.096 170.904L272.736 172.04C272.736 172.04 271.536 173.192 269.6 173.192C267.056 173.192 265.312 171.352 265.312 168.952ZM266.96 168.008H271.28C271.232 166.616 270.368 165.944 269.328 165.944C268.144 165.944 267.184 166.68 266.96 168.008ZM274.747 176.2V164.904H276.171V165.592C276.171 165.912 276.139 166.184 276.139 166.184H276.171C276.171 166.184 276.859 164.712 278.891 164.712C281.067 164.712 282.443 166.44 282.443 168.952C282.443 171.528 280.891 173.192 278.779 173.192C277.003 173.192 276.299 171.864 276.299 171.864H276.267C276.267 171.864 276.299 172.152 276.299 172.568V176.2H274.747ZM276.251 168.984C276.251 170.424 277.051 171.864 278.539 171.864C279.819 171.864 280.875 170.808 280.875 168.968C280.875 167.208 279.931 166.072 278.587 166.072C277.371 166.072 276.251 166.92 276.251 168.984ZM17.936 198.472C17.936 198.472 18.944 199.016 20.16 199.016C21.568 199.016 22.72 198.392 22.72 196.744V196.152C22.72 195.896 22.736 195.64 22.736 195.64H22.704C22.224 196.44 21.472 196.904 20.304 196.904C18.048 196.904 16.688 195.096 16.688 192.76C16.688 190.44 17.984 188.712 20.224 188.712C22.176 188.712 22.768 189.912 22.768 189.912H22.8C22.8 189.912 22.784 189.8 22.784 189.656V188.904H24.272V196.664C24.272 199.336 22.24 200.36 20.192 200.36C19.216 200.36 18.208 200.088 17.424 199.688L17.936 198.472ZM20.608 195.56C21.728 195.56 22.752 194.888 22.752 192.776C22.752 190.664 21.728 190.056 20.464 190.056C19.056 190.056 18.256 191.08 18.256 192.728C18.256 194.408 19.152 195.56 20.608 195.56ZM26.1084 192.936C26.1084 190.488 28.0604 188.712 30.4764 188.712C32.8924 188.712 34.8444 190.488 34.8444 192.936C34.8444 195.4 32.8924 197.192 30.4764 197.192C28.0604 197.192 26.1084 195.4 26.1084 192.936ZM27.6924 192.936C27.6924 194.632 28.9564 195.848 30.4764 195.848C32.0124 195.848 33.2604 194.632 33.2604 192.936C33.2604 191.256 32.0124 190.056 30.4764 190.056C28.9564 190.056 27.6924 191.256 27.6924 192.936ZM36.6688 187.288V185.704H38.2368V187.288H36.6688ZM36.6848 197V188.904H38.2368V197H36.6848ZM40.6691 197V188.904H42.1731V189.976C42.1731 190.296 42.1411 190.568 42.1411 190.568H42.1731C42.4931 189.864 43.4531 188.712 45.2131 188.712C47.1171 188.712 47.9971 189.752 47.9971 191.816V197H46.4451V192.168C46.4451 191.032 46.2051 190.136 44.9091 190.136C43.6771 190.136 42.6851 190.952 42.3491 192.12C42.2531 192.44 42.2211 192.808 42.2211 193.208V197H40.6691ZM51.0298 198.472C51.0298 198.472 52.0378 199.016 53.2538 199.016C54.6618 199.016 55.8138 198.392 55.8138 196.744V196.152C55.8138 195.896 55.8298 195.64 55.8298 195.64H55.7978C55.3178 196.44 54.5658 196.904 53.3978 196.904C51.1418 196.904 49.7818 195.096 49.7818 192.76C49.7818 190.44 51.0778 188.712 53.3177 188.712C55.2698 188.712 55.8618 189.912 55.8618 189.912H55.8938C55.8938 189.912 55.8778 189.8 55.8778 189.656V188.904H57.3658V196.664C57.3658 199.336 55.3338 200.36 53.2858 200.36C52.3098 200.36 51.3018 200.088 50.5178 199.688L51.0298 198.472ZM53.7018 195.56C54.8218 195.56 55.8458 194.888 55.8458 192.776C55.8458 190.664 54.8218 190.056 53.5578 190.056C52.1498 190.056 51.3498 191.08 51.3498 192.728C51.3498 194.408 52.2458 195.56 53.7018 195.56ZM59.7941 197V195.352H61.4261V197H59.7941ZM68.286 197V185.704H74.846V187.08H69.87V190.616H73.918V191.992H69.87V195.624H75.118V197H68.286ZM78.886 197L75.862 188.904H77.51L79.478 194.376C79.638 194.824 79.734 195.48 79.75 195.48H79.782C79.798 195.48 79.91 194.824 80.07 194.376L82.038 188.904H83.67L80.678 197H78.886ZM84.4373 192.952C84.4373 190.376 86.1813 188.712 88.4852 188.712C90.7733 188.712 91.9893 190.408 91.9893 192.504C91.9893 192.712 91.9413 193.176 91.9413 193.176H86.0373C86.1173 194.952 87.3813 195.848 88.8213 195.848C90.2133 195.848 91.2213 194.904 91.2213 194.904L91.8612 196.04C91.8612 196.04 90.6613 197.192 88.7253 197.192C86.1813 197.192 84.4373 195.352 84.4373 192.952ZM86.0853 192.008H90.4053C90.3573 190.616 89.4933 189.944 88.4533 189.944C87.2693 189.944 86.3093 190.68 86.0853 192.008ZM93.8723 197V188.904H95.3763V190.312C95.3763 190.648 95.3443 190.92 95.3443 190.92H95.3763C95.7443 189.736 96.6883 188.808 97.9363 188.808C98.1443 188.808 98.3363 188.84 98.3363 188.84V190.376C98.3363 190.376 98.1283 190.328 97.8883 190.328C96.8963 190.328 95.9843 191.032 95.6163 192.232C95.4723 192.696 95.4243 193.192 95.4243 193.688V197H93.8723ZM98.8456 199.864L99.3896 198.68C99.3896 198.68 99.8376 199.016 100.334 199.016C100.958 199.016 101.486 198.568 101.79 197.832L102.19 196.904L98.7976 188.904H100.542L102.574 194.2C102.734 194.616 102.878 195.176 102.878 195.176H102.91C102.91 195.176 103.038 194.632 103.182 194.216L105.15 188.904H106.83L103.038 198.456C102.542 199.704 101.55 200.36 100.414 200.36C99.5016 200.36 98.8456 199.864 98.8456 199.864ZM108.474 194.04V190.264H107.418V189.016H108.522V186.68H110.026V189.016H111.978V190.264H110.026V193.864C110.026 195.48 111.162 195.688 111.754 195.688C111.978 195.688 112.122 195.656 112.122 195.656V197.032C112.122 197.032 111.898 197.064 111.578 197.064C110.538 197.064 108.474 196.744 108.474 194.04ZM113.872 197V185.704H115.424V189.848C115.424 190.232 115.392 190.52 115.392 190.52H115.424C115.776 189.736 116.8 188.712 118.416 188.712C120.32 188.712 121.2 189.752 121.2 191.816V197H119.648V192.168C119.648 191.032 119.408 190.136 118.112 190.136C116.896 190.136 115.888 190.968 115.552 192.136C115.456 192.456 115.424 192.824 115.424 193.208V197H113.872ZM123.497 187.288V185.704H125.065V187.288H123.497ZM123.513 197V188.904H125.065V197H123.513ZM127.497 197V188.904H129.001V189.976C129.001 190.296 128.969 190.568 128.969 190.568H129.001C129.321 189.864 130.281 188.712 132.041 188.712C133.945 188.712 134.825 189.752 134.825 191.816V197H133.273V192.168C133.273 191.032 133.033 190.136 131.737 190.136C130.505 190.136 129.513 190.952 129.177 192.12C129.081 192.44 129.049 192.808 129.049 193.208V197H127.497ZM137.858 198.472C137.858 198.472 138.866 199.016 140.082 199.016C141.49 199.016 142.642 198.392 142.642 196.744V196.152C142.642 195.896 142.658 195.64 142.658 195.64H142.626C142.146 196.44 141.394 196.904 140.226 196.904C137.97 196.904 136.61 195.096 136.61 192.76C136.61 190.44 137.906 188.712 140.146 188.712C142.098 188.712 142.69 189.912 142.69 189.912H142.722C142.722 189.912 142.706 189.8 142.706 189.656V188.904H144.194V196.664C144.194 199.336 142.162 200.36 140.114 200.36C139.138 200.36 138.13 200.088 137.346 199.688L137.858 198.472ZM140.53 195.56C141.65 195.56 142.674 194.888 142.674 192.776C142.674 190.664 141.65 190.056 140.386 190.056C138.978 190.056 138.178 191.08 138.178 192.728C138.178 194.408 139.074 195.56 140.53 195.56ZM150.636 194.792V185.704H152.188V194.52C152.188 195.496 152.572 195.672 153.052 195.672C153.196 195.672 153.324 195.656 153.324 195.656V197.032C153.324 197.032 153.084 197.064 152.812 197.064C151.932 197.064 150.636 196.824 150.636 194.792ZM154.374 192.936C154.374 190.488 156.326 188.712 158.742 188.712C161.158 188.712 163.11 190.488 163.11 192.936C163.11 195.4 161.158 197.192 158.742 197.192C156.326 197.192 154.374 195.4 154.374 192.936ZM155.958 192.936C155.958 194.632 157.222 195.848 158.742 195.848C160.278 195.848 161.526 194.632 161.526 192.936C161.526 191.256 160.278 190.056 158.742 190.056C157.222 190.056 155.958 191.256 155.958 192.936ZM164.358 192.936C164.358 190.488 166.31 188.712 168.726 188.712C171.142 188.712 173.094 190.488 173.094 192.936C173.094 195.4 171.142 197.192 168.726 197.192C166.31 197.192 164.358 195.4 164.358 192.936ZM165.942 192.936C165.942 194.632 167.206 195.848 168.726 195.848C170.262 195.848 171.51 194.632 171.51 192.936C171.51 191.256 170.262 190.056 168.726 190.056C167.206 190.056 165.942 191.256 165.942 192.936ZM174.935 197V185.704H176.487V191.88H177.623L179.831 188.904H181.591L178.903 192.472V192.504L181.895 197H180.087L177.655 193.192H176.487V197H174.935ZM182.701 196.008L183.453 194.904C183.453 194.904 184.365 195.848 185.773 195.848C186.445 195.848 187.117 195.496 187.117 194.84C187.117 193.352 182.957 193.656 182.957 191.016C182.957 189.544 184.269 188.712 185.885 188.712C187.661 188.712 188.493 189.608 188.493 189.608L187.869 190.776C187.869 190.776 187.149 190.056 185.869 190.056C185.197 190.056 184.541 190.344 184.541 191.048C184.541 192.504 188.701 192.184 188.701 194.84C188.701 196.184 187.549 197.192 185.773 197.192C183.789 197.192 182.701 196.008 182.701 196.008ZM193.982 194.728C193.982 192.056 197.502 191.944 198.862 191.944H199.214V191.8C199.214 190.472 198.462 190.024 197.438 190.024C196.19 190.024 195.182 190.808 195.182 190.808L194.542 189.672C194.542 189.672 195.71 188.712 197.566 188.712C199.614 188.712 200.766 189.832 200.766 191.88V197H199.326V196.232C199.326 195.864 199.358 195.592 199.358 195.592H199.326C199.326 195.592 198.67 197.192 196.734 197.192C195.342 197.192 193.982 196.344 193.982 194.728ZM195.55 194.648C195.55 195.304 196.062 195.944 197.07 195.944C198.382 195.944 199.23 194.568 199.23 193.368V193.112H198.83C197.662 193.112 195.55 193.192 195.55 194.648ZM204.755 197L202.147 188.904H203.795L205.475 194.584C205.603 195 205.667 195.448 205.683 195.448H205.715C205.715 195.448 205.795 195 205.923 194.584L207.683 188.92H209.107L210.851 194.584C210.979 195 211.075 195.448 211.075 195.448H211.107C211.107 195.448 211.171 195 211.299 194.584L212.995 188.904H214.627L212.019 197H210.307L208.627 191.8C208.499 191.384 208.403 190.92 208.403 190.92H208.371C208.371 190.92 208.275 191.384 208.147 191.8L206.483 197H204.755ZM215.562 192.952C215.562 190.376 217.306 188.712 219.61 188.712C221.898 188.712 223.114 190.408 223.114 192.504C223.114 192.712 223.066 193.176 223.066 193.176H217.162C217.242 194.952 218.506 195.848 219.946 195.848C221.338 195.848 222.346 194.904 222.346 194.904L222.986 196.04C222.986 196.04 221.786 197.192 219.85 197.192C217.306 197.192 215.562 195.352 215.562 192.952ZM217.21 192.008H221.53C221.482 190.616 220.618 189.944 219.578 189.944C218.394 189.944 217.434 190.68 217.21 192.008ZM224.341 196.008L225.093 194.904C225.093 194.904 226.005 195.848 227.413 195.848C228.085 195.848 228.757 195.496 228.757 194.84C228.757 193.352 224.597 193.656 224.597 191.016C224.597 189.544 225.909 188.712 227.525 188.712C229.301 188.712 230.133 189.608 230.133 189.608L229.509 190.776C229.509 190.776 228.789 190.056 227.509 190.056C226.837 190.056 226.181 190.344 226.181 191.048C226.181 192.504 230.341 192.184 230.341 194.84C230.341 196.184 229.189 197.192 227.413 197.192C225.429 197.192 224.341 196.008 224.341 196.008ZM231.577 192.936C231.577 190.488 233.529 188.712 235.945 188.712C238.361 188.712 240.313 190.488 240.313 192.936C240.313 195.4 238.361 197.192 235.945 197.192C233.529 197.192 231.577 195.4 231.577 192.936ZM233.161 192.936C233.161 194.632 234.425 195.848 235.945 195.848C237.481 195.848 238.729 194.632 238.729 192.936C238.729 191.256 237.481 190.056 235.945 190.056C234.425 190.056 233.161 191.256 233.161 192.936ZM242.154 197V188.904H243.658V189.976C243.658 190.296 243.626 190.568 243.626 190.568H243.658C244.042 189.624 245.178 188.712 246.442 188.712C247.802 188.712 248.602 189.336 248.874 190.552H248.906C249.354 189.576 250.474 188.712 251.786 188.712C253.61 188.712 254.458 189.752 254.458 191.816V197H252.906V192.152C252.906 191.016 252.682 190.12 251.466 190.12C250.33 190.12 249.482 191.08 249.194 192.184C249.114 192.52 249.082 192.888 249.082 193.304V197H247.53V192.152C247.53 191.096 247.37 190.12 246.122 190.12C244.938 190.12 244.106 191.096 243.802 192.248C243.722 192.568 243.706 192.936 243.706 193.304V197H242.154ZM256.219 192.952C256.219 190.376 257.963 188.712 260.266 188.712C262.555 188.712 263.771 190.408 263.771 192.504C263.771 192.712 263.723 193.176 263.723 193.176H257.819C257.899 194.952 259.163 195.848 260.603 195.848C261.995 195.848 263.003 194.904 263.003 194.904L263.642 196.04C263.642 196.04 262.443 197.192 260.507 197.192C257.963 197.192 256.219 195.352 256.219 192.952ZM257.867 192.008H262.187C262.139 190.616 261.275 189.944 260.235 189.944C259.051 189.944 258.091 190.68 257.867 192.008ZM265.654 197V195.352H267.286V197H265.654ZM274.145 197V185.704H275.729V197H274.145ZM282.063 192.952C282.063 190.376 283.583 188.712 285.727 188.712C287.599 188.712 288.223 189.992 288.223 189.992H288.255C288.255 189.992 288.223 189.752 288.223 189.448V185.704H289.775V197H288.303V196.232C288.303 195.912 288.319 195.688 288.319 195.688H288.287C288.287 195.688 287.631 197.192 285.631 197.192C283.439 197.192 282.063 195.464 282.063 192.952ZM283.647 192.952C283.647 194.712 284.591 195.848 285.935 195.848C287.135 195.848 288.271 195 288.271 192.936C288.271 191.496 287.519 190.056 285.983 190.056C284.703 190.056 283.647 191.112 283.647 192.952ZM291.608 192.936C291.608 190.488 293.56 188.712 295.976 188.712C298.392 188.712 300.344 190.488 300.344 192.936C300.344 195.4 298.392 197.192 295.976 197.192C293.56 197.192 291.608 195.4 291.608 192.936ZM293.192 192.936C293.192 194.632 294.456 195.848 295.976 195.848C297.512 195.848 298.76 194.632 298.76 192.936C298.76 191.256 297.512 190.056 295.976 190.056C294.456 190.056 293.192 191.256 293.192 192.936ZM302.185 197V188.904H303.689V189.976C303.689 190.296 303.657 190.568 303.657 190.568H303.689C304.009 189.864 304.969 188.712 306.729 188.712C308.633 188.712 309.513 189.752 309.513 191.816V197H307.961V192.168C307.961 191.032 307.721 190.136 306.425 190.136C305.193 190.136 304.201 190.952 303.865 192.12C303.769 192.44 303.737 192.808 303.737 193.208V197H302.185ZM311.617 188.52V185.512H312.849V188.52H311.617ZM315.411 194.04V190.264H314.355V189.016H315.459V186.68H316.963V189.016H318.915V190.264H316.963V193.864C316.963 195.48 318.099 195.688 318.691 195.688C318.915 195.688 319.059 195.656 319.059 195.656V197.032C319.059 197.032 318.835 197.064 318.515 197.064C317.475 197.064 315.411 196.744 315.411 194.04ZM17.216 221V209.704H18.768V213.848C18.768 214.232 18.736 214.52 18.736 214.52H18.768C19.12 213.736 20.144 212.712 21.76 212.712C23.664 212.712 24.544 213.752 24.544 215.816V221H22.992V216.168C22.992 215.032 22.752 214.136 21.456 214.136C20.24 214.136 19.232 214.968 18.896 216.136C18.8 216.456 18.768 216.824 18.768 217.208V221H17.216ZM26.2006 218.728C26.2006 216.056 29.7206 215.944 31.0806 215.944H31.4326V215.8C31.4326 214.472 30.6806 214.024 29.6566 214.024C28.4086 214.024 27.4006 214.808 27.4006 214.808L26.7606 213.672C26.7606 213.672 27.9286 212.712 29.7846 212.712C31.8326 212.712 32.9846 213.832 32.9846 215.88V221H31.5446V220.232C31.5446 219.864 31.5766 219.592 31.5766 219.592H31.5446C31.5446 219.592 30.8886 221.192 28.9526 221.192C27.5606 221.192 26.2006 220.344 26.2006 218.728ZM27.7686 218.648C27.7686 219.304 28.2806 219.944 29.2886 219.944C30.6006 219.944 31.4486 218.568 31.4486 217.368V217.112H31.0486C29.8806 217.112 27.7686 217.192 27.7686 218.648ZM37.2298 221L34.2058 212.904H35.8538L37.8218 218.376C37.9818 218.824 38.0778 219.48 38.0938 219.48H38.1258C38.1418 219.48 38.2538 218.824 38.4138 218.376L40.3818 212.904H42.0138L39.0218 221H37.2298ZM42.781 216.952C42.781 214.376 44.525 212.712 46.829 212.712C49.117 212.712 50.333 214.408 50.333 216.504C50.333 216.712 50.285 217.176 50.285 217.176H44.381C44.461 218.952 45.725 219.848 47.165 219.848C48.557 219.848 49.565 218.904 49.565 218.904L50.205 220.04C50.205 220.04 49.005 221.192 47.069 221.192C44.525 221.192 42.781 219.352 42.781 216.952ZM44.429 216.008H48.749C48.701 214.616 47.837 213.944 46.797 213.944C45.613 213.944 44.653 214.68 44.429 216.008ZM55.6694 218.728C55.6694 216.056 59.1894 215.944 60.5494 215.944H60.9014V215.8C60.9014 214.472 60.1494 214.024 59.1254 214.024C57.8774 214.024 56.8694 214.808 56.8694 214.808L56.2294 213.672C56.2294 213.672 57.3974 212.712 59.2534 212.712C61.3014 212.712 62.4534 213.832 62.4534 215.88V221H61.0134V220.232C61.0134 219.864 61.0454 219.592 61.0454 219.592H61.0134C61.0134 219.592 60.3574 221.192 58.4214 221.192C57.0294 221.192 55.6694 220.344 55.6694 218.728ZM57.2374 218.648C57.2374 219.304 57.7494 219.944 58.7574 219.944C60.0694 219.944 60.9174 218.568 60.9174 217.368V217.112H60.5174C59.3494 217.112 57.2374 217.192 57.2374 218.648ZM64.7785 221V212.904H66.2825V213.976C66.2825 214.296 66.2505 214.568 66.2505 214.568H66.2825C66.6025 213.864 67.5625 212.712 69.3225 212.712C71.2265 212.712 72.1065 213.752 72.1065 215.816V221H70.5545V216.168C70.5545 215.032 70.3145 214.136 69.0185 214.136C67.7865 214.136 66.7945 214.952 66.4585 216.12C66.3625 216.44 66.3305 216.808 66.3305 217.208V221H64.7785ZM73.2831 223.864L73.8271 222.68C73.8271 222.68 74.2751 223.016 74.7711 223.016C75.3951 223.016 75.9231 222.568 76.2271 221.832L76.6271 220.904L73.2351 212.904H74.9791L77.0111 218.2C77.1711 218.616 77.3151 219.176 77.3151 219.176H77.3471C77.3471 219.176 77.4751 218.632 77.6191 218.216L79.5871 212.904H81.2671L77.4751 222.456C76.9791 223.704 75.9871 224.36 74.8511 224.36C73.9391 224.36 73.2831 223.864 73.2831 223.864ZM86.6848 221V212.904H88.1888V213.976C88.1888 214.296 88.1568 214.568 88.1568 214.568H88.1888C88.5728 213.624 89.7088 212.712 90.9728 212.712C92.3328 212.712 93.1328 213.336 93.4048 214.552H93.4368C93.8848 213.576 95.0048 212.712 96.3168 212.712C98.1408 212.712 98.9888 213.752 98.9888 215.816V221H97.4368V216.152C97.4368 215.016 97.2128 214.12 95.9968 214.12C94.8608 214.12 94.0128 215.08 93.7248 216.184C93.6448 216.52 93.6128 216.888 93.6128 217.304V221H92.0608V216.152C92.0608 215.096 91.9008 214.12 90.6528 214.12C89.4688 214.12 88.6368 215.096 88.3328 216.248C88.2528 216.568 88.2368 216.936 88.2368 217.304V221H86.6848ZM100.654 218.728C100.654 216.056 104.174 215.944 105.534 215.944H105.886V215.8C105.886 214.472 105.134 214.024 104.11 214.024C102.862 214.024 101.854 214.808 101.854 214.808L101.214 213.672C101.214 213.672 102.382 212.712 104.238 212.712C106.286 212.712 107.438 213.832 107.438 215.88V221H105.998V220.232C105.998 219.864 106.03 219.592 106.03 219.592H105.998C105.998 219.592 105.342 221.192 103.406 221.192C102.014 221.192 100.654 220.344 100.654 218.728ZM102.222 218.648C102.222 219.304 102.734 219.944 103.742 219.944C105.054 219.944 105.902 218.568 105.902 217.368V217.112H105.502C104.334 217.112 102.222 217.192 102.222 218.648ZM109.747 211.288V209.704H111.315V211.288H109.747ZM109.763 212.904H111.299V221.272C111.299 223.976 109.219 224.296 108.211 224.296C107.875 224.296 107.667 224.264 107.667 224.264V222.936C107.667 222.936 107.811 222.952 108.019 222.952C108.611 222.952 109.763 222.76 109.763 221.176V212.904ZM113.14 216.936C113.14 214.488 115.092 212.712 117.508 212.712C119.924 212.712 121.876 214.488 121.876 216.936C121.876 219.4 119.924 221.192 117.508 221.192C115.092 221.192 113.14 219.4 113.14 216.936ZM114.724 216.936C114.724 218.632 115.988 219.848 117.508 219.848C119.044 219.848 120.292 218.632 120.292 216.936C120.292 215.256 119.044 214.056 117.508 214.056C115.988 214.056 114.724 215.256 114.724 216.936ZM123.716 221V212.904H125.22V214.312C125.22 214.648 125.188 214.92 125.188 214.92H125.22C125.588 213.736 126.532 212.808 127.78 212.808C127.988 212.808 128.18 212.84 128.18 212.84V214.376C128.18 214.376 127.972 214.328 127.732 214.328C126.74 214.328 125.828 215.032 125.46 216.232C125.316 216.696 125.268 217.192 125.268 217.688V221H123.716ZM134.257 221V214.264H133.249V213.016H134.257V212.632C134.257 209.96 136.273 209.624 137.297 209.624C137.649 209.624 137.889 209.672 137.889 209.672V211C137.889 211 137.729 210.968 137.489 210.968C136.897 210.968 135.793 211.16 135.793 212.664V213.016H137.713V214.264H135.793V221H134.257ZM138.64 216.952C138.64 214.376 140.384 212.712 142.688 212.712C144.976 212.712 146.192 214.408 146.192 216.504C146.192 216.712 146.144 217.176 146.144 217.176H140.24C140.32 218.952 141.584 219.848 143.024 219.848C144.416 219.848 145.424 218.904 145.424 218.904L146.064 220.04C146.064 220.04 144.864 221.192 142.928 221.192C140.384 221.192 138.64 219.352 138.64 216.952ZM140.288 216.008H144.608C144.56 214.616 143.696 213.944 142.656 213.944C141.472 213.944 140.512 214.68 140.288 216.008ZM147.515 216.952C147.515 214.376 149.259 212.712 151.563 212.712C153.851 212.712 155.067 214.408 155.067 216.504C155.067 216.712 155.019 217.176 155.019 217.176H149.115C149.195 218.952 150.459 219.848 151.899 219.848C153.291 219.848 154.299 218.904 154.299 218.904L154.939 220.04C154.939 220.04 153.739 221.192 151.803 221.192C149.259 221.192 147.515 219.352 147.515 216.952ZM149.163 216.008H153.483C153.435 214.616 152.571 213.944 151.531 213.944C150.347 213.944 149.387 214.68 149.163 216.008ZM156.422 216.952C156.422 214.376 157.942 212.712 160.086 212.712C161.958 212.712 162.582 213.992 162.582 213.992H162.614C162.614 213.992 162.582 213.752 162.582 213.448V209.704H164.134V221H162.662V220.232C162.662 219.912 162.678 219.688 162.678 219.688H162.646C162.646 219.688 161.99 221.192 159.99 221.192C157.798 221.192 156.422 219.464 156.422 216.952ZM158.006 216.952C158.006 218.712 158.95 219.848 160.294 219.848C161.494 219.848 162.63 219 162.63 216.936C162.63 215.496 161.878 214.056 160.342 214.056C159.062 214.056 158.006 215.112 158.006 216.952ZM166.56 221V209.704H168.112V213.4C168.112 213.8 168.08 214.088 168.08 214.088H168.112C168.112 214.088 168.8 212.712 170.704 212.712C172.88 212.712 174.256 214.44 174.256 216.952C174.256 219.528 172.704 221.192 170.576 221.192C168.768 221.192 168.032 219.8 168.032 219.8H168C168 219.8 168.032 220.056 168.032 220.408V221H166.56ZM168.064 216.984C168.064 218.424 168.816 219.864 170.352 219.864C171.632 219.864 172.688 218.808 172.688 216.968C172.688 215.208 171.744 214.072 170.4 214.072C169.184 214.072 168.064 214.92 168.064 216.984ZM175.498 218.728C175.498 216.056 179.018 215.944 180.378 215.944H180.73V215.8C180.73 214.472 179.978 214.024 178.954 214.024C177.706 214.024 176.698 214.808 176.698 214.808L176.058 213.672C176.058 213.672 177.226 212.712 179.082 212.712C181.13 212.712 182.282 213.832 182.282 215.88V221H180.842V220.232C180.842 219.864 180.874 219.592 180.874 219.592H180.842C180.842 219.592 180.186 221.192 178.25 221.192C176.858 221.192 175.498 220.344 175.498 218.728ZM177.066 218.648C177.066 219.304 177.578 219.944 178.586 219.944C179.898 219.944 180.746 218.568 180.746 217.368V217.112H180.346C179.178 217.112 177.066 217.192 177.066 218.648ZM184.031 216.952C184.031 214.552 185.823 212.712 188.367 212.712C190.399 212.712 191.407 213.896 191.407 213.896L190.671 214.984C190.671 214.984 189.807 214.056 188.431 214.056C186.799 214.056 185.615 215.272 185.615 216.936C185.615 218.584 186.799 219.848 188.479 219.848C189.983 219.848 190.975 218.76 190.975 218.76L191.599 219.896C191.599 219.896 190.479 221.192 188.367 221.192C185.823 221.192 184.031 219.384 184.031 216.952ZM193.357 221V209.704H194.909V215.88H196.045L198.253 212.904H200.013L197.325 216.472V216.504L200.317 221H198.509L196.077 217.192H194.909V221H193.357ZM205.296 216.936C205.296 214.488 207.248 212.712 209.664 212.712C212.08 212.712 214.032 214.488 214.032 216.936C214.032 219.4 212.08 221.192 209.664 221.192C207.248 221.192 205.296 219.4 205.296 216.936ZM206.88 216.936C206.88 218.632 208.144 219.848 209.664 219.848C211.2 219.848 212.448 218.632 212.448 216.936C212.448 215.256 211.2 214.056 209.664 214.056C208.144 214.056 206.88 215.256 206.88 216.936ZM216.208 218.04V214.264H215.152V213.016H216.256V210.68H217.76V213.016H219.712V214.264H217.76V217.864C217.76 219.48 218.896 219.688 219.488 219.688C219.712 219.688 219.856 219.656 219.856 219.656V221.032C219.856 221.032 219.632 221.064 219.312 221.064C218.272 221.064 216.208 220.744 216.208 218.04ZM221.607 221V209.704H223.159V213.848C223.159 214.232 223.127 214.52 223.127 214.52H223.159C223.511 213.736 224.535 212.712 226.151 212.712C228.055 212.712 228.935 213.752 228.935 215.816V221H227.383V216.168C227.383 215.032 227.143 214.136 225.847 214.136C224.631 214.136 223.623 214.968 223.287 216.136C223.191 216.456 223.159 216.824 223.159 217.208V221H221.607ZM230.687 216.952C230.687 214.376 232.431 212.712 234.735 212.712C237.023 212.712 238.239 214.408 238.239 216.504C238.239 216.712 238.191 217.176 238.191 217.176H232.287C232.367 218.952 233.631 219.848 235.071 219.848C236.463 219.848 237.471 218.904 237.471 218.904L238.111 220.04C238.111 220.04 236.911 221.192 234.975 221.192C232.431 221.192 230.687 219.352 230.687 216.952ZM232.335 216.008H236.655C236.607 214.616 235.743 213.944 234.703 213.944C233.519 213.944 232.559 214.68 232.335 216.008ZM240.122 221V212.904H241.626V214.312C241.626 214.648 241.594 214.92 241.594 214.92H241.626C241.994 213.736 242.938 212.808 244.186 212.808C244.394 212.808 244.586 212.84 244.586 212.84V214.376C244.586 214.376 244.378 214.328 244.138 214.328C243.146 214.328 242.234 215.032 241.866 216.232C241.722 216.696 241.674 217.192 241.674 217.688V221H240.122ZM250.568 218.04V214.264H249.512V213.016H250.616V210.68H252.12V213.016H254.072V214.264H252.12V217.864C252.12 219.48 253.256 219.688 253.848 219.688C254.072 219.688 254.216 219.656 254.216 219.656V221.032C254.216 221.032 253.992 221.064 253.672 221.064C252.632 221.064 250.568 220.744 250.568 218.04ZM255.966 221V209.704H257.518V213.848C257.518 214.232 257.486 214.52 257.486 214.52H257.518C257.87 213.736 258.894 212.712 260.51 212.712C262.414 212.712 263.294 213.752 263.294 215.816V221H261.742V216.168C261.742 215.032 261.502 214.136 260.206 214.136C258.99 214.136 257.982 214.968 257.646 216.136C257.55 216.456 257.518 216.824 257.518 217.208V221H255.966ZM264.951 218.728C264.951 216.056 268.471 215.944 269.831 215.944H270.183V215.8C270.183 214.472 269.431 214.024 268.407 214.024C267.159 214.024 266.151 214.808 266.151 214.808L265.511 213.672C265.511 213.672 266.679 212.712 268.535 212.712C270.583 212.712 271.735 213.832 271.735 215.88V221H270.295V220.232C270.295 219.864 270.327 219.592 270.327 219.592H270.295C270.295 219.592 269.639 221.192 267.703 221.192C266.311 221.192 264.951 220.344 264.951 218.728ZM266.519 218.648C266.519 219.304 267.031 219.944 268.039 219.944C269.351 219.944 270.199 218.568 270.199 217.368V217.112H269.799C268.631 217.112 266.519 217.192 266.519 218.648ZM274.06 221V212.904H275.564V213.976C275.564 214.296 275.532 214.568 275.532 214.568H275.564C275.884 213.864 276.844 212.712 278.604 212.712C280.508 212.712 281.388 213.752 281.388 215.816V221H279.836V216.168C279.836 215.032 279.596 214.136 278.3 214.136C277.068 214.136 276.076 214.952 275.74 216.12C275.644 216.44 275.612 216.808 275.612 217.208V221H274.06ZM287.81 221V209.704H289.362V215.88H290.498L292.706 212.904H294.466L291.778 216.472V216.504L294.77 221H292.962L290.53 217.192H289.362V221H287.81ZM295.547 216.952C295.547 214.376 297.291 212.712 299.595 212.712C301.883 212.712 303.099 214.408 303.099 216.504C303.099 216.712 303.051 217.176 303.051 217.176H297.147C297.227 218.952 298.491 219.848 299.931 219.848C301.323 219.848 302.331 218.904 302.331 218.904L302.971 220.04C302.971 220.04 301.771 221.192 299.835 221.192C297.291 221.192 295.547 219.352 295.547 216.952ZM297.195 216.008H301.515C301.467 214.616 300.603 213.944 299.563 213.944C298.379 213.944 297.419 214.68 297.195 216.008ZM304.422 216.952C304.422 214.376 306.166 212.712 308.47 212.712C310.758 212.712 311.974 214.408 311.974 216.504C311.974 216.712 311.926 217.176 311.926 217.176H306.022C306.102 218.952 307.366 219.848 308.806 219.848C310.198 219.848 311.206 218.904 311.206 218.904L311.846 220.04C311.846 220.04 310.646 221.192 308.71 221.192C306.166 221.192 304.422 219.352 304.422 216.952ZM306.07 216.008H310.39C310.342 214.616 309.478 213.944 308.438 213.944C307.254 213.944 306.294 214.68 306.07 216.008ZM313.857 224.2V212.904H315.281V213.592C315.281 213.912 315.249 214.184 315.249 214.184H315.281C315.281 214.184 315.969 212.712 318.001 212.712C320.177 212.712 321.553 214.44 321.553 216.952C321.553 219.528 320.001 221.192 317.889 221.192C316.113 221.192 315.409 219.864 315.409 219.864H315.377C315.377 219.864 315.409 220.152 315.409 220.568V224.2H313.857ZM315.361 216.984C315.361 218.424 316.161 219.864 317.649 219.864C318.929 219.864 319.985 218.808 319.985 216.968C319.985 215.208 319.041 214.072 317.697 214.072C316.481 214.072 315.361 214.92 315.361 216.984ZM17.936 246.472C17.936 246.472 18.944 247.016 20.16 247.016C21.568 247.016 22.72 246.392 22.72 244.744V244.152C22.72 243.896 22.736 243.64 22.736 243.64H22.704C22.224 244.44 21.472 244.904 20.304 244.904C18.048 244.904 16.688 243.096 16.688 240.76C16.688 238.44 17.984 236.712 20.224 236.712C22.176 236.712 22.768 237.912 22.768 237.912H22.8C22.8 237.912 22.784 237.8 22.784 237.656V236.904H24.272V244.664C24.272 247.336 22.24 248.36 20.192 248.36C19.216 248.36 18.208 248.088 17.424 247.688L17.936 246.472ZM20.608 243.56C21.728 243.56 22.752 242.888 22.752 240.776C22.752 238.664 21.728 238.056 20.464 238.056C19.056 238.056 18.256 239.08 18.256 240.728C18.256 242.408 19.152 243.56 20.608 243.56ZM26.1084 240.936C26.1084 238.488 28.0604 236.712 30.4764 236.712C32.8924 236.712 34.8444 238.488 34.8444 240.936C34.8444 243.4 32.8924 245.192 30.4764 245.192C28.0604 245.192 26.1084 243.4 26.1084 240.936ZM27.6924 240.936C27.6924 242.632 28.9564 243.848 30.4764 243.848C32.0124 243.848 33.2604 242.632 33.2604 240.936C33.2604 239.256 32.0124 238.056 30.4764 238.056C28.9564 238.056 27.6924 239.256 27.6924 240.936ZM36.6688 235.288V233.704H38.2368V235.288H36.6688ZM36.6848 245V236.904H38.2368V245H36.6848ZM40.6691 245V236.904H42.1731V237.976C42.1731 238.296 42.1411 238.568 42.1411 238.568H42.1731C42.4931 237.864 43.4531 236.712 45.2131 236.712C47.1171 236.712 47.9971 237.752 47.9971 239.816V245H46.4451V240.168C46.4451 239.032 46.2051 238.136 44.9091 238.136C43.6771 238.136 42.6851 238.952 42.3491 240.12C42.2531 240.44 42.2211 240.808 42.2211 241.208V245H40.6691ZM51.0298 246.472C51.0298 246.472 52.0378 247.016 53.2538 247.016C54.6618 247.016 55.8138 246.392 55.8138 244.744V244.152C55.8138 243.896 55.8298 243.64 55.8298 243.64H55.7978C55.3178 244.44 54.5658 244.904 53.3978 244.904C51.1418 244.904 49.7818 243.096 49.7818 240.76C49.7818 238.44 51.0778 236.712 53.3177 236.712C55.2698 236.712 55.8618 237.912 55.8618 237.912H55.8938C55.8938 237.912 55.8778 237.8 55.8778 237.656V236.904H57.3658V244.664C57.3658 247.336 55.3338 248.36 53.2858 248.36C52.3098 248.36 51.3018 248.088 50.5178 247.688L51.0298 246.472ZM53.7018 243.56C54.8218 243.56 55.8458 242.888 55.8458 240.776C55.8458 238.664 54.8218 238.056 53.5578 238.056C52.1498 238.056 51.3498 239.08 51.3498 240.728C51.3498 242.408 52.2458 243.56 53.7018 243.56ZM59.7941 245V243.352H61.4261V245H59.7941Z" fill="white"/>
<path d="M186.536 283V271.704H188.12V276.664H193.976V271.704H195.56V283H193.976V278.04H188.12V283H186.536ZM197.75 278.952C197.75 276.376 199.494 274.712 201.798 274.712C204.086 274.712 205.302 276.408 205.302 278.504C205.302 278.712 205.254 279.176 205.254 279.176H199.35C199.43 280.952 200.694 281.848 202.134 281.848C203.526 281.848 204.534 280.904 204.534 280.904L205.174 282.04C205.174 282.04 203.974 283.192 202.038 283.192C199.494 283.192 197.75 281.352 197.75 278.952ZM199.398 278.008H203.718C203.67 276.616 202.806 275.944 201.766 275.944C200.582 275.944 199.622 276.68 199.398 278.008ZM210.049 279.848H210.017C210.017 279.848 209.889 280.104 209.777 280.296L208.081 283H206.321L209.073 278.84L206.465 274.904H208.241L209.745 277.368C209.873 277.576 210.017 277.848 210.017 277.848H210.049C210.049 277.848 210.193 277.576 210.321 277.368L211.825 274.904H213.601L210.993 278.84L213.745 283H211.985L210.289 280.296C210.177 280.104 210.049 279.848 210.049 279.848ZM214.624 278.952C214.624 276.552 216.416 274.712 218.96 274.712C220.992 274.712 222 275.896 222 275.896L221.264 276.984C221.264 276.984 220.4 276.056 219.024 276.056C217.392 276.056 216.208 277.272 216.208 278.936C216.208 280.584 217.392 281.848 219.072 281.848C220.576 281.848 221.568 280.76 221.568 280.76L222.192 281.896C222.192 281.896 221.072 283.192 218.96 283.192C216.416 283.192 214.624 281.384 214.624 278.952ZM223.358 278.936C223.358 276.488 225.31 274.712 227.726 274.712C230.142 274.712 232.094 276.488 232.094 278.936C232.094 281.4 230.142 283.192 227.726 283.192C225.31 283.192 223.358 281.4 223.358 278.936ZM224.942 278.936C224.942 280.632 226.206 281.848 227.726 281.848C229.262 281.848 230.51 280.632 230.51 278.936C230.51 277.256 229.262 276.056 227.726 276.056C226.206 276.056 224.942 277.256 224.942 278.936ZM233.407 278.952C233.407 276.376 234.927 274.712 237.071 274.712C238.943 274.712 239.567 275.992 239.567 275.992H239.599C239.599 275.992 239.567 275.752 239.567 275.448V271.704H241.119V283H239.647V282.232C239.647 281.912 239.663 281.688 239.663 281.688H239.631C239.631 281.688 238.975 283.192 236.975 283.192C234.783 283.192 233.407 281.464 233.407 278.952ZM234.991 278.952C234.991 280.712 235.935 281.848 237.279 281.848C238.479 281.848 239.615 281 239.615 278.936C239.615 277.496 238.863 276.056 237.327 276.056C236.047 276.056 234.991 277.112 234.991 278.952ZM242.984 278.952C242.984 276.376 244.728 274.712 247.032 274.712C249.32 274.712 250.536 276.408 250.536 278.504C250.536 278.712 250.488 279.176 250.488 279.176H244.584C244.664 280.952 245.928 281.848 247.368 281.848C248.76 281.848 249.768 280.904 249.768 280.904L250.408 282.04C250.408 282.04 249.208 283.192 247.272 283.192C244.728 283.192 242.984 281.352 242.984 278.952ZM244.632 278.008H248.952C248.904 276.616 248.04 275.944 247 275.944C245.816 275.944 244.856 276.68 244.632 278.008Z" fill="#B1A7A6"/>
<path d="M185 316C185 304.954 193.954 296 205 296H307.08C320.069 296 326.563 296 331.559 298.447C336.342 300.791 340.209 304.658 342.553 309.441C345 314.437 345 320.931 345 333.92V336H205C193.954 336 185 327.046 185 316Z" fill="#FBC1D4"/>
<path d="M206.053 321L204.917 317.752H200.661L199.541 321H197.909L201.973 309.704H203.637L207.701 321H206.053ZM202.821 311.256H202.789C202.789 311.256 202.533 312.28 202.341 312.856L201.077 316.44H204.501L203.253 312.856C203.061 312.28 202.821 311.256 202.821 311.256ZM210.614 321L208.006 312.904H209.654L211.334 318.584C211.462 319 211.526 319.448 211.542 319.448H211.574C211.574 319.448 211.654 319 211.782 318.584L213.542 312.92H214.966L216.71 318.584C216.838 319 216.934 319.448 216.934 319.448H216.966C216.966 319.448 217.03 319 217.158 318.584L218.854 312.904H220.486L217.878 321H216.166L214.486 315.8C214.358 315.384 214.262 314.92 214.262 314.92H214.23C214.23 314.92 214.134 315.384 214.006 315.8L212.342 321H210.614ZM221.422 316.952C221.422 314.376 223.166 312.712 225.47 312.712C227.758 312.712 228.974 314.408 228.974 316.504C228.974 316.712 228.926 317.176 228.926 317.176H223.022C223.102 318.952 224.366 319.848 225.806 319.848C227.198 319.848 228.206 318.904 228.206 318.904L228.846 320.04C228.846 320.04 227.646 321.192 225.71 321.192C223.166 321.192 221.422 319.352 221.422 316.952ZM223.07 316.008H227.39C227.342 314.616 226.478 313.944 225.438 313.944C224.254 313.944 223.294 314.68 223.07 316.008ZM230.201 320.008L230.953 318.904C230.953 318.904 231.865 319.848 233.273 319.848C233.945 319.848 234.617 319.496 234.617 318.84C234.617 317.352 230.457 317.656 230.457 315.016C230.457 313.544 231.769 312.712 233.385 312.712C235.161 312.712 235.993 313.608 235.993 313.608L235.369 314.776C235.369 314.776 234.649 314.056 233.369 314.056C232.697 314.056 232.041 314.344 232.041 315.048C232.041 316.504 236.201 316.184 236.201 318.84C236.201 320.184 235.049 321.192 233.273 321.192C231.289 321.192 230.201 320.008 230.201 320.008ZM237.437 316.936C237.437 314.488 239.389 312.712 241.805 312.712C244.221 312.712 246.173 314.488 246.173 316.936C246.173 319.4 244.221 321.192 241.805 321.192C239.389 321.192 237.437 319.4 237.437 316.936ZM239.021 316.936C239.021 318.632 240.285 319.848 241.805 319.848C243.341 319.848 244.589 318.632 244.589 316.936C244.589 315.256 243.341 314.056 241.805 314.056C240.285 314.056 239.021 315.256 239.021 316.936ZM248.013 321V312.904H249.517V313.976C249.517 314.296 249.485 314.568 249.485 314.568H249.517C249.901 313.624 251.037 312.712 252.301 312.712C253.661 312.712 254.461 313.336 254.733 314.552H254.765C255.213 313.576 256.333 312.712 257.645 312.712C259.469 312.712 260.317 313.752 260.317 315.816V321H258.765V316.152C258.765 315.016 258.541 314.12 257.325 314.12C256.189 314.12 255.341 315.08 255.053 316.184C254.973 316.52 254.941 316.888 254.941 317.304V321H253.389V316.152C253.389 315.096 253.229 314.12 251.981 314.12C250.797 314.12 249.965 315.096 249.661 316.248C249.581 316.568 249.565 316.936 249.565 317.304V321H248.013ZM262.078 316.952C262.078 314.376 263.822 312.712 266.126 312.712C268.414 312.712 269.63 314.408 269.63 316.504C269.63 316.712 269.582 317.176 269.582 317.176H263.678C263.758 318.952 265.022 319.848 266.462 319.848C267.854 319.848 268.862 318.904 268.862 318.904L269.502 320.04C269.502 320.04 268.302 321.192 266.366 321.192C263.822 321.192 262.078 319.352 262.078 316.952ZM263.726 316.008H268.046C267.998 314.616 267.134 313.944 266.094 313.944C264.91 313.944 263.95 314.68 263.726 316.008ZM277.286 321L274.678 312.904H276.326L278.006 318.584C278.134 319 278.198 319.448 278.214 319.448H278.246C278.246 319.448 278.326 319 278.454 318.584L280.214 312.92H281.638L283.382 318.584C283.51 319 283.606 319.448 283.606 319.448H283.638C283.638 319.448 283.702 319 283.83 318.584L285.526 312.904H287.158L284.55 321H282.838L281.158 315.8C281.03 315.384 280.934 314.92 280.934 314.92H280.902C280.902 314.92 280.806 315.384 280.678 315.8L279.014 321H277.286ZM288.062 316.936C288.062 314.488 290.014 312.712 292.43 312.712C294.846 312.712 296.798 314.488 296.798 316.936C296.798 319.4 294.846 321.192 292.43 321.192C290.014 321.192 288.062 319.4 288.062 316.936ZM289.646 316.936C289.646 318.632 290.91 319.848 292.43 319.848C293.966 319.848 295.214 318.632 295.214 316.936C295.214 315.256 293.966 314.056 292.43 314.056C290.91 314.056 289.646 315.256 289.646 316.936ZM298.638 321V312.904H300.142V314.312C300.142 314.648 300.11 314.92 300.11 314.92H300.142C300.51 313.736 301.454 312.808 302.702 312.808C302.91 312.808 303.102 312.84 303.102 312.84V314.376C303.102 314.376 302.894 314.328 302.654 314.328C301.662 314.328 300.75 315.032 300.382 316.232C300.238 316.696 300.19 317.192 300.19 317.688V321H298.638ZM304.638 321V309.704H306.19V315.88H307.326L309.534 312.904H311.294L308.606 316.472V316.504L311.598 321H309.79L307.358 317.192H306.19V321H304.638ZM313.7 317.896L313.588 309.704H315.188L315.092 317.896H313.7ZM313.604 321V319.448H315.188V321H313.604ZM318.794 317.896L318.682 309.704H320.282L320.186 317.896H318.794ZM318.698 321V319.448H320.282V321H318.698ZM323.887 317.896L323.775 309.704H325.375L325.279 317.896H323.887ZM323.791 321V319.448H325.375V321H323.791ZM328.981 317.896L328.869 309.704H330.469L330.373 317.896H328.981ZM328.885 321V319.448H330.469V321H328.885Z" fill="#181010"/>
</svg>
