<svg width="20" height="20" viewBox="0 0 20 20" fill="none" xmlns="http://www.w3.org/2000/svg">
<g clip-path="url(#clip0_97_96)">
<path fill-rule="evenodd" clip-rule="evenodd" d="M1.32555 0C0.592931 0 -0.000976562 0.639593 -0.000976562 1.42857V11.4286C-0.000976562 12.2176 0.592931 12.8571 1.32555 12.8571H7.95821C8.69084 12.8571 9.28474 12.2176 9.28474 11.4286V1.42857C9.28474 0.639593 8.69084 0 7.95821 0H1.32555Z" fill="#D3D3D3"/>
<path d="M1.32555 14.2856C0.592931 14.2856 -0.000976562 14.9236 -0.000976562 15.7107V18.5749C-0.000976562 19.362 0.592931 19.9999 1.32555 19.9999H7.95821C8.69084 19.9999 9.28474 19.362 9.28474 18.5749V15.7107C9.28474 14.9236 8.69084 14.2856 7.95821 14.2856H1.32555Z" fill="#B1A7A6"/>
<path d="M12.261 7.14307C11.4063 7.14307 10.7134 7.78267 10.7134 8.57164V18.5716C10.7134 19.3606 11.4063 20.0002 12.261 20.0002H18.4515C19.3062 20.0002 19.9991 19.3606 19.9991 18.5716V8.57164C19.9991 7.78267 19.3062 7.14307 18.4515 7.14307H12.261Z" fill="#D3D3D3"/>
<path d="M12.261 0C11.4063 0 10.7134 0.637998 10.7134 1.42501V4.28928C10.7134 5.07628 11.4063 5.71429 12.261 5.71429H18.4515C19.3062 5.71429 19.9991 5.07628 19.9991 4.28928V1.42501C19.9991 0.637998 19.3062 0 18.4515 0H12.261Z" fill="#B1A7A6"/>
</g>
<defs>
<clipPath id="clip0_97_96">
<rect width="20" height="20" fill="white" transform="translate(-0.000976562)"/>
</clipPath>
</defs>
</svg>
