<svg width="20" height="20" viewBox="0 0 20 20" fill="none" xmlns="http://www.w3.org/2000/svg">
<g clip-path="url(#clip0_100_54)">
<path d="M15.2601 6.87083C15.7797 6.53064 16.2065 6.06649 16.5019 5.52021C16.7974 4.97394 16.9523 4.36273 16.9526 3.74167C16.9513 2.74958 16.5565 1.79851 15.8549 1.09708C15.1534 0.39564 14.2022 0.00110242 13.2101 0L6.79011 0C5.79802 0.00110242 4.84686 0.39564 4.14527 1.09708C3.44368 1.79851 3.04893 2.74958 3.04761 3.74167C3.04761 5.04833 3.72177 6.20167 4.74011 6.87083C3.72177 7.54 3.04761 8.69333 3.04761 10C3.04761 11.3067 3.72177 12.46 4.74011 13.1292C4.22035 13.4692 3.79346 13.9333 3.49797 14.4796C3.20248 15.0259 3.0477 15.6372 3.04761 16.2583C3.04761 18.3217 4.73511 20 6.81011 20C8.90677 20 10.6134 18.3033 10.6134 16.2175V12.7667C11.3007 13.3946 12.1983 13.7425 13.1293 13.7417H13.2101C14.2022 13.7406 15.1534 13.346 15.8549 12.6446C16.5565 11.9432 16.9513 10.9921 16.9526 10C16.9523 9.37894 16.7974 8.76772 16.5019 8.22145C16.2065 7.67518 15.7797 7.21103 15.2601 6.87083ZM10.6126 1.22583H13.2101C14.5976 1.22583 15.7268 2.35417 15.7268 3.74167C15.7268 5.12917 14.5976 6.25833 13.2101 6.25833H10.6126V1.22583ZM4.27344 3.74167C4.27432 3.07455 4.53978 2.43503 5.01158 1.96338C5.48338 1.49174 6.12299 1.22649 6.79011 1.22583H9.38761V6.25833H6.79011C6.12292 6.25745 5.48331 5.99202 5.01153 5.52024C4.53975 5.04847 4.27432 4.40886 4.27344 3.74167ZM4.27344 10C4.27432 9.33289 4.53978 8.69336 5.01158 8.22172C5.48338 7.75007 6.12299 7.48483 6.79011 7.48417H9.38761V12.5167H6.77427C6.1099 12.5114 5.47447 12.2441 5.00616 11.7728C4.53784 11.3015 4.27452 10.6644 4.27344 10ZM9.38761 16.2175C9.38761 17.6275 8.23094 18.7742 6.81011 18.7742C5.41177 18.7742 4.27344 17.6458 4.27344 16.2583C4.27344 14.8708 5.40261 13.7417 6.79011 13.7417H9.38761V16.2175ZM13.2101 12.5167H13.1293C11.7418 12.5167 10.6134 11.3875 10.6134 10C10.6134 8.6125 11.7418 7.48417 13.1293 7.48417H13.2101C14.5976 7.48417 15.7268 8.6125 15.7268 10C15.7268 11.3875 14.5976 12.5167 13.2101 12.5167ZM6.79011 12.5158H6.77427H9.38761H6.79011Z" fill="white"/>
</g>
<defs>
<clipPath id="clip0_100_54">
<rect width="20" height="20" fill="white"/>
</clipPath>
</defs>
</svg>
