<svg width="32" height="32" viewBox="0 0 32 32" fill="none" xmlns="http://www.w3.org/2000/svg">
<path d="M30.8453 14C31.5598 15.2376 31.5598 16.7624 30.8453 18L25.1547 27.8564C24.4402 29.094 23.1197 29.8564 21.6906 29.8564L10.3094 29.8564C8.88034 29.8564 7.55983 29.094 6.8453 27.8564L1.1547 18C0.440168 16.7624 0.44017 15.2376 1.1547 14L6.8453 4.14359C7.55983 2.90599 8.88034 2.14359 10.3094 2.14359L21.6906 2.14359C23.1197 2.14359 24.4402 2.90599 25.1547 4.14359L30.8453 14Z" fill="#EE232A"/>
<mask id="mask0_392_151" style="mask-type:alpha" maskUnits="userSpaceOnUse" x="7" y="7" width="18" height="18">
<rect x="7" y="7" width="18" height="18" fill="#D9D9D9"/>
</mask>
<g mask="url(#mask0_392_151)">
<path d="M19.75 13.3L11.575 21.475C11.4375 21.6125 11.2625 21.6812 11.05 21.6812C10.8375 21.6812 10.6625 21.6125 10.525 21.475C10.3875 21.3375 10.3187 21.1625 10.3187 20.95C10.3187 20.7375 10.3875 20.5625 10.525 20.425L18.7 12.25H14.5C14.2875 12.25 14.1094 12.1781 13.9656 12.0344C13.8219 11.8906 13.75 11.7125 13.75 11.5C13.75 11.2875 13.8219 11.1094 13.9656 10.9656C14.1094 10.8219 14.2875 10.75 14.5 10.75H20.5C20.7125 10.75 20.8906 10.8219 21.0344 10.9656C21.1781 11.1094 21.25 11.2875 21.25 11.5V17.5C21.25 17.7125 21.1781 17.8906 21.0344 18.0344C20.8906 18.1781 20.7125 18.25 20.5 18.25C20.2875 18.25 20.1094 18.1781 19.9656 18.0344C19.8219 17.8906 19.75 17.7125 19.75 17.5V13.3Z" fill="white"/>
</g>
</svg>
