<svg width="20" height="20" viewBox="0 0 20 20" fill="none" xmlns="http://www.w3.org/2000/svg">
<g clip-path="url(#clip0_97_79)">
<path fill-rule="evenodd" clip-rule="evenodd" d="M0.120361 1.55655C0.120361 0.780758 0.749263 0.151855 1.52505 0.151855H7.49499C8.27079 0.151855 8.89969 0.780758 8.89969 1.55655V7.52649C8.89969 8.30228 8.27079 8.93118 7.49499 8.93118H1.52505C0.749263 8.93118 0.120361 8.30228 0.120361 7.52649V1.55655ZM1.52506 11.0684C0.749264 11.0684 0.120361 11.6973 0.120361 12.4731V18.4431C0.120361 19.2188 0.749264 19.8478 1.52506 19.8478H7.49499C8.27079 19.8478 8.89969 19.2188 8.89969 18.4431V12.4731C8.89969 11.6973 8.27079 11.0684 7.49499 11.0684H1.52506ZM12.4416 11.0684C11.6658 11.0684 11.0369 11.6973 11.0369 12.4731V18.4431C11.0369 19.2188 11.6658 19.8478 12.4416 19.8478H18.4115C19.1874 19.8478 19.8162 19.2188 19.8162 18.4431V12.4731C19.8162 11.6973 19.1874 11.0684 18.4115 11.0684H12.4416Z" fill="#D3D3D3"/>
<path fill-rule="evenodd" clip-rule="evenodd" d="M16.385 1.04144C16.119 -0.12515 14.4545 -0.117875 14.1987 1.051L14.189 1.0956L14.17 1.1821C13.891 2.43146 12.8863 3.39018 11.6242 3.60975C10.4065 3.82159 10.4065 5.56956 11.6242 5.78141C12.8907 6.00173 13.898 6.96639 14.1729 8.22216L14.1987 8.34015C14.4545 9.50902 16.119 9.51631 16.385 8.34971L16.4164 8.21221C16.7017 6.96093 17.7105 6.00332 18.975 5.78335C20.1947 5.57113 20.1947 3.82002 18.975 3.60781C17.7172 3.38899 16.7124 2.44035 16.421 1.19885C16.4128 1.16415 16.4052 1.13098 16.3971 1.09486L16.385 1.04144Z" fill="#B1A7A6"/>
</g>
<defs>
<clipPath id="clip0_97_79">
<rect width="20" height="20" fill="white" transform="translate(-0.000976562)"/>
</clipPath>
</defs>
</svg>
