<svg width="20" height="20" viewBox="0 0 20 20" fill="none" xmlns="http://www.w3.org/2000/svg">
<g clip-path="url(#clip0_97_91)">
<path d="M6.10227 0C5.81547 0 5.55649 0.171537 5.44459 0.435607L2.2303 8.02133L2.22729 8.02856C2.13837 8.24499 2.10397 8.47994 2.12713 8.71277C2.15027 8.9456 2.23026 9.16919 2.36004 9.36387C2.48983 9.55854 2.66546 9.71837 2.87147 9.82928C3.07749 9.94021 3.3076 9.99883 3.54157 9.99999L3.54513 10H6.5839L3.9869 19.0894C3.89846 19.399 4.028 19.7294 4.30323 19.8964C4.57844 20.0634 4.93136 20.0256 5.16502 19.8041L17.4365 8.17561L17.4408 8.1715C17.6446 7.97506 17.7855 7.72246 17.8456 7.44579C17.9056 7.16911 17.8821 6.88084 17.7781 6.61756C17.6739 6.35429 17.4939 6.12786 17.2609 5.96704C17.0279 5.80623 16.7523 5.71829 16.4693 5.71436L16.4595 5.71429H12.258L14.5983 1.03372C14.7091 0.812304 14.6972 0.549347 14.5671 0.338763C14.4369 0.12818 14.207 0 13.9594 0H6.10227Z" fill="#D3D3D3"/>
</g>
<defs>
<clipPath id="clip0_97_91">
<rect width="20" height="20" fill="white" transform="translate(-0.000976562)"/>
</clipPath>
</defs>
</svg>
