<svg width="515" height="450" viewBox="0 0 515 450" fill="none" xmlns="http://www.w3.org/2000/svg">
<g clip-path="url(#clip0_700_1847)">
<path d="M510.086 212.209C512.778 216.869 514.124 219.199 514.65 221.676C515.117 223.867 515.117 226.133 514.65 228.324C514.124 230.801 512.778 233.131 510.086 237.791L394.877 437.209C392.185 441.869 390.839 444.199 388.956 445.893C387.29 447.393 385.327 448.525 383.195 449.217C380.785 450 378.093 450 372.709 450L142.291 450C136.907 450 134.215 450 131.805 449.217C129.673 448.525 127.71 447.393 126.044 445.893C124.161 444.199 122.815 441.869 120.123 437.209L4.91442 237.79C2.22246 233.131 0.876455 230.801 0.349599 228.324C-0.116526 226.133 -0.116526 223.867 0.3496 221.676C0.876455 219.199 2.22246 216.869 4.91442 212.209L120.123 12.7905C122.815 8.13087 124.161 5.80105 126.044 4.10663C127.71 2.6074 129.673 1.47487 131.805 0.7825C134.215 -1.61681e-05 136.907 -1.6527e-05 142.291 -1.62916e-05L372.709 -6.21975e-06C378.093 -5.98441e-06 380.785 -5.39025e-06 383.195 0.782511C385.327 1.47488 387.29 2.60741 388.956 4.10664C390.839 5.80106 392.185 8.13088 394.877 12.7905L510.086 212.209Z" fill="#181010"/>
<path fill-rule="evenodd" clip-rule="evenodd" d="M243.867 -157.293L243.514 -156.939L265.434 -135.02L265.787 -135.373L266.494 -134.666L266.141 -134.312L288.062 -112.392L288.415 -112.745L289.122 -112.038L288.769 -111.685L310.689 -89.7647L311.042 -90.118L311.749 -89.4109L311.396 -89.0576L333.316 -67.1368L333.67 -67.4901L334.377 -66.7829L334.024 -66.4297L355.943 -44.5098L356.297 -44.8631L357.004 -44.156L356.651 -43.8027L378.571 -21.8819L378.925 -22.2352L379.632 -21.5281L379.278 -21.1748L401.198 0.745068L401.552 0.391774L402.259 1.09888L401.905 1.45217L423.826 23.373L424.18 23.0197L424.887 23.7268L424.533 24.0801L446.453 46L446.806 45.6467L447.514 46.3538L447.16 46.7071L469.081 68.6274L469.434 68.2736L470.141 68.9807L469.788 69.3345L491.708 91.2548L492.061 90.9015L492.768 91.6086L492.415 91.9619L514.335 113.882L514.689 113.529L515.396 114.236L515.043 114.589L536.963 136.51L537.316 136.156L538.023 136.864L537.67 137.217L559.59 159.137L559.944 158.783L560.651 159.491L560.298 159.844L582.218 181.765L582.571 181.411L583.278 182.118L582.925 182.472L604.845 204.392L605.199 204.038L605.906 204.745L605.552 205.099L627.473 227.02L627.826 226.666L628.533 227.373L628.18 227.727L650.1 249.647L650.454 249.293L651.161 250L650.807 250.354L672.728 272.274L673.081 271.921L673.788 272.628L309.628 636.788L308.921 636.081L309.981 635.021L288.061 613.1L287.001 614.16L286.294 613.453L287.354 612.393L265.434 590.473L264.373 591.533L263.666 590.826L264.727 589.766L242.806 567.845L241.746 568.905L241.039 568.198L242.099 567.138L220.179 545.218L219.118 546.278L218.411 545.571L219.472 544.511L197.551 522.59L196.491 523.65L195.784 522.943L196.844 521.883L174.924 499.963L173.863 501.024L173.156 500.316L174.217 499.256L152.296 477.336L151.236 478.396L150.529 477.688L151.589 476.628L129.669 454.708L128.608 455.769L127.901 455.062L128.962 454.001L107.042 432.081L105.982 433.141L105.274 432.434L106.334 431.374L84.4141 409.453L83.3536 410.514L82.6465 409.807L83.707 408.746L61.7871 386.826L60.7266 387.887L60.0195 387.18L61.08 386.119L39.1592 364.198L38.0987 365.259L37.3916 364.552L38.4521 363.491L16.5323 341.571L15.4718 342.632L14.7647 341.925L15.8252 340.864L-6.09566 318.943L-7.15617 320.004L-7.86327 319.297L-6.80276 318.236L-28.7226 296.317L-29.7831 297.377L-30.4902 296.67L-29.4297 295.609L-51.3505 273.689L-52.4111 274.749L-53.1182 274.042L-52.0577 272.981L-73.9775 251.062L-75.038 252.122L-75.7451 251.415L-74.6846 250.355L-96.6054 228.434L-97.6659 229.494L-98.373 228.787L-97.3125 227.727L-119.232 205.807L-120.293 206.867L-121 206.16L243.16 -158L243.867 -157.293ZM310.689 634.313L332.609 612.393L310.689 590.472L288.768 612.393L310.689 634.313ZM333.316 611.686L355.236 589.766L333.316 567.845L311.396 589.765L333.316 611.686ZM355.943 589.059L377.864 567.138L355.944 545.217L334.023 567.138L355.943 589.059ZM378.571 566.431L400.491 544.511L378.571 522.59L356.651 544.51L378.571 566.431ZM401.198 543.804L423.119 521.883L401.199 499.963L379.278 521.883L401.198 543.804ZM423.826 521.176L445.746 499.256L423.826 477.336L401.906 499.255L423.826 521.176ZM446.453 498.549L468.374 476.628L446.453 454.708L424.533 476.628L446.453 498.549ZM469.081 475.921L491.001 454.001L469.081 432.081L447.16 454.001L469.081 475.921ZM491.708 453.294L513.628 431.374L491.708 409.453L469.788 431.374L491.708 453.294ZM514.335 430.666L536.256 408.746L514.335 386.826L492.415 408.746L514.335 430.666ZM536.963 408.039L558.883 386.119L536.963 364.198L515.043 386.119L536.963 408.039ZM559.59 385.412L581.511 363.491L559.59 341.571L537.67 363.491L559.59 385.412ZM582.218 362.784L604.138 340.864L582.218 318.943L560.297 340.864L582.218 362.784ZM604.845 340.157L626.766 318.236L604.845 296.316L582.925 318.236L604.845 340.157ZM627.473 317.529L649.393 295.609L627.473 273.689L605.552 295.609L627.473 317.529ZM650.1 294.902L672.021 272.981L650.1 251.061L628.18 272.981L650.1 294.902ZM627.473 228.434L649.393 250.354L627.473 272.274L605.552 250.354L627.473 228.434ZM604.845 251.061L626.766 272.981L604.845 294.902L582.925 272.982L604.845 251.061ZM582.218 273.689L604.138 295.609L582.218 317.529L560.298 295.609L582.218 273.689ZM559.59 296.316L581.511 318.236L559.59 340.157L537.67 318.236L559.59 296.316ZM536.963 318.943L558.883 340.864L536.963 362.784L515.043 340.864L536.963 318.943ZM514.336 341.571L536.256 363.491L514.335 385.412L492.415 363.491L514.336 341.571ZM491.708 364.198L513.628 386.119L491.708 408.039L469.788 386.119L491.708 364.198ZM469.081 386.826L491.001 408.746L469.081 430.666L447.16 408.746L469.081 386.826ZM446.453 409.453L468.373 431.374L446.453 453.294L424.533 431.374L446.453 409.453ZM423.826 432.081L445.746 454.001L423.826 475.921L401.905 454.001L423.826 432.081ZM401.198 454.708L423.119 476.628L401.199 498.548L379.278 476.628L401.198 454.708ZM378.571 477.335L400.492 499.255L378.571 521.176L356.651 499.256L378.571 477.335ZM355.943 499.963L377.864 521.883L355.944 543.803L334.024 521.883L355.943 499.963ZM333.316 522.59L355.237 544.51L333.316 566.431L311.396 544.511L333.316 522.59ZM310.689 545.218L332.609 567.138L310.689 589.058L288.769 567.138L310.689 545.218ZM288.062 567.845L309.982 589.765L288.061 611.686L266.141 589.766L288.062 567.845ZM265.434 589.059L287.354 567.138L265.434 545.217L243.513 567.138L265.434 589.059ZM288.062 566.431L309.981 544.511L288.061 522.59L266.141 544.51L288.062 566.431ZM310.689 543.804L332.609 521.883L310.689 499.963L288.768 521.883L310.689 543.804ZM333.316 521.176L355.236 499.256L333.316 477.336L311.396 499.255L333.316 521.176ZM355.943 498.549L377.864 476.628L355.944 454.708L334.023 476.628L355.943 498.549ZM378.571 475.921L400.491 454.001L378.571 432.081L356.651 454.001L378.571 475.921ZM401.198 453.294L423.119 431.374L401.198 409.453L379.278 431.374L401.198 453.294ZM423.826 430.666L445.746 408.746L423.826 386.826L401.905 408.746L423.826 430.666ZM446.453 408.039L468.374 386.119L446.453 364.198L424.533 386.119L446.453 408.039ZM469.081 385.412L491.001 363.491L469.081 341.571L447.16 363.491L469.081 385.412ZM491.708 362.784L513.628 340.864L491.708 318.943L469.788 340.864L491.708 362.784ZM514.336 340.157L536.256 318.236L514.335 296.316L492.415 318.236L514.336 340.157ZM536.963 317.529L558.883 295.609L536.963 273.689L515.043 295.609L536.963 317.529ZM559.59 294.902L581.511 272.982L559.59 251.061L537.67 272.981L559.59 294.902ZM582.218 272.274L604.138 250.354L582.218 228.434L560.297 250.354L582.218 272.274ZM604.845 249.647L626.766 227.727L604.845 205.806L582.925 227.727L604.845 249.647ZM582.218 183.179L604.138 205.099L582.218 227.02L560.297 205.099L582.218 183.179ZM559.59 205.806L581.511 227.727L559.59 249.647L537.67 227.727L559.59 205.806ZM536.963 228.434L558.883 250.354L536.963 272.274L515.043 250.354L536.963 228.434ZM514.335 251.061L536.256 272.981L514.335 294.902L492.415 272.981L514.335 251.061ZM491.708 273.689L513.628 295.609L491.708 317.529L469.788 295.609L491.708 273.689ZM469.081 296.316L491.001 318.236L469.081 340.157L447.16 318.236L469.081 296.316ZM446.453 318.943L468.373 340.864L446.453 362.784L424.533 340.864L446.453 318.943ZM423.826 341.571L445.746 363.491L423.826 385.412L401.905 363.491L423.826 341.571ZM401.198 364.198L423.119 386.119L401.198 408.039L379.278 386.119L401.198 364.198ZM378.571 386.826L400.491 408.746L378.571 430.666L356.651 408.746L378.571 386.826ZM355.943 409.453L377.864 431.374L355.944 453.293L334.024 431.373L355.943 409.453ZM333.316 432.08L355.237 454.001L333.316 475.921L311.396 454.001L333.316 432.08ZM310.689 454.708L332.609 476.628L310.689 498.548L288.769 476.628L310.689 454.708ZM288.062 477.335L309.982 499.255L288.061 521.176L266.141 499.256L288.062 477.335ZM265.434 499.963L287.354 521.883L265.434 543.803L243.514 521.883L265.434 499.963ZM242.807 522.59L264.727 544.51L242.806 566.431L220.886 544.511L242.807 522.59ZM220.179 543.804L242.1 521.883L220.179 499.963L198.258 521.883L220.179 543.804ZM242.807 521.176L264.727 499.256L242.806 477.336L220.886 499.255L242.807 521.176ZM265.434 498.549L287.354 476.628L265.434 454.708L243.513 476.628L265.434 498.549ZM288.062 475.921L309.981 454.001L288.061 432.081L266.141 454.001L288.062 475.921ZM310.689 453.294L332.609 431.373L310.689 409.453L288.768 431.374L310.689 453.294ZM333.316 430.666L355.236 408.746L333.316 386.826L311.396 408.746L333.316 430.666ZM355.943 408.039L377.864 386.119L355.943 364.198L334.023 386.119L355.943 408.039ZM378.571 385.412L400.491 363.491L378.571 341.571L356.651 363.491L378.571 385.412ZM401.198 362.784L423.119 340.864L401.198 318.943L379.278 340.864L401.198 362.784ZM423.826 340.157L445.746 318.236L423.826 296.316L401.905 318.236L423.826 340.157ZM446.453 317.529L468.374 295.609L446.453 273.689L424.533 295.609L446.453 317.529ZM469.081 294.902L491.001 272.981L469.081 251.061L447.16 272.981L469.081 294.902ZM491.708 272.274L513.628 250.354L491.708 228.434L469.788 250.354L491.708 272.274ZM514.335 249.647L536.256 227.727L514.335 205.806L492.415 227.727L514.335 249.647ZM536.963 227.02L558.883 205.099L536.963 183.179L515.043 205.099L536.963 227.02ZM559.59 204.392L581.511 182.472L559.59 160.551L537.67 182.472L559.59 204.392ZM536.963 137.924L558.883 159.844L536.963 181.765L515.043 159.844L536.963 137.924ZM514.335 160.551L536.256 182.472L514.335 204.392L492.415 182.472L514.335 160.551ZM491.708 183.179L513.628 205.099L491.708 227.02L469.788 205.099L491.708 183.179ZM469.081 205.806L491.001 227.727L469.081 249.647L447.16 227.727L469.081 205.806ZM446.453 228.434L468.374 250.354L446.453 272.274L424.533 250.354L446.453 228.434ZM423.826 251.061L445.746 272.981L423.826 294.902L401.905 272.982L423.826 251.061ZM401.198 273.689L423.119 295.609L401.198 317.529L379.278 295.609L401.198 273.689ZM378.571 296.316L400.491 318.236L378.571 340.157L356.651 318.236L378.571 296.316ZM355.943 318.943L377.864 340.864L355.943 362.784L334.023 340.864L355.943 318.943ZM333.316 341.571L355.236 363.491L333.316 385.412L311.396 363.491L333.316 341.571ZM310.689 364.198L332.609 386.119L310.689 408.039L288.769 386.118L310.689 364.198ZM288.062 386.825L309.982 408.746L288.061 430.666L266.141 408.746L288.062 386.825ZM265.434 409.453L287.354 431.374L265.434 453.293L243.514 431.373L265.434 409.453ZM242.807 432.08L264.727 454.001L242.806 475.921L220.886 454.001L242.807 432.08ZM220.179 454.708L242.099 476.628L220.179 498.548L198.259 476.628L220.179 454.708ZM197.552 477.335L219.472 499.255L197.551 521.176L175.631 499.256L197.552 477.335ZM174.924 498.549L196.845 476.628L174.924 454.708L153.004 476.628L174.924 498.549ZM197.552 475.921L219.472 454.001L197.551 432.081L175.631 454.001L197.552 475.921ZM220.179 453.294L242.1 431.373L220.179 409.453L198.258 431.374L220.179 453.294ZM242.807 430.666L264.727 408.746L242.806 386.826L220.886 408.746L242.807 430.666ZM265.434 408.039L287.354 386.118L265.434 364.198L243.513 386.119L265.434 408.039ZM288.062 385.411L309.981 363.491L288.061 341.571L266.141 363.491L288.062 385.411ZM310.689 362.784L332.609 340.864L310.689 318.943L288.768 340.864L310.689 362.784ZM333.316 340.157L355.236 318.236L333.316 296.316L311.396 318.236L333.316 340.157ZM355.943 317.529L377.864 295.609L355.943 273.689L334.023 295.609L355.943 317.529ZM378.571 294.902L400.491 272.982L378.571 251.061L356.65 272.981L378.571 294.902ZM401.198 272.274L423.119 250.354L401.198 228.434L379.278 250.354L401.198 272.274ZM423.826 249.647L445.746 227.727L423.826 205.806L401.905 227.727L423.826 249.647ZM446.453 227.02L468.374 205.099L446.453 183.179L424.533 205.099L446.453 227.02ZM469.081 204.392L491.001 182.472L469.081 160.551L447.16 182.472L469.081 204.392ZM491.708 181.765L513.628 159.844L491.708 137.924L469.788 159.844L491.708 181.765ZM514.335 159.137L536.256 137.217L514.335 115.296L492.415 137.217L514.335 159.137ZM491.708 92.669L513.628 114.589L491.708 136.51L469.788 114.589L491.708 92.669ZM469.081 115.297L491.001 137.217L469.081 159.137L447.16 137.217L469.081 115.297ZM446.453 137.924L468.373 159.844L446.453 181.765L424.533 159.844L446.453 137.924ZM423.826 160.551L445.746 182.472L423.826 204.392L401.905 182.472L423.826 160.551ZM401.198 183.179L423.119 205.099L401.198 227.019L379.278 205.099L401.198 183.179ZM378.571 205.806L400.491 227.727L378.571 249.647L356.65 227.727L378.571 205.806ZM355.943 228.434L377.864 250.354L355.943 272.274L334.023 250.354L355.943 228.434ZM333.316 251.061L355.236 272.981L333.316 294.902L311.396 272.981L333.316 251.061ZM310.689 273.689L332.609 295.609L310.689 317.529L288.768 295.609L310.689 273.689ZM288.061 296.316L309.981 318.236L288.061 340.157L266.141 318.236L288.061 296.316ZM265.434 318.943L287.354 340.864L265.434 362.784L243.514 340.863L265.434 318.943ZM242.807 341.57L264.727 363.491L242.806 385.412L220.886 363.491L242.807 341.57ZM220.179 364.198L242.099 386.119L220.179 408.039L198.259 386.118L220.179 364.198ZM197.552 386.825L219.472 408.746L197.551 430.666L175.631 408.746L197.552 386.825ZM174.924 409.453L196.844 431.374L174.924 453.293L153.004 431.373L174.924 409.453ZM152.297 432.08L174.217 454.001L152.296 475.921L130.376 454.001L152.297 432.08ZM129.669 453.294L151.59 431.373L129.669 409.453L107.749 431.374L129.669 453.294ZM152.297 430.666L174.217 408.746L152.296 386.826L130.377 408.746L152.297 430.666ZM174.924 408.039L196.845 386.118L174.924 364.198L153.004 386.119L174.924 408.039ZM197.552 385.411L219.472 363.491L197.551 341.571L175.631 363.491L197.552 385.411ZM220.179 362.784L242.1 340.863L220.179 318.943L198.258 340.864L220.179 362.784ZM242.807 340.156L264.727 318.236L242.806 296.316L220.886 318.236L242.807 340.156ZM265.434 317.529L287.354 295.609L265.434 273.689L243.513 295.609L265.434 317.529ZM288.061 294.902L309.981 272.981L288.061 251.061L266.141 272.981L288.061 294.902ZM310.689 272.274L332.609 250.354L310.689 228.434L288.768 250.354L310.689 272.274ZM333.316 249.647L355.236 227.727L333.316 205.806L311.396 227.727L333.316 249.647ZM355.943 227.02L377.864 205.099L355.943 183.179L334.023 205.099L355.943 227.02ZM378.571 204.392L400.491 182.472L378.571 160.551L356.651 182.472L378.571 204.392ZM401.198 181.765L423.119 159.844L401.198 137.924L379.278 159.844L401.198 181.765ZM423.826 159.137L445.746 137.217L423.826 115.297L401.905 137.217L423.826 159.137ZM446.453 136.51L468.373 114.589L446.453 92.6691L424.533 114.589L446.453 136.51ZM469.081 113.882L491.001 91.9619L469.081 70.0416L447.16 91.962L469.081 113.882ZM446.453 47.4142L468.374 69.3345L446.453 91.2549L424.533 69.3345L446.453 47.4142ZM423.826 70.0416L445.746 91.962L423.826 113.882L401.905 91.962L423.826 70.0416ZM401.198 92.6691L423.119 114.589L401.198 136.51L379.278 114.589L401.198 92.6691ZM378.571 115.297L400.491 137.217L378.571 159.137L356.651 137.217L378.571 115.297ZM355.943 137.924L377.864 159.844L355.943 181.765L334.023 159.844L355.943 137.924ZM333.316 160.551L355.236 182.472L333.316 204.392L311.396 182.472L333.316 160.551ZM310.689 183.179L332.609 205.099L310.689 227.02L288.768 205.099L310.689 183.179ZM288.061 205.806L309.981 227.727L288.061 249.647L266.141 227.727L288.061 205.806ZM265.434 228.434L287.354 250.354L265.434 272.274L243.513 250.354L265.434 228.434ZM242.806 251.061L264.727 272.981L242.806 294.902L220.886 272.981L242.806 251.061ZM220.179 273.689L242.099 295.609L220.179 317.529L198.259 295.608L220.179 273.689ZM197.552 296.316L219.472 318.236L197.551 340.157L175.631 318.236L197.552 296.316ZM174.924 318.943L196.844 340.864L174.924 362.784L153.004 340.863L174.924 318.943ZM152.297 341.57L174.217 363.491L152.296 385.412L130.376 363.491L152.297 341.57ZM129.669 364.198L151.589 386.119L129.669 408.039L107.749 386.118L129.669 364.198ZM107.042 386.825L128.962 408.746L107.042 430.666L85.1212 408.746L107.042 386.825ZM84.4141 408.039L106.335 386.118L84.4151 364.198L62.4942 386.119L84.4141 408.039ZM107.042 385.411L128.962 363.491L107.042 341.571L85.1222 363.491L107.042 385.411ZM129.669 362.784L151.59 340.863L129.67 318.943L107.749 340.864L129.669 362.784ZM152.297 340.156L174.217 318.236L152.297 296.317L130.377 318.236L152.297 340.156ZM174.924 317.529L196.845 295.608L174.925 273.689L153.004 295.609L174.924 317.529ZM197.552 294.901L219.472 272.981L197.552 251.062L175.632 272.981L197.552 294.901ZM220.179 272.274L242.099 250.354L220.179 228.434L198.259 250.355L220.179 272.274ZM242.806 249.647L264.727 227.727L242.807 205.807L220.886 227.727L242.806 249.647ZM265.434 227.02L287.354 205.099L265.434 183.179L243.514 205.1L265.434 227.02ZM288.061 204.392L309.981 182.472L288.062 160.552L266.141 182.472L288.061 204.392ZM310.689 181.765L332.609 159.844L310.689 137.924L288.769 159.845L310.689 181.765ZM333.316 159.137L355.236 137.217L333.316 115.297L311.396 137.217L333.316 159.137ZM355.943 136.51L377.864 114.589L355.944 92.6695L334.024 114.59L355.943 136.51ZM378.571 113.882L400.491 91.962L378.571 70.0421L356.651 91.9624L378.571 113.882ZM401.198 91.2549L423.119 69.3345L401.199 47.4147L379.278 69.335L401.198 91.2549ZM423.826 68.6274L445.746 46.7071L423.826 24.7872L401.906 46.7076L423.826 68.6274ZM401.198 2.15928L423.119 24.0801L401.199 46.0005L379.278 24.0796L401.198 2.15928ZM378.571 24.7867L400.492 46.7076L378.571 68.6279L356.651 46.7071L378.571 24.7867ZM355.943 47.4142L377.864 69.335L355.944 91.2553L334.023 69.3345L355.943 47.4142ZM333.316 70.0416L355.237 91.9624L333.316 113.883L311.396 91.9619L333.316 70.0416ZM310.689 92.6691L332.609 114.59L310.689 136.51L288.768 114.589L310.689 92.6691ZM288.061 115.296L309.982 137.217L288.062 159.138L266.141 137.217L288.061 115.296ZM265.434 137.924L287.354 159.845L265.434 181.765L243.513 159.844L265.434 137.924ZM242.806 160.551L264.727 182.472L242.807 204.393L220.886 182.472L242.806 160.551ZM220.179 183.179L242.1 205.1L220.179 227.02L198.258 205.099L220.179 183.179ZM197.551 205.806L219.472 227.727L197.552 249.647L175.631 227.727L197.551 205.806ZM174.924 228.434L196.845 250.355L174.925 272.274L153.004 250.354L174.924 228.434ZM152.297 251.061L174.218 272.981L152.297 294.902L130.376 272.981L152.297 251.061ZM129.669 273.689L151.59 295.609L129.67 317.529L107.749 295.608L129.669 273.689ZM107.042 296.316L128.963 318.236L107.042 340.157L85.1212 318.236L107.042 296.316ZM84.4141 318.943L106.335 340.864L84.4151 362.784L62.4943 340.863L84.4141 318.943ZM61.7871 341.57L83.708 363.491L61.7871 385.412L39.8663 363.491L61.7871 341.57ZM39.1592 362.784L61.08 340.863L39.1602 318.943L17.2394 340.864L39.1592 362.784ZM61.7871 340.156L83.707 318.236L61.7871 296.317L39.8673 318.236L61.7871 340.156ZM84.4141 317.529L106.335 295.608L84.4151 273.689L62.4943 295.609L84.4141 317.529ZM107.042 294.901L128.962 272.981L107.042 251.062L85.1222 272.981L107.042 294.901ZM129.669 272.274L151.59 250.354L129.67 228.434L107.749 250.355L129.669 272.274ZM152.297 249.646L174.217 227.727L152.297 205.807L130.377 227.727L152.297 249.646ZM174.924 227.019L196.844 205.099L174.924 183.179L153.004 205.1L174.924 227.019ZM197.551 204.392L219.472 182.472L197.552 160.552L175.631 182.472L197.551 204.392ZM220.179 181.765L242.099 159.844L220.179 137.924L198.259 159.845L220.179 181.765ZM242.806 159.137L264.727 137.217L242.807 115.297L220.886 137.217L242.806 159.137ZM265.434 136.51L287.354 114.589L265.434 92.6695L243.514 114.59L265.434 136.51ZM288.061 113.882L309.981 91.9619L288.062 70.0421L266.141 91.9624L288.061 113.882ZM310.689 91.2548L332.609 69.3345L310.689 47.4147L288.769 69.335L310.689 91.2548ZM333.316 68.6274L355.236 46.7071L333.316 24.7872L311.396 46.7076L333.316 68.6274ZM355.943 46L377.864 24.0796L355.944 2.15979L334.024 24.0801L355.943 46ZM378.571 23.3725L400.491 1.45217L378.571 -20.4677L356.651 1.45268L378.571 23.3725ZM355.943 -43.0956L377.864 -21.1748L355.944 0.745575L334.023 -21.1752L355.943 -43.0956ZM333.316 -20.4681L355.237 1.45268L333.316 23.373L311.396 1.4522L333.316 -20.4681ZM310.689 2.1593L332.609 24.0801L310.689 46.0005L288.768 24.0796L310.689 2.1593ZM288.061 24.7867L309.982 46.7076L288.062 68.6279L266.141 46.7071L288.061 24.7867ZM265.434 47.4142L287.354 69.335L265.434 91.2553L243.513 69.3345L265.434 47.4142ZM242.806 70.0416L264.727 91.9624L242.807 113.883L220.886 91.962L242.806 70.0416ZM220.179 92.6691L242.1 114.59L220.179 136.51L198.258 114.589L220.179 92.6691ZM197.551 115.297L219.472 137.217L197.552 159.138L175.631 137.217L197.551 115.297ZM174.924 137.924L196.845 159.845L174.924 181.765L153.004 159.844L174.924 137.924ZM152.296 160.551L174.217 182.472L152.297 204.393L130.376 182.472L152.296 160.551ZM129.669 183.179L151.59 205.1L129.67 227.019L107.749 205.099L129.669 183.179ZM107.042 205.806L128.963 227.727L107.042 249.647L85.1212 227.727L107.042 205.806ZM84.4141 228.434L106.335 250.355L84.4151 272.274L62.4943 250.354L84.4141 228.434ZM61.7872 251.061L83.708 272.981L61.7871 294.902L39.8663 272.981L61.7872 251.061ZM39.1592 273.689L61.08 295.609L39.1602 317.529L17.2394 295.608L39.1592 273.689ZM16.5323 296.316L38.4531 318.236L16.5323 340.157L-5.38855 318.236L16.5323 296.316ZM-6.09566 317.529L15.8252 295.608L-6.09468 273.689L-28.0155 295.609L-6.09566 317.529ZM16.5323 294.901L38.4521 272.981L16.5323 251.062L-5.38757 272.981L16.5323 294.901ZM39.1592 272.274L61.08 250.354L39.1602 228.434L17.2394 250.355L39.1592 272.274ZM61.7872 249.646L83.707 227.727L61.7872 205.807L39.8673 227.727L61.7872 249.646ZM84.4141 227.02L106.335 205.099L84.4151 183.179L62.4943 205.1L84.4141 227.02ZM107.042 204.392L128.962 182.472L107.042 160.552L85.1222 182.472L107.042 204.392ZM129.669 181.765L151.589 159.844L129.669 137.924L107.749 159.845L129.669 181.765ZM152.296 159.137L174.217 137.217L152.297 115.297L130.377 137.217L152.296 159.137ZM174.924 136.51L196.844 114.589L174.924 92.6696L153.004 114.59L174.924 136.51ZM197.551 113.882L219.472 91.962L197.552 70.0421L175.631 91.9625L197.551 113.882ZM220.179 91.2549L242.099 69.3345L220.179 47.4147L198.259 69.335L220.179 91.2549ZM242.806 68.6274L264.727 46.7071L242.807 24.7872L220.886 46.7076L242.806 68.6274ZM265.434 46L287.354 24.0796L265.434 2.15979L243.514 24.0801L265.434 46ZM288.061 23.3725L309.981 1.4522L288.062 -20.4676L266.141 1.45268L288.061 23.3725ZM310.689 0.74509L332.609 -21.1752L310.689 -43.0951L288.769 -21.1748L310.689 0.74509ZM333.316 -21.8823L355.236 -43.8027L333.316 -65.7225L311.396 -43.8022L333.316 -21.8823ZM310.689 -88.3505L332.609 -66.4297L310.689 -44.5093L288.768 -66.4301L310.689 -88.3505ZM288.061 -65.723L309.982 -43.8022L288.062 -21.8819L266.141 -43.8027L288.061 -65.723ZM265.434 -43.0956L287.354 -21.1748L265.434 0.745575L243.513 -21.1753L265.434 -43.0956ZM242.806 -20.4682L264.727 1.45268L242.807 23.373L220.886 1.45218L242.806 -20.4682ZM220.179 2.15929L242.1 24.0801L220.179 46.0005L198.258 24.0796L220.179 2.15929ZM197.551 24.7867L219.472 46.7076L197.552 68.6279L175.631 46.7071L197.551 24.7867ZM174.924 47.4142L196.845 69.335L174.924 91.2553L153.004 69.3345L174.924 47.4142ZM152.296 70.0416L174.217 91.9625L152.297 113.883L130.376 91.962L152.296 70.0416ZM129.669 92.6691L151.59 114.59L129.669 136.51L107.749 114.589L129.669 92.6691ZM107.042 115.296L128.962 137.217L107.042 159.138L85.1212 137.217L107.042 115.296ZM84.4141 137.924L106.335 159.845L84.4151 181.765L62.4943 159.844L84.4141 137.924ZM61.7871 160.551L83.708 182.472L61.7872 204.393L39.8663 182.472L61.7871 160.551ZM39.1592 183.179L61.08 205.1L39.1602 227.02L17.2394 205.099L39.1592 183.179ZM16.5323 205.806L38.4531 227.727L16.5323 249.647L-5.38856 227.727L16.5323 205.806ZM-6.09567 228.434L15.8252 250.355L-6.09468 272.274L-28.0155 250.354L-6.09567 228.434ZM-28.7226 251.061L-6.80179 272.981L-28.7226 294.902L-50.6434 272.981L-28.7226 251.061ZM-51.3505 272.274L-29.4297 250.354L-51.3496 228.434L-73.2704 250.355L-51.3505 272.274ZM-28.7226 249.646L-6.80277 227.727L-28.7226 205.807L-50.6425 227.727L-28.7226 249.646ZM-6.09567 227.019L15.8252 205.099L-6.09469 183.179L-28.0155 205.1L-6.09567 227.019ZM16.5323 204.392L38.4521 182.472L16.5323 160.552L-5.38758 182.472L16.5323 204.392ZM39.1592 181.765L61.08 159.844L39.1602 137.924L17.2394 159.845L39.1592 181.765ZM61.7871 159.137L83.707 137.217L61.7871 115.297L39.8673 137.217L61.7871 159.137ZM84.4141 136.51L106.334 114.589L84.4146 92.6695L62.4943 114.59L84.4141 136.51ZM107.042 113.882L128.962 91.962L107.042 70.0421L85.1217 91.9624L107.042 113.882ZM129.669 91.2548L151.589 69.3345L129.669 47.4147L107.749 69.335L129.669 91.2548ZM152.296 68.6274L174.217 46.7071L152.297 24.7872L130.377 46.7076L152.296 68.6274ZM174.924 46L196.844 24.0796L174.924 2.15977L153.004 24.0801L174.924 46ZM197.551 23.3725L219.472 1.45218L197.552 -20.4677L175.631 1.45267L197.551 23.3725ZM220.179 0.745073L242.099 -21.1753L220.179 -43.0951L198.259 -21.1748L220.179 0.745073ZM242.806 -21.8824L264.727 -43.8027L242.807 -65.7225L220.886 -43.8022L242.806 -21.8824ZM265.434 -44.5098L287.354 -66.4301L265.434 -88.35L243.514 -66.4296L265.434 -44.5098ZM288.061 -67.1372L309.981 -89.0576L288.062 -110.977L266.141 -89.0571L288.061 -67.1372ZM265.434 -133.605L287.354 -111.685L265.434 -89.7642L243.513 -111.685L265.434 -133.605ZM242.806 -110.978L264.727 -89.0571L242.807 -67.1368L220.886 -89.0576L242.806 -110.978ZM220.179 -88.3505L242.1 -66.4296L220.179 -44.5093L198.258 -66.4301L220.179 -88.3505ZM197.551 -65.723L219.472 -43.8022L197.552 -21.8819L175.631 -43.8027L197.551 -65.723ZM174.924 -43.0956L196.845 -21.1748L174.924 0.745559L153.004 -21.1753L174.924 -43.0956ZM152.296 -20.4682L174.217 1.45267L152.297 23.373L130.376 1.4522L152.296 -20.4682ZM129.669 2.1593L151.59 24.0801L129.669 46.0005L107.749 24.0796L129.669 2.1593ZM107.042 24.7867L128.962 46.7076L107.042 68.6279L85.1212 46.7071L107.042 24.7867ZM84.4141 47.4142L106.335 69.335L84.4146 91.2553L62.4938 69.3345L84.4141 47.4142ZM61.7867 70.0416L83.7075 91.9624L61.7871 113.883L39.8663 91.9619L61.7867 70.0416ZM39.1592 92.6691L61.08 114.59L39.1602 136.51L17.2394 114.589L39.1592 92.6691ZM16.5323 115.296L38.4531 137.217L16.5323 159.138L-5.38856 137.217L16.5323 115.296ZM-6.09567 137.924L15.8252 159.845L-6.09469 181.765L-28.0155 159.844L-6.09567 137.924ZM-28.7226 160.551L-6.8018 182.472L-28.7226 204.393L-50.6434 182.472L-28.7226 160.551ZM-51.3505 183.179L-29.4297 205.1L-51.3496 227.019L-73.2704 205.099L-51.3505 183.179ZM-73.9775 205.806L-52.0567 227.727L-73.9775 249.647L-95.8983 227.727L-73.9775 205.806ZM-96.6054 227.019L-74.6846 205.099L-96.6045 183.179L-118.525 205.1L-96.6054 227.019ZM-73.9775 204.392L-52.0577 182.472L-73.9775 160.552L-95.8973 182.472L-73.9775 204.392ZM-51.3505 181.765L-29.4297 159.844L-51.3496 137.924L-73.2704 159.845L-51.3505 181.765ZM-28.7226 159.137L-6.80277 137.217L-28.7226 115.297L-50.6425 137.217L-28.7226 159.137ZM-6.09567 136.51L15.8252 114.589L-6.09469 92.6691L-28.0155 114.59L-6.09567 136.51ZM16.5323 113.882L38.4521 91.9619L16.5323 70.0421L-5.38758 91.9619L16.5323 113.882ZM39.1592 91.2548L61.0796 69.3345L39.1597 47.4147L17.2394 69.335L39.1592 91.2548ZM61.7867 68.6274L83.707 46.7071L61.7871 24.7872L39.8668 46.7076L61.7867 68.6274ZM84.4141 46L106.334 24.0796L84.4146 2.15979L62.4942 24.0801L84.4141 46ZM107.042 23.3725L128.962 1.4522L107.042 -20.4676L85.1217 1.45268L107.042 23.3725ZM129.669 0.74509L151.589 -21.1753L129.669 -43.0951L107.749 -21.1748L129.669 0.74509ZM152.296 -21.8824L174.217 -43.8027L152.297 -65.7225L130.377 -43.8022L152.296 -21.8824ZM174.924 -44.5098L196.844 -66.4301L174.924 -88.35L153.004 -66.4297L174.924 -44.5098ZM197.551 -67.1372L219.472 -89.0576L197.552 -110.977L175.631 -89.0571L197.551 -67.1372ZM220.179 -89.7647L242.099 -111.685L220.179 -133.605L198.259 -111.685L220.179 -89.7647ZM242.806 -112.392L264.727 -134.312L242.807 -156.232L220.886 -134.312L242.806 -112.392Z" fill="url(#paint0_radial_700_1847)"/>
<g clip-path="url(#clip1_700_1847)">
<path fill-rule="evenodd" clip-rule="evenodd" d="M84.0919 193.301C81.4164 191.934 78.4669 191.188 75.4629 191.119C71.8525 191.035 68.2865 191.932 65.1455 193.714C62.0043 195.496 59.4055 198.097 57.6256 201.24C55.8458 204.382 54.9517 207.949 55.0386 211.559C55.1194 214.921 56.0477 218.203 57.7319 221.104L54.7 228.627C54.5064 229.107 54.5859 229.655 54.908 230.06C55.2302 230.465 55.7453 230.666 56.2568 230.586L66.2459 229.022C68.7992 230.268 71.591 230.956 74.4347 231.037C77.4384 231.123 80.4226 230.529 83.1649 229.301C85.9073 228.073 88.3371 226.242 90.2731 223.944C92.2091 221.646 93.6016 218.94 94.3465 216.029C95.0914 213.118 95.17 210.077 94.5758 207.131C93.9815 204.186 92.7303 201.412 90.9149 199.018C89.0998 196.623 86.7675 194.669 84.0919 193.301Z" fill="#FFF1F1"/>
<path d="M68.6405 206.073C69.832 206.101 70.8205 205.158 70.8486 203.967C70.8767 202.776 69.9336 201.787 68.7422 201.759C67.5508 201.731 66.5622 202.674 66.5341 203.865C66.506 205.057 67.4491 206.045 68.6405 206.073Z" fill="#EE232A"/>
<path d="M81.495 206.377C82.6864 206.405 83.675 205.462 83.7031 204.27C83.7312 203.079 82.7881 202.09 81.5967 202.062C80.4053 202.034 79.4167 202.977 79.3886 204.168C79.3605 205.36 80.3036 206.348 81.495 206.377Z" fill="#EE232A"/>
<path d="M74.7274 222.584C80.2873 222.715 84.9007 218.314 85.0318 212.754L64.8975 212.28C64.7664 217.84 69.1674 222.453 74.7274 222.584Z" fill="#EE232A"/>
</g>
<g filter="url(#filter0_d_700_1847)">
<path d="M109.704 163.171C110.046 148.642 110.217 141.378 113.086 135.855C115.833 130.566 120.262 126.342 125.674 123.847C131.326 121.241 138.591 121.412 153.119 121.754L400.503 127.584C415.032 127.926 422.296 128.098 427.819 130.967C433.108 133.714 437.332 138.142 439.827 143.554C442.433 149.207 442.262 156.471 441.92 171L441.297 197.416C440.955 211.945 440.784 219.209 437.914 224.733C435.167 230.021 430.739 234.246 425.327 236.741C419.674 239.346 412.41 239.175 397.881 238.833L108.082 232.004L109.704 163.171Z" fill="#EE232A" shape-rendering="crispEdges"/>
<path d="M131.849 160.404L132.184 146.189L134.177 146.236L134.03 152.478L141.399 152.651L141.546 146.41L143.539 146.457L143.204 160.672L141.211 160.625L141.358 154.383L133.989 154.209L133.842 160.451L131.849 160.404ZM146.08 155.643C146.156 152.401 148.4 150.359 151.3 150.427C154.179 150.495 155.659 152.665 155.597 155.303C155.59 155.565 155.516 156.147 155.516 156.147L148.087 155.972C148.135 158.209 149.699 159.374 151.511 159.417C153.263 159.458 154.559 158.3 154.559 158.3L155.331 159.749C155.331 159.749 153.786 161.163 151.35 161.105C148.149 161.03 146.009 158.663 146.08 155.643ZM148.182 154.504L153.618 154.632C153.599 152.879 152.532 152.007 151.223 151.976C149.733 151.941 148.503 152.839 148.182 154.504ZM156.318 164.587L157.038 163.113C157.038 163.113 157.592 163.549 158.216 163.564C159.001 163.582 159.679 163.034 160.083 162.117L160.614 160.961L156.583 150.793L158.778 150.845L161.178 157.57C161.367 158.098 161.531 158.807 161.531 158.807L161.571 158.808C161.571 158.808 161.749 158.127 161.942 157.608L164.576 150.982L166.69 151.031L161.635 162.939C160.974 164.495 159.706 165.291 158.277 165.257C157.129 165.23 156.318 164.587 156.318 164.587ZM173.67 161.39L174.005 147.175L175.999 147.222L175.852 153.463L183.221 153.637L183.368 147.395L185.361 147.442L185.026 161.657L183.033 161.61L183.18 155.369L175.811 155.195L175.664 161.437L173.67 161.39ZM187.902 156.628C187.978 153.387 190.222 151.344 193.122 151.413C196.001 151.48 197.481 153.651 197.419 156.288C197.412 156.55 197.338 157.133 197.338 157.133L189.909 156.957C189.957 159.195 191.521 160.36 193.333 160.402C195.084 160.444 196.381 159.286 196.381 159.286L197.153 160.734C197.153 160.734 195.608 162.148 193.172 162.091C189.971 162.015 187.831 159.648 187.902 156.628ZM190.004 155.489L195.44 155.617C195.421 153.864 194.353 152.993 193.045 152.962C191.555 152.927 190.325 153.825 190.004 155.489ZM203.352 158.12L203.312 158.119C203.312 158.119 203.143 158.438 202.997 158.676L200.782 162.028L198.568 161.976L202.154 156.823L198.989 151.793L201.224 151.845L203.043 154.991C203.198 155.256 203.371 155.603 203.371 155.603L203.412 155.604C203.412 155.604 203.601 155.266 203.768 155.008L205.734 151.952L207.969 152.004L204.57 156.88L207.91 162.196L205.695 162.144L203.641 158.691C203.506 158.446 203.352 158.12 203.352 158.12ZM209.137 157.129C209.208 154.108 211.518 151.846 214.719 151.922C217.276 151.982 218.509 153.502 218.509 153.502L217.551 154.849C217.551 154.849 216.491 153.656 214.76 153.615C212.706 153.566 211.18 155.061 211.131 157.155C211.082 159.229 212.534 160.855 214.648 160.905C216.541 160.949 217.821 159.61 217.821 159.61L218.573 161.058C218.573 161.058 217.125 162.655 214.467 162.593C211.266 162.517 209.065 160.189 209.137 157.129ZM220.128 157.367C220.201 154.287 222.71 152.11 225.75 152.181C228.79 152.253 231.194 154.546 231.121 157.626C231.048 160.727 228.539 162.924 225.499 162.853C222.458 162.781 220.055 160.468 220.128 157.367ZM222.121 157.414C222.071 159.549 223.626 161.116 225.538 161.161C227.471 161.207 229.078 159.714 229.128 157.579C229.178 155.465 227.643 153.918 225.71 153.873C223.797 153.828 222.171 155.3 222.121 157.414ZM232.772 157.686C232.849 154.444 234.811 152.395 237.509 152.459C239.865 152.514 240.612 154.143 240.612 154.143L240.652 154.144C240.652 154.144 240.619 153.841 240.628 153.459L240.739 148.747L242.692 148.793L242.357 163.008L240.505 162.965L240.528 161.998C240.537 161.595 240.564 161.314 240.564 161.314L240.524 161.313C240.524 161.313 239.653 163.186 237.137 163.127C234.378 163.062 232.698 160.847 232.772 157.686ZM234.766 157.732C234.714 159.947 235.868 161.405 237.559 161.445C239.069 161.48 240.524 160.447 240.585 157.849C240.628 156.037 239.724 154.203 237.791 154.157C236.18 154.119 234.82 155.417 234.766 157.732ZM244.825 157.97C244.901 154.728 247.145 152.686 250.044 152.754C252.923 152.822 254.403 154.992 254.341 157.63C254.335 157.891 254.261 158.474 254.261 158.474L246.831 158.299C246.879 160.536 248.443 161.701 250.255 161.744C252.007 161.785 253.304 160.627 253.304 160.627L254.075 162.076C254.075 162.076 252.531 163.49 250.095 163.432C246.893 163.357 244.753 160.99 244.825 157.97ZM246.926 156.83L252.363 156.959C252.343 155.205 251.276 154.334 249.967 154.303C248.477 154.268 247.248 155.166 246.926 156.83ZM257.475 159.456L257.577 149.144L259.59 149.192L259.227 159.497L257.475 159.456ZM257.262 163.359L257.308 161.406L259.301 161.453L259.255 163.406L257.262 163.359ZM268.118 163.615L269.601 149.427L271.695 149.477L274.775 157.245C275.079 158.038 275.435 159.174 275.435 159.174L275.475 159.175C275.475 159.175 275.884 158.057 276.225 157.279L279.668 149.665L281.762 149.714L282.575 163.956L280.602 163.909L280.108 154.933C280.068 154.066 280.137 152.839 280.137 152.839L280.097 152.838C280.097 152.838 279.643 154.136 279.283 154.914L276.293 161.249L274.521 161.208L271.853 154.739C271.549 153.966 271.138 152.586 271.138 152.586L271.098 152.585C271.098 152.585 271.088 153.854 271.007 154.719L270.112 163.662L268.118 163.615ZM284.085 167.598L284.804 166.124C284.804 166.124 285.358 166.56 285.982 166.575C286.768 166.593 287.445 166.045 287.85 165.128L288.381 163.972L284.349 153.804L286.544 153.856L288.944 160.581C289.133 161.109 289.298 161.818 289.298 161.818L289.338 161.819C289.338 161.819 289.515 161.138 289.709 160.619L292.343 153.992L294.457 154.042L289.402 165.95C288.74 167.506 287.473 168.302 286.043 168.268C284.895 168.241 284.085 167.598 284.085 167.598ZM301.034 164.391L301.369 150.176L303.322 150.222L303.213 154.873C303.201 155.376 303.152 155.738 303.152 155.738L303.192 155.739C303.192 155.739 304.099 154.028 306.495 154.084C309.233 154.149 310.913 156.364 310.839 159.525C310.762 162.767 308.76 164.815 306.082 164.752C303.807 164.698 302.922 162.924 302.922 162.924L302.882 162.924C302.882 162.924 302.914 163.247 302.904 163.69L302.886 164.435L301.034 164.391ZM303.046 159.382C303.003 161.194 303.907 163.028 305.84 163.074C307.45 163.112 308.811 161.814 308.865 159.499C308.917 157.284 307.763 155.826 306.072 155.787C304.542 155.751 303.107 156.784 303.046 159.382ZM313.052 161.008L313.206 154.484L315.159 154.53L315.016 160.611C314.983 162.02 315.238 163.154 316.869 163.193C318.943 163.242 320.214 161.438 320.261 159.425L320.374 154.653L322.327 154.699L322.087 164.887L320.194 164.842L320.226 163.493C320.236 163.071 320.284 162.749 320.284 162.749L320.243 162.748C319.797 163.745 318.437 165.043 316.443 164.996C314.148 164.942 312.989 163.706 313.052 161.008ZM324.344 163.691L325.323 162.324C325.323 162.324 326.443 163.539 328.215 163.581C329.06 163.601 329.916 163.178 329.936 162.352C329.98 160.48 324.736 160.739 324.814 157.417C324.858 155.565 326.534 154.556 328.567 154.604C330.802 154.657 331.823 155.809 331.823 155.809L331.003 157.261C331.003 157.261 330.118 156.333 328.507 156.295C327.662 156.275 326.828 156.618 326.807 157.504C326.763 159.336 332.008 159.057 331.929 162.399C331.889 164.091 330.41 165.325 328.175 165.272C325.678 165.213 324.344 163.691 324.344 163.691ZM334.433 152.95L334.48 150.956L336.453 151.003L336.406 152.996L334.433 152.95ZM334.165 165.172L334.405 154.984L336.358 155.03L336.118 165.218L334.165 165.172ZM339.179 165.29L339.419 155.102L341.312 155.146L341.28 156.495C341.271 156.898 341.222 157.239 341.222 157.239L341.263 157.24C341.686 156.364 342.928 154.943 345.143 154.995C347.539 155.051 348.616 156.386 348.554 158.984L348.401 165.507L346.448 165.461L346.591 159.381C346.625 157.951 346.349 156.816 344.718 156.778C343.168 156.741 341.895 157.739 341.438 159.199C341.308 159.598 341.257 160.061 341.245 160.564L341.132 165.336L339.179 165.29ZM350.726 160.465C350.803 157.223 353.047 155.181 355.946 155.25C358.825 155.317 360.305 157.488 360.243 160.125C360.237 160.387 360.163 160.969 360.163 160.969L352.733 160.794C352.781 163.032 354.345 164.197 356.157 164.239C357.909 164.281 359.205 163.123 359.205 163.123L359.977 164.571C359.977 164.571 358.433 165.985 355.996 165.928C352.795 165.852 350.655 163.485 350.726 160.465ZM352.828 159.326L358.264 159.454C358.245 157.701 357.178 156.83 355.869 156.799C354.379 156.764 353.149 157.662 352.828 159.326ZM361.683 164.571L362.662 163.204C362.662 163.204 363.782 164.419 365.554 164.461C366.399 164.481 367.255 164.058 367.275 163.232C367.319 161.36 362.075 161.619 362.153 158.297C362.197 156.444 363.873 155.436 365.906 155.484C368.141 155.537 369.161 156.689 369.161 156.689L368.342 158.14C368.342 158.14 367.457 157.213 365.846 157.175C365.001 157.155 364.166 157.498 364.146 158.384C364.102 160.216 369.347 159.937 369.268 163.279C369.228 164.97 367.749 166.205 365.514 166.152C363.017 166.093 361.683 164.571 361.683 164.571ZM370.708 164.784L371.687 163.417C371.687 163.417 372.807 164.632 374.579 164.674C375.424 164.693 376.28 164.27 376.3 163.445C376.344 161.572 371.1 161.832 371.178 158.509C371.222 156.657 372.898 155.649 374.931 155.697C377.166 155.75 378.187 156.902 378.187 156.902L377.367 158.353C377.367 158.353 376.482 157.426 374.871 157.388C374.026 157.368 373.192 157.711 373.171 158.597C373.127 160.429 378.372 160.15 378.293 163.492C378.253 165.183 376.774 166.417 374.539 166.365C372.042 166.306 370.708 164.784 370.708 164.784ZM385.968 154.164L386.015 152.171L387.988 152.217L387.941 154.211L385.968 154.164ZM385.7 166.386L385.941 156.198L387.894 156.244L387.653 166.432L385.7 166.386ZM389.918 165.236L390.897 163.869C390.897 163.869 392.017 165.084 393.789 165.126C394.634 165.146 395.491 164.723 395.51 163.898C395.554 162.025 390.31 162.284 390.388 158.962C390.432 157.11 392.108 156.102 394.141 156.15C396.376 156.202 397.397 157.354 397.397 157.354L396.577 158.806C396.577 158.806 395.692 157.878 394.081 157.84C393.236 157.82 392.402 158.163 392.381 159.049C392.338 160.882 397.582 160.602 397.503 163.945C397.463 165.636 395.984 166.87 393.749 166.817C391.252 166.759 389.918 165.236 389.918 165.236ZM399.739 166.717L399.979 156.529L401.872 156.574L401.84 157.923C401.831 158.325 401.783 158.667 401.783 158.667L401.823 158.668C402.246 157.791 403.489 156.37 405.703 156.422C408.099 156.479 409.176 157.813 409.115 160.411L408.961 166.934L407.008 166.888L407.151 160.808C407.185 159.378 406.909 158.243 405.279 158.205C403.728 158.168 402.456 159.166 401.998 160.626C401.868 161.026 401.817 161.488 401.805 161.991L401.692 166.763L399.739 166.717ZM411.861 156.325L411.95 152.54L413.5 152.577L413.411 156.362L411.861 156.325ZM416.471 163.384L416.583 158.633L415.255 158.601L415.292 157.031L416.681 157.064L416.75 154.124L418.643 154.169L418.573 157.108L421.03 157.166L420.993 158.736L418.536 158.679L418.43 163.209C418.382 165.242 419.805 165.538 420.55 165.555C420.832 165.562 421.014 165.526 421.014 165.526L420.973 167.258C420.973 167.258 420.691 167.291 420.288 167.282C418.979 167.251 416.391 166.787 416.471 163.384ZM130.904 183.388L131.144 173.2L133.037 173.245L133.005 174.594C132.995 174.996 132.947 175.338 132.947 175.338L132.987 175.339C133.499 174.162 134.955 173.048 136.546 173.086C138.257 173.126 139.245 173.935 139.552 175.473L139.592 175.474C140.185 174.259 141.62 173.205 143.271 173.244C145.566 173.298 146.602 174.632 146.541 177.23L146.387 183.753L144.434 183.707L144.578 177.606C144.612 176.177 144.356 175.043 142.826 175.007C141.397 174.973 140.301 176.156 139.906 177.537C139.795 177.957 139.744 178.419 139.732 178.943L139.622 183.594L137.669 183.548L137.813 177.447C137.844 176.118 137.672 174.885 136.101 174.848C134.611 174.813 133.535 176.016 133.119 177.457C133.009 177.857 132.978 178.32 132.967 178.783L132.857 183.434L130.904 183.388ZM148.723 178.711C148.8 175.47 151.044 173.427 153.943 173.496C156.822 173.564 158.302 175.734 158.24 178.371C158.234 178.633 158.16 179.216 158.16 179.216L150.73 179.041C150.778 181.278 152.342 182.443 154.154 182.486C155.906 182.527 157.202 181.369 157.202 181.369L157.974 182.817C157.974 182.817 156.43 184.231 153.994 184.174C150.792 184.099 148.652 181.731 148.723 178.711ZM150.825 177.572L156.261 177.7C156.242 175.947 155.175 175.076 153.866 175.045C152.376 175.01 151.146 175.908 150.825 177.572ZM159.892 178.974C159.968 175.733 162.212 173.691 165.111 173.759C167.991 173.827 169.47 175.997 169.408 178.635C169.402 178.896 169.328 179.479 169.328 179.479L161.898 179.304C161.946 181.541 163.51 182.706 165.323 182.749C167.074 182.79 168.371 181.632 168.371 181.632L169.142 183.081C169.142 183.081 167.598 184.495 165.162 184.437C161.961 184.362 159.82 181.995 159.892 178.974ZM161.993 177.835L167.43 177.964C167.411 176.21 166.343 175.339 165.035 175.308C163.545 175.273 162.315 176.171 161.993 177.835ZM172.155 180.633L172.267 175.882L170.938 175.85L170.975 174.28L172.365 174.313L172.434 171.373L174.326 171.418L174.257 174.357L176.714 174.415L176.677 175.986L174.22 175.928L174.113 180.458C174.065 182.491 175.489 182.787 176.234 182.804C176.516 182.811 176.698 182.775 176.698 182.775L176.657 184.507C176.657 184.507 176.374 184.54 175.972 184.531C174.663 184.5 172.075 184.036 172.155 180.633ZM179.129 172.296L179.175 170.303L181.149 170.349L181.102 172.343L179.129 172.296ZM178.861 184.518L179.101 174.33L181.054 174.376L180.814 184.564L178.861 184.518ZM183.875 184.636L184.115 174.448L186.007 174.493L185.975 175.842C185.966 176.245 185.918 176.586 185.918 176.586L185.958 176.587C186.381 175.711 187.624 174.289 189.838 174.342C192.234 174.398 193.311 175.733 193.25 178.33L193.096 184.854L191.143 184.808L191.286 178.727C191.32 177.298 191.045 176.163 189.414 176.125C187.863 176.088 186.591 177.085 186.133 178.545C186.003 178.945 185.952 179.407 185.94 179.911L185.828 184.682L183.875 184.636ZM196.869 186.796C196.869 186.796 198.121 187.51 199.651 187.547C201.423 187.588 202.891 186.837 202.94 184.763L202.958 184.018C202.965 183.696 202.993 183.375 202.993 183.375L202.953 183.374C202.325 184.366 201.365 184.928 199.895 184.893C197.056 184.826 195.398 182.511 195.468 179.571C195.536 176.652 197.218 174.516 200.037 174.582C202.494 174.64 203.203 176.167 203.203 176.167L203.243 176.168C203.243 176.168 203.227 176.027 203.231 175.846L203.253 174.899L205.126 174.944L204.895 184.709C204.816 188.071 202.229 189.299 199.652 189.239C198.423 189.21 197.163 188.838 196.188 188.311L196.869 186.796ZM200.317 183.211C201.727 183.244 203.035 182.429 203.098 179.771C203.161 177.113 201.89 176.318 200.299 176.28C198.528 176.239 197.491 177.503 197.442 179.577C197.392 181.691 198.485 183.168 200.317 183.211ZM213.113 185.325L213.353 175.137L215.245 175.182L215.213 176.531C215.204 176.934 215.156 177.275 215.156 177.275L215.196 177.276C215.707 176.099 217.164 174.986 218.754 175.023C220.466 175.063 221.454 175.872 221.76 177.411L221.8 177.412C222.393 176.197 223.828 175.143 225.479 175.181C227.774 175.236 228.811 176.569 228.75 179.167L228.596 185.69L226.643 185.644L226.787 179.544C226.82 178.114 226.565 176.98 225.035 176.944C223.605 176.91 222.51 178.093 222.114 179.474C222.004 179.894 221.953 180.356 221.94 180.88L221.831 185.531L219.878 185.485L220.021 179.384C220.053 178.055 219.88 176.822 218.31 176.785C216.82 176.75 215.744 177.954 215.327 179.394C215.217 179.795 215.186 180.257 215.175 180.72L215.066 185.371L213.113 185.325ZM230.002 189.329L230.722 187.856C230.722 187.856 231.276 188.292 231.9 188.306C232.685 188.325 233.363 187.777 233.767 186.86L234.298 185.704L230.267 175.536L232.461 175.588L234.861 182.312C235.05 182.841 235.215 183.55 235.215 183.55L235.255 183.551C235.255 183.551 235.432 182.87 235.626 182.351L238.26 175.724L240.374 175.774L235.319 187.682C234.658 189.238 233.39 190.034 231.961 190C230.813 189.973 230.002 189.329 230.002 189.329ZM246.367 181.012C246.443 177.771 248.687 175.728 251.587 175.797C254.466 175.865 255.946 178.035 255.884 180.672C255.877 180.934 255.803 181.517 255.803 181.517L248.374 181.342C248.422 183.579 249.986 184.744 251.798 184.787C253.549 184.828 254.846 183.67 254.846 183.67L255.618 185.118C255.618 185.118 254.073 186.532 251.637 186.475C248.436 186.4 246.296 184.032 246.367 181.012ZM248.469 179.873L253.905 180.001C253.886 178.248 252.819 177.377 251.51 177.346C250.02 177.311 248.79 178.209 248.469 179.873ZM261.817 182.504L261.777 182.504C261.777 182.504 261.608 182.822 261.462 183.06L259.247 186.413L257.033 186.36L260.619 181.207L257.454 176.177L259.689 176.229L261.508 179.375C261.663 179.64 261.836 179.987 261.836 179.987L261.877 179.988C261.877 179.988 262.066 179.65 262.233 179.392L264.199 176.336L266.434 176.388L263.035 181.264L266.375 186.581L264.16 186.528L262.106 183.075C261.971 182.83 261.817 182.504 261.817 182.504ZM268.249 190.654L268.584 176.439L270.376 176.481L270.356 177.347C270.346 177.75 270.298 178.091 270.298 178.091L270.338 178.092C270.338 178.092 271.248 176.26 273.805 176.32C276.543 176.385 278.223 178.6 278.149 181.761C278.072 185.003 276.07 187.051 273.412 186.988C271.177 186.935 270.331 185.243 270.331 185.243L270.291 185.242C270.291 185.242 270.322 185.606 270.31 186.129L270.202 190.7L268.249 190.654ZM270.356 181.618C270.313 183.43 271.277 185.266 273.15 185.31C274.761 185.348 276.121 184.05 276.175 181.735C276.227 179.52 275.073 178.063 273.382 178.023C271.852 177.987 270.417 179.021 270.356 181.618ZM279.832 181.801C279.909 178.559 282.153 176.517 285.052 176.585C287.931 176.653 289.411 178.823 289.349 181.461C289.343 181.723 289.269 182.305 289.269 182.305L281.839 182.13C281.887 184.367 283.451 185.532 285.263 185.575C287.015 185.616 288.311 184.458 288.311 184.458L289.083 185.907C289.083 185.907 287.539 187.321 285.103 187.264C281.901 187.188 279.761 184.821 279.832 181.801ZM281.934 180.662L287.37 180.79C287.351 179.037 286.284 178.166 284.975 178.135C283.485 178.1 282.255 178.997 281.934 180.662ZM290.98 182.064C291.052 179.043 293.361 176.781 296.563 176.857C299.12 176.917 300.353 178.437 300.353 178.437L299.395 179.784C299.395 179.784 298.335 178.591 296.603 178.55C294.55 178.501 293.024 179.996 292.974 182.09C292.925 184.164 294.378 185.79 296.492 185.84C298.385 185.884 299.665 184.545 299.665 184.545L300.417 185.993C300.417 185.993 298.969 187.59 296.311 187.528C293.11 187.452 290.908 185.124 290.98 182.064ZM303.107 183.719L303.219 178.968L301.89 178.936L301.927 177.366L303.316 177.398L303.385 174.459L305.278 174.503L305.209 177.443L307.665 177.501L307.628 179.071L305.172 179.014L305.065 183.544C305.017 185.577 306.44 185.873 307.185 185.89C307.467 185.897 307.649 185.861 307.649 185.861L307.609 187.593C307.609 187.593 307.326 187.626 306.923 187.617C305.614 187.586 303.027 187.122 303.107 183.719ZM309.054 184.726C309.133 181.363 313.566 181.327 315.278 181.367L315.721 181.377L315.725 181.196C315.764 179.525 314.831 178.939 313.543 178.909C311.972 178.872 310.68 179.828 310.68 179.828L309.909 178.38C309.909 178.38 311.407 177.206 313.743 177.261C316.32 177.322 317.736 178.766 317.676 181.343L317.524 187.786L315.712 187.743L315.734 186.777C315.745 186.314 315.794 185.972 315.794 185.972L315.753 185.971C315.753 185.971 314.88 187.965 312.444 187.908C310.692 187.867 309.006 186.759 309.054 184.726ZM311.03 184.671C311.01 185.497 311.636 186.318 312.904 186.347C314.555 186.386 315.663 184.68 315.699 183.17L315.706 182.848L315.203 182.836C313.733 182.801 311.073 182.839 311.03 184.671ZM320.901 184.139L321.013 179.387L319.684 179.356L319.721 177.785L321.111 177.818L321.18 174.878L323.073 174.923L323.003 177.862L325.46 177.92L325.423 179.491L322.966 179.433L322.859 183.963C322.812 185.997 324.235 186.292 324.98 186.31C325.262 186.316 325.444 186.28 325.444 186.28L325.403 188.012C325.403 188.012 325.12 188.045 324.718 188.036C323.409 188.005 320.821 187.541 320.901 184.139ZM327.875 175.801L327.922 173.808L329.895 173.855L329.848 175.848L327.875 175.801ZM327.607 188.023L327.847 177.836L329.8 177.882L329.56 188.069L327.607 188.023ZM331.996 183.01C332.069 179.929 334.578 177.752 337.618 177.824C340.658 177.896 343.062 180.188 342.99 183.269C342.916 186.37 340.407 188.567 337.367 188.495C334.326 188.424 331.923 186.111 331.996 183.01ZM333.989 183.057C333.939 185.191 335.494 186.759 337.407 186.804C339.339 186.849 340.946 185.356 340.996 183.222C341.046 181.108 339.511 179.561 337.578 179.515C335.666 179.47 334.039 180.943 333.989 183.057ZM345.185 188.438L345.425 178.25L347.318 178.294L347.286 179.643C347.276 180.046 347.228 180.387 347.228 180.387L347.268 180.388C347.692 179.512 348.934 178.091 351.149 178.143C353.545 178.199 354.621 179.534 354.56 182.131L354.406 188.655L352.453 188.609L352.597 182.528C352.63 181.099 352.355 179.964 350.724 179.926C349.174 179.889 347.901 180.887 347.444 182.347C347.313 182.746 347.262 183.209 347.25 183.712L347.138 188.484L345.185 188.438ZM356.521 187.456L357.5 186.089C357.5 186.089 358.619 187.304 360.391 187.346C361.237 187.365 362.093 186.942 362.112 186.117C362.156 184.244 356.912 184.504 356.991 181.181C357.034 179.329 358.71 178.321 360.744 178.369C362.979 178.422 363.999 179.574 363.999 179.574L363.179 181.025C363.179 181.025 362.294 180.098 360.684 180.06C359.838 180.04 359.004 180.383 358.983 181.269C358.94 183.101 364.184 182.822 364.106 186.164C364.066 187.855 362.586 189.09 360.351 189.037C357.855 188.978 356.521 187.456 356.521 187.456ZM366.342 188.936L366.391 186.862L368.444 186.911L368.395 188.985L366.342 188.936ZM377.028 189.188L377.363 174.973L379.356 175.02L379.209 181.262L386.578 181.436L386.725 175.194L388.719 175.241L388.384 189.456L386.39 189.409L386.537 183.167L379.168 182.993L379.021 189.235L377.028 189.188ZM391.219 184.406C391.292 181.325 393.801 179.148 396.841 179.22C399.882 179.291 402.285 181.584 402.213 184.665C402.14 187.765 399.63 189.962 396.59 189.891C393.55 189.819 391.146 187.506 391.219 184.406ZM393.213 184.453C393.162 186.587 394.717 188.154 396.63 188.2C398.563 188.245 400.169 186.752 400.219 184.618C400.269 182.504 398.734 180.956 396.801 180.911C394.889 180.866 393.262 182.338 393.213 184.453ZM406.502 189.883L403.46 179.617L405.534 179.666L407.48 186.864C407.628 187.391 407.696 187.957 407.716 187.957L407.756 187.958C407.756 187.958 407.87 187.397 408.044 186.877L410.426 179.802L412.218 179.844L414.245 187.023C414.394 187.55 414.501 188.117 414.501 188.117L414.541 188.118C414.541 188.118 414.635 187.556 414.809 187.036L417.111 179.939L419.165 179.987L415.643 190.098L413.489 190.047L411.529 183.454C411.38 182.927 411.273 182.34 411.273 182.34L411.233 182.339C411.233 182.339 411.098 182.92 410.925 183.44L408.677 189.934L406.502 189.883ZM129.734 202.27C129.805 199.25 132.115 196.988 135.316 197.063C137.873 197.124 139.106 198.644 139.106 198.644L138.148 199.991C138.148 199.991 137.088 198.797 135.357 198.757C133.303 198.708 131.777 200.203 131.728 202.297C131.679 204.371 133.131 205.997 135.245 206.047C137.138 206.091 138.419 204.752 138.419 204.752L139.17 206.2C139.17 206.2 137.722 207.797 135.064 207.735C131.863 207.659 129.662 205.331 129.734 202.27ZM140.591 204.762C140.671 201.4 145.104 201.363 146.815 201.404L147.258 201.414L147.262 201.233C147.302 199.562 146.369 198.976 145.08 198.945C143.509 198.908 142.218 199.865 142.218 199.865L141.446 198.417C141.446 198.417 142.944 197.243 145.28 197.298C147.857 197.359 149.274 198.803 149.213 201.38L149.061 207.823L147.249 207.78L147.272 206.814C147.283 206.35 147.331 206.009 147.331 206.009L147.291 206.008C147.291 206.008 146.418 208.002 143.981 207.945C142.23 207.903 140.544 206.796 140.591 204.762ZM142.567 204.708C142.548 205.534 143.173 206.354 144.441 206.384C146.092 206.423 147.2 204.717 147.236 203.207L147.243 202.885L146.74 202.873C145.27 202.838 142.61 202.876 142.567 204.708ZM151.987 207.892L152.227 197.704L154.12 197.748L154.088 199.097C154.078 199.5 154.03 199.841 154.03 199.841L154.07 199.842C154.494 198.966 155.736 197.545 157.951 197.597C160.347 197.653 161.423 198.988 161.362 201.585L161.208 208.109L159.255 208.063L159.399 201.982C159.432 200.553 159.157 199.418 157.526 199.38C155.976 199.343 154.703 200.341 154.246 201.801C154.115 202.2 154.064 202.662 154.052 203.166L153.94 207.938L151.987 207.892ZM169.693 208.309L170.028 194.094L172.021 194.141L171.686 208.356L169.693 208.309ZM180.588 196.337L180.635 194.344L182.608 194.391L182.561 196.384L180.588 196.337ZM180.32 208.559L180.561 198.371L182.514 198.417L182.273 208.605L180.32 208.559ZM185.334 208.677L185.574 198.49L187.467 198.534L187.435 199.883C187.426 200.286 187.377 200.627 187.377 200.627L187.418 200.628C187.929 199.452 189.386 198.338 190.976 198.375C192.688 198.415 193.676 199.224 193.982 200.763L194.022 200.764C194.615 199.549 196.05 198.495 197.701 198.534C199.996 198.588 201.033 199.922 200.971 202.519L200.818 209.042L198.865 208.996L199.008 202.896C199.042 201.466 198.787 200.332 197.257 200.296C195.827 200.262 194.731 201.445 194.336 202.826C194.226 203.246 194.174 203.708 194.162 204.232L194.053 208.883L192.1 208.837L192.243 202.736C192.275 201.407 192.102 200.174 190.532 200.137C189.042 200.102 187.966 201.306 187.549 202.746C187.439 203.147 187.408 203.609 187.397 204.072L187.287 208.724L185.334 208.677ZM203.643 213.138L203.978 198.923L205.77 198.965L205.75 199.831C205.741 200.234 205.692 200.575 205.692 200.575L205.732 200.576C205.732 200.576 206.642 198.744 209.199 198.804C211.937 198.869 213.618 201.084 213.543 204.245C213.467 207.487 211.464 209.535 208.807 209.472C206.572 209.42 205.725 207.728 205.725 207.728L205.685 207.727C205.685 207.727 205.717 208.09 205.704 208.614L205.597 213.184L203.643 213.138ZM205.75 204.102C205.707 205.914 206.671 207.75 208.544 207.794C210.155 207.832 211.515 206.534 211.569 204.219C211.622 202.004 210.467 200.547 208.776 200.507C207.246 200.471 205.811 201.505 205.75 204.102ZM215.811 209.396L216.051 199.208L217.944 199.252L217.902 201.024C217.892 201.447 217.844 201.788 217.844 201.788L217.884 201.789C218.382 200.31 219.598 199.17 221.168 199.207C221.43 199.214 221.671 199.26 221.671 199.26L221.625 201.192C221.625 201.192 221.365 201.126 221.063 201.119C219.814 201.089 218.646 201.948 218.147 203.447C217.952 204.027 217.877 204.65 217.862 205.274L217.764 209.442L215.811 209.396ZM222.678 204.441C222.751 201.36 225.26 199.183 228.3 199.255C231.34 199.326 233.744 201.619 233.671 204.7C233.598 207.8 231.089 209.997 228.048 209.926C225.008 209.854 222.605 207.541 222.678 204.441ZM224.671 204.488C224.621 206.622 226.176 208.189 228.088 208.235C230.021 208.28 231.628 206.787 231.678 204.653C231.728 202.539 230.193 200.991 228.26 200.946C226.347 200.901 224.721 202.373 224.671 204.488ZM238.283 209.925L234.718 199.648L236.791 199.696L239.106 206.641C239.294 207.209 239.395 208.038 239.415 208.038L239.455 208.039C239.476 208.04 239.636 207.217 239.851 206.658L242.489 199.831L244.543 199.879L240.538 209.978L238.283 209.925ZM245.389 204.996C245.465 201.754 247.709 199.712 250.608 199.78C253.487 199.848 254.967 202.018 254.905 204.656C254.899 204.918 254.825 205.5 254.825 205.5L247.395 205.325C247.443 207.562 249.007 208.727 250.82 208.77C252.571 208.811 253.868 207.653 253.868 207.653L254.639 209.102C254.639 209.102 253.095 210.516 250.659 210.459C247.457 210.383 245.317 208.016 245.389 204.996ZM247.49 203.857L252.927 203.985C252.908 202.232 251.84 201.361 250.531 201.33C249.042 201.295 247.812 202.192 247.49 203.857ZM262.581 198.269L262.628 196.276L264.601 196.323L264.554 198.316L262.581 198.269ZM262.313 210.491L262.553 200.304L264.506 200.35L264.266 210.538L262.313 210.491ZM267.837 206.895L267.949 202.143L266.62 202.112L266.657 200.541L268.047 200.574L268.116 197.634L270.008 197.679L269.939 200.619L272.396 200.676L272.359 202.247L269.902 202.189L269.795 206.719C269.748 208.753 271.171 209.048 271.916 209.066C272.198 209.072 272.38 209.036 272.38 209.036L272.339 210.768C272.339 210.768 272.056 210.802 271.654 210.792C270.345 210.761 267.757 210.297 267.837 206.895ZM276.004 206.906L276.026 205.96C276.098 202.899 279.532 202.537 279.586 200.221C279.613 199.094 278.667 198.205 277.338 198.174C276.069 198.144 275.023 198.966 275.023 198.966L273.968 197.551C273.968 197.551 275.327 196.293 277.522 196.345C279.797 196.399 281.696 197.894 281.643 200.129C281.565 203.451 277.993 203.709 277.936 206.125L277.917 206.951L276.004 206.906ZM275.872 210.811L275.918 208.858L277.911 208.905L277.865 210.858L275.872 210.811Z" fill="white"/>
</g>
<g filter="url(#filter1_d_700_1847)">
<path d="M160.396 291.743C160.512 286.833 160.57 284.378 160.938 282.331C163.009 270.833 172.275 261.994 183.857 260.467C185.919 260.195 188.374 260.253 193.284 260.369L363.949 264.391C378.477 264.733 385.742 264.904 391.265 267.773C396.554 270.521 400.778 274.949 403.273 280.361C405.879 286.013 405.708 293.278 405.365 307.806L404.851 329.652L191.77 324.631C186.86 324.515 184.405 324.457 182.358 324.089C170.861 322.018 162.021 312.752 160.494 301.17C160.223 299.108 160.28 296.653 160.396 291.743Z" fill="white" shape-rendering="crispEdges"/>
<path d="M182.299 299.261L182.634 285.046L184.627 285.093L184.333 297.576L190.695 297.726L190.654 299.458L182.299 299.261ZM191.968 294.392C192.045 291.15 194.289 289.108 197.188 289.176C200.067 289.244 201.547 291.415 201.485 294.052C201.479 294.314 201.405 294.896 201.405 294.896L193.975 294.721C194.023 296.959 195.587 298.124 197.399 298.166C199.151 298.208 200.447 297.05 200.447 297.05L201.219 298.498C201.219 298.498 199.675 299.912 197.239 299.855C194.037 299.779 191.897 297.412 191.968 294.392ZM194.07 293.253L199.507 293.381C199.487 291.628 198.42 290.757 197.111 290.726C195.621 290.691 194.392 291.588 194.07 293.253ZM204.232 296.051L204.344 291.299L203.015 291.268L203.052 289.697L204.441 289.73L204.511 286.791L206.403 286.835L206.334 289.775L208.79 289.833L208.753 291.403L206.297 291.345L206.19 295.875C206.142 297.909 207.566 298.204 208.311 298.222C208.592 298.229 208.775 298.193 208.775 298.193L208.734 299.924C208.734 299.924 208.451 299.958 208.048 299.948C206.74 299.918 204.152 299.454 204.232 296.051ZM210.927 289.258L211.016 285.473L212.567 285.51L212.478 289.295L210.927 289.258ZM214.231 298.764L215.21 297.397C215.21 297.397 216.33 298.612 218.102 298.654C218.947 298.674 219.803 298.251 219.823 297.426C219.867 295.553 214.623 295.812 214.701 292.49C214.745 290.638 216.421 289.63 218.454 289.678C220.689 289.73 221.71 290.882 221.71 290.882L220.89 292.334C220.89 292.334 220.005 291.406 218.394 291.368C217.549 291.349 216.715 291.691 216.694 292.577C216.65 294.41 221.895 294.13 221.816 297.473C221.776 299.164 220.297 300.398 218.062 300.345C215.565 300.287 214.231 298.764 214.231 298.764ZM230.086 302.24C230.086 302.24 231.338 302.955 232.868 302.991C234.64 303.033 236.108 302.282 236.157 300.208L236.175 299.463C236.182 299.141 236.21 298.819 236.21 298.819L236.17 298.818C235.542 299.811 234.582 300.372 233.112 300.338C230.273 300.271 228.616 297.955 228.685 295.016C228.754 292.096 230.436 289.96 233.255 290.026C235.711 290.084 236.42 291.612 236.42 291.612L236.461 291.613C236.461 291.613 236.444 291.471 236.448 291.29L236.47 290.344L238.343 290.388L238.113 300.153C238.033 303.516 235.446 304.744 232.869 304.683C231.641 304.654 230.38 304.282 229.406 303.755L230.086 302.24ZM233.535 298.655C234.944 298.688 236.253 297.873 236.315 295.215C236.378 292.558 235.107 291.762 233.517 291.725C231.745 291.683 230.708 292.948 230.659 295.022C230.609 297.136 231.702 298.612 233.535 298.655ZM240.534 295.516C240.607 292.436 243.116 290.259 246.156 290.33C249.196 290.402 251.6 292.695 251.527 295.775C251.454 298.876 248.945 301.073 245.905 301.002C242.864 300.93 240.461 298.617 240.534 295.516ZM242.527 295.563C242.477 297.698 244.032 299.265 245.944 299.31C247.877 299.356 249.484 297.863 249.534 295.728C249.584 293.614 248.049 292.067 246.116 292.022C244.203 291.977 242.577 293.449 242.527 295.563ZM252.688 302.954L254.034 298.836L256.028 298.883L254.239 302.991L252.688 302.954ZM264.429 301.196L264.764 286.982L266.757 287.029L266.422 301.243L264.429 301.196ZM269.737 290.644L269.827 286.859L271.377 286.896L271.288 290.681L269.737 290.644ZM273.782 298.637L274.052 287.2L276.005 287.246L275.743 298.34C275.714 299.569 276.192 299.802 276.796 299.816C276.978 299.82 277.139 299.804 277.139 299.804L277.098 301.535C277.098 301.535 276.795 301.568 276.453 301.56C275.346 301.534 273.722 301.194 273.782 298.637ZM279.111 298.762L279.38 287.326L281.333 287.372L281.072 298.466C281.043 299.694 281.521 299.927 282.125 299.941C282.306 299.946 282.468 299.929 282.468 299.929L282.427 301.661C282.427 301.661 282.124 301.694 281.782 301.686C280.674 301.66 279.05 301.319 279.111 298.762ZM288.87 300.523L289.849 299.156C289.849 299.156 290.968 300.371 292.74 300.413C293.586 300.433 294.442 300.01 294.461 299.184C294.505 297.312 289.262 297.571 289.34 294.249C289.383 292.397 291.059 291.389 293.093 291.436C295.328 291.489 296.348 292.641 296.348 292.641L295.528 294.093C295.528 294.093 294.643 293.165 293.033 293.127C292.187 293.107 291.353 293.45 291.332 294.336C291.289 296.168 296.533 295.889 296.455 299.231C296.415 300.923 294.935 302.157 292.7 302.104C290.204 302.046 288.87 300.523 288.87 300.523ZM298.691 302.004L299.026 287.789L300.979 287.835L300.856 293.05C300.844 293.533 300.796 293.894 300.796 293.894L300.836 293.895C301.302 292.919 302.621 291.661 304.655 291.709C307.051 291.765 308.127 293.1 308.066 295.698L307.912 302.221L305.959 302.175L306.103 296.094C306.136 294.665 305.861 293.53 304.23 293.492C302.7 293.456 301.407 294.473 300.949 295.933C300.819 296.333 300.768 296.795 300.756 297.278L300.644 302.05L298.691 302.004ZM310.198 297.158C310.271 294.077 312.78 291.9 315.82 291.972C318.86 292.044 321.264 294.336 321.191 297.417C321.118 300.518 318.609 302.715 315.568 302.643C312.528 302.572 310.125 300.259 310.198 297.158ZM312.191 297.205C312.141 299.339 313.696 300.907 315.608 300.952C317.541 300.997 319.148 299.504 319.198 297.37C319.248 295.256 317.713 293.709 315.78 293.663C313.867 293.618 312.241 295.091 312.191 297.205ZM325.481 302.635L322.439 292.37L324.513 292.419L326.458 299.616C326.607 300.143 326.674 300.709 326.695 300.71L326.735 300.711C326.735 300.711 326.849 300.149 327.022 299.629L329.405 292.554L331.197 292.596L333.224 299.776C333.372 300.303 333.48 300.869 333.48 300.869L333.52 300.87C333.52 300.87 333.614 300.309 333.787 299.789L336.09 292.691L338.144 292.74L334.622 302.85L332.467 302.8L330.507 296.206C330.359 295.679 330.252 295.092 330.252 295.092L330.211 295.091C330.211 295.091 330.077 295.672 329.903 296.192L327.655 302.686L325.481 302.635ZM343.442 306.664L344.162 305.191C344.162 305.191 344.715 305.627 345.34 305.641C346.125 305.66 346.803 305.112 347.207 304.195L347.738 303.039L343.707 292.871L345.901 292.923L348.301 299.647C348.49 300.176 348.655 300.885 348.655 300.885L348.695 300.886C348.695 300.886 348.872 300.205 349.066 299.686L351.7 293.059L353.814 293.109L348.759 305.017C348.098 306.573 346.83 307.369 345.4 307.335C344.253 307.308 343.442 306.664 343.442 306.664ZM354.596 298.204C354.668 295.124 357.177 292.947 360.218 293.018C363.258 293.09 365.662 295.383 365.589 298.463C365.516 301.564 363.006 303.761 359.966 303.689C356.926 303.618 354.523 301.305 354.596 298.204ZM356.589 298.251C356.539 300.385 358.093 301.953 360.006 301.998C361.939 302.044 363.545 300.551 363.596 298.416C363.646 296.302 362.111 294.755 360.178 294.71C358.265 294.664 356.639 296.137 356.589 298.251ZM367.73 299.964L367.884 293.441L369.837 293.487L369.693 299.567C369.66 300.977 369.915 302.111 371.546 302.149C373.62 302.198 374.892 300.395 374.939 298.381L375.051 293.61L377.004 293.656L376.764 303.844L374.872 303.799L374.904 302.45C374.913 302.027 374.961 301.706 374.961 301.706L374.921 301.705C374.475 302.702 373.114 303.999 371.121 303.952C368.826 303.898 367.666 302.662 367.73 299.964ZM380.715 300.028L380.817 289.716L382.831 289.764L382.467 300.07L380.715 300.028ZM380.502 303.932L380.548 301.979L382.542 302.026L382.496 303.979L380.502 303.932Z" fill="#181010"/>
<circle cx="191.353" cy="323.891" r="12" transform="rotate(1.34992 191.353 323.891)" fill="#FBF9F9"/>
<g clip-path="url(#clip2_700_1847)">
<path fill-rule="evenodd" clip-rule="evenodd" d="M191.139 316.935C195.005 316.935 198.139 320.069 198.139 323.935C198.139 327.801 195.005 330.935 191.139 330.935C187.273 330.935 184.139 327.801 184.139 323.935C184.139 320.069 187.273 316.935 191.139 316.935Z" fill="#FFDFE0"/>
<path fill-rule="evenodd" clip-rule="evenodd" d="M186.031 321.407C186.045 320.475 187.093 319.61 188.085 320.827C189.077 319.61 190.124 320.475 190.138 321.407C190.138 322.796 188.477 323.935 188.085 323.935C187.692 323.935 186.031 322.796 186.031 321.407ZM194.192 320.827C195.184 319.61 196.231 320.475 196.245 321.407C196.245 322.796 194.584 323.935 194.192 323.935C193.799 323.935 192.138 322.796 192.138 321.407C192.152 320.475 193.2 319.61 194.192 320.827ZM194.413 325.331C194.08 325.241 193.737 325.439 193.647 325.772C193.349 326.879 192.338 327.693 191.139 327.693C189.939 327.693 188.928 326.879 188.63 325.772C188.54 325.439 188.197 325.241 187.864 325.331C187.531 325.421 187.333 325.764 187.423 326.097C187.864 327.736 189.359 328.943 191.139 328.943C192.918 328.943 194.413 327.736 194.854 326.097C194.944 325.764 194.746 325.421 194.413 325.331Z" fill="#EE232A"/>
</g>
</g>
<circle cx="438.883" cy="310.309" r="20.1399" transform="rotate(1.34992 438.883 310.309)" fill="white"/>
<path fill-rule="evenodd" clip-rule="evenodd" d="M433.239 300.438L427.809 310.047L432.781 319.901L444.19 320.17L449.621 310.561L444.649 300.707L433.239 300.438ZM445.87 298.722L432.112 298.397L425.46 309.992L431.559 321.887L445.317 322.211L451.97 310.617L445.87 298.722Z" fill="#0D160B"/>
<path d="M449.62 310.561L451.969 310.617L445.317 322.211L444.19 320.17L449.62 310.561Z" fill="#EE2329"/>
<path d="M427.809 310.047L425.46 309.992L432.113 298.397L433.24 300.439L427.809 310.047Z" fill="#EE2329"/>
<path fill-rule="evenodd" clip-rule="evenodd" d="M442.533 312.074L444.884 312.13L444.845 313.808L436.454 313.61L436.387 316.462L434.709 316.423L434.895 308.537L436.572 308.576L436.493 311.932L440.855 312.035L440.934 308.678L432.546 308.481L432.585 306.803L440.974 307L441.041 304.15L442.719 304.189L442.651 307.04L442.652 307.04L442.613 308.718L442.612 308.718L442.533 312.074Z" fill="#0D160B"/>
<rect x="435.002" y="304.005" width="1.67831" height="1.67831" transform="rotate(1.34992 435.002 304.005)" fill="#EE2329"/>
<rect x="440.788" y="314.887" width="1.67831" height="1.67831" transform="rotate(1.34992 440.788 314.887)" fill="#EE2329"/>
</g>
<defs>
<filter id="filter0_d_700_1847" x="94.6545" y="114.042" width="361.691" height="145.931" filterUnits="userSpaceOnUse" color-interpolation-filters="sRGB">
<feFlood flood-opacity="0" result="BackgroundImageFix"/>
<feColorMatrix in="SourceAlpha" type="matrix" values="0 0 0 0 0 0 0 0 0 0 0 0 0 0 0 0 0 0 127 0" result="hardAlpha"/>
<feOffset dy="6.7133"/>
<feGaussianBlur stdDeviation="6.7133"/>
<feComposite in2="hardAlpha" operator="out"/>
<feColorMatrix type="matrix" values="0 0 0 0 0.0941176 0 0 0 0 0.0627451 0 0 0 0 0.0627451 0 0 0 0.24 0"/>
<feBlend mode="normal" in2="BackgroundImageFix" result="effect1_dropShadow_700_1847"/>
<feBlend mode="normal" in="SourceGraphic" in2="effect1_dropShadow_700_1847" result="shape"/>
</filter>
<filter id="filter1_d_700_1847" x="132.785" y="236.115" width="300.433" height="129.986" filterUnits="userSpaceOnUse" color-interpolation-filters="sRGB">
<feFlood flood-opacity="0" result="BackgroundImageFix"/>
<feColorMatrix in="SourceAlpha" type="matrix" values="0 0 0 0 0 0 0 0 0 0 0 0 0 0 0 0 0 0 127 0" result="hardAlpha"/>
<feOffset dy="3.35665"/>
<feGaussianBlur stdDeviation="13.4266"/>
<feComposite in2="hardAlpha" operator="out"/>
<feColorMatrix type="matrix" values="0 0 0 0 0.0941176 0 0 0 0 0.0627451 0 0 0 0 0.0627451 0 0 0 0.24 0"/>
<feBlend mode="normal" in2="BackgroundImageFix" result="effect1_dropShadow_700_1847"/>
<feBlend mode="normal" in="SourceGraphic" in2="effect1_dropShadow_700_1847" result="shape"/>
</filter>
<radialGradient id="paint0_radial_700_1847" cx="0" cy="0" r="1" gradientUnits="userSpaceOnUse" gradientTransform="translate(251.854 233.354) rotate(42.1719) scale(265.134 224.211)">
<stop stop-color="white" stop-opacity="0.3"/>
<stop offset="1" stop-color="white" stop-opacity="0"/>
</radialGradient>
<clipPath id="clip0_700_1847">
<rect width="515" height="450" fill="white"/>
</clipPath>
<clipPath id="clip1_700_1847">
<rect width="40.2798" height="40.2798" fill="white" transform="translate(55.3398 190.47) rotate(1.34992)"/>
</clipPath>
<clipPath id="clip2_700_1847">
<rect width="14" height="14" fill="white" transform="translate(184.139 316.935)"/>
</clipPath>
</defs>
</svg>
