<svg width="515" height="450" viewBox="0 0 515 450" fill="none" xmlns="http://www.w3.org/2000/svg">
<path d="M510.086 212.209C512.778 216.869 514.124 219.199 514.65 221.676C515.117 223.867 515.117 226.132 514.65 228.324C514.124 230.801 512.778 233.131 510.086 237.79L394.877 437.209C392.185 441.869 390.839 444.199 388.956 445.893C387.29 447.392 385.327 448.525 383.195 449.217C380.785 450 378.093 450 372.709 450L142.291 450C136.907 450 134.215 450 131.805 449.217C129.673 448.525 127.71 447.392 126.044 445.893C124.161 444.199 122.815 441.869 120.123 437.209L4.91442 237.79C2.22246 233.131 0.876455 230.801 0.349599 228.324C-0.116526 226.132 -0.116526 223.867 0.3496 221.676C0.876455 219.199 2.22246 216.869 4.91442 212.209L120.123 12.7903C122.815 8.13062 124.161 5.80081 126.044 4.10638C127.71 2.60715 129.673 1.47463 131.805 0.782256C134.215 -0.000260309 136.907 -0.000260668 142.291 -0.000260432L372.709 -0.00025036C378.093 -0.000250125 380.785 -0.000249531 383.195 0.782267C385.327 1.47464 387.29 2.60716 388.956 4.10639C390.839 5.80082 392.185 8.13064 394.877 12.7903L510.086 212.209Z" fill="#181010"/>
</svg>
