<svg width="515" height="449" viewBox="0 0 515 449" fill="none" xmlns="http://www.w3.org/2000/svg">
<g clip-path="url(#clip0_888_3782)">
<path d="M510.086 211.209C512.778 215.869 514.124 218.199 514.65 220.676C515.117 222.867 515.117 225.133 514.65 227.324C514.124 229.801 512.778 232.131 510.086 236.791L394.877 436.209C392.185 440.869 390.839 443.199 388.956 444.893C387.29 446.393 385.327 447.525 383.195 448.217C380.785 449 378.093 449 372.709 449L142.291 449C136.907 449 134.215 449 131.805 448.217C129.673 447.525 127.71 446.393 126.044 444.893C124.161 443.199 122.815 440.869 120.123 436.209L4.91442 236.79C2.22246 232.131 0.876455 229.801 0.349599 227.324C-0.116526 225.133 -0.116526 222.867 0.3496 220.676C0.876455 218.199 2.22246 215.869 4.91442 211.209L120.123 11.7905C122.815 7.13087 124.161 4.80105 126.044 3.10663C127.71 1.6074 129.673 0.474872 131.805 -0.2175C134.215 -1.00002 136.907 -1.00002 142.291 -1.00002L372.709 -1.00001C378.093 -1.00001 380.785 -1.00001 383.195 -0.217489C385.327 0.474884 387.29 1.60741 388.956 3.10664C390.839 4.80106 392.185 7.13088 394.877 11.7905L510.086 211.209Z" fill="#181010"/>
<path fill-rule="evenodd" clip-rule="evenodd" d="M243.867 -158.293L243.514 -157.939L265.434 -136.02L265.787 -136.373L266.494 -135.666L266.141 -135.312L288.062 -113.392L288.415 -113.745L289.122 -113.038L288.769 -112.685L310.689 -90.7647L311.042 -91.118L311.749 -90.4109L311.396 -90.0576L333.316 -68.1368L333.67 -68.4901L334.377 -67.7829L334.024 -67.4297L355.943 -45.5098L356.297 -45.8631L357.004 -45.156L356.651 -44.8027L378.571 -22.8819L378.925 -23.2352L379.632 -22.5281L379.278 -22.1748L401.198 -0.254943L401.552 -0.608237L402.259 0.0988695L401.905 0.452164L423.826 22.373L424.18 22.0197L424.887 22.7268L424.533 23.0801L446.453 45L446.806 44.6467L447.514 45.3538L447.16 45.7071L469.081 67.6274L469.434 67.2736L470.141 67.9807L469.788 68.3345L491.708 90.2548L492.061 89.9015L492.768 90.6086L492.415 90.9619L514.335 112.882L514.689 112.529L515.396 113.236L515.043 113.589L536.963 135.51L537.316 135.156L538.023 135.864L537.67 136.217L559.59 158.137L559.944 157.783L560.651 158.491L560.298 158.844L582.218 180.765L582.571 180.411L583.278 181.118L582.925 181.472L604.845 203.392L605.199 203.038L605.906 203.745L605.552 204.099L627.473 226.02L627.826 225.666L628.533 226.373L628.18 226.727L650.1 248.647L650.454 248.293L651.161 249L650.807 249.354L672.728 271.274L673.081 270.921L673.788 271.628L309.628 635.788L308.921 635.081L309.981 634.021L288.061 612.1L287.001 613.16L286.294 612.453L287.354 611.393L265.434 589.473L264.373 590.533L263.666 589.826L264.727 588.766L242.806 566.845L241.746 567.905L241.039 567.198L242.099 566.138L220.179 544.218L219.118 545.278L218.411 544.571L219.472 543.511L197.551 521.59L196.491 522.65L195.784 521.943L196.844 520.883L174.924 498.963L173.863 500.024L173.156 499.316L174.217 498.256L152.296 476.336L151.236 477.396L150.529 476.688L151.589 475.628L129.669 453.708L128.608 454.769L127.901 454.062L128.962 453.001L107.042 431.081L105.982 432.141L105.274 431.434L106.334 430.374L84.4141 408.453L83.3536 409.514L82.6465 408.807L83.707 407.746L61.7871 385.826L60.7266 386.887L60.0195 386.18L61.08 385.119L39.1592 363.198L38.0987 364.259L37.3916 363.552L38.4521 362.491L16.5323 340.571L15.4718 341.632L14.7647 340.925L15.8252 339.864L-6.09566 317.943L-7.15618 319.004L-7.86328 318.297L-6.80276 317.236L-28.7226 295.317L-29.7831 296.377L-30.4902 295.67L-29.4297 294.609L-51.3505 272.689L-52.4111 273.749L-53.1182 273.042L-52.0577 271.981L-73.9775 250.062L-75.038 251.122L-75.7451 250.415L-74.6846 249.355L-96.6054 227.434L-97.6659 228.494L-98.373 227.787L-97.3125 226.727L-119.232 204.807L-120.293 205.867L-121 205.16L243.16 -159L243.867 -158.293ZM310.689 633.313L332.609 611.393L310.689 589.472L288.768 611.393L310.689 633.313ZM333.316 610.686L355.236 588.766L333.316 566.845L311.396 588.765L333.316 610.686ZM355.943 588.059L377.864 566.138L355.944 544.217L334.023 566.138L355.943 588.059ZM378.571 565.431L400.491 543.511L378.571 521.59L356.651 543.51L378.571 565.431ZM401.198 542.804L423.119 520.883L401.199 498.963L379.278 520.883L401.198 542.804ZM423.826 520.176L445.746 498.256L423.826 476.336L401.906 498.255L423.826 520.176ZM446.453 497.549L468.374 475.628L446.453 453.708L424.533 475.628L446.453 497.549ZM469.081 474.921L491.001 453.001L469.081 431.081L447.16 453.001L469.081 474.921ZM491.708 452.294L513.628 430.374L491.708 408.453L469.788 430.374L491.708 452.294ZM514.335 429.666L536.256 407.746L514.335 385.826L492.415 407.746L514.335 429.666ZM536.963 407.039L558.883 385.119L536.963 363.198L515.043 385.119L536.963 407.039ZM559.59 384.412L581.511 362.491L559.59 340.571L537.67 362.491L559.59 384.412ZM582.218 361.784L604.138 339.864L582.218 317.943L560.297 339.864L582.218 361.784ZM604.845 339.157L626.766 317.236L604.845 295.316L582.925 317.236L604.845 339.157ZM627.473 316.529L649.393 294.609L627.473 272.689L605.552 294.609L627.473 316.529ZM650.1 293.902L672.021 271.981L650.1 250.061L628.18 271.981L650.1 293.902ZM627.473 227.434L649.393 249.354L627.473 271.274L605.552 249.354L627.473 227.434ZM604.845 250.061L626.766 271.981L604.845 293.902L582.925 271.982L604.845 250.061ZM582.218 272.689L604.138 294.609L582.218 316.529L560.298 294.609L582.218 272.689ZM559.59 295.316L581.511 317.236L559.59 339.157L537.67 317.236L559.59 295.316ZM536.963 317.943L558.883 339.864L536.963 361.784L515.043 339.864L536.963 317.943ZM514.336 340.571L536.256 362.491L514.335 384.412L492.415 362.491L514.336 340.571ZM491.708 363.198L513.628 385.119L491.708 407.039L469.788 385.119L491.708 363.198ZM469.081 385.826L491.001 407.746L469.081 429.666L447.16 407.746L469.081 385.826ZM446.453 408.453L468.373 430.374L446.453 452.294L424.533 430.374L446.453 408.453ZM423.826 431.081L445.746 453.001L423.826 474.921L401.905 453.001L423.826 431.081ZM401.198 453.708L423.119 475.628L401.199 497.548L379.278 475.628L401.198 453.708ZM378.571 476.335L400.492 498.255L378.571 520.176L356.651 498.256L378.571 476.335ZM355.943 498.963L377.864 520.883L355.944 542.803L334.024 520.883L355.943 498.963ZM333.316 521.59L355.237 543.51L333.316 565.431L311.396 543.511L333.316 521.59ZM310.689 544.218L332.609 566.138L310.689 588.058L288.769 566.138L310.689 544.218ZM288.062 566.845L309.982 588.765L288.061 610.686L266.141 588.766L288.062 566.845ZM265.434 588.059L287.354 566.138L265.434 544.217L243.513 566.138L265.434 588.059ZM288.062 565.431L309.981 543.511L288.061 521.59L266.141 543.51L288.062 565.431ZM310.689 542.804L332.609 520.883L310.689 498.963L288.768 520.883L310.689 542.804ZM333.316 520.176L355.236 498.256L333.316 476.336L311.396 498.255L333.316 520.176ZM355.943 497.549L377.864 475.628L355.944 453.708L334.023 475.628L355.943 497.549ZM378.571 474.921L400.491 453.001L378.571 431.081L356.651 453.001L378.571 474.921ZM401.198 452.294L423.119 430.374L401.198 408.453L379.278 430.374L401.198 452.294ZM423.826 429.666L445.746 407.746L423.826 385.826L401.905 407.746L423.826 429.666ZM446.453 407.039L468.374 385.119L446.453 363.198L424.533 385.119L446.453 407.039ZM469.081 384.412L491.001 362.491L469.081 340.571L447.16 362.491L469.081 384.412ZM491.708 361.784L513.628 339.864L491.708 317.943L469.788 339.864L491.708 361.784ZM514.336 339.157L536.256 317.236L514.335 295.316L492.415 317.236L514.336 339.157ZM536.963 316.529L558.883 294.609L536.963 272.689L515.043 294.609L536.963 316.529ZM559.59 293.902L581.511 271.982L559.59 250.061L537.67 271.981L559.59 293.902ZM582.218 271.274L604.138 249.354L582.218 227.434L560.297 249.354L582.218 271.274ZM604.845 248.647L626.766 226.727L604.845 204.806L582.925 226.727L604.845 248.647ZM582.218 182.179L604.138 204.099L582.218 226.02L560.297 204.099L582.218 182.179ZM559.59 204.806L581.511 226.727L559.59 248.647L537.67 226.727L559.59 204.806ZM536.963 227.434L558.883 249.354L536.963 271.274L515.043 249.354L536.963 227.434ZM514.335 250.061L536.256 271.981L514.335 293.902L492.415 271.981L514.335 250.061ZM491.708 272.689L513.628 294.609L491.708 316.529L469.788 294.609L491.708 272.689ZM469.081 295.316L491.001 317.236L469.081 339.157L447.16 317.236L469.081 295.316ZM446.453 317.943L468.373 339.864L446.453 361.784L424.533 339.864L446.453 317.943ZM423.826 340.571L445.746 362.491L423.826 384.412L401.905 362.491L423.826 340.571ZM401.198 363.198L423.119 385.119L401.198 407.039L379.278 385.119L401.198 363.198ZM378.571 385.826L400.491 407.746L378.571 429.666L356.651 407.746L378.571 385.826ZM355.943 408.453L377.864 430.374L355.944 452.293L334.024 430.373L355.943 408.453ZM333.316 431.08L355.237 453.001L333.316 474.921L311.396 453.001L333.316 431.08ZM310.689 453.708L332.609 475.628L310.689 497.548L288.769 475.628L310.689 453.708ZM288.062 476.335L309.982 498.255L288.061 520.176L266.141 498.256L288.062 476.335ZM265.434 498.963L287.354 520.883L265.434 542.803L243.514 520.883L265.434 498.963ZM242.807 521.59L264.727 543.51L242.806 565.431L220.886 543.511L242.807 521.59ZM220.179 542.804L242.1 520.883L220.179 498.963L198.258 520.883L220.179 542.804ZM242.807 520.176L264.727 498.256L242.806 476.336L220.886 498.255L242.807 520.176ZM265.434 497.549L287.354 475.628L265.434 453.708L243.513 475.628L265.434 497.549ZM288.062 474.921L309.981 453.001L288.061 431.081L266.141 453.001L288.062 474.921ZM310.689 452.294L332.609 430.373L310.689 408.453L288.768 430.374L310.689 452.294ZM333.316 429.666L355.236 407.746L333.316 385.826L311.396 407.746L333.316 429.666ZM355.943 407.039L377.864 385.119L355.943 363.198L334.023 385.119L355.943 407.039ZM378.571 384.412L400.491 362.491L378.571 340.571L356.651 362.491L378.571 384.412ZM401.198 361.784L423.119 339.864L401.198 317.943L379.278 339.864L401.198 361.784ZM423.826 339.157L445.746 317.236L423.826 295.316L401.905 317.236L423.826 339.157ZM446.453 316.529L468.374 294.609L446.453 272.689L424.533 294.609L446.453 316.529ZM469.081 293.902L491.001 271.981L469.081 250.061L447.16 271.981L469.081 293.902ZM491.708 271.274L513.628 249.354L491.708 227.434L469.788 249.354L491.708 271.274ZM514.335 248.647L536.256 226.727L514.335 204.806L492.415 226.727L514.335 248.647ZM536.963 226.02L558.883 204.099L536.963 182.179L515.043 204.099L536.963 226.02ZM559.59 203.392L581.511 181.472L559.59 159.551L537.67 181.472L559.59 203.392ZM536.963 136.924L558.883 158.844L536.963 180.765L515.043 158.844L536.963 136.924ZM514.335 159.551L536.256 181.472L514.335 203.392L492.415 181.472L514.335 159.551ZM491.708 182.179L513.628 204.099L491.708 226.02L469.788 204.099L491.708 182.179ZM469.081 204.806L491.001 226.727L469.081 248.647L447.16 226.727L469.081 204.806ZM446.453 227.434L468.374 249.354L446.453 271.274L424.533 249.354L446.453 227.434ZM423.826 250.061L445.746 271.981L423.826 293.902L401.905 271.982L423.826 250.061ZM401.198 272.689L423.119 294.609L401.198 316.529L379.278 294.609L401.198 272.689ZM378.571 295.316L400.491 317.236L378.571 339.157L356.651 317.236L378.571 295.316ZM355.943 317.943L377.864 339.864L355.943 361.784L334.023 339.864L355.943 317.943ZM333.316 340.571L355.236 362.491L333.316 384.412L311.396 362.491L333.316 340.571ZM310.689 363.198L332.609 385.119L310.689 407.039L288.769 385.118L310.689 363.198ZM288.062 385.825L309.982 407.746L288.061 429.666L266.141 407.746L288.062 385.825ZM265.434 408.453L287.354 430.374L265.434 452.293L243.514 430.373L265.434 408.453ZM242.807 431.08L264.727 453.001L242.806 474.921L220.886 453.001L242.807 431.08ZM220.179 453.708L242.099 475.628L220.179 497.548L198.259 475.628L220.179 453.708ZM197.552 476.335L219.472 498.255L197.551 520.176L175.631 498.256L197.552 476.335ZM174.924 497.549L196.845 475.628L174.924 453.708L153.004 475.628L174.924 497.549ZM197.552 474.921L219.472 453.001L197.551 431.081L175.631 453.001L197.552 474.921ZM220.179 452.294L242.1 430.373L220.179 408.453L198.258 430.374L220.179 452.294ZM242.807 429.666L264.727 407.746L242.806 385.826L220.886 407.746L242.807 429.666ZM265.434 407.039L287.354 385.118L265.434 363.198L243.513 385.119L265.434 407.039ZM288.062 384.411L309.981 362.491L288.061 340.571L266.141 362.491L288.062 384.411ZM310.689 361.784L332.609 339.864L310.689 317.943L288.768 339.864L310.689 361.784ZM333.316 339.157L355.236 317.236L333.316 295.316L311.396 317.236L333.316 339.157ZM355.943 316.529L377.864 294.609L355.943 272.689L334.023 294.609L355.943 316.529ZM378.571 293.902L400.491 271.982L378.571 250.061L356.65 271.981L378.571 293.902ZM401.198 271.274L423.119 249.354L401.198 227.434L379.278 249.354L401.198 271.274ZM423.826 248.647L445.746 226.727L423.826 204.806L401.905 226.727L423.826 248.647ZM446.453 226.02L468.374 204.099L446.453 182.179L424.533 204.099L446.453 226.02ZM469.081 203.392L491.001 181.472L469.081 159.551L447.16 181.472L469.081 203.392ZM491.708 180.765L513.628 158.844L491.708 136.924L469.788 158.844L491.708 180.765ZM514.335 158.137L536.256 136.217L514.335 114.296L492.415 136.217L514.335 158.137ZM491.708 91.669L513.628 113.589L491.708 135.51L469.788 113.589L491.708 91.669ZM469.081 114.297L491.001 136.217L469.081 158.137L447.16 136.217L469.081 114.297ZM446.453 136.924L468.373 158.844L446.453 180.765L424.533 158.844L446.453 136.924ZM423.826 159.551L445.746 181.472L423.826 203.392L401.905 181.472L423.826 159.551ZM401.198 182.179L423.119 204.099L401.198 226.019L379.278 204.099L401.198 182.179ZM378.571 204.806L400.491 226.727L378.571 248.647L356.65 226.727L378.571 204.806ZM355.943 227.434L377.864 249.354L355.943 271.274L334.023 249.354L355.943 227.434ZM333.316 250.061L355.236 271.981L333.316 293.902L311.396 271.981L333.316 250.061ZM310.689 272.689L332.609 294.609L310.689 316.529L288.768 294.609L310.689 272.689ZM288.061 295.316L309.981 317.236L288.061 339.157L266.141 317.236L288.061 295.316ZM265.434 317.943L287.354 339.864L265.434 361.784L243.514 339.863L265.434 317.943ZM242.807 340.57L264.727 362.491L242.806 384.412L220.886 362.491L242.807 340.57ZM220.179 363.198L242.099 385.119L220.179 407.039L198.259 385.118L220.179 363.198ZM197.552 385.825L219.472 407.746L197.551 429.666L175.631 407.746L197.552 385.825ZM174.924 408.453L196.844 430.374L174.924 452.293L153.004 430.373L174.924 408.453ZM152.297 431.08L174.217 453.001L152.296 474.921L130.376 453.001L152.297 431.08ZM129.669 452.294L151.59 430.373L129.669 408.453L107.749 430.374L129.669 452.294ZM152.297 429.666L174.217 407.746L152.296 385.826L130.377 407.746L152.297 429.666ZM174.924 407.039L196.845 385.118L174.924 363.198L153.004 385.119L174.924 407.039ZM197.552 384.411L219.472 362.491L197.551 340.571L175.631 362.491L197.552 384.411ZM220.179 361.784L242.1 339.863L220.179 317.943L198.258 339.864L220.179 361.784ZM242.807 339.156L264.727 317.236L242.806 295.316L220.886 317.236L242.807 339.156ZM265.434 316.529L287.354 294.609L265.434 272.689L243.513 294.609L265.434 316.529ZM288.061 293.902L309.981 271.981L288.061 250.061L266.141 271.981L288.061 293.902ZM310.689 271.274L332.609 249.354L310.689 227.434L288.768 249.354L310.689 271.274ZM333.316 248.647L355.236 226.727L333.316 204.806L311.396 226.727L333.316 248.647ZM355.943 226.02L377.864 204.099L355.943 182.179L334.023 204.099L355.943 226.02ZM378.571 203.392L400.491 181.472L378.571 159.551L356.651 181.472L378.571 203.392ZM401.198 180.765L423.119 158.844L401.198 136.924L379.278 158.844L401.198 180.765ZM423.826 158.137L445.746 136.217L423.826 114.297L401.905 136.217L423.826 158.137ZM446.453 135.51L468.373 113.589L446.453 91.6691L424.533 113.589L446.453 135.51ZM469.081 112.882L491.001 90.9619L469.081 69.0416L447.16 90.962L469.081 112.882ZM446.453 46.4142L468.374 68.3345L446.453 90.2549L424.533 68.3345L446.453 46.4142ZM423.826 69.0416L445.746 90.962L423.826 112.882L401.905 90.962L423.826 69.0416ZM401.198 91.6691L423.119 113.589L401.198 135.51L379.278 113.589L401.198 91.6691ZM378.571 114.297L400.491 136.217L378.571 158.137L356.651 136.217L378.571 114.297ZM355.943 136.924L377.864 158.844L355.943 180.765L334.023 158.844L355.943 136.924ZM333.316 159.551L355.236 181.472L333.316 203.392L311.396 181.472L333.316 159.551ZM310.689 182.179L332.609 204.099L310.689 226.02L288.768 204.099L310.689 182.179ZM288.061 204.806L309.981 226.727L288.061 248.647L266.141 226.727L288.061 204.806ZM265.434 227.434L287.354 249.354L265.434 271.274L243.513 249.354L265.434 227.434ZM242.806 250.061L264.727 271.981L242.806 293.902L220.886 271.981L242.806 250.061ZM220.179 272.689L242.099 294.609L220.179 316.529L198.259 294.608L220.179 272.689ZM197.552 295.316L219.472 317.236L197.551 339.157L175.631 317.236L197.552 295.316ZM174.924 317.943L196.844 339.864L174.924 361.784L153.004 339.863L174.924 317.943ZM152.297 340.57L174.217 362.491L152.296 384.412L130.376 362.491L152.297 340.57ZM129.669 363.198L151.589 385.119L129.669 407.039L107.749 385.118L129.669 363.198ZM107.042 385.825L128.962 407.746L107.042 429.666L85.1212 407.746L107.042 385.825ZM84.4141 407.039L106.335 385.118L84.4151 363.198L62.4942 385.119L84.4141 407.039ZM107.042 384.411L128.962 362.491L107.042 340.571L85.1222 362.491L107.042 384.411ZM129.669 361.784L151.59 339.863L129.67 317.943L107.749 339.864L129.669 361.784ZM152.297 339.156L174.217 317.236L152.297 295.317L130.377 317.236L152.297 339.156ZM174.924 316.529L196.845 294.608L174.925 272.689L153.004 294.609L174.924 316.529ZM197.552 293.901L219.472 271.981L197.552 250.062L175.632 271.981L197.552 293.901ZM220.179 271.274L242.099 249.354L220.179 227.434L198.259 249.355L220.179 271.274ZM242.806 248.647L264.727 226.727L242.807 204.807L220.886 226.727L242.806 248.647ZM265.434 226.02L287.354 204.099L265.434 182.179L243.514 204.1L265.434 226.02ZM288.061 203.392L309.981 181.472L288.062 159.552L266.141 181.472L288.061 203.392ZM310.689 180.765L332.609 158.844L310.689 136.924L288.769 158.845L310.689 180.765ZM333.316 158.137L355.236 136.217L333.316 114.297L311.396 136.217L333.316 158.137ZM355.943 135.51L377.864 113.589L355.944 91.6695L334.024 113.59L355.943 135.51ZM378.571 112.882L400.491 90.962L378.571 69.0421L356.651 90.9624L378.571 112.882ZM401.198 90.2549L423.119 68.3345L401.199 46.4147L379.278 68.335L401.198 90.2549ZM423.826 67.6274L445.746 45.7071L423.826 23.7872L401.906 45.7076L423.826 67.6274ZM401.198 1.15927L423.119 23.0801L401.199 45.0005L379.278 23.0796L401.198 1.15927ZM378.571 23.7867L400.492 45.7076L378.571 67.6279L356.65 45.7071L378.571 23.7867ZM355.943 46.4142L377.864 68.335L355.944 90.2553L334.023 68.3345L355.943 46.4142ZM333.316 69.0416L355.237 90.9624L333.316 112.883L311.396 90.9619L333.316 69.0416ZM310.689 91.669L332.609 113.59L310.689 135.51L288.768 113.589L310.689 91.669ZM288.061 114.296L309.982 136.217L288.062 158.138L266.141 136.217L288.061 114.296ZM265.434 136.924L287.354 158.845L265.434 180.765L243.513 158.844L265.434 136.924ZM242.806 159.551L264.727 181.472L242.807 203.393L220.886 181.472L242.806 159.551ZM220.179 182.179L242.1 204.1L220.179 226.02L198.258 204.099L220.179 182.179ZM197.551 204.806L219.472 226.727L197.552 248.647L175.631 226.727L197.551 204.806ZM174.924 227.434L196.845 249.355L174.925 271.274L153.004 249.354L174.924 227.434ZM152.297 250.061L174.218 271.981L152.297 293.902L130.376 271.981L152.297 250.061ZM129.669 272.689L151.59 294.609L129.67 316.529L107.749 294.608L129.669 272.689ZM107.042 295.316L128.963 317.236L107.042 339.157L85.1212 317.236L107.042 295.316ZM84.4141 317.943L106.335 339.864L84.4151 361.784L62.4942 339.863L84.4141 317.943ZM61.7871 340.57L83.708 362.491L61.7871 384.412L39.8663 362.491L61.7871 340.57ZM39.1592 361.784L61.08 339.863L39.1602 317.943L17.2394 339.864L39.1592 361.784ZM61.7871 339.156L83.707 317.236L61.7871 295.317L39.8673 317.236L61.7871 339.156ZM84.4141 316.529L106.335 294.608L84.4151 272.689L62.4943 294.609L84.4141 316.529ZM107.042 293.901L128.962 271.981L107.042 250.062L85.1222 271.981L107.042 293.901ZM129.669 271.274L151.59 249.354L129.67 227.434L107.749 249.355L129.669 271.274ZM152.297 248.646L174.217 226.727L152.297 204.807L130.377 226.727L152.297 248.646ZM174.924 226.019L196.844 204.099L174.924 182.179L153.004 204.1L174.924 226.019ZM197.551 203.392L219.472 181.472L197.552 159.552L175.631 181.472L197.551 203.392ZM220.179 180.765L242.099 158.844L220.179 136.924L198.259 158.845L220.179 180.765ZM242.806 158.137L264.727 136.217L242.807 114.297L220.886 136.217L242.806 158.137ZM265.434 135.51L287.354 113.589L265.434 91.6695L243.514 113.59L265.434 135.51ZM288.061 112.882L309.981 90.9619L288.062 69.0421L266.141 90.9624L288.061 112.882ZM310.689 90.2548L332.609 68.3345L310.689 46.4147L288.769 68.335L310.689 90.2548ZM333.316 67.6274L355.236 45.7071L333.316 23.7872L311.396 45.7076L333.316 67.6274ZM355.943 45L377.864 23.0796L355.944 1.15979L334.024 23.0801L355.943 45ZM378.571 22.3725L400.491 0.452164L378.571 -21.4677L356.651 0.452682L378.571 22.3725ZM355.943 -44.0956L377.864 -22.1748L355.944 -0.254425L334.023 -22.1753L355.943 -44.0956ZM333.316 -21.4681L355.237 0.452682L333.316 22.373L311.396 0.452186L333.316 -21.4681ZM310.689 1.15929L332.609 23.0801L310.689 45.0005L288.768 23.0796L310.689 1.15929ZM288.061 23.7867L309.982 45.7076L288.062 67.6279L266.141 45.7071L288.061 23.7867ZM265.434 46.4142L287.354 68.335L265.434 90.2553L243.513 68.3345L265.434 46.4142ZM242.806 69.0416L264.727 90.9624L242.807 112.883L220.886 90.962L242.806 69.0416ZM220.179 91.6691L242.1 113.59L220.179 135.51L198.258 113.589L220.179 91.6691ZM197.551 114.297L219.472 136.217L197.552 158.138L175.631 136.217L197.551 114.297ZM174.924 136.924L196.845 158.845L174.924 180.765L153.004 158.844L174.924 136.924ZM152.296 159.551L174.217 181.472L152.297 203.393L130.376 181.472L152.296 159.551ZM129.669 182.179L151.59 204.1L129.67 226.019L107.749 204.099L129.669 182.179ZM107.042 204.806L128.963 226.727L107.042 248.647L85.1212 226.727L107.042 204.806ZM84.4141 227.434L106.335 249.355L84.4151 271.274L62.4942 249.354L84.4141 227.434ZM61.7871 250.061L83.708 271.981L61.7871 293.902L39.8663 271.981L61.7871 250.061ZM39.1592 272.689L61.08 294.609L39.1602 316.529L17.2394 294.608L39.1592 272.689ZM16.5323 295.316L38.4531 317.236L16.5323 339.157L-5.38855 317.236L16.5323 295.316ZM-6.09566 316.529L15.8252 294.608L-6.09468 272.689L-28.0155 294.609L-6.09566 316.529ZM16.5323 293.901L38.4521 271.981L16.5323 250.062L-5.38757 271.981L16.5323 293.901ZM39.1592 271.274L61.08 249.354L39.1602 227.434L17.2394 249.355L39.1592 271.274ZM61.7871 248.646L83.707 226.727L61.7872 204.807L39.8673 226.727L61.7871 248.646ZM84.4141 226.019L106.335 204.099L84.4151 182.179L62.4943 204.1L84.4141 226.019ZM107.042 203.392L128.962 181.472L107.042 159.552L85.1222 181.472L107.042 203.392ZM129.669 180.765L151.589 158.844L129.669 136.924L107.749 158.845L129.669 180.765ZM152.296 158.137L174.217 136.217L152.297 114.297L130.377 136.217L152.296 158.137ZM174.924 135.51L196.844 113.589L174.924 91.6696L153.004 113.59L174.924 135.51ZM197.551 112.882L219.472 90.962L197.552 69.0421L175.631 90.9625L197.551 112.882ZM220.179 90.2549L242.099 68.3345L220.179 46.4147L198.259 68.335L220.179 90.2549ZM242.806 67.6274L264.727 45.7071L242.807 23.7872L220.886 45.7076L242.806 67.6274ZM265.434 45L287.354 23.0796L265.434 1.15979L243.514 23.0801L265.434 45ZM288.061 22.3725L309.981 0.452186L288.062 -21.4676L266.141 0.452682L288.061 22.3725ZM310.689 -0.254921L332.609 -22.1753L310.689 -44.0951L288.769 -22.1748L310.689 -0.254921ZM333.316 -22.8824L355.236 -44.8027L333.316 -66.7225L311.396 -44.8022L333.316 -22.8824ZM310.689 -89.3505L332.609 -67.4297L310.689 -45.5093L288.768 -67.4301L310.689 -89.3505ZM288.061 -66.723L309.982 -44.8022L288.062 -22.8819L266.141 -44.8027L288.061 -66.723ZM265.434 -44.0956L287.354 -22.1748L265.434 -0.254425L243.513 -22.1753L265.434 -44.0956ZM242.806 -21.4682L264.727 0.452682L242.807 22.373L220.886 0.45218L242.806 -21.4682ZM220.179 1.15929L242.1 23.0801L220.179 45.0005L198.258 23.0796L220.179 1.15929ZM197.551 23.7867L219.472 45.7076L197.552 67.6279L175.631 45.7071L197.551 23.7867ZM174.924 46.4142L196.845 68.335L174.924 90.2553L153.004 68.3345L174.924 46.4142ZM152.296 69.0416L174.217 90.9625L152.297 112.883L130.376 90.962L152.296 69.0416ZM129.669 91.6691L151.59 113.59L129.669 135.51L107.749 113.589L129.669 91.6691ZM107.042 114.296L128.962 136.217L107.042 158.138L85.1212 136.217L107.042 114.296ZM84.4141 136.924L106.335 158.845L84.4151 180.765L62.4943 158.844L84.4141 136.924ZM61.7871 159.551L83.708 181.472L61.7872 203.393L39.8663 181.472L61.7871 159.551ZM39.1592 182.179L61.08 204.1L39.1602 226.02L17.2394 204.099L39.1592 182.179ZM16.5323 204.806L38.4531 226.727L16.5323 248.647L-5.38856 226.727L16.5323 204.806ZM-6.09567 227.434L15.8252 249.355L-6.09468 271.274L-28.0155 249.354L-6.09567 227.434ZM-28.7226 250.061L-6.80179 271.981L-28.7226 293.902L-50.6434 271.981L-28.7226 250.061ZM-51.3505 271.274L-29.4297 249.354L-51.3496 227.434L-73.2704 249.355L-51.3505 271.274ZM-28.7226 248.646L-6.80277 226.727L-28.7226 204.807L-50.6425 226.727L-28.7226 248.646ZM-6.09567 226.019L15.8252 204.099L-6.09469 182.179L-28.0155 204.1L-6.09567 226.019ZM16.5323 203.392L38.4521 181.472L16.5323 159.552L-5.38758 181.472L16.5323 203.392ZM39.1592 180.765L61.08 158.844L39.1602 136.924L17.2394 158.845L39.1592 180.765ZM61.7871 158.137L83.707 136.217L61.7871 114.297L39.8673 136.217L61.7871 158.137ZM84.4141 135.51L106.334 113.589L84.4146 91.6695L62.4943 113.59L84.4141 135.51ZM107.042 112.882L128.962 90.962L107.042 69.0421L85.1217 90.9624L107.042 112.882ZM129.669 90.2548L151.589 68.3345L129.669 46.4147L107.749 68.335L129.669 90.2548ZM152.296 67.6274L174.217 45.7071L152.297 23.7872L130.377 45.7076L152.296 67.6274ZM174.924 45L196.844 23.0796L174.924 1.15977L153.004 23.0801L174.924 45ZM197.551 22.3725L219.472 0.45218L197.552 -21.4677L175.631 0.452666L197.551 22.3725ZM220.179 -0.254927L242.099 -22.1753L220.179 -44.0951L198.259 -22.1748L220.179 -0.254927ZM242.806 -22.8824L264.727 -44.8027L242.807 -66.7225L220.886 -44.8022L242.806 -22.8824ZM265.434 -45.5098L287.354 -67.4301L265.434 -89.35L243.514 -67.4296L265.434 -45.5098ZM288.061 -68.1372L309.981 -90.0576L288.062 -111.977L266.141 -90.0571L288.061 -68.1372ZM265.434 -134.605L287.354 -112.685L265.434 -90.7642L243.513 -112.685L265.434 -134.605ZM242.806 -111.978L264.727 -90.0571L242.807 -68.1368L220.886 -90.0576L242.806 -111.978ZM220.179 -89.3505L242.1 -67.4296L220.179 -45.5093L198.258 -67.4301L220.179 -89.3505ZM197.551 -66.723L219.472 -44.8022L197.552 -22.8819L175.631 -44.8027L197.551 -66.723ZM174.924 -44.0956L196.845 -22.1748L174.924 -0.254441L153.004 -22.1753L174.924 -44.0956ZM152.296 -21.4682L174.217 0.452666L152.297 22.373L130.376 0.452196L152.296 -21.4682ZM129.669 1.1593L151.59 23.0801L129.669 45.0005L107.749 23.0796L129.669 1.1593ZM107.042 23.7867L128.962 45.7076L107.042 67.6279L85.1212 45.7071L107.042 23.7867ZM84.4141 46.4142L106.335 68.335L84.4146 90.2553L62.4938 68.3345L84.4141 46.4142ZM61.7867 69.0416L83.7075 90.9624L61.7871 112.883L39.8663 90.9619L61.7867 69.0416ZM39.1592 91.6691L61.08 113.59L39.1602 135.51L17.2394 113.589L39.1592 91.6691ZM16.5323 114.296L38.4531 136.217L16.5323 158.138L-5.38856 136.217L16.5323 114.296ZM-6.09567 136.924L15.8252 158.845L-6.09469 180.765L-28.0155 158.844L-6.09567 136.924ZM-28.7226 159.551L-6.8018 181.472L-28.7226 203.393L-50.6434 181.472L-28.7226 159.551ZM-51.3505 182.179L-29.4297 204.1L-51.3496 226.019L-73.2704 204.099L-51.3505 182.179ZM-73.9775 204.806L-52.0567 226.727L-73.9775 248.647L-95.8983 226.727L-73.9775 204.806ZM-96.6054 226.019L-74.6846 204.099L-96.6045 182.179L-118.525 204.1L-96.6054 226.019ZM-73.9775 203.392L-52.0577 181.472L-73.9775 159.552L-95.8973 181.472L-73.9775 203.392ZM-51.3505 180.765L-29.4297 158.844L-51.3496 136.924L-73.2704 158.845L-51.3505 180.765ZM-28.7226 158.137L-6.80277 136.217L-28.7226 114.297L-50.6425 136.217L-28.7226 158.137ZM-6.09567 135.51L15.8252 113.589L-6.09469 91.6691L-28.0155 113.59L-6.09567 135.51ZM16.5323 112.882L38.4521 90.9619L16.5323 69.0421L-5.38758 90.9619L16.5323 112.882ZM39.1592 90.2548L61.0796 68.3345L39.1597 46.4147L17.2394 68.335L39.1592 90.2548ZM61.7867 67.6274L83.707 45.7071L61.7871 23.7872L39.8668 45.7076L61.7867 67.6274ZM84.4141 45L106.334 23.0796L84.4146 1.15979L62.4942 23.0801L84.4141 45ZM107.042 22.3725L128.962 0.452196L107.042 -21.4676L85.1217 0.452682L107.042 22.3725ZM129.669 -0.25491L151.589 -22.1753L129.669 -44.0951L107.749 -22.1748L129.669 -0.25491ZM152.296 -22.8824L174.217 -44.8027L152.297 -66.7225L130.377 -44.8022L152.296 -22.8824ZM174.924 -45.5098L196.844 -67.4301L174.924 -89.35L153.004 -67.4297L174.924 -45.5098ZM197.551 -68.1372L219.472 -90.0576L197.552 -111.977L175.631 -90.0571L197.551 -68.1372ZM220.179 -90.7647L242.099 -112.685L220.179 -134.605L198.259 -112.685L220.179 -90.7647ZM242.806 -113.392L264.727 -135.312L242.807 -157.232L220.886 -135.312L242.806 -113.392Z" fill="url(#paint0_radial_888_3782)" fill-opacity="0.4"/>
<rect x="170.586" y="62.5856" width="172.829" height="318.829" rx="12.4144" fill="white"/>
<rect x="170.586" y="62.5856" width="172.829" height="318.829" rx="12.4144" stroke="#A38F8F" stroke-width="0.828803"/>
<mask id="path-4-inside-1_888_3782" fill="white">
<path d="M171 75C171 68.3726 176.373 63 183 63H331C337.627 63 343 68.3726 343 75V103H171V75Z"/>
</mask>
<path d="M171 75C171 68.3726 176.373 63 183 63H331C337.627 63 343 68.3726 343 75V103H171V75Z" fill="#FBF9F9"/>
<path d="M171 63H343H171ZM343 104H171V102H343V104ZM171 103V63V103ZM343 63V103V63Z" fill="#EAE1E1" mask="url(#path-4-inside-1_888_3782)"/>
<g clip-path="url(#clip1_888_3782)">
<ellipse cx="189" cy="85" rx="8.00018" ry="8" fill="#A38F8F"/>
<mask id="mask0_888_3782" style="mask-type:alpha" maskUnits="userSpaceOnUse" x="183" y="80" width="12" height="11">
<rect width="10.4" height="10.3998" transform="matrix(1 0 -1.06328e-06 1 183.601 80)" fill="#D9D9D9"/>
</mask>
<g mask="url(#mask0_888_3782)">
<path d="M188.801 87.5817C189.184 87.5817 189.547 87.4987 189.89 87.3326C190.233 87.1665 190.509 86.9245 190.719 86.6068C190.798 86.484 190.809 86.363 190.751 86.2439C190.693 86.1247 190.599 86.0651 190.469 86.0651C190.412 86.0651 190.359 86.0778 190.312 86.103C190.265 86.1283 190.227 86.1662 190.199 86.2168C190.032 86.4407 189.827 86.6158 189.581 86.7422C189.336 86.8686 189.076 86.9318 188.801 86.9318C188.527 86.9318 188.267 86.8686 188.021 86.7422C187.776 86.6158 187.57 86.4407 187.404 86.2168C187.367 86.1662 187.326 86.1283 187.279 86.103C187.232 86.0778 187.18 86.0651 187.122 86.0651C186.992 86.0651 186.898 86.1229 186.84 86.2384C186.782 86.354 186.793 86.4695 186.873 86.5851C187.082 86.9101 187.358 87.1574 187.702 87.3272C188.045 87.4969 188.411 87.5817 188.801 87.5817ZM190.318 84.7651C190.498 84.7651 190.652 84.702 190.778 84.5756C190.905 84.4492 190.968 84.2957 190.968 84.1152C190.968 83.9346 190.905 83.7811 190.778 83.6548C190.652 83.5284 190.498 83.4652 190.318 83.4652C190.137 83.4652 189.984 83.5284 189.857 83.6548C189.731 83.7811 189.668 83.9346 189.668 84.1152C189.668 84.2957 189.731 84.4492 189.857 84.5756C189.984 84.702 190.137 84.7651 190.318 84.7651ZM187.284 84.7651C187.465 84.7651 187.618 84.702 187.745 84.5756C187.871 84.4492 187.934 84.2957 187.934 84.1152C187.934 83.9346 187.871 83.7811 187.745 83.6548C187.618 83.5284 187.465 83.4652 187.284 83.4652C187.104 83.4652 186.95 83.5284 186.824 83.6548C186.698 83.7811 186.634 83.9346 186.634 84.1152C186.634 84.2957 186.698 84.4492 186.824 84.5756C186.95 84.702 187.104 84.7651 187.284 84.7651ZM188.801 89.5317C188.202 89.5317 187.638 89.418 187.111 89.1905C186.584 88.963 186.125 88.6542 185.735 88.2642C185.345 87.8742 185.037 87.4156 184.809 86.8884C184.582 86.3612 184.468 85.7979 184.468 85.1985C184.468 84.599 184.582 84.0357 184.809 83.5085C185.037 82.9813 185.345 82.5227 185.735 82.1327C186.125 81.7427 186.584 81.434 187.111 81.2065C187.638 80.979 188.202 80.8652 188.801 80.8652C189.401 80.8652 189.964 80.979 190.491 81.2065C191.018 81.434 191.477 81.7427 191.867 82.1327C192.257 82.5227 192.566 82.9813 192.793 83.5085C193.021 84.0357 193.134 84.599 193.134 85.1985C193.134 85.7979 193.021 86.3612 192.793 86.8884C192.566 87.4156 192.257 87.8742 191.867 88.2642C191.477 88.6542 191.018 88.963 190.491 89.1905C189.964 89.418 189.401 89.5317 188.801 89.5317Z" fill="#EAE1E1"/>
</g>
</g>
<path d="M229 63H285V67C285 71.4183 281.418 75 277 75H237C232.582 75 229 71.4183 229 67V63Z" fill="#181010"/>
<rect x="203" y="369" width="108" height="4" rx="2" fill="#A38F8F"/>
<circle cx="97.3223" cy="291.994" r="9" fill="#FFF1F1"/>
<path d="M94.6135 290.359C95.1496 290.372 95.5945 289.947 95.6071 289.411C95.6198 288.875 95.1954 288.43 94.6592 288.418C94.1231 288.405 93.6782 288.829 93.6656 289.366C93.653 289.902 94.0773 290.347 94.6135 290.359Z" fill="#EE232A"/>
<path d="M100.398 290.496C100.934 290.508 101.379 290.084 101.391 289.548C101.404 289.012 100.98 288.567 100.443 288.554C99.9073 288.541 99.4624 288.966 99.4498 289.502C99.4371 290.038 99.8615 290.483 100.398 290.496Z" fill="#EE232A"/>
<path d="M97.3522 297.789C99.8541 297.848 101.93 295.868 101.989 293.366L92.9287 293.152C92.8698 295.654 94.8502 297.73 97.3522 297.789Z" fill="#EE232A"/>
<g filter="url(#filter0_d_888_3782)">
<path d="M115.183 264.577C115.336 258.085 115.413 254.838 116.695 252.37C117.923 250.007 119.901 248.119 122.32 247.004C124.846 245.84 128.092 245.916 134.585 246.069L267.404 249.199C273.896 249.352 277.143 249.429 279.611 250.711C281.974 251.938 283.862 253.917 284.977 256.336C286.141 258.862 286.065 262.108 285.912 268.6L285.486 286.675C285.333 293.168 285.256 296.414 283.974 298.883C282.746 301.246 280.768 303.134 278.349 304.249C275.823 305.413 272.577 305.337 266.084 305.184L114.31 301.607L115.183 264.577Z" fill="#EE232A" shape-rendering="crispEdges"/>
<path d="M126.139 264.875L126.306 257.817L127.295 257.841L127.222 260.94L130.881 261.026L130.954 257.927L131.944 257.95L131.778 265.008L130.788 264.985L130.861 261.886L127.202 261.8L127.129 264.899L126.139 264.875ZM133.206 262.511C133.243 260.902 134.358 259.888 135.797 259.922C137.227 259.955 137.962 261.033 137.931 262.342C137.928 262.472 137.891 262.762 137.891 262.762L134.202 262.675C134.226 263.786 135.002 264.364 135.902 264.385C136.772 264.406 137.416 263.831 137.416 263.831L137.799 264.55C137.799 264.55 137.032 265.252 135.822 265.224C134.233 265.186 133.17 264.011 133.206 262.511ZM134.249 261.946L136.948 262.009C136.939 261.139 136.409 260.706 135.759 260.691C135.019 260.673 134.409 261.119 134.249 261.946ZM138.289 266.952L138.647 266.22C138.647 266.22 138.922 266.437 139.231 266.444C139.621 266.453 139.958 266.181 140.159 265.726L140.422 265.152L138.421 260.103L139.51 260.129L140.702 263.468C140.796 263.73 140.878 264.082 140.878 264.082L140.898 264.083C140.898 264.083 140.986 263.745 141.082 263.487L142.389 260.197L143.439 260.222L140.929 266.134C140.601 266.907 139.971 267.302 139.262 267.285C138.692 267.272 138.289 266.952 138.289 266.952ZM146.905 265.365L147.071 258.307L148.061 258.33L147.988 261.429L151.647 261.515L151.72 258.416L152.71 258.44L152.543 265.498L151.554 265.474L151.627 262.375L147.968 262.289L147.895 265.388L146.905 265.365ZM153.971 263.001C154.009 261.391 155.123 260.377 156.563 260.411C157.993 260.445 158.727 261.522 158.697 262.832C158.693 262.962 158.657 263.251 158.657 263.251L154.968 263.164C154.992 264.275 155.768 264.853 156.668 264.875C157.538 264.895 158.181 264.32 158.181 264.32L158.565 265.039C158.565 265.039 157.798 265.741 156.588 265.713C154.999 265.675 153.936 264.5 153.971 263.001ZM155.015 262.435L157.714 262.499C157.705 261.628 157.175 261.196 156.525 261.18C155.785 261.163 155.174 261.608 155.015 262.435ZM161.643 263.741L161.623 263.741C161.623 263.741 161.539 263.899 161.466 264.017L160.367 265.682L159.267 265.656L161.048 263.097L159.476 260.6L160.586 260.626L161.489 262.187C161.566 262.319 161.652 262.491 161.652 262.491L161.672 262.492C161.672 262.492 161.766 262.324 161.849 262.196L162.825 260.678L163.935 260.705L162.247 263.126L163.906 265.765L162.806 265.739L161.786 264.025C161.719 263.903 161.643 263.741 161.643 263.741ZM164.515 263.249C164.55 261.749 165.697 260.626 167.287 260.664C168.556 260.694 169.169 261.448 169.169 261.448L168.693 262.117C168.693 262.117 168.167 261.525 167.307 261.504C166.287 261.48 165.529 262.223 165.505 263.262C165.481 264.292 166.202 265.099 167.252 265.124C168.191 265.146 168.827 264.481 168.827 264.481L169.2 265.2C169.2 265.2 168.481 265.993 167.162 265.962C165.572 265.925 164.479 264.769 164.515 263.249ZM169.972 263.368C170.008 261.838 171.254 260.757 172.764 260.793C174.273 260.828 175.467 261.967 175.431 263.496C175.395 265.036 174.149 266.127 172.639 266.091C171.129 266.056 169.936 264.907 169.972 263.368ZM170.962 263.391C170.937 264.451 171.709 265.229 172.659 265.251C173.619 265.274 174.416 264.533 174.441 263.473C174.466 262.423 173.704 261.655 172.744 261.632C171.794 261.61 170.987 262.341 170.962 263.391ZM176.251 263.526C176.289 261.916 177.263 260.899 178.603 260.93C179.772 260.958 180.143 261.767 180.143 261.767L180.163 261.767C180.163 261.767 180.147 261.617 180.151 261.427L180.206 259.088L181.176 259.11L181.01 266.168L180.09 266.147L180.101 265.667C180.106 265.467 180.119 265.327 180.119 265.327L180.099 265.327C180.099 265.327 179.667 266.257 178.418 266.227C177.048 266.195 176.214 265.095 176.251 263.526ZM177.24 263.549C177.215 264.649 177.788 265.372 178.627 265.392C179.377 265.41 180.099 264.897 180.13 263.607C180.151 262.707 179.702 261.796 178.743 261.774C177.943 261.755 177.268 262.399 177.24 263.549ZM182.235 263.667C182.273 262.057 183.387 261.043 184.827 261.077C186.256 261.111 186.991 262.188 186.96 263.498C186.957 263.628 186.92 263.917 186.92 263.917L183.231 263.83C183.255 264.941 184.032 265.519 184.931 265.541C185.801 265.561 186.445 264.986 186.445 264.986L186.828 265.705C186.828 265.705 186.061 266.408 184.852 266.379C183.262 266.342 182.2 265.166 182.235 263.667ZM183.279 263.101L185.978 263.165C185.968 262.294 185.438 261.862 184.788 261.846C184.049 261.829 183.438 262.275 183.279 263.101ZM188.516 264.405L188.567 259.285L189.566 259.308L189.386 264.425L188.516 264.405ZM188.41 266.343L188.433 265.373L189.423 265.396L189.4 266.366L188.41 266.343ZM193.801 266.47L194.537 259.425L195.577 259.45L197.106 263.307C197.257 263.701 197.434 264.265 197.434 264.265L197.454 264.265C197.454 264.265 197.657 263.71 197.826 263.324L199.536 259.543L200.575 259.568L200.979 266.639L199.999 266.616L199.754 262.159C199.734 261.728 199.769 261.119 199.769 261.119L199.749 261.119C199.749 261.119 199.523 261.763 199.344 262.149L197.86 265.295L196.98 265.274L195.655 262.062C195.504 261.679 195.3 260.994 195.3 260.994L195.28 260.993C195.28 260.993 195.275 261.623 195.235 262.052L194.791 266.493L193.801 266.47ZM201.729 268.447L202.086 267.715C202.086 267.715 202.361 267.932 202.671 267.939C203.061 267.948 203.397 267.676 203.598 267.221L203.862 266.647L201.86 261.598L202.95 261.624L204.141 264.963C204.235 265.225 204.317 265.577 204.317 265.577L204.337 265.578C204.337 265.578 204.425 265.24 204.521 264.982L205.829 261.692L206.879 261.717L204.369 267.629C204.04 268.402 203.411 268.797 202.701 268.78C202.131 268.767 201.729 268.447 201.729 268.447ZM210.144 266.855L210.311 259.797L211.281 259.82L211.226 262.129C211.22 262.379 211.196 262.559 211.196 262.559L211.216 262.559C211.216 262.559 211.666 261.709 212.856 261.737C214.215 261.77 215.05 262.869 215.013 264.439C214.975 266.049 213.981 267.065 212.651 267.034C211.521 267.008 211.082 266.127 211.082 266.127L211.062 266.126C211.062 266.126 211.078 266.287 211.073 266.507L211.064 266.877L210.144 266.855ZM211.143 264.368C211.122 265.268 211.571 266.178 212.531 266.201C213.33 266.22 214.006 265.576 214.033 264.426C214.059 263.326 213.486 262.603 212.646 262.583C211.886 262.565 211.174 263.078 211.143 264.368ZM216.112 265.175L216.188 261.936L217.158 261.959L217.087 264.978C217.07 265.678 217.197 266.241 218.007 266.26C219.036 266.284 219.668 265.389 219.691 264.389L219.747 262.02L220.717 262.043L220.598 267.101L219.658 267.079L219.674 266.409C219.679 266.199 219.702 266.04 219.702 266.04L219.682 266.04C219.461 266.534 218.785 267.179 217.796 267.155C216.656 267.129 216.08 266.515 216.112 265.175ZM221.719 266.508L222.205 265.829C222.205 265.829 222.761 266.432 223.64 266.453C224.06 266.463 224.485 266.253 224.495 265.843C224.517 264.913 221.913 265.042 221.952 263.392C221.974 262.473 222.806 261.972 223.815 261.996C224.925 262.022 225.432 262.594 225.432 262.594L225.025 263.315C225.025 263.315 224.585 262.854 223.786 262.835C223.366 262.825 222.952 262.996 222.941 263.436C222.92 264.345 225.524 264.207 225.485 265.866C225.465 266.706 224.73 267.319 223.621 267.293C222.381 267.263 221.719 266.508 221.719 266.508ZM226.728 261.174L226.751 260.184L227.731 260.208L227.708 261.197L226.728 261.174ZM226.595 267.243L226.714 262.184L227.684 262.207L227.565 267.266L226.595 267.243ZM229.085 267.301L229.204 262.243L230.143 262.265L230.128 262.935C230.123 263.135 230.099 263.304 230.099 263.304L230.119 263.305C230.329 262.869 230.946 262.164 232.046 262.19C233.235 262.218 233.77 262.881 233.74 264.17L233.663 267.409L232.694 267.386L232.765 264.367C232.781 263.657 232.645 263.094 231.835 263.075C231.065 263.057 230.433 263.552 230.206 264.277C230.141 264.475 230.116 264.705 230.11 264.955L230.054 267.324L229.085 267.301ZM234.818 264.906C234.856 263.296 235.97 262.282 237.41 262.316C238.839 262.35 239.574 263.427 239.543 264.737C239.54 264.867 239.503 265.156 239.503 265.156L235.814 265.069C235.838 266.18 236.615 266.759 237.515 266.78C238.384 266.8 239.028 266.225 239.028 266.225L239.411 266.945C239.411 266.945 238.644 267.647 237.435 267.618C235.845 267.581 234.783 266.405 234.818 264.906ZM235.862 264.34L238.561 264.404C238.551 263.533 238.021 263.101 237.372 263.085C236.632 263.068 236.021 263.514 235.862 264.34ZM240.258 266.945L240.744 266.266C240.744 266.266 241.3 266.869 242.18 266.89C242.6 266.9 243.025 266.69 243.035 266.28C243.057 265.35 240.453 265.479 240.492 263.829C240.513 262.909 241.345 262.409 242.355 262.433C243.465 262.459 243.972 263.031 243.972 263.031L243.564 263.752C243.564 263.752 243.125 263.291 242.325 263.272C241.906 263.262 241.491 263.433 241.481 263.872C241.46 264.782 244.064 264.644 244.024 266.303C244.005 267.143 243.27 267.756 242.16 267.73C240.921 267.7 240.258 266.945 240.258 266.945ZM244.739 267.05L245.226 266.371C245.226 266.371 245.782 266.975 246.661 266.995C247.081 267.005 247.506 266.795 247.516 266.385C247.538 265.456 244.934 265.584 244.973 263.935C244.995 263.015 245.827 262.514 246.836 262.538C247.946 262.564 248.453 263.137 248.453 263.137L248.046 263.857C248.046 263.857 247.606 263.397 246.807 263.378C246.387 263.368 245.973 263.538 245.962 263.978C245.941 264.888 248.545 264.749 248.506 266.409C248.486 267.248 247.751 267.861 246.642 267.835C245.402 267.806 244.739 267.05 244.739 267.05ZM252.317 261.777L252.34 260.787L253.32 260.811L253.296 261.8L252.317 261.777ZM252.184 267.846L252.303 262.787L253.273 262.81L253.153 267.869L252.184 267.846ZM254.278 267.275L254.764 266.596C254.764 266.596 255.32 267.199 256.2 267.22C256.62 267.23 257.045 267.02 257.054 266.61C257.076 265.68 254.472 265.809 254.511 264.16C254.533 263.24 255.365 262.739 256.375 262.763C257.484 262.789 257.991 263.361 257.991 263.361L257.584 264.082C257.584 264.082 257.145 263.621 256.345 263.603C255.925 263.593 255.511 263.763 255.501 264.203C255.479 265.113 258.083 264.974 258.044 266.633C258.024 267.473 257.29 268.086 256.18 268.06C254.94 268.031 254.278 267.275 254.278 267.275ZM259.154 268.01L259.274 262.951L260.213 262.974L260.197 263.643C260.193 263.843 260.169 264.013 260.169 264.013L260.189 264.013C260.399 263.578 261.016 262.872 262.116 262.898C263.305 262.926 263.84 263.589 263.809 264.879L263.733 268.118L262.763 268.095L262.834 265.076C262.851 264.366 262.714 263.803 261.905 263.784C261.135 263.765 260.503 264.261 260.276 264.986C260.211 265.184 260.186 265.414 260.18 265.664L260.124 268.033L259.154 268.01ZM265.173 262.85L265.217 260.971L265.987 260.989L265.943 262.869L265.173 262.85ZM267.462 266.355L267.518 263.996L266.858 263.98L266.876 263.201L267.566 263.217L267.601 261.757L268.54 261.779L268.506 263.239L269.726 263.268L269.707 264.048L268.488 264.019L268.435 266.268C268.411 267.278 269.118 267.425 269.487 267.433C269.627 267.437 269.718 267.419 269.718 267.419L269.698 268.278C269.698 268.278 269.557 268.295 269.357 268.29C268.707 268.275 267.422 268.045 267.462 266.355ZM125.657 276.867L125.776 271.809L126.716 271.831L126.7 272.501C126.695 272.701 126.671 272.87 126.671 272.87L126.691 272.871C126.945 272.286 127.668 271.733 128.458 271.752C129.308 271.772 129.798 272.174 129.95 272.937L129.97 272.938C130.265 272.335 130.977 271.811 131.797 271.831C132.937 271.857 133.451 272.52 133.421 273.809L133.344 277.048L132.375 277.026L132.446 273.996C132.463 273.287 132.336 272.724 131.576 272.706C130.867 272.689 130.323 273.276 130.126 273.962C130.071 274.171 130.046 274.4 130.04 274.66L129.985 276.969L129.016 276.946L129.087 273.917C129.103 273.257 129.017 272.645 128.237 272.627C127.497 272.609 126.963 273.207 126.756 273.922C126.702 274.121 126.686 274.351 126.681 274.581L126.626 276.89L125.657 276.867ZM134.504 274.545C134.542 272.936 135.657 271.922 137.096 271.955C138.526 271.989 139.261 273.067 139.23 274.376C139.227 274.506 139.19 274.796 139.19 274.796L135.501 274.709C135.525 275.819 136.301 276.398 137.201 276.419C138.071 276.44 138.714 275.865 138.714 275.865L139.098 276.584C139.098 276.584 138.331 277.286 137.121 277.258C135.532 277.22 134.469 276.045 134.504 274.545ZM135.548 273.98L138.247 274.043C138.238 273.173 137.708 272.74 137.058 272.725C136.318 272.707 135.708 273.153 135.548 273.98ZM140.05 274.676C140.088 273.066 141.202 272.052 142.641 272.086C144.071 272.12 144.806 273.197 144.775 274.507C144.772 274.637 144.735 274.926 144.735 274.926L141.046 274.839C141.07 275.95 141.847 276.529 142.746 276.55C143.616 276.57 144.26 275.995 144.26 275.995L144.643 276.715C144.643 276.715 143.876 277.417 142.667 277.388C141.077 277.351 140.014 276.175 140.05 274.676ZM141.093 274.11L143.793 274.174C143.783 273.303 143.253 272.871 142.603 272.855C141.864 272.838 141.253 273.284 141.093 274.11ZM146.139 275.499L146.195 273.14L145.535 273.125L145.553 272.345L146.243 272.361L146.277 270.901L147.217 270.924L147.183 272.383L148.402 272.412L148.384 273.192L147.164 273.163L147.111 275.412C147.087 276.422 147.794 276.569 148.164 276.577C148.304 276.581 148.394 276.563 148.394 276.563L148.374 277.423C148.374 277.423 148.234 277.439 148.034 277.435C147.384 277.419 146.099 277.189 146.139 275.499ZM149.601 271.36L149.625 270.37L150.604 270.393L150.581 271.383L149.601 271.36ZM149.468 277.428L149.588 272.37L150.557 272.393L150.438 277.451L149.468 277.428ZM151.958 277.487L152.077 272.429L153.017 272.451L153.001 273.12C152.996 273.32 152.972 273.49 152.972 273.49L152.992 273.49C153.203 273.055 153.819 272.35 154.919 272.375C156.109 272.404 156.643 273.066 156.613 274.356L156.537 277.595L155.567 277.572L155.638 274.553C155.655 273.843 155.518 273.28 154.708 273.261C153.938 273.243 153.307 273.738 153.079 274.463C153.015 274.661 152.989 274.891 152.983 275.141L152.928 277.51L151.958 277.487ZM158.41 278.559C158.41 278.559 159.032 278.914 159.791 278.932C160.671 278.953 161.4 278.58 161.424 277.55L161.433 277.18C161.437 277.02 161.451 276.861 161.451 276.861L161.431 276.86C161.119 277.353 160.642 277.632 159.913 277.615C158.503 277.581 157.68 276.432 157.714 274.972C157.748 273.522 158.584 272.462 159.983 272.495C161.203 272.524 161.555 273.282 161.555 273.282L161.575 273.283C161.575 273.283 161.567 273.212 161.569 273.122L161.58 272.652L162.51 272.674L162.395 277.523C162.356 279.193 161.071 279.802 159.792 279.772C159.182 279.758 158.556 279.573 158.072 279.312L158.41 278.559ZM160.122 276.779C160.822 276.796 161.472 276.391 161.503 275.071C161.534 273.752 160.903 273.357 160.113 273.338C159.234 273.317 158.719 273.945 158.694 274.975C158.67 276.025 159.212 276.758 160.122 276.779ZM166.475 277.829L166.595 272.771L167.534 272.793L167.519 273.463C167.514 273.663 167.49 273.832 167.49 273.832L167.51 273.833C167.764 273.248 168.487 272.695 169.277 272.714C170.126 272.734 170.617 273.136 170.769 273.899L170.789 273.9C171.083 273.297 171.796 272.773 172.616 272.793C173.755 272.819 174.27 273.482 174.24 274.771L174.163 278.01L173.193 277.988L173.265 274.958C173.282 274.249 173.155 273.685 172.395 273.668C171.685 273.651 171.141 274.238 170.945 274.924C170.89 275.133 170.865 275.362 170.859 275.622L170.804 277.931L169.834 277.908L169.906 274.879C169.921 274.219 169.836 273.607 169.056 273.589C168.316 273.571 167.782 274.169 167.575 274.884C167.52 275.083 167.505 275.313 167.5 275.543L167.445 277.852L166.475 277.829ZM174.861 279.817L175.219 279.086C175.219 279.086 175.494 279.302 175.804 279.309C176.194 279.319 176.53 279.046 176.731 278.591L176.994 278.017L174.993 272.969L176.083 272.994L177.274 276.333C177.368 276.596 177.45 276.948 177.45 276.948L177.47 276.948C177.47 276.948 177.558 276.61 177.654 276.352L178.962 273.062L180.011 273.087L177.501 278.999C177.173 279.772 176.544 280.167 175.834 280.15C175.264 280.137 174.861 279.817 174.861 279.817ZM182.987 275.688C183.025 274.078 184.139 273.064 185.579 273.098C187.008 273.132 187.743 274.209 187.712 275.519C187.709 275.649 187.672 275.938 187.672 275.938L183.983 275.851C184.007 276.962 184.784 277.541 185.684 277.562C186.553 277.582 187.197 277.007 187.197 277.007L187.58 277.726C187.58 277.726 186.814 278.429 185.604 278.4C184.014 278.363 182.952 277.187 182.987 275.688ZM184.031 275.122L186.73 275.186C186.72 274.315 186.19 273.883 185.541 273.867C184.801 273.85 184.19 274.296 184.031 275.122ZM190.659 276.429L190.639 276.428C190.639 276.428 190.555 276.586 190.482 276.705L189.383 278.369L188.283 278.343L190.064 275.784L188.492 273.287L189.602 273.313L190.505 274.875C190.582 275.006 190.668 275.178 190.668 275.178L190.688 275.179C190.688 275.179 190.782 275.011 190.865 274.883L191.841 273.366L192.951 273.392L191.263 275.813L192.922 278.452L191.822 278.427L190.802 276.712C190.735 276.59 190.659 276.429 190.659 276.429ZM193.852 280.475L194.019 273.417L194.908 273.438L194.898 273.868C194.894 274.068 194.87 274.237 194.87 274.237L194.89 274.238C194.89 274.238 195.341 273.328 196.611 273.358C197.97 273.39 198.805 274.49 198.768 276.06C198.73 277.669 197.735 278.686 196.416 278.655C195.306 278.629 194.886 277.789 194.886 277.789L194.866 277.788C194.866 277.788 194.882 277.969 194.875 278.228L194.822 280.498L193.852 280.475ZM194.898 275.988C194.877 276.888 195.356 277.8 196.285 277.822C197.085 277.84 197.761 277.196 197.788 276.046C197.814 274.947 197.241 274.223 196.401 274.203C195.641 274.185 194.929 274.699 194.898 275.988ZM199.604 276.079C199.641 274.47 200.756 273.456 202.195 273.49C203.625 273.523 204.36 274.601 204.329 275.911C204.326 276.04 204.289 276.33 204.289 276.33L200.6 276.243C200.624 277.354 201.4 277.932 202.3 277.953C203.17 277.974 203.814 277.399 203.814 277.399L204.197 278.118C204.197 278.118 203.43 278.82 202.22 278.792C200.631 278.754 199.568 277.579 199.604 276.079ZM200.647 275.514L203.346 275.577C203.337 274.707 202.807 274.274 202.157 274.259C201.417 274.241 200.807 274.687 200.647 275.514ZM205.139 276.21C205.174 274.71 206.321 273.587 207.911 273.624C209.18 273.654 209.793 274.409 209.793 274.409L209.317 275.078C209.317 275.078 208.791 274.485 207.931 274.465C206.911 274.441 206.153 275.183 206.129 276.223C206.105 277.253 206.826 278.06 207.875 278.085C208.815 278.107 209.451 277.442 209.451 277.442L209.824 278.161C209.824 278.161 209.105 278.954 207.786 278.923C206.196 278.885 205.103 277.729 205.139 276.21ZM211.16 277.032L211.216 274.672L210.556 274.657L210.574 273.877L211.264 273.893L211.298 272.434L212.238 272.456L212.204 273.916L213.423 273.944L213.405 274.724L212.185 274.695L212.132 276.945C212.108 277.954 212.815 278.101 213.185 278.11C213.325 278.113 213.415 278.095 213.415 278.095L213.395 278.955C213.395 278.955 213.255 278.972 213.055 278.967C212.405 278.952 211.12 278.721 211.16 277.032ZM214.113 277.531C214.152 275.862 216.353 275.844 217.203 275.864L217.423 275.869L217.425 275.779C217.445 274.949 216.981 274.658 216.342 274.643C215.562 274.625 214.92 275.1 214.92 275.1L214.537 274.381C214.537 274.381 215.281 273.798 216.441 273.825C217.721 273.855 218.424 274.572 218.394 275.852L218.318 279.051L217.419 279.03L217.43 278.55C217.435 278.32 217.459 278.151 217.459 278.151L217.439 278.15C217.439 278.15 217.006 279.14 215.796 279.112C214.926 279.091 214.089 278.541 214.113 277.531ZM215.094 277.505C215.084 277.914 215.395 278.322 216.024 278.337C216.844 278.356 217.394 277.509 217.412 276.759L217.416 276.599L217.166 276.593C216.436 276.576 215.115 276.595 215.094 277.505ZM219.995 277.24L220.051 274.881L219.391 274.865L219.41 274.085L220.099 274.102L220.134 272.642L221.073 272.664L221.039 274.124L222.259 274.152L222.24 274.932L221.021 274.904L220.968 277.153C220.944 278.163 221.651 278.309 222.021 278.318C222.16 278.321 222.251 278.303 222.251 278.303L222.231 279.163C222.231 279.163 222.09 279.18 221.89 279.175C221.24 279.16 219.956 278.93 219.995 277.24ZM223.458 273.1L223.481 272.111L224.461 272.134L224.438 273.124L223.458 273.1ZM223.325 279.169L223.444 274.11L224.414 274.133L224.295 279.192L223.325 279.169ZM225.504 276.68C225.54 275.15 226.786 274.069 228.296 274.105C229.805 274.14 230.999 275.279 230.963 276.808C230.926 278.348 229.68 279.439 228.171 279.403C226.661 279.368 225.468 278.219 225.504 276.68ZM226.494 276.703C226.469 277.763 227.241 278.541 228.191 278.563C229.15 278.586 229.948 277.845 229.973 276.785C229.998 275.735 229.236 274.967 228.276 274.944C227.326 274.922 226.519 275.653 226.494 276.703ZM232.053 279.375L232.172 274.316L233.112 274.338L233.096 275.008C233.091 275.208 233.067 275.377 233.067 275.377L233.087 275.378C233.298 274.943 233.914 274.237 235.014 274.263C236.204 274.291 236.738 274.954 236.708 276.243L236.632 279.483L235.662 279.46L235.733 276.441C235.75 275.731 235.613 275.167 234.803 275.148C234.033 275.13 233.402 275.625 233.174 276.35C233.11 276.549 233.084 276.778 233.078 277.028L233.023 279.398L232.053 279.375ZM237.681 278.887L238.167 278.208C238.167 278.208 238.723 278.812 239.603 278.832C240.023 278.842 240.448 278.632 240.458 278.222C240.48 277.293 237.876 277.421 237.915 275.772C237.936 274.852 238.768 274.351 239.778 274.375C240.888 274.401 241.395 274.974 241.395 274.974L240.987 275.694C240.987 275.694 240.548 275.234 239.748 275.215C239.329 275.205 238.914 275.375 238.904 275.815C238.883 276.725 241.487 276.586 241.447 278.246C241.428 279.085 240.693 279.698 239.583 279.672C238.344 279.643 237.681 278.887 237.681 278.887ZM242.558 279.622L242.582 278.593L243.602 278.617L243.577 279.646L242.558 279.622ZM247.864 279.747L248.03 272.689L249.02 272.713L248.947 275.812L252.606 275.898L252.679 272.799L253.668 272.822L253.502 279.88L252.512 279.857L252.585 276.758L248.926 276.671L248.853 279.771L247.864 279.747ZM254.91 277.373C254.946 275.843 256.192 274.762 257.702 274.798C259.211 274.833 260.405 275.972 260.369 277.501C260.332 279.041 259.086 280.132 257.577 280.096C256.067 280.061 254.874 278.912 254.91 277.373ZM255.9 277.396C255.875 278.456 256.647 279.234 257.597 279.256C258.556 279.279 259.354 278.538 259.379 277.478C259.404 276.428 258.642 275.66 257.682 275.637C256.732 275.615 255.925 276.346 255.9 277.396ZM262.498 280.092L260.988 274.995L262.018 275.019L262.984 278.593C263.058 278.855 263.091 279.136 263.101 279.136L263.121 279.137C263.121 279.137 263.178 278.858 263.264 278.6L264.447 275.087L265.337 275.108L266.343 278.672C266.417 278.934 266.47 279.215 266.47 279.215L266.49 279.216C266.49 279.216 266.537 278.937 266.623 278.679L267.766 275.155L268.786 275.179L267.037 280.199L265.967 280.174L264.994 276.9C264.921 276.638 264.867 276.347 264.867 276.347L264.847 276.346C264.847 276.346 264.781 276.635 264.694 276.893L263.578 280.118L262.498 280.092ZM125.074 286.326C125.109 284.827 126.256 283.703 127.845 283.741C129.115 283.771 129.727 284.525 129.727 284.525L129.251 285.194C129.251 285.194 128.725 284.602 127.865 284.581C126.846 284.557 126.088 285.3 126.064 286.34C126.039 287.369 126.76 288.176 127.81 288.201C128.75 288.223 129.386 287.558 129.386 287.558L129.759 288.277C129.759 288.277 129.04 289.07 127.72 289.039C126.131 289.002 125.038 287.846 125.074 286.326ZM130.465 287.564C130.504 285.894 132.705 285.876 133.555 285.896L133.775 285.901L133.777 285.811C133.796 284.981 133.333 284.69 132.693 284.675C131.914 284.657 131.272 285.132 131.272 285.132L130.889 284.413C130.889 284.413 131.633 283.83 132.793 283.857C134.072 283.888 134.776 284.604 134.745 285.884L134.67 289.083L133.77 289.062L133.782 288.582C133.787 288.352 133.811 288.183 133.811 288.183L133.791 288.182C133.791 288.182 133.358 289.172 132.148 289.144C131.278 289.123 130.441 288.573 130.465 287.564ZM131.446 287.537C131.436 287.947 131.746 288.354 132.376 288.369C133.196 288.388 133.746 287.541 133.764 286.791L133.768 286.631L133.518 286.625C132.788 286.608 131.467 286.627 131.446 287.537ZM136.123 289.117L136.242 284.059L137.182 284.081L137.166 284.751C137.161 284.951 137.137 285.12 137.137 285.12L137.157 285.121C137.368 284.685 137.984 283.98 139.084 284.006C140.274 284.034 140.808 284.696 140.778 285.986L140.702 289.225L139.732 289.202L139.803 286.183C139.82 285.473 139.683 284.91 138.873 284.891C138.103 284.873 137.472 285.368 137.244 286.093C137.18 286.291 137.154 286.521 137.148 286.771L137.093 289.14L136.123 289.117ZM144.914 289.324L145.081 282.266L146.07 282.29L145.904 289.348L144.914 289.324ZM150.324 283.38L150.348 282.391L151.327 282.414L151.304 283.403L150.324 283.38ZM150.191 289.449L150.31 284.39L151.28 284.413L151.161 289.472L150.191 289.449ZM152.681 289.507L152.8 284.449L153.74 284.471L153.724 285.141C153.719 285.341 153.695 285.51 153.695 285.51L153.715 285.511C153.969 284.927 154.692 284.373 155.482 284.392C156.332 284.412 156.822 284.814 156.975 285.578L156.995 285.578C157.289 284.975 158.001 284.451 158.821 284.471C159.961 284.498 160.475 285.16 160.445 286.45L160.369 289.689L159.399 289.666L159.47 286.637C159.487 285.927 159.36 285.364 158.6 285.346C157.891 285.329 157.347 285.916 157.15 286.602C157.096 286.811 157.07 287.04 157.064 287.3L157.01 289.61L156.04 289.587L156.111 286.557C156.127 285.898 156.041 285.285 155.261 285.267C154.522 285.25 153.987 285.847 153.78 286.563C153.726 286.761 153.71 286.991 153.705 287.221L153.65 289.53L152.681 289.507ZM161.772 291.722L161.938 284.664L162.828 284.685L162.818 285.115C162.813 285.315 162.789 285.485 162.789 285.485L162.809 285.485C162.809 285.485 163.261 284.575 164.53 284.605C165.89 284.637 166.724 285.737 166.687 287.307C166.649 288.916 165.655 289.933 164.335 289.902C163.226 289.876 162.805 289.036 162.805 289.036L162.785 289.035C162.785 289.035 162.801 289.216 162.795 289.476L162.741 291.745L161.772 291.722ZM162.818 287.236C162.797 288.135 163.275 289.047 164.205 289.069C165.005 289.088 165.68 288.443 165.707 287.294C165.733 286.194 165.16 285.47 164.32 285.451C163.56 285.433 162.848 285.946 162.818 287.236ZM167.813 289.864L167.932 284.806L168.872 284.828L168.851 285.707C168.847 285.917 168.823 286.087 168.823 286.087L168.843 286.087C169.09 285.353 169.693 284.787 170.473 284.805C170.603 284.808 170.723 284.831 170.723 284.831L170.7 285.791C170.7 285.791 170.571 285.758 170.421 285.754C169.801 285.74 169.221 286.166 168.973 286.911C168.876 287.198 168.839 287.508 168.832 287.818L168.783 289.887L167.813 289.864ZM171.223 287.404C171.259 285.874 172.505 284.793 174.014 284.829C175.524 284.864 176.717 286.003 176.681 287.532C176.645 289.072 175.399 290.163 173.889 290.127C172.38 290.092 171.187 288.943 171.223 287.404ZM172.213 287.427C172.188 288.487 172.96 289.265 173.909 289.288C174.869 289.31 175.667 288.569 175.692 287.509C175.716 286.459 174.954 285.691 173.995 285.669C173.045 285.646 172.237 286.377 172.213 287.427ZM178.971 290.127L177.201 285.024L178.231 285.048L179.38 288.496C179.473 288.779 179.523 289.19 179.533 289.19L179.553 289.191C179.563 289.191 179.643 288.783 179.75 288.505L181.06 285.115L182.079 285.139L180.091 290.153L178.971 290.127ZM182.499 287.68C182.537 286.07 183.651 285.056 185.091 285.09C186.521 285.124 187.255 286.201 187.225 287.511C187.222 287.641 187.185 287.93 187.185 287.93L183.496 287.843C183.52 288.954 184.296 289.532 185.196 289.554C186.066 289.574 186.709 288.999 186.709 288.999L187.093 289.718C187.093 289.718 186.326 290.42 185.116 290.392C183.527 290.354 182.464 289.179 182.499 287.68ZM183.543 287.114L186.242 287.178C186.233 286.307 185.703 285.874 185.053 285.859C184.313 285.842 183.702 286.287 183.543 287.114ZM191.036 284.34L191.059 283.35L192.039 283.373L192.015 284.363L191.036 284.34ZM190.903 290.408L191.022 285.35L191.992 285.372L191.872 290.431L190.903 290.408ZM193.646 288.622L193.701 286.263L193.041 286.247L193.06 285.468L193.75 285.484L193.784 284.024L194.724 284.046L194.689 285.506L195.909 285.535L195.891 286.315L194.671 286.286L194.618 288.535C194.594 289.545 195.301 289.692 195.671 289.7C195.811 289.704 195.901 289.686 195.901 289.686L195.881 290.546C195.881 290.546 195.741 290.562 195.541 290.558C194.891 290.542 193.606 290.312 193.646 288.622ZM197.701 288.628L197.712 288.158C197.748 286.638 199.452 286.459 199.479 285.309C199.493 284.749 199.023 284.308 198.363 284.292C197.733 284.277 197.213 284.685 197.213 284.685L196.69 283.983C196.69 283.983 197.365 283.359 198.454 283.384C199.584 283.411 200.527 284.153 200.501 285.263C200.462 286.912 198.688 287.041 198.66 288.24L198.65 288.65L197.701 288.628ZM197.635 290.567L197.658 289.597L198.647 289.62L198.625 290.59L197.635 290.567Z" fill="white"/>
</g>
<g filter="url(#filter1_d_888_3782)">
<path d="M225.567 332.237C225.655 328.518 225.699 326.658 226.144 325.142C227.35 321.028 230.66 317.871 234.826 316.859C236.362 316.486 238.221 316.53 241.94 316.618L328.956 318.669C335.448 318.822 338.694 318.898 341.163 320.18C343.526 321.408 345.414 323.387 346.529 325.805C347.693 328.331 347.617 331.577 347.464 338.07L347.157 351.106L241.186 348.609C237.467 348.521 235.608 348.478 234.092 348.033C229.978 346.826 226.82 343.516 225.809 339.35C225.436 337.815 225.48 335.955 225.567 332.237Z" fill="white" shape-rendering="crispEdges"/>
<path d="M225.825 332.243C225.913 328.507 225.959 326.69 226.391 325.215C227.572 321.19 230.811 318.1 234.887 317.11C236.381 316.747 238.198 316.788 241.934 316.876L328.95 318.927C332.2 319.003 334.623 319.061 336.542 319.258C338.458 319.455 339.851 319.789 341.044 320.409C343.356 321.611 345.203 323.547 346.294 325.913C346.857 327.135 347.126 328.541 347.233 330.464C347.339 332.391 347.282 334.814 347.206 338.064L346.905 350.842L241.192 348.351C237.457 348.263 235.64 348.218 234.164 347.785C230.139 346.604 227.05 343.366 226.06 339.289C225.697 337.795 225.737 335.978 225.825 332.243Z" stroke="#352727" stroke-width="0.5163" shape-rendering="crispEdges"/>
<path d="M236.454 335.494L236.62 328.436L237.61 328.459L237.464 334.658L240.623 334.732L240.603 335.592L236.454 335.494ZM241.255 333.076C241.293 331.467 242.407 330.453 243.847 330.487C245.276 330.52 246.011 331.598 245.98 332.908C245.977 333.038 245.94 333.327 245.94 333.327L242.251 333.24C242.275 334.351 243.052 334.929 243.952 334.95C244.821 334.971 245.465 334.396 245.465 334.396L245.848 335.115C245.848 335.115 245.081 335.817 243.872 335.789C242.282 335.751 241.22 334.576 241.255 333.076ZM242.299 332.511L244.998 332.574C244.988 331.704 244.458 331.271 243.809 331.256C243.069 331.239 242.458 331.684 242.299 332.511ZM247.344 333.9L247.4 331.541L246.74 331.525L246.758 330.745L247.448 330.762L247.483 329.302L248.422 329.324L248.388 330.784L249.608 330.813L249.589 331.592L248.369 331.564L248.316 333.813C248.293 334.823 248.999 334.969 249.369 334.978C249.509 334.981 249.6 334.964 249.6 334.964L249.579 335.823C249.579 335.823 249.439 335.84 249.239 335.835C248.589 335.82 247.304 335.59 247.344 333.9ZM250.669 330.528L250.713 328.648L251.483 328.666L251.438 330.546L250.669 330.528ZM252.309 335.247L252.795 334.569C252.795 334.569 253.351 335.172 254.231 335.193C254.651 335.203 255.076 334.993 255.085 334.583C255.107 333.653 252.504 333.782 252.542 332.132C252.564 331.212 253.396 330.712 254.406 330.736C255.516 330.762 256.022 331.334 256.022 331.334L255.615 332.054C255.615 332.054 255.176 331.594 254.376 331.575C253.956 331.565 253.542 331.736 253.532 332.175C253.51 333.085 256.114 332.946 256.075 334.606C256.055 335.446 255.321 336.059 254.211 336.033C252.971 336.003 252.309 335.247 252.309 335.247ZM260.181 336.973C260.181 336.973 260.803 337.328 261.563 337.346C262.443 337.367 263.172 336.994 263.196 335.964L263.205 335.594C263.208 335.434 263.222 335.275 263.222 335.275L263.202 335.274C262.891 335.767 262.414 336.046 261.684 336.029C260.274 335.995 259.451 334.846 259.486 333.386C259.52 331.936 260.355 330.876 261.755 330.909C262.974 330.938 263.327 331.696 263.327 331.696L263.347 331.697C263.347 331.697 263.338 331.626 263.34 331.536L263.351 331.066L264.281 331.088L264.167 335.937C264.128 337.607 262.843 338.216 261.563 338.186C260.953 338.172 260.327 337.987 259.844 337.726L260.181 336.973ZM261.894 335.193C262.594 335.21 263.243 334.805 263.274 333.485C263.305 332.166 262.675 331.771 261.885 331.752C261.005 331.731 260.49 332.359 260.466 333.389C260.441 334.439 260.984 335.172 261.894 335.193ZM265.369 333.635C265.405 332.105 266.651 331.024 268.161 331.06C269.67 331.095 270.864 332.234 270.828 333.763C270.791 335.303 269.545 336.394 268.036 336.358C266.526 336.323 265.333 335.174 265.369 333.635ZM266.359 333.658C266.334 334.718 267.106 335.496 268.056 335.519C269.015 335.541 269.813 334.8 269.838 333.74C269.863 332.69 269.101 331.922 268.141 331.9C267.191 331.877 266.384 332.608 266.359 333.658ZM271.404 337.328L272.072 335.283L273.062 335.306L272.174 337.346L271.404 337.328ZM277.233 336.455L277.4 329.397L278.389 329.42L278.223 336.478L277.233 336.455ZM279.869 331.216L279.914 329.336L280.683 329.354L280.639 331.234L279.869 331.216ZM281.878 335.184L282.012 329.506L282.981 329.529L282.851 335.037C282.837 335.647 283.074 335.762 283.374 335.77C283.464 335.772 283.545 335.764 283.545 335.764L283.524 336.623C283.524 336.623 283.374 336.64 283.204 336.636C282.654 336.623 281.848 336.454 281.878 335.184ZM284.523 335.246L284.657 329.568L285.627 329.591L285.497 335.099C285.483 335.709 285.72 335.825 286.02 335.832C286.11 335.834 286.19 335.826 286.19 335.826L286.17 336.686C286.17 336.686 286.02 336.702 285.85 336.698C285.3 336.685 284.494 336.516 284.523 335.246ZM289.369 336.121L289.855 335.442C289.855 335.442 290.411 336.045 291.291 336.066C291.711 336.076 292.136 335.866 292.145 335.456C292.167 334.526 289.564 334.655 289.603 333.005C289.624 332.086 290.456 331.585 291.466 331.609C292.576 331.635 293.082 332.207 293.082 332.207L292.675 332.928C292.675 332.928 292.236 332.467 291.436 332.449C291.016 332.439 290.602 332.609 290.592 333.049C290.57 333.959 293.174 333.82 293.135 335.479C293.115 336.319 292.381 336.932 291.271 336.906C290.031 336.877 289.369 336.121 289.369 336.121ZM294.246 336.856L294.412 329.798L295.382 329.821L295.321 332.41C295.315 332.65 295.291 332.829 295.291 332.829L295.311 332.83C295.542 332.345 296.197 331.72 297.207 331.744C298.396 331.772 298.931 332.435 298.901 333.725L298.824 336.964L297.855 336.941L297.926 333.922C297.942 333.212 297.806 332.649 296.996 332.63C296.236 332.612 295.594 333.117 295.367 333.842C295.302 334.04 295.277 334.27 295.271 334.509L295.215 336.879L294.246 336.856ZM299.959 334.45C299.995 332.92 301.241 331.839 302.751 331.875C304.26 331.911 305.454 333.049 305.418 334.579C305.381 336.118 304.135 337.209 302.626 337.173C301.116 337.138 299.923 335.989 299.959 334.45ZM300.949 334.473C300.924 335.533 301.696 336.311 302.646 336.334C303.605 336.356 304.403 335.615 304.428 334.555C304.453 333.505 303.691 332.737 302.731 332.715C301.781 332.692 300.974 333.423 300.949 334.473ZM307.547 337.169L306.037 332.072L307.067 332.097L308.033 335.67C308.107 335.932 308.14 336.213 308.15 336.213L308.17 336.214C308.17 336.214 308.227 335.935 308.313 335.677L309.496 332.164L310.386 332.185L311.392 335.75C311.466 336.011 311.519 336.293 311.519 336.293L311.539 336.293C311.539 336.293 311.586 336.014 311.672 335.756L312.815 332.232L313.835 332.256L312.086 337.276L311.016 337.251L310.043 333.977C309.969 333.716 309.916 333.424 309.916 333.424L309.896 333.424C309.896 333.424 309.83 333.712 309.743 333.97L308.627 337.195L307.547 337.169ZM316.466 339.17L316.823 338.438C316.823 338.438 317.098 338.655 317.408 338.662C317.798 338.671 318.134 338.399 318.335 337.944L318.599 337.37L316.597 332.321L317.687 332.347L318.878 335.686C318.972 335.948 319.054 336.3 319.054 336.3L319.074 336.301C319.074 336.301 319.162 335.963 319.258 335.705L320.566 332.415L321.616 332.44L319.106 338.352C318.777 339.125 318.148 339.52 317.438 339.503C316.868 339.49 316.466 339.17 316.466 339.17ZM322.004 334.969C322.04 333.44 323.286 332.359 324.795 332.394C326.305 332.43 327.498 333.568 327.462 335.098C327.426 336.638 326.18 337.729 324.67 337.693C323.161 337.657 321.968 336.509 322.004 334.969ZM322.994 334.993C322.969 336.052 323.74 336.831 324.69 336.853C325.65 336.876 326.448 336.134 326.473 335.075C326.497 334.025 325.735 333.257 324.775 333.234C323.826 333.212 323.018 333.943 322.994 334.993ZM328.525 335.843L328.602 332.604L329.571 332.627L329.5 335.646C329.484 336.346 329.61 336.909 330.42 336.928C331.45 336.952 332.081 336.057 332.105 335.057L332.161 332.688L333.13 332.711L333.011 337.769L332.071 337.747L332.087 337.078C332.092 336.868 332.116 336.708 332.116 336.708L332.096 336.708C331.874 337.203 331.199 337.847 330.209 337.823C329.069 337.797 328.494 337.183 328.525 335.843ZM334.973 335.875L335.024 330.755L336.023 330.779L335.843 335.896L334.973 335.875ZM334.867 337.813L334.89 336.844L335.88 336.867L335.857 337.837L334.867 337.813Z" fill="#181010"/>
</g>
<path d="M375.127 341.763C375 347.142 370.537 351.399 365.158 351.272C359.779 351.146 355.522 346.683 355.648 341.304C355.775 335.925 360.238 331.668 365.617 331.794C370.996 331.921 375.254 336.384 375.127 341.763Z" fill="white" stroke="#352727" stroke-width="0.5163"/>
<path fill-rule="evenodd" clip-rule="evenodd" d="M362.629 336.496L359.856 341.403L362.395 346.435L368.221 346.572L370.995 341.665L368.456 336.633L362.629 336.496ZM369.08 335.619L362.054 335.453L358.656 341.374L361.771 347.449L368.797 347.614L372.194 341.693L369.08 335.619Z" fill="#0D160B"/>
<path d="M370.993 341.666L372.193 341.694L368.795 347.615L368.22 346.573L370.993 341.666Z" fill="#EE2329"/>
<path d="M359.857 341.402L358.657 341.374L362.054 335.453L362.63 336.495L359.857 341.402Z" fill="#EE2329"/>
<path fill-rule="evenodd" clip-rule="evenodd" d="M366.56 340.701L366.519 342.417L364.292 342.364L364.332 340.65L363.475 340.63L363.38 344.657L364.237 344.677L364.272 343.221L368.557 343.322L368.577 342.465L367.376 342.437L367.471 338.41L366.614 338.39L366.58 339.844L362.295 339.743L362.275 340.6L366.56 340.701Z" fill="#0D160B"/>
<rect width="0.857059" height="0.857063" transform="matrix(0.999722 0.0235598 -0.0235608 0.999722 363.527 338.316)" fill="#EE2329"/>
<rect width="0.857059" height="0.857063" transform="matrix(0.999722 0.0235598 -0.0235608 0.999722 366.485 343.874)" fill="#EE2329"/>
<rect x="201" y="80" width="37" height="4" rx="2" fill="#A38F8F"/>
<rect x="201" y="87" width="19" height="2" rx="1" fill="#D3C5C5"/>
<g clip-path="url(#clip2_888_3782)">
<ellipse cx="188" cy="189" rx="7.00016" ry="7" fill="#A38F8F"/>
<mask id="mask1_888_3782" style="mask-type:alpha" maskUnits="userSpaceOnUse" x="183" y="184" width="10" height="10">
<rect width="8.89295" height="8.89275" transform="matrix(1 0 -1.06328e-06 1 183.538 184.745)" fill="#D9D9D9"/>
</mask>
<g mask="url(#mask1_888_3782)">
<path d="M187.985 191.229C188.312 191.229 188.622 191.158 188.916 191.016C189.209 190.874 189.445 190.667 189.624 190.395C189.692 190.29 189.702 190.187 189.652 190.085C189.603 189.983 189.522 189.932 189.411 189.932C189.362 189.932 189.317 189.943 189.277 189.964C189.237 189.986 189.204 190.018 189.18 190.062C189.038 190.253 188.862 190.403 188.652 190.511C188.442 190.619 188.219 190.673 187.985 190.673C187.75 190.673 187.528 190.619 187.318 190.511C187.108 190.403 186.932 190.253 186.79 190.062C186.759 190.018 186.723 189.986 186.683 189.964C186.643 189.943 186.598 189.932 186.549 189.932C186.438 189.932 186.357 189.981 186.308 190.08C186.259 190.179 186.268 190.278 186.336 190.377C186.515 190.655 186.751 190.866 187.044 191.011C187.338 191.156 187.651 191.229 187.985 191.229ZM189.282 188.82C189.436 188.82 189.567 188.766 189.675 188.658C189.783 188.55 189.837 188.419 189.837 188.265C189.837 188.11 189.783 187.979 189.675 187.871C189.567 187.763 189.436 187.709 189.282 187.709C189.127 187.709 188.996 187.763 188.888 187.871C188.78 187.979 188.726 188.11 188.726 188.265C188.726 188.419 188.78 188.55 188.888 188.658C188.996 188.766 189.127 188.82 189.282 188.82ZM186.688 188.82C186.842 188.82 186.973 188.766 187.081 188.658C187.19 188.55 187.244 188.419 187.244 188.265C187.244 188.11 187.19 187.979 187.081 187.871C186.973 187.763 186.842 187.709 186.688 187.709C186.533 187.709 186.402 187.763 186.294 187.871C186.186 187.979 186.132 188.11 186.132 188.265C186.132 188.419 186.186 188.55 186.294 188.658C186.402 188.766 186.533 188.82 186.688 188.82ZM187.985 192.896C187.472 192.896 186.99 192.799 186.54 192.604C186.089 192.41 185.697 192.146 185.363 191.812C185.03 191.479 184.766 191.087 184.571 190.636C184.377 190.185 184.279 189.703 184.279 189.191C184.279 188.678 184.377 188.197 184.571 187.746C184.766 187.295 185.03 186.903 185.363 186.569C185.697 186.236 186.089 185.972 186.54 185.777C186.99 185.583 187.472 185.486 187.985 185.486C188.497 185.486 188.979 185.583 189.43 185.777C189.881 185.972 190.273 186.236 190.606 186.569C190.94 186.903 191.204 187.295 191.398 187.746C191.593 188.197 191.69 188.678 191.69 189.191C191.69 189.703 191.593 190.185 191.398 190.636C191.204 191.087 190.94 191.479 190.606 191.812C190.273 192.146 189.881 192.41 189.43 192.604C188.979 192.799 188.497 192.896 187.985 192.896Z" fill="#EAE1E1"/>
</g>
</g>
<path d="M199 181.64C199 177.31 199 175.146 199.816 173.48C200.597 171.886 201.886 170.597 203.48 169.816C205.146 169 207.31 169 211.64 169H296.36C300.69 169 302.854 169 304.52 169.816C306.114 170.597 307.403 171.886 308.184 173.48C309 175.146 309 177.31 309 181.64V183.36C309 187.69 309 189.854 308.184 191.52C307.403 193.114 306.114 194.403 304.52 195.184C302.854 196 300.69 196 296.36 196H199V181.64Z" fill="#EAE1E1"/>
<rect x="205" y="175" width="98" height="3" rx="1.5" fill="#D3C5C5"/>
<rect x="205" y="181" width="98" height="3" rx="1.5" fill="#D3C5C5"/>
<rect x="205" y="187" width="30" height="3" rx="1.5" fill="#D3C5C5"/>
<g clip-path="url(#clip3_888_3782)">
<ellipse cx="188" cy="127" rx="7.00016" ry="7" fill="#A38F8F"/>
<mask id="mask2_888_3782" style="mask-type:alpha" maskUnits="userSpaceOnUse" x="183" y="122" width="10" height="10">
<rect width="8.89295" height="8.89275" transform="matrix(1 0 -1.06328e-06 1 183.538 122.745)" fill="#D9D9D9"/>
</mask>
<g mask="url(#mask2_888_3782)">
<path d="M187.985 129.229C188.312 129.229 188.622 129.158 188.916 129.016C189.209 128.874 189.445 128.667 189.624 128.395C189.692 128.29 189.702 128.187 189.652 128.085C189.603 127.983 189.522 127.932 189.411 127.932C189.362 127.932 189.317 127.943 189.277 127.964C189.237 127.986 189.204 128.018 189.18 128.062C189.038 128.253 188.862 128.403 188.652 128.511C188.442 128.619 188.219 128.673 187.985 128.673C187.75 128.673 187.528 128.619 187.318 128.511C187.108 128.403 186.932 128.253 186.79 128.062C186.759 128.018 186.723 127.986 186.683 127.964C186.643 127.943 186.598 127.932 186.549 127.932C186.438 127.932 186.357 127.981 186.308 128.08C186.259 128.179 186.268 128.278 186.336 128.377C186.515 128.655 186.751 128.866 187.044 129.011C187.338 129.156 187.651 129.229 187.985 129.229ZM189.282 126.82C189.436 126.82 189.567 126.766 189.675 126.658C189.783 126.55 189.837 126.419 189.837 126.265C189.837 126.11 189.783 125.979 189.675 125.871C189.567 125.763 189.436 125.709 189.282 125.709C189.127 125.709 188.996 125.763 188.888 125.871C188.78 125.979 188.726 126.11 188.726 126.265C188.726 126.419 188.78 126.55 188.888 126.658C188.996 126.766 189.127 126.82 189.282 126.82ZM186.688 126.82C186.842 126.82 186.973 126.766 187.081 126.658C187.19 126.55 187.244 126.419 187.244 126.265C187.244 126.11 187.19 125.979 187.081 125.871C186.973 125.763 186.842 125.709 186.688 125.709C186.533 125.709 186.402 125.763 186.294 125.871C186.186 125.979 186.132 126.11 186.132 126.265C186.132 126.419 186.186 126.55 186.294 126.658C186.402 126.766 186.533 126.82 186.688 126.82ZM187.985 130.896C187.472 130.896 186.99 130.799 186.54 130.604C186.089 130.41 185.697 130.146 185.363 129.812C185.03 129.479 184.766 129.087 184.571 128.636C184.377 128.185 184.279 127.703 184.279 127.191C184.279 126.678 184.377 126.197 184.571 125.746C184.766 125.295 185.03 124.903 185.363 124.569C185.697 124.236 186.089 123.972 186.54 123.777C186.99 123.583 187.472 123.486 187.985 123.486C188.497 123.486 188.979 123.583 189.43 123.777C189.881 123.972 190.273 124.236 190.606 124.569C190.94 124.903 191.204 125.295 191.398 125.746C191.593 126.197 191.69 126.678 191.69 127.191C191.69 127.703 191.593 128.185 191.398 128.636C191.204 129.087 190.94 129.479 190.606 129.812C190.273 130.146 189.881 130.41 189.43 130.604C188.979 130.799 188.497 130.896 187.985 130.896Z" fill="#EAE1E1"/>
</g>
</g>
<path d="M199 131.64C199 127.31 199 125.146 199.816 123.48C200.597 121.886 201.886 120.597 203.48 119.816C205.146 119 207.31 119 211.64 119H248.5C252.642 119 256 122.358 256 126.5C256 130.642 252.642 134 248.5 134H199V131.64Z" fill="#EAE1E1"/>
<rect x="205" y="125" width="40" height="3" rx="1.5" fill="#D3C5C5"/>
<path d="M244.1 216.5C244.1 214.17 244.101 213.023 244.337 212.08C245.045 209.253 247.253 207.045 250.08 206.337C251.023 206.101 252.17 206.1 254.5 206.1H302.36C304.526 206.1 306.145 206.1 307.431 206.202C308.716 206.303 309.659 206.506 310.476 206.906C312.05 207.677 313.323 208.95 314.094 210.524C314.494 211.341 314.697 212.284 314.798 213.569C314.9 214.855 314.9 216.474 314.9 218.64V226.9H254.5C252.17 226.9 251.023 226.899 250.08 226.663C247.253 225.955 245.045 223.747 244.337 220.92C244.101 219.977 244.1 218.83 244.1 216.5Z" fill="white"/>
<path d="M244.1 216.5C244.1 214.17 244.101 213.023 244.337 212.08C245.045 209.253 247.253 207.045 250.08 206.337C251.023 206.101 252.17 206.1 254.5 206.1H302.36C304.526 206.1 306.145 206.1 307.431 206.202C308.716 206.303 309.659 206.506 310.476 206.906C312.05 207.677 313.323 208.95 314.094 210.524C314.494 211.341 314.697 212.284 314.798 213.569C314.9 214.855 314.9 216.474 314.9 218.64V226.9H254.5C252.17 226.9 251.023 226.899 250.08 226.663C247.253 225.955 245.045 223.747 244.337 220.92C244.101 219.977 244.1 218.83 244.1 216.5Z" stroke="#D3C5C5" stroke-width="0.2"/>
<rect x="250" y="212" width="59" height="3" rx="1.5" fill="#D3C5C5"/>
<rect x="274" y="218" width="35" height="3" rx="1.5" fill="#D3C5C5"/>
<path d="M332.819 220C332.819 223.766 329.766 226.819 326 226.819C322.234 226.819 319.181 223.766 319.181 220C319.181 216.234 322.234 213.181 326 213.181C329.766 213.181 332.819 216.234 332.819 220Z" fill="white" stroke="#EAE1E1" stroke-width="0.36141"/>
<path fill-rule="evenodd" clip-rule="evenodd" d="M323.987 216.52L322.127 219.999L323.987 223.479L328.066 223.479L329.926 219.999L328.066 216.52L323.987 216.52ZM328.486 215.8L323.567 215.8L321.287 219.999L323.567 224.199L328.486 224.199L330.766 219.999L328.486 215.8Z" fill="#0D160B"/>
<path d="M329.925 220L330.765 220L328.485 224.2L328.065 223.48L329.925 220Z" fill="#EE2329"/>
<path d="M322.127 219.999L321.288 219.999L323.567 215.799L323.987 216.519L322.127 219.999Z" fill="#EE2329"/>
<path fill-rule="evenodd" clip-rule="evenodd" d="M326.806 219.398L326.806 220.599L325.246 220.599L325.246 219.399L324.646 219.399L324.646 222.219L325.246 222.219L325.246 221.198L328.247 221.198L328.247 220.599L327.405 220.599L327.405 217.779L326.806 217.779L326.806 218.798L323.806 218.798L323.806 219.398L326.806 219.398Z" fill="#0D160B"/>
<rect width="0.599941" height="0.599943" transform="matrix(1 -1.36378e-09 -1.06135e-06 1 324.646 217.779)" fill="#EE2329"/>
<rect width="0.599941" height="0.599943" transform="matrix(1 -1.36378e-09 -1.06135e-06 1 326.807 221.619)" fill="#EE2329"/>
<path d="M244.1 151.5C244.1 147.413 247.413 144.1 251.5 144.1H302.36C304.526 144.1 306.145 144.1 307.431 144.202C308.716 144.303 309.659 144.506 310.476 144.906C312.05 145.677 313.323 146.95 314.094 148.524C314.494 149.341 314.697 150.284 314.798 151.569C314.9 152.855 314.9 154.474 314.9 156.64V158.9H251.5C247.413 158.9 244.1 155.587 244.1 151.5Z" fill="white"/>
<path d="M244.1 151.5C244.1 147.413 247.413 144.1 251.5 144.1H302.36C304.526 144.1 306.145 144.1 307.431 144.202C308.716 144.303 309.659 144.506 310.476 144.906C312.05 145.677 313.323 146.95 314.094 148.524C314.494 149.341 314.697 150.284 314.798 151.569C314.9 152.855 314.9 154.474 314.9 156.64V158.9H251.5C247.413 158.9 244.1 155.587 244.1 151.5Z" stroke="#D3C5C5" stroke-width="0.2"/>
<rect x="250" y="150" width="59" height="3" rx="1.5" fill="#D3C5C5"/>
<path d="M332.819 152C332.819 155.766 329.766 158.819 326 158.819C322.234 158.819 319.181 155.766 319.181 152C319.181 148.234 322.234 145.181 326 145.181C329.766 145.181 332.819 148.234 332.819 152Z" fill="white" stroke="#EAE1E1" stroke-width="0.36141"/>
<path fill-rule="evenodd" clip-rule="evenodd" d="M323.987 148.52L322.127 151.999L323.987 155.479L328.066 155.479L329.926 151.999L328.066 148.52L323.987 148.52ZM328.486 147.8L323.567 147.8L321.287 151.999L323.567 156.199L328.486 156.199L330.766 151.999L328.486 147.8Z" fill="#0D160B"/>
<path d="M329.925 152L330.765 152L328.485 156.2L328.065 155.48L329.925 152Z" fill="#EE2329"/>
<path d="M322.127 151.999L321.288 151.999L323.567 147.799L323.987 148.519L322.127 151.999Z" fill="#EE2329"/>
<path fill-rule="evenodd" clip-rule="evenodd" d="M326.806 151.398L326.806 152.599L325.246 152.599L325.246 151.399L324.646 151.399L324.646 154.219L325.246 154.219L325.246 153.198L328.247 153.198L328.247 152.599L327.405 152.599L327.405 149.779L326.806 149.779L326.806 150.798L323.806 150.798L323.806 151.398L326.806 151.398Z" fill="#0D160B"/>
<rect width="0.599941" height="0.599943" transform="matrix(1 -1.36378e-09 -1.06135e-06 1 324.646 149.779)" fill="#EE2329"/>
<rect width="0.599941" height="0.599943" transform="matrix(1 -1.36378e-09 -1.06135e-06 1 326.807 153.619)" fill="#EE2329"/>
</g>
<defs>
<filter id="filter0_d_888_3782" x="107.378" y="242.156" width="185.912" height="73.8721" filterUnits="userSpaceOnUse" color-interpolation-filters="sRGB">
<feFlood flood-opacity="0" result="BackgroundImageFix"/>
<feColorMatrix in="SourceAlpha" type="matrix" values="0 0 0 0 0 0 0 0 0 0 0 0 0 0 0 0 0 0 127 0" result="hardAlpha"/>
<feOffset dy="3.46608"/>
<feGaussianBlur stdDeviation="3.46608"/>
<feComposite in2="hardAlpha" operator="out"/>
<feColorMatrix type="matrix" values="0 0 0 0 0.0941176 0 0 0 0 0.0627451 0 0 0 0 0.0627451 0 0 0 0.24 0"/>
<feBlend mode="normal" in2="BackgroundImageFix" result="effect1_dropShadow_888_3782"/>
<feBlend mode="normal" in="SourceGraphic" in2="effect1_dropShadow_888_3782" result="shape"/>
</filter>
<filter id="filter1_d_888_3782" x="211.326" y="304.11" width="150.448" height="62.5941" filterUnits="userSpaceOnUse" color-interpolation-filters="sRGB">
<feFlood flood-opacity="0" result="BackgroundImageFix"/>
<feColorMatrix in="SourceAlpha" type="matrix" values="0 0 0 0 0 0 0 0 0 0 0 0 0 0 0 0 0 0 127 0" result="hardAlpha"/>
<feOffset dy="1.73304"/>
<feGaussianBlur stdDeviation="6.93215"/>
<feComposite in2="hardAlpha" operator="out"/>
<feColorMatrix type="matrix" values="0 0 0 0 0.0941176 0 0 0 0 0.0627451 0 0 0 0 0.0627451 0 0 0 0.24 0"/>
<feBlend mode="normal" in2="BackgroundImageFix" result="effect1_dropShadow_888_3782"/>
<feBlend mode="normal" in="SourceGraphic" in2="effect1_dropShadow_888_3782" result="shape"/>
</filter>
<radialGradient id="paint0_radial_888_3782" cx="0" cy="0" r="1" gradientUnits="userSpaceOnUse" gradientTransform="translate(251.854 232.354) rotate(42.1719) scale(265.134 224.211)">
<stop stop-color="white" stop-opacity="0.3"/>
<stop offset="1" stop-color="white" stop-opacity="0"/>
</radialGradient>
<clipPath id="clip0_888_3782">
<rect width="515" height="449" fill="white"/>
</clipPath>
<clipPath id="clip1_888_3782">
<rect width="16" height="15.9996" fill="white" transform="matrix(1 -1.40416e-09 -1.06141e-06 1 181 77)"/>
</clipPath>
<clipPath id="clip2_888_3782">
<rect width="14" height="13.9997" fill="white" transform="matrix(1 -1.40416e-09 -1.06141e-06 1 181 182)"/>
</clipPath>
<clipPath id="clip3_888_3782">
<rect width="14" height="13.9997" fill="white" transform="matrix(1 -1.40416e-09 -1.06141e-06 1 181 120)"/>
</clipPath>
</defs>
</svg>
