<svg width="562" height="450" viewBox="0 0 562 450" fill="none" xmlns="http://www.w3.org/2000/svg">
<g clip-path="url(#clip0_415_238)">
<path d="M557.086 212.209C559.778 216.869 561.124 219.199 561.65 221.676C562.117 223.867 562.117 226.132 561.65 228.324C561.124 230.801 559.778 233.131 557.086 237.79L441.877 437.209C439.185 441.869 437.839 444.199 435.956 445.893C434.29 447.392 432.327 448.525 430.195 449.217C427.785 450 425.093 450 419.709 450L189.291 450C183.907 450 181.215 450 178.805 449.217C176.673 448.525 174.71 447.392 173.044 445.893C171.161 444.199 169.815 441.869 167.123 437.209L51.9144 237.79C49.2225 233.131 47.8765 230.801 47.3496 228.324C46.8835 226.132 46.8835 223.867 47.3496 221.676C47.8765 219.199 49.2225 216.869 51.9144 212.209L167.123 12.7903C169.815 8.13062 171.161 5.80081 173.044 4.10638C174.71 2.60715 176.673 1.47463 178.805 0.782256C181.215 -0.000260309 183.907 -0.000260668 189.291 -0.000260432L419.709 -0.00025036C425.093 -0.000250125 427.785 -0.000249531 430.195 0.782267C432.327 1.47464 434.29 2.60716 435.956 4.10639C437.839 5.80082 439.185 8.13064 441.877 12.7903L557.086 212.209Z" fill="#181010"/>
<path fill-rule="evenodd" clip-rule="evenodd" d="M263.867 -157.293L263.514 -156.939L285.434 -135.019L285.787 -135.372L286.494 -134.665L286.141 -134.312L308.062 -112.391L308.415 -112.745L309.122 -112.038L308.769 -111.684L330.689 -89.7641L331.042 -90.1174L331.749 -89.4103L331.396 -89.057L353.316 -67.1364L353.67 -67.49L354.377 -66.7829L354.024 -66.4293L375.944 -44.5092L376.297 -44.8625L377.004 -44.1554L376.651 -43.8021L398.571 -21.8815L398.925 -22.2351L399.632 -21.528L399.278 -21.1744L421.199 0.745672L421.552 0.392377L422.259 1.09948L421.906 1.45278L443.826 23.3734L444.18 23.0198L444.887 23.7269L444.533 24.0805L466.453 46.0006L466.807 45.6473L467.514 46.3544L467.161 46.7077L489.081 68.628L489.435 68.2742L490.142 68.9813L489.788 69.3351L511.708 91.2552L512.062 90.9016L512.769 91.6088L512.415 91.9623L534.336 113.883L534.69 113.529L535.397 114.236L535.043 114.59L556.963 136.51L557.316 136.157L558.024 136.864L557.67 137.217L579.591 159.138L579.944 158.784L580.652 159.491L580.298 159.845L602.218 181.765L602.571 181.411L603.278 182.119L602.925 182.472L624.846 204.393L625.199 204.039L625.906 204.746L625.553 205.1L647.473 227.02L647.826 226.666L648.533 227.373L648.18 227.727L670.1 249.648L670.454 249.294L671.161 250.001L670.808 250.355L692.728 272.275L693.081 271.921L693.788 272.628L329.628 636.788L328.921 636.081L329.982 635.021L308.062 613.101L307.001 614.161L306.294 613.454L307.354 612.393L285.434 590.473L284.373 591.533L283.666 590.826L284.727 589.766L262.807 567.846L261.746 568.906L261.039 568.199L262.1 567.139L240.179 545.218L239.118 546.279L238.411 545.571L239.472 544.511L217.552 522.591L216.492 523.651L215.784 522.944L216.845 521.884L194.924 499.963L193.864 501.024L193.156 500.317L194.217 499.256L172.297 477.336L171.237 478.396L170.53 477.689L171.59 476.629L149.669 454.708L148.609 455.769L147.902 455.062L148.962 454.001L127.042 432.081L125.982 433.141L125.275 432.434L126.335 431.374L104.415 409.454L103.354 410.514L102.647 409.807L103.707 408.746L81.7874 386.826L80.7269 387.887L80.0198 387.18L81.0803 386.119L59.1597 364.199L58.0989 365.259L57.3918 364.552L58.4526 363.492L36.5325 341.572L35.472 342.632L34.7649 341.925L35.8254 340.864L13.9048 318.944L12.8441 320.005L12.137 319.297L13.1977 318.237L-8.72238 296.317L-9.78289 297.377L-10.49 296.67L-9.42948 295.61L-31.3501 273.689L-32.4108 274.75L-33.1179 274.043L-32.0572 272.982L-53.9773 251.062L-55.0378 252.122L-55.7449 251.415L-54.6844 250.355L-76.6049 228.434L-77.6657 229.495L-78.3728 228.788L-77.312 227.727L-99.2321 205.807L-100.293 206.867L-101 206.16L263.16 -158L263.867 -157.293ZM330.689 634.314L352.609 612.393L330.689 590.473L308.769 612.393L330.689 634.314ZM353.316 611.686L375.237 589.766L353.316 567.846L331.396 589.766L353.316 611.686ZM375.944 589.059L397.864 567.138L375.944 545.218L354.024 567.139L375.944 589.059ZM398.571 566.431L420.491 544.511L398.571 522.591L376.651 544.511L398.571 566.431ZM421.199 543.804L443.119 521.883L421.199 499.963L399.278 521.884L421.199 543.804ZM443.826 521.176L465.746 499.256L443.826 477.336L421.906 499.256L443.826 521.176ZM466.453 498.549L488.374 476.629L466.453 454.709L444.533 476.629L466.453 498.549ZM489.081 475.922L511.001 454.001L489.081 432.081L467.161 454.002L489.081 475.922ZM511.708 453.294L533.628 431.374L511.708 409.454L489.788 431.374L511.708 453.294ZM534.335 430.667L556.256 408.746L534.336 386.826L512.415 408.747L534.335 430.667ZM556.963 408.039L578.883 386.119L556.963 364.199L535.043 386.119L556.963 408.039ZM579.59 385.412L601.511 363.491L579.591 341.571L557.67 363.492L579.59 385.412ZM602.218 362.784L624.138 340.864L602.218 318.944L580.298 340.864L602.218 362.784ZM624.845 340.157L646.766 318.237L624.846 296.316L602.925 318.237L624.845 340.157ZM647.473 317.529L669.393 295.609L647.473 273.689L625.553 295.609L647.473 317.529ZM670.1 294.902L692.021 272.982L670.1 251.062L648.18 272.982L670.1 294.902ZM647.473 228.434L669.393 250.355L647.473 272.275L625.552 250.354L647.473 228.434ZM624.845 251.062L646.766 272.982L624.846 294.902L602.925 272.982L624.845 251.062ZM602.218 273.689L624.139 295.609L602.218 317.53L580.297 295.609L602.218 273.689ZM579.59 296.316L601.511 318.237L579.591 340.157L557.67 318.236L579.59 296.316ZM556.963 318.944L578.884 340.864L556.963 362.785L535.043 340.864L556.963 318.944ZM534.335 341.571L556.256 363.492L534.336 385.412L512.415 363.491L534.335 341.571ZM511.708 364.198L533.629 386.119L511.708 408.04L489.788 386.119L511.708 364.198ZM489.081 386.826L511.001 408.747L489.081 430.667L467.16 408.746L489.081 386.826ZM466.453 409.453L488.374 431.374L466.453 453.295L444.533 431.374L466.453 409.453ZM443.826 432.081L465.746 454.002L443.826 475.922L421.906 454.001L443.826 432.081ZM421.199 454.708L443.119 476.629L421.199 498.549L399.278 476.628L421.199 454.708ZM398.571 477.335L420.492 499.256L398.571 521.177L376.651 499.256L398.571 477.335ZM375.944 499.963L397.864 521.884L375.944 543.804L354.024 521.883L375.944 499.963ZM353.316 522.59L375.237 544.511L353.316 566.431L331.396 544.511L353.316 522.59ZM330.689 545.218L352.609 567.139L330.689 589.059L308.769 567.138L330.689 545.218ZM308.062 567.845L329.982 589.766L308.062 611.686L286.141 589.766L308.062 567.845ZM285.434 589.059L307.354 567.138L285.434 545.218L263.514 567.139L285.434 589.059ZM308.062 566.431L329.982 544.511L308.062 522.591L286.141 544.511L308.062 566.431ZM330.689 543.804L352.609 521.883L330.689 499.963L308.769 521.884L330.689 543.804ZM353.316 521.176L375.237 499.256L353.316 477.336L331.396 499.256L353.316 521.176ZM375.944 498.549L397.864 476.628L375.944 454.708L354.024 476.629L375.944 498.549ZM398.571 475.921L420.491 454.001L398.571 432.081L376.651 454.001L398.571 475.921ZM421.199 453.294L443.119 431.374L421.199 409.454L399.278 431.374L421.199 453.294ZM443.826 430.667L465.746 408.746L443.826 386.826L421.906 408.747L443.826 430.667ZM466.453 408.039L488.373 386.119L466.453 364.199L444.533 386.119L466.453 408.039ZM489.081 385.412L511.001 363.491L489.081 341.571L467.161 363.492L489.081 385.412ZM511.708 362.784L533.628 340.864L511.708 318.944L489.788 340.864L511.708 362.784ZM534.335 340.157L556.256 318.236L534.336 296.316L512.415 318.237L534.335 340.157ZM556.963 317.529L578.883 295.609L556.963 273.689L535.043 295.609L556.963 317.529ZM579.59 294.902L601.511 272.982L579.591 251.062L557.67 272.982L579.59 294.902ZM602.218 272.274L624.138 250.354L602.218 228.434L580.298 250.354L602.218 272.274ZM624.845 249.647L646.766 227.727L624.846 205.807L602.925 227.727L624.845 249.647ZM602.218 183.179L624.138 205.1L602.218 227.02L580.297 205.1L602.218 183.179ZM579.59 205.807L601.511 227.727L579.591 249.647L557.67 227.727L579.59 205.807ZM556.963 228.434L578.884 250.354L556.963 272.275L535.043 250.354L556.963 228.434ZM534.335 251.062L556.256 272.982L534.336 294.902L512.415 272.982L534.335 251.062ZM511.708 273.689L533.629 295.609L511.708 317.53L489.788 295.609L511.708 273.689ZM489.081 296.316L511.001 318.237L489.081 340.157L467.161 318.237L489.081 296.316ZM466.453 318.944L488.374 340.864L466.453 362.785L444.533 340.864L466.453 318.944ZM443.826 341.571L465.746 363.492L443.826 385.412L421.906 363.491L443.826 341.571ZM421.199 364.198L443.119 386.119L421.199 408.04L399.278 386.119L421.199 364.198ZM398.571 386.826L420.491 408.747L398.571 430.667L376.651 408.746L398.571 386.826ZM375.944 409.453L397.864 431.374L375.944 453.294L354.024 431.373L375.944 409.453ZM353.316 432.081L375.237 454.001L353.316 475.922L331.396 454.001L353.316 432.081ZM330.689 454.708L352.609 476.629L330.689 498.549L308.769 476.628L330.689 454.708ZM308.062 477.335L329.982 499.256L308.062 521.177L286.141 499.256L308.062 477.335ZM285.434 499.963L307.354 521.884L285.434 543.804L263.514 521.883L285.434 499.963ZM262.807 522.59L284.727 544.511L262.807 566.432L240.886 544.511L262.807 522.59ZM240.179 543.804L262.1 521.883L240.179 499.963L218.259 521.884L240.179 543.804ZM262.807 521.176L284.727 499.256L262.807 477.336L240.887 499.256L262.807 521.176ZM285.434 498.549L307.354 476.628L285.434 454.708L263.514 476.629L285.434 498.549ZM308.062 475.921L329.982 454.001L308.062 432.081L286.141 454.001L308.062 475.921ZM330.689 453.294L352.609 431.373L330.689 409.453L308.769 431.374L330.689 453.294ZM353.316 430.666L375.237 408.746L353.316 386.826L331.396 408.746L353.316 430.666ZM375.944 408.039L397.864 386.119L375.944 364.199L354.024 386.119L375.944 408.039ZM398.571 385.412L420.491 363.491L398.571 341.571L376.651 363.492L398.571 385.412ZM421.199 362.784L443.119 340.864L421.199 318.944L399.278 340.864L421.199 362.784ZM443.826 340.157L465.746 318.237L443.826 296.316L421.906 318.237L443.826 340.157ZM466.453 317.529L488.373 295.609L466.453 273.689L444.533 295.609L466.453 317.529ZM489.081 294.902L511.001 272.982L489.081 251.062L467.161 272.982L489.081 294.902ZM511.708 272.275L533.628 250.354L511.708 228.434L489.788 250.354L511.708 272.275ZM534.335 249.647L556.256 227.727L534.336 205.807L512.415 227.727L534.335 249.647ZM556.963 227.02L578.883 205.1L556.963 183.179L535.043 205.1L556.963 227.02ZM579.59 204.392L601.511 182.472L579.591 160.552L557.67 182.472L579.59 204.392ZM556.963 137.924L578.884 159.845L556.963 181.765L535.043 159.845L556.963 137.924ZM534.335 160.552L556.256 182.472L534.336 204.392L512.415 182.472L534.335 160.552ZM511.708 183.179L533.629 205.1L511.708 227.02L489.788 205.1L511.708 183.179ZM489.081 205.807L511.001 227.727L489.081 249.647L467.161 227.727L489.081 205.807ZM466.453 228.434L488.374 250.354L466.453 272.275L444.533 250.354L466.453 228.434ZM443.826 251.062L465.746 272.982L443.826 294.902L421.906 272.982L443.826 251.062ZM421.199 273.689L443.119 295.609L421.199 317.53L399.278 295.609L421.199 273.689ZM398.571 296.316L420.491 318.237L398.571 340.157L376.651 318.236L398.571 296.316ZM375.944 318.944L397.864 340.864L375.944 362.785L354.023 340.864L375.944 318.944ZM353.316 341.571L375.237 363.492L353.316 385.412L331.396 363.491L353.316 341.571ZM330.689 364.198L352.609 386.119L330.689 408.039L308.769 386.119L330.689 364.198ZM308.062 386.826L329.982 408.746L308.062 430.667L286.141 408.746L308.062 386.826ZM285.434 409.453L307.354 431.374L285.434 453.294L263.514 431.373L285.434 409.453ZM262.807 432.081L284.727 454.001L262.807 475.922L240.886 454.001L262.807 432.081ZM240.179 454.708L262.1 476.629L240.179 498.549L218.259 476.628L240.179 454.708ZM217.552 477.335L239.472 499.256L217.552 521.177L195.631 499.256L217.552 477.335ZM194.924 498.549L216.845 476.628L194.925 454.708L173.004 476.629L194.924 498.549ZM217.552 475.921L239.472 454.001L217.552 432.081L195.632 454.001L217.552 475.921ZM240.179 453.294L262.1 431.373L240.179 409.453L218.259 431.374L240.179 453.294ZM262.807 430.666L284.727 408.746L262.807 386.826L240.887 408.746L262.807 430.666ZM285.434 408.039L307.354 386.119L285.434 364.198L263.514 386.119L285.434 408.039ZM308.062 385.411L329.982 363.491L308.062 341.571L286.141 363.491L308.062 385.411ZM330.689 362.784L352.609 340.864L330.689 318.944L308.769 340.864L330.689 362.784ZM353.316 340.157L375.237 318.236L353.316 296.316L331.396 318.237L353.316 340.157ZM375.944 317.529L397.864 295.609L375.944 273.689L354.024 295.609L375.944 317.529ZM398.571 294.902L420.491 272.982L398.571 251.062L376.651 272.982L398.571 294.902ZM421.199 272.275L443.119 250.354L421.199 228.434L399.278 250.354L421.199 272.275ZM443.826 249.647L465.746 227.727L443.826 205.807L421.906 227.727L443.826 249.647ZM466.453 227.02L488.373 205.1L466.453 183.179L444.533 205.1L466.453 227.02ZM489.081 204.392L511.001 182.472L489.081 160.552L467.161 182.472L489.081 204.392ZM511.708 181.765L533.628 159.845L511.708 137.925L489.788 159.845L511.708 181.765ZM534.335 159.138L556.256 137.217L534.336 115.297L512.415 137.217L534.335 159.138ZM511.708 92.6694L533.629 114.59L511.708 136.51L489.788 114.59L511.708 92.6694ZM489.081 115.297L511.001 137.217L489.081 159.138L467.161 137.217L489.081 115.297ZM466.453 137.924L488.374 159.845L466.453 181.765L444.533 159.845L466.453 137.924ZM443.826 160.552L465.746 182.472L443.826 204.392L421.906 182.472L443.826 160.552ZM421.199 183.179L443.119 205.1L421.199 227.02L399.278 205.1L421.199 183.179ZM398.571 205.807L420.491 227.727L398.571 249.647L376.651 227.727L398.571 205.807ZM375.944 228.434L397.864 250.354L375.944 272.275L354.023 250.354L375.944 228.434ZM353.316 251.062L375.237 272.982L353.316 294.902L331.396 272.982L353.316 251.062ZM330.689 273.689L352.609 295.609L330.689 317.53L308.768 295.609L330.689 273.689ZM308.061 296.316L329.982 318.237L308.062 340.157L286.141 318.236L308.061 296.316ZM285.434 318.944L307.354 340.864L285.434 362.784L263.514 340.864L285.434 318.944ZM262.807 341.571L284.727 363.491L262.807 385.412L240.886 363.491L262.807 341.571ZM240.179 364.198L262.1 386.119L240.179 408.039L218.259 386.119L240.179 364.198ZM217.552 386.826L239.472 408.746L217.552 430.667L195.631 408.746L217.552 386.826ZM194.924 409.453L216.845 431.374L194.925 453.294L173.004 431.373L194.924 409.453ZM172.297 432.081L194.217 454.001L172.297 475.922L150.376 454.001L172.297 432.081ZM149.669 453.294L171.59 431.373L149.67 409.453L127.749 431.374L149.669 453.294ZM172.297 430.666L194.217 408.746L172.297 386.826L150.377 408.746L172.297 430.666ZM194.924 408.039L216.845 386.119L194.925 364.198L173.004 386.119L194.924 408.039ZM217.552 385.411L239.472 363.491L217.552 341.571L195.632 363.491L217.552 385.411ZM240.179 362.784L262.1 340.864L240.179 318.944L218.259 340.864L240.179 362.784ZM262.807 340.157L284.727 318.236L262.807 296.316L240.887 318.236L262.807 340.157ZM285.434 317.529L307.354 295.609L285.434 273.689L263.514 295.609L285.434 317.529ZM308.061 294.902L329.982 272.982L308.062 251.062L286.141 272.982L308.061 294.902ZM330.689 272.275L352.609 250.354L330.689 228.434L308.769 250.354L330.689 272.275ZM353.316 249.647L375.237 227.727L353.316 205.807L331.396 227.727L353.316 249.647ZM375.944 227.02L397.864 205.1L375.944 183.179L354.024 205.1L375.944 227.02ZM398.571 204.392L420.491 182.472L398.571 160.552L376.651 182.472L398.571 204.392ZM421.199 181.765L443.119 159.845L421.199 137.925L399.278 159.845L421.199 181.765ZM443.826 159.138L465.746 137.217L443.826 115.297L421.906 137.217L443.826 159.138ZM466.453 136.51L488.373 114.59L466.453 92.6697L444.533 114.59L466.453 136.51ZM489.081 113.883L511.001 91.9623L489.081 70.0422L467.161 91.9626L489.081 113.883ZM466.453 47.4148L488.374 69.3351L466.453 91.2555L444.533 69.3351L466.453 47.4148ZM443.826 70.0422L465.746 91.9626L443.826 113.883L421.906 91.9623L443.826 70.0422ZM421.199 92.6694L443.119 114.59L421.199 136.51L399.278 114.59L421.199 92.6694ZM398.571 115.297L420.491 137.217L398.571 159.138L376.651 137.217L398.571 115.297ZM375.944 137.924L397.864 159.845L375.944 181.765L354.023 159.845L375.944 137.924ZM353.316 160.552L375.237 182.472L353.316 204.392L331.396 182.472L353.316 160.552ZM330.689 183.179L352.609 205.1L330.689 227.02L308.768 205.1L330.689 183.179ZM308.061 205.807L329.982 227.727L308.062 249.647L286.141 227.727L308.061 205.807ZM285.434 228.434L307.354 250.354L285.434 272.275L263.514 250.355L285.434 228.434ZM262.806 251.062L284.727 272.982L262.807 294.902L240.886 272.982L262.806 251.062ZM240.179 273.689L262.1 295.609L240.179 317.529L218.259 295.609L240.179 273.689ZM217.552 296.316L239.472 318.236L217.552 340.157L195.631 318.237L217.552 296.316ZM194.924 318.944L216.845 340.864L194.925 362.784L173.004 340.864L194.924 318.944ZM172.297 341.571L194.217 363.491L172.297 385.412L150.377 363.492L172.297 341.571ZM149.669 364.199L171.59 386.119L149.67 408.039L127.749 386.119L149.669 364.199ZM127.042 386.826L148.963 408.746L127.042 430.667L105.122 408.746L127.042 386.826ZM104.415 408.039L126.335 386.119L104.415 364.199L82.4945 386.119L104.415 408.039ZM127.042 385.412L148.962 363.492L127.042 341.572L105.122 363.492L127.042 385.412ZM149.669 362.785L171.59 340.864L149.67 318.944L127.749 340.864L149.669 362.785ZM172.297 340.157L194.217 318.237L172.297 296.317L150.377 318.237L172.297 340.157ZM194.924 317.53L216.845 295.609L194.925 273.689L173.004 295.61L194.924 317.53ZM217.552 294.902L239.472 272.982L217.552 251.062L195.632 272.982L217.552 294.902ZM240.179 272.275L262.099 250.355L240.179 228.435L218.259 250.355L240.179 272.275ZM262.806 249.648L284.727 227.727L262.807 205.807L240.886 227.727L262.806 249.648ZM285.434 227.02L307.354 205.1L285.434 183.18L263.514 205.1L285.434 227.02ZM308.061 204.393L329.982 182.472L308.062 160.552L286.141 182.473L308.061 204.393ZM330.689 181.765L352.609 159.845L330.689 137.925L308.769 159.845L330.689 181.765ZM353.316 159.138L375.237 137.217L353.317 115.297L331.396 137.218L353.316 159.138ZM375.944 136.51L397.864 114.59L375.944 92.6699L354.024 114.59L375.944 136.51ZM398.571 113.883L420.492 91.9623L398.572 70.0422L376.651 91.9628L398.571 113.883ZM421.199 91.2552L443.119 69.3351L421.199 47.415L399.279 69.3351L421.199 91.2552ZM443.826 68.628L465.746 46.7077L443.826 24.7876L421.906 46.7079L443.826 68.628ZM421.199 2.15989L443.119 24.0805L421.199 46.0008L399.278 24.0802L421.199 2.15989ZM398.571 24.7873L420.492 46.7079L398.572 68.628L376.651 46.7074L398.571 24.7873ZM375.944 47.4145L397.864 69.3351L375.944 91.2557L354.023 69.3351L375.944 47.4145ZM353.316 70.0422L375.237 91.9628L353.317 113.883L331.396 91.9623L353.316 70.0422ZM330.689 92.6694L352.61 114.59L330.689 136.511L308.768 114.59L330.689 92.6694ZM308.061 115.297L329.982 137.218L308.062 159.138L286.141 137.217L308.061 115.297ZM285.434 137.924L307.355 159.845L285.434 181.765L263.514 159.845L285.434 137.924ZM262.806 160.552L284.727 182.473L262.807 204.393L240.886 182.472L262.806 160.552ZM240.179 183.179L262.1 205.1L240.179 227.02L218.259 205.1L240.179 183.179ZM217.552 205.807L239.472 227.727L217.552 249.648L195.631 227.727L217.552 205.807ZM194.924 228.434L216.845 250.355L194.925 272.275L173.004 250.354L194.924 228.434ZM172.297 251.061L194.218 272.982L172.297 294.902L150.377 272.982L172.297 251.061ZM149.669 273.689L171.59 295.61L149.67 317.53L127.749 295.609L149.669 273.689ZM127.042 296.316L148.963 318.237L127.042 340.157L105.122 318.237L127.042 296.316ZM104.415 318.944L126.335 340.864L104.415 362.785L82.4945 340.864L104.415 318.944ZM81.7874 341.571L103.708 363.492L81.7874 385.412L59.8668 363.492L81.7874 341.571ZM59.1597 362.785L81.0803 340.864L59.1602 318.944L37.2396 340.864L59.1597 362.785ZM81.7874 340.157L103.707 318.237L81.7874 296.317L59.8673 318.237L81.7874 340.157ZM104.415 317.53L126.335 295.609L104.415 273.689L82.4945 295.61L104.415 317.53ZM127.042 294.902L148.962 272.982L127.042 251.062L105.122 272.982L127.042 294.902ZM149.669 272.275L171.59 250.354L149.67 228.434L127.749 250.355L149.669 272.275ZM172.297 249.647L194.217 227.727L172.297 205.807L150.377 227.727L172.297 249.647ZM194.924 227.02L216.844 205.1L194.924 183.18L173.004 205.1L194.924 227.02ZM217.552 204.393L239.472 182.472L217.552 160.552L195.631 182.473L217.552 204.393ZM240.179 181.765L262.099 159.845L240.179 137.925L218.259 159.845L240.179 181.765ZM262.806 159.138L284.727 137.217L262.807 115.297L240.886 137.218L262.806 159.138ZM285.434 136.51L307.354 114.59L285.434 92.6699L263.514 114.59L285.434 136.51ZM308.061 113.883L329.982 91.9623L308.062 70.0422L286.141 91.9628L308.061 113.883ZM330.689 91.2552L352.609 69.3351L330.689 47.415L308.769 69.3351L330.689 91.2552ZM353.316 68.628L375.237 46.7074L353.317 24.7874L331.396 46.7079L353.316 68.628ZM375.944 46.0003L397.864 24.0802L375.944 2.16015L354.024 24.0802L375.944 46.0003ZM398.571 23.3731L420.491 1.45278L398.571 -20.4673L376.651 1.45305L398.571 23.3731ZM375.944 -43.095L397.864 -21.1744L375.944 0.745941L354.023 -21.1746L375.944 -43.095ZM353.316 -20.4675L375.237 1.45305L353.317 23.3731L331.396 1.45256L353.316 -20.4675ZM330.689 2.15967L352.61 24.0802L330.689 46.0008L308.768 24.0802L330.689 2.15967ZM308.061 24.7873L329.982 46.7079L308.062 68.628L286.141 46.7074L308.061 24.7873ZM285.434 47.4145L307.355 69.3351L285.434 91.2557L263.514 69.3351L285.434 47.4145ZM262.806 70.0422L284.727 91.9628L262.807 113.883L240.886 91.9623L262.806 70.0422ZM240.179 92.6694L262.1 114.59L240.179 136.511L218.259 114.59L240.179 92.6694ZM217.552 115.297L239.472 137.218L217.552 159.138L195.631 137.217L217.552 115.297ZM194.924 137.924L216.845 159.845L194.924 181.765L173.004 159.845L194.924 137.924ZM172.297 160.552L194.217 182.473L172.297 204.393L150.377 182.472L172.297 160.552ZM149.669 183.179L171.59 205.1L149.67 227.02L127.749 205.099L149.669 183.179ZM127.042 205.806L148.963 227.727L127.042 249.648L105.122 227.727L127.042 205.806ZM104.415 228.434L126.335 250.355L104.415 272.275L82.4945 250.354L104.415 228.434ZM81.7874 251.061L103.708 272.982L81.7874 294.902L59.8668 272.982L81.7874 251.061ZM59.1597 273.689L81.0803 295.61L59.1602 317.53L37.2396 295.609L59.1597 273.689ZM36.5325 296.316L58.4531 318.237L36.5325 340.157L14.6119 318.237L36.5325 296.316ZM13.9048 317.53L35.8254 295.609L13.9053 273.689L-8.01527 295.61L13.9048 317.53ZM36.5325 294.902L58.4526 272.982L36.5325 251.062L14.6124 272.982L36.5325 294.902ZM59.1597 272.275L81.0803 250.354L59.1602 228.434L37.2396 250.355L59.1597 272.275ZM81.7874 249.647L103.707 227.727L81.7874 205.807L59.8673 227.727L81.7874 249.647ZM104.415 227.02L126.335 205.099L104.415 183.179L82.4945 205.1L104.415 227.02ZM127.042 204.392L148.962 182.472L127.042 160.552L105.122 182.472L127.042 204.392ZM149.669 181.765L171.59 159.845L149.669 137.925L127.749 159.845L149.669 181.765ZM172.297 159.138L194.217 137.217L172.297 115.297L150.377 137.218L172.297 159.138ZM194.924 136.51L216.844 114.59L194.924 92.6699L173.004 114.59L194.924 136.51ZM217.552 113.883L239.472 91.9623L217.552 70.0422L195.631 91.9628L217.552 113.883ZM240.179 91.2552L262.099 69.3351L240.179 47.415L218.259 69.3351L240.179 91.2552ZM262.806 68.628L284.727 46.7074L262.807 24.7873L240.886 46.7079L262.806 68.628ZM285.434 46.0003L307.354 24.0802L285.434 2.16014L263.514 24.0802L285.434 46.0003ZM308.061 23.3731L329.982 1.45256L308.062 -20.4675L286.141 1.45304L308.061 23.3731ZM330.689 0.745456L352.609 -21.1746L330.689 -43.0947L308.769 -21.1746L330.689 0.745456ZM353.316 -21.8817L375.237 -43.8021L353.316 -65.7222L331.396 -43.8018L353.316 -21.8817ZM330.689 -88.3499L352.609 -66.4293L330.689 -44.5089L308.768 -66.4295L330.689 -88.3499ZM308.061 -65.7224L329.982 -43.8018L308.062 -21.8817L286.141 -43.8023L308.061 -65.7224ZM285.434 -43.0952L307.355 -21.1746L285.434 0.745931L263.514 -21.1746L285.434 -43.0952ZM262.806 -20.4675L284.727 1.45304L262.807 23.3731L240.886 1.45256L262.806 -20.4675ZM240.179 2.15966L262.1 24.0802L240.179 46.0008L218.259 24.0803L240.179 2.15966ZM217.552 24.7874L239.472 46.7079L217.552 68.628L195.631 46.7075L217.552 24.7874ZM194.924 47.4146L216.845 69.3351L194.924 91.2557L173.004 69.3351L194.924 47.4146ZM172.297 70.0422L194.217 91.9628L172.297 113.883L150.377 91.9623L172.297 70.0422ZM149.669 92.6694L171.59 114.59L149.669 136.511L127.749 114.59L149.669 92.6694ZM127.042 115.297L148.962 137.218L127.042 159.138L105.122 137.217L127.042 115.297ZM104.415 137.924L126.335 159.845L104.415 181.765L82.4945 159.844L104.415 137.924ZM81.7874 160.552L103.708 182.472L81.7874 204.393L59.8668 182.472L81.7874 160.552ZM59.1597 183.179L81.0803 205.1L59.1602 227.02L37.2396 205.099L59.1597 183.179ZM36.5325 205.806L58.4531 227.727L36.5325 249.648L14.6119 227.727L36.5325 205.806ZM13.9048 228.434L35.8254 250.355L13.9053 272.275L-8.01526 250.354L13.9048 228.434ZM-8.72237 251.061L13.1982 272.982L-8.72238 294.902L-30.643 272.982L-8.72237 251.061ZM-31.3501 272.275L-9.42948 250.354L-31.3496 228.434L-53.2702 250.355L-31.3501 272.275ZM-8.72237 249.647L13.1977 227.727L-8.72238 205.807L-30.6425 227.727L-8.72237 249.647ZM13.9048 227.02L35.8254 205.099L13.9053 183.179L-8.01527 205.1L13.9048 227.02ZM36.5325 204.392L58.4526 182.472L36.5325 160.552L14.6124 182.472L36.5325 204.392ZM59.1597 181.765L81.0803 159.844L59.1602 137.924L37.2396 159.845L59.1597 181.765ZM81.7874 159.137L103.707 137.217L81.7874 115.297L59.8673 137.217L81.7874 159.137ZM104.415 136.51L126.335 114.59L104.415 92.6699L82.4945 114.59L104.415 136.51ZM127.042 113.883L148.962 91.9623L127.042 70.0422L105.122 91.9628L127.042 113.883ZM149.669 91.2552L171.59 69.3351L149.669 47.415L127.749 69.3351L149.669 91.2552ZM172.297 68.628L194.217 46.7075L172.297 24.7874L150.377 46.7079L172.297 68.628ZM194.924 46.0003L216.844 24.0803L194.924 2.16016L173.004 24.0803L194.924 46.0003ZM217.552 23.3731L239.472 1.45256L217.552 -20.4675L195.631 1.45305L217.552 23.3731ZM240.179 0.74545L262.099 -21.1746L240.179 -43.0947L218.259 -21.1746L240.179 0.74545ZM262.806 -21.8818L284.727 -43.8023L262.807 -65.7224L240.886 -43.8018L262.806 -21.8818ZM285.434 -44.5094L307.354 -66.4295L285.434 -88.3496L263.514 -66.4295L285.434 -44.5094ZM308.061 -67.1366L329.982 -89.057L308.062 -110.977L286.141 -89.0567L308.061 -67.1366ZM285.434 -133.605L307.354 -111.684L285.434 -89.7638L263.514 -111.684L285.434 -133.605ZM262.806 -110.977L284.727 -89.0567L262.807 -67.1366L240.886 -89.0572L262.806 -110.977ZM240.179 -88.3501L262.1 -66.4295L240.179 -44.509L218.259 -66.4295L240.179 -88.3501ZM217.552 -65.7224L239.472 -43.8018L217.552 -21.8818L195.631 -43.8023L217.552 -65.7224ZM194.924 -43.0952L216.845 -21.1746L194.924 0.745947L173.004 -21.1746L194.924 -43.0952ZM172.297 -20.4675L194.217 1.45305L172.297 23.3731L150.377 1.45257L172.297 -20.4675ZM149.669 2.15968L171.59 24.0803L149.669 46.0008L127.749 24.0802L149.669 2.15968ZM127.042 24.7874L148.962 46.7079L127.042 68.628L105.122 46.7074L127.042 24.7874ZM104.415 47.4146L126.335 69.3351L104.415 91.2557L82.494 69.3351L104.415 47.4146ZM81.7869 70.0422L103.707 91.9628L81.7874 113.883L59.8668 91.9623L81.7869 70.0422ZM59.1597 92.6694L81.0803 114.59L59.1602 136.51L37.2396 114.59L59.1597 92.6694ZM36.5325 115.297L58.4531 137.217L36.5325 159.138L14.6119 137.217L36.5325 115.297ZM13.9048 137.924L35.8254 159.845L13.9053 181.765L-8.01527 159.844L13.9048 137.924ZM-8.72238 160.552L13.1982 182.472L-8.72238 204.393L-30.643 182.472L-8.72238 160.552ZM-31.3501 183.179L-9.42948 205.1L-31.3496 227.02L-53.2701 205.099L-31.3501 183.179ZM-53.9773 205.806L-32.0567 227.727L-53.9773 249.648L-75.8978 227.727L-53.9773 205.806ZM-76.6049 227.02L-54.6844 205.099L-76.6045 183.179L-98.525 205.1L-76.6049 227.02ZM-53.9773 204.392L-32.0572 182.472L-53.9773 160.552L-75.8973 182.472L-53.9773 204.392ZM-31.3501 181.765L-9.42948 159.844L-31.3496 137.924L-53.2702 159.845L-31.3501 181.765ZM-8.72238 159.137L13.1977 137.217L-8.72237 115.297L-30.6425 137.217L-8.72238 159.137ZM13.9048 136.51L35.8254 114.59L13.9053 92.6694L-8.01527 114.59L13.9048 136.51ZM36.5325 113.882L58.4526 91.9623L36.5325 70.0422L14.6124 91.9623L36.5325 113.882ZM59.1597 91.2552L81.0798 69.3351L59.1597 47.415L37.2396 69.3351L59.1597 91.2552ZM81.7869 68.628L103.707 46.7074L81.7874 24.7874L59.8668 46.7079L81.7869 68.628ZM104.415 46.0003L126.335 24.0802L104.415 2.16015L82.4945 24.0802L104.415 46.0003ZM127.042 23.3731L148.962 1.45257L127.042 -20.4675L105.122 1.45305L127.042 23.3731ZM149.669 0.745464L171.59 -21.1746L149.669 -43.0947L127.749 -21.1746L149.669 0.745464ZM172.297 -21.8817L194.217 -43.8023L172.297 -65.7224L150.377 -43.8018L172.297 -21.8817ZM194.924 -44.5094L216.844 -66.4295L194.924 -88.3496L173.004 -66.4295L194.924 -44.5094ZM217.552 -67.1366L239.472 -89.0572L217.552 -110.977L195.631 -89.0567L217.552 -67.1366ZM240.179 -89.7643L262.099 -111.684L240.179 -133.604L218.259 -111.684L240.179 -89.7643ZM262.806 -112.392L284.727 -134.312L262.807 -156.232L240.886 -134.312L262.806 -112.392Z" fill="url(#paint0_radial_415_238)"/>
<g clip-path="url(#clip1_415_238)">
<path fill-rule="evenodd" clip-rule="evenodd" d="M39.8773 180.584C36.8367 179.03 33.4845 178.182 30.0706 178.103C25.9674 178.008 21.9146 179.027 18.3449 181.053C14.775 183.078 11.8214 186.034 9.79867 189.606C7.77593 193.177 6.7598 197.23 6.8585 201.334C6.95039 205.154 8.00535 208.884 9.91938 212.181L6.47369 220.731C6.25374 221.277 6.34405 221.899 6.71015 222.36C7.07626 222.82 7.66168 223.049 8.24302 222.958L19.5955 221.18C22.4974 222.596 25.6701 223.378 28.9021 223.47C32.3157 223.567 35.7072 222.893 38.8239 221.497C41.9405 220.102 44.702 218.02 46.9022 215.408C49.1025 212.797 50.6851 209.722 51.5316 206.414C52.3782 203.106 52.4675 199.649 51.7922 196.301C51.1168 192.954 49.6948 189.802 47.6316 187.08C45.5688 184.359 42.9182 182.138 39.8773 180.584Z" fill="#FFF1F1"/>
<path d="M22.3171 195.099C23.6711 195.131 24.7947 194.059 24.8266 192.705C24.8585 191.351 23.7867 190.227 22.4326 190.195C21.0786 190.164 19.9551 191.235 19.9232 192.589C19.8913 193.943 20.9631 195.067 22.3171 195.099Z" fill="#EE232A"/>
<path d="M36.926 195.444C38.28 195.475 39.4035 194.404 39.4354 193.05C39.4673 191.696 38.3955 190.572 37.0415 190.54C35.6875 190.508 34.5639 191.58 34.532 192.934C34.5001 194.288 35.5719 195.412 36.926 195.444Z" fill="#EE232A"/>
<path d="M29.2351 213.863C35.5539 214.012 40.797 209.011 40.9459 202.692L18.0634 202.152C17.9145 208.471 22.9162 213.714 29.2351 213.863Z" fill="#EE232A"/>
</g>
<g filter="url(#filter0_d_415_238)">
<path d="M68.9926 146.032C69.3817 129.52 69.5763 121.264 72.8371 114.987C75.9592 108.977 80.9919 104.176 87.1427 101.34C93.5667 98.3785 101.823 98.573 118.334 98.9621L399.483 105.587C415.995 105.977 424.251 106.171 430.528 109.432C436.539 112.554 441.34 117.587 444.175 123.737C447.137 130.162 446.942 138.417 446.553 154.929L445.838 185.26C445.449 201.772 445.255 210.028 441.994 216.305C438.872 222.315 433.839 227.116 427.688 229.952C421.264 232.914 413.008 232.719 396.497 232.33L67.1419 224.569L68.9926 146.032Z" fill="#EE232A" shape-rendering="crispEdges"/>
<path d="M94.1738 142.294L94.5545 126.139L96.8198 126.192L96.6527 133.286L105.028 133.483L105.195 126.389L107.46 126.443L107.079 142.598L104.814 142.544L104.981 135.451L96.6063 135.254L96.4392 142.347L94.1738 142.294ZM110.348 136.882C110.434 133.198 112.985 130.877 116.28 130.955C119.552 131.032 121.234 133.499 121.163 136.496C121.156 136.794 121.072 137.456 121.072 137.456L112.628 137.257C112.683 139.799 114.46 141.123 116.52 141.172C118.511 141.219 119.984 139.903 119.984 139.903L120.861 141.549C120.861 141.549 119.106 143.156 116.337 143.091C112.699 143.005 110.267 140.315 110.348 136.882ZM112.736 135.588L118.915 135.733C118.893 133.741 117.68 132.751 116.192 132.716C114.499 132.676 113.101 133.696 112.736 135.588ZM121.983 147.047L122.801 145.372C122.801 145.372 123.431 145.868 124.14 145.885C125.033 145.906 125.803 145.283 126.262 144.24L126.866 142.927L122.284 131.371L124.778 131.43L127.506 139.073C127.721 139.673 127.908 140.479 127.908 140.479L127.954 140.48C127.954 140.48 128.155 139.706 128.375 139.116L131.369 131.585L133.771 131.642L128.026 145.175C127.275 146.943 125.834 147.848 124.209 147.81C122.905 147.779 121.983 147.047 121.983 147.047ZM141.704 143.414L142.085 127.259L144.35 127.312L144.183 134.406L152.558 134.603L152.725 127.51L154.99 127.563L154.61 143.718L152.344 143.665L152.512 136.571L144.137 136.374L143.969 143.467L141.704 143.414ZM157.878 138.002C157.965 134.318 160.515 131.997 163.81 132.075C167.082 132.152 168.764 134.619 168.693 137.616C168.686 137.914 168.602 138.576 168.602 138.576L160.159 138.377C160.213 140.919 161.991 142.243 164.05 142.292C166.041 142.339 167.514 141.023 167.514 141.023L168.391 142.669C168.391 142.669 166.636 144.276 163.867 144.211C160.229 144.125 157.797 141.435 157.878 138.002ZM160.267 136.708L166.445 136.854C166.423 134.861 165.21 133.871 163.723 133.836C162.029 133.796 160.632 134.816 160.267 136.708ZM175.437 139.698L175.391 139.697C175.391 139.697 175.2 140.059 175.033 140.33L172.516 144.14L169.999 144.081L174.075 138.224L170.478 132.507L173.018 132.567L175.086 136.141C175.262 136.443 175.459 136.837 175.459 136.837L175.505 136.838C175.505 136.838 175.72 136.454 175.91 136.161L178.144 132.688L180.684 132.747L176.821 138.289L180.617 144.331L178.1 144.271L175.765 140.347C175.612 140.069 175.437 139.698 175.437 139.698ZM182.011 138.571C182.092 135.139 184.717 132.568 188.355 132.653C191.261 132.722 192.663 134.449 192.663 134.449L191.574 135.98C191.574 135.98 190.369 134.624 188.401 134.578C186.067 134.523 184.333 136.222 184.277 138.602C184.222 140.959 185.872 142.806 188.275 142.863C190.426 142.913 191.881 141.391 191.881 141.391L192.735 143.037C192.735 143.037 191.09 144.852 188.069 144.781C184.431 144.695 181.929 142.049 182.011 138.571ZM194.503 138.843C194.585 135.342 197.437 132.867 200.892 132.949C204.347 133.03 207.079 135.636 206.996 139.137C206.913 142.661 204.061 145.158 200.606 145.077C197.151 144.995 194.42 142.367 194.503 138.843ZM196.768 138.896C196.711 141.322 198.478 143.103 200.651 143.154C202.848 143.206 204.674 141.509 204.731 139.084C204.788 136.681 203.043 134.923 200.847 134.871C198.673 134.82 196.825 136.493 196.768 138.896ZM208.873 139.204C208.96 135.52 211.19 133.192 214.256 133.264C216.933 133.327 217.782 135.178 217.782 135.178L217.828 135.18C217.828 135.18 217.79 134.835 217.801 134.4L217.927 129.046L220.146 129.098L219.766 145.253L217.661 145.204L217.686 144.105C217.697 143.648 217.728 143.328 217.728 143.328L217.682 143.327C217.682 143.327 216.693 145.456 213.833 145.388C210.698 145.314 208.788 142.797 208.873 139.204ZM211.138 139.258C211.079 141.775 212.391 143.431 214.313 143.476C216.029 143.517 217.682 142.342 217.752 139.39C217.8 137.331 216.773 135.246 214.577 135.195C212.746 135.151 211.2 136.626 211.138 139.258ZM222.57 139.527C222.657 135.843 225.207 133.522 228.502 133.599C231.774 133.677 233.456 136.143 233.386 139.141C233.379 139.438 233.294 140.1 233.294 140.1L224.851 139.901C224.905 142.444 226.683 143.768 228.742 143.816C230.733 143.863 232.206 142.547 232.206 142.547L233.083 144.193C233.083 144.193 231.328 145.801 228.56 145.735C224.921 145.65 222.489 142.959 222.57 139.527ZM224.959 138.232L231.137 138.378C231.115 136.386 229.902 135.395 228.415 135.36C226.722 135.32 225.324 136.341 224.959 138.232ZM236.947 141.217L237.063 129.497L239.351 129.551L238.938 141.263L236.947 141.217ZM236.705 145.652L236.757 143.433L239.023 143.486L238.97 145.706L236.705 145.652ZM249.043 145.943L250.728 129.819L253.108 129.875L256.609 138.703C256.954 139.605 257.359 140.896 257.359 140.896L257.404 140.897C257.404 140.897 257.869 139.626 258.256 138.742L262.169 130.089L264.549 130.145L265.473 146.33L263.23 146.278L262.669 136.076C262.624 135.09 262.703 133.696 262.703 133.696L262.657 133.695C262.657 133.695 262.141 135.171 261.731 136.054L258.333 143.254L256.32 143.207L253.288 135.855C252.942 134.977 252.475 133.409 252.475 133.409L252.429 133.408C252.429 133.408 252.418 134.85 252.326 135.832L251.309 145.997L249.043 145.943ZM267.189 150.469L268.007 148.794C268.007 148.794 268.636 149.29 269.345 149.306C270.238 149.327 271.008 148.705 271.468 147.662L272.071 146.349L267.49 134.793L269.984 134.852L272.711 142.494C272.926 143.095 273.113 143.9 273.113 143.9L273.159 143.901C273.159 143.901 273.36 143.128 273.58 142.538L276.574 135.007L278.976 135.064L273.231 148.597C272.48 150.365 271.039 151.27 269.415 151.231C268.11 151.201 267.189 150.469 267.189 150.469ZM286.452 146.825L286.832 130.67L289.052 130.722L288.927 136.008C288.914 136.58 288.858 136.991 288.858 136.991L288.904 136.992C288.904 136.992 289.935 135.047 292.658 135.111C295.77 135.185 297.679 137.702 297.595 141.295C297.508 144.979 295.232 147.306 292.189 147.235C289.603 147.174 288.597 145.158 288.597 145.158L288.552 145.157C288.552 145.157 288.589 145.524 288.577 146.028L288.557 146.874L286.452 146.825ZM288.738 141.132C288.689 143.191 289.716 145.276 291.913 145.328C293.744 145.371 295.29 143.896 295.352 141.265C295.411 138.748 294.099 137.091 292.177 137.046C290.438 137.005 288.808 138.18 288.738 141.132ZM300.11 142.98L300.285 135.566L302.504 135.618L302.342 142.529C302.304 144.13 302.594 145.419 304.448 145.463C306.804 145.519 308.249 143.469 308.303 141.181L308.431 135.758L310.651 135.81L310.378 147.389L308.227 147.338L308.263 145.805C308.274 145.324 308.329 144.959 308.329 144.959L308.283 144.958C307.775 146.091 306.23 147.566 303.964 147.512C301.356 147.451 300.038 146.046 300.11 142.98ZM312.943 146.03L314.056 144.476C314.056 144.476 315.328 145.857 317.342 145.904C318.303 145.927 319.276 145.446 319.298 144.508C319.348 142.38 313.389 142.674 313.478 138.899C313.527 136.794 315.432 135.648 317.743 135.702C320.283 135.762 321.442 137.072 321.442 137.072L320.511 138.721C320.511 138.721 319.505 137.667 317.675 137.624C316.714 137.601 315.766 137.991 315.742 138.998C315.693 141.08 321.653 140.763 321.564 144.561C321.518 146.483 319.837 147.886 317.297 147.826C314.459 147.76 312.943 146.03 312.943 146.03ZM324.409 133.822L324.463 131.557L326.705 131.609L326.652 133.875L324.409 133.822ZM324.105 147.712L324.378 136.134L326.597 136.186L326.325 147.764L324.105 147.712ZM329.803 147.846L330.076 136.268L332.227 136.319L332.191 137.852C332.18 138.309 332.125 138.697 332.125 138.697L332.171 138.698C332.652 137.702 334.064 136.087 336.581 136.146C339.304 136.211 340.528 137.728 340.458 140.679L340.283 148.093L338.064 148.041L338.227 141.131C338.265 139.506 337.952 138.216 336.098 138.173C334.336 138.131 332.89 139.265 332.37 140.924C332.222 141.378 332.164 141.903 332.151 142.476L332.023 147.899L329.803 147.846ZM342.926 142.363C343.013 138.679 345.563 136.358 348.858 136.436C352.131 136.513 353.813 138.979 353.742 141.977C353.735 142.274 353.651 142.936 353.651 142.936L345.207 142.737C345.262 145.28 347.039 146.604 349.099 146.653C351.089 146.7 352.563 145.383 352.563 145.383L353.44 147.03C353.44 147.03 351.685 148.637 348.916 148.571C345.278 148.486 342.845 145.795 342.926 142.363ZM345.315 141.069L351.493 141.214C351.472 139.222 350.259 138.232 348.771 138.197C347.078 138.157 345.68 139.177 345.315 141.069ZM355.379 147.03L356.491 145.476C356.491 145.476 357.764 146.857 359.777 146.904C360.739 146.927 361.711 146.446 361.734 145.508C361.784 143.38 355.824 143.674 355.913 139.899C355.963 137.794 357.867 136.648 360.178 136.702C362.718 136.762 363.878 138.072 363.878 138.072L362.946 139.721C362.946 139.721 361.941 138.667 360.11 138.624C359.149 138.601 358.201 138.991 358.177 139.998C358.128 142.08 364.088 141.763 363.999 145.561C363.954 147.483 362.272 148.886 359.732 148.826C356.895 148.76 355.379 147.03 355.379 147.03ZM365.636 147.271L366.748 145.718C366.748 145.718 368.021 147.098 370.034 147.146C370.995 147.169 371.968 146.688 371.99 145.75C372.041 143.622 366.081 143.916 366.17 140.141C366.219 138.035 368.124 136.89 370.435 136.944C372.975 137.004 374.135 138.313 374.135 138.313L373.203 139.963C373.203 139.963 372.197 138.909 370.367 138.866C369.406 138.843 368.458 139.233 368.434 140.24C368.385 142.322 374.345 142.005 374.256 145.803C374.211 147.725 372.529 149.128 369.989 149.068C367.152 149.001 365.636 147.271 365.636 147.271ZM382.979 135.202L383.032 132.937L385.274 132.99L385.221 135.255L382.979 135.202ZM382.674 149.092L382.947 137.514L385.167 137.566L384.894 149.145L382.674 149.092ZM387.468 147.786L388.58 146.232C388.58 146.232 389.853 147.613 391.867 147.66C392.828 147.683 393.801 147.202 393.823 146.264C393.873 144.136 387.913 144.431 388.002 140.655C388.052 138.55 389.956 137.404 392.267 137.459C394.807 137.518 395.967 138.828 395.967 138.828L395.035 140.477C395.035 140.477 394.03 139.423 392.199 139.38C391.238 139.358 390.29 139.747 390.266 140.754C390.217 142.836 396.178 142.519 396.088 146.318C396.043 148.24 394.361 149.642 391.821 149.583C388.984 149.516 387.468 147.786 387.468 147.786ZM398.629 149.468L398.902 137.89L401.053 137.94L401.017 139.474C401.006 139.931 400.951 140.319 400.951 140.319L400.997 140.32C401.478 139.324 402.89 137.709 405.407 137.768C408.13 137.832 409.354 139.349 409.284 142.301L409.11 149.715L406.89 149.663L407.053 142.752C407.091 141.128 406.778 139.838 404.925 139.795C403.163 139.753 401.716 140.887 401.196 142.546C401.048 143 400.99 143.525 400.977 144.097L400.849 149.521L398.629 149.468ZM412.405 137.658L412.507 133.357L414.269 133.398L414.167 137.7L412.405 137.658ZM417.645 145.681L417.772 140.28L416.262 140.245L416.304 138.46L417.883 138.497L417.962 135.156L420.113 135.207L420.034 138.548L422.826 138.614L422.784 140.399L419.992 140.333L419.871 145.481C419.816 147.792 421.434 148.128 422.281 148.148C422.601 148.156 422.808 148.115 422.808 148.115L422.762 150.083C422.762 150.083 422.44 150.121 421.982 150.11C420.495 150.075 417.554 149.548 417.645 145.681ZM93.0801 169.275L93.3529 157.697L95.5039 157.748L95.4677 159.281C95.4569 159.738 95.402 160.126 95.402 160.126L95.4478 160.127C96.0288 158.79 97.6842 157.524 99.4919 157.567C101.437 157.613 102.56 158.532 102.908 160.28L102.954 160.281C103.627 158.901 105.258 157.703 107.135 157.747C109.743 157.808 110.921 159.324 110.851 162.276L110.677 169.69L108.457 169.638L108.62 162.704C108.659 161.08 108.369 159.791 106.63 159.75C105.005 159.712 103.76 161.056 103.311 162.625C103.185 163.103 103.127 163.628 103.113 164.223L102.988 169.509L100.769 169.457L100.932 162.523C100.968 161.013 100.772 159.612 98.9868 159.57C97.2935 159.53 96.0707 160.898 95.5971 162.535C95.4719 162.99 95.4366 163.516 95.4242 164.042L95.2997 169.328L93.0801 169.275ZM113.332 163.96C113.418 160.276 115.969 157.955 119.264 158.033C122.536 158.11 124.218 160.576 124.147 163.574C124.14 163.871 124.056 164.533 124.056 164.533L115.612 164.334C115.667 166.877 117.444 168.201 119.504 168.25C121.495 168.297 122.968 166.981 122.968 166.981L123.845 168.627C123.845 168.627 122.09 170.234 119.321 170.169C115.683 170.083 113.251 167.393 113.332 163.96ZM115.72 162.666L121.899 162.811C121.877 160.819 120.664 159.829 119.176 159.794C117.483 159.754 116.085 160.774 115.72 162.666ZM126.024 164.259C126.111 160.575 128.661 158.254 131.956 158.332C135.229 158.409 136.91 160.876 136.84 163.873C136.833 164.171 136.749 164.833 136.749 164.833L128.305 164.634C128.359 167.176 130.137 168.5 132.196 168.549C134.187 168.596 135.661 167.28 135.661 167.28L136.538 168.926C136.538 168.926 134.783 170.533 132.014 170.468C128.376 170.382 125.943 167.692 126.024 164.259ZM128.413 162.965L134.591 163.11C134.569 161.118 133.356 160.128 131.869 160.093C130.176 160.053 128.778 161.073 128.413 162.965ZM139.962 166.145L140.089 160.744L138.579 160.709L138.621 158.924L140.2 158.961L140.278 155.62L142.429 155.671L142.35 159.012L145.142 159.078L145.1 160.862L142.308 160.797L142.187 165.945C142.133 168.256 143.75 168.592 144.597 168.612C144.917 168.62 145.124 168.579 145.124 168.579L145.078 170.547C145.078 170.547 144.757 170.585 144.299 170.574C142.811 170.539 139.87 170.012 139.962 166.145ZM147.887 156.67L147.94 154.404L150.183 154.457L150.129 156.722L147.887 156.67ZM147.582 170.56L147.855 158.981L150.075 159.034L149.802 170.612L147.582 170.56ZM153.281 170.694L153.553 159.116L155.704 159.166L155.668 160.699C155.657 161.157 155.603 161.545 155.603 161.545L155.648 161.546C156.13 160.55 157.541 158.935 160.059 158.994C162.782 159.058 164.005 160.575 163.935 163.527L163.761 170.941L161.541 170.889L161.704 163.978C161.742 162.354 161.429 161.064 159.576 161.02C157.814 160.979 156.368 162.112 155.848 163.772C155.7 164.226 155.641 164.751 155.628 165.323L155.5 170.746L153.281 170.694ZM168.048 173.148C168.048 173.148 169.472 173.96 171.211 174.001C173.224 174.049 174.893 173.195 174.948 170.838L174.968 169.992C174.977 169.626 175.008 169.26 175.008 169.26L174.963 169.259C174.249 170.387 173.158 171.025 171.488 170.986C168.261 170.91 166.377 168.278 166.456 164.937C166.534 161.619 168.446 159.192 171.649 159.267C174.441 159.333 175.247 161.069 175.247 161.069L175.293 161.07C175.293 161.07 175.274 160.91 175.279 160.704L175.304 159.628L177.432 159.678L177.171 170.776C177.081 174.598 174.14 175.994 171.211 175.925C169.815 175.892 168.383 175.469 167.275 174.87L168.048 173.148ZM171.968 169.074C173.57 169.112 175.057 168.185 175.128 165.165C175.199 162.144 173.755 161.24 171.947 161.197C169.934 161.15 168.755 162.588 168.7 164.944C168.643 167.347 169.885 169.025 171.968 169.074ZM186.509 171.477L186.782 159.899L188.933 159.949L188.897 161.482C188.886 161.94 188.831 162.328 188.831 162.328L188.877 162.329C189.458 160.992 191.113 159.726 192.921 159.769C194.866 159.814 195.989 160.734 196.337 162.482L196.383 162.483C197.057 161.102 198.688 159.904 200.564 159.949C203.172 160.01 204.35 161.526 204.281 164.478L204.106 171.892L201.886 171.839L202.05 164.906C202.088 163.281 201.798 161.992 200.059 161.951C198.434 161.913 197.189 163.258 196.74 164.827C196.614 165.305 196.556 165.83 196.542 166.425L196.417 171.711L194.198 171.658L194.361 164.725C194.397 163.215 194.201 161.813 192.416 161.771C190.723 161.731 189.5 163.099 189.026 164.737C188.901 165.192 188.866 165.717 188.853 166.244L188.729 171.529L186.509 171.477ZM205.704 176.028L206.522 174.353C206.522 174.353 207.151 174.848 207.861 174.865C208.753 174.886 209.523 174.263 209.983 173.221L210.586 171.907L206.005 160.352L208.499 160.41L211.227 168.053C211.441 168.653 211.629 169.459 211.629 169.459L211.674 169.46C211.674 169.46 211.876 168.686 212.096 168.096L215.089 160.566L217.492 160.622L211.747 174.155C210.995 175.923 209.555 176.828 207.93 176.79C206.626 176.759 205.704 176.028 205.704 176.028ZM224.303 166.575C224.389 162.891 226.94 160.57 230.235 160.648C233.507 160.725 235.189 163.191 235.118 166.189C235.111 166.487 235.027 167.148 235.027 167.148L226.583 166.95C226.638 169.492 228.415 170.816 230.475 170.865C232.466 170.912 233.939 169.596 233.939 169.596L234.816 171.242C234.816 171.242 233.061 172.849 230.292 172.784C226.654 172.698 224.222 170.008 224.303 166.575ZM226.691 165.281L232.87 165.426C232.848 163.434 231.635 162.444 230.147 162.409C228.454 162.369 227.056 163.389 226.691 165.281ZM241.862 168.271L241.816 168.27C241.816 168.27 241.624 168.632 241.458 168.903L238.941 172.713L236.424 172.653L240.5 166.797L236.903 161.08L239.443 161.14L241.511 164.714C241.687 165.016 241.883 165.41 241.883 165.41L241.929 165.411C241.929 165.411 242.144 165.027 242.334 164.734L244.568 161.26L247.108 161.32L243.246 166.861L247.041 172.904L244.524 172.844L242.19 168.92C242.036 168.642 241.862 168.271 241.862 168.271ZM249.172 177.533L249.553 161.378L251.589 161.426L251.566 162.41C251.555 162.867 251.5 163.255 251.5 163.255L251.546 163.256C251.546 163.256 252.579 161.174 255.486 161.243C258.598 161.316 260.507 163.834 260.423 167.426C260.336 171.11 258.06 173.438 255.04 173.367C252.5 173.307 251.538 171.384 251.538 171.384L251.492 171.383C251.492 171.383 251.528 171.796 251.514 172.391L251.391 177.585L249.172 177.533ZM251.566 167.263C251.517 169.323 252.613 171.409 254.741 171.459C256.572 171.503 258.118 170.028 258.18 167.396C258.239 164.879 256.927 163.223 255.005 163.178C253.266 163.137 251.636 164.312 251.566 167.263ZM262.336 167.471C262.423 163.787 264.973 161.466 268.268 161.544C271.54 161.621 273.222 164.088 273.151 167.085C273.144 167.383 273.06 168.045 273.06 168.045L264.616 167.846C264.671 170.388 266.448 171.712 268.508 171.761C270.499 171.808 271.972 170.492 271.972 170.492L272.849 172.138C272.849 172.138 271.094 173.745 268.325 173.68C264.687 173.594 262.255 170.904 262.336 167.471ZM264.724 166.177L270.903 166.323C270.881 164.33 269.668 163.34 268.181 163.305C266.487 163.265 265.09 164.285 264.724 166.177ZM275.005 167.77C275.086 164.338 277.711 161.767 281.349 161.852C284.256 161.921 285.657 163.648 285.657 163.648L284.568 165.179C284.568 165.179 283.364 163.823 281.396 163.777C279.062 163.722 277.327 165.421 277.271 167.801C277.216 170.157 278.867 172.005 281.269 172.062C283.42 172.112 284.876 170.59 284.876 170.59L285.73 172.235C285.73 172.235 284.084 174.051 281.064 173.98C277.425 173.894 274.923 171.248 275.005 167.77ZM288.787 169.652L288.914 164.251L287.404 164.216L287.446 162.431L289.025 162.468L289.104 159.127L291.255 159.178L291.176 162.519L293.967 162.585L293.925 164.37L291.134 164.304L291.012 169.452C290.958 171.763 292.576 172.099 293.422 172.119C293.743 172.127 293.95 172.086 293.95 172.086L293.903 174.054C293.903 174.054 293.582 174.092 293.124 174.081C291.637 174.046 288.696 173.519 288.787 169.652ZM295.546 170.795C295.636 166.974 300.674 166.933 302.619 166.978L303.122 166.99L303.127 166.784C303.172 164.885 302.112 164.219 300.647 164.184C298.862 164.142 297.394 165.23 297.394 165.23L296.517 163.583C296.517 163.583 298.22 162.25 300.874 162.312C303.803 162.381 305.413 164.022 305.344 166.951L305.172 174.273L303.112 174.225L303.138 173.127C303.151 172.6 303.205 172.212 303.205 172.212L303.16 172.211C303.16 172.211 302.168 174.477 299.399 174.412C297.408 174.365 295.492 173.107 295.546 170.795ZM297.791 170.734C297.769 171.672 298.48 172.605 299.921 172.639C301.798 172.683 303.057 170.744 303.097 169.027L303.106 168.661L302.534 168.648C300.863 168.608 297.84 168.652 297.791 170.734ZM309.01 170.128L309.137 164.728L307.627 164.692L307.669 162.908L309.248 162.945L309.327 159.604L311.478 159.655L311.399 162.995L314.191 163.061L314.149 164.846L311.357 164.78L311.236 169.929C311.181 172.24 312.799 172.576 313.646 172.596C313.966 172.603 314.173 172.562 314.173 172.562L314.127 174.53C314.127 174.53 313.805 174.568 313.347 174.558C311.86 174.523 308.919 173.995 309.01 170.128ZM316.935 160.653L316.989 158.388L319.231 158.441L319.178 160.706L316.935 160.653ZM316.631 174.543L316.904 162.965L319.123 163.017L318.851 174.596L316.631 174.543ZM321.62 168.846C321.702 165.345 324.554 162.87 328.009 162.952C331.464 163.033 334.196 165.639 334.113 169.14C334.03 172.664 331.178 175.161 327.723 175.08C324.268 174.998 321.536 172.37 321.62 168.846ZM323.885 168.899C323.828 171.325 325.594 173.106 327.768 173.157C329.965 173.209 331.791 171.512 331.848 169.087C331.905 166.684 330.16 164.926 327.963 164.874C325.79 164.823 323.942 166.496 323.885 168.899ZM336.608 175.014L336.881 163.436L339.032 163.486L338.996 165.019C338.985 165.477 338.93 165.865 338.93 165.865L338.976 165.866C339.458 164.87 340.869 163.255 343.386 163.314C346.109 163.378 347.333 164.895 347.263 167.847L347.089 175.261L344.869 175.209L345.032 168.298C345.07 166.674 344.757 165.384 342.904 165.341C341.142 165.299 339.695 166.433 339.176 168.092C339.027 168.546 338.969 169.071 338.956 169.643L338.828 175.067L336.608 175.014ZM349.491 173.898L350.604 172.345C350.604 172.345 351.876 173.726 353.89 173.773C354.851 173.796 355.824 173.315 355.846 172.377C355.896 170.249 349.937 170.543 350.026 166.768C350.075 164.662 351.98 163.517 354.291 163.571C356.831 163.631 357.99 164.941 357.99 164.941L357.059 166.59C357.059 166.59 356.053 165.536 354.223 165.493C353.261 165.47 352.314 165.86 352.29 166.867C352.241 168.949 358.201 168.632 358.111 172.43C358.066 174.352 356.385 175.755 353.845 175.695C351.007 175.628 349.491 173.898 349.491 173.898ZM360.653 175.581L360.708 173.224L363.042 173.279L362.987 175.636L360.653 175.581ZM372.798 175.867L373.178 159.712L375.444 159.765L375.276 166.859L383.651 167.056L383.819 159.963L386.084 160.016L385.703 176.171L383.438 176.118L383.605 169.024L375.23 168.827L375.063 175.92L372.798 175.867ZM388.926 170.432C389.009 166.931 391.86 164.457 395.315 164.538C398.771 164.619 401.502 167.225 401.42 170.726C401.337 174.25 398.485 176.747 395.03 176.666C391.574 176.584 388.843 173.956 388.926 170.432ZM391.191 170.485C391.134 172.911 392.901 174.692 395.075 174.744C397.272 174.795 399.097 173.098 399.155 170.673C399.211 168.27 397.467 166.512 395.27 166.46C393.096 166.409 391.248 168.082 391.191 170.485ZM406.295 176.656L402.838 164.99L405.195 165.045L407.406 173.225C407.575 173.825 407.651 174.468 407.674 174.468L407.72 174.469C407.72 174.469 407.85 173.831 408.047 173.24L410.755 165.199L412.791 165.247L415.094 173.407C415.263 174.006 415.386 174.65 415.386 174.65L415.431 174.651C415.431 174.651 415.538 174.012 415.735 173.422L418.352 165.356L420.686 165.411L416.683 176.901L414.235 176.843L412.008 169.35C411.839 168.751 411.717 168.084 411.717 168.084L411.671 168.083C411.671 168.083 411.518 168.743 411.321 169.334L408.766 176.715L406.295 176.656ZM91.7566 190.459C91.8375 187.027 94.4624 184.456 98.1007 184.542C101.007 184.61 102.408 186.337 102.408 186.337L101.319 187.869C101.319 187.869 100.115 186.512 98.1469 186.466C95.8129 186.411 94.0786 188.11 94.0225 190.49C93.967 192.847 95.6177 194.694 98.0204 194.751C100.171 194.802 101.627 193.279 101.627 193.279L102.481 194.925C102.481 194.925 100.835 196.74 97.8149 196.669C94.1766 196.584 91.6747 193.937 91.7566 190.459ZM104.096 193.291C104.186 189.47 109.224 189.429 111.169 189.474L111.673 189.486L111.677 189.28C111.722 187.381 110.662 186.715 109.197 186.68C107.413 186.638 105.945 187.726 105.945 187.726L105.067 186.079C105.067 186.079 106.77 184.746 109.425 184.808C112.354 184.877 113.963 186.518 113.894 189.447L113.722 196.769L111.662 196.721L111.688 195.622C111.701 195.096 111.756 194.708 111.756 194.708L111.71 194.707C111.71 194.707 110.718 196.973 107.949 196.908C105.958 196.861 104.042 195.603 104.096 193.291ZM106.341 193.23C106.319 194.168 107.03 195.101 108.472 195.135C110.348 195.179 111.607 193.239 111.647 191.523L111.656 191.157L111.084 191.144C109.414 191.104 106.39 191.148 106.341 193.23ZM117.047 196.848L117.32 185.269L119.471 185.32L119.435 186.853C119.424 187.311 119.369 187.699 119.369 187.699L119.415 187.7C119.896 186.704 121.308 185.088 123.825 185.148C126.548 185.212 127.772 186.729 127.702 189.681L127.527 197.095L125.308 197.042L125.471 190.132C125.509 188.507 125.196 187.218 123.342 187.174C121.58 187.133 120.134 188.266 119.614 189.925C119.466 190.38 119.408 190.905 119.394 191.477L119.267 196.9L117.047 196.848ZM137.169 197.322L137.55 181.167L139.815 181.22L139.435 197.375L137.169 197.322ZM149.552 183.716L149.606 181.451L151.848 181.504L151.795 183.769L149.552 183.716ZM149.248 197.607L149.521 186.028L151.74 186.08L151.467 197.659L149.248 197.607ZM154.946 197.741L155.219 186.162L157.37 186.213L157.334 187.746C157.323 188.204 157.268 188.592 157.268 188.592L157.314 188.593C157.895 187.256 159.55 185.99 161.358 186.032C163.303 186.078 164.426 186.997 164.774 188.746L164.82 188.747C165.493 187.366 167.124 186.168 169.001 186.212C171.609 186.274 172.787 187.79 172.717 190.742L172.543 198.155L170.323 198.103L170.487 191.17C170.525 189.545 170.235 188.256 168.496 188.215C166.871 188.177 165.626 189.521 165.177 191.09C165.051 191.568 164.993 192.094 164.979 192.688L164.854 197.974L162.635 197.922L162.798 190.989C162.834 189.478 162.638 188.077 160.853 188.035C159.16 187.995 157.937 189.363 157.463 191C157.338 191.455 157.303 191.981 157.29 192.507L157.166 197.793L154.946 197.741ZM175.754 202.81L176.135 186.655L178.172 186.703L178.148 187.687C178.138 188.145 178.083 188.533 178.083 188.533L178.128 188.534C178.128 188.534 179.162 186.452 182.068 186.52C185.18 186.594 187.09 189.111 187.005 192.704C186.918 196.388 184.643 198.715 181.622 198.644C179.082 198.584 178.12 196.661 178.12 196.661L178.074 196.66C178.074 196.66 178.11 197.073 178.096 197.668L177.974 202.863L175.754 202.81ZM178.148 192.541C178.1 194.6 179.196 196.687 181.324 196.737C183.154 196.78 184.7 195.305 184.762 192.674C184.821 190.157 183.51 188.5 181.587 188.455C179.848 188.414 178.218 189.589 178.148 192.541ZM189.583 198.557L189.856 186.979L192.006 187.029L191.959 189.043C191.948 189.523 191.893 189.911 191.893 189.911L191.939 189.912C192.505 188.231 193.886 186.936 195.671 186.978C195.968 186.985 196.242 187.037 196.242 187.037L196.19 189.234C196.19 189.234 195.894 189.158 195.551 189.15C194.132 189.117 192.804 190.093 192.238 191.797C192.016 192.456 191.931 193.163 191.914 193.873L191.802 198.609L189.583 198.557ZM197.387 192.926C197.469 189.425 200.321 186.95 203.776 187.032C207.231 187.113 209.963 189.719 209.881 193.22C209.798 196.744 206.946 199.241 203.49 199.16C200.035 199.078 197.304 196.449 197.387 192.926ZM199.652 192.979C199.595 195.405 201.362 197.186 203.536 197.237C205.732 197.289 207.558 195.592 207.615 193.167C207.672 190.764 205.928 189.006 203.731 188.954C201.557 188.903 199.709 190.576 199.652 192.979ZM215.122 199.159L211.07 187.478L213.427 187.534L216.057 195.426C216.27 196.072 216.386 197.014 216.409 197.014L216.454 197.015C216.477 197.016 216.659 196.081 216.903 195.446L219.902 187.687L222.236 187.742L217.685 199.219L215.122 199.159ZM223.197 193.557C223.284 189.873 225.834 187.552 229.129 187.629C232.402 187.706 234.083 190.173 234.013 193.17C234.006 193.468 233.922 194.13 233.922 194.13L225.478 193.931C225.532 196.474 227.31 197.798 229.369 197.846C231.36 197.893 232.834 196.577 232.834 196.577L233.711 198.223C233.711 198.223 231.956 199.83 229.187 199.765C225.549 199.679 223.116 196.989 223.197 193.557ZM225.586 192.262L231.764 192.408C231.742 190.415 230.529 189.425 229.042 189.39C227.349 189.35 225.951 190.37 225.586 192.262ZM242.736 185.912L242.789 183.647L245.032 183.7L244.978 185.965L242.736 185.912ZM242.431 199.802L242.704 188.224L244.924 188.276L244.651 199.855L242.431 199.802ZM248.71 195.715L248.837 190.315L247.327 190.279L247.369 188.494L248.948 188.531L249.027 185.19L251.178 185.241L251.099 188.582L253.89 188.648L253.848 190.433L251.057 190.367L250.935 195.515C250.881 197.826 252.499 198.162 253.345 198.182C253.666 198.19 253.873 198.149 253.873 198.149L253.826 200.117C253.826 200.117 253.505 200.155 253.047 200.144C251.56 200.109 248.619 199.582 248.71 195.715ZM257.991 195.727L258.017 194.652C258.099 191.174 262 190.762 262.062 188.131C262.093 186.849 261.017 185.839 259.507 185.804C258.066 185.77 256.876 186.703 256.876 186.703L255.678 185.095C255.678 185.095 257.222 183.666 259.716 183.725C262.302 183.786 264.46 185.485 264.4 188.025C264.311 191.801 260.252 192.095 260.187 194.84L260.165 195.779L257.991 195.727ZM257.841 200.166L257.893 197.946L260.159 197.999L260.106 200.219L257.841 200.166Z" fill="white"/>
</g>
<g filter="url(#filter1_d_415_238)">
<path d="M126.593 292.6C126.722 287.148 126.786 284.422 127.187 282.147C129.508 268.994 140.112 258.878 153.36 257.179C155.651 256.886 158.377 256.95 163.829 257.078L357.945 261.653C374.457 262.042 382.713 262.236 388.99 265.497C395 268.619 399.801 273.652 402.637 279.803C405.598 286.227 405.404 294.483 405.015 310.994L404.436 335.546L162.115 329.836C156.663 329.707 153.937 329.643 151.662 329.242C138.509 326.921 128.393 316.317 126.694 303.068C126.4 300.777 126.465 298.052 126.593 292.6Z" fill="white" shape-rendering="crispEdges"/>
<path d="M151.496 300.689L151.876 284.534L154.142 284.587L153.807 298.774L161.038 298.945L160.992 300.912L151.496 300.689ZM162.485 295.155C162.572 291.471 165.122 289.15 168.417 289.228C171.689 289.305 173.371 291.771 173.301 294.769C173.294 295.066 173.209 295.728 173.209 295.728L164.766 295.529C164.82 298.072 166.598 299.396 168.657 299.445C170.648 299.492 172.122 298.175 172.122 298.175L172.999 299.822C172.999 299.822 171.244 301.429 168.475 301.363C164.836 301.278 162.404 298.587 162.485 295.155ZM164.874 293.861L171.052 294.006C171.03 292.014 169.817 291.024 168.33 290.989C166.637 290.949 165.239 291.969 164.874 293.861ZM176.422 297.04L176.55 291.64L175.04 291.605L175.082 289.82L176.66 289.857L176.739 286.516L178.89 286.567L178.811 289.908L181.603 289.973L181.561 291.758L178.769 291.692L178.648 296.841C178.594 299.152 180.211 299.488 181.058 299.508C181.378 299.515 181.585 299.475 181.585 299.475L181.539 301.442C181.539 301.442 181.217 301.481 180.76 301.47C179.272 301.435 176.331 300.908 176.422 297.04ZM184.032 289.321L184.133 285.019L185.895 285.061L185.794 289.362L184.032 289.321ZM187.786 300.124L188.899 298.571C188.899 298.571 190.172 299.952 192.185 299.999C193.146 300.022 194.119 299.541 194.141 298.603C194.192 296.475 188.232 296.769 188.321 292.994C188.37 290.888 190.275 289.743 192.586 289.797C195.126 289.857 196.286 291.167 196.286 291.167L195.354 292.816C195.354 292.816 194.348 291.762 192.518 291.719C191.557 291.696 190.609 292.086 190.585 293.093C190.536 295.175 196.496 294.858 196.407 298.656C196.361 300.578 194.68 301.981 192.14 301.921C189.303 301.854 187.786 300.124 187.786 300.124ZM205.805 304.075C205.805 304.075 207.229 304.887 208.968 304.928C210.981 304.975 212.65 304.122 212.705 301.765L212.725 300.918C212.734 300.552 212.765 300.186 212.765 300.186L212.72 300.185C212.006 301.313 210.915 301.951 209.245 301.912C206.018 301.836 204.134 299.205 204.213 295.864C204.291 292.546 206.203 290.118 209.406 290.194C212.198 290.259 213.004 291.996 213.004 291.996L213.05 291.997C213.05 291.997 213.031 291.836 213.036 291.63L213.061 290.554L215.189 290.605L214.928 301.703C214.838 305.524 211.897 306.92 208.968 306.851C207.572 306.818 206.14 306.395 205.032 305.797L205.805 304.075ZM209.725 300C211.327 300.038 212.814 299.111 212.885 296.091C212.956 293.07 211.512 292.166 209.704 292.124C207.691 292.076 206.512 293.514 206.456 295.871C206.4 298.273 207.642 299.951 209.725 300ZM217.68 296.433C217.762 292.932 220.614 290.458 224.069 290.539C227.524 290.621 230.256 293.226 230.173 296.727C230.09 300.251 227.238 302.748 223.783 302.667C220.328 302.585 217.597 299.957 217.68 296.433ZM219.945 296.486C219.888 298.912 221.655 300.693 223.828 300.745C226.025 300.796 227.851 299.099 227.908 296.674C227.965 294.271 226.22 292.513 224.024 292.461C221.85 292.41 220.002 294.084 219.945 296.486ZM231.493 304.886L233.023 300.206L235.288 300.259L233.255 304.928L231.493 304.886ZM244.835 302.888L245.216 286.733L247.482 286.787L247.101 302.942L244.835 302.888ZM250.869 290.896L250.97 286.594L252.732 286.636L252.631 290.937L250.869 290.896ZM255.466 299.979L255.772 286.982L257.992 287.034L257.694 299.642C257.662 301.038 258.205 301.303 258.891 301.319C259.097 301.324 259.281 301.305 259.281 301.305L259.234 303.273C259.234 303.273 258.89 303.311 258.501 303.302C257.243 303.272 255.397 302.885 255.466 299.979ZM261.521 300.122L261.828 287.125L264.047 287.177L263.75 299.785C263.717 301.181 264.261 301.446 264.947 301.462C265.153 301.467 265.337 301.448 265.337 301.448L265.29 303.416C265.29 303.416 264.946 303.454 264.557 303.445C263.298 303.415 261.453 303.028 261.521 300.122ZM272.612 302.123L273.725 300.57C273.725 300.57 274.998 301.951 277.011 301.998C277.972 302.021 278.945 301.54 278.967 300.602C279.018 298.474 273.058 298.768 273.147 294.993C273.196 292.887 275.101 291.742 277.412 291.796C279.952 291.856 281.112 293.165 281.112 293.165L280.18 294.815C280.18 294.815 279.174 293.761 277.344 293.718C276.383 293.695 275.435 294.085 275.411 295.092C275.362 297.174 281.322 296.857 281.233 300.655C281.187 302.577 279.506 303.98 276.966 303.92C274.129 303.853 272.612 302.123 272.612 302.123ZM283.774 303.806L284.155 287.651L286.374 287.703L286.235 293.63C286.222 294.179 286.166 294.59 286.166 294.59L286.212 294.591C286.742 293.481 288.241 292.051 290.552 292.106C293.275 292.17 294.499 293.687 294.429 296.639L294.254 304.053L292.035 304L292.198 297.09C292.236 295.465 291.923 294.176 290.069 294.132C288.33 294.091 286.861 295.247 286.341 296.906C286.193 297.361 286.134 297.886 286.122 298.435L285.994 303.858L283.774 303.806ZM296.852 298.299C296.934 294.798 299.786 292.323 303.241 292.405C306.697 292.486 309.428 295.092 309.346 298.593C309.263 302.117 306.411 304.614 302.955 304.533C299.5 304.451 296.769 301.822 296.852 298.299ZM299.117 298.352C299.06 300.778 300.827 302.559 303.001 302.61C305.197 302.662 307.023 300.965 307.08 298.54C307.137 296.137 305.393 294.379 303.196 294.327C301.022 294.276 299.174 295.949 299.117 298.352ZM314.221 304.523L310.764 292.857L313.121 292.912L315.332 301.092C315.501 301.692 315.577 302.334 315.6 302.335L315.646 302.336C315.646 302.336 315.775 301.698 315.972 301.107L318.68 293.066L320.717 293.114L323.02 301.273C323.189 301.873 323.312 302.517 323.312 302.517L323.357 302.518C323.357 302.518 323.464 301.879 323.661 301.289L326.278 293.222L328.612 293.277L324.609 304.768L322.161 304.71L319.933 297.217C319.764 296.618 319.643 295.951 319.643 295.951L319.597 295.95C319.597 295.95 319.444 296.61 319.247 297.201L316.692 304.581L314.221 304.523ZM334.633 309.103L335.451 307.428C335.451 307.428 336.081 307.923 336.79 307.94C337.682 307.961 338.453 307.338 338.912 306.296L339.516 304.982L334.934 293.426L337.428 293.485L340.156 301.128C340.371 301.728 340.558 302.534 340.558 302.534L340.604 302.535C340.604 302.535 340.805 301.761 341.025 301.171L344.018 293.64L346.421 293.697L340.676 307.23C339.925 308.998 338.484 309.903 336.859 309.865C335.555 309.834 334.633 309.103 334.633 309.103ZM347.31 299.488C347.392 295.987 350.244 293.512 353.699 293.594C357.154 293.675 359.886 296.281 359.803 299.782C359.72 303.306 356.868 305.803 353.413 305.722C349.958 305.64 347.227 303.012 347.31 299.488ZM349.575 299.541C349.518 301.967 351.285 303.748 353.458 303.799C355.655 303.851 357.481 302.154 357.538 299.729C357.595 297.326 355.85 295.568 353.654 295.516C351.48 295.465 349.632 297.138 349.575 299.541ZM362.236 301.488L362.411 294.074L364.631 294.126L364.468 301.037C364.43 302.638 364.72 303.927 366.574 303.971C368.931 304.027 370.376 301.977 370.43 299.689L370.557 294.266L372.777 294.318L372.504 305.897L370.353 305.846L370.389 304.313C370.401 303.832 370.455 303.467 370.455 303.467L370.409 303.466C369.902 304.599 368.356 306.074 366.09 306.02C363.482 305.959 362.164 304.554 362.236 301.488ZM376.994 301.561L377.11 289.841L379.398 289.895L378.985 301.608L376.994 301.561ZM376.752 305.997L376.805 303.777L379.07 303.831L379.018 306.05L376.752 305.997Z" fill="#181010"/>
<circle cx="161.772" cy="329.274" r="13.6379" transform="rotate(1.34992 161.772 329.274)" fill="#FBF9F9"/>
<g clip-path="url(#clip2_415_238)">
<path fill-rule="evenodd" clip-rule="evenodd" d="M161.529 321.368C165.922 321.368 169.484 324.93 169.484 329.324C169.484 333.717 165.922 337.279 161.529 337.279C157.135 337.279 153.573 333.717 153.573 329.324C153.573 324.93 157.135 321.368 161.529 321.368Z" fill="#FFDFE0"/>
<path fill-rule="evenodd" clip-rule="evenodd" d="M155.724 326.451C155.74 325.392 156.931 324.409 158.058 325.792C159.186 324.409 160.376 325.392 160.392 326.451C160.392 328.029 158.504 329.324 158.058 329.324C157.612 329.324 155.724 328.029 155.724 326.451ZM164.999 325.792C166.126 324.409 167.317 325.392 167.333 326.451C167.333 328.029 165.445 329.324 164.999 329.324C164.553 329.324 162.665 328.029 162.665 326.451C162.681 325.392 163.871 324.409 164.999 325.792ZM165.25 330.91C164.872 330.809 164.482 331.033 164.38 331.412C164.041 332.67 162.892 333.594 161.529 333.594C160.165 333.594 159.016 332.67 158.678 331.412C158.576 331.033 158.186 330.809 157.807 330.91C157.428 331.012 157.204 331.402 157.306 331.781C157.807 333.643 159.507 335.015 161.529 335.015C163.551 335.015 165.251 333.643 165.752 331.781C165.854 331.402 165.629 331.012 165.25 330.91Z" fill="#EE232A"/>
</g>
</g>
<circle cx="443.113" cy="313.562" r="22.8888" transform="rotate(1.34992 443.113 313.562)" fill="white"/>
<path fill-rule="evenodd" clip-rule="evenodd" d="M436.699 302.345L430.528 313.265L436.178 324.464L449.145 324.77L455.317 313.849L449.666 302.65L436.699 302.345ZM451.055 300.393L435.419 300.025L427.858 313.202L434.789 326.721L450.426 327.089L457.986 313.912L451.055 300.393Z" fill="#0D160B"/>
<path d="M455.316 313.849L457.986 313.912L450.425 327.09L449.144 324.77L455.316 313.849Z" fill="#EE2329"/>
<path d="M430.528 313.265L427.859 313.202L435.419 300.025L436.7 302.345L430.528 313.265Z" fill="#EE2329"/>
<path fill-rule="evenodd" clip-rule="evenodd" d="M447.262 315.569L449.934 315.632L449.889 317.539L440.353 317.314L440.277 320.556L438.37 320.511L438.581 311.549L440.488 311.594L440.398 315.408L445.355 315.524L445.445 311.709L435.911 311.485L435.956 309.578L445.49 309.803L445.566 306.563L447.473 306.608L447.397 309.847L447.397 309.847L447.353 311.754L447.352 311.754L447.262 315.569Z" fill="#0D160B"/>
<rect x="438.703" y="306.398" width="1.90739" height="1.90739" transform="rotate(1.34992 438.703 306.398)" fill="#EE2329"/>
<rect x="445.279" y="318.766" width="1.90739" height="1.90739" transform="rotate(1.34992 445.279 318.766)" fill="#EE2329"/>
</g>
<defs>
<filter id="filter0_d_415_238" x="51.8827" y="90.1966" width="411.066" height="166.158" filterUnits="userSpaceOnUse" color-interpolation-filters="sRGB">
<feFlood flood-opacity="0" result="BackgroundImageFix"/>
<feColorMatrix in="SourceAlpha" type="matrix" values="0 0 0 0 0 0 0 0 0 0 0 0 0 0 0 0 0 0 127 0" result="hardAlpha"/>
<feOffset dy="7.6296"/>
<feGaussianBlur stdDeviation="7.6296"/>
<feComposite in2="hardAlpha" operator="out"/>
<feColorMatrix type="matrix" values="0 0 0 0 0.0941176 0 0 0 0 0.0627451 0 0 0 0 0.0627451 0 0 0 0.24 0"/>
<feBlend mode="normal" in2="BackgroundImageFix" result="effect1_dropShadow_415_238"/>
<feBlend mode="normal" in="SourceGraphic" in2="effect1_dropShadow_415_238" result="shape"/>
</filter>
<filter id="filter1_d_415_238" x="95.2175" y="229.517" width="341.452" height="147.728" filterUnits="userSpaceOnUse" color-interpolation-filters="sRGB">
<feFlood flood-opacity="0" result="BackgroundImageFix"/>
<feColorMatrix in="SourceAlpha" type="matrix" values="0 0 0 0 0 0 0 0 0 0 0 0 0 0 0 0 0 0 127 0" result="hardAlpha"/>
<feOffset dy="3.8148"/>
<feGaussianBlur stdDeviation="15.2592"/>
<feComposite in2="hardAlpha" operator="out"/>
<feColorMatrix type="matrix" values="0 0 0 0 0.0941176 0 0 0 0 0.0627451 0 0 0 0 0.0627451 0 0 0 0.24 0"/>
<feBlend mode="normal" in2="BackgroundImageFix" result="effect1_dropShadow_415_238"/>
<feBlend mode="normal" in="SourceGraphic" in2="effect1_dropShadow_415_238" result="shape"/>
</filter>
<radialGradient id="paint0_radial_415_238" cx="0" cy="0" r="1" gradientUnits="userSpaceOnUse" gradientTransform="translate(271.854 233.354) rotate(42.1719) scale(265.134 224.211)">
<stop stop-color="white" stop-opacity="0.3"/>
<stop offset="1" stop-color="white" stop-opacity="0"/>
</radialGradient>
<clipPath id="clip0_415_238">
<rect width="562" height="450" fill="white"/>
</clipPath>
<clipPath id="clip1_415_238">
<rect width="45.7776" height="45.7776" fill="white" transform="translate(7.20047 177.366) rotate(1.34992)"/>
</clipPath>
<clipPath id="clip2_415_238">
<rect width="15.9109" height="15.9109" fill="white" transform="translate(153.573 321.368)"/>
</clipPath>
</defs>
</svg>
