<svg width="20" height="20" viewBox="0 0 20 20" fill="none" xmlns="http://www.w3.org/2000/svg">
<g clip-path="url(#clip0_758_5792)">
<path d="M10.0317 19.228C10.7722 19.7049 11.6537 19.9139 12.5296 19.8203C13.4054 19.7267 14.2228 19.3362 14.846 18.7137L15.3888 18.1709C15.6296 17.9274 15.7646 17.5989 15.7646 17.2566C15.7646 16.9142 15.6296 16.5856 15.3888 16.3423L13.1031 14.0708C12.8621 13.8309 12.536 13.6962 12.196 13.6962C11.8559 13.6962 11.5298 13.8309 11.2888 14.0708C11.0454 14.3116 10.7169 14.4466 10.3745 14.4466C10.0322 14.4466 9.70363 14.3116 9.46025 14.0708L5.81739 10.4279C5.57656 10.1846 5.44156 9.85602 5.44156 9.51366C5.44156 9.17131 5.57656 8.84276 5.81739 8.59938C6.05729 8.35842 6.19198 8.03225 6.19198 7.69224C6.19198 7.35222 6.05729 7.02605 5.81739 6.78509L3.61742 4.49938C3.37399 4.25859 3.04542 4.12354 2.70313 4.12354C2.3607 4.12354 2.03213 4.25859 1.78885 4.49938L1.24599 5.04224C0.612276 5.65658 0.208419 6.46966 0.101847 7.34581C-0.0047245 8.22195 0.192277 9.10815 0.660276 9.85652C3.15128 13.5548 6.33342 16.7369 10.0317 19.228Z" fill="#FFDFE0"/>
<path fill-rule="evenodd" clip-rule="evenodd" d="M9.56863 0.157715C8.9769 0.157715 8.4972 0.637409 8.4972 1.22914C8.4972 1.82088 8.9769 2.30057 9.56863 2.30057C10.6473 2.30057 11.7155 2.51304 12.7121 2.92585C13.7087 3.33865 14.6142 3.94371 15.377 4.70648C16.1398 5.46925 16.7448 6.37478 17.1576 7.37138C17.5705 8.36799 17.7829 9.43614 17.7829 10.5149C17.7829 11.1066 18.2626 11.5863 18.8544 11.5863C19.4461 11.5863 19.9258 11.1066 19.9258 10.5149C19.9258 9.15474 19.6579 7.80794 19.1374 6.55135C18.6169 5.29477 17.854 4.15299 16.8922 3.19125C15.9305 2.22949 14.7887 1.46659 13.5321 0.946105C12.2756 0.425609 10.9288 0.157715 9.56863 0.157715ZM9.12012 4.28984C8.52839 4.28984 8.04869 4.76954 8.04869 5.36127C8.04869 5.95299 8.52839 6.43269 9.12012 6.43269C10.3515 6.43269 11.5324 6.92185 12.4031 7.79255C13.2738 8.66327 13.763 9.8442 13.763 11.0756C13.763 11.6673 14.2427 12.147 14.8344 12.147C15.4261 12.147 15.9058 11.6673 15.9058 11.0756C15.9058 9.27587 15.1909 7.54989 13.9183 6.27732C12.6458 5.00475 10.9198 4.28984 9.12012 4.28984Z" fill="#EE232A"/>
</g>
<defs>
<clipPath id="clip0_758_5792">
<rect width="20" height="20" fill="white" transform="matrix(-1 0 0 1 20 0)"/>
</clipPath>
</defs>
</svg>
