<svg width="82" height="24" viewBox="0 0 82 24" fill="none" xmlns="http://www.w3.org/2000/svg">
<g clip-path="url(#clip0_1237_1233)">
<path d="M12.0474 24C18.701 24 24.0948 18.6275 24.0948 12C24.0948 5.37262 18.701 0 12.0474 0C5.39385 0 0 5.37262 0 12C0 18.6274 5.39374 24 12.0474 24Z" fill="#404554"/>
<path d="M12.8136 15.4536H7.25392L4.53296 6.72559H10.1212L12.8136 15.4536Z" fill="#F1C12B"/>
<path opacity="0.5" d="M18.052 17.2743C18.8858 17.2743 19.5618 16.601 19.5618 15.7705C19.5618 14.9398 18.8858 14.2666 18.052 14.2666C17.2181 14.2666 16.5422 14.9398 16.5422 15.7705C16.5422 16.6011 17.2181 17.2743 18.052 17.2743Z" fill="white"/>
<path d="M9.75708 17.2749H15.3156L18.0377 8.54688H12.4495L9.75708 17.2749Z" fill="white"/>
<path d="M33.5462 2.19495H34.8549L37.0226 8.73416L39.1273 2.21628H40.7525L37.6806 11.0699H36.3445L34.1768 4.75589L32.009 11.0699H30.673L27.5986 2.21984H29.2738L31.3785 8.73771L33.5462 2.19495ZM43.6531 2.21984V11.0071H42.1065V2.21984H43.6531ZM49.0903 5.91014C50.9558 6.36165 51.9255 7.02766 51.9255 8.49596C51.9255 10.1551 50.6274 11.1327 48.775 11.1327C47.4148 11.1393 46.1017 10.6373 45.0951 9.72606L46.0279 8.62158C46.8714 9.35039 47.7161 9.76398 48.8131 9.76398C49.7708 9.76398 50.3752 9.32432 50.3752 8.64646C50.3752 8.00653 50.0183 7.6676 48.3848 7.29075C46.5062 6.83924 45.4485 6.28699 45.4485 4.65515C45.4485 3.12405 46.7084 2.09422 48.4597 2.09422C49.625 2.07057 50.7604 2.46226 51.6613 3.19871L50.8285 4.366C50.0338 3.77346 49.2402 3.46298 48.4335 3.46298C47.5258 3.46298 46.9975 3.92634 46.9975 4.5165C46.9928 5.2074 47.3949 5.5084 49.0903 5.91014ZM56.7047 11.0071H53.4186V2.21984H56.7047C59.4768 2.21984 61.3935 4.11595 61.3935 6.60459C61.3935 9.09324 59.4804 11.0071 56.7047 11.0071ZM56.7047 3.62533H54.9688V9.60044H56.7047C58.5571 9.60044 59.7671 8.35849 59.7671 6.62592C59.7671 4.89335 58.5607 3.62533 56.7047 3.62533ZM67.1555 11.1576C64.4452 11.1576 62.5559 9.11101 62.5559 6.62592C62.5559 4.14084 64.4714 2.06934 67.1805 2.06934C69.8895 2.06934 71.78 4.11476 71.78 6.60104C71.78 9.08731 69.8645 11.1576 67.1555 11.1576ZM67.1555 3.48786C65.4042 3.48786 64.1811 4.8815 64.1811 6.60104C64.1811 8.32057 65.4291 9.7391 67.1805 9.7391C68.9318 9.7391 70.1548 8.34546 70.1548 6.62592C70.1548 4.90639 68.9068 3.48786 67.1555 3.48786ZM77.6645 8.84793H77.6146L74.8543 4.72981V11.0107H73.3303V2.21984H74.9805L77.6645 6.37469L80.3498 2.21984H82V11.0071H80.4533V4.70493L77.6645 8.84793Z" fill="#404554"/>
<path opacity="0.6" d="M32.7099 21.9096C30.1888 21.9096 28.3232 19.9139 28.3232 17.3897V17.3648C28.3232 14.8762 30.1888 12.8213 32.7348 12.8213C34.3101 12.8213 35.2547 13.3984 36.1625 14.2268L35.6961 14.7008C34.9276 13.9601 34.0448 13.4079 32.7218 13.4079C30.6052 13.4079 29.0038 15.1274 29.0038 17.3364V17.3613C29.0038 19.5833 30.6302 21.3159 32.7348 21.3159C34.0079 21.3159 34.8764 20.8264 35.7723 19.9471L36.2125 20.3737C35.2809 21.2945 34.272 21.9096 32.7099 21.9096ZM37.4476 21.7591V12.9718H38.1031V21.7591H37.4476ZM46.5086 21.7591L43.6984 18.1185H40.8121V21.7591H40.1565V12.9718H43.8614C45.765 12.9718 47.013 14.0004 47.013 15.4699V15.4948C47.013 16.9631 45.9161 17.8045 44.4289 18.006L47.3402 21.7591H46.5086ZM46.3539 15.4948C46.3539 14.3097 45.4212 13.5738 43.8209 13.5738H40.8121V17.5284H43.7864C45.2605 17.5284 46.3575 16.7877 46.3575 15.5138L46.3539 15.4948ZM52.6072 21.9096C50.0874 21.9096 48.2218 19.9139 48.2218 17.3897V17.3648C48.2218 14.8762 50.0874 12.8213 52.6322 12.8213C54.2075 12.8213 55.1533 13.3984 56.0611 14.2268L55.5947 14.7008C54.8261 13.9601 53.9433 13.4079 52.6203 13.4079C50.5026 13.4079 48.9024 15.1274 48.9024 17.3364V17.3613C48.9024 19.5833 50.5276 21.3159 52.6322 21.3159C53.9053 21.3159 54.7738 20.8264 55.6697 19.9471L56.1111 20.3737C55.1783 21.2945 54.1706 21.9096 52.6072 21.9096ZM57.2569 21.7591V12.9718H57.9125V21.1559H63.0926V21.7591H57.2569ZM64.4024 21.7591V12.9718H70.6784V13.5738H65.058V17.0259H70.1109V17.6291H65.058V21.1559H70.7438V21.7591H64.4024Z" fill="#404554"/>
</g>
<defs>
<clipPath id="clip0_1237_1233">
<rect width="82" height="24" fill="white"/>
</clipPath>
</defs>
</svg>
