<svg width="45" height="25" viewBox="0 0 45 25" fill="none" xmlns="http://www.w3.org/2000/svg">
<path fill-rule="evenodd" clip-rule="evenodd" d="M22.5581 1.42408C22.6001 1.36372 22.5845 1.28062 22.5235 1.23963L22.4094 1.16855C21.0627 0.359834 19.1507 0.271232 17.524 0.974053L17.403 1.028C15.6405 1.83782 14.4535 3.46141 14.1842 5.7013L14.1692 5.83254L14.101 5.84259C11.5893 6.22597 10.1174 8.03403 10.1152 10.3078C10.1131 12.5912 11.616 14.5515 13.8389 14.7745L13.8805 14.7765L14.5134 14.7744L16.5891 14.7728L18.8497 14.777L23.9677 9.18751C24.1015 9.23911 24.247 9.2674 24.3991 9.2674C25.0616 9.2674 25.5991 8.72991 25.5991 8.0674C25.5991 7.40459 25.0617 6.8674 24.3991 6.8674C23.7362 6.8674 23.1991 7.40448 23.1991 8.0674C23.1991 8.28582 23.2575 8.49064 23.3595 8.66708L18.498 13.9757L15.4469 13.9728L13.9008 13.9761L13.8165 13.9666C12.0888 13.7382 10.9135 12.1693 10.9152 10.3086C10.9171 8.32047 12.2408 6.79666 14.5763 6.59095L14.9194 6.56074L14.9405 6.21701L14.9513 6.06579C15.1274 3.91356 16.2051 2.4154 17.8413 1.70844C19.3148 1.0718 21.0604 1.19295 22.1775 1.97076L22.5581 1.42408ZM23.6628 2.05082C23.5352 1.92579 23.3301 1.92874 23.2062 2.05739L16.5258 8.98884C16.3669 8.91112 16.1882 8.8675 15.9993 8.8675C15.3364 8.8675 14.7993 9.40459 14.7993 10.0675C14.7993 10.7301 15.3365 11.2675 15.9993 11.2675C16.6621 11.2675 17.1993 10.7301 17.1993 10.0675C17.1993 9.88594 17.159 9.71381 17.0869 9.55958L23.431 2.97668L23.485 3.04374C23.7801 3.41957 24.0658 3.90593 24.3398 4.50306L24.4756 4.79911L25.0573 4.66585L25.2426 4.62602C26.4853 4.36974 27.4056 4.40938 28.3491 4.92938C28.9456 5.25821 29.4989 5.77588 30.0053 6.51577L30.6654 6.06391L30.5568 5.90919C30.0096 5.14934 29.4008 4.5956 28.7352 4.22876L28.608 4.16093C27.507 3.59384 26.4403 3.56161 25.0783 3.84307L24.9266 3.87508L24.8158 3.65668C24.4752 3.00639 24.1108 2.48961 23.7193 2.1061L23.6628 2.05082ZM16.3986 10.0674C16.3986 9.84629 16.2197 9.66737 15.9986 9.66737C15.7775 9.66737 15.5986 9.84629 15.5986 10.0674C15.5986 10.2882 15.7777 10.4674 15.9986 10.4674C16.2195 10.4674 16.3986 10.2882 16.3986 10.0674ZM24.3983 7.66765C24.6192 7.66765 24.7984 7.84674 24.7984 8.06765C24.7984 8.28834 24.619 8.46765 24.3983 8.46765C24.1774 8.46765 23.9983 8.28851 23.9983 8.06765C23.9983 7.84657 24.1773 7.66765 24.3983 7.66765Z" fill="#8168D4"/>
<path fill-rule="evenodd" clip-rule="evenodd" d="M28.31 10.8085C28.3685 10.9498 28.4007 11.1047 28.4007 11.2671C28.4007 11.9296 27.8633 12.4671 27.2007 12.4671C26.5379 12.4671 26.0007 11.9298 26.0007 11.2671C26.0007 10.6042 26.5378 10.0671 27.2007 10.0671C27.4085 10.0671 27.6038 10.1199 27.7742 10.2128L30.7548 7.22078C30.9573 7.01745 31.3046 7.16109 31.3043 7.44809L31.3036 8.11055L31.3662 8.08451C32.8031 7.50745 34.3842 8.22486 35.2015 9.7024L35.2516 9.79574C36.2128 11.6431 35.5435 13.6811 33.2424 14.6934C33.1148 14.7472 32.978 14.7758 32.8395 14.7775L32.0759 14.7867L30.1997 14.7978L28.8451 14.8007L25.1072 14.7963L20.4919 14.7767C20.4208 14.7764 20.3634 14.7184 20.3638 14.6473L20.3667 14.1046C20.3671 14.0336 20.4249 13.9764 20.4959 13.9766L25.7081 13.9979L28.4441 14.001L31.0357 13.9942L32.3932 13.9834L32.8335 13.9779C32.865 13.9776 32.8962 13.9711 32.9253 13.9589C34.7563 13.1519 35.2718 11.6662 34.5846 10.2499L34.5419 10.165C33.8338 8.80408 32.3884 8.25873 31.2184 9.06963L31.1441 9.12324L31.019 9.21712C30.8071 9.37617 30.5045 9.2251 30.5043 8.96013L30.504 8.60575L28.31 10.8085ZM27.2006 10.8664C27.4215 10.8664 27.6006 11.0455 27.6006 11.2664C27.6006 11.4871 27.4213 11.6664 27.2006 11.6664C26.9797 11.6664 26.8006 11.4873 26.8006 11.2664C26.8006 11.0453 26.9795 10.8664 27.2006 10.8664Z" fill="#8168D4"/>
<path fill-rule="evenodd" clip-rule="evenodd" d="M14.1404 18.2591V23.0847H14.1212L10.762 19.8275L10.7804 22.9183H10.0252V18.0991H10.0636L13.4104 21.3975L13.398 18.2591H14.1404ZM3.27889 22.9697C3.60742 22.9697 3.88689 22.91 4.11729 22.7905C4.34769 22.6711 4.52369 22.51 4.64529 22.3073C4.76689 22.1047 4.82769 21.8817 4.82769 21.6385C4.82769 21.4167 4.79569 21.23 4.73169 21.0785C4.66769 20.9271 4.58022 20.8001 4.46929 20.6977C4.35835 20.5953 4.23355 20.5089 4.09489 20.4385C3.95622 20.3681 3.81649 20.3073 3.67569 20.2561C3.51355 20.1921 3.35889 20.1249 3.21169 20.0545C3.06449 19.9841 2.94502 19.9009 2.85329 19.8049C2.76155 19.7089 2.71569 19.5969 2.71569 19.4689C2.71569 19.2897 2.78289 19.1489 2.91729 19.0465C3.05169 18.9441 3.23409 18.8929 3.46449 18.8929C3.63515 18.8929 3.81435 18.9239 4.00209 18.9857C4.18982 19.0476 4.36689 19.1212 4.53329 19.2065L4.81489 18.6369C4.63569 18.526 4.42982 18.4311 4.19729 18.3521C3.96475 18.2732 3.68422 18.2337 3.35569 18.2337C3.07835 18.2423 2.83409 18.302 2.62289 18.4129C2.41169 18.5239 2.24635 18.6732 2.12689 18.8609C2.00742 19.0487 1.94769 19.2705 1.94769 19.5265C1.94769 19.7399 1.98822 19.9191 2.06929 20.0641C2.15035 20.2092 2.25595 20.3319 2.38609 20.4321C2.51622 20.5324 2.65595 20.6167 2.80529 20.6849C2.95462 20.7532 3.10182 20.8151 3.24689 20.8705C3.39195 20.926 3.52635 20.9889 3.65009 21.0593C3.77382 21.1297 3.87302 21.2119 3.94769 21.3057C4.02235 21.3996 4.05969 21.5127 4.05969 21.6449C4.05969 21.8071 4.01595 21.9372 3.92849 22.0353C3.84102 22.1335 3.73222 22.2049 3.60209 22.2497C3.47195 22.2945 3.34075 22.3169 3.20849 22.3169C3.08475 22.3169 2.95249 22.2977 2.81169 22.2593C2.67089 22.2209 2.53435 22.1697 2.40209 22.1057C2.26982 22.0417 2.15249 21.9713 2.05009 21.8945L1.71729 22.4769C1.85809 22.5708 2.01169 22.6551 2.17809 22.7297C2.34449 22.8044 2.52049 22.8631 2.70609 22.9057C2.89169 22.9484 3.08262 22.9697 3.27889 22.9697ZM8.99363 22.9186V22.2018H6.56163V20.9346H8.64803V20.2178H6.56163V18.9762H8.90403V18.2594H5.81283V22.9186H8.99363ZM16.617 22.9697C16.9456 22.9697 17.225 22.91 17.4554 22.7905C17.6858 22.6711 17.8618 22.51 17.9834 22.3073C18.105 22.1047 18.1658 21.8817 18.1658 21.6385C18.1658 21.4167 18.1338 21.23 18.0698 21.0785C18.0058 20.9271 17.9184 20.8001 17.8074 20.6977C17.6965 20.5953 17.5717 20.5089 17.433 20.4385C17.2944 20.3681 17.1546 20.3073 17.0138 20.2561C16.8517 20.1921 16.697 20.1249 16.5498 20.0545C16.4026 19.9841 16.2832 19.9009 16.1914 19.8049C16.0997 19.7089 16.0538 19.5969 16.0538 19.4689C16.0538 19.2897 16.121 19.1489 16.2554 19.0465C16.3898 18.9441 16.5722 18.8929 16.8026 18.8929C16.9733 18.8929 17.1525 18.9239 17.3402 18.9857C17.528 19.0476 17.705 19.1212 17.8714 19.2065L18.153 18.6369C17.9738 18.526 17.768 18.4311 17.5354 18.3521C17.3029 18.2732 17.0224 18.2337 16.6938 18.2337C16.4165 18.2423 16.1722 18.302 15.961 18.4129C15.7498 18.5239 15.5845 18.6732 15.465 18.8609C15.3456 19.0487 15.2858 19.2705 15.2858 19.5265C15.2858 19.7399 15.3264 19.9191 15.4074 20.0641C15.4885 20.2092 15.5941 20.3319 15.7242 20.4321C15.8544 20.5324 15.9941 20.6167 16.1434 20.6849C16.2928 20.7532 16.44 20.8151 16.585 20.8705C16.7301 20.926 16.8645 20.9889 16.9882 21.0593C17.112 21.1297 17.2112 21.2119 17.2858 21.3057C17.3605 21.3996 17.3978 21.5127 17.3978 21.6449C17.3978 21.8071 17.3541 21.9372 17.2666 22.0353C17.1792 22.1335 17.0704 22.2049 16.9402 22.2497C16.8101 22.2945 16.6789 22.3169 16.5466 22.3169C16.4229 22.3169 16.2906 22.2977 16.1498 22.2593C16.009 22.2209 15.8725 22.1697 15.7402 22.1057C15.608 22.0417 15.4906 21.9713 15.3882 21.8945L15.0554 22.4769C15.1962 22.5708 15.3498 22.6551 15.5162 22.7297C15.6826 22.8044 15.8586 22.8631 16.0442 22.9057C16.2298 22.9484 16.4208 22.9697 16.617 22.9697ZM21.1218 21.4082V22.9186H20.3794V21.4082L18.6578 18.2594H19.573L20.775 20.5582L21.9538 18.2594H22.869L21.1218 21.4082ZM24.4058 22.9186V21.2994H25.0778L25.153 21.2982L26.2042 22.9186H27.0682L25.935 21.1154L26.0053 21.0764C26.1094 21.0149 26.2007 20.9444 26.279 20.8648L26.3354 20.8034C26.4613 20.6562 26.5519 20.4908 26.6074 20.3074C26.6629 20.1239 26.6906 19.9404 26.6906 19.757C26.6906 19.518 26.649 19.3058 26.5658 19.1202C26.4826 18.9346 26.3663 18.7778 26.217 18.6498C26.0677 18.5218 25.8863 18.4247 25.673 18.3586C25.4597 18.2924 25.225 18.2594 24.969 18.2594H23.657V22.9186H24.4058ZM24.4054 20.5825H25.071C25.2374 20.5825 25.3761 20.5559 25.487 20.5025C25.598 20.4492 25.6844 20.382 25.7462 20.3009C25.8081 20.2199 25.8529 20.1335 25.8806 20.0417C25.9084 19.95 25.9222 19.8636 25.9222 19.7825C25.9222 19.7057 25.9094 19.6215 25.8838 19.5297C25.8582 19.438 25.8145 19.3505 25.7526 19.2673C25.6908 19.1841 25.6065 19.1148 25.4998 19.0593C25.3932 19.0039 25.2588 18.9761 25.0966 18.9761H24.4054V20.5825ZM29.5255 22.9186V18.9762H30.7287V18.2594H27.6119V18.9762H28.7831V22.9186H29.5255ZM34.856 22.2018V22.9186H31.6752V18.2594H34.7664V18.9762H32.424V20.2178H34.5104V20.9346H32.424V22.2018H34.856ZM37.9418 22.9694C38.1679 22.9736 38.3738 22.9512 38.5594 22.9022C38.745 22.8531 38.905 22.7944 39.0394 22.7262C39.1738 22.6579 39.2751 22.6003 39.3434 22.5534L39.0298 21.8878C38.9188 21.9816 38.7727 22.0659 38.5914 22.1406C38.41 22.2152 38.1999 22.2526 37.961 22.2526C37.7178 22.2526 37.4991 22.211 37.305 22.1278C37.1108 22.0446 36.9444 21.9294 36.8058 21.7822C36.6671 21.635 36.5604 21.459 36.4858 21.2542C36.4111 21.0494 36.3738 20.8254 36.3738 20.5822C36.3738 20.3475 36.4154 20.1299 36.4986 19.9294C36.5818 19.7288 36.6938 19.5528 36.8346 19.4014C36.9754 19.2499 37.1396 19.1326 37.3274 19.0494C37.5151 18.9662 37.7114 18.9246 37.9162 18.9246C38.1423 18.9246 38.345 18.9651 38.5242 19.0462C38.7034 19.1272 38.8527 19.2083 38.9722 19.2894L39.2666 18.5918C39.1087 18.4936 38.9135 18.4051 38.681 18.3262C38.4484 18.2472 38.185 18.2078 37.8906 18.2078C37.5578 18.2078 37.2506 18.2675 36.969 18.387C36.6874 18.5064 36.4442 18.6739 36.2394 18.8894C36.0346 19.1048 35.8767 19.3598 35.7658 19.6542C35.6548 19.9486 35.5994 20.2728 35.5994 20.627C35.5994 20.9427 35.6538 21.2403 35.7626 21.5198C35.8714 21.7992 36.026 22.0467 36.2266 22.2622C36.4271 22.4776 36.6724 22.6483 36.9626 22.7742C37.2527 22.9 37.5791 22.9651 37.9418 22.9694ZM41.0832 20.9346V22.9186H40.3344V18.2594H41.0832V20.2242H43.3744V18.2594H44.1168V22.9186H43.3744V20.9346H41.0832Z" fill="#8168D4"/>
</svg>
