<svg width="96" height="20" viewBox="0 0 96 20" fill="none" xmlns="http://www.w3.org/2000/svg">
<path d="M20.1844 1.91045C20.1844 0.865676 19.4393 0.146544 18.3963 0.146544C15.7819 0.146544 13.1676 0.146544 10.5532 0.146544C7.93885 0.146544 5.45994 0.200818 2.91331 0.119407C1.34198 0.0787017 0.705322 1.04207 0.705322 2.35821C0.732414 4.92266 0.705322 7.48711 0.705322 10.0651C0.705322 12.6431 0.705322 14.9769 0.705322 17.4328C0.705322 18.6404 1.42326 19.4817 2.46629 19.4817C7.78984 19.4817 13.1134 19.4817 18.4234 19.4817C19.4258 19.4817 20.1708 18.7354 20.1708 17.7313C20.1708 12.4668 20.1708 7.18861 20.1708 1.92402L20.1844 1.91045ZM3.07586 7.50068C3.56351 6.59159 4.1189 5.72321 4.70137 4.86839C5.12129 4.24424 5.93405 4.10855 6.55716 4.48847C7.20737 4.86839 7.45119 5.6825 7.07191 6.36093C6.57071 7.24288 6.02887 8.08413 5.48703 8.93894C5.22966 9.346 4.82328 9.53596 4.34918 9.53596C3.27905 9.53596 2.57466 8.45048 3.07586 7.50068ZM5.82568 16.7951C4.68783 16.7951 4.03762 15.6554 4.6201 14.6377C5.4464 13.2266 6.32688 11.829 7.18028 10.4315C8.65678 8.01629 10.1333 5.60109 11.6098 3.18589C11.962 2.61601 12.3819 2.16825 13.0998 2.20896C14.2106 2.2768 14.7795 3.43013 14.1564 4.46133C12.856 6.64587 11.515 8.80326 10.1875 10.9607C9.18507 12.616 8.16913 14.2578 7.16673 15.9132C6.85517 16.4288 6.46234 16.7815 5.82568 16.7951ZM17.6919 8.93894C16.9604 10.2008 16.1748 11.4356 15.4162 12.6839C14.5764 14.0407 13.7501 15.4111 12.9102 16.7544C12.3548 17.6499 11.5692 17.8942 10.8241 17.4193C10.1062 16.9715 9.97074 16.1438 10.4855 15.289C12.0568 12.7246 13.6281 10.1601 15.1995 7.58209C15.511 7.06649 15.9174 6.71371 16.5541 6.72728C17.6784 6.72728 18.3015 7.89417 17.7055 8.92538L17.6919 8.93894Z" fill="#0E121B"/>
<path d="M65.6869 5.23438H69.8861C70.875 8.64007 71.8638 12.0186 72.8527 15.4108C72.9069 15.4108 72.9611 15.4108 73.0152 15.4108C74.0041 12.0186 74.9929 8.64007 75.9682 5.24794H80.181C78.5013 10.0512 76.8352 14.7866 75.1961 19.5085H70.6582C69.0056 14.773 67.353 10.0512 65.6733 5.23438H65.6869Z" fill="#0E121B"/>
<path d="M61.0015 0.378906H64.8214V19.4834H61.0015V0.378906Z" fill="#0E121B"/>
<path d="M44.6597 7.66503C44.2533 5.38552 43.2509 3.41809 41.3139 2.00696C39.878 0.975752 38.2525 0.433011 36.5322 0.378737C33.9314 0.283757 31.317 0.3516 28.6484 0.3516V19.4832C28.7974 19.5103 28.9058 19.5375 29.0142 19.5375C31.7098 19.4968 34.419 19.5918 37.1146 19.3747C40.5689 19.1033 42.9529 17.2308 44.1856 13.9744C44.9577 11.9255 45.0526 9.79529 44.6733 7.66503H44.6597ZM40.5147 12.2241C39.9864 14.4222 38.5234 15.7247 36.2613 15.8876C35.0963 15.969 33.9313 15.9011 32.6987 15.9011V3.73016C34.866 3.82514 37.1553 3.18742 38.9704 4.82921C39.6613 5.45336 40.176 6.40316 40.4605 7.29868C40.9752 8.89977 40.9075 10.5687 40.5147 12.2241Z" fill="#0E121B"/>
<path d="M88.7411 13.3256H93.6583C93.7667 11.3718 93.577 9.60786 92.6424 7.99321C91.5316 6.09361 89.7706 5.18452 87.6439 4.99456C85.1108 4.77747 82.8758 5.48303 81.3451 7.61329C79.8686 9.66213 79.6247 12.0095 80.0988 14.4383C80.3698 15.8358 80.9522 17.1384 82.0359 18.0746C84.6774 20.3541 88.7682 20.4898 91.6264 18.4817C92.5476 17.8575 93.3197 16.7449 93.55 15.4152C92.3037 15.3473 91.1388 15.2795 89.9874 15.2117C88.9037 16.962 87.1969 17.0705 85.8559 16.6364C84.5148 16.2022 83.7833 14.9674 83.9053 13.3392H88.7276L88.7411 13.3256ZM87.1698 7.91179C88.7411 7.97964 90.0009 9.35006 89.8384 10.8562H83.9323C83.9323 9.13296 85.3682 7.83038 87.1698 7.91179Z" fill="#0E121B"/>
<path d="M59.5865 11.533C59.424 8.7922 58.3268 6.67551 55.7124 5.49505C52.7323 4.15176 48.8853 5.21011 47.0836 7.92381C45.851 9.7827 45.7561 11.8587 45.9864 13.9618C46.1354 15.3458 46.6502 16.6077 47.6119 17.666C49.3864 19.6199 51.6893 19.9998 54.1546 19.7827C55.8614 19.6334 57.365 18.9415 58.4893 17.5982C59.0041 16.974 59.3833 16.1463 59.424 15.4136C58.2049 15.3458 57.0399 15.278 55.9156 15.2101C54.8861 17.0554 52.8136 17.164 51.4048 16.472C50.2128 15.8885 49.698 14.396 49.9825 13.3241H59.4917C59.5324 13.1477 59.5594 13.0934 59.5594 13.0256C59.5594 12.5235 59.5865 12.0351 59.5594 11.5466L59.5865 11.533ZM55.8208 10.841H49.9283C49.6574 9.66058 51.012 8.08664 52.6104 7.91024C54.263 7.73385 55.9698 9.10428 55.8208 10.841Z" fill="#0E121B"/>
</svg>
