<svg width="515" height="450" viewBox="0 0 515 450" fill="none" xmlns="http://www.w3.org/2000/svg">
<g clip-path="url(#clip0_888_2219)">
<path d="M510.086 212.209C512.778 216.869 514.124 219.199 514.65 221.676C515.117 223.867 515.117 226.133 514.65 228.324C514.124 230.801 512.778 233.131 510.086 237.791L394.877 437.209C392.185 441.869 390.839 444.199 388.956 445.893C387.29 447.393 385.327 448.525 383.195 449.217C380.785 450 378.093 450 372.709 450L142.291 450C136.907 450 134.215 450 131.805 449.217C129.673 448.525 127.71 447.393 126.044 445.893C124.161 444.199 122.815 441.869 120.123 437.209L4.91442 237.79C2.22246 233.131 0.876455 230.801 0.349599 228.324C-0.116526 226.133 -0.116526 223.867 0.3496 221.676C0.876455 219.199 2.22246 216.869 4.91442 212.209L120.123 12.7905C122.815 8.13087 124.161 5.80105 126.044 4.10663C127.71 2.6074 129.673 1.47487 131.805 0.7825C134.215 -1.61681e-05 136.907 -1.6527e-05 142.291 -1.62916e-05L372.709 -6.21975e-06C378.093 -5.98441e-06 380.785 -5.39025e-06 383.195 0.782511C385.327 1.47488 387.29 2.60741 388.956 4.10664C390.839 5.80106 392.185 8.13088 394.877 12.7905L510.086 212.209Z" fill="#81D0FF"/>
<path opacity="0.2" d="M510.086 212.209C512.778 216.869 514.124 219.199 514.65 221.676C515.117 223.867 515.117 226.133 514.65 228.324C514.124 230.801 512.778 233.131 510.086 237.791L394.877 437.209C392.185 441.869 390.839 444.199 388.956 445.893C387.29 447.393 385.327 448.525 383.195 449.217C380.785 450 378.093 450 372.709 450L142.291 450C136.907 450 134.215 450 131.805 449.217C129.673 448.525 127.71 447.393 126.044 445.893C124.161 444.199 122.815 441.869 120.123 437.209L4.91442 237.79C2.22246 233.131 0.876455 230.801 0.349599 228.324C-0.116526 226.133 -0.116526 223.867 0.3496 221.676C0.876455 219.199 2.22246 216.869 4.91442 212.209L120.123 12.7905C122.815 8.13087 124.161 5.80105 126.044 4.10663C127.71 2.6074 129.673 1.47487 131.805 0.7825C134.215 -1.61681e-05 136.907 -1.6527e-05 142.291 -1.62916e-05L372.709 -6.21975e-06C378.093 -5.98441e-06 380.785 -5.39025e-06 383.195 0.782511C385.327 1.47488 387.29 2.60741 388.956 4.10664C390.839 5.80106 392.185 8.13088 394.877 12.7905L510.086 212.209Z" fill="white"/>
<path fill-rule="evenodd" clip-rule="evenodd" d="M243.867 -157.293L243.514 -156.939L265.434 -135.02L265.787 -135.373L266.494 -134.666L266.141 -134.312L288.062 -112.392L288.415 -112.745L289.122 -112.038L288.769 -111.685L310.689 -89.7647L311.042 -90.118L311.749 -89.4109L311.396 -89.0576L333.316 -67.1368L333.67 -67.4901L334.377 -66.783L334.024 -66.4297L355.943 -44.5098L356.297 -44.8631L357.004 -44.156L356.651 -43.8027L378.571 -21.8819L378.925 -22.2352L379.632 -21.5281L379.278 -21.1748L401.198 0.745057L401.552 0.391763L402.259 1.09887L401.905 1.45216L423.826 23.373L424.18 23.0197L424.887 23.7268L424.533 24.0801L446.453 46L446.806 45.6467L447.514 46.3538L447.16 46.7071L469.081 68.6274L469.434 68.2736L470.141 68.9807L469.788 69.3345L491.708 91.2548L492.061 90.9015L492.768 91.6086L492.415 91.9619L514.335 113.882L514.689 113.529L515.396 114.236L515.043 114.589L536.963 136.51L537.316 136.156L538.023 136.864L537.67 137.217L559.59 159.137L559.944 158.783L560.651 159.491L560.298 159.844L582.218 181.765L582.571 181.411L583.278 182.118L582.925 182.472L604.845 204.392L605.199 204.038L605.906 204.745L605.552 205.099L627.473 227.02L627.826 226.666L628.533 227.373L628.18 227.727L650.1 249.647L650.454 249.293L651.161 250L650.807 250.354L672.728 272.274L673.081 271.921L673.788 272.628L309.628 636.788L308.921 636.081L309.981 635.021L288.061 613.1L287.001 614.16L286.294 613.453L287.354 612.393L265.434 590.473L264.373 591.533L263.666 590.826L264.727 589.766L242.806 567.845L241.746 568.905L241.039 568.198L242.099 567.138L220.179 545.218L219.118 546.278L218.411 545.571L219.472 544.511L197.551 522.59L196.491 523.65L195.784 522.943L196.844 521.883L174.924 499.963L173.863 501.024L173.156 500.316L174.217 499.256L152.296 477.336L151.236 478.396L150.529 477.688L151.589 476.628L129.669 454.708L128.608 455.769L127.901 455.062L128.962 454.001L107.042 432.081L105.982 433.141L105.274 432.434L106.334 431.374L84.4141 409.453L83.3536 410.514L82.6465 409.807L83.707 408.746L61.7871 386.826L60.7266 387.887L60.0195 387.18L61.08 386.119L39.1592 364.198L38.0987 365.259L37.3916 364.552L38.4521 363.491L16.5323 341.571L15.4717 342.632L14.7646 341.925L15.8251 340.864L-6.09566 318.943L-7.15618 320.004L-7.86328 319.297L-6.80276 318.236L-28.7226 296.317L-29.7831 297.377L-30.4902 296.67L-29.4297 295.609L-51.3505 273.689L-52.4111 274.749L-53.1182 274.042L-52.0577 272.981L-73.9775 251.062L-75.038 252.122L-75.7451 251.415L-74.6846 250.355L-96.6054 228.434L-97.6659 229.494L-98.373 228.787L-97.3125 227.727L-119.232 205.807L-120.293 206.867L-121 206.16L243.16 -158L243.867 -157.293ZM310.689 634.313L332.609 612.393L310.689 590.472L288.768 612.393L310.689 634.313ZM333.316 611.686L355.236 589.766L333.316 567.845L311.396 589.765L333.316 611.686ZM355.943 589.059L377.864 567.138L355.944 545.217L334.023 567.138L355.943 589.059ZM378.571 566.431L400.491 544.511L378.571 522.59L356.651 544.51L378.571 566.431ZM401.198 543.804L423.119 521.883L401.199 499.963L379.278 521.883L401.198 543.804ZM423.826 521.176L445.746 499.256L423.826 477.336L401.906 499.255L423.826 521.176ZM446.453 498.549L468.374 476.628L446.453 454.708L424.533 476.628L446.453 498.549ZM469.081 475.921L491.001 454.001L469.081 432.081L447.16 454.001L469.081 475.921ZM491.708 453.294L513.628 431.374L491.708 409.453L469.788 431.374L491.708 453.294ZM514.335 430.666L536.256 408.746L514.335 386.826L492.415 408.746L514.335 430.666ZM536.963 408.039L558.883 386.119L536.963 364.198L515.043 386.119L536.963 408.039ZM559.59 385.412L581.511 363.491L559.59 341.571L537.67 363.491L559.59 385.412ZM582.218 362.784L604.138 340.864L582.218 318.943L560.297 340.864L582.218 362.784ZM604.845 340.157L626.766 318.236L604.845 296.316L582.925 318.236L604.845 340.157ZM627.473 317.529L649.393 295.609L627.473 273.689L605.552 295.609L627.473 317.529ZM650.1 294.902L672.021 272.981L650.1 251.061L628.18 272.981L650.1 294.902ZM627.473 228.434L649.393 250.354L627.473 272.274L605.552 250.354L627.473 228.434ZM604.845 251.061L626.766 272.981L604.845 294.902L582.925 272.982L604.845 251.061ZM582.218 273.689L604.138 295.609L582.218 317.529L560.298 295.609L582.218 273.689ZM559.59 296.316L581.511 318.236L559.59 340.157L537.67 318.236L559.59 296.316ZM536.963 318.943L558.883 340.864L536.963 362.784L515.043 340.864L536.963 318.943ZM514.336 341.571L536.256 363.491L514.335 385.412L492.415 363.491L514.336 341.571ZM491.708 364.198L513.628 386.119L491.708 408.039L469.788 386.119L491.708 364.198ZM469.081 386.826L491.001 408.746L469.081 430.666L447.16 408.746L469.081 386.826ZM446.453 409.453L468.373 431.374L446.453 453.294L424.533 431.374L446.453 409.453ZM423.826 432.081L445.746 454.001L423.826 475.921L401.905 454.001L423.826 432.081ZM401.198 454.708L423.119 476.628L401.199 498.548L379.278 476.628L401.198 454.708ZM378.571 477.335L400.492 499.255L378.571 521.176L356.651 499.256L378.571 477.335ZM355.943 499.963L377.864 521.883L355.944 543.803L334.024 521.883L355.943 499.963ZM333.316 522.59L355.237 544.51L333.316 566.431L311.396 544.511L333.316 522.59ZM310.689 545.218L332.609 567.138L310.689 589.058L288.769 567.138L310.689 545.218ZM288.062 567.845L309.982 589.765L288.061 611.686L266.141 589.766L288.062 567.845ZM265.434 589.059L287.354 567.138L265.434 545.217L243.513 567.138L265.434 589.059ZM288.062 566.431L309.981 544.511L288.061 522.59L266.141 544.51L288.062 566.431ZM310.689 543.804L332.609 521.883L310.689 499.963L288.768 521.883L310.689 543.804ZM333.316 521.176L355.236 499.256L333.316 477.336L311.396 499.255L333.316 521.176ZM355.943 498.549L377.864 476.628L355.944 454.708L334.023 476.628L355.943 498.549ZM378.571 475.921L400.491 454.001L378.571 432.081L356.651 454.001L378.571 475.921ZM401.198 453.294L423.119 431.374L401.198 409.453L379.278 431.374L401.198 453.294ZM423.826 430.666L445.746 408.746L423.826 386.826L401.905 408.746L423.826 430.666ZM446.453 408.039L468.374 386.119L446.453 364.198L424.533 386.119L446.453 408.039ZM469.081 385.412L491.001 363.491L469.081 341.571L447.16 363.491L469.081 385.412ZM491.708 362.784L513.628 340.864L491.708 318.943L469.788 340.864L491.708 362.784ZM514.336 340.157L536.256 318.236L514.335 296.316L492.415 318.236L514.336 340.157ZM536.963 317.529L558.883 295.609L536.963 273.689L515.043 295.609L536.963 317.529ZM559.59 294.902L581.511 272.982L559.59 251.061L537.67 272.981L559.59 294.902ZM582.218 272.274L604.138 250.354L582.218 228.434L560.297 250.354L582.218 272.274ZM604.845 249.647L626.766 227.727L604.845 205.806L582.925 227.727L604.845 249.647ZM582.218 183.179L604.138 205.099L582.218 227.02L560.297 205.099L582.218 183.179ZM559.59 205.806L581.511 227.727L559.59 249.647L537.67 227.727L559.59 205.806ZM536.963 228.434L558.883 250.354L536.963 272.274L515.043 250.354L536.963 228.434ZM514.335 251.061L536.256 272.981L514.335 294.902L492.415 272.981L514.335 251.061ZM491.708 273.689L513.628 295.609L491.708 317.529L469.788 295.609L491.708 273.689ZM469.081 296.316L491.001 318.236L469.081 340.157L447.16 318.236L469.081 296.316ZM446.453 318.943L468.373 340.864L446.453 362.784L424.533 340.864L446.453 318.943ZM423.826 341.571L445.746 363.491L423.826 385.412L401.905 363.491L423.826 341.571ZM401.198 364.198L423.119 386.119L401.198 408.039L379.278 386.119L401.198 364.198ZM378.571 386.826L400.491 408.746L378.571 430.666L356.651 408.746L378.571 386.826ZM355.943 409.453L377.864 431.374L355.944 453.293L334.024 431.373L355.943 409.453ZM333.316 432.08L355.237 454.001L333.316 475.921L311.396 454.001L333.316 432.08ZM310.689 454.708L332.609 476.628L310.689 498.548L288.769 476.628L310.689 454.708ZM288.062 477.335L309.982 499.255L288.061 521.176L266.141 499.256L288.062 477.335ZM265.434 499.963L287.354 521.883L265.434 543.803L243.514 521.883L265.434 499.963ZM242.807 522.59L264.727 544.51L242.806 566.431L220.886 544.511L242.807 522.59ZM220.179 543.804L242.1 521.883L220.179 499.963L198.258 521.883L220.179 543.804ZM242.807 521.176L264.727 499.256L242.806 477.336L220.886 499.255L242.807 521.176ZM265.434 498.549L287.354 476.628L265.434 454.708L243.513 476.628L265.434 498.549ZM288.062 475.921L309.981 454.001L288.061 432.081L266.141 454.001L288.062 475.921ZM310.689 453.294L332.609 431.373L310.689 409.453L288.768 431.374L310.689 453.294ZM333.316 430.666L355.236 408.746L333.316 386.826L311.396 408.746L333.316 430.666ZM355.943 408.039L377.864 386.119L355.943 364.198L334.023 386.119L355.943 408.039ZM378.571 385.412L400.491 363.491L378.571 341.571L356.651 363.491L378.571 385.412ZM401.198 362.784L423.119 340.864L401.198 318.943L379.278 340.864L401.198 362.784ZM423.826 340.157L445.746 318.236L423.826 296.316L401.905 318.236L423.826 340.157ZM446.453 317.529L468.374 295.609L446.453 273.689L424.533 295.609L446.453 317.529ZM469.081 294.902L491.001 272.981L469.081 251.061L447.16 272.981L469.081 294.902ZM491.708 272.274L513.628 250.354L491.708 228.434L469.788 250.354L491.708 272.274ZM514.335 249.647L536.256 227.727L514.335 205.806L492.415 227.727L514.335 249.647ZM536.963 227.02L558.883 205.099L536.963 183.179L515.043 205.099L536.963 227.02ZM559.59 204.392L581.511 182.472L559.59 160.551L537.67 182.472L559.59 204.392ZM536.963 137.924L558.883 159.844L536.963 181.765L515.043 159.844L536.963 137.924ZM514.335 160.551L536.256 182.472L514.335 204.392L492.415 182.472L514.335 160.551ZM491.708 183.179L513.628 205.099L491.708 227.02L469.788 205.099L491.708 183.179ZM469.081 205.806L491.001 227.727L469.081 249.647L447.16 227.727L469.081 205.806ZM446.453 228.434L468.374 250.354L446.453 272.274L424.533 250.354L446.453 228.434ZM423.826 251.061L445.746 272.981L423.826 294.902L401.905 272.982L423.826 251.061ZM401.198 273.689L423.119 295.609L401.198 317.529L379.278 295.609L401.198 273.689ZM378.571 296.316L400.491 318.236L378.571 340.157L356.651 318.236L378.571 296.316ZM355.943 318.943L377.864 340.864L355.943 362.784L334.023 340.864L355.943 318.943ZM333.316 341.571L355.236 363.491L333.316 385.412L311.396 363.491L333.316 341.571ZM310.689 364.198L332.609 386.119L310.689 408.039L288.769 386.118L310.689 364.198ZM288.062 386.825L309.982 408.746L288.061 430.666L266.141 408.746L288.062 386.825ZM265.434 409.453L287.354 431.374L265.434 453.293L243.514 431.373L265.434 409.453ZM242.807 432.08L264.727 454.001L242.806 475.921L220.886 454.001L242.807 432.08ZM220.179 454.708L242.099 476.628L220.179 498.548L198.259 476.628L220.179 454.708ZM197.552 477.335L219.472 499.255L197.551 521.176L175.631 499.256L197.552 477.335ZM174.924 498.549L196.845 476.628L174.924 454.708L153.004 476.628L174.924 498.549ZM197.552 475.921L219.472 454.001L197.551 432.081L175.631 454.001L197.552 475.921ZM220.179 453.294L242.1 431.373L220.179 409.453L198.258 431.374L220.179 453.294ZM242.807 430.666L264.727 408.746L242.806 386.826L220.886 408.746L242.807 430.666ZM265.434 408.039L287.354 386.118L265.434 364.198L243.513 386.119L265.434 408.039ZM288.062 385.411L309.981 363.491L288.061 341.571L266.141 363.491L288.062 385.411ZM310.689 362.784L332.609 340.864L310.689 318.943L288.768 340.864L310.689 362.784ZM333.316 340.157L355.236 318.236L333.316 296.316L311.396 318.236L333.316 340.157ZM355.943 317.529L377.864 295.609L355.943 273.689L334.023 295.609L355.943 317.529ZM378.571 294.902L400.491 272.982L378.571 251.061L356.65 272.981L378.571 294.902ZM401.198 272.274L423.119 250.354L401.198 228.434L379.278 250.354L401.198 272.274ZM423.826 249.647L445.746 227.727L423.826 205.806L401.905 227.727L423.826 249.647ZM446.453 227.02L468.374 205.099L446.453 183.179L424.533 205.099L446.453 227.02ZM469.081 204.392L491.001 182.472L469.081 160.551L447.16 182.472L469.081 204.392ZM491.708 181.765L513.628 159.844L491.708 137.924L469.788 159.844L491.708 181.765ZM514.335 159.137L536.256 137.217L514.335 115.296L492.415 137.217L514.335 159.137ZM491.708 92.669L513.628 114.589L491.708 136.51L469.788 114.589L491.708 92.669ZM469.081 115.297L491.001 137.217L469.081 159.137L447.16 137.217L469.081 115.297ZM446.453 137.924L468.373 159.844L446.453 181.765L424.533 159.844L446.453 137.924ZM423.826 160.551L445.746 182.472L423.826 204.392L401.905 182.472L423.826 160.551ZM401.198 183.179L423.119 205.099L401.198 227.019L379.278 205.099L401.198 183.179ZM378.571 205.806L400.491 227.727L378.571 249.647L356.65 227.727L378.571 205.806ZM355.943 228.434L377.864 250.354L355.943 272.274L334.023 250.354L355.943 228.434ZM333.316 251.061L355.236 272.981L333.316 294.902L311.396 272.981L333.316 251.061ZM310.689 273.689L332.609 295.609L310.689 317.529L288.768 295.609L310.689 273.689ZM288.061 296.316L309.981 318.236L288.061 340.157L266.141 318.236L288.061 296.316ZM265.434 318.943L287.354 340.864L265.434 362.784L243.514 340.863L265.434 318.943ZM242.807 341.57L264.727 363.491L242.806 385.412L220.886 363.491L242.807 341.57ZM220.179 364.198L242.099 386.119L220.179 408.039L198.259 386.118L220.179 364.198ZM197.552 386.825L219.472 408.746L197.551 430.666L175.631 408.746L197.552 386.825ZM174.924 409.453L196.844 431.374L174.924 453.293L153.004 431.373L174.924 409.453ZM152.297 432.08L174.217 454.001L152.296 475.921L130.376 454.001L152.297 432.08ZM129.669 453.294L151.59 431.373L129.669 409.453L107.749 431.374L129.669 453.294ZM152.297 430.666L174.217 408.746L152.296 386.826L130.377 408.746L152.297 430.666ZM174.924 408.039L196.845 386.118L174.924 364.198L153.004 386.119L174.924 408.039ZM197.552 385.411L219.472 363.491L197.551 341.571L175.631 363.491L197.552 385.411ZM220.179 362.784L242.1 340.863L220.179 318.943L198.258 340.864L220.179 362.784ZM242.807 340.156L264.727 318.236L242.806 296.316L220.886 318.236L242.807 340.156ZM265.434 317.529L287.354 295.609L265.434 273.689L243.513 295.609L265.434 317.529ZM288.061 294.902L309.981 272.981L288.061 251.061L266.141 272.981L288.061 294.902ZM310.689 272.274L332.609 250.354L310.689 228.434L288.768 250.354L310.689 272.274ZM333.316 249.647L355.236 227.727L333.316 205.806L311.396 227.727L333.316 249.647ZM355.943 227.02L377.864 205.099L355.943 183.179L334.023 205.099L355.943 227.02ZM378.571 204.392L400.491 182.472L378.571 160.551L356.651 182.472L378.571 204.392ZM401.198 181.765L423.119 159.844L401.198 137.924L379.278 159.844L401.198 181.765ZM423.826 159.137L445.746 137.217L423.826 115.297L401.905 137.217L423.826 159.137ZM446.453 136.51L468.373 114.589L446.453 92.6691L424.533 114.589L446.453 136.51ZM469.081 113.882L491.001 91.9619L469.081 70.0416L447.16 91.962L469.081 113.882ZM446.453 47.4142L468.374 69.3345L446.453 91.2549L424.533 69.3345L446.453 47.4142ZM423.826 70.0416L445.746 91.962L423.826 113.882L401.905 91.962L423.826 70.0416ZM401.198 92.6691L423.119 114.589L401.198 136.51L379.278 114.589L401.198 92.6691ZM378.571 115.297L400.491 137.217L378.571 159.137L356.651 137.217L378.571 115.297ZM355.943 137.924L377.864 159.844L355.943 181.765L334.023 159.844L355.943 137.924ZM333.316 160.551L355.236 182.472L333.316 204.392L311.396 182.472L333.316 160.551ZM310.689 183.179L332.609 205.099L310.689 227.02L288.768 205.099L310.689 183.179ZM288.061 205.806L309.981 227.727L288.061 249.647L266.141 227.727L288.061 205.806ZM265.434 228.434L287.354 250.354L265.434 272.274L243.513 250.354L265.434 228.434ZM242.806 251.061L264.727 272.981L242.806 294.902L220.886 272.981L242.806 251.061ZM220.179 273.689L242.099 295.609L220.179 317.529L198.259 295.608L220.179 273.689ZM197.552 296.316L219.472 318.236L197.551 340.157L175.631 318.236L197.552 296.316ZM174.924 318.943L196.844 340.864L174.924 362.784L153.004 340.863L174.924 318.943ZM152.297 341.57L174.217 363.491L152.296 385.412L130.376 363.491L152.297 341.57ZM129.669 364.198L151.589 386.119L129.669 408.039L107.749 386.118L129.669 364.198ZM107.042 386.825L128.962 408.746L107.042 430.666L85.1212 408.746L107.042 386.825ZM84.4141 408.039L106.335 386.118L84.4151 364.198L62.4942 386.119L84.4141 408.039ZM107.042 385.411L128.962 363.491L107.042 341.571L85.1222 363.491L107.042 385.411ZM129.669 362.784L151.59 340.863L129.67 318.943L107.749 340.864L129.669 362.784ZM152.297 340.156L174.217 318.236L152.297 296.317L130.377 318.236L152.297 340.156ZM174.924 317.529L196.845 295.608L174.925 273.689L153.004 295.609L174.924 317.529ZM197.552 294.901L219.472 272.981L197.552 251.062L175.632 272.981L197.552 294.901ZM220.179 272.274L242.099 250.354L220.179 228.434L198.259 250.355L220.179 272.274ZM242.806 249.647L264.727 227.727L242.807 205.807L220.886 227.727L242.806 249.647ZM265.434 227.02L287.354 205.099L265.434 183.179L243.514 205.1L265.434 227.02ZM288.061 204.392L309.981 182.472L288.062 160.552L266.141 182.472L288.061 204.392ZM310.689 181.765L332.609 159.844L310.689 137.924L288.769 159.845L310.689 181.765ZM333.316 159.137L355.236 137.217L333.316 115.297L311.396 137.217L333.316 159.137ZM355.943 136.51L377.864 114.589L355.944 92.6695L334.024 114.59L355.943 136.51ZM378.571 113.882L400.491 91.962L378.571 70.0421L356.651 91.9624L378.571 113.882ZM401.198 91.2549L423.119 69.3345L401.199 47.4147L379.278 69.335L401.198 91.2549ZM423.826 68.6274L445.746 46.7071L423.826 24.7872L401.906 46.7076L423.826 68.6274ZM401.198 2.15927L423.119 24.0801L401.199 46.0005L379.278 24.0796L401.198 2.15927ZM378.571 24.7867L400.492 46.7076L378.571 68.6279L356.651 46.7071L378.571 24.7867ZM355.943 47.4142L377.864 69.335L355.944 91.2553L334.023 69.3345L355.943 47.4142ZM333.316 70.0416L355.237 91.9624L333.316 113.883L311.396 91.9619L333.316 70.0416ZM310.689 92.6691L332.609 114.59L310.689 136.51L288.768 114.589L310.689 92.6691ZM288.061 115.296L309.982 137.217L288.062 159.138L266.141 137.217L288.061 115.296ZM265.434 137.924L287.354 159.845L265.434 181.765L243.513 159.844L265.434 137.924ZM242.806 160.551L264.727 182.472L242.807 204.393L220.886 182.472L242.806 160.551ZM220.179 183.179L242.1 205.1L220.179 227.02L198.258 205.099L220.179 183.179ZM197.551 205.806L219.472 227.727L197.552 249.647L175.631 227.727L197.551 205.806ZM174.924 228.434L196.845 250.355L174.925 272.274L153.004 250.354L174.924 228.434ZM152.297 251.061L174.218 272.981L152.297 294.902L130.376 272.981L152.297 251.061ZM129.669 273.689L151.59 295.609L129.67 317.529L107.749 295.608L129.669 273.689ZM107.042 296.316L128.963 318.236L107.042 340.157L85.1212 318.236L107.042 296.316ZM84.4141 318.943L106.335 340.864L84.4151 362.784L62.4943 340.863L84.4141 318.943ZM61.7871 341.57L83.708 363.491L61.7871 385.412L39.8663 363.491L61.7871 341.57ZM39.1592 362.784L61.08 340.863L39.1602 318.943L17.2394 340.864L39.1592 362.784ZM61.7871 340.156L83.707 318.236L61.7871 296.317L39.8673 318.236L61.7871 340.156ZM84.4141 317.529L106.335 295.608L84.4151 273.689L62.4943 295.609L84.4141 317.529ZM107.042 294.901L128.962 272.981L107.042 251.062L85.1222 272.981L107.042 294.901ZM129.669 272.274L151.59 250.354L129.67 228.434L107.749 250.355L129.669 272.274ZM152.297 249.646L174.217 227.727L152.297 205.807L130.377 227.727L152.297 249.646ZM174.924 227.019L196.844 205.099L174.924 183.179L153.004 205.1L174.924 227.019ZM197.551 204.392L219.472 182.472L197.552 160.552L175.631 182.472L197.551 204.392ZM220.179 181.765L242.099 159.844L220.179 137.924L198.259 159.845L220.179 181.765ZM242.806 159.137L264.727 137.217L242.807 115.297L220.886 137.217L242.806 159.137ZM265.434 136.51L287.354 114.589L265.434 92.6695L243.514 114.59L265.434 136.51ZM288.061 113.882L309.981 91.9619L288.062 70.0421L266.141 91.9624L288.061 113.882ZM310.689 91.2548L332.609 69.3345L310.689 47.4147L288.769 69.335L310.689 91.2548ZM333.316 68.6274L355.236 46.7071L333.316 24.7872L311.396 46.7075L333.316 68.6274ZM355.943 46L377.864 24.0796L355.944 2.15978L334.024 24.0801L355.943 46ZM378.571 23.3725L400.491 1.45216L378.571 -20.4677L356.651 1.45267L378.571 23.3725ZM355.943 -43.0956L377.864 -21.1748L355.944 0.745564L334.023 -21.1753L355.943 -43.0956ZM333.316 -20.4681L355.237 1.45267L333.316 23.373L311.396 1.4522L333.316 -20.4681ZM310.689 2.1593L332.609 24.0801L310.689 46.0004L288.768 24.0796L310.689 2.1593ZM288.061 24.7867L309.982 46.7075L288.062 68.6279L266.141 46.7071L288.061 24.7867ZM265.434 47.4142L287.354 69.335L265.434 91.2553L243.513 69.3345L265.434 47.4142ZM242.806 70.0416L264.727 91.9624L242.807 113.883L220.886 91.962L242.806 70.0416ZM220.179 92.6691L242.1 114.59L220.179 136.51L198.258 114.589L220.179 92.6691ZM197.551 115.297L219.472 137.217L197.552 159.138L175.631 137.217L197.551 115.297ZM174.924 137.924L196.845 159.845L174.924 181.765L153.004 159.844L174.924 137.924ZM152.296 160.551L174.217 182.472L152.297 204.393L130.376 182.472L152.296 160.551ZM129.669 183.179L151.59 205.1L129.67 227.019L107.749 205.099L129.669 183.179ZM107.042 205.806L128.963 227.727L107.042 249.647L85.1212 227.727L107.042 205.806ZM84.4141 228.434L106.335 250.355L84.4151 272.274L62.4943 250.354L84.4141 228.434ZM61.7872 251.061L83.708 272.981L61.7871 294.902L39.8663 272.981L61.7872 251.061ZM39.1592 273.689L61.08 295.609L39.1602 317.529L17.2394 295.608L39.1592 273.689ZM16.5323 296.316L38.4531 318.236L16.5323 340.157L-5.38855 318.236L16.5323 296.316ZM-6.09566 317.529L15.8252 295.608L-6.09469 273.689L-28.0155 295.609L-6.09566 317.529ZM16.5323 294.901L38.4521 272.981L16.5323 251.062L-5.38758 272.981L16.5323 294.901ZM39.1592 272.274L61.08 250.354L39.1602 228.434L17.2394 250.355L39.1592 272.274ZM61.7872 249.646L83.707 227.727L61.7872 205.807L39.8673 227.727L61.7872 249.646ZM84.4141 227.019L106.335 205.099L84.4151 183.179L62.4943 205.1L84.4141 227.019ZM107.042 204.392L128.962 182.472L107.042 160.552L85.1222 182.472L107.042 204.392ZM129.669 181.765L151.589 159.844L129.669 137.924L107.749 159.845L129.669 181.765ZM152.296 159.137L174.217 137.217L152.297 115.297L130.377 137.217L152.296 159.137ZM174.924 136.51L196.844 114.589L174.924 92.6696L153.004 114.59L174.924 136.51ZM197.551 113.882L219.472 91.962L197.552 70.0421L175.631 91.9624L197.551 113.882ZM220.179 91.2549L242.099 69.3345L220.179 47.4147L198.259 69.335L220.179 91.2549ZM242.806 68.6274L264.727 46.7071L242.807 24.7872L220.886 46.7075L242.806 68.6274ZM265.434 46L287.354 24.0796L265.434 2.15978L243.514 24.0801L265.434 46ZM288.061 23.3725L309.981 1.4522L288.062 -20.4677L266.141 1.45267L288.061 23.3725ZM310.689 0.74509L332.609 -21.1753L310.689 -43.0951L288.769 -21.1748L310.689 0.74509ZM333.316 -21.8824L355.236 -43.8027L333.316 -65.7226L311.396 -43.8022L333.316 -21.8824ZM310.689 -88.3505L332.609 -66.4297L310.689 -44.5093L288.768 -66.4301L310.689 -88.3505ZM288.061 -65.723L309.982 -43.8022L288.062 -21.8819L266.141 -43.8027L288.061 -65.723ZM265.434 -43.0956L287.354 -21.1748L265.434 0.745564L243.513 -21.1753L265.434 -43.0956ZM242.806 -20.4682L264.727 1.45267L242.807 23.373L220.886 1.45218L242.806 -20.4682ZM220.179 2.15929L242.1 24.0801L220.179 46.0004L198.258 24.0796L220.179 2.15929ZM197.551 24.7867L219.472 46.7075L197.552 68.6279L175.631 46.7071L197.551 24.7867ZM174.924 47.4142L196.845 69.335L174.924 91.2553L153.004 69.3345L174.924 47.4142ZM152.296 70.0416L174.217 91.9624L152.297 113.883L130.376 91.962L152.296 70.0416ZM129.669 92.6691L151.59 114.59L129.669 136.51L107.749 114.589L129.669 92.6691ZM107.042 115.296L128.962 137.217L107.042 159.138L85.1212 137.217L107.042 115.296ZM84.4141 137.924L106.335 159.845L84.4151 181.765L62.4943 159.844L84.4141 137.924ZM61.7871 160.551L83.708 182.472L61.7872 204.393L39.8663 182.472L61.7871 160.551ZM39.1592 183.179L61.08 205.1L39.1602 227.019L17.2394 205.099L39.1592 183.179ZM16.5323 205.806L38.4531 227.727L16.5323 249.647L-5.38856 227.727L16.5323 205.806ZM-6.09567 228.434L15.8252 250.355L-6.09469 272.274L-28.0155 250.354L-6.09567 228.434ZM-28.7226 251.061L-6.8018 272.981L-28.7226 294.902L-50.6434 272.981L-28.7226 251.061ZM-51.3505 272.274L-29.4297 250.354L-51.3496 228.434L-73.2704 250.355L-51.3505 272.274ZM-28.7226 249.646L-6.80277 227.727L-28.7226 205.807L-50.6425 227.727L-28.7226 249.646ZM-6.09567 227.019L15.8252 205.099L-6.09469 183.179L-28.0155 205.1L-6.09567 227.019ZM16.5323 204.392L38.4521 182.472L16.5323 160.552L-5.38758 182.472L16.5323 204.392ZM39.1592 181.765L61.08 159.844L39.1602 137.924L17.2394 159.845L39.1592 181.765ZM61.7871 159.137L83.707 137.217L61.7871 115.297L39.8673 137.217L61.7871 159.137ZM84.4141 136.51L106.334 114.589L84.4146 92.6695L62.4943 114.59L84.4141 136.51ZM107.042 113.882L128.962 91.962L107.042 70.0421L85.1217 91.9624L107.042 113.882ZM129.669 91.2548L151.589 69.3345L129.669 47.4147L107.749 69.335L129.669 91.2548ZM152.296 68.6274L174.217 46.7071L152.297 24.7872L130.377 46.7076L152.296 68.6274ZM174.924 46L196.844 24.0796L174.924 2.15977L153.004 24.0801L174.924 46ZM197.551 23.3725L219.472 1.45218L197.552 -20.4677L175.631 1.45267L197.551 23.3725ZM220.179 0.745073L242.099 -21.1753L220.179 -43.0951L198.259 -21.1748L220.179 0.745073ZM242.806 -21.8824L264.727 -43.8027L242.807 -65.7225L220.886 -43.8022L242.806 -21.8824ZM265.434 -44.5098L287.354 -66.4301L265.434 -88.35L243.514 -66.4296L265.434 -44.5098ZM288.061 -67.1372L309.981 -89.0576L288.062 -110.977L266.141 -89.0571L288.061 -67.1372ZM265.434 -133.605L287.354 -111.685L265.434 -89.7642L243.513 -111.685L265.434 -133.605ZM242.806 -110.978L264.727 -89.0571L242.807 -67.1368L220.886 -89.0576L242.806 -110.978ZM220.179 -88.3505L242.1 -66.4296L220.179 -44.5093L198.258 -66.4301L220.179 -88.3505ZM197.551 -65.723L219.472 -43.8022L197.552 -21.8819L175.631 -43.8027L197.551 -65.723ZM174.924 -43.0956L196.845 -21.1748L174.924 0.745559L153.004 -21.1753L174.924 -43.0956ZM152.296 -20.4682L174.217 1.45267L152.297 23.373L130.376 1.4522L152.296 -20.4682ZM129.669 2.1593L151.59 24.0801L129.669 46.0005L107.749 24.0796L129.669 2.1593ZM107.042 24.7867L128.962 46.7076L107.042 68.6279L85.1212 46.7071L107.042 24.7867ZM84.4141 47.4142L106.335 69.335L84.4146 91.2553L62.4938 69.3345L84.4141 47.4142ZM61.7867 70.0416L83.7075 91.9624L61.7871 113.883L39.8663 91.9619L61.7867 70.0416ZM39.1592 92.6691L61.08 114.59L39.1602 136.51L17.2394 114.589L39.1592 92.6691ZM16.5323 115.296L38.4531 137.217L16.5323 159.138L-5.38856 137.217L16.5323 115.296ZM-6.09567 137.924L15.8252 159.845L-6.09469 181.765L-28.0155 159.844L-6.09567 137.924ZM-28.7226 160.551L-6.8018 182.472L-28.7226 204.393L-50.6434 182.472L-28.7226 160.551ZM-51.3505 183.179L-29.4297 205.1L-51.3496 227.019L-73.2704 205.099L-51.3505 183.179ZM-73.9775 205.806L-52.0567 227.727L-73.9775 249.647L-95.8983 227.727L-73.9775 205.806ZM-96.6054 227.019L-74.6846 205.099L-96.6045 183.179L-118.525 205.1L-96.6054 227.019ZM-73.9775 204.392L-52.0577 182.472L-73.9775 160.552L-95.8973 182.472L-73.9775 204.392ZM-51.3505 181.765L-29.4297 159.844L-51.3496 137.924L-73.2704 159.845L-51.3505 181.765ZM-28.7226 159.137L-6.80277 137.217L-28.7226 115.297L-50.6425 137.217L-28.7226 159.137ZM-6.09567 136.51L15.8252 114.589L-6.09469 92.6691L-28.0155 114.59L-6.09567 136.51ZM16.5323 113.882L38.4521 91.9619L16.5323 70.0421L-5.38758 91.9619L16.5323 113.882ZM39.1592 91.2548L61.0796 69.3345L39.1597 47.4147L17.2394 69.335L39.1592 91.2548ZM61.7867 68.6274L83.707 46.7071L61.7871 24.7872L39.8668 46.7076L61.7867 68.6274ZM84.4141 46L106.334 24.0796L84.4146 2.15979L62.4942 24.0801L84.4141 46ZM107.042 23.3725L128.962 1.4522L107.042 -20.4676L85.1217 1.45268L107.042 23.3725ZM129.669 0.74509L151.589 -21.1753L129.669 -43.0951L107.749 -21.1748L129.669 0.74509ZM152.296 -21.8824L174.217 -43.8027L152.297 -65.7225L130.377 -43.8022L152.296 -21.8824ZM174.924 -44.5098L196.844 -66.4301L174.924 -88.35L153.004 -66.4297L174.924 -44.5098ZM197.551 -67.1372L219.472 -89.0576L197.552 -110.977L175.631 -89.0571L197.551 -67.1372ZM220.179 -89.7647L242.099 -111.685L220.179 -133.605L198.259 -111.685L220.179 -89.7647ZM242.806 -112.392L264.727 -134.312L242.807 -156.232L220.886 -134.312L242.806 -112.392Z" fill="url(#paint0_radial_888_2219)"/>
<rect x="173.7" y="161.4" width="4.2" height="4.2" rx="2.1" fill="white" stroke="#352727" stroke-width="0.8"/>
<rect x="195.4" y="161.4" width="4.2" height="4.2" rx="2.1" fill="white" stroke="#352727" stroke-width="0.8"/>
<rect x="86.9664" y="98.612" width="247.985" height="189.928" rx="12.8054" fill="white" stroke="#352727" stroke-width="0.776088"/>
<mask id="path-7-outside-1_888_2219" maskUnits="userSpaceOnUse" x="106.083" y="120.527" width="210" height="141" fill="black">
<rect fill="white" x="106.083" y="120.527" width="210" height="141"/>
<path d="M205.488 257.527L191.837 218.495H140.692L127.233 257.527H107.621L156.459 121.782H176.455L225.292 257.527H205.488ZM166.649 140.432H166.265C166.265 140.432 163.188 152.738 160.881 159.66L145.691 202.729H186.838L171.84 159.66C169.533 152.738 166.649 140.432 166.649 140.432ZM233.547 230.224C233.547 198.114 275.847 196.768 292.19 196.768H296.42V195.038C296.42 179.079 287.383 173.695 275.078 173.695C260.08 173.695 247.967 183.117 247.967 183.117L240.276 169.465C240.276 169.465 254.312 157.929 276.616 157.929C301.227 157.929 315.071 171.388 315.071 195.999V257.527H297.766V248.297C297.766 243.875 298.15 240.607 298.15 240.607H297.766C297.766 240.607 289.883 259.834 266.618 259.834C249.89 259.834 233.547 249.643 233.547 230.224ZM252.389 229.262C252.389 237.146 258.542 244.837 270.655 244.837C286.422 244.837 296.612 228.301 296.612 213.881V210.804H291.805C277.77 210.804 252.389 211.766 252.389 229.262Z"/>
</mask>
<path d="M205.488 257.527L204.604 257.836L204.824 258.463H205.488V257.527ZM191.837 218.495L192.721 218.186L192.501 217.559H191.837V218.495ZM140.692 218.495V217.559H140.025L139.807 218.19L140.692 218.495ZM127.233 257.527V258.463H127.901L128.118 257.832L127.233 257.527ZM107.621 257.527L106.74 257.21L106.289 258.463H107.621V257.527ZM156.459 121.782V120.845H155.8L155.578 121.465L156.459 121.782ZM176.455 121.782L177.336 121.465L177.113 120.845H176.455V121.782ZM225.292 257.527V258.463H226.624L226.174 257.21L225.292 257.527ZM166.649 140.432L167.561 140.219L167.391 139.496H166.649V140.432ZM166.265 140.432V139.496H165.533L165.356 140.205L166.265 140.432ZM160.881 159.66L161.764 159.971L161.767 159.963L161.769 159.956L160.881 159.66ZM145.691 202.729L144.808 202.417L144.368 203.665H145.691V202.729ZM186.838 202.729V203.665H188.155L187.722 202.421L186.838 202.729ZM171.84 159.66L170.952 159.956L170.956 159.967L171.84 159.66ZM206.372 257.217L192.721 218.186L190.953 218.804L204.604 257.836L206.372 257.217ZM191.837 217.559H140.692V219.432H191.837V217.559ZM139.807 218.19L126.348 257.221L128.118 257.832L141.577 218.8L139.807 218.19ZM127.233 256.59H107.621V258.463H127.233V256.59ZM108.502 257.844L157.34 122.099L155.578 121.465L106.74 257.21L108.502 257.844ZM156.459 122.718H176.455V120.845H156.459V122.718ZM175.574 122.099L224.411 257.844L226.174 257.21L177.336 121.465L175.574 122.099ZM225.292 256.59H205.488V258.463H225.292V256.59ZM166.649 139.496H166.265V141.369H166.649V139.496ZM166.265 140.432C165.356 140.205 165.356 140.205 165.356 140.205C165.356 140.205 165.356 140.205 165.356 140.206C165.356 140.206 165.356 140.206 165.356 140.207C165.355 140.209 165.355 140.211 165.354 140.214C165.352 140.22 165.35 140.228 165.347 140.24C165.342 140.263 165.333 140.298 165.321 140.344C165.298 140.435 165.264 140.57 165.22 140.745C165.132 141.094 165.003 141.6 164.841 142.23C164.517 143.489 164.061 145.241 163.534 147.208C162.476 151.148 161.137 155.931 159.993 159.363L161.769 159.956C162.932 156.466 164.284 151.636 165.342 147.693C165.872 145.718 166.33 143.96 166.655 142.696C166.817 142.064 166.947 141.555 167.036 141.204C167.08 141.029 167.114 140.893 167.138 140.8C167.149 140.754 167.158 140.719 167.164 140.695C167.167 140.684 167.169 140.675 167.171 140.669C167.171 140.666 167.172 140.663 167.172 140.662C167.173 140.661 167.173 140.66 167.173 140.66C167.173 140.66 167.173 140.66 167.173 140.659C167.173 140.659 167.173 140.659 166.265 140.432ZM159.998 159.348L144.808 202.417L146.574 203.04L161.764 159.971L159.998 159.348ZM145.691 203.665H186.838V201.792H145.691V203.665ZM187.722 202.421L172.725 159.352L170.956 159.967L185.953 203.037L187.722 202.421ZM172.729 159.363C171.587 155.937 170.296 151.157 169.287 147.218C168.783 145.252 168.351 143.501 168.046 142.242C167.893 141.613 167.772 141.106 167.688 140.757C167.647 140.583 167.615 140.448 167.593 140.357C167.583 140.311 167.574 140.276 167.569 140.253C167.566 140.242 167.564 140.233 167.563 140.227C167.562 140.224 167.562 140.222 167.561 140.221C167.561 140.22 167.561 140.219 167.561 140.219C167.561 140.219 167.561 140.219 167.561 140.219C167.561 140.219 167.561 140.219 166.649 140.432C165.737 140.646 165.737 140.646 165.737 140.646C165.737 140.646 165.738 140.646 165.738 140.647C165.738 140.647 165.738 140.648 165.738 140.648C165.738 140.65 165.739 140.652 165.74 140.655C165.741 140.661 165.743 140.67 165.746 140.682C165.752 140.706 165.76 140.741 165.771 140.787C165.793 140.88 165.825 141.016 165.867 141.191C165.95 141.543 166.072 142.052 166.226 142.684C166.533 143.949 166.967 145.707 167.472 147.682C168.482 151.626 169.787 156.461 170.952 159.956L172.729 159.363ZM296.42 196.768V197.705H297.356V196.768H296.42ZM247.967 183.117L247.151 183.576L247.685 184.523L248.542 183.856L247.967 183.117ZM240.276 169.465L239.682 168.742L239.075 169.241L239.46 169.925L240.276 169.465ZM315.071 257.527V258.463H316.007V257.527H315.071ZM297.766 257.527H296.83V258.463H297.766V257.527ZM298.15 240.607L299.08 240.716L299.204 239.67H298.15V240.607ZM297.766 240.607V239.67H297.138L296.9 240.251L297.766 240.607ZM296.612 210.804H297.549V209.868H296.612V210.804ZM234.483 230.224C234.483 222.424 237.043 216.545 241.104 212.08C245.184 207.594 250.824 204.485 257.045 202.34C269.501 198.046 284.022 197.705 292.19 197.705V195.832C284.015 195.832 269.214 196.164 256.434 200.57C250.037 202.775 244.081 206.023 239.719 210.82C235.337 215.638 232.61 221.969 232.61 230.224H234.483ZM292.19 197.705H296.42V195.832H292.19V197.705ZM297.356 196.768V195.038H295.484V196.768H297.356ZM297.356 195.038C297.356 186.882 295.042 181.251 290.982 177.679C286.945 174.128 281.346 172.759 275.078 172.759V174.632C281.115 174.632 286.187 175.955 289.745 179.085C293.28 182.195 295.484 187.235 295.484 195.038H297.356ZM275.078 172.759C267.39 172.759 260.47 175.171 255.493 177.562C253 178.76 250.983 179.957 249.587 180.858C248.888 181.308 248.344 181.685 247.973 181.95C247.787 182.083 247.644 182.188 247.546 182.261C247.498 182.297 247.46 182.326 247.435 182.345C247.422 182.355 247.412 182.363 247.405 182.368C247.401 182.371 247.398 182.373 247.396 182.375C247.395 182.375 247.394 182.376 247.394 182.377C247.393 182.377 247.393 182.377 247.393 182.377C247.393 182.378 247.392 182.378 247.967 183.117C248.542 183.856 248.542 183.856 248.542 183.856C248.542 183.856 248.542 183.856 248.542 183.856C248.542 183.856 248.542 183.856 248.543 183.856C248.543 183.855 248.545 183.854 248.547 183.852C248.552 183.848 248.56 183.842 248.57 183.834C248.591 183.818 248.624 183.794 248.667 183.761C248.755 183.696 248.887 183.599 249.061 183.474C249.411 183.224 249.93 182.865 250.602 182.432C251.945 181.566 253.894 180.408 256.304 179.25C261.133 176.93 267.768 174.632 275.078 174.632V172.759ZM248.783 182.657L241.092 169.006L239.46 169.925L247.151 183.576L248.783 182.657ZM240.276 169.465C240.871 170.189 240.871 170.189 240.87 170.189C240.87 170.189 240.87 170.189 240.87 170.189C240.87 170.189 240.871 170.189 240.871 170.189C240.872 170.188 240.874 170.186 240.877 170.184C240.882 170.18 240.891 170.173 240.903 170.163C240.927 170.144 240.965 170.114 241.015 170.074C241.117 169.995 241.272 169.876 241.479 169.723C241.892 169.418 242.513 168.978 243.328 168.448C244.959 167.388 247.371 165.969 250.472 164.549C256.676 161.707 265.627 158.865 276.616 158.865V156.993C265.301 156.993 256.083 159.919 249.692 162.846C246.497 164.31 244.005 165.775 242.308 166.878C241.459 167.429 240.808 167.891 240.367 168.216C240.146 168.379 239.978 168.508 239.863 168.598C239.806 168.642 239.762 168.677 239.732 168.702C239.716 168.714 239.705 168.723 239.696 168.73C239.692 168.733 239.689 168.736 239.686 168.738C239.685 168.739 239.684 168.74 239.683 168.741C239.683 168.741 239.683 168.741 239.682 168.741C239.682 168.742 239.682 168.742 240.276 169.465ZM276.616 158.865C288.756 158.865 298.103 162.183 304.415 168.402C310.725 174.619 314.134 183.866 314.134 195.999H316.007C316.007 183.521 312.494 173.733 305.73 167.068C298.967 160.405 289.087 156.993 276.616 156.993V158.865ZM314.134 195.999V257.527H316.007V195.999H314.134ZM315.071 256.59H297.766V258.463H315.071V256.59ZM298.702 257.527V248.298H296.83V257.527H298.702ZM298.702 248.298C298.702 246.113 298.797 244.212 298.892 242.859C298.94 242.183 298.987 241.644 299.023 241.276C299.04 241.092 299.055 240.95 299.065 240.856C299.07 240.808 299.074 240.773 299.077 240.749C299.078 240.737 299.079 240.729 299.08 240.723C299.08 240.72 299.08 240.718 299.08 240.717C299.08 240.717 299.08 240.716 299.08 240.716C299.08 240.716 299.08 240.716 299.08 240.716L299.08 240.716C299.08 240.716 299.08 240.716 298.15 240.607C297.221 240.497 297.22 240.497 297.22 240.497C297.22 240.497 297.22 240.497 297.22 240.498C297.22 240.498 297.22 240.498 297.22 240.498C297.22 240.499 297.22 240.5 297.22 240.501C297.22 240.503 297.22 240.505 297.219 240.509C297.218 240.516 297.217 240.526 297.216 240.54C297.213 240.566 297.208 240.605 297.203 240.656C297.192 240.757 297.177 240.906 297.158 241.097C297.122 241.48 297.073 242.034 297.024 242.728C296.927 244.115 296.83 246.06 296.83 248.298H298.702ZM298.15 239.67H297.766V241.543H298.15V239.67ZM297.766 240.607C296.9 240.251 296.9 240.251 296.9 240.251L296.9 240.25C296.9 240.25 296.9 240.251 296.9 240.251C296.899 240.252 296.898 240.255 296.897 240.258C296.894 240.265 296.889 240.276 296.882 240.292C296.869 240.324 296.847 240.373 296.818 240.438C296.759 240.569 296.668 240.765 296.543 241.016C296.293 241.52 295.907 242.247 295.372 243.122C294.3 244.874 292.633 247.214 290.259 249.553C285.522 254.22 277.961 258.897 266.618 258.897V260.77C278.539 260.77 286.553 255.834 291.573 250.887C294.078 248.42 295.836 245.953 296.969 244.099C297.537 243.172 297.949 242.397 298.221 241.849C298.356 241.575 298.458 241.358 298.526 241.207C298.56 241.132 298.585 241.073 298.603 241.031C298.612 241.011 298.619 240.994 298.624 240.983C298.626 240.977 298.628 240.972 298.629 240.969C298.63 240.967 298.631 240.966 298.631 240.964C298.632 240.964 298.632 240.963 298.632 240.963C298.632 240.962 298.632 240.962 297.766 240.607ZM266.618 258.897C258.432 258.897 250.382 256.402 244.397 251.582C238.434 246.779 234.483 239.641 234.483 230.224H232.61C232.61 240.226 236.831 247.893 243.222 253.04C249.591 258.17 258.075 260.77 266.618 260.77V258.897ZM251.453 229.262C251.453 233.449 253.088 237.591 256.334 240.684C259.585 243.781 264.394 245.773 270.655 245.773V243.9C264.803 243.9 260.48 242.047 257.626 239.328C254.767 236.604 253.326 232.959 253.326 229.262H251.453ZM270.655 245.773C278.897 245.773 285.64 241.444 290.291 235.333C294.935 229.233 297.549 221.294 297.549 213.881H295.676C295.676 220.888 293.194 228.427 288.801 234.199C284.415 239.961 278.18 243.9 270.655 243.9V245.773ZM297.549 213.881V210.804H295.676V213.881H297.549ZM296.612 209.868H291.805V211.741H296.612V209.868ZM291.805 209.868C284.792 209.868 274.811 210.104 266.565 212.575C262.438 213.812 258.667 215.631 255.918 218.329C253.144 221.052 251.453 224.632 251.453 229.262H253.326C253.326 225.145 254.807 222.043 257.23 219.665C259.679 217.262 263.131 215.559 267.103 214.369C275.056 211.985 284.783 211.741 291.805 211.741V209.868Z" fill="#A38F8F" mask="url(#path-7-outside-1_888_2219)"/>
<path fill-rule="evenodd" clip-rule="evenodd" d="M204.823 258.187L191.171 219.155H141.359L127.9 258.187H106.288L155.799 120.569H177.112L226.623 258.187H204.823ZM140.691 218.219H191.836L205.487 257.25H225.291L176.454 121.505H156.458L107.62 257.25H127.232L140.691 218.219ZM161.766 159.687L147.013 201.516H185.519L170.951 159.679C169.786 156.185 168.481 151.35 167.471 147.406C167.072 145.846 166.717 144.421 166.435 143.268C166.136 144.423 165.761 145.852 165.341 147.417C164.283 151.36 162.931 156.19 161.768 159.679L161.766 159.687ZM165.965 141.333C166.103 140.793 166.198 140.417 166.239 140.252C166.255 140.189 166.263 140.156 166.263 140.156H166.648C166.648 140.156 166.656 140.191 166.672 140.258C166.712 140.428 166.801 140.803 166.93 141.34C167.71 144.586 169.965 153.761 171.839 159.383L186.837 202.453H145.69L160.88 159.383C162.755 153.757 165.139 144.574 165.965 141.333Z" fill="#A38F8F"/>
<rect x="164.513" y="139.64" width="3.93286" height="3.93286" rx="1.96643" fill="white" stroke="#352727" stroke-width="0.749117"/>
<rect x="238.489" y="166.795" width="3.93286" height="3.93286" rx="1.96643" fill="white" stroke="#352727" stroke-width="0.749117"/>
<rect x="245.98" y="179.905" width="3.93286" height="3.93286" rx="1.96643" fill="white" stroke="#352727" stroke-width="0.749117"/>
<rect x="293.268" y="193.95" width="3.93286" height="3.93286" rx="1.96643" fill="white" stroke="#352727" stroke-width="0.749117"/>
<rect x="293.736" y="208.933" width="3.93286" height="3.93286" rx="1.96643" fill="white" stroke="#352727" stroke-width="0.749117"/>
<rect x="295.609" y="238.898" width="3.93286" height="3.93286" rx="1.96643" fill="white" stroke="#352727" stroke-width="0.749117"/>
<rect x="295.609" y="254.816" width="3.93286" height="3.93286" rx="1.96643" fill="white" stroke="#352727" stroke-width="0.749117"/>
<rect x="312.464" y="254.816" width="3.93286" height="3.93286" rx="1.96643" fill="white" stroke="#352727" stroke-width="0.749117"/>
<rect x="144.849" y="199.569" width="3.93286" height="3.93286" rx="1.96643" fill="white" stroke="#352727" stroke-width="0.749117"/>
<rect x="139.231" y="216.424" width="3.93286" height="3.93286" rx="1.96643" fill="white" stroke="#352727" stroke-width="0.749117"/>
<rect x="188.86" y="216.424" width="3.93286" height="3.93286" rx="1.96643" fill="white" stroke="#352727" stroke-width="0.749117"/>
<rect x="126.122" y="255.284" width="3.93286" height="3.93286" rx="1.96643" fill="white" stroke="#352727" stroke-width="0.749117"/>
<rect x="223.506" y="255.284" width="3.93286" height="3.93286" rx="1.96643" fill="white" stroke="#352727" stroke-width="0.749117"/>
<rect x="105.521" y="255.284" width="3.93286" height="3.93286" rx="1.96643" fill="white" stroke="#352727" stroke-width="0.749117"/>
<rect x="202.906" y="255.284" width="3.93286" height="3.93286" rx="1.96643" fill="white" stroke="#352727" stroke-width="0.749117"/>
<rect x="184.178" y="199.569" width="3.93286" height="3.93286" rx="1.96643" fill="white" stroke="#352727" stroke-width="0.749117"/>
<rect x="285.726" y="130.562" width="147.6" height="233.712" rx="9.0584" fill="white" stroke="#352727" stroke-width="0.548994"/>
<path d="M419.473 200.498H424.993M419.473 197.738H424.993M419.473 194.978H424.993M417.266 200.498V200.499L417.265 200.499V200.498H417.266ZM417.266 197.738V197.739L417.265 197.739V197.738H417.266ZM417.266 194.978V194.979L417.265 194.979V194.978H417.266Z" stroke="#352727" stroke-width="0.827992" stroke-linecap="round" stroke-linejoin="round"/>
<path d="M304.879 173.561L308.191 176.873M302.119 174.665C299.985 174.665 298.255 172.935 298.255 170.801C298.255 168.667 299.985 166.937 302.119 166.937C304.253 166.937 305.983 168.667 305.983 170.801C305.983 172.935 304.253 174.665 302.119 174.665Z" stroke="#352727" stroke-width="0.827992" stroke-linecap="round" stroke-linejoin="round"/>
<line x1="286" y1="158.326" x2="433.051" y2="158.326" stroke="#EAE1E1" stroke-width="0.662394"/>
<line x1="286" y1="184.822" x2="433.051" y2="184.822" stroke="#EAE1E1" stroke-width="0.662394"/>
<line x1="286" y1="209.993" x2="433.051" y2="209.993" stroke="#EAE1E1" stroke-width="0.662394"/>
<path d="M296.98 145.273C296.98 143.643 298.204 142.403 299.834 142.403C301.185 142.403 301.877 143.142 301.877 143.142L301.487 143.731C301.487 143.731 300.835 143.119 299.866 143.119C298.61 143.119 297.791 144.072 297.791 145.265C297.791 146.465 298.626 147.482 299.874 147.482C300.931 147.482 301.606 146.751 301.606 146.751L302.028 147.315C302.028 147.315 301.257 148.206 299.85 148.206C298.165 148.206 296.98 146.918 296.98 145.273ZM302.884 146.664V144.088H303.655V146.489C303.655 147.045 303.766 147.49 304.41 147.49C305.228 147.49 305.713 146.767 305.713 145.972V144.088H306.484V148.11H305.737V147.578C305.737 147.411 305.753 147.284 305.753 147.284H305.737C305.57 147.681 305.046 148.206 304.259 148.206C303.353 148.206 302.884 147.729 302.884 146.664ZM307.364 147.618L307.737 147.069C307.737 147.069 308.191 147.538 308.89 147.538C309.224 147.538 309.558 147.363 309.558 147.037C309.558 146.298 307.491 146.449 307.491 145.138C307.491 144.406 308.143 143.993 308.946 143.993C309.828 143.993 310.241 144.438 310.241 144.438L309.931 145.018C309.931 145.018 309.574 144.661 308.938 144.661C308.604 144.661 308.278 144.804 308.278 145.153C308.278 145.877 310.345 145.718 310.345 147.037C310.345 147.705 309.772 148.206 308.89 148.206C307.904 148.206 307.364 147.618 307.364 147.618ZM311.42 146.64V144.764H310.895V144.144H311.443V142.983H312.191V144.144H313.16V144.764H312.191V146.552C312.191 147.355 312.755 147.459 313.049 147.459C313.16 147.459 313.232 147.443 313.232 147.443V148.126C313.232 148.126 313.121 148.142 312.962 148.142C312.445 148.142 311.42 147.983 311.42 146.64ZM313.807 146.091C313.807 144.875 314.777 143.993 315.977 143.993C317.178 143.993 318.147 144.875 318.147 146.091C318.147 147.315 317.178 148.206 315.977 148.206C314.777 148.206 313.807 147.315 313.807 146.091ZM314.594 146.091C314.594 146.934 315.222 147.538 315.977 147.538C316.741 147.538 317.361 146.934 317.361 146.091C317.361 145.257 316.741 144.661 315.977 144.661C315.222 144.661 314.594 145.257 314.594 146.091ZM319.062 148.11V144.088H319.809V144.621C319.809 144.78 319.793 144.915 319.793 144.915H319.809C320 144.446 320.564 143.993 321.192 143.993C321.868 143.993 322.265 144.303 322.4 144.907H322.416C322.639 144.422 323.195 143.993 323.847 143.993C324.753 143.993 325.174 144.51 325.174 145.535V148.11H324.403V145.702C324.403 145.138 324.292 144.692 323.688 144.692C323.124 144.692 322.702 145.169 322.559 145.718C322.519 145.885 322.504 146.068 322.504 146.274V148.11H321.732V145.702C321.732 145.177 321.653 144.692 321.033 144.692C320.445 144.692 320.031 145.177 319.88 145.75C319.841 145.909 319.833 146.091 319.833 146.274V148.11H319.062Z" fill="#A38F8F"/>
<path d="M297.298 227.923V222.779H299.098C299.965 222.779 300.592 223.26 300.592 224.09C300.592 224.593 300.344 224.994 299.95 225.198V225.212C300.49 225.373 300.796 225.883 300.796 226.458C300.796 227.427 300.045 227.923 299.142 227.923H297.298ZM298.019 224.943H299.098C299.564 224.943 299.856 224.615 299.856 224.163C299.856 223.711 299.579 223.405 299.083 223.405H298.019V224.943ZM298.019 227.296H299.178C299.732 227.296 300.06 226.946 300.06 226.422C300.06 225.897 299.71 225.54 299.171 225.54H298.019V227.296ZM301.77 227.923V224.236H302.455V224.877C302.455 225.03 302.441 225.154 302.441 225.154H302.455C302.623 224.615 303.053 224.192 303.621 224.192C303.716 224.192 303.803 224.207 303.803 224.207V224.906C303.803 224.906 303.709 224.884 303.599 224.884C303.148 224.884 302.732 225.205 302.565 225.752C302.499 225.963 302.477 226.189 302.477 226.415V227.923H301.77ZM304.204 226.888C304.204 225.671 305.807 225.62 306.426 225.62H306.587V225.555C306.587 224.95 306.244 224.746 305.778 224.746C305.21 224.746 304.75 225.103 304.75 225.103L304.459 224.586C304.459 224.586 304.991 224.149 305.836 224.149C306.769 224.149 307.293 224.659 307.293 225.591V227.923H306.638V227.573C306.638 227.406 306.652 227.282 306.652 227.282H306.638C306.638 227.282 306.339 228.01 305.457 228.01C304.823 228.01 304.204 227.624 304.204 226.888ZM304.918 226.852C304.918 227.151 305.151 227.442 305.61 227.442C306.208 227.442 306.594 226.815 306.594 226.269V226.152H306.412C305.88 226.152 304.918 226.189 304.918 226.852ZM308.352 227.923V224.236H309.037V224.724C309.037 224.87 309.023 224.994 309.023 224.994H309.037C309.183 224.673 309.62 224.149 310.422 224.149C311.289 224.149 311.689 224.622 311.689 225.562V227.923H310.983V225.722C310.983 225.205 310.873 224.797 310.283 224.797C309.722 224.797 309.27 225.169 309.117 225.701C309.074 225.846 309.059 226.014 309.059 226.196V227.923H308.352ZM312.502 226.079C312.502 224.906 313.194 224.149 314.171 224.149C315.023 224.149 315.307 224.731 315.307 224.731H315.322C315.322 224.731 315.307 224.622 315.307 224.484V222.779H316.014V227.923H315.344V227.573C315.344 227.427 315.351 227.325 315.351 227.325H315.337C315.337 227.325 315.038 228.01 314.127 228.01C313.129 228.01 312.502 227.223 312.502 226.079ZM313.223 226.079C313.223 226.881 313.653 227.398 314.265 227.398C314.812 227.398 315.329 227.012 315.329 226.072C315.329 225.416 314.987 224.761 314.287 224.761C313.704 224.761 313.223 225.241 313.223 226.079ZM318.99 227.923V224.236H319.675V224.877C319.675 225.03 319.66 225.154 319.66 225.154H319.675C319.843 224.615 320.272 224.192 320.841 224.192C320.935 224.192 321.023 224.207 321.023 224.207V224.906C321.023 224.906 320.928 224.884 320.819 224.884C320.367 224.884 319.952 225.205 319.784 225.752C319.719 225.963 319.697 226.189 319.697 226.415V227.923H318.99ZM321.446 226.079C321.446 224.906 322.24 224.149 323.289 224.149C324.331 224.149 324.885 224.921 324.885 225.875C324.885 225.97 324.863 226.181 324.863 226.181H322.175C322.211 226.99 322.787 227.398 323.442 227.398C324.076 227.398 324.535 226.968 324.535 226.968L324.827 227.486C324.827 227.486 324.28 228.01 323.399 228.01C322.24 228.01 321.446 227.172 321.446 226.079ZM322.197 225.65H324.164C324.142 225.016 323.749 224.71 323.275 224.71C322.736 224.71 322.299 225.045 322.197 225.65ZM325.502 226.079C325.502 224.906 326.194 224.149 327.171 224.149C328.023 224.149 328.307 224.731 328.307 224.731H328.322C328.322 224.731 328.307 224.622 328.307 224.484V222.779H329.014V227.923H328.344V227.573C328.344 227.427 328.351 227.325 328.351 227.325H328.337C328.337 227.325 328.038 228.01 327.127 228.01C326.129 228.01 325.502 227.223 325.502 226.079ZM326.224 226.079C326.224 226.881 326.653 227.398 327.266 227.398C327.812 227.398 328.329 227.012 328.329 226.072C328.329 225.416 327.987 224.761 327.287 224.761C326.704 224.761 326.224 225.241 326.224 226.079Z" fill="#352727"/>
<path d="M297.298 267.666V262.522H299.098C299.965 262.522 300.592 263.003 300.592 263.833C300.592 264.336 300.344 264.737 299.95 264.941V264.955C300.49 265.116 300.796 265.626 300.796 266.201C300.796 267.17 300.045 267.666 299.142 267.666H297.298ZM298.019 264.686H299.098C299.564 264.686 299.856 264.358 299.856 263.906C299.856 263.454 299.579 263.148 299.083 263.148H298.019V264.686ZM298.019 267.039H299.178C299.732 267.039 300.06 266.689 300.06 266.165C300.06 265.64 299.71 265.283 299.171 265.283H298.019V267.039ZM301.727 266.66V262.522H302.433V266.536C302.433 266.981 302.608 267.061 302.827 267.061C302.892 267.061 302.951 267.054 302.951 267.054V267.68C302.951 267.68 302.841 267.695 302.718 267.695C302.317 267.695 301.727 267.586 301.727 266.66ZM303.4 266.631C303.4 265.414 305.003 265.363 305.622 265.363H305.783V265.298C305.783 264.693 305.44 264.489 304.974 264.489C304.405 264.489 303.946 264.846 303.946 264.846L303.655 264.329C303.655 264.329 304.187 263.891 305.032 263.891C305.965 263.891 306.489 264.401 306.489 265.334V267.666H305.834V267.316C305.834 267.148 305.848 267.025 305.848 267.025H305.834C305.834 267.025 305.535 267.753 304.653 267.753C304.019 267.753 303.4 267.367 303.4 266.631ZM304.114 266.595C304.114 266.893 304.347 267.185 304.806 267.185C305.404 267.185 305.79 266.558 305.79 266.012V265.895H305.608C305.076 265.895 304.114 265.932 304.114 266.595ZM307.286 265.822C307.286 264.729 308.102 263.891 309.261 263.891C310.186 263.891 310.645 264.431 310.645 264.431L310.31 264.926C310.31 264.926 309.916 264.504 309.29 264.504C308.546 264.504 308.007 265.057 308.007 265.815C308.007 266.566 308.546 267.141 309.312 267.141C309.996 267.141 310.448 266.646 310.448 266.646L310.732 267.163C310.732 267.163 310.222 267.753 309.261 267.753C308.102 267.753 307.286 266.93 307.286 265.822ZM311.533 267.666V262.522H312.24V265.334H312.757L313.763 263.979H314.564L313.34 265.604V265.618L314.702 267.666H313.879L312.772 265.932H312.24V267.666H311.533Z" fill="#352727"/>
<path d="M296.948 326.667C296.948 325.174 298.07 324.037 299.564 324.037C300.803 324.037 301.437 324.715 301.437 324.715L301.08 325.254C301.08 325.254 300.482 324.693 299.593 324.693C298.442 324.693 297.692 325.567 297.692 326.66C297.692 327.76 298.457 328.693 299.601 328.693C300.57 328.693 301.189 328.023 301.189 328.023L301.575 328.54C301.575 328.54 300.868 329.356 299.579 329.356C298.034 329.356 296.948 328.176 296.948 326.667ZM302.141 327.418C302.141 326.303 303.03 325.494 304.13 325.494C305.231 325.494 306.12 326.303 306.12 327.418C306.12 328.54 305.231 329.356 304.13 329.356C303.03 329.356 302.141 328.54 302.141 327.418ZM302.863 327.418C302.863 328.19 303.438 328.744 304.13 328.744C304.83 328.744 305.398 328.19 305.398 327.418C305.398 326.653 304.83 326.106 304.13 326.106C303.438 326.106 302.863 326.653 302.863 327.418ZM306.958 329.269V325.582H307.643V326.07C307.643 326.216 307.628 326.339 307.628 326.339H307.643C307.817 325.91 308.335 325.494 308.91 325.494C309.53 325.494 309.894 325.778 310.018 326.332H310.032C310.236 325.888 310.747 325.494 311.344 325.494C312.175 325.494 312.561 325.968 312.561 326.908V329.269H311.854V327.061C311.854 326.543 311.752 326.135 311.198 326.135C310.681 326.135 310.295 326.573 310.164 327.075C310.127 327.228 310.113 327.396 310.113 327.585V329.269H309.406V327.061C309.406 326.58 309.333 326.135 308.765 326.135C308.225 326.135 307.847 326.58 307.708 327.105C307.672 327.25 307.664 327.418 307.664 327.585V329.269H306.958ZM313.618 330.726V325.582H314.266V325.895C314.266 326.041 314.252 326.165 314.252 326.165H314.266C314.266 326.165 314.58 325.494 315.505 325.494C316.496 325.494 317.123 326.281 317.123 327.425C317.123 328.598 316.416 329.356 315.454 329.356C314.645 329.356 314.325 328.751 314.325 328.751H314.31C314.31 328.751 314.325 328.882 314.325 329.072V330.726H313.618ZM314.303 327.44C314.303 328.095 314.667 328.751 315.345 328.751C315.928 328.751 316.408 328.27 316.408 327.432C316.408 326.631 315.979 326.114 315.367 326.114C314.813 326.114 314.303 326.5 314.303 327.44ZM317.943 328.263V324.124H318.65V328.139C318.65 328.584 318.825 328.664 319.043 328.664C319.109 328.664 319.167 328.657 319.167 328.657V329.283C319.167 329.283 319.058 329.298 318.934 329.298C318.533 329.298 317.943 329.188 317.943 328.263ZM319.915 329.269V325.582H320.6V326.07C320.6 326.216 320.585 326.339 320.585 326.339H320.6C320.775 325.91 321.292 325.494 321.868 325.494C322.487 325.494 322.851 325.778 322.975 326.332H322.99C323.194 325.888 323.704 325.494 324.301 325.494C325.132 325.494 325.518 325.968 325.518 326.908V329.269H324.811V327.061C324.811 326.543 324.709 326.135 324.156 326.135C323.638 326.135 323.252 326.573 323.121 327.075C323.085 327.228 323.07 327.396 323.07 327.585V329.269H322.363V327.061C322.363 326.58 322.29 326.135 321.722 326.135C321.183 326.135 320.804 326.58 320.666 327.105C320.629 327.25 320.622 327.418 320.622 327.585V329.269H319.915ZM326.32 327.425C326.32 326.252 327.114 325.494 328.164 325.494C329.206 325.494 329.759 326.267 329.759 327.221C329.759 327.316 329.737 327.527 329.737 327.527H327.049C327.085 328.336 327.661 328.744 328.317 328.744C328.951 328.744 329.41 328.314 329.41 328.314L329.701 328.831C329.701 328.831 329.155 329.356 328.273 329.356C327.114 329.356 326.32 328.518 326.32 327.425ZM327.071 326.995H329.038C329.016 326.361 328.623 326.055 328.149 326.055C327.61 326.055 327.173 326.39 327.071 326.995ZM330.617 329.269V325.582H331.302V326.07C331.302 326.216 331.287 326.339 331.287 326.339H331.302C331.447 326.019 331.885 325.494 332.686 325.494C333.553 325.494 333.954 325.968 333.954 326.908V329.269H333.247V327.068C333.247 326.551 333.138 326.143 332.548 326.143C331.987 326.143 331.535 326.514 331.382 327.046C331.338 327.192 331.324 327.36 331.324 327.542V329.269H330.617ZM335.16 327.921V326.201H334.679V325.633H335.182V324.569H335.867V325.633H336.756V326.201H335.867V327.84C335.867 328.576 336.384 328.671 336.654 328.671C336.756 328.671 336.821 328.657 336.821 328.657V329.283C336.821 329.283 336.719 329.298 336.574 329.298C336.1 329.298 335.16 329.152 335.16 327.921ZM337.32 328.234C337.32 327.017 338.923 326.966 339.542 326.966H339.702V326.9C339.702 326.296 339.36 326.092 338.894 326.092C338.325 326.092 337.866 326.449 337.866 326.449L337.575 325.931C337.575 325.931 338.107 325.494 338.952 325.494C339.885 325.494 340.409 326.004 340.409 326.937V329.269H339.753V328.919C339.753 328.751 339.768 328.627 339.768 328.627H339.753C339.753 328.627 339.455 329.356 338.573 329.356C337.939 329.356 337.32 328.97 337.32 328.234ZM338.034 328.197C338.034 328.496 338.267 328.788 338.726 328.788C339.324 328.788 339.71 328.161 339.71 327.615V327.498H339.528C338.996 327.498 338.034 327.534 338.034 328.197ZM341.468 329.269V325.582H342.153V326.223C342.153 326.376 342.138 326.5 342.138 326.5H342.153C342.321 325.961 342.75 325.538 343.319 325.538C343.414 325.538 343.501 325.553 343.501 325.553V326.252C343.501 326.252 343.406 326.23 343.297 326.23C342.845 326.23 342.43 326.551 342.262 327.097C342.197 327.309 342.175 327.534 342.175 327.76V329.269H341.468ZM343.733 330.573L343.981 330.034C343.981 330.034 344.185 330.187 344.411 330.187C344.695 330.187 344.935 329.983 345.074 329.647L345.256 329.225L343.711 325.582H344.505L345.431 327.993C345.504 328.183 345.569 328.438 345.569 328.438H345.584C345.584 328.438 345.642 328.19 345.708 328.001L346.604 325.582H347.369L345.642 329.932C345.416 330.5 344.964 330.799 344.447 330.799C344.032 330.799 343.733 330.573 343.733 330.573Z" fill="#352727"/>
<path d="M316.805 173.963L317.25 173.366C317.25 173.366 317.846 173.971 318.68 173.971C319.205 173.971 319.65 173.676 319.65 173.144C319.65 171.928 316.932 172.19 316.932 170.465C316.932 169.591 317.687 168.899 318.744 168.899C319.785 168.899 320.334 169.464 320.334 169.464L319.976 170.115C319.976 170.115 319.459 169.631 318.744 169.631C318.148 169.631 317.727 170.004 317.727 170.449C317.727 171.61 320.445 171.3 320.445 173.12C320.445 173.986 319.777 174.702 318.665 174.702C317.472 174.702 316.805 173.963 316.805 173.963ZM321.136 172.595C321.136 171.316 322.002 170.489 323.147 170.489C324.283 170.489 324.888 171.332 324.888 172.373C324.888 172.476 324.864 172.707 324.864 172.707H321.931C321.97 173.589 322.598 174.034 323.314 174.034C324.005 174.034 324.506 173.565 324.506 173.565L324.824 174.13C324.824 174.13 324.228 174.702 323.266 174.702C322.002 174.702 321.136 173.788 321.136 172.595ZM321.955 172.126H324.101C324.077 171.435 323.648 171.101 323.131 171.101C322.543 171.101 322.066 171.467 321.955 172.126ZM325.497 173.478C325.497 172.15 327.246 172.095 327.922 172.095H328.096V172.023C328.096 171.363 327.723 171.141 327.214 171.141C326.594 171.141 326.093 171.53 326.093 171.53L325.775 170.966C325.775 170.966 326.356 170.489 327.278 170.489C328.295 170.489 328.867 171.045 328.867 172.063V174.606H328.152V174.225C328.152 174.042 328.168 173.907 328.168 173.907H328.152C328.152 173.907 327.826 174.702 326.864 174.702C326.173 174.702 325.497 174.281 325.497 173.478ZM326.276 173.438C326.276 173.764 326.53 174.082 327.031 174.082C327.683 174.082 328.104 173.398 328.104 172.802V172.675H327.906C327.325 172.675 326.276 172.715 326.276 173.438ZM330.023 174.606V170.584H330.77V171.284C330.77 171.451 330.754 171.586 330.754 171.586H330.77C330.953 170.998 331.422 170.537 332.042 170.537C332.145 170.537 332.24 170.553 332.24 170.553V171.316C332.24 171.316 332.137 171.292 332.018 171.292C331.525 171.292 331.072 171.642 330.889 172.238C330.817 172.468 330.794 172.715 330.794 172.961V174.606H330.023ZM332.694 172.595C332.694 171.403 333.584 170.489 334.848 170.489C335.857 170.489 336.358 171.077 336.358 171.077L335.993 171.618C335.993 171.618 335.563 171.157 334.88 171.157C334.069 171.157 333.481 171.761 333.481 172.587C333.481 173.406 334.069 174.034 334.904 174.034C335.651 174.034 336.144 173.494 336.144 173.494L336.454 174.058C336.454 174.058 335.897 174.702 334.848 174.702C333.584 174.702 332.694 173.804 332.694 172.595ZM337.327 174.606V168.995H338.098V171.053C338.098 171.244 338.082 171.387 338.082 171.387H338.098C338.273 170.998 338.782 170.489 339.584 170.489C340.53 170.489 340.967 171.006 340.967 172.031V174.606H340.196V172.206C340.196 171.642 340.077 171.196 339.433 171.196C338.829 171.196 338.329 171.61 338.162 172.19C338.114 172.349 338.098 172.532 338.098 172.723V174.606H337.327Z" fill="#D3C5C5"/>
<rect x="333.693" y="137.461" width="48.3547" height="15.8974" rx="2.64957" fill="#FBF9F9"/>
<path d="M339.706 148.41V141.826H340.902V147.381H343.749V148.41H339.706ZM344.519 142.874V141.826H345.688V142.874H344.519ZM344.519 148.41V143.68H345.697V148.41H344.519ZM346.992 148.41V141.826H348.169V143.857C348.169 144.088 348.151 144.255 348.151 144.255H348.169C348.169 144.255 348.587 143.569 349.588 143.569C350.868 143.569 351.684 144.58 351.684 146.045C351.684 147.547 350.766 148.521 349.514 148.521C348.531 148.521 348.104 147.816 348.104 147.816H348.086C348.086 147.816 348.104 147.956 348.104 148.141V148.41H346.992ZM348.132 146.073C348.132 146.806 348.522 147.529 349.31 147.529C349.959 147.529 350.497 147 350.497 146.064C350.497 145.164 350.015 144.58 349.319 144.58C348.707 144.58 348.132 145.025 348.132 146.073ZM352.661 148.41V143.68H353.792V144.496C353.792 144.673 353.774 144.83 353.774 144.83H353.792C354.005 144.153 354.571 143.616 355.294 143.616C355.406 143.616 355.508 143.634 355.508 143.634V144.793C355.508 144.793 355.387 144.775 355.229 144.775C354.729 144.775 354.163 145.062 353.94 145.767C353.866 145.999 353.838 146.258 353.838 146.537V148.41H352.661ZM355.903 147.047C355.903 145.544 357.933 145.442 358.703 145.442H358.861V145.377C358.861 144.756 358.471 144.543 357.952 144.543C357.275 144.543 356.654 144.997 356.654 144.997L356.209 144.153C356.209 144.153 356.941 143.569 358.063 143.569C359.306 143.569 360.029 144.255 360.029 145.452V148.41H358.944V148.02C358.944 147.835 358.963 147.687 358.963 147.687H358.944C358.954 147.687 358.583 148.521 357.507 148.521C356.663 148.521 355.903 147.993 355.903 147.047ZM357.09 146.991C357.09 147.306 357.321 147.603 357.804 147.603C358.425 147.603 358.87 146.935 358.87 146.36V146.249H358.666C358.063 146.249 357.09 146.333 357.09 146.991ZM361.255 148.41V143.68H362.386V144.496C362.386 144.673 362.368 144.83 362.368 144.83H362.386C362.6 144.153 363.165 143.616 363.889 143.616C364 143.616 364.102 143.634 364.102 143.634V144.793C364.102 144.793 363.981 144.775 363.824 144.775C363.323 144.775 362.757 145.062 362.535 145.767C362.461 145.999 362.433 146.258 362.433 146.537V148.41H361.255ZM364.896 142.874V141.826H366.064V142.874H364.896ZM364.896 148.41V143.68H366.073V148.41H364.896ZM367.034 146.045C367.034 144.589 368.026 143.569 369.436 143.569C370.799 143.569 371.532 144.561 371.532 145.813C371.532 145.952 371.504 146.268 371.504 146.268H368.24C368.314 147.093 368.954 147.52 369.658 147.52C370.419 147.52 371.022 147 371.022 147L371.476 147.844C371.476 147.844 370.753 148.521 369.575 148.521C368.008 148.521 367.034 147.39 367.034 146.045ZM368.277 145.461H370.345C370.326 144.821 369.927 144.478 369.408 144.478C368.805 144.478 368.388 144.849 368.277 145.461ZM372.104 147.826L372.642 147C372.642 147 373.161 147.52 373.931 147.52C374.265 147.52 374.552 147.371 374.552 147.093C374.552 146.388 372.252 146.481 372.252 144.96C372.252 144.079 373.041 143.569 374.061 143.569C375.127 143.569 375.646 144.107 375.646 144.107L375.211 144.979C375.211 144.979 374.775 144.571 374.051 144.571C373.745 144.571 373.449 144.701 373.449 144.997C373.449 145.665 375.749 145.581 375.749 147.102C375.749 147.891 375.062 148.521 373.94 148.521C372.762 148.521 372.104 147.826 372.104 147.826Z" fill="#352727"/>
<rect x="296.93" y="190.784" width="55.6411" height="13.9103" rx="2.31838" stroke="#EAE1E1" stroke-width="0.662394"/>
<path d="M305.214 199.739L304.743 198.394H302.981L302.518 199.739H301.842L303.525 195.063H304.213L305.896 199.739H305.214ZM303.876 195.705H303.862C303.862 195.705 303.756 196.129 303.677 196.367L303.154 197.851H304.571L304.054 196.367C303.975 196.129 303.876 195.705 303.876 195.705ZM306.412 198.825V195.063H307.055V198.712C307.055 199.116 307.214 199.189 307.412 199.189C307.472 199.189 307.525 199.183 307.525 199.183V199.752C307.525 199.752 307.426 199.766 307.313 199.766C306.949 199.766 306.412 199.666 306.412 198.825ZM308.165 198.825V195.063H308.808V198.712C308.808 199.116 308.967 199.189 309.165 199.189C309.225 199.189 309.278 199.183 309.278 199.183V199.752C309.278 199.752 309.179 199.766 309.066 199.766C308.702 199.766 308.165 199.666 308.165 198.825ZM311.619 198.825V195.063H312.262V198.712C312.262 199.116 312.421 199.189 312.62 199.189C312.679 199.189 312.732 199.183 312.732 199.183V199.752C312.732 199.752 312.633 199.766 312.52 199.766C312.156 199.766 311.619 199.666 311.619 198.825ZM313.406 195.718V195.063H314.055V195.718H313.406ZM313.412 199.739V196.387H314.055V199.739H313.412ZM315.062 199.739V195.063H315.704V196.593C315.704 196.758 315.691 196.877 315.691 196.877H315.704C315.704 196.877 315.989 196.308 316.777 196.308C317.678 196.308 318.248 197.023 318.248 198.063C318.248 199.13 317.605 199.819 316.724 199.819C315.976 199.819 315.671 199.242 315.671 199.242H315.658C315.658 199.242 315.671 199.348 315.671 199.494V199.739H315.062ZM315.684 198.076C315.684 198.673 315.996 199.269 316.632 199.269C317.161 199.269 317.599 198.832 317.599 198.07C317.599 197.341 317.208 196.871 316.651 196.871C316.148 196.871 315.684 197.222 315.684 198.076ZM319.033 199.739V196.387H319.656V196.97C319.656 197.109 319.643 197.222 319.643 197.222H319.656C319.808 196.732 320.199 196.348 320.716 196.348C320.802 196.348 320.882 196.361 320.882 196.361V196.997C320.882 196.997 320.795 196.977 320.696 196.977C320.285 196.977 319.908 197.268 319.755 197.765C319.696 197.957 319.676 198.163 319.676 198.368V199.739H319.033ZM321.246 198.798C321.246 197.692 322.703 197.646 323.266 197.646H323.412V197.586C323.412 197.036 323.101 196.851 322.677 196.851C322.16 196.851 321.743 197.176 321.743 197.176L321.478 196.705C321.478 196.705 321.961 196.308 322.73 196.308C323.577 196.308 324.054 196.771 324.054 197.619V199.739H323.458V199.421C323.458 199.269 323.471 199.156 323.471 199.156H323.458C323.458 199.156 323.187 199.819 322.385 199.819C321.809 199.819 321.246 199.467 321.246 198.798ZM321.895 198.765C321.895 199.037 322.107 199.302 322.524 199.302C323.067 199.302 323.418 198.732 323.418 198.235V198.129H323.253C322.769 198.129 321.895 198.163 321.895 198.765ZM325.017 199.739V196.387H325.64V196.97C325.64 197.109 325.626 197.222 325.626 197.222H325.64C325.792 196.732 326.183 196.348 326.699 196.348C326.786 196.348 326.865 196.361 326.865 196.361V196.997C326.865 196.997 326.779 196.977 326.68 196.977C326.269 196.977 325.891 197.268 325.739 197.765C325.679 197.957 325.66 198.163 325.66 198.368V199.739H325.017ZM327.494 195.718V195.063H328.143V195.718H327.494ZM327.501 199.739V196.387H328.143V199.739H327.501ZM328.919 198.063C328.919 196.997 329.641 196.308 330.594 196.308C331.542 196.308 332.045 197.01 332.045 197.878C332.045 197.964 332.025 198.156 332.025 198.156H329.581C329.614 198.891 330.137 199.262 330.734 199.262C331.31 199.262 331.727 198.871 331.727 198.871L331.992 199.342C331.992 199.342 331.495 199.819 330.694 199.819C329.641 199.819 328.919 199.057 328.919 198.063ZM329.601 197.672H331.389C331.369 197.096 331.012 196.818 330.581 196.818C330.091 196.818 329.694 197.123 329.601 197.672ZM332.553 199.328L332.864 198.871C332.864 198.871 333.242 199.262 333.825 199.262C334.103 199.262 334.381 199.116 334.381 198.845C334.381 198.229 332.659 198.355 332.659 197.262C332.659 196.652 333.202 196.308 333.871 196.308C334.607 196.308 334.951 196.679 334.951 196.679L334.693 197.162C334.693 197.162 334.395 196.864 333.865 196.864C333.586 196.864 333.315 196.983 333.315 197.275C333.315 197.878 335.037 197.745 335.037 198.845C335.037 199.401 334.56 199.819 333.825 199.819C333.004 199.819 332.553 199.328 332.553 199.328Z" fill="#352727"/>
<path d="M346.054 196.745L343.735 199.064L341.417 196.745" stroke="#352727" stroke-width="0.496795" stroke-linecap="round" stroke-linejoin="round"/>
<rect x="296.599" y="236.158" width="16.5598" height="16.5598" rx="3.31197" fill="#881418"/>
<rect x="295.936" y="235.495" width="17.8846" height="17.8846" rx="3.97436" fill="#881418" stroke="#C4E3FC" stroke-width="1.32479"/>
<rect x="296.599" y="275.901" width="16.5598" height="16.5598" rx="3.31197" fill="#181010"/>
<rect x="296.599" y="337.504" width="16.5598" height="16.5598" rx="3.31197" fill="#C3ABFF"/>
<rect x="296.433" y="297.595" width="16.891" height="16.891" rx="3.47757" fill="white" stroke="#EAE1E1" stroke-width="0.331197"/>
<rect x="318.457" y="236.158" width="16.5598" height="16.5598" rx="3.31197" fill="#EE232A"/>
<rect x="318.457" y="275.901" width="16.5598" height="16.5598" rx="3.31197" fill="#352727"/>
<rect x="318.457" y="337.504" width="16.5598" height="16.5598" rx="3.31197" fill="#FED35B"/>
<rect x="340.316" y="236.158" width="16.5598" height="16.5598" rx="3.31197" fill="#FF6469"/>
<rect x="340.316" y="275.901" width="16.5598" height="16.5598" rx="3.31197" fill="#A38F8F"/>
<rect x="340.316" y="337.504" width="16.5598" height="16.5598" rx="3.31197" fill="#FBC1D4"/>
<rect x="362.176" y="236.158" width="16.5598" height="16.5598" rx="3.31197" fill="#FFC5C7"/>
<rect x="362.176" y="275.901" width="16.5598" height="16.5598" rx="3.31197" fill="#D3C5C5"/>
<rect x="362.176" y="337.504" width="16.5598" height="16.5598" rx="3.31197" fill="#81D0FF"/>
<rect x="384.218" y="236.342" width="16.1922" height="16.1922" rx="3.12815" fill="#FFDFE0" stroke="#D3C5C5" stroke-width="0.367628"/>
<rect x="384.034" y="275.901" width="16.5598" height="16.5598" rx="3.31197" fill="#EAE1E1"/>
<rect x="384.034" y="337.504" width="16.5598" height="16.5598" rx="3.31197" fill="#AFF9D1"/>
<rect x="406.059" y="236.323" width="16.2286" height="16.2286" rx="3.14637" fill="#FFF1F1" stroke="#EAE1E1" stroke-width="0.331197"/>
<rect x="406.059" y="276.067" width="16.2286" height="16.2286" rx="3.14637" fill="#FBF9F9" stroke="#EAE1E1" stroke-width="0.331197"/>
<g filter="url(#filter0_d_888_2219)">
<path d="M314.179 252.296L304.781 246.576L306.824 257.608L309.276 253.522L314.179 252.296Z" fill="#069AFC"/>
<path d="M314.278 252.693L315.227 252.456L314.392 251.947L304.994 246.227L304.213 245.752L304.379 246.65L306.423 257.683L306.619 258.745L307.175 257.819L309.539 253.878L314.278 252.693Z" stroke="white" stroke-width="0.817218"/>
</g>
<g filter="url(#filter1_d_888_2219)">
<rect width="36.5377" height="14.2689" transform="translate(315.406 261.286)" fill="#069AFC"/>
<path d="M321.468 271.92H319.462V265.42H321.557C322.187 265.42 322.727 265.55 323.176 265.81C323.624 266.068 323.968 266.44 324.207 266.924C324.446 267.407 324.566 267.985 324.566 268.657C324.566 269.335 324.445 269.918 324.204 270.406C323.963 270.893 323.612 271.268 323.15 271.53C322.689 271.79 322.128 271.92 321.468 271.92ZM320.249 271.222H321.417C321.955 271.222 322.4 271.118 322.754 270.911C323.107 270.704 323.37 270.408 323.544 270.025C323.717 269.642 323.804 269.186 323.804 268.657C323.804 268.133 323.718 267.681 323.547 267.302C323.376 266.921 323.12 266.629 322.779 266.426C322.438 266.221 322.014 266.118 321.506 266.118H320.249V271.222ZM327.874 272.022C327.404 272.022 326.999 271.918 326.658 271.711C326.319 271.501 326.058 271.209 325.874 270.835C325.692 270.458 325.601 270.02 325.601 269.521C325.601 269.021 325.692 268.581 325.874 268.2C326.058 267.817 326.314 267.519 326.642 267.305C326.972 267.089 327.357 266.981 327.797 266.981C328.051 266.981 328.302 267.024 328.55 267.108C328.797 267.193 329.023 267.331 329.226 267.521C329.429 267.709 329.591 267.959 329.711 268.27C329.832 268.581 329.892 268.964 329.892 269.419V269.737H326.134V269.089H329.131C329.131 268.814 329.076 268.569 328.966 268.353C328.858 268.137 328.703 267.967 328.502 267.842C328.303 267.717 328.068 267.654 327.797 267.654C327.499 267.654 327.241 267.728 327.023 267.877C326.807 268.023 326.641 268.213 326.525 268.448C326.408 268.683 326.35 268.935 326.35 269.203V269.635C326.35 270.003 326.414 270.315 326.541 270.571C326.67 270.825 326.848 271.019 327.077 271.152C327.305 271.283 327.571 271.349 327.874 271.349C328.07 271.349 328.248 271.322 328.407 271.267C328.568 271.209 328.706 271.125 328.823 271.013C328.939 270.898 329.029 270.757 329.093 270.587L329.816 270.79C329.74 271.036 329.612 271.252 329.432 271.438C329.252 271.622 329.03 271.766 328.766 271.87C328.501 271.971 328.204 272.022 327.874 272.022ZM334.53 268.137L333.857 268.327C333.815 268.215 333.752 268.106 333.67 268C333.589 267.892 333.479 267.804 333.34 267.734C333.2 267.664 333.021 267.629 332.803 267.629C332.505 267.629 332.256 267.698 332.057 267.835C331.861 267.971 331.762 268.143 331.762 268.353C331.762 268.539 331.83 268.686 331.965 268.794C332.101 268.902 332.312 268.992 332.6 269.064L333.324 269.241C333.76 269.347 334.085 269.509 334.298 269.727C334.512 269.943 334.619 270.221 334.619 270.562C334.619 270.841 334.539 271.091 334.378 271.311C334.219 271.531 333.997 271.705 333.711 271.832C333.425 271.958 333.093 272.022 332.714 272.022C332.217 272.022 331.806 271.914 331.48 271.698C331.154 271.482 330.948 271.167 330.861 270.752L331.572 270.575C331.639 270.837 331.768 271.034 331.956 271.165C332.146 271.296 332.395 271.362 332.702 271.362C333.051 271.362 333.328 271.288 333.533 271.14C333.741 270.989 333.844 270.809 333.844 270.6C333.844 270.431 333.785 270.289 333.667 270.175C333.548 270.058 333.366 269.972 333.121 269.914L332.308 269.724C331.862 269.618 331.534 269.454 331.324 269.232C331.117 269.008 331.013 268.727 331.013 268.391C331.013 268.116 331.09 267.872 331.245 267.661C331.401 267.449 331.614 267.283 331.883 267.162C332.154 267.042 332.461 266.981 332.803 266.981C333.286 266.981 333.665 267.087 333.94 267.299C334.217 267.51 334.414 267.79 334.53 268.137ZM335.791 271.92V267.045H336.54V271.92H335.791ZM336.172 266.232C336.026 266.232 335.9 266.183 335.794 266.083C335.691 265.984 335.639 265.864 335.639 265.725C335.639 265.585 335.691 265.465 335.794 265.366C335.9 265.266 336.026 265.217 336.172 265.217C336.318 265.217 336.443 265.266 336.547 265.366C336.652 265.465 336.705 265.585 336.705 265.725C336.705 265.864 336.652 265.984 336.547 266.083C336.443 266.183 336.318 266.232 336.172 266.232ZM339.925 273.85C339.563 273.85 339.252 273.804 338.992 273.711C338.731 273.62 338.515 273.499 338.341 273.349C338.17 273.201 338.033 273.042 337.932 272.873L338.528 272.454C338.596 272.543 338.682 272.644 338.785 272.758C338.889 272.875 339.031 272.975 339.211 273.06C339.393 273.147 339.631 273.19 339.925 273.19C340.319 273.19 340.643 273.095 340.899 272.904C341.155 272.714 341.283 272.416 341.283 272.009V271.019H341.22C341.165 271.108 341.087 271.218 340.985 271.349C340.886 271.478 340.742 271.593 340.553 271.695C340.367 271.795 340.115 271.844 339.798 271.844C339.404 271.844 339.051 271.751 338.738 271.565C338.427 271.379 338.18 271.108 337.998 270.752C337.818 270.397 337.728 269.965 337.728 269.457C337.728 268.958 337.816 268.523 337.992 268.153C338.168 267.78 338.412 267.493 338.725 267.289C339.038 267.084 339.4 266.981 339.811 266.981C340.128 266.981 340.38 267.034 340.566 267.14C340.754 267.244 340.898 267.362 340.998 267.496C341.099 267.627 341.178 267.735 341.233 267.819H341.309V267.045H342.033V272.06C342.033 272.479 341.937 272.82 341.747 273.082C341.559 273.347 341.305 273.54 340.985 273.663C340.668 273.788 340.314 273.85 339.925 273.85ZM339.9 271.171C340.2 271.171 340.454 271.103 340.661 270.965C340.869 270.827 341.026 270.63 341.134 270.371C341.242 270.113 341.296 269.804 341.296 269.445C341.296 269.093 341.243 268.783 341.137 268.515C341.032 268.246 340.875 268.035 340.668 267.883C340.46 267.731 340.204 267.654 339.9 267.654C339.582 267.654 339.318 267.735 339.106 267.896C338.897 268.056 338.739 268.272 338.633 268.543C338.529 268.814 338.478 269.114 338.478 269.445C338.478 269.783 338.53 270.083 338.636 270.343C338.744 270.601 338.903 270.804 339.112 270.952C339.324 271.098 339.586 271.171 339.9 271.171ZM344.198 268.988V271.92H343.448V267.045H344.172V267.807H344.236C344.35 267.559 344.523 267.36 344.756 267.21C344.989 267.058 345.289 266.981 345.658 266.981C345.988 266.981 346.277 267.049 346.524 267.185C346.772 267.318 346.964 267.521 347.102 267.794C347.239 268.065 347.308 268.408 347.308 268.822V271.92H346.559V268.873C346.559 268.49 346.46 268.192 346.261 267.978C346.062 267.762 345.789 267.654 345.442 267.654C345.203 267.654 344.989 267.706 344.801 267.81C344.614 267.914 344.467 268.065 344.359 268.264C344.252 268.463 344.198 268.704 344.198 268.988Z" fill="white"/>
</g>
<rect x="137.532" y="300.873" width="105.652" height="41.9775" rx="12.8054" fill="white" stroke="#352727" stroke-width="0.776088"/>
<rect x="145.411" y="308.752" width="89.894" height="26.2191" rx="5.61837" fill="#FBF9F9"/>
<rect x="145.879" y="309.221" width="29.0283" height="25.2827" rx="5.15018" fill="white" stroke="#EAE1E1" stroke-width="0.936396"/>
<path d="M185.676 325.764H195.04" stroke="#D3C5C5" stroke-width="1.17049" stroke-linecap="round" stroke-linejoin="round"/>
<path d="M184.896 317.96H195.821" stroke="#D3C5C5" stroke-width="1.17049" stroke-linecap="round" stroke-linejoin="round"/>
<path d="M187.237 321.862H193.48" stroke="#D3C5C5" stroke-width="1.17049" stroke-linecap="round" stroke-linejoin="round"/>
<path d="M154.932 325.764H165.856M154.932 321.862H165.856M154.932 317.96H161.174" stroke="#352727" stroke-width="1.17049" stroke-linecap="round" stroke-linejoin="round"/>
<path d="M220.323 325.764H225.785M214.86 321.862H225.785M214.86 317.96H225.785" stroke="#D3C5C5" stroke-width="1.17049" stroke-linecap="round" stroke-linejoin="round"/>
</g>
<defs>
<filter id="filter0_d_888_2219" x="301.193" y="243.293" width="17.5332" height="19.8564" filterUnits="userSpaceOnUse" color-interpolation-filters="sRGB">
<feFlood flood-opacity="0" result="BackgroundImageFix"/>
<feColorMatrix in="SourceAlpha" type="matrix" values="0 0 0 0 0 0 0 0 0 0 0 0 0 0 0 0 0 0 127 0" result="hardAlpha"/>
<feOffset dy="0.817218"/>
<feGaussianBlur stdDeviation="1.22583"/>
<feColorMatrix type="matrix" values="0 0 0 0 0 0 0 0 0 0 0 0 0 0 0 0 0 0 0.4 0"/>
<feBlend mode="normal" in2="BackgroundImageFix" result="effect1_dropShadow_888_2219"/>
<feBlend mode="normal" in="SourceGraphic" in2="effect1_dropShadow_888_2219" result="shape"/>
</filter>
<filter id="filter1_d_888_2219" x="312.137" y="259.651" width="43.0758" height="20.8065" filterUnits="userSpaceOnUse" color-interpolation-filters="sRGB">
<feFlood flood-opacity="0" result="BackgroundImageFix"/>
<feColorMatrix in="SourceAlpha" type="matrix" values="0 0 0 0 0 0 0 0 0 0 0 0 0 0 0 0 0 0 127 0" result="hardAlpha"/>
<feOffset dy="1.63444"/>
<feGaussianBlur stdDeviation="1.63444"/>
<feColorMatrix type="matrix" values="0 0 0 0 0 0 0 0 0 0 0 0 0 0 0 0 0 0 0.12 0"/>
<feBlend mode="normal" in2="BackgroundImageFix" result="effect1_dropShadow_888_2219"/>
<feBlend mode="normal" in="SourceGraphic" in2="effect1_dropShadow_888_2219" result="shape"/>
</filter>
<radialGradient id="paint0_radial_888_2219" cx="0" cy="0" r="1" gradientUnits="userSpaceOnUse" gradientTransform="translate(251.854 233.354) rotate(42.1719) scale(265.134 224.211)">
<stop stop-color="white" stop-opacity="0.5"/>
<stop offset="0.8" stop-color="white" stop-opacity="0"/>
</radialGradient>
<clipPath id="clip0_888_2219">
<rect width="515" height="450" fill="white"/>
</clipPath>
</defs>
</svg>
