<svg width="60" height="24" viewBox="0 0 60 24" fill="none" xmlns="http://www.w3.org/2000/svg">
<path fill-rule="evenodd" clip-rule="evenodd" d="M24.5932 2.08383C24.9757 1.42722 24.502 0.603149 23.7421 0.603149H21.0039L12.2781 15.6494L7.52711 7.56552C7.17328 6.96348 6.52715 6.59376 5.82883 6.59376H2.5042L12.2222 23.3213L24.5932 2.08383Z" fill="#1434CB"/>
<path fill-rule="evenodd" clip-rule="evenodd" d="M10.8535 12.8292L17.6038 1.56071C17.9597 0.966706 18.6013 0.603149 19.2937 0.603149H20.8123L12.2778 15.2948L10.8535 12.8292Z" fill="#A1AEEA"/>
<path fill-rule="evenodd" clip-rule="evenodd" d="M11.9531 23.3209L2.23736 6.61682H0.986677C0.224904 6.61682 -0.248507 7.44457 0.137746 8.10115L8.51988 22.3499C8.87381 22.9515 9.51971 23.3209 10.2177 23.3209H11.9531Z" fill="#A1AEEA"/>
<path d="M45.3919 23.397V0.603027H40.209V23.397H45.3919Z" fill="#1434CB"/>
<path d="M59.8796 18.0652C59.3104 18.4247 58.5015 18.6343 57.6626 18.6343C56.2546 18.6343 55.5955 17.9155 55.5955 16.358V11.0852H59.9994V6.53359H55.5955V0.603027H50.4725V6.53359H47.4766V11.0852H50.4725V17.556C50.4725 21.2402 52.5996 23.3968 56.2246 23.3968C57.6626 23.3968 58.7412 23.1571 59.8796 22.5281V18.0652Z" fill="#1434CB"/>
<path d="M29.5904 23.2924C34.3539 23.2924 38.0089 19.5483 38.0089 14.9357C38.0089 10.323 34.3539 6.57898 29.5904 6.57898C24.8269 6.57898 21.1719 10.323 21.1719 14.9357C21.1719 19.5483 24.8269 23.2924 29.5904 23.2924ZM29.5904 18.7097C28.0025 18.7097 26.5046 17.4517 26.5046 14.9357C26.5046 12.4197 28.0025 11.1916 29.5904 11.1916C31.1782 11.1916 32.6761 12.4197 32.6761 14.9357C32.6761 17.4517 31.1782 18.7097 29.5904 18.7097Z" fill="#1434CB"/>
</svg>
