<svg width="30" height="40" viewBox="0 0 30 40" fill="none" xmlns="http://www.w3.org/2000/svg">
<path d="M2.38358 31.1701V30.0493C2.38358 29.3389 1.96848 28.9453 1.18551 28.9453C0.506934 28.9453 0.034668 29.3129 0.034668 30.0493V30.4766C0.034668 31.487 0.478352 31.9143 0.893451 32.3169C1.27127 32.6766 1.61925 33.0183 1.61925 33.7625V34.1899C1.61925 34.4898 1.48752 34.6601 1.20415 34.6601C0.920793 34.6601 0.789052 34.4887 0.789052 34.1899V33.1716L0.034668 33.06V34.1718C0.034668 34.8563 0.439825 35.2927 1.20415 35.2927C1.91131 35.2927 2.38358 34.9082 2.38358 34.1718V33.7445C2.38358 32.7522 1.9399 32.3237 1.53474 31.9222C1.15692 31.5546 0.790296 31.2118 0.790296 30.4586V30.0481C0.790296 29.7482 0.931976 29.5779 1.20539 29.5779C1.47881 29.5779 1.62049 29.7493 1.62049 30.0481V31.0495L2.38482 31.169L2.38358 31.1701Z" fill="#CEA261"/>
<path d="M6.23921 35.243V29.6218H7.07935V28.9971H4.63599V29.6218H5.47613V35.243H6.23921Z" fill="#CEA261"/>
<path d="M9.35962 28.9971V34.1819C9.35962 34.8754 9.75608 35.2937 10.5291 35.2937C11.3021 35.2937 11.6986 34.8742 11.6986 34.1819V28.9971H10.9343V34.1819C10.9343 34.4728 10.8025 34.6611 10.5291 34.6611C10.2557 34.6611 10.1239 34.4728 10.1239 34.1819V28.9971H9.35962Z" fill="#CEA261"/>
<path d="M14.0671 28.9971V35.243H15.2453C15.9811 35.243 16.4248 34.8325 16.4248 34.13V30.1089C16.4248 29.4075 15.9811 28.9971 15.2453 28.9971H14.0671ZM15.6604 30.1439V34.0973C15.6604 34.457 15.51 34.6194 15.1795 34.6194H14.8302V29.6218H15.1795C15.51 29.6218 15.6604 29.7842 15.6604 30.1439Z" fill="#CEA261"/>
<path d="M19.547 28.9971H18.7827V35.243H19.547V28.9971Z" fill="#CEA261"/>
<path d="M23.0752 28.9463C22.3022 28.9463 21.8958 29.3567 21.8958 30.0581V34.1818C21.8958 34.8832 22.3009 35.2937 23.0752 35.2937C23.8495 35.2937 24.2633 34.8832 24.2633 34.1818V30.0581C24.2633 29.3567 23.8582 28.9463 23.0752 28.9463ZM23.5002 34.183C23.5002 34.4829 23.3685 34.6622 23.0752 34.6622C22.7819 34.6622 22.6501 34.4829 22.6501 34.183V30.0593C22.6501 29.7593 22.7819 29.58 23.0752 29.58C23.3685 29.58 23.5002 29.7593 23.5002 30.0593V34.183Z" fill="#CEA261"/>
<path d="M28.9564 31.1701V30.0493C28.9564 29.3389 28.5413 28.9453 27.7583 28.9453C27.0797 28.9453 26.6074 29.3129 26.6074 30.0493V30.4766C26.6074 31.487 27.0511 31.9143 27.465 32.3169C27.8428 32.6766 28.1908 33.0183 28.1908 33.7625V34.1899C28.1908 34.4898 28.059 34.6601 27.7757 34.6601C27.4923 34.6601 27.3606 34.4887 27.3606 34.1899V33.1716L26.6062 33.06V34.1718C26.6062 34.8563 27.0114 35.2927 27.7757 35.2927C28.4828 35.2927 28.9551 34.9082 28.9551 34.1718V33.7445C28.9551 32.7522 28.5114 32.3237 28.1063 31.9222C27.7285 31.5546 27.3618 31.2118 27.3618 30.4586V30.0481C27.3618 29.7482 27.5035 29.5779 27.7769 29.5779C28.0503 29.5779 28.192 29.7493 28.192 30.0481V31.0495L28.9564 31.169V31.1701Z" fill="#CEA261"/>
<path d="M29.0112 36.627H0.0524902V36.928H29.0112V36.627Z" fill="#CEA261"/>
<path d="M0.443681 38.3086L0 39.9752H0.201335L0.335557 39.4464H0.812796L0.948262 39.9752H1.16203L0.705916 38.3086H0.444925H0.443681ZM0.374084 39.284C0.464809 38.9265 0.539378 38.6266 0.564234 38.4811H0.57045C0.595306 38.6142 0.663659 38.8747 0.770541 39.284H0.374084Z" fill="#CEA261"/>
<path d="M2.48058 39.5535C2.48058 39.3201 2.42838 39.1836 2.25812 39.1284C2.36873 39.0945 2.5042 38.9874 2.5042 38.7393C2.5042 38.4676 2.34263 38.3086 2.03441 38.3086H1.55469V39.9752H1.75478V39.2084H1.97725C2.22457 39.2084 2.278 39.3223 2.278 39.5591V39.6155C2.278 39.7508 2.27925 39.8985 2.30535 39.9752H2.50544C2.48431 39.885 2.47934 39.7745 2.47934 39.62V39.5535H2.48058ZM1.98967 39.0528H1.75478V38.4642H2.00956C2.21338 38.4642 2.29789 38.577 2.29789 38.7439C2.29789 38.9378 2.21338 39.0517 1.98967 39.0517" fill="#CEA261"/>
<path d="M2.80737 38.4721H3.21626V39.9752H3.41759V38.4721H3.82772V38.3086H2.80737V38.4721Z" fill="#CEA261"/>
<path d="M4.41716 38.3086H4.21582V39.9752H4.41716V38.3086Z" fill="#CEA261"/>
<path d="M5.41365 39.0168C5.18373 38.9176 5.10543 38.8421 5.10543 38.6831C5.10543 38.55 5.17999 38.4395 5.35647 38.4395C5.58515 38.4395 5.61125 38.6323 5.62119 38.7124H5.82004C5.81507 38.5173 5.71938 38.2861 5.36393 38.2861C5.06442 38.2861 4.90285 38.4688 4.90285 38.6977C4.90285 38.939 5.02961 39.054 5.31795 39.1792C5.56775 39.2886 5.64605 39.3822 5.64605 39.557C5.64605 39.7487 5.54911 39.8445 5.35647 39.8445C5.16384 39.8445 5.06441 39.7081 5.0495 39.5367H4.84692C4.86059 39.7791 4.98239 39.9979 5.35026 39.9979C5.68831 39.9979 5.85236 39.805 5.85236 39.5423C5.85236 39.2942 5.73429 39.1555 5.41365 39.0168Z" fill="#CEA261"/>
<path d="M6.13208 38.4721H6.54221V39.9752H6.74354V38.4721H7.15243V38.3086H6.13208V38.4721Z" fill="#CEA261"/>
<path d="M10.4384 39.0686C10.5453 39.0348 10.6646 38.9378 10.6646 38.7145C10.6646 38.4586 10.4956 38.3086 10.2209 38.3086H9.74243V39.9741H10.206C10.5242 39.9741 10.7243 39.7858 10.7243 39.4858C10.7243 39.2287 10.5776 39.1126 10.4384 39.0675M9.94128 38.4597H10.1774C10.3701 38.4597 10.467 38.5623 10.467 38.7292C10.467 38.9085 10.3825 39.0021 10.1526 39.0021H9.94128V38.4597ZM10.1886 39.823H9.94128V39.1521H10.1488C10.3949 39.1521 10.5204 39.2626 10.5204 39.4858C10.5204 39.7091 10.4036 39.823 10.1874 39.823" fill="#CEA261"/>
<path d="M12.1246 39.5535C12.1246 39.3201 12.0724 39.1836 11.9021 39.1284C12.0127 39.0945 12.1482 38.9874 12.1482 38.7393C12.1482 38.4676 11.9867 38.3086 11.6784 38.3086H11.2V39.9752H11.4V39.2084H11.6225C11.8698 39.2084 11.9233 39.3223 11.9233 39.5591V39.6155C11.9233 39.7508 11.9245 39.8985 11.9506 39.9752H12.1507C12.1296 39.885 12.1246 39.7745 12.1246 39.62V39.5535ZM11.6337 39.0528H11.3988V38.4642H11.6523C11.8562 38.4642 11.9407 38.577 11.9407 38.7439C11.9407 38.9378 11.8562 39.0517 11.6324 39.0517" fill="#CEA261"/>
<path d="M12.95 38.3086L12.5063 39.9752H12.7077L12.8419 39.4464H13.3191L13.4546 39.9752H13.6684L13.2123 38.3086H12.9513H12.95ZM12.8804 39.284C12.9712 38.9265 13.0457 38.6266 13.0706 38.4811H13.0768C13.1017 38.6142 13.17 38.8747 13.2769 39.284H12.8804Z" fill="#CEA261"/>
<path d="M14.898 38.9459C14.898 39.2165 14.9017 39.4668 14.9141 39.6912H14.9116C14.888 39.619 14.8172 39.4623 14.3089 38.3087H14.0603V39.9742H14.248V39.3247C14.248 39.0248 14.2467 38.7519 14.2331 38.5433H14.2355C14.2567 38.6087 14.3213 38.7621 14.8482 39.9731H15.0856V38.3076H14.8967V38.9447L14.898 38.9459Z" fill="#CEA261"/>
<path d="M16.0373 38.3086H15.6296V39.9752H16.0087C16.4797 39.9752 16.6512 39.664 16.6512 39.0979C16.6512 38.577 16.4611 38.3086 16.0373 38.3086ZM16 39.8185H15.8322V38.4665H16.0037C16.3182 38.4665 16.4437 38.6615 16.4437 39.1036C16.4437 39.576 16.3368 39.8174 16.0012 39.8174" fill="#CEA261"/>
<path d="M19.8181 39.839C19.5409 39.839 19.4974 39.4838 19.4974 39.132C19.4974 38.8072 19.5422 38.4487 19.8317 38.4487C20.089 38.4487 20.1002 38.7069 20.1039 38.7633H20.3065C20.3015 38.6618 20.2767 38.2852 19.8342 38.2852C19.4266 38.2852 19.2861 38.646 19.2861 39.1297C19.2861 39.53 19.3234 39.9991 19.8118 39.9991C20.2568 39.9991 20.3028 39.6101 20.3115 39.5131H20.1076C20.0989 39.5977 20.0629 39.8379 19.8181 39.8379" fill="#CEA261"/>
<path d="M21.2348 38.2852C20.8744 38.2852 20.6904 38.5626 20.6904 39.1309C20.6904 39.6992 20.847 40.0003 21.2248 40.0003C21.6225 40.0003 21.7717 39.6958 21.7717 39.1275C21.7717 38.5592 21.6138 38.2852 21.2348 38.2852ZM21.2323 39.8413C21.0049 39.8413 20.8992 39.6022 20.8992 39.1264C20.8992 38.6505 21.0061 38.4453 21.2311 38.4453C21.456 38.4453 21.5654 38.6449 21.5654 39.1297C21.5654 39.6146 21.4672 39.8413 21.2335 39.8413" fill="#CEA261"/>
<path d="M23.0928 38.9459C23.0928 39.2165 23.0965 39.4668 23.1089 39.6912H23.1065C23.0828 39.619 23.012 39.4623 22.5037 38.3087H22.2551V39.9742H22.4428V39.3247C22.4428 39.0248 22.4416 38.7519 22.4279 38.5433H22.4304C22.4515 38.6087 22.5161 38.7621 23.0431 39.9731H23.2804V38.3076H23.0915V38.9447L23.0928 38.9459Z" fill="#CEA261"/>
<path d="M23.6719 38.4721H24.0808V39.9752H24.2821V38.4721H24.6922V38.3086H23.6719V38.4721Z" fill="#CEA261"/>
<path d="M25.2802 39.1757H25.8929V39.0134H25.2802V38.4721H25.9227V38.3086H25.0801V39.9752H25.9326L25.96 39.8128H25.2802V39.1757Z" fill="#CEA261"/>
<path d="M27.1929 38.9459C27.1929 39.2165 27.1966 39.4668 27.209 39.6912H27.2066C27.1829 39.619 27.1121 39.4623 26.6038 38.3087H26.3552V39.9742H26.5429V39.3247C26.5429 39.0248 26.5416 38.7519 26.528 38.5433H26.5305C26.5516 38.6087 26.6162 38.7621 27.1432 39.9731H27.3805V38.3076H27.1916V38.9447L27.1929 38.9459Z" fill="#CEA261"/>
<path d="M27.772 38.4721H28.1809V39.9752H28.3822V38.4721H28.7923V38.3086H27.772V38.4721Z" fill="#CEA261"/>
<path d="M8.6278 38.8846L8.42149 38.5068L8.21643 38.8846L7.75659 38.9455L8.08966 39.2398L8.01137 39.6548L8.42149 39.4597L8.83286 39.6548L8.75457 39.2398L9.08764 38.9455L8.6278 38.8846Z" fill="#CEA261"/>
<path d="M18.3116 38.8846L18.1066 38.5068L17.9003 38.8846L17.4404 38.9455L17.7735 39.2398L17.6952 39.6548L18.1066 39.4597L18.5179 39.6548L18.4384 39.2398L18.7715 38.9455L18.3116 38.8846Z" fill="#CEA261"/>
<path d="M27.9957 0.996818V0.117273H27.634V0H28.504V0.117273H28.1411V0.996818H27.9957Z" fill="#CEA261"/>
<path d="M28.7637 0.996818V0H28.9824L29.2422 0.705891C29.2658 0.771293 29.2832 0.820908 29.2944 0.853609C29.3068 0.817525 29.3267 0.764527 29.3528 0.693487L29.6162 0H29.8126V0.996818H29.6722V0.162378L29.3528 0.996818H29.2223L28.9041 0.147718V0.996818H28.7637Z" fill="#CEA261"/>
<path d="M28.9625 11.1413V4.85253C28.9625 3.69446 28.4654 2.60743 27.5656 1.79216C26.6658 0.97351 25.4664 0.522461 24.1901 0.522461C21.559 0.522461 19.4177 2.46535 19.4177 4.85253V4.91342C18.1587 2.33004 15.3077 0.522461 12.0006 0.522461H10.1426C10.2507 5.36898 10.5204 16.3543 11.7719 19.3774C11.1107 20.832 10.7441 22.4254 10.7441 24.0965C10.7441 25.294 10.9318 26.4521 11.281 27.547H12.0006C12.0826 27.547 12.1621 27.5436 12.2429 27.5414C12.2429 27.5414 12.2429 27.5414 12.2429 27.5425C12.2641 27.5425 12.2852 27.5403 12.3063 27.5403C12.3722 27.538 12.4393 27.5358 12.5052 27.5312C12.5598 27.5279 12.6145 27.5234 12.6692 27.52C12.7786 27.5121 12.8879 27.5019 12.9961 27.4895C13.0495 27.4839 13.1042 27.4782 13.1576 27.4704C13.2235 27.4613 13.2894 27.4523 13.354 27.4422C13.4037 27.4343 13.4522 27.4264 13.5019 27.4185C13.5678 27.4072 13.6324 27.3959 13.6983 27.3835C13.7455 27.3745 13.7915 27.3644 13.8387 27.3542C13.953 27.3294 14.0661 27.3035 14.1792 27.2753C14.2227 27.264 14.2675 27.2527 14.311 27.2414C14.3768 27.2234 14.4427 27.2054 14.5073 27.1862C14.5483 27.1738 14.5881 27.1614 14.6291 27.149C14.7609 27.1073 14.8914 27.0633 15.0206 27.017C15.043 27.0092 15.0654 27.0013 15.0865 26.9934C15.1548 26.9674 15.2207 26.9415 15.2878 26.9144C15.3214 26.9009 15.3562 26.8862 15.3897 26.8727C15.4568 26.8445 15.524 26.8163 15.5911 26.7859C15.6097 26.778 15.6283 26.769 15.647 26.7599C15.7837 26.6968 15.9179 26.6314 16.0509 26.5615C16.0708 26.5502 16.0919 26.5401 16.1118 26.5299C16.1802 26.4938 16.2473 26.4555 16.3144 26.4183C16.3355 26.4059 16.3566 26.3935 16.3778 26.3811C16.5928 26.2548 16.8016 26.1206 17.0029 25.9774C17.0166 25.9684 17.029 25.9582 17.0427 25.9492C17.3285 25.7428 17.5982 25.5196 17.8517 25.2805L17.8654 25.2681C18.5092 24.6558 19.0386 23.9443 19.4214 23.1595V23.2192C19.4214 25.6064 21.5628 27.5493 24.1938 27.5493C26.8248 27.5493 28.9662 25.6075 28.9662 23.2192V16.9305H26.3203V23.2192C26.3203 24.2826 25.367 25.1475 24.195 25.1475C23.0231 25.1475 22.0686 24.2826 22.0686 23.2192V4.85478C22.0686 3.79143 23.0218 2.92542 24.195 2.92542C24.763 2.92542 25.2962 3.12614 25.6989 3.49261C26.1003 3.85571 26.3203 4.33946 26.3203 4.85478V11.1435H28.9662L28.9625 11.1413ZM19.4177 10.8436V17.2248C18.7801 15.9179 17.7362 14.8105 16.4312 14.0336C17.7362 13.2578 18.7801 12.1505 19.4177 10.8425M13.2098 3.04382C15.6408 3.54449 17.4615 5.52121 17.4615 7.87681C17.4615 10.2324 15.6408 12.2091 13.2098 12.7098V3.04382ZM17.4615 20.1893C17.4615 21.3665 17.0066 22.4502 16.2473 23.3015C15.4879 24.1529 14.4253 24.772 13.2098 25.0223V15.3563C15.6408 15.857 17.4615 17.8337 17.4615 20.1893Z" fill="#CEA261"/>
<path d="M9.54845 0.522461H4.77606C2.14503 0.522461 0.00366211 2.46535 0.00366211 4.85253V27.5482H2.64961V15.2357H6.90127V17.0049V27.5482H8.82265C9.17188 26.4532 9.35955 25.2952 9.35955 24.0976C9.35955 22.4265 8.99416 20.8332 8.33298 19.3785C9.58449 16.3565 9.85419 5.3701 9.96231 0.523589H9.54845V0.522461ZM2.65085 12.835V4.85253C2.65085 3.78918 3.60409 2.92429 4.77606 2.92429C5.94803 2.92429 6.90251 3.78918 6.90251 4.85253V12.835H2.65085Z" fill="#CEA261"/>
</svg>
