<svg width="160" height="48" viewBox="0 0 160 48" fill="none" xmlns="http://www.w3.org/2000/svg">
<path fill-rule="evenodd" clip-rule="evenodd" d="M118.471 39.5483C118.471 38.2628 118.471 37.2851 118.471 36.3273C118.597 36.2757 118.677 36.2091 118.745 36.2196C121.897 36.7151 123.389 35.52 123.309 32.2762C123.228 28.9723 122.92 25.6734 122.714 22.372C122.583 20.2806 122.457 18.1893 122.325 16.0239C124.144 16.0239 125.834 16.0239 127.731 16.0239C127.731 19.8452 127.731 23.6545 127.731 27.4638C127.844 27.4847 127.956 27.506 128.069 27.5269C128.728 26.1307 129.392 24.7374 130.045 23.3382C131.042 21.2012 132.056 19.0716 133.008 16.9147C133.313 16.2225 133.675 15.8918 134.484 15.936C135.806 16.0085 137.135 15.9554 138.673 15.9554C138.102 17.0219 137.625 17.9246 137.137 18.8218C134.131 24.3506 131.15 29.8933 128.1 35.3978C126.99 37.4018 125.479 39.1297 123.069 39.5056C121.587 39.7364 120.04 39.5483 118.471 39.5483Z" fill="#002A4F"/>
<path fill-rule="evenodd" clip-rule="evenodd" d="M81.2924 32.4713C79.486 32.4713 77.7496 32.4713 75.8447 32.4713C76.4927 30.0036 77.1217 27.6233 77.7426 25.2414C78.4521 22.5205 79.193 19.807 79.839 17.0711C80.0515 16.1719 80.444 15.881 81.3569 15.9346C82.7174 16.015 84.0858 15.9554 85.5217 15.9554C85.4277 16.5314 85.3572 16.9659 85.2552 17.5885C85.7037 17.3358 85.9927 17.1471 86.3022 17.0036C87.1276 16.6203 87.9311 16.1382 88.7995 15.9033C92.7353 14.8392 94.9867 16.9356 94.0653 20.8675C93.1603 24.7275 92.1044 28.5528 91.1004 32.4485C89.275 32.4485 87.5071 32.4485 85.5902 32.4485C86.2467 29.9177 86.8891 27.4544 87.5226 24.9897C87.8936 23.5478 88.3406 22.1168 88.57 20.6526C88.664 20.0528 88.4646 19.0547 88.0581 18.8194C87.5476 18.5245 86.5102 18.582 86.0197 18.9306C85.3002 19.4415 84.5993 20.2677 84.3523 21.0955C83.3463 24.4614 82.5169 27.88 81.6214 31.2787C81.5179 31.6719 81.4044 32.0637 81.2924 32.4713Z" fill="#002A4F"/>
<path fill-rule="evenodd" clip-rule="evenodd" d="M36.6019 32.6353C35.2015 32.6353 33.5506 32.7227 31.9197 32.5802C31.4507 32.5395 31.0407 31.8349 30.5193 31.3577C29.1353 32.4516 27.3174 33.1174 25.2231 32.9541C22.7122 32.7574 21.3763 31.172 21.6922 28.6924C22.0392 25.971 23.5866 24.184 26.223 23.5335C28.1919 23.0474 30.2383 22.8627 32.2557 22.5842C33.3531 22.4322 34.1191 21.0504 33.8726 19.5559C33.7136 18.5931 32.8206 18.0886 31.6622 18.322C30.5248 18.5504 29.8238 19.3101 29.4943 20.3419C29.2788 21.0161 28.9804 21.249 28.2694 21.2192C26.8595 21.1601 25.445 21.2018 23.9226 21.2018C24.3451 18.9382 25.595 17.4312 27.5954 16.6085C30.3433 15.4784 33.2091 15.4039 36.05 16.1884C38.6018 16.893 39.6028 18.6323 38.9628 21.2331C38.2519 24.1214 37.3459 26.963 36.6339 29.8518C36.429 30.681 36.6019 31.6025 36.6019 32.6353ZM32.7736 24.2227C31.2347 24.6224 30.0083 24.817 28.8829 25.2649C27.5694 25.7872 26.721 27.3855 27.137 28.601C27.3169 29.1279 28.0134 29.7018 28.5749 29.8319C29.7993 30.1164 31.1482 29.185 31.6582 27.8424C32.0512 26.8086 32.3167 25.7277 32.7736 24.2227Z" fill="#002A4F"/>
<path fill-rule="evenodd" clip-rule="evenodd" d="M67.6569 9.5616C67.4234 10.4449 67.2039 11.2741 66.9889 12.0874C63.6611 12.0477 62.8382 12.7895 62.6727 16.0134C63.4566 16.0134 64.2371 16.0134 65.144 16.0134C64.9441 16.8104 64.7751 17.4802 64.5786 18.2622C63.7066 18.2622 62.8522 18.2622 61.9092 18.2622C61.0568 21.504 60.2278 24.6535 59.4014 27.8034C59.0554 29.1227 58.7479 30.4544 58.3474 31.7572C58.2544 32.0601 57.8609 32.4752 57.5895 32.4876C56.0235 32.5576 54.4531 32.5214 52.6992 32.5214C53.9457 27.7334 55.1486 23.1137 56.3835 18.3719C55.6436 18.3243 55.0056 18.2835 54.2271 18.2339C54.4301 17.4524 54.6121 16.7543 54.8061 16.007C55.5571 16.007 56.2165 16.007 56.9805 16.007C57.7149 13.2711 58.2409 10.4067 61.4057 9.30192C63.2037 8.67382 65.792 8.7329 67.6569 9.5616Z" fill="#002A4F"/>
<path fill-rule="evenodd" clip-rule="evenodd" d="M55.9882 9.46055C55.7467 10.4183 55.5282 11.2858 55.3742 11.8955C54.2233 12.0877 52.9214 11.9253 52.3519 12.4903C51.5189 13.3171 51.2114 14.6656 50.573 16.0191C51.7479 16.0191 52.5264 16.0191 53.3093 16.0191C53.1798 18.2277 53.1533 18.3007 51.1594 18.2744C50.354 18.2639 50.1105 18.5817 49.9325 19.2883C48.9226 23.2937 47.8661 27.2878 46.8217 31.2853C46.7192 31.6775 46.5927 32.0638 46.4692 32.4779C44.6753 32.4779 42.9389 32.4779 41.042 32.4779C42.2679 27.7465 43.4739 23.0921 44.7128 18.3096C43.9458 18.3096 43.3344 18.3096 42.5434 18.3096C42.7479 17.4864 42.9199 16.7947 43.1039 16.0544C43.8508 16.0196 44.5483 15.9874 45.3188 15.9511C46.0352 13.2664 46.5502 10.4218 49.6675 9.3394C51.7409 8.61944 53.8148 8.72421 55.9882 9.46055Z" fill="#002A4F"/>
<path fill-rule="evenodd" clip-rule="evenodd" d="M113.747 9.86377C115.161 11.407 116.457 12.7352 117.629 14.1632C117.901 14.4944 117.751 15.1662 117.808 15.8245C118.385 15.8598 119.065 15.9015 119.912 15.9536C119.692 16.7372 119.494 17.4377 119.275 18.2183C118.651 18.2183 118.04 18.2183 117.322 18.2183C116.673 21.0892 116.038 23.9 115.404 26.7113C115.159 27.8002 114.843 28.8806 114.7 29.9829C114.604 30.7247 114.752 31.4983 114.801 32.4467C113.217 32.4467 111.332 32.5445 109.463 32.408C108.432 32.3325 108.555 31.4248 108.744 30.6542C109.642 27.0018 110.539 23.3484 111.431 19.6945C111.537 19.26 111.617 18.8191 111.732 18.2719C110.797 18.2719 109.975 18.2719 108.889 18.2719C109.29 17.3787 109.429 16.3519 109.99 16.0137C110.593 15.6498 111.592 15.9313 112.503 15.9313C112.913 13.9358 113.3 12.0465 113.747 9.86377Z" fill="#002A4F"/>
<path fill-rule="evenodd" clip-rule="evenodd" d="M74.6766 15.9559C73.2572 21.3978 71.8997 26.6317 70.5043 31.8556C70.4333 32.1197 70.0373 32.4757 69.7814 32.4852C68.2104 32.5438 66.636 32.515 64.8906 32.515C65.5051 30.1098 66.0801 27.8481 66.662 25.588C67.4035 22.7076 68.1644 19.8318 68.8844 16.946C69.0569 16.2543 69.3194 15.8968 70.1278 15.936C71.5743 16.0065 73.0262 15.9559 74.6766 15.9559Z" fill="#002A4F"/>
<path fill-rule="evenodd" clip-rule="evenodd" d="M106.077 15.9576C104.648 21.395 103.279 26.6309 101.874 31.8568C101.804 32.119 101.421 32.476 101.172 32.4849C99.5995 32.5425 98.0246 32.5147 96.2822 32.5147C96.9177 30.0266 97.5092 27.6815 98.1151 25.3404C98.8511 22.4988 99.5806 19.6562 100.366 16.8285C100.459 16.4914 100.873 16.0117 101.16 15.9968C102.73 15.9144 104.309 15.9576 106.077 15.9576Z" fill="#002A4F"/>
<path fill-rule="evenodd" clip-rule="evenodd" d="M71.0117 9.66553C72.6236 9.66553 74.551 9.66553 76.6619 9.66553C76.2184 11.244 75.8 12.735 75.395 14.1755C73.8726 12.6089 72.3841 11.0776 71.0117 9.66553Z" fill="#65924E"/>
<path fill-rule="evenodd" clip-rule="evenodd" d="M102.09 9.64551C103.902 9.64551 105.833 9.64551 107.893 9.64551C107.437 11.2498 107.011 12.7448 106.6 14.1917C105.055 12.6341 103.559 11.1266 102.09 9.64551Z" fill="#65924E"/>
</svg>
