<svg width="181" height="44" viewBox="0 0 181 44" fill="none" xmlns="http://www.w3.org/2000/svg">
<path fill-rule="evenodd" clip-rule="evenodd" d="M136.654 40.9135C136.654 39.3498 136.654 38.1605 136.654 36.9954C136.807 36.9326 136.903 36.8516 136.985 36.8643C140.793 37.4671 142.596 36.0133 142.499 32.0674C142.401 28.0484 142.029 24.0355 141.78 20.0195C141.623 17.4755 141.471 14.9315 141.311 12.2975C143.508 12.2975 145.549 12.2975 147.841 12.2975C147.841 16.9458 147.841 21.5796 147.841 26.2135C147.977 26.2389 148.113 26.2648 148.25 26.2902C149.045 24.5918 149.848 22.897 150.636 21.1949C151.841 18.5953 153.066 16.0048 154.217 13.381C154.585 12.5391 155.022 12.1368 156 12.1905C157.597 12.2787 159.202 12.2141 161.06 12.2141C160.37 13.5115 159.793 14.6095 159.204 15.701C155.573 22.4264 151.972 29.1688 148.287 35.8647C146.946 38.3024 145.121 40.4043 142.209 40.8616C140.419 41.1424 138.55 40.9135 136.654 40.9135Z" fill="#A38F8F"/>
<path fill-rule="evenodd" clip-rule="evenodd" d="M91.7403 32.3047C89.5581 32.3047 87.4604 32.3047 85.1592 32.3047C85.942 29.3029 86.7018 26.4073 87.4519 23.51C88.309 20.2001 89.2041 16.8992 89.9845 13.5712C90.2412 12.4774 90.7153 12.1235 91.8182 12.1887C93.4617 12.2865 95.1148 12.2141 96.8495 12.2141C96.7359 12.9147 96.6508 13.4432 96.5276 14.2006C97.0693 13.8932 97.4185 13.6636 97.7923 13.4891C98.7895 13.0228 99.7601 12.4363 100.809 12.1506C105.564 10.8563 108.284 13.4063 107.171 18.1894C106.077 22.8848 104.802 27.538 103.589 32.2769C101.384 32.2769 99.248 32.2769 96.9322 32.2769C97.7253 29.1984 98.5014 26.202 99.2667 23.2037C99.7148 21.4497 100.255 19.709 100.532 17.9279C100.646 17.1982 100.405 15.9842 99.9136 15.6979C99.2969 15.3391 98.0436 15.4092 97.4511 15.8332C96.5819 16.4547 95.7351 17.4598 95.4367 18.4666C94.2215 22.5611 93.2195 26.7196 92.1377 30.8539C92.0127 31.3323 91.8756 31.8089 91.7403 32.3047Z" fill="#A38F8F"/>
<path fill-rule="evenodd" clip-rule="evenodd" d="M37.7516 32.5047C36.0598 32.5047 34.0654 32.611 32.0952 32.4377C31.5286 32.3881 31.0333 31.5311 30.4034 30.9506C28.7315 32.2812 26.5354 33.0912 24.0053 32.8925C20.972 32.6533 19.3581 30.7247 19.7398 27.7084C20.159 24.3979 22.0284 22.2241 25.2132 21.4329C27.5918 20.8416 30.0639 20.6169 32.501 20.278C33.8268 20.0932 34.7521 18.4123 34.4544 16.5943C34.2623 15.4231 33.1836 14.8095 31.7841 15.0934C30.41 15.3712 29.5632 16.2953 29.1652 17.5504C28.9049 18.3706 28.5443 18.6539 27.6854 18.6177C25.9821 18.5458 24.2734 18.5965 22.4343 18.5965C22.9446 15.8429 24.4546 14.0098 26.8712 13.009C30.1908 11.6343 33.6529 11.5437 37.0848 12.498C40.1675 13.3551 41.3767 15.4709 40.6036 18.6346C39.7447 22.148 38.6503 25.6047 37.7902 29.1187C37.5426 30.1274 37.7516 31.2484 37.7516 32.5047ZM33.1268 22.2712C31.2677 22.7574 29.7861 22.9942 28.4265 23.539C26.8398 24.1744 25.8148 26.1187 26.3173 27.5973C26.5348 28.2381 27.3761 28.9363 28.0544 29.0946C29.5336 29.4406 31.1632 28.3076 31.7793 26.6743C32.254 25.4168 32.5747 24.1019 33.1268 22.2712Z" fill="#A38F8F"/>
<path fill-rule="evenodd" clip-rule="evenodd" d="M75.2679 4.43642C74.9859 5.51092 74.7207 6.51959 74.461 7.50894C70.4408 7.46062 69.4466 8.36299 69.2467 12.2847C70.1938 12.2847 71.1366 12.2847 72.2323 12.2847C71.9907 13.2541 71.7865 14.0689 71.5491 15.0202C70.4958 15.0202 69.4636 15.0202 68.3244 15.0202C67.2946 18.9637 66.2932 22.7948 65.2948 26.6266C64.8768 28.2314 64.5054 29.8513 64.0216 31.4362C63.9092 31.8046 63.4339 32.3096 63.1059 32.3247C61.2142 32.4098 59.3171 32.3657 57.1982 32.3657C58.704 26.5414 60.1572 20.9218 61.6491 15.1537C60.7552 15.0957 59.9845 15.0462 59.044 14.9858C59.2893 14.0351 59.5091 13.1859 59.7435 12.2769C60.6507 12.2769 61.4473 12.2769 62.3702 12.2769C63.2575 8.94886 63.8929 5.46442 67.7162 4.12053C69.8882 3.35648 73.015 3.42835 75.2679 4.43642Z" fill="#A38F8F"/>
<path fill-rule="evenodd" clip-rule="evenodd" d="M61.172 4.31377C60.8803 5.47887 60.6163 6.53405 60.4303 7.27576C59.0399 7.5095 57.4671 7.31199 56.7792 7.99934C55.7729 9.00499 55.4015 10.6454 54.6302 12.2919C56.0495 12.2919 56.99 12.2919 57.9358 12.2919C57.7794 14.9785 57.7474 15.0673 55.3386 15.0353C54.3656 15.0226 54.0715 15.4091 53.8564 16.2686C52.6364 21.1411 51.3601 25.9996 50.0984 30.8623C49.9746 31.3395 49.8218 31.8094 49.6726 32.3131C47.5054 32.3131 45.4078 32.3131 43.1162 32.3131C44.5972 26.5577 46.054 20.8958 47.5507 15.0782C46.6242 15.0782 45.8855 15.0782 44.93 15.0782C45.177 14.0767 45.3848 13.2354 45.6071 12.3348C46.5095 12.2925 47.352 12.2533 48.2828 12.2092C49.1483 8.94338 49.7704 5.4831 53.5363 4.16639C56.0411 3.2906 58.5465 3.41804 61.172 4.31377Z" fill="#A38F8F"/>
<path fill-rule="evenodd" clip-rule="evenodd" d="M130.946 4.8042C132.655 6.68141 134.22 8.2971 135.636 10.0342C135.964 10.4371 135.784 11.2543 135.852 12.0552C136.55 12.098 137.37 12.1488 138.394 12.2122C138.128 13.1653 137.889 14.0175 137.624 14.967C136.871 14.967 136.133 14.967 135.265 14.967C134.482 18.4593 133.714 21.8785 132.949 25.2983C132.652 26.6229 132.271 27.9372 132.098 29.2781C131.982 30.1804 132.161 31.1214 132.22 32.2751C130.306 32.2751 128.028 32.3941 125.771 32.228C124.526 32.1362 124.674 31.032 124.902 30.0947C125.988 25.6517 127.07 21.2075 128.149 16.7627C128.277 16.2342 128.373 15.6978 128.512 15.0322C127.383 15.0322 126.39 15.0322 125.077 15.0322C125.562 13.9457 125.73 12.6966 126.407 12.2853C127.136 11.8425 128.343 12.185 129.444 12.185C129.938 9.75756 130.406 7.45936 130.946 4.8042Z" fill="#A38F8F"/>
<path fill-rule="evenodd" clip-rule="evenodd" d="M83.7487 12.2147C82.034 18.8345 80.3942 25.2012 78.7084 31.5558C78.6226 31.8772 78.1443 32.3102 77.835 32.3217C75.9373 32.393 74.0353 32.3579 71.9268 32.3579C72.6691 29.4322 73.3637 26.681 74.0667 23.9316C74.9624 20.4278 75.8817 16.9295 76.7515 13.4191C76.9598 12.5777 77.2769 12.1428 78.2536 12.1906C80.001 12.2763 81.755 12.2147 83.7487 12.2147Z" fill="#A38F8F"/>
<path fill-rule="evenodd" clip-rule="evenodd" d="M121.681 12.2171C119.955 18.8315 118.302 25.2006 116.604 31.5576C116.519 31.8765 116.056 32.3108 115.756 32.3217C113.856 32.3918 111.954 32.3579 109.849 32.3579C110.616 29.3313 111.331 26.4786 112.063 23.6308C112.952 20.1742 113.833 16.7163 114.781 13.2765C114.894 12.8664 115.395 12.283 115.741 12.2648C117.638 12.1646 119.545 12.2171 121.681 12.2171Z" fill="#A38F8F"/>
<path fill-rule="evenodd" clip-rule="evenodd" d="M79.3203 4.56274C81.2676 4.56274 83.596 4.56274 86.1461 4.56274C85.6103 6.48284 85.1048 8.29664 84.6155 10.0488C82.7764 8.14322 80.9783 6.2805 79.3203 4.56274Z" fill="#A38F8F"/>
<path fill-rule="evenodd" clip-rule="evenodd" d="M116.865 4.53857C119.055 4.53857 121.387 4.53857 123.875 4.53857C123.324 6.49008 122.81 8.30871 122.314 10.0687C120.448 8.17402 118.64 6.34029 116.865 4.53857Z" fill="#A38F8F"/>
</svg>
