<svg width="138" height="40" viewBox="0 0 138 40" fill="none" xmlns="http://www.w3.org/2000/svg">
<g clip-path="url(#clip0_1237_886)">
<path d="M31.7214 19.9784C25.2579 13.515 14.7393 13.515 8.27586 19.9785L2.42483 25.8295C-0.808276 29.0626 -0.808276 34.3012 2.42483 37.5343C5.65793 40.7674 10.8966 40.7674 14.1297 37.5343L31.7241 19.9784H31.7214Z" fill="#0143FF"/>
<path d="M31.7214 19.9807C25.2579 26.4441 14.7393 26.4441 8.27586 19.9807L2.42483 14.1297C-0.808276 10.8966 -0.808276 5.65793 2.42483 2.42483C5.65793 -0.808276 10.8966 -0.808276 14.1297 2.42483L31.7241 19.9807H31.7214Z" fill="#20CEFE"/>
<path d="M31.4869 19.9784C25.1027 26.258 14.856 26.258 8.47175 19.9784C14.856 13.6989 25.1027 13.6989 31.4869 19.9784Z" fill="#01FFFF" stroke="#01FFFF" stroke-width="0.275862"/>
</g>
<path d="M136.827 23.4479H126.896C127.172 25.4341 128.69 26.2066 131.117 26.2066C132.469 26.2066 134.014 25.9031 135.503 25.1031V28.6066C133.903 29.241 132.083 29.5169 130.234 29.5169C125.49 29.5169 121.876 26.7307 121.876 21.9859C121.876 17.241 125.103 14.4824 129.572 14.4824C134.896 14.4824 136.827 18.2617 136.827 22.5376V23.4479ZM126.841 20.6341H132.358C132.358 18.979 131.586 17.6272 129.6 17.6272C127.807 17.6272 126.952 18.979 126.841 20.6341Z" fill="#181010"/>
<path d="M114.251 29.5171L114.251 10.4824H119.217V29.5171H114.251Z" fill="#181010"/>
<path d="M111.31 29.5169H106.758C106.731 28.7445 106.648 27.6686 106.648 26.9238H106.593C105.462 28.7169 104.083 29.5169 102.041 29.5169C99.1998 29.5169 96.6619 28.11 96.6619 24.9928C96.6619 20.6066 101.434 20.0824 104.083 20.0824C104.883 20.0824 105.765 20.1652 106.4 20.2755C106.372 18.3169 104.91 17.7928 103.117 17.7928C101.517 17.7928 99.9171 18.0962 98.5377 18.8686L98.455 15.5031C100.221 14.7859 102.069 14.4824 104.193 14.4824C107.862 14.4824 111.034 16.0548 111.034 20.441V25.7928C111.034 26.9238 111.089 28.3859 111.31 29.5169ZM101.296 24.6341C101.296 25.6273 102.179 26.2066 103.338 26.2066C105.214 26.2066 106.4 24.4962 106.4 22.8135C105.765 22.7859 105.048 22.7307 104.303 22.7307C102.621 22.7307 101.296 23.2548 101.296 24.6341Z" fill="#181010"/>
<path d="M83.2812 18.289V14.8132H86.2054L86.2054 10.5098H91.0881L91.0881 14.8132H94.564V18.289H91.0881V23.5856C91.0881 25.3235 91.5019 26.2063 93.0744 26.2063C93.5709 26.2063 94.095 26.0959 94.5916 26.0132L94.7571 29.2408C93.8192 29.3511 92.8813 29.5166 91.6399 29.5166C87.1985 29.5166 86.1226 27.558 86.1226 24.1373V18.289H83.2812Z" fill="#181010"/>
<path d="M73.5166 29.5169C68.7718 29.5169 65.158 26.7583 65.158 22.0135C65.158 17.241 68.7718 14.4824 73.5166 14.4824C78.2614 14.4824 81.8752 17.241 81.8752 22.0135C81.8752 26.7583 78.2614 29.5169 73.5166 29.5169ZM73.5166 26.041C75.8062 26.041 76.7442 24.1376 76.7442 22.0135C76.7442 19.8617 75.8062 17.9583 73.5166 17.9583C71.2269 17.9583 70.289 19.8617 70.289 22.0135C70.289 24.1376 71.2269 26.041 73.5166 26.041Z" fill="#181010"/>
<path d="M57.2134 29.5169V15.3652H62.1789V29.5169H57.2134ZM59.6961 10.4824L62.1789 14.1238H57.2134L59.6961 10.4824Z" fill="#181010"/>
<path d="M38.3447 29.5169V10.4824L47.3102 10.4824C50.8965 10.4824 53.5723 11.9445 53.5723 15.2549C53.5723 17.6824 52.3309 19.0342 50.1792 19.7514V19.8066C52.7447 20.3307 54.0689 21.71 54.0689 24.0549C54.0689 28.6618 50.0137 29.5169 46.5654 29.5169H38.3447ZM43.5861 21.4618V25.9859H45.1033C46.9792 25.9859 48.9378 25.71 48.9378 23.7514C48.9378 21.6549 46.924 21.4618 45.1585 21.4618H43.5861ZM43.5861 14.0135V17.9859H45.0206C46.7033 17.9859 48.4413 17.5721 48.4413 15.9445C48.4413 14.179 46.7861 14.0135 45.0758 14.0135H43.5861Z" fill="#181010"/>
<defs>
<clipPath id="clip0_1237_886">
<rect width="31.7241" height="40" fill="white"/>
</clipPath>
</defs>
</svg>
