<svg width="151" height="48" viewBox="0 0 151 48" fill="none" xmlns="http://www.w3.org/2000/svg">
<path fill-rule="evenodd" clip-rule="evenodd" d="M77.63 21.2512C77.7591 21.382 77.8884 21.5129 78.0167 21.6437C78.0565 21.5419 78.1322 21.4403 78.1324 21.3385C78.1388 18.9884 78.1333 16.6382 78.1415 14.2881C78.1425 14.0234 78.2118 13.759 78.2494 13.4944C78.4025 13.3747 78.5437 13.1826 78.7111 13.1501C79.0709 13.0804 79.4464 13.0556 79.8112 13.0822C80.1583 13.1075 80.5364 13.1047 80.7996 13.4384C80.8388 13.5791 80.8781 13.7198 80.9174 13.8606C80.9167 21.6179 80.916 29.3752 80.9153 37.1326C80.8974 37.1554 80.8701 37.1752 80.8631 37.2015C80.7174 37.7394 80.3478 37.8772 79.8857 37.8646C79.571 37.8561 79.256 37.8662 78.9412 37.8621C78.6183 37.858 78.2895 37.5976 78.2027 37.26C78.1797 37.1703 78.2328 37.0607 78.2292 36.9611C78.2198 36.6981 78.2046 36.435 78.1784 36.1735C78.1704 36.093 78.1299 35.961 78.0866 35.9518C78.0015 35.9338 77.8535 35.9519 77.8193 36.0133C77.4218 36.7247 76.7539 37.0805 76.1571 37.524C75.946 37.6809 75.6827 37.7544 75.443 37.8653C75.3592 37.904 75.2776 37.958 75.1901 37.9757C74.7621 38.0622 74.3348 38.183 73.903 38.2093C73.0753 38.2598 72.2369 38.2928 71.4315 38.0345C70.8356 37.8435 70.2623 37.5691 69.677 37.3371C69.6259 37.3168 69.5616 37.336 69.5034 37.3369C69.4582 37.2883 69.4128 37.2398 69.3678 37.1915C69.0494 36.9281 68.7308 36.6647 68.4122 36.4012C68.1467 36.0741 67.8517 35.7696 67.6223 35.4148C67.2436 34.8294 66.8688 34.234 66.6593 33.5432C66.4421 32.827 66.1973 32.1175 66.0325 31.3869C65.9261 30.9153 65.9179 30.4114 65.9081 29.921C65.8903 29.0226 65.8917 28.1231 65.91 27.2246C65.9175 26.8608 65.9579 26.4895 66.0401 26.1373C66.1948 25.4737 66.3907 24.8214 66.5695 24.1644C66.6082 24.0769 66.6454 23.9886 66.6859 23.902C66.8398 23.5733 66.9584 23.2141 67.1637 22.9291C67.2765 22.7725 67.3775 22.6613 67.3437 22.459L67.3412 22.4619C67.6891 22.2233 67.9542 21.9034 68.1368 21.5022C68.5152 21.1957 68.8767 20.86 69.2754 20.5892C70.0391 20.0707 70.8697 19.7049 71.7622 19.565C72.3335 19.4753 72.9176 19.4347 73.4943 19.4489C73.9933 19.4613 74.4962 19.5505 74.9858 19.665C75.3554 19.7515 75.7135 19.9142 76.0632 20.0774C76.2408 20.1602 76.3887 20.3188 76.5745 20.462C76.5741 20.462 76.649 20.4363 76.6833 20.4661C76.926 20.6769 77.1579 20.9024 77.3991 21.1154C77.4658 21.1743 77.5524 21.2067 77.63 21.2512ZM76.6075 34.0755L76.6145 34.0666C76.7005 34.0338 76.8096 34.0267 76.8682 33.9636C77.1006 33.7138 77.2804 33.4204 77.4552 33.1172C77.8159 32.4919 78.0107 31.8 78.1177 31.0916C78.2174 30.4308 78.232 29.7505 78.2377 29.0782C78.242 28.5584 78.15 28.0381 78.1457 27.5175C78.1407 26.9066 78.0967 26.3125 77.9175 25.7267C77.71 25.0486 77.4378 24.4287 76.9935 23.8835C76.7491 23.5835 76.504 23.3159 76.2097 23.0704C75.6781 22.6268 75.0872 22.3139 74.4474 22.249C73.5698 22.1599 72.6718 22.1586 71.8168 22.4729C71.4161 22.6202 71.0024 22.7855 70.6603 23.0453C70.3188 23.3047 70.0479 23.6818 69.7699 24.0298C69.6709 24.1539 69.6416 24.3442 69.5805 24.5043L69.5783 24.5155C69.5116 24.5646 69.4197 24.5973 69.3821 24.6656C69.01 25.3418 68.8123 26.0958 68.7006 26.8588C68.5967 27.5689 68.5859 28.2996 68.5831 29.0215C68.5808 29.6218 68.6426 30.2231 68.6909 30.8227C68.709 31.0476 68.7358 31.2841 68.8164 31.4883C69.0704 32.1312 69.3522 32.7611 69.6226 33.3964C69.675 33.5195 69.6985 33.6724 69.7807 33.7623C69.973 33.9722 70.197 34.147 70.4006 34.3452C71.0307 34.9585 71.7989 35.3069 72.6043 35.4046C73.3339 35.4931 74.0889 35.3639 74.8297 35.2928C75.0726 35.2694 75.3246 35.1632 75.5394 35.0309C75.8712 34.8264 76.1786 34.5729 76.4865 34.3256C76.5491 34.2754 76.5683 34.1606 76.6075 34.0755Z" fill="#A38F8F"/>
<path fill-rule="evenodd" clip-rule="evenodd" d="M96.2515 36.4628L96.228 36.4702C96.075 36.5685 95.9217 36.6663 95.7692 36.7654C95.7083 36.8049 95.6464 36.8861 95.5895 36.8814C95.3976 36.8657 95.3612 37.0005 95.3283 37.1519L95.3355 37.1493C95.0999 37.0525 94.9861 37.2866 94.8187 37.3752C94.3112 37.5481 93.8082 37.7391 93.2949 37.8883C92.8309 38.0231 92.3598 38.159 91.8843 38.2086C91.352 38.2643 90.8111 38.2301 90.2742 38.223C89.5807 38.2138 88.9093 38.043 88.2725 37.7681C87.7017 37.5216 87.1511 37.2303 86.6481 36.8118C86.029 36.2967 85.4948 35.7046 85.0392 35.0332C84.6367 34.4399 84.3005 33.7968 84.1196 33.0683C83.962 32.4341 83.7315 31.8195 83.602 31.1796C83.5038 30.6943 83.4776 30.1826 83.4831 29.6833C83.494 28.7193 83.4572 27.7581 83.5591 26.7887C83.6439 25.9828 83.8144 25.2091 84.0668 24.4729C84.3909 23.528 84.9093 22.6779 85.4982 21.8893C85.5443 21.8277 85.5531 21.7332 85.5793 21.6539C85.5931 21.6392 85.6069 21.6246 85.6208 21.6099C85.674 21.6027 85.7425 21.6163 85.7781 21.5853C86.2004 21.2167 86.6179 20.8414 87.0366 20.4679C87.4738 20.2722 87.9188 20.0945 88.3464 19.8764C88.9142 19.5869 89.5254 19.4871 90.1295 19.4524C90.9604 19.4046 91.7914 19.4084 92.622 19.6465C93.0176 19.7599 93.3969 19.9185 93.7884 20.038C93.9608 20.0906 94.122 20.1925 94.2826 20.2838C94.5286 20.4238 94.8032 20.5347 95.0005 20.7344C95.1211 20.8565 95.1952 20.9154 95.3414 20.862L95.3215 20.8662C95.3215 20.8662 95.3416 20.8638 95.3415 20.8639C95.3462 20.893 95.3416 20.9308 95.3569 20.9494C95.6 21.2461 95.8376 21.5489 96.0943 21.831C96.211 21.959 96.3666 22.0449 96.5046 22.15C96.5046 22.15 96.5079 22.1487 96.5078 22.1487C96.4671 22.342 96.5774 22.4135 96.7191 22.4597L96.7179 22.459C96.8145 22.7061 96.9019 22.9582 97.0102 23.1989C97.1206 23.4443 97.3022 23.6642 97.3636 23.9204C97.5118 24.5387 97.7821 25.1075 97.8592 25.7636C97.9221 26.2982 98.0607 26.8253 98.0478 27.3744C98.0476 28.0422 98.0474 28.7099 98.0472 29.3778C98.0102 29.4589 97.9731 29.5401 97.9361 29.6212C97.8988 29.6613 97.8615 29.7014 97.8242 29.7415C97.7871 29.7819 97.75 29.8224 97.713 29.8629C97.6737 29.901 97.6344 29.9392 97.5952 29.9774C97.5426 29.9805 97.4899 29.9835 97.4373 29.9865C96.799 29.9851 96.1606 29.9826 95.5222 29.9825C92.534 29.9822 89.5456 29.9813 86.5574 29.9875C86.4568 29.9877 86.3563 30.0604 86.2557 30.0993L86.2526 30.1026C86.0983 30.2709 86.0976 30.7966 86.2513 31.0749C86.2541 31.2753 86.2569 31.4757 86.2596 31.6761C86.2947 31.7592 86.3298 31.8423 86.365 31.9255C86.3662 31.9639 86.3674 32.0023 86.3686 32.0407C86.4033 32.1241 86.438 32.2074 86.4728 32.2907C86.476 32.3687 86.4791 32.4467 86.4823 32.5247C86.5176 32.567 86.553 32.6094 86.5883 32.6519C86.6629 32.8121 86.7375 32.9723 86.812 33.1325C86.9409 33.3678 87.0332 33.6438 87.207 33.829C87.4841 34.1245 87.794 34.4007 88.1292 34.6102C88.5654 34.8827 89.0225 35.154 89.5029 35.2924C89.9733 35.4278 90.4838 35.411 90.9777 35.4344C91.9681 35.4814 92.9018 35.2496 93.7577 34.6936C93.9021 34.5997 94.0244 34.4654 94.1569 34.3498C94.2245 34.3002 94.304 34.2625 94.3575 34.1987C94.5165 34.0093 94.6652 33.8097 94.818 33.614L94.8156 33.6167C95.0188 33.4959 95.2111 33.3123 95.4275 33.2677C95.8408 33.1825 96.2686 33.1419 96.689 33.1518C96.9088 33.157 97.1492 33.2691 97.3387 33.4029C97.6867 33.6486 97.6232 34.0401 97.5555 34.4142C97.5357 34.4761 97.5159 34.5379 97.4962 34.5998C97.4287 34.784 97.3611 34.9683 97.2935 35.1526L97.2808 35.1401C97.2808 35.1401 97.2912 35.1549 97.2911 35.1549C97.2461 35.1831 97.1908 35.2013 97.1581 35.2413C96.8723 35.5913 96.589 35.9439 96.3093 36.2998C96.2766 36.3415 96.2702 36.4079 96.2515 36.4628ZM86.6951 24.9467C86.6776 24.9674 86.6599 24.9881 86.6424 25.0087C86.5514 25.2328 86.4605 25.4569 86.3695 25.6811C86.3295 25.9817 86.2896 26.2822 86.2497 26.5828C86.2329 26.7058 86.2162 26.8288 86.1995 26.9519C86.1835 26.9915 86.1675 27.0311 86.1516 27.0707C86.1853 27.1126 86.219 27.1546 86.2527 27.1965C86.263 27.27 86.2732 27.3434 86.2909 27.4707C86.3356 27.377 86.351 27.3448 86.3663 27.3126C89.2479 27.3133 92.1294 27.315 95.011 27.3104C95.0946 27.3102 95.1781 27.2428 95.2617 27.2067C95.2999 27.1178 95.3657 27.0311 95.3718 26.9397C95.4069 26.408 95.3189 25.8984 95.1683 25.3885C94.9999 24.8178 94.8093 24.2782 94.3858 23.867C94.1283 23.617 93.9188 23.2899 93.6311 23.0989C93.0413 22.7074 92.4254 22.379 91.7068 22.3045C91.0638 22.2378 90.4392 22.1848 89.7934 22.3255C89.0037 22.4974 88.3224 22.8769 87.7037 23.409C87.3589 23.7055 87.0386 24.0373 86.9099 24.5234C86.7288 24.5985 86.6857 24.7568 86.6951 24.9467Z" fill="#A38F8F"/>
<path fill-rule="evenodd" clip-rule="evenodd" d="M127.114 37.7468C127.04 37.6858 126.965 37.6247 126.89 37.5637C126.905 37.5136 126.946 37.4384 126.93 37.4171C126.72 37.15 126.734 36.8324 126.741 36.5138C126.745 36.2932 126.753 36.0716 126.739 35.8521C126.73 35.716 126.681 35.5831 126.65 35.4487C126.538 35.5417 126.424 35.6318 126.315 35.7298C126.29 35.7524 126.294 35.8115 126.27 35.8372C126.097 36.0221 125.913 36.1964 125.747 36.3883C125.687 36.4564 125.667 36.5641 125.629 36.6538L125.631 36.6515C125.554 36.6734 125.464 36.6737 125.403 36.7205C124.877 37.1286 124.317 37.4324 123.692 37.6461C122.893 37.9191 122.082 38.0007 121.261 38.0399C120.574 38.0727 119.892 37.9964 119.236 37.7507C118.705 37.5522 118.122 37.4634 117.751 36.9203C117.729 36.8875 117.667 36.8896 117.628 36.8664C117.474 36.774 117.317 36.6852 117.169 36.5816C116.981 36.4495 116.8 36.3044 116.616 36.1649L116.617 36.1668C116.582 36.0696 116.57 35.9489 116.509 35.8788C115.944 35.2309 115.623 34.4383 115.524 33.5788C115.402 32.5153 115.538 31.4769 116.085 30.5358C116.43 29.9418 116.896 29.4877 117.401 29.0739C117.646 28.8726 117.917 28.7086 118.176 28.5277C118.684 28.3147 119.183 28.0744 119.701 27.8964C120.24 27.711 120.794 27.5739 121.346 27.4391C121.639 27.3675 121.943 27.351 122.24 27.3C122.654 27.2289 123.066 27.144 123.48 27.074C123.825 27.0158 124.171 26.9712 124.517 26.9194C124.979 26.8502 125.441 26.783 125.903 26.7089C126.108 26.676 126.312 26.6283 126.516 26.5873C126.679 26.6095 126.746 26.5424 126.741 26.3536C126.73 25.9338 126.745 25.5134 126.732 25.0937C126.729 24.983 126.667 24.8743 126.632 24.7647C126.629 24.6458 126.627 24.5268 126.625 24.4079C126.59 24.3243 126.555 24.2407 126.521 24.1571C126.517 24.0791 126.513 24.0011 126.51 23.9231C126.476 23.8799 126.443 23.8366 126.41 23.7934C126.408 23.7556 126.406 23.7179 126.404 23.6801C126.37 23.6359 126.336 23.5918 126.302 23.5476C126.299 23.5108 126.297 23.474 126.294 23.4371C126.275 23.3983 126.256 23.3595 126.237 23.3208C126.144 23.1981 126.052 23.0755 125.959 22.9529C125.923 22.9123 125.887 22.8718 125.85 22.8312L125.849 22.8294C125.811 22.7902 125.774 22.7509 125.737 22.7117C125.697 22.7143 125.657 22.7169 125.617 22.7196L125.618 22.7209C125.503 22.3945 125.248 22.2848 124.964 22.2211C124.907 22.1832 124.849 22.1454 124.791 22.1075C124.701 22.1018 124.611 22.0961 124.521 22.0903C124.5 22.0557 124.479 22.021 124.457 21.9864C123.859 21.9051 123.263 21.7973 122.663 21.7534C122.357 21.7311 122.045 21.8239 121.735 21.8647C121.658 21.9018 121.581 21.939 121.504 21.9762C121.433 21.9795 121.362 21.9827 121.291 21.9859C121.215 22.0237 121.138 22.0616 121.062 22.0995C121.027 22.1021 120.992 22.1046 120.957 22.1071C120.917 22.1446 120.878 22.1822 120.838 22.2198C120.803 22.222 120.769 22.2242 120.734 22.2265C120.254 22.4863 119.836 22.834 119.494 23.2837C119.449 23.3425 119.443 23.4361 119.419 23.5135L119.415 23.5109C119.342 23.5448 119.234 23.556 119.2 23.6165C119.031 23.9099 118.882 24.2166 118.726 24.5186C118.112 24.5043 117.498 24.4899 116.884 24.4756C116.868 24.4753 116.852 24.4724 116.837 24.467C116.828 24.4185 116.836 24.3514 116.81 24.3244C116.489 23.9972 116.578 23.5996 116.688 23.2349C116.987 22.2473 117.592 21.505 118.349 20.8947C118.432 20.8277 118.487 20.7198 118.555 20.631L118.55 20.6324C118.645 20.6171 118.752 20.6258 118.834 20.5817C119.076 20.4519 119.298 20.2702 119.549 20.1667C119.845 20.044 120.21 20.0572 120.46 19.874C120.787 19.6345 121.149 19.6219 121.483 19.5821C122.128 19.5056 122.785 19.5562 123.436 19.5531C124.181 19.5495 124.902 19.6237 125.626 19.8865C126.11 20.0619 126.58 20.2351 127.022 20.5073C127.125 20.5706 127.253 20.5845 127.37 20.6212L127.368 20.6234C127.432 20.7166 127.489 20.8165 127.561 20.9016C127.727 21.0974 127.896 21.2911 128.072 21.475C128.133 21.5388 128.222 21.5712 128.298 21.6179L128.296 21.616C128.31 21.6925 128.306 21.7805 128.34 21.8436C128.47 22.0818 128.626 22.3037 128.746 22.5468C128.908 22.8737 129.046 23.2145 129.194 23.5492C129.23 23.7079 129.267 23.8665 129.303 24.0252C129.338 24.4939 129.402 24.9627 129.403 25.4315C129.411 29.254 129.41 33.0765 129.402 36.8989C129.401 37.0873 129.34 37.2906 129.258 37.4586C129.202 37.5744 129.061 37.6414 128.958 37.7301C128.343 37.7357 127.729 37.7413 127.114 37.7468ZM123.888 35.193C124.015 35.1799 124.167 35.2111 124.264 35.1455C124.549 34.9524 124.826 34.7387 125.082 34.5013C125.847 33.7905 126.296 32.8681 126.512 31.811C126.692 30.9264 126.783 30.0302 126.74 29.1199C126.72 28.7028 126.709 28.6786 126.343 28.7581C126.272 28.7737 126.195 28.7608 126.122 28.7704C125.786 28.8144 125.449 28.8532 125.115 28.9096C124.467 29.0188 123.82 29.1333 123.174 29.2553C122.615 29.3609 122.056 29.4644 121.502 29.5981C121.062 29.7046 120.619 29.825 120.197 29.9958C119.835 30.1425 119.466 30.3219 119.162 30.5742C118.869 30.8166 118.634 31.1549 118.408 31.4796C117.913 32.1921 117.993 32.9823 118.254 33.7491C118.511 34.5082 119.067 34.9951 119.73 35.3036C120.227 35.5349 120.75 35.6695 121.307 35.7019C121.947 35.7392 122.579 35.7561 123.189 35.5447C123.414 35.4671 123.724 35.5332 123.849 35.2072L123.867 35.1927L123.888 35.193Z" fill="#A38F8F"/>
<path fill-rule="evenodd" clip-rule="evenodd" d="M48.448 20.0015C48.5855 19.9121 48.7229 19.8228 48.8602 19.7334C49.2916 19.7558 49.7229 19.7888 50.1546 19.798C50.7193 19.81 51.0002 20.1079 51.0002 20.7255C51.0004 26.1124 51.0003 31.4992 51.0001 36.8861C51.0001 37.5797 50.7421 37.8598 50.1043 37.8607C49.7896 37.8612 49.4742 37.8745 49.1605 37.856C48.9936 37.8461 48.8295 37.7806 48.6641 37.7401C48.4275 37.5913 48.3323 37.3581 48.3299 37.0709C48.3274 36.7685 48.3267 36.466 48.3253 36.1635C48.2931 36.056 48.2609 35.9485 48.2287 35.841C48.1986 35.8367 48.1685 35.8324 48.1385 35.8281C48.0029 36.018 47.888 36.2326 47.7273 36.3925C47.3838 36.7346 47.0166 37.0484 46.659 37.3738C46.4539 37.491 46.2544 37.6224 46.0425 37.7228C45.4519 38.0024 44.8291 38.1707 44.19 38.2132C43.6087 38.252 43.0233 38.2192 42.4397 38.2179C42.0064 38.0993 41.5579 38.0241 41.1438 37.8511C40.6234 37.6338 40.1122 37.3713 39.6328 37.0623C39.266 36.826 38.957 36.4842 38.6165 36.1975C38.5726 36.1607 38.4937 36.1733 38.4311 36.163L38.4328 36.1652C38.3854 36.0524 38.3514 35.9293 38.2877 35.8287C38.1179 35.5608 37.9086 35.319 37.7631 35.0372C37.3979 34.3297 37.0688 33.6029 36.9594 32.7837C36.9021 32.354 36.7746 31.927 36.7723 31.4982C36.7552 28.3481 36.7619 25.1979 36.761 22.0478C36.7609 21.5833 36.7702 21.1186 36.7583 20.6545C36.7423 20.0306 37.1161 19.7905 37.5473 19.7978C37.9177 19.804 38.2884 19.7979 38.659 19.7991C39.125 19.8006 39.4316 20.1378 39.4317 20.6522C39.4325 23.651 39.438 26.6497 39.4292 29.6484C39.4264 30.6292 39.4806 31.5987 39.7757 32.5314C39.849 32.763 40.002 32.9646 40.1183 33.18L40.1143 33.1947L40.1194 33.1802C40.2358 33.4396 40.3068 33.7439 40.4775 33.9497C40.9136 34.4751 41.4329 34.8739 42.0652 35.1158C42.5272 35.2925 42.9945 35.4081 43.4705 35.4236C44.0938 35.4439 44.7144 35.4829 45.3361 35.2248C45.685 35.0799 46.0144 34.9233 46.3294 34.715C46.4618 34.6293 46.6091 34.5622 46.7241 34.4545C47.2698 33.9437 47.681 33.3524 47.9272 32.5839C48.1647 31.8428 48.2968 31.0843 48.3121 30.3298C48.3598 27.9676 48.313 25.6034 48.3377 23.2404C48.3492 22.1611 48.2038 21.0723 48.448 20.0015Z" fill="#A38F8F"/>
<path fill-rule="evenodd" clip-rule="evenodd" d="M63.3415 13.6267C63.3516 13.6375 63.3541 13.65 63.3489 13.6644C63.3466 13.7047 63.3423 13.7449 63.3423 13.7852C63.3429 18.1559 63.3439 22.5267 63.3444 26.8975C63.3449 30.3698 63.3448 33.8421 63.3449 37.3143C63.1158 37.8134 62.7592 38.0482 62.2356 37.9965C61.9327 37.9665 61.6248 38.0036 61.3203 37.9854C60.9759 37.9649 60.7003 37.8088 60.571 37.4308C60.5689 37.1681 60.5648 36.9056 60.5648 36.6431C60.5645 29.4725 60.5647 22.3019 60.5648 15.1313C60.5648 14.7072 60.5612 14.2829 60.5659 13.8589C60.5691 13.5793 60.7801 13.2012 61.0026 13.155C61.4939 13.0527 61.9862 12.9048 62.4936 13.0962C62.681 13.1669 62.8866 13.1801 63.084 13.2195L63.0992 13.2323C63.1584 13.3822 63.2178 13.532 63.2771 13.6818C63.2985 13.6635 63.32 13.6451 63.3415 13.6267Z" fill="#A38F8F"/>
<path fill-rule="evenodd" clip-rule="evenodd" d="M109.502 22.3998C109.438 22.4437 109.373 22.4876 109.309 22.5314C109.203 22.5499 109.096 22.5834 108.99 22.5845C108.236 22.5916 107.482 22.5921 106.728 22.5947C106.313 22.6725 105.89 22.7148 105.488 22.8391C105.153 22.9425 104.782 23.0696 104.538 23.3164C104.185 23.6735 103.767 24.0109 103.631 24.5684C103.547 24.9081 103.467 25.2485 103.382 25.5877C103.328 25.8039 103.267 26.0181 103.213 26.2343C103.197 26.2969 103.182 26.3658 103.191 26.4279C103.21 26.5712 103.268 26.712 103.269 26.854C103.276 27.9033 103.273 28.9528 103.273 30.0021C103.273 32.2624 103.276 34.5226 103.268 36.7828C103.267 37.0893 103.258 37.4316 103.007 37.6351C102.858 37.7562 102.652 37.8285 102.465 37.8523C102.181 37.8883 101.892 37.8627 101.605 37.8632C101.493 37.8624 101.381 37.8616 101.27 37.8608C101.198 37.8585 101.127 37.8561 101.055 37.8537C101.015 37.7757 100.993 37.6621 100.932 37.626C100.699 37.4874 100.597 37.3029 100.598 37.0004C100.605 31.7341 100.602 26.4679 100.603 21.2016C100.603 21.0207 100.614 20.8396 100.622 20.6588C100.647 20.0985 100.878 19.8671 101.364 19.9122C101.391 19.9147 101.42 19.9091 101.445 19.8982C101.93 19.6852 102.413 19.7863 102.881 19.9514C103 19.9933 103.122 20.1867 103.151 20.3322C103.221 20.6767 103.23 21.0351 103.276 21.3858C103.287 21.4658 103.349 21.5378 103.387 21.6134C103.482 21.502 103.571 21.3829 103.675 21.2808C103.934 21.0238 104.2 20.7744 104.463 20.5219C104.477 20.5162 104.488 20.5062 104.496 20.492L104.504 20.4731C104.504 20.4731 104.523 20.4712 104.523 20.4713C104.729 20.3954 104.957 20.3571 105.139 20.2364C105.667 19.8851 106.261 19.8516 106.842 19.8119C107.533 19.7646 108.228 19.7924 108.921 19.8046C109.077 19.8074 109.232 19.8806 109.388 19.9214L109.39 19.9231C109.428 19.9625 109.465 20.0019 109.503 20.0413C109.541 20.0405 109.578 20.0398 109.616 20.039L109.615 20.0389C109.65 20.1879 109.726 20.341 109.714 20.4851C109.66 21.1252 109.91 21.8075 109.502 22.3998Z" fill="#A38F8F"/>
<path fill-rule="evenodd" clip-rule="evenodd" d="M56.9059 19.8652C57.1973 20.0816 57.2716 20.4018 57.2714 20.761C57.2702 22.4958 57.2704 24.2308 57.2704 25.9657C57.2705 29.5969 57.2698 33.2281 57.2724 36.8593C57.2727 37.2192 57.2027 37.5406 56.9338 37.7763C56.8697 37.8326 56.7973 37.9015 56.7216 37.9142C56.0924 38.0204 55.4622 38.0767 54.8364 37.8823C54.8486 37.8575 54.8749 37.8143 54.8713 37.811C54.7297 37.6853 54.5854 37.5633 54.4414 37.4408L54.4438 37.4426C54.4462 37.3923 54.4509 37.342 54.4509 37.2917C54.4503 31.7818 54.4494 26.2718 54.4485 20.7619C54.4485 20.671 54.4451 20.5799 54.451 20.4895C54.4744 20.1312 54.7412 19.7947 55.0641 19.8098C55.6371 19.8366 56.2221 19.6667 56.7847 19.9141C56.8143 19.9271 56.865 19.8828 56.9059 19.8652Z" fill="#A38F8F"/>
<path fill-rule="evenodd" clip-rule="evenodd" d="M54.2303 13.334C54.436 13.0309 54.7214 12.9468 55.053 12.9535C55.5789 12.9642 56.1053 12.9529 56.6314 12.9574C57.2365 12.9626 57.5921 13.3519 57.5939 14.0121C57.5955 14.6258 57.5919 15.2395 57.5858 15.8532C57.5818 16.2647 57.4493 16.5979 57.0817 16.7761C56.2449 16.7715 55.4082 16.7669 54.5714 16.7622C54.5326 16.7078 54.5022 16.6414 54.4537 16.6006C54.1718 16.3639 54.0862 16.0543 54.1103 15.6751C54.1598 14.8955 54.017 14.1041 54.2303 13.334Z" fill="#A38F8F"/>
<path fill-rule="evenodd" clip-rule="evenodd" d="M132.413 13.3659C132.528 13.019 132.767 12.8591 133.092 12.8552C133.711 12.848 134.33 12.8437 134.949 12.8571C135.432 12.8677 135.737 13.2156 135.743 13.746C135.75 14.3301 135.75 14.9144 135.743 15.4986C135.736 15.9971 135.434 16.3302 134.973 16.3383C134.354 16.3492 133.734 16.3476 133.115 16.3399C132.797 16.336 132.545 16.1937 132.416 15.854C132.415 15.0246 132.414 14.1952 132.413 13.3659Z" fill="#A38F8F"/>
<path fill-rule="evenodd" clip-rule="evenodd" d="M27.0155 37.9141C26.5179 37.9489 26.0203 38.0126 25.5227 38.0138C21.9701 38.022 18.4175 38.0177 14.8649 38.0153C14.7765 38.0152 14.688 37.9904 14.5996 37.9772C14.6105 37.8788 14.6307 37.7805 14.6307 37.6821C14.6323 32.633 14.6318 27.584 14.6323 22.5348C14.6328 18.0714 14.6344 13.608 14.6354 9.14456C14.8574 9.14323 15.0793 9.1419 15.3012 9.14062C15.4079 9.1579 15.5145 9.19026 15.6211 9.19038C18.8267 9.19299 22.0321 9.19281 25.2376 9.19044C25.3359 9.19038 25.4342 9.16196 25.5325 9.14675C25.8144 9.16463 26.0963 9.18257 26.3784 9.20044C26.3679 9.20941 26.3571 9.21844 26.3463 9.22741C26.3892 9.22335 26.432 9.21923 26.4747 9.21511C26.8946 9.29142 27.3145 9.36772 27.7344 9.44397C27.7234 9.46172 27.7123 9.47942 27.7012 9.49712C27.5716 9.4953 27.4402 9.50766 27.3125 9.48912C26.8115 9.41627 26.312 9.26796 25.8113 9.26523C22.1978 9.24529 18.5839 9.25535 14.9701 9.25057C14.7628 9.25026 14.6848 9.34584 14.6861 9.5556C14.6876 9.80282 14.686 10.0501 14.686 10.2973C14.686 19.134 14.686 27.9707 14.686 36.8073C14.686 37.0546 14.6875 37.3018 14.6861 37.5491C14.6845 37.8246 14.8381 37.9557 15.1077 37.9201C15.3083 37.8937 15.5106 37.8669 15.7122 37.8667C19.1592 37.8633 22.6062 37.868 26.0532 37.8592C26.4566 37.8581 26.8624 37.8084 27.2625 37.746C27.6481 37.686 28.0322 37.5983 28.4088 37.4896C28.7796 37.3825 29.1552 37.2692 29.5007 37.0931C29.8257 36.9276 30.1106 36.6704 30.4202 36.4662C30.5422 36.3857 30.7148 36.3739 30.8094 36.2708C31.0332 36.0274 31.2769 35.8186 31.5198 35.6016C31.8355 35.3197 32.0918 34.9365 32.3111 34.5543C32.5715 34.1005 32.7857 33.6108 32.9806 33.1181C33.0971 32.8237 33.1381 32.4936 33.2135 32.1798C33.2226 32.1417 33.2256 32.0974 33.2459 32.0676C33.521 31.6638 33.4973 31.1614 33.5169 30.7192C33.562 29.6988 33.5994 28.675 33.3431 27.6544C33.2012 27.0896 32.9354 26.6027 32.7545 26.0682C32.6869 25.8683 32.554 25.6897 32.431 25.5182C32.1731 25.1585 31.9417 24.7586 31.6267 24.4693C31.1985 24.0762 30.7046 23.7672 30.2343 23.4295C29.8957 23.1863 29.8795 23.1647 30.2576 22.9489C30.9544 22.5514 31.4664 21.9294 31.9574 21.2964C32.2424 20.9289 32.4294 20.4688 32.6482 20.0428C33.0024 19.3529 33.1124 18.5721 33.1802 17.8159C33.248 17.0597 33.1285 16.2832 33.0847 15.516C33.0803 15.4403 33.0253 15.3695 33.0027 15.2933C32.9567 15.1376 32.8866 14.9812 32.8798 14.8223C32.8557 14.2649 32.5801 13.8125 32.3766 13.332C32.2733 13.088 32.1225 12.8671 31.9871 12.64C31.8262 12.3702 31.6979 12.0581 31.4856 11.8483C31.1271 11.4938 30.7405 11.1735 30.4243 10.7691C30.4242 10.7461 30.424 10.7231 30.4238 10.7002C31.9192 11.7909 32.7733 13.3454 33.1302 15.2343C33.4592 16.9755 33.4143 18.691 32.6558 20.3162C32.1098 21.486 31.3359 22.4297 30.2825 23.0865C30.229 23.1198 30.1822 23.1658 30.1896 23.1599C30.7699 23.6486 31.3971 24.0885 31.9257 24.6406C32.9465 25.7068 33.4636 27.0658 33.6215 28.5867C33.8065 30.3678 33.6277 32.0997 32.8973 33.7206C31.8894 35.9568 30.1645 37.1855 27.9875 37.7384C27.709 37.8091 27.4226 37.8427 27.1398 37.8935C27.0983 37.9004 27.0569 37.9072 27.0155 37.9141Z" fill="#A38F8F"/>
<path fill-rule="evenodd" clip-rule="evenodd" d="M40.1194 33.1801C40.0031 32.9647 39.8501 32.7631 39.7768 32.5315C39.4816 31.5987 39.4275 30.6292 39.4303 29.6485C39.4392 26.6498 39.4336 23.6511 39.4328 20.6523C39.4327 20.1379 39.1261 19.8007 38.6601 19.7992C38.2895 19.7979 37.9188 19.8041 37.5484 19.7979C37.1172 19.7906 36.7434 20.0307 36.7594 20.6546C36.7712 21.1187 36.762 21.5834 36.7621 22.0479C36.763 25.1981 36.7563 28.3482 36.7734 31.4983C36.7758 31.9271 36.9032 32.3541 36.9605 32.7838C37.0699 33.603 37.399 34.3298 37.7642 35.0373C37.9096 35.319 38.119 35.5609 38.2888 35.8288C38.3525 35.9294 38.3864 36.0524 38.4339 36.1653C37.7567 35.4548 37.3331 34.5784 37.046 33.6171C36.7455 32.6109 36.6067 31.5763 36.6074 30.5176C36.6097 27.2958 36.608 24.074 36.6082 20.8521C36.6083 20.0057 36.9291 19.6564 37.7045 19.6562C37.9918 19.656 38.2791 19.6545 38.5664 19.6567C39.1961 19.6617 39.5473 20.0422 39.5477 20.7297C39.5492 23.7192 39.5564 26.7088 39.5442 29.6983C39.5392 30.9017 39.6755 32.0689 40.1194 33.1801Z" fill="#A38F8F"/>
<path fill-rule="evenodd" clip-rule="evenodd" d="M103.388 21.6134C103.349 21.5378 103.287 21.4658 103.277 21.3858C103.231 21.0351 103.221 20.6767 103.152 20.3322C103.122 20.1867 103 19.9933 102.882 19.9514C102.414 19.7863 101.931 19.6852 101.446 19.8982C101.421 19.9091 101.391 19.9147 101.365 19.9122C100.879 19.8671 100.648 20.0985 100.623 20.6588C100.614 20.8396 100.604 21.0207 100.604 21.2016C100.603 26.4679 100.605 31.7341 100.598 37.0004C100.598 37.3029 100.699 37.4874 100.933 37.626C100.994 37.6621 101.016 37.7757 101.056 37.8538C101.024 37.8605 100.993 37.8671 100.961 37.8738C100.631 37.7249 100.503 37.4295 100.481 37.0663C100.469 36.8653 100.477 36.6629 100.477 36.461C100.477 31.2242 100.482 25.9873 100.474 20.7503C100.473 20.1647 100.742 19.6569 101.483 19.66C101.807 19.6614 102.131 19.6719 102.455 19.6571C103 19.6322 103.429 20.1436 103.4 20.676C103.382 20.9875 103.391 21.3009 103.388 21.6134Z" fill="#A38F8F"/>
<path fill-rule="evenodd" clip-rule="evenodd" d="M85.5793 21.6538C85.5532 21.7331 85.5443 21.8276 85.4983 21.8893C84.9094 22.6778 84.3909 23.528 84.0669 24.4728C83.8144 25.2089 83.644 25.9828 83.5592 26.7887C83.4572 27.7581 83.4941 28.7192 83.4832 29.6833C83.4776 30.1824 83.5038 30.6943 83.6021 31.1795C83.7315 31.8194 83.9621 32.434 84.1196 33.0682C84.3006 33.7968 84.6368 34.4399 85.0393 35.0331C85.4948 35.7045 86.029 36.2966 86.6482 36.8117C87.1512 37.2302 87.7017 37.5216 88.2725 37.768C88.9094 38.043 89.5808 38.2137 90.2742 38.2229C90.8112 38.23 91.3521 38.2642 91.8844 38.2086C92.3599 38.1589 92.8309 38.023 93.2949 37.8882C93.8082 37.739 94.3113 37.548 94.8188 37.3751C94.8327 37.3939 94.8467 37.4126 94.8607 37.4314C93.8624 37.9891 92.7869 38.2236 91.6812 38.3212C89.7803 38.4889 88.0082 38.1091 86.4595 36.8208C85.2372 35.8041 84.3754 34.4889 83.9143 32.901C83.1063 30.1188 83.0794 27.3161 83.9426 24.5388C84.2808 23.4504 84.8274 22.4764 85.5793 21.6538Z" fill="#A38F8F"/>
<path fill-rule="evenodd" clip-rule="evenodd" d="M69.5029 37.3367C69.5611 37.3358 69.6254 37.3167 69.6765 37.337C70.2617 37.5689 70.8351 37.8433 71.4311 38.0344C72.2364 38.2927 73.0749 38.2597 73.9025 38.2091C74.3343 38.1827 74.7616 38.0619 75.1896 37.9755C75.2771 37.9578 75.3587 37.9038 75.4426 37.8651C75.6822 37.7542 75.9455 37.6807 76.1566 37.5239C76.7533 37.0804 77.4213 36.7246 77.8188 36.0131C77.853 35.9518 78.0009 35.9336 78.0861 35.9517C78.1294 35.9608 78.1699 36.0928 78.1779 36.1733C78.2041 36.4348 78.2193 36.698 78.2287 36.961C78.2323 37.0605 78.1792 37.1701 78.2022 37.2598C78.289 37.5974 78.6179 37.8578 78.9407 37.8619C79.2555 37.866 79.5706 37.8559 79.8852 37.8645C80.3474 37.877 80.7169 37.7392 80.8626 37.2014C80.8697 37.1751 80.8969 37.1553 80.9148 37.1324C80.9235 37.1359 80.9324 37.1424 80.9409 37.1419C80.9478 37.1414 80.9598 37.1329 80.96 37.1273C80.9644 37.0478 80.9699 36.9682 80.9699 36.8887C80.9703 29.3175 80.9706 21.7464 80.9681 14.1753C80.9681 14.0704 80.9347 13.9654 80.9169 13.8604C80.8777 13.7197 80.8384 13.579 80.7992 13.4382L80.8258 13.438L80.8523 13.4386C80.8975 13.6501 80.9818 13.8615 80.9821 14.073C80.9895 20.2143 80.9885 26.3557 80.9887 32.4971C80.9887 33.9718 80.9894 35.4466 80.9875 36.9213C80.9866 37.6074 80.6372 37.9914 80.0103 37.9972C79.6581 38.0005 79.3058 38.0032 78.9538 37.9947C78.4288 37.9819 78.0678 37.5881 78.0549 37.0168C78.048 36.7157 78.0537 36.4143 78.0537 36.0694C77.9843 36.1146 77.9422 36.1289 77.9177 36.1598C76.819 37.5441 75.4182 38.224 73.7528 38.3276C72.3557 38.4145 71.0187 38.1998 69.7612 37.5055C69.6719 37.4562 69.5888 37.3933 69.5029 37.3367Z" fill="#A38F8F"/>
<path fill-rule="evenodd" clip-rule="evenodd" d="M48.6641 37.7402C48.8294 37.7807 48.9936 37.8462 49.1605 37.8561C49.4742 37.8746 49.7896 37.8612 50.1043 37.8607C50.7421 37.8598 51.0001 37.5798 51.0001 36.8862C51.0003 31.4993 51.0004 26.1125 51.0002 20.7256C51.0002 20.108 50.7193 19.8101 50.1546 19.7981C49.7229 19.7889 49.2915 19.7559 48.8602 19.7335C48.9364 19.7094 49.0122 19.666 49.0886 19.6644C49.4775 19.6569 49.8668 19.6506 50.2555 19.662C50.7636 19.6769 51.1148 20.0657 51.1355 20.6197C51.1412 20.7708 51.1366 20.9225 51.1366 21.0739C51.1365 26.3432 51.1357 31.6125 51.1383 36.8819C51.1384 37.1968 51.1058 37.5072 50.8706 37.7061C50.7115 37.8406 50.5014 37.9558 50.3054 37.9753C49.892 38.0164 49.4726 37.9995 49.0563 37.9835C48.9249 37.9785 48.7959 37.9005 48.6657 37.8559C48.6652 37.8174 48.6646 37.7788 48.6641 37.7402Z" fill="#A38F8F"/>
<path fill-rule="evenodd" clip-rule="evenodd" d="M101.605 37.8633C101.892 37.8628 102.182 37.8884 102.465 37.8524C102.652 37.8285 102.858 37.7563 103.007 37.6352C103.258 37.4317 103.267 37.0894 103.268 36.7829C103.277 34.5227 103.273 32.2625 103.273 30.0022C103.273 28.9529 103.276 27.9034 103.269 26.8541C103.268 26.712 103.211 26.5713 103.191 26.428C103.183 26.3659 103.198 26.2969 103.213 26.2344C103.267 26.0181 103.328 25.804 103.382 25.5878C103.467 25.2485 103.548 24.9082 103.631 24.5685C103.767 24.011 104.185 23.6735 104.538 23.3164C104.782 23.0697 105.153 22.9426 105.488 22.8392C105.89 22.7149 106.314 22.6726 106.728 22.5947C106.816 22.6113 106.904 22.6421 106.993 22.6425C107.725 22.6466 108.457 22.6451 109.189 22.6453C109.053 22.6639 108.918 22.6942 108.782 22.699C107.895 22.7306 107 22.6868 106.122 22.8001C104.675 22.9866 103.784 23.9462 103.512 25.4992C103.436 25.9323 103.406 26.3811 103.405 26.8228C103.397 30.1426 103.401 33.4625 103.401 36.7823C103.401 36.9032 103.403 37.0252 103.391 37.1449C103.344 37.5972 103.024 37.9575 102.607 37.9834C102.239 38.0063 101.869 37.983 101.499 37.98C101.534 37.9411 101.569 37.9022 101.605 37.8633Z" fill="#A38F8F"/>
<path fill-rule="evenodd" clip-rule="evenodd" d="M63.0834 13.2197C62.8861 13.1803 62.6805 13.167 62.493 13.0963C61.9856 12.9049 61.4933 13.0529 61.002 13.1551C60.7795 13.2014 60.5685 13.5794 60.5654 13.859C60.5606 14.2831 60.5642 14.7073 60.5642 15.1315C60.5642 22.302 60.564 29.4726 60.5643 36.6432C60.5643 36.9058 60.5683 37.1683 60.5705 37.4309C60.534 37.2701 60.4654 37.1092 60.4653 36.9483C60.4601 29.2998 60.4604 21.6512 60.4619 14.0028C60.462 13.3581 60.8261 12.961 61.4097 12.9557C61.7708 12.9524 62.1348 12.925 62.4918 12.9668C62.6951 12.9905 62.8866 13.1315 63.0834 13.2197Z" fill="#A38F8F"/>
<path fill-rule="evenodd" clip-rule="evenodd" d="M135.467 20.4072C135.474 20.507 135.487 20.6069 135.487 20.7067C135.488 26.0675 135.488 31.4283 135.488 36.7891C135.488 37.5835 135.258 37.8316 134.521 37.8352C134.132 37.8371 133.743 37.8421 133.354 37.8325C132.863 37.8204 132.576 37.5083 132.576 36.9776C132.574 31.5159 132.573 26.0542 132.581 20.5924C132.581 20.4074 132.684 20.2225 132.739 20.0376L132.756 20.0451C132.716 20.2683 132.641 20.4914 132.641 20.7146C132.635 26.0952 132.634 31.4759 132.639 36.8564C132.64 37.4156 132.923 37.7581 133.457 37.7444C133.846 37.7345 134.235 37.7424 134.624 37.7402C135.088 37.7376 135.285 37.5709 135.418 37.0737C135.432 36.9568 135.459 36.8399 135.459 36.723C135.461 31.4071 135.461 26.0913 135.46 20.7755C135.46 20.6548 135.452 20.534 135.448 20.4132L135.467 20.4072Z" fill="#A38F8F"/>
<path fill-rule="evenodd" clip-rule="evenodd" d="M56.9054 19.8652C56.8646 19.8828 56.8138 19.927 56.7843 19.9141C56.2216 19.6667 55.6367 19.8366 55.0636 19.8098C54.7407 19.7947 54.4739 20.1312 54.4506 20.4895C54.4447 20.5798 54.448 20.671 54.4481 20.7618C54.4489 26.2718 54.4499 31.7817 54.4505 37.2917C54.4505 37.342 54.4459 37.3923 54.4434 37.4426C54.407 37.2808 54.3391 37.1191 54.3389 36.9572C54.3332 31.5358 54.3332 26.1144 54.3351 20.693C54.3354 20.0569 54.6845 19.6675 55.2624 19.659C55.6592 19.6532 56.0564 19.6727 56.4533 19.6809C56.4487 19.6964 56.4441 19.7118 56.4395 19.7273C56.4785 19.7161 56.5174 19.705 56.5563 19.6938C56.6727 19.751 56.7891 19.8081 56.9054 19.8652Z" fill="#A38F8F"/>
<path fill-rule="evenodd" clip-rule="evenodd" d="M66.5691 24.1646C66.3903 24.8216 66.1944 25.4739 66.0396 26.1375C65.9575 26.4897 65.9171 26.861 65.9096 27.2248C65.8913 28.1233 65.8899 29.0227 65.9077 29.9212C65.9175 30.4115 65.9257 30.9154 66.0321 31.3871C66.1969 32.1177 66.4417 32.8272 66.6589 33.5434C66.8684 34.2341 67.2433 34.8296 67.6219 35.415C67.8513 35.7698 68.1462 36.0743 68.4117 36.4014C68.3942 36.4123 68.3768 36.423 68.3594 36.4339C67.4353 35.5582 66.8208 34.4575 66.39 33.222C65.8122 31.5651 65.7164 29.84 65.7633 28.0919C65.7974 26.8205 65.9746 25.5798 66.3838 24.3843C66.4224 24.2716 66.4718 24.1632 66.5161 24.0527C66.5339 24.0901 66.5515 24.1273 66.5691 24.1646Z" fill="#A38F8F"/>
<path fill-rule="evenodd" clip-rule="evenodd" d="M111.759 37.8322C111.388 37.8322 111.017 37.8408 110.647 37.83C110.201 37.817 109.913 37.5178 109.905 37.0317C109.892 36.2241 109.892 35.4159 109.905 34.6083C109.912 34.0941 110.233 33.7601 110.7 33.7559C111.414 33.7495 112.127 33.7487 112.841 33.7573C113.304 33.7629 113.613 34.0855 113.621 34.5894C113.634 35.4072 113.632 36.2254 113.622 37.0432C113.616 37.5022 113.324 37.8156 112.898 37.831C112.519 37.8448 112.138 37.8339 111.759 37.8339C111.759 37.8334 111.759 37.8328 111.759 37.8322ZM112.95 37.7327C113.005 37.6926 113.055 37.6411 113.115 37.6142C113.368 37.5008 113.504 37.2994 113.505 37.002C113.508 36.2355 113.511 35.4688 113.504 34.7023C113.499 34.1901 113.225 33.8715 112.772 33.8643C112.078 33.8533 111.383 33.8557 110.689 33.8655C110.369 33.8699 110.091 34.1372 110.057 34.4819C110.032 34.7355 110.053 34.9945 110.053 35.2511C110.053 35.8563 110.062 36.4618 110.05 37.0666C110.044 37.3532 110.182 37.5039 110.39 37.622C110.432 37.6463 110.464 37.6942 110.501 37.7313C110.506 37.7391 110.512 37.7537 110.518 37.7538C111.344 37.7633 112.171 37.7716 112.997 37.7801C112.99 37.7671 112.985 37.7524 112.976 37.7417C112.97 37.7354 112.959 37.7355 112.95 37.7327Z" fill="#A38F8F"/>
<path fill-rule="evenodd" clip-rule="evenodd" d="M48.4485 20.0015C48.2043 21.0723 48.3497 22.161 48.3384 23.2404C48.3136 25.6034 48.3605 27.9676 48.3128 30.3298C48.2975 31.0843 48.1653 31.8428 47.9279 32.584C47.6816 33.3526 47.2705 33.9438 46.7248 34.4546C46.6097 34.5623 46.4625 34.6293 46.3301 34.715C46.3302 34.6816 46.3305 34.6483 46.3306 34.6151C47.4119 33.8573 47.9187 32.7187 48.1025 31.3827C48.1722 30.8761 48.2057 30.359 48.2073 29.8466C48.2168 26.821 48.2122 23.7952 48.2119 20.7695C48.2119 20.4842 48.2218 20.2034 48.4485 20.0015Z" fill="#A38F8F"/>
<path fill-rule="evenodd" clip-rule="evenodd" d="M77.6304 21.2513C77.5528 21.2068 77.4662 21.1744 77.3994 21.1155C77.1582 20.9025 76.9263 20.677 76.6836 20.4662C76.6493 20.4364 76.5744 20.4621 76.5747 20.4621C76.389 20.3189 76.2411 20.1603 76.0635 20.0774C75.7138 19.9143 75.3557 19.7516 74.9861 19.665C74.4965 19.5505 73.9936 19.4613 73.4946 19.449C72.9179 19.4348 72.3337 19.4754 71.7625 19.565C70.87 19.705 70.0394 20.0708 69.2757 20.5893C68.877 20.8601 68.5155 21.1958 68.137 21.5022C68.1173 21.5011 68.0978 21.4999 68.0781 21.4987C68.7781 20.687 69.6283 20.1265 70.5868 19.7666C72.263 19.1372 73.9523 19.1169 75.6322 19.74C76.3328 19.9998 76.9344 20.461 77.4726 21.0141C77.5366 21.08 77.5783 21.1716 77.6304 21.2513Z" fill="#A38F8F"/>
<path fill-rule="evenodd" clip-rule="evenodd" d="M126.51 23.923C126.513 24.001 126.517 24.079 126.521 24.157C126.555 24.2407 126.59 24.3242 126.625 24.4078C126.627 24.5267 126.629 24.6456 126.632 24.7645C126.631 25.2566 126.638 25.7489 126.625 26.2406C126.622 26.3572 126.554 26.4717 126.516 26.5873C126.312 26.6283 126.108 26.6759 125.903 26.7088C125.442 26.783 124.979 26.8502 124.517 26.9194C124.171 26.9711 123.825 27.0157 123.48 27.0739C123.066 27.1439 122.654 27.2288 122.24 27.2999C121.943 27.351 121.639 27.3675 121.346 27.439C120.794 27.5739 120.24 27.711 119.701 27.8964C119.183 28.0744 118.684 28.3146 118.177 28.5276C118.147 28.5089 118.118 28.4904 118.088 28.4718C118.986 27.899 119.966 27.5548 120.979 27.3708C122.731 27.053 124.493 26.8011 126.251 26.5211C126.359 26.5039 126.467 26.4836 126.585 26.4628C126.622 25.5044 126.641 24.5702 126.293 23.6799L126.304 23.6689C126.337 23.6727 126.371 23.6764 126.404 23.6802C126.406 23.7179 126.408 23.7557 126.41 23.7935C126.443 23.8366 126.477 23.8798 126.51 23.923Z" fill="#A38F8F"/>
<path fill-rule="evenodd" clip-rule="evenodd" d="M14.6347 9.14453C14.6335 13.608 14.632 18.0713 14.6315 22.5348C14.631 27.5839 14.6315 32.633 14.6299 37.6821C14.6299 37.7805 14.6097 37.8788 14.5988 37.9771C14.5905 37.8574 14.5748 37.7379 14.5748 37.6182C14.5738 28.247 14.5738 18.8758 14.5767 9.50454C14.5767 9.38448 14.6145 9.26453 14.6347 9.14453Z" fill="#A38F8F"/>
<path fill-rule="evenodd" clip-rule="evenodd" d="M128.958 37.73C129.061 37.6413 129.202 37.5744 129.258 37.4585C129.34 37.2905 129.402 37.0873 129.402 36.8989C129.41 33.0764 129.412 29.2539 129.403 25.4315C129.402 24.9626 129.338 24.4939 129.303 24.0251C129.339 24.1113 129.398 24.1945 129.407 24.284C129.454 24.7144 129.519 25.1463 129.52 25.5778C129.529 29.353 129.526 33.1283 129.525 36.9035C129.525 37.3799 129.397 37.5993 129.04 37.7486C129.013 37.7424 128.986 37.7362 128.958 37.73Z" fill="#A38F8F"/>
<path fill-rule="evenodd" clip-rule="evenodd" d="M127.37 20.6212C127.254 20.5845 127.125 20.5706 127.022 20.5073C126.58 20.2351 126.11 20.0618 125.626 19.8865C124.902 19.6237 124.181 19.5495 123.436 19.5531C122.785 19.5562 122.128 19.5057 121.483 19.5821C121.149 19.6219 120.787 19.6346 120.46 19.874C120.21 20.0572 119.845 20.044 119.549 20.1667C119.299 20.2702 119.077 20.4519 118.834 20.5817C118.752 20.6259 118.645 20.6171 118.55 20.6324C119.25 20.0772 120.039 19.7365 120.883 19.5689C122.716 19.2043 124.534 19.2547 126.298 19.9736C126.677 20.1279 127.014 20.4022 127.37 20.6212Z" fill="#A38F8F"/>
<path fill-rule="evenodd" clip-rule="evenodd" d="M116.616 36.1646C116.8 36.3041 116.981 36.4492 117.17 36.5813C117.318 36.6849 117.474 36.7737 117.629 36.8661C117.668 36.8893 117.729 36.8872 117.752 36.92C118.122 37.4631 118.706 37.5519 119.236 37.7504C119.893 37.9961 120.575 38.0724 121.262 38.0396C122.083 38.0003 122.893 37.9188 123.692 37.6457C124.318 37.432 124.878 37.1283 125.404 36.7201C125.464 36.6734 125.555 36.6731 125.631 36.6512C125.022 37.2369 124.313 37.6265 123.531 37.8336C122.024 38.2327 120.51 38.334 119.005 37.8059C118.183 37.5172 117.452 37.0504 116.816 36.4104C116.743 36.3364 116.682 36.2469 116.616 36.1646Z" fill="#A38F8F"/>
<path fill-rule="evenodd" clip-rule="evenodd" d="M95.341 20.8622C95.1947 20.9155 95.1207 20.8566 95 20.7345C94.8027 20.5348 94.5282 20.4239 94.2822 20.284C94.1216 20.1927 93.9604 20.0908 93.788 20.0382C93.3965 19.9186 93.0172 19.76 92.6216 19.6466C91.7909 19.4086 90.9599 19.4047 90.129 19.4525C89.525 19.4872 88.9137 19.587 88.346 19.8765C87.9184 20.0947 87.4734 20.2724 87.0361 20.4681C87.0198 20.4486 87.0036 20.4291 86.9873 20.4097C87.6921 19.8948 88.4781 19.594 89.3052 19.4455C91.3089 19.0859 93.2208 19.3414 94.9705 20.5504C95.1017 20.641 95.2178 20.7576 95.341 20.8622Z" fill="#A38F8F"/>
<path fill-rule="evenodd" clip-rule="evenodd" d="M63.3444 37.3145C63.3443 33.8422 63.3444 30.37 63.3439 26.8977C63.3434 22.5269 63.3424 18.1562 63.3418 13.7853C63.3418 13.7451 63.3461 13.7049 63.3484 13.6646C63.3668 13.7912 63.4012 13.918 63.4013 14.0447C63.4039 21.675 63.404 29.3053 63.4014 36.9356C63.4013 37.062 63.3642 37.1882 63.3444 37.3145Z" fill="#A38F8F"/>
<path fill-rule="evenodd" clip-rule="evenodd" d="M118.088 28.4717C118.117 28.4903 118.147 28.5088 118.177 28.5275C117.917 28.7084 117.646 28.8724 117.401 29.0737C116.896 29.4875 116.43 29.9417 116.085 30.5357C115.538 31.4768 115.402 32.5152 115.524 33.5786C115.624 34.4382 115.944 35.2307 116.509 35.8786C116.57 35.9487 116.583 36.0694 116.618 36.1666C115.649 35.1308 115.274 33.8616 115.401 32.4096C115.549 30.7241 116.428 29.5646 117.699 28.6996C117.823 28.6147 117.958 28.5473 118.088 28.4717Z" fill="#A38F8F"/>
<path fill-rule="evenodd" clip-rule="evenodd" d="M94.1564 34.3499C94.0239 34.4655 93.9016 34.5998 93.7572 34.6937C92.9012 35.2497 91.9676 35.4815 90.9772 35.4346C90.4833 35.4111 89.9728 35.428 89.5024 35.2925C89.022 35.1541 88.5649 34.8829 88.1287 34.6104C87.7935 34.4008 87.4836 34.1247 87.2065 33.8291C87.0327 33.6439 86.9404 33.3679 86.8115 33.1326C86.845 33.1338 86.8784 33.135 86.912 33.1362C88.0244 34.8605 89.5883 35.4417 91.4548 35.2961C92.408 35.2216 93.2923 34.9613 94.0684 34.3334C94.0978 34.3389 94.1271 34.3444 94.1564 34.3499Z" fill="#A38F8F"/>
<path fill-rule="evenodd" clip-rule="evenodd" d="M46.3307 34.6152C46.3305 34.6485 46.3303 34.6818 46.3301 34.7152C46.0151 34.9236 45.6858 35.0802 45.3368 35.225C44.7151 35.4831 44.0945 35.4441 43.4712 35.4238C42.9952 35.4083 42.5279 35.2928 42.0659 35.116C41.4336 34.8742 40.9143 34.4754 40.4782 33.9499C40.3075 33.7441 40.2365 33.4398 40.1201 33.1804C40.4602 33.7675 40.8598 34.2876 41.4145 34.6558C41.884 34.9675 42.3939 35.1416 42.929 35.2253C44.1194 35.4117 45.2712 35.3105 46.3307 34.6152Z" fill="#A38F8F"/>
<path fill-rule="evenodd" clip-rule="evenodd" d="M97.9366 29.6215C97.9736 29.5403 98.0106 29.4592 98.0476 29.378C98.0834 29.3771 98.1191 29.3763 98.1548 29.3755C98.0534 29.8591 97.7396 30.1276 97.2651 30.1285C96.3027 30.1303 95.3404 30.1287 94.3779 30.1287C91.8054 30.1289 89.2329 30.1292 86.6603 30.1295C86.5506 30.1295 86.441 30.1295 86.2629 30.1295C86.3036 30.6209 86.34 31.0818 86.3811 31.5422C86.3961 31.7106 86.4226 31.8779 86.4439 32.0457C86.4189 32.0442 86.394 32.0426 86.3691 32.041C86.368 32.0026 86.3667 31.9642 86.3656 31.9257C86.3305 31.8426 86.2953 31.7595 86.2602 31.6765C86.2574 31.476 86.2546 31.2757 86.252 31.0753C86.2524 30.7512 86.2528 30.4271 86.2532 30.103L86.2562 30.0997C86.4042 30.0992 86.5521 30.0982 86.7001 30.0982C90.1772 30.0981 93.6543 30.099 97.1314 30.0933C97.2336 30.0932 97.3357 30.0239 97.4378 29.9869C97.4904 29.9839 97.5431 29.9808 97.5957 29.9779C97.635 29.9397 97.6742 29.9014 97.7135 29.8633C97.7506 29.8228 97.7877 29.7823 97.8247 29.7419C97.8619 29.7017 97.8993 29.6616 97.9366 29.6215Z" fill="#A38F8F"/>
<path fill-rule="evenodd" clip-rule="evenodd" d="M78.2502 13.4944C78.2126 13.7589 78.1432 14.0234 78.1424 14.2881C78.1342 16.6381 78.1396 18.9883 78.1333 21.3385C78.133 21.4403 78.0573 21.5419 78.0176 21.6436C78.0325 21.516 78.0589 21.3882 78.0591 21.2604C78.0619 18.8529 78.0584 16.4455 78.0677 14.0381C78.0685 13.8373 78.151 13.6371 78.1956 13.4365C78.2138 13.4558 78.2319 13.4751 78.2502 13.4944Z" fill="#A38F8F"/>
<path fill-rule="evenodd" clip-rule="evenodd" d="M109.387 19.9211C109.232 19.8804 109.077 19.8072 108.921 19.8044C108.228 19.7921 107.532 19.7644 106.842 19.8116C106.261 19.8514 105.667 19.8849 105.138 20.2362C104.957 20.3569 104.729 20.3951 104.522 20.471C104.798 20.2989 105.056 20.0536 105.352 19.9707C105.901 19.8169 106.47 19.7166 107.037 19.6705C107.652 19.6204 108.273 19.6472 108.89 19.6636C109.057 19.668 109.221 19.7563 109.387 19.8062C109.387 19.8445 109.387 19.8828 109.387 19.9211Z" fill="#A38F8F"/>
<path fill-rule="evenodd" clip-rule="evenodd" d="M98.0477 27.3746C98.0606 26.8254 97.922 26.2984 97.8591 25.7638C97.782 25.1077 97.5117 24.539 97.3635 23.9207C97.3021 23.6643 97.1205 23.4445 97.0101 23.1992C96.9018 22.9584 96.8144 22.7063 96.7178 22.4592C97.2155 23.1397 97.5079 23.9299 97.7454 24.7487C98.1672 26.2034 98.2318 27.7014 98.1951 29.2111C98.1941 29.249 98.1722 29.2863 98.16 29.3239C98.1574 28.78 98.1603 28.236 98.1476 27.6923C98.1451 27.5856 98.0825 27.4805 98.0477 27.3746Z" fill="#A38F8F"/>
<path fill-rule="evenodd" clip-rule="evenodd" d="M38.4316 36.1631C38.4943 36.1734 38.5732 36.1608 38.617 36.1976C38.9575 36.4842 39.2666 36.826 39.6333 37.0624C40.1127 37.3714 40.6238 37.6338 41.1443 37.8512C41.5585 38.0242 42.0069 38.0994 42.4402 38.2181C42.428 38.2371 42.4158 38.2562 42.4037 38.2752C40.932 38.0903 39.6391 37.4817 38.568 36.3496C38.5161 36.2947 38.4769 36.2256 38.4316 36.1631Z" fill="#A38F8F"/>
<path fill-rule="evenodd" clip-rule="evenodd" d="M118.556 20.6309C118.488 20.7197 118.432 20.8275 118.349 20.8946C117.593 21.5049 116.988 22.2472 116.689 23.2348C116.578 23.5995 116.489 23.997 116.81 24.3242C116.837 24.3512 116.829 24.4185 116.837 24.4669C116.586 24.367 116.489 24.1352 116.499 23.8814C116.509 23.6037 116.546 23.3119 116.639 23.0556C117.019 22.0103 117.647 21.186 118.556 20.6309Z" fill="#A38F8F"/>
<path fill-rule="evenodd" clip-rule="evenodd" d="M25.5321 9.14697C25.4337 9.16218 25.3354 9.19061 25.2371 9.19067C22.0317 9.19303 18.8262 9.19322 15.6207 9.19061C15.514 9.19049 15.4074 9.15812 15.3008 9.14085C15.3744 9.136 15.4479 9.12697 15.5215 9.12697C18.7573 9.12624 21.9931 9.12624 25.2289 9.12734C25.3299 9.1274 25.431 9.14012 25.5321 9.14697Z" fill="#A38F8F"/>
<path fill-rule="evenodd" clip-rule="evenodd" d="M42.4033 38.2753C42.4154 38.2563 42.4276 38.2373 42.4398 38.2182C43.0234 38.2194 43.6088 38.2522 44.1901 38.2134C44.8292 38.1709 45.452 38.0026 46.0426 37.723C46.2545 37.6226 46.454 37.4912 46.6592 37.374C46.6728 37.393 46.6864 37.412 46.7 37.4309C46.1427 37.8771 45.5047 38.1056 44.8328 38.2242C44.0266 38.3665 43.2157 38.4041 42.4033 38.2753Z" fill="#A38F8F"/>
<path fill-rule="evenodd" clip-rule="evenodd" d="M97.5553 34.4142C97.623 34.0402 97.6864 33.6487 97.3385 33.4029C97.1491 33.2691 96.9087 33.1571 96.6888 33.1519C96.2684 33.142 95.8406 33.1826 95.4273 33.2677C95.2109 33.3123 95.0186 33.4959 94.8154 33.6168C95.0346 33.2775 95.3299 33.0718 95.7133 33.0587C96.1086 33.0451 96.5058 33.0381 96.9004 33.0628C97.5432 33.1029 97.8795 33.7015 97.6355 34.3422C97.6238 34.3731 97.5827 34.3906 97.5553 34.4142Z" fill="#A38F8F"/>
<path fill-rule="evenodd" clip-rule="evenodd" d="M125.629 36.6536C125.667 36.564 125.688 36.4562 125.747 36.3881C125.913 36.1962 126.097 36.022 126.27 35.837C126.295 35.8112 126.29 35.7522 126.316 35.7296C126.424 35.6317 126.538 35.5415 126.65 35.4485C126.681 35.5829 126.73 35.7158 126.739 35.8519C126.754 36.0714 126.745 36.2931 126.741 36.5137C126.734 36.8322 126.72 37.1498 126.93 37.4169C126.947 37.4382 126.905 37.5134 126.891 37.5635C126.673 37.428 126.653 37.1956 126.651 36.9608C126.646 36.5201 126.649 36.0792 126.649 35.6224C126.294 35.9817 125.961 36.3177 125.629 36.6536Z" fill="#A38F8F"/>
<path fill-rule="evenodd" clip-rule="evenodd" d="M121.736 21.8646C122.045 21.8239 122.358 21.7311 122.663 21.7534C123.263 21.7972 123.86 21.9051 124.458 21.9863C124.462 22.0213 124.466 22.0563 124.47 22.0914L124.462 22.1004C123.403 21.8483 122.345 21.8151 121.287 22.1007L121.279 22.0915C121.283 22.0563 121.287 22.0211 121.291 21.9858C121.362 21.9826 121.434 21.9794 121.505 21.9762C121.582 21.9391 121.659 21.9018 121.736 21.8646Z" fill="#A38F8F"/>
<path fill-rule="evenodd" clip-rule="evenodd" d="M78.2499 13.4945C78.2317 13.4753 78.2135 13.4559 78.1953 13.4367C78.3503 13.1036 78.6175 12.9699 78.9418 12.9604C79.2838 12.9504 79.6266 12.9681 79.9686 12.956C80.3483 12.9426 80.655 13.0676 80.8532 13.439L80.8267 13.4383L80.8001 13.4385C80.5369 13.1049 80.1588 13.1076 79.8117 13.0823C79.4469 13.0558 79.0714 13.0805 78.7116 13.1503C78.5442 13.1827 78.403 13.3748 78.2499 13.4945Z" fill="#A38F8F"/>
<path fill-rule="evenodd" clip-rule="evenodd" d="M54.2293 13.3337C54.0161 14.1039 54.1588 14.8952 54.1094 15.6748C54.0853 16.0541 54.1709 16.3636 54.4528 16.6004C54.5013 16.6412 54.5317 16.7075 54.5703 16.7621C54.5504 16.7644 54.5306 16.7667 54.5108 16.769C54.1709 16.6194 54.0254 16.316 54.0171 15.9453C54.0018 15.2622 53.9978 14.5778 54.0232 13.8954C54.0303 13.7054 54.1573 13.5208 54.2293 13.3337Z" fill="#A38F8F"/>
<path fill-rule="evenodd" clip-rule="evenodd" d="M132.738 20.0378C132.873 19.8004 133.083 19.7181 133.324 19.7162C133.792 19.7126 134.261 19.7097 134.73 19.7181C135.146 19.7256 135.379 19.9505 135.466 20.4075C135.466 20.4075 135.448 20.4135 135.448 20.4135C135.437 20.4096 135.426 20.4076 135.414 20.4073C135.306 20.1159 135.14 19.88 134.842 19.8259C134.644 19.79 134.437 19.7888 134.236 19.8027C133.764 19.8354 133.26 19.654 132.837 20.0386C132.82 20.0541 132.783 20.0437 132.755 20.0453L132.738 20.0378Z" fill="#A38F8F"/>
<path fill-rule="evenodd" clip-rule="evenodd" d="M27.7012 9.497C27.7122 9.4793 27.7233 9.46161 27.7344 9.44385C28.6995 9.65894 29.5882 10.0706 30.4013 10.6764C30.3902 10.6864 30.3799 10.697 30.3701 10.7083C30.3182 10.6936 30.2596 10.6911 30.2155 10.6623C29.6111 10.2667 28.9829 9.93174 28.2997 9.72634C28.0963 9.66519 27.9005 9.57434 27.7012 9.497Z" fill="#A38F8F"/>
<path fill-rule="evenodd" clip-rule="evenodd" d="M46.701 37.4307C46.6874 37.4117 46.6738 37.3928 46.6602 37.3739C47.0177 37.0485 47.3849 36.7346 47.7284 36.3926C47.8891 36.2326 48.0039 36.018 48.1395 35.8281C48.1696 35.8324 48.1997 35.8367 48.2298 35.841C48.262 35.9486 48.2941 36.0561 48.3264 36.1635C48.2916 36.2023 48.2569 36.241 48.2221 36.2797C48.2059 36.2259 48.1896 36.1721 48.1793 36.1383C47.6796 36.5752 47.1903 37.0029 46.701 37.4307Z" fill="#A38F8F"/>
<path fill-rule="evenodd" clip-rule="evenodd" d="M54.5117 16.7691C54.5315 16.7668 54.5513 16.7645 54.5712 16.7622C55.4081 16.7668 56.2448 16.7714 57.0816 16.776C56.9513 16.8135 56.8214 16.8809 56.6904 16.8835C56.1033 16.895 55.5158 16.8956 54.9287 16.8826C54.789 16.8795 54.6507 16.8087 54.5117 16.7691Z" fill="#A38F8F"/>
<path fill-rule="evenodd" clip-rule="evenodd" d="M66.5694 24.1644C66.5519 24.1271 66.5342 24.0899 66.5166 24.0526C66.7923 23.5214 67.0679 22.9902 67.3436 22.459C67.3774 22.6613 67.2764 22.7724 67.1636 22.9291C66.9584 23.2141 66.8397 23.5733 66.6858 23.902C66.6453 23.9885 66.6082 24.0769 66.5694 24.1644Z" fill="#A38F8F"/>
<path fill-rule="evenodd" clip-rule="evenodd" d="M129.195 23.5492C129.047 23.2144 128.908 22.8736 128.747 22.5468C128.626 22.3037 128.47 22.0817 128.341 21.8436C128.306 21.7805 128.31 21.6925 128.297 21.616C128.726 22.1888 129.082 22.8018 129.195 23.5492Z" fill="#A38F8F"/>
<path fill-rule="evenodd" clip-rule="evenodd" d="M86.9881 20.4097C87.0044 20.4291 87.0206 20.4485 87.0369 20.468C86.6182 20.8414 86.2008 21.2167 85.7784 21.5853C85.7428 21.6164 85.6743 21.6028 85.6211 21.6099C86.0768 21.2099 86.5324 20.8098 86.9881 20.4097Z" fill="#A38F8F"/>
<path fill-rule="evenodd" clip-rule="evenodd" d="M109.502 22.3998C109.91 21.8075 109.66 21.1253 109.714 20.4853C109.726 20.3411 109.65 20.188 109.615 20.0391C109.636 20.0575 109.662 20.0718 109.676 20.0951C109.933 20.526 109.892 21.9381 109.609 22.3477C109.588 22.3774 109.538 22.3831 109.502 22.3998Z" fill="#A38F8F"/>
<path fill-rule="evenodd" clip-rule="evenodd" d="M119.419 23.5136C119.443 23.4362 119.449 23.3425 119.494 23.2838C119.836 22.8341 120.254 22.4863 120.734 22.2266C120.733 22.2649 120.732 22.3032 120.732 22.3415C120.294 22.7322 119.856 23.1229 119.419 23.5136Z" fill="#A38F8F"/>
<path fill-rule="evenodd" clip-rule="evenodd" d="M132.413 13.366C132.414 14.1954 132.415 15.0247 132.416 15.8542C132.415 15.0248 132.414 14.1953 132.413 13.366Z" fill="#A38F8F"/>
<path fill-rule="evenodd" clip-rule="evenodd" d="M96.5039 22.1503C96.366 22.0453 96.2103 21.9594 96.0936 21.8313C95.8369 21.5492 95.5993 21.2464 95.3562 20.9497C95.3409 20.9311 95.3455 20.8932 95.3408 20.8643C95.7286 21.2929 96.1162 21.7216 96.5039 22.1503Z" fill="#A38F8F"/>
<path fill-rule="evenodd" clip-rule="evenodd" d="M116.884 24.4756C117.498 24.4899 118.112 24.5043 118.726 24.5186C118.731 24.5374 118.733 24.5564 118.733 24.5756C118.161 24.5858 117.589 24.5989 117.017 24.6003C116.973 24.6005 116.928 24.5191 116.884 24.4756Z" fill="#A38F8F"/>
<path fill-rule="evenodd" clip-rule="evenodd" d="M98.0475 27.3745C98.0824 27.4804 98.1449 27.5855 98.1474 27.6922C98.1601 28.2359 98.1572 28.7799 98.1598 29.3238C98.1674 29.3423 98.1655 29.3594 98.1541 29.3753C98.1183 29.3762 98.0826 29.377 98.0469 29.3779C98.0471 28.7101 98.0473 28.0423 98.0475 27.3745Z" fill="#A38F8F"/>
<path fill-rule="evenodd" clip-rule="evenodd" d="M96.251 36.4627C96.2697 36.4078 96.2761 36.3414 96.3089 36.2997C96.5886 35.9438 96.8718 35.5913 97.1577 35.2413C97.1904 35.2012 97.2457 35.183 97.2907 35.1548C97.0367 35.6783 96.7034 36.1267 96.251 36.4627Z" fill="#A38F8F"/>
<path fill-rule="evenodd" clip-rule="evenodd" d="M128.958 37.73C128.985 37.7362 129.013 37.7423 129.04 37.7485C128.687 37.7707 128.334 37.8085 127.98 37.8102C127.692 37.8114 127.403 37.7694 127.114 37.7466C127.729 37.7411 128.343 37.7355 128.958 37.73Z" fill="#A38F8F"/>
<path fill-rule="evenodd" clip-rule="evenodd" d="M48.2217 36.2798C48.2564 36.241 48.2912 36.2024 48.3259 36.1636C48.3273 36.4661 48.328 36.7685 48.3305 37.071C48.3328 37.3582 48.4282 37.5914 48.6647 37.7402C48.6653 37.7788 48.6659 37.8174 48.6664 37.8559C48.3502 37.6752 48.2146 37.3832 48.2232 37.0021C48.223 36.968 48.2228 36.9339 48.2226 36.8998C48.2222 36.693 48.222 36.4864 48.2217 36.2798Z" fill="#A38F8F"/>
<path fill-rule="evenodd" clip-rule="evenodd" d="M68.3604 36.4338C68.3778 36.4229 68.3952 36.4122 68.4126 36.4014C68.7313 36.6648 69.0499 36.9282 69.3683 37.1916C69.1761 37.0747 68.9755 36.9714 68.7946 36.837C68.6383 36.721 68.5043 36.5696 68.3604 36.4338Z" fill="#A38F8F"/>
<path fill-rule="evenodd" clip-rule="evenodd" d="M128.298 21.6181C128.222 21.5714 128.134 21.5389 128.072 21.4752C127.896 21.2912 127.727 21.0977 127.562 20.9018C127.49 20.8166 127.432 20.7168 127.368 20.6235C127.678 20.9549 127.988 21.2865 128.298 21.6181Z" fill="#A38F8F"/>
<path fill-rule="evenodd" clip-rule="evenodd" d="M68.0774 21.499C68.097 21.5001 68.1166 21.5013 68.1363 21.5024C67.9538 21.9036 67.6887 22.2236 67.3408 22.4621C67.5863 22.1411 67.8318 21.8201 68.0774 21.499Z" fill="#A38F8F"/>
<path fill-rule="evenodd" clip-rule="evenodd" d="M118.733 24.5755C118.733 24.5563 118.731 24.5373 118.727 24.5185C118.882 24.2165 119.031 23.9098 119.2 23.6163C119.235 23.5558 119.342 23.5446 119.416 23.5107C119.265 23.8016 119.122 24.0973 118.96 24.3801C118.912 24.464 118.81 24.5114 118.733 24.5755Z" fill="#A38F8F"/>
<path fill-rule="evenodd" clip-rule="evenodd" d="M109.189 22.645C108.457 22.6448 107.725 22.6463 106.992 22.6423C106.904 22.6418 106.816 22.6111 106.728 22.5945C107.482 22.5919 108.236 22.5914 108.989 22.5843C109.096 22.5833 109.203 22.5497 109.309 22.5312C109.269 22.5692 109.229 22.6071 109.189 22.645Z" fill="#A38F8F"/>
<path fill-rule="evenodd" clip-rule="evenodd" d="M124.965 22.2208C125.249 22.2845 125.504 22.3942 125.619 22.7206C125.233 22.5138 124.848 22.307 124.462 22.1002L124.47 22.0912C124.47 22.0914 124.496 22.0943 124.496 22.0943L124.522 22.0901C124.612 22.0958 124.702 22.1015 124.792 22.1073C124.85 22.1451 124.907 22.1829 124.965 22.2208Z" fill="#A38F8F"/>
<path fill-rule="evenodd" clip-rule="evenodd" d="M95.3281 37.152C95.361 37.0006 95.3974 36.8657 95.5893 36.8814C95.6462 36.8861 95.7082 36.8049 95.769 36.7654C95.9215 36.6663 96.0748 36.5686 96.2278 36.4702C95.928 36.6974 95.628 36.9247 95.3281 37.152Z" fill="#A38F8F"/>
<path fill-rule="evenodd" clip-rule="evenodd" d="M86.9123 33.1362C86.8788 33.1349 86.8453 33.1338 86.8119 33.1325C86.7373 32.9723 86.6627 32.8122 86.5882 32.6519C86.5528 32.6095 86.5175 32.5672 86.4821 32.5248C86.4789 32.4468 86.4758 32.3688 86.4727 32.2907C86.4771 32.2262 86.4816 32.1617 86.486 32.0972C86.628 32.4435 86.7702 32.7899 86.9123 33.1362Z" fill="#A38F8F"/>
<path fill-rule="evenodd" clip-rule="evenodd" d="M125.959 22.9527C126.052 23.0753 126.144 23.198 126.236 23.3205C126.256 23.3593 126.275 23.3981 126.294 23.437C126.296 23.4738 126.299 23.5107 126.302 23.5476C126.302 23.588 126.303 23.6284 126.303 23.6687L126.293 23.6797C126.068 23.3596 125.842 23.0395 125.617 22.7194C125.657 22.7167 125.697 22.7141 125.736 22.7114C125.774 22.7506 125.811 22.79 125.848 22.8292L125.85 22.831C125.886 22.8716 125.923 22.9122 125.959 22.9527Z" fill="#A38F8F"/>
<path fill-rule="evenodd" clip-rule="evenodd" d="M94.1563 34.35C94.127 34.3445 94.0977 34.339 94.0684 34.3335C94.318 34.0938 94.5677 33.854 94.8174 33.6143C94.6647 33.81 94.5159 34.0095 94.3569 34.1989C94.3034 34.2627 94.2239 34.3004 94.1563 34.35Z" fill="#A38F8F"/>
<path fill-rule="evenodd" clip-rule="evenodd" d="M94.8612 37.4316C94.8473 37.4128 94.8333 37.3942 94.8193 37.3754C94.9867 37.2868 95.1005 37.0528 95.3361 37.1494C95.1778 37.2435 95.0195 37.3376 94.8612 37.4316Z" fill="#A38F8F"/>
<path fill-rule="evenodd" clip-rule="evenodd" d="M97.293 35.1525C97.3606 34.9682 97.4282 34.7839 97.4957 34.5996C97.4281 34.7839 97.3605 34.9682 97.293 35.1525Z" fill="#A38F8F"/>
<path fill-rule="evenodd" clip-rule="evenodd" d="M54.4414 37.4407C54.5854 37.5632 54.7297 37.6852 54.8713 37.8109C54.8749 37.8141 54.8486 37.8574 54.8364 37.8822C54.7048 37.7351 54.5731 37.5879 54.4414 37.4407Z" fill="#A38F8F"/>
<path fill-rule="evenodd" clip-rule="evenodd" d="M63.341 13.6268C63.3195 13.6452 63.298 13.6635 63.2765 13.6819C63.2172 13.5321 63.1579 13.3823 63.0986 13.2324C63.1794 13.3638 63.2602 13.4953 63.341 13.6268Z" fill="#A38F8F"/>
<path fill-rule="evenodd" clip-rule="evenodd" d="M100.961 37.8735C100.992 37.8668 101.024 37.8602 101.055 37.8535C101.127 37.8558 101.198 37.8582 101.27 37.8605C101.305 37.8999 101.34 37.9393 101.375 37.9787C101.237 37.9436 101.099 37.9085 100.961 37.8735Z" fill="#A38F8F"/>
<path fill-rule="evenodd" clip-rule="evenodd" d="M96.7188 22.4598C96.5771 22.4137 96.4669 22.3422 96.5076 22.1489C96.5781 22.2526 96.6485 22.3562 96.7188 22.4598Z" fill="#A38F8F"/>
<path fill-rule="evenodd" clip-rule="evenodd" d="M101.375 37.979C101.34 37.9396 101.305 37.9002 101.27 37.8608C101.381 37.8616 101.493 37.8624 101.605 37.8633C101.569 37.9022 101.534 37.941 101.499 37.9799C101.458 37.9796 101.416 37.9793 101.375 37.979Z" fill="#A38F8F"/>
<path fill-rule="evenodd" clip-rule="evenodd" d="M120.958 22.1071C120.993 22.1046 121.027 22.102 121.062 22.0995C121.135 22.0969 121.207 22.0942 121.279 22.0916L121.287 22.1007C121.177 22.1426 121.066 22.1846 120.956 22.2265C120.957 22.1868 120.957 22.1469 120.958 22.1071Z" fill="#A38F8F"/>
<path fill-rule="evenodd" clip-rule="evenodd" d="M86.4858 32.0971C86.4813 32.1616 86.4769 32.2262 86.4724 32.2907C86.4376 32.2074 86.4029 32.1241 86.3682 32.0408C86.3931 32.0423 86.418 32.0439 86.4429 32.0454C86.4571 32.0627 86.4714 32.0799 86.4858 32.0971Z" fill="#A38F8F"/>
<path fill-rule="evenodd" clip-rule="evenodd" d="M120.732 22.3414C120.733 22.303 120.734 22.2647 120.735 22.2265C120.769 22.2242 120.804 22.222 120.839 22.2197C120.868 22.2264 120.898 22.2331 120.928 22.2397C120.863 22.2736 120.797 22.3075 120.732 22.3414Z" fill="#A38F8F"/>
<path fill-rule="evenodd" clip-rule="evenodd" d="M120.927 22.2396C120.897 22.233 120.868 22.2263 120.838 22.2196C120.877 22.182 120.917 22.1444 120.957 22.1069C120.956 22.1468 120.956 22.1866 120.955 22.2264L120.944 22.241L120.927 22.2396Z" fill="#A38F8F"/>
<path fill-rule="evenodd" clip-rule="evenodd" d="M109.387 19.9214C109.387 19.8831 109.387 19.8447 109.387 19.8064C109.429 19.84 109.471 19.8735 109.513 19.9071L109.495 19.9274C109.46 19.926 109.424 19.9246 109.389 19.9232L109.387 19.9214Z" fill="#A38F8F"/>
<path fill-rule="evenodd" clip-rule="evenodd" d="M109.616 20.039C109.578 20.0398 109.541 20.0404 109.503 20.0413C109.501 20.0033 109.498 19.9653 109.495 19.9273L109.513 19.907C109.547 19.951 109.581 19.9949 109.616 20.039Z" fill="#A38F8F"/>
<path fill-rule="evenodd" clip-rule="evenodd" d="M26.4741 9.21511C26.4313 9.21923 26.3885 9.22335 26.3457 9.22741C26.3564 9.21844 26.3672 9.20941 26.3778 9.20044C26.4098 9.20535 26.4419 9.21026 26.4741 9.21511Z" fill="#A38F8F"/>
<path fill-rule="evenodd" clip-rule="evenodd" d="M56.5562 19.6938C56.5174 19.705 56.4784 19.7161 56.4395 19.7273C56.444 19.7118 56.4486 19.6964 56.4532 19.6809C56.4877 19.6852 56.522 19.6895 56.5562 19.6938Z" fill="#A38F8F"/>
<path fill-rule="evenodd" clip-rule="evenodd" d="M48.2227 36.8997C48.2229 36.9338 48.2231 36.968 48.2234 37.002C48.2231 36.9679 48.2229 36.9338 48.2227 36.8997Z" fill="#A38F8F"/>
<path fill-rule="evenodd" clip-rule="evenodd" d="M104.497 20.4919C104.489 20.5061 104.478 20.5161 104.464 20.5218C104.466 20.5002 104.477 20.4902 104.497 20.4919Z" fill="#A38F8F"/>
<path fill-rule="evenodd" clip-rule="evenodd" d="M30.4227 10.7005C30.4229 10.7234 30.423 10.7464 30.4232 10.7694C30.4052 10.7491 30.3872 10.7289 30.3691 10.7086C30.3789 10.6973 30.3893 10.6868 30.4003 10.6768C30.4139 10.6779 30.4213 10.6858 30.4227 10.7005Z" fill="#A38F8F"/>
<path fill-rule="evenodd" clip-rule="evenodd" d="M76.6141 34.0668C77.2427 33.3688 77.7142 32.5665 77.8891 31.5986C77.9871 31.0565 78.0488 30.4999 78.0634 29.9478C78.0979 28.6366 78.1549 27.317 77.8542 26.0294C77.4459 24.2808 76.5031 22.9734 74.8776 22.5276C73.3352 22.1047 71.7881 22.2367 70.4833 23.4149C70.141 23.7239 69.879 24.1385 69.5801 24.5046C69.6412 24.3445 69.6704 24.1542 69.7695 24.0301C70.0475 23.6821 70.3183 23.3051 70.6599 23.0457C71.002 22.7858 71.4157 22.6205 71.8164 22.4732C72.6714 22.1589 73.5693 22.1602 74.447 22.2493C75.0868 22.3142 75.6777 22.6271 76.2093 23.0707C76.5036 23.3162 76.7487 23.5839 76.9931 23.8838C77.4374 24.429 77.7096 25.0489 77.9171 25.7271C78.0963 26.3128 78.1404 26.907 78.1453 27.5178C78.1496 28.0384 78.2416 28.5587 78.2372 29.0785C78.2315 29.7508 78.217 30.431 78.1172 31.0919C78.0103 31.8003 77.8155 32.4922 77.4548 33.1175C77.2799 33.4207 77.1002 33.7141 76.8678 33.964C76.8092 34.0269 76.7001 34.034 76.6141 34.0668Z" fill="#A38F8F"/>
<path fill-rule="evenodd" clip-rule="evenodd" d="M69.5782 24.5156C68.4926 26.7237 68.555 29.0622 68.9629 31.4209C69.1525 32.5176 69.663 33.4697 70.4307 34.2128C71.1675 34.9261 72.0721 35.2394 73.0498 35.2955C74.281 35.3661 75.4245 35.1036 76.3993 34.2194C76.4619 34.1626 76.538 34.1233 76.6076 34.0757C76.5683 34.1607 76.5491 34.2754 76.4864 34.3258C76.1785 34.5731 75.8712 34.8266 75.5393 35.0311C75.3246 35.1634 75.0726 35.2697 74.8296 35.293C74.0889 35.3641 73.3338 35.4933 72.6043 35.4048C71.7989 35.3071 71.0306 34.9587 70.4005 34.3454C70.1969 34.1472 69.9729 33.9724 69.7807 33.7624C69.6984 33.6726 69.675 33.5197 69.6225 33.3966C69.3521 32.7613 69.0704 32.1314 68.8164 31.4885C68.7357 31.2843 68.709 31.0478 68.6908 30.8229C68.6425 30.2233 68.5807 29.622 68.5831 29.0217C68.5858 28.2998 68.5966 27.5691 68.7005 26.859C68.8122 26.096 69.0099 25.342 69.3821 24.6658C69.4196 24.5974 69.5116 24.5648 69.5782 24.5156Z" fill="#A38F8F"/>
<path fill-rule="evenodd" clip-rule="evenodd" d="M80.9172 13.8606C80.935 13.9656 80.9683 14.0705 80.9684 14.1755C80.9708 21.7466 80.9706 29.3177 80.9702 36.8888C80.9702 36.9684 80.9647 37.048 80.9603 37.1275C80.96 37.1331 80.948 37.1416 80.9411 37.142C80.9327 37.1426 80.9238 37.136 80.915 37.1326C80.9158 29.3753 80.9165 21.6179 80.9172 13.8606Z" fill="#A38F8F"/>
<path fill-rule="evenodd" clip-rule="evenodd" d="M86.9095 24.5234C87.0384 24.0373 87.3587 23.7055 87.7035 23.409C88.3222 22.8769 89.0035 22.4974 89.7932 22.3255C90.439 22.1849 91.0636 22.2378 91.7066 22.3045C92.4252 22.3791 93.041 22.7074 93.6308 23.099C93.9186 23.2899 94.128 23.617 94.3856 23.867C94.8091 24.2782 94.9997 24.8178 95.1681 25.3885C95.3187 25.8984 95.4067 26.4079 95.3716 26.9397C95.3655 27.0311 95.2997 27.1178 95.2616 27.2066C94.9425 27.204 94.6232 27.1993 94.3041 27.1992C91.7313 27.1986 89.1586 27.1979 86.5858 27.2035C86.5125 27.2037 86.4394 27.2746 86.3661 27.3126C86.3508 27.3448 86.3354 27.377 86.2907 27.4707C86.273 27.3434 86.2627 27.2699 86.2526 27.1965C86.2189 27.1546 86.1851 27.1126 86.1514 27.0707C86.1673 27.0311 86.1833 26.9915 86.1993 26.9519C86.2161 26.8289 86.2328 26.7058 86.2495 26.5828C86.2894 26.2822 86.3294 25.9817 86.3692 25.6811C86.3909 25.6822 86.4124 25.6831 86.4341 25.6842C86.3767 26.1627 86.3194 26.6413 86.2599 27.1388C89.3009 27.1388 92.2784 27.1388 95.2567 27.1388C95.2684 27.0928 95.2814 27.0648 95.2819 27.0366C95.3107 25.2797 94.5784 23.6747 93.0171 22.8543C90.8704 21.7263 88.4614 22.3945 86.9307 24.5352L86.9095 24.5234Z" fill="#A38F8F"/>
<path fill-rule="evenodd" clip-rule="evenodd" d="M97.4374 29.9867C97.3353 30.0237 97.2332 30.093 97.131 30.0931C93.6539 30.0988 90.1768 30.0979 86.6997 30.098C86.5517 30.098 86.4038 30.0991 86.2559 30.0995C86.3565 30.0605 86.4569 29.9879 86.5576 29.9877C89.5458 29.9815 92.5342 29.9823 95.5224 29.9826C96.1608 29.9828 96.7991 29.9852 97.4374 29.9867Z" fill="#A38F8F"/>
<path fill-rule="evenodd" clip-rule="evenodd" d="M86.3662 27.3125C86.4394 27.2746 86.5126 27.2037 86.5859 27.2035C89.1587 27.1978 91.7314 27.1985 94.3042 27.1992C94.6233 27.1992 94.9425 27.2039 95.2617 27.2066C95.178 27.2428 95.0945 27.3102 95.0109 27.3103C92.1293 27.315 89.2477 27.3132 86.3662 27.3125Z" fill="#A38F8F"/>
<path fill-rule="evenodd" clip-rule="evenodd" d="M86.2519 30.1025C86.2515 30.4267 86.2511 30.7507 86.2507 31.0749C86.0968 30.7965 86.0976 30.2708 86.2519 30.1025Z" fill="#A38F8F"/>
<path fill-rule="evenodd" clip-rule="evenodd" d="M86.434 25.6843C86.4123 25.6832 86.3908 25.6823 86.3691 25.6812C86.4602 25.4571 86.5511 25.233 86.6421 25.0088C86.6556 25.0218 86.6693 25.0347 86.6831 25.0475C86.6001 25.2598 86.517 25.472 86.434 25.6843Z" fill="#A38F8F"/>
<path fill-rule="evenodd" clip-rule="evenodd" d="M86.6955 24.9468C86.6862 24.7569 86.7293 24.5987 86.9101 24.5234C86.91 24.5234 86.9314 24.5354 86.9314 24.5354C86.8592 24.6784 86.787 24.8216 86.7148 24.9647L86.6955 24.9468Z" fill="#A38F8F"/>
<path fill-rule="evenodd" clip-rule="evenodd" d="M86.2598 31.6763C86.295 31.7594 86.3301 31.8425 86.3652 31.9255C86.33 31.8425 86.2949 31.7594 86.2598 31.6763Z" fill="#A38F8F"/>
<path fill-rule="evenodd" clip-rule="evenodd" d="M86.2494 26.583C86.2327 26.706 86.216 26.8291 86.1992 26.9521C86.2159 26.829 86.2326 26.706 86.2494 26.583Z" fill="#A38F8F"/>
<path fill-rule="evenodd" clip-rule="evenodd" d="M97.9361 29.6216C97.8988 29.6616 97.8615 29.7018 97.8242 29.7418C97.8615 29.7018 97.8988 29.6618 97.9361 29.6216Z" fill="#A38F8F"/>
<path fill-rule="evenodd" clip-rule="evenodd" d="M86.1514 27.0708C86.1851 27.1127 86.2189 27.1547 86.2526 27.1966C86.2188 27.1546 86.1851 27.1127 86.1514 27.0708Z" fill="#A38F8F"/>
<path fill-rule="evenodd" clip-rule="evenodd" d="M97.7124 29.863C97.6732 29.9012 97.634 29.9395 97.5947 29.9776C97.6339 29.9394 97.6732 29.9012 97.7124 29.863Z" fill="#A38F8F"/>
<path fill-rule="evenodd" clip-rule="evenodd" d="M86.6416 25.0088C86.6592 24.9881 86.6768 24.9674 86.6943 24.9468L86.7136 24.9647C86.7033 24.9923 86.693 25.0199 86.6826 25.0475C86.6689 25.0347 86.6552 25.0218 86.6416 25.0088Z" fill="#A38F8F"/>
<path fill-rule="evenodd" clip-rule="evenodd" d="M123.888 35.193C124.583 34.7982 125.245 34.3388 125.654 33.5923C125.944 33.0632 126.187 32.4894 126.362 31.9038C126.655 30.9226 126.614 29.8951 126.593 28.8587C126.546 28.8531 126.512 28.8409 126.48 28.8462C124.871 29.1144 123.257 29.3576 121.654 29.6639C120.758 29.8352 119.894 30.1587 119.153 30.7691C117.8 31.8837 117.861 33.9066 119.304 34.8802C120.655 35.7924 122.106 35.7966 123.587 35.3027C123.675 35.2733 123.762 35.2392 123.849 35.2073C123.724 35.5334 123.413 35.4672 123.189 35.5449C122.579 35.7561 121.947 35.7393 121.307 35.702C120.75 35.6696 120.227 35.535 119.73 35.3037C119.067 34.9952 118.511 34.5084 118.254 33.7492C117.993 32.9824 117.913 32.1922 118.408 31.4797C118.634 31.1551 118.869 30.8168 119.162 30.5743C119.466 30.3221 119.835 30.1426 120.197 29.996C120.619 29.8251 121.061 29.7047 121.502 29.5982C122.055 29.4645 122.615 29.361 123.174 29.2555C123.819 29.1334 124.467 29.0189 125.114 28.9097C125.449 28.8534 125.786 28.8145 126.122 28.7705C126.195 28.761 126.272 28.7738 126.343 28.7582C126.709 28.6787 126.72 28.7029 126.74 29.1201C126.783 30.0304 126.692 30.9266 126.511 31.8111C126.296 32.8682 125.847 33.7906 125.082 34.5015C124.826 34.7388 124.549 34.9526 124.264 35.1456C124.167 35.211 124.015 35.1799 123.888 35.193Z" fill="#A38F8F"/>
<path fill-rule="evenodd" clip-rule="evenodd" d="M126.516 26.5874C126.554 26.4719 126.621 26.3573 126.624 26.2407C126.637 25.749 126.631 25.2568 126.631 24.7646C126.667 24.8743 126.729 24.983 126.732 25.0937C126.745 25.5133 126.73 25.9338 126.741 26.3535C126.746 26.5424 126.678 26.6095 126.516 26.5874Z" fill="#A38F8F"/>
<path fill-rule="evenodd" clip-rule="evenodd" d="M126.625 24.408C126.59 24.3244 126.555 24.2409 126.521 24.1572C126.555 24.2408 126.59 24.3244 126.625 24.408Z" fill="#A38F8F"/>
<path fill-rule="evenodd" clip-rule="evenodd" d="M121.736 21.8647C121.659 21.902 121.582 21.9392 121.505 21.9763C121.582 21.9391 121.659 21.9019 121.736 21.8647Z" fill="#A38F8F"/>
<path fill-rule="evenodd" clip-rule="evenodd" d="M121.279 22.0915C121.207 22.0942 121.135 22.0969 121.062 22.0995C121.139 22.0616 121.215 22.0237 121.291 21.9858C121.287 22.0211 121.283 22.0563 121.279 22.0915Z" fill="#A38F8F"/>
<path fill-rule="evenodd" clip-rule="evenodd" d="M124.965 22.221C124.907 22.1831 124.85 22.1452 124.792 22.1074C124.85 22.1453 124.907 22.1831 124.965 22.221Z" fill="#A38F8F"/>
<path fill-rule="evenodd" clip-rule="evenodd" d="M126.51 23.9232C126.477 23.8799 126.443 23.8367 126.41 23.7935C126.443 23.8367 126.477 23.8799 126.51 23.9232Z" fill="#A38F8F"/>
<path fill-rule="evenodd" clip-rule="evenodd" d="M126.304 23.669C126.303 23.6286 126.302 23.5883 126.302 23.5479C126.336 23.5919 126.37 23.636 126.404 23.6802C126.37 23.6765 126.337 23.6727 126.304 23.669Z" fill="#A38F8F"/>
<path fill-rule="evenodd" clip-rule="evenodd" d="M124.521 22.0903L124.495 22.0945C124.495 22.0945 124.469 22.0915 124.469 22.0914C124.465 22.0563 124.461 22.0213 124.457 21.9863C124.478 22.021 124.499 22.0556 124.521 22.0903Z" fill="#A38F8F"/>
<path fill-rule="evenodd" clip-rule="evenodd" d="M126.294 23.4372C126.275 23.3984 126.255 23.3596 126.236 23.3208C126.255 23.3597 126.275 23.3985 126.294 23.4372Z" fill="#A38F8F"/>
<path fill-rule="evenodd" clip-rule="evenodd" d="M109.495 19.927C109.498 19.965 109.5 20.003 109.503 20.041C109.465 20.0016 109.427 19.9622 109.39 19.9229C109.425 19.9242 109.46 19.9256 109.495 19.927Z" fill="#A38F8F"/>
<path fill-rule="evenodd" clip-rule="evenodd" d="M30.3698 10.7083C30.3878 10.7285 30.4059 10.7488 30.4239 10.7691C30.7401 11.1734 31.1267 11.4938 31.4852 11.8482C31.6974 12.0581 31.8258 12.3701 31.9866 12.64C32.122 12.867 32.2728 13.0879 32.3761 13.3319C32.5796 13.8124 32.8552 14.2648 32.8793 14.8223C32.8862 14.981 32.9562 15.1374 33.0022 15.2932C33.0247 15.3694 33.0799 15.4402 33.0842 15.5159C33.1281 16.2831 33.2476 17.0596 33.1797 17.8158C33.1119 18.572 33.0019 19.3528 32.6477 20.0427C32.429 20.4686 32.242 20.9288 31.9569 21.2963C31.4659 21.9293 30.9539 22.5513 30.2572 22.9489C29.879 23.1646 29.8951 23.1862 30.2338 23.4294C30.704 23.7671 31.198 24.0761 31.6262 24.4693C31.9413 24.7585 32.1727 25.1584 32.4306 25.5181C32.5535 25.6896 32.6864 25.8683 32.754 26.0681C32.9349 26.6026 33.2008 27.0895 33.3426 27.6543C33.5989 28.675 33.5615 29.6987 33.5164 30.7191C33.4968 31.1614 33.5206 31.6637 33.2454 32.0675C33.2251 32.0973 33.2222 32.1416 33.213 32.1797C33.1376 32.4936 33.0966 32.8236 32.9801 33.1181C32.7852 33.6107 32.571 34.1004 32.3106 34.5542C32.0914 34.9365 31.8351 35.3196 31.5194 35.6015C31.2765 35.8185 31.0327 36.0274 30.809 36.2708C30.7143 36.3737 30.5417 36.3856 30.4197 36.4661C30.1101 36.6703 29.8252 36.9274 29.5003 37.0931C29.1548 37.2691 28.7791 37.3825 28.4083 37.4895C28.0317 37.5982 27.6476 37.6859 27.262 37.7459C26.8619 37.8083 26.4561 37.8581 26.0527 37.8591C22.6057 37.8679 19.1587 37.8633 15.7117 37.8666C15.5102 37.8668 15.3079 37.8936 15.1072 37.9201C14.8376 37.9556 14.684 37.8245 14.6856 37.549C14.687 37.3017 14.6855 37.0545 14.6855 36.8072C14.6855 27.9706 14.6855 19.1339 14.6855 10.2972C14.6855 10.05 14.6871 9.80274 14.6856 9.55553C14.6843 9.34576 14.7623 9.25019 14.9697 9.25049C18.5835 9.25516 22.1973 9.24509 25.811 9.26503C26.3116 9.26776 26.8111 9.41607 27.3122 9.48892C27.4398 9.50746 27.5713 9.4951 27.7009 9.49692C27.9002 9.57419 28.0961 9.66504 28.2995 9.72626C28.9827 9.93172 29.6109 10.2666 30.2153 10.6622C30.2594 10.6911 30.318 10.6936 30.3698 10.7083Z" fill="#A38F8F"/>
<path fill-rule="evenodd" clip-rule="evenodd" d="M132.756 20.045C132.783 20.0435 132.82 20.0539 132.837 20.0384C133.26 19.6538 133.765 19.8352 134.236 19.8024C134.438 19.7885 134.644 19.7898 134.842 19.8257C135.14 19.8798 135.307 20.1156 135.415 20.407C135.414 22.8111 135.413 25.2151 135.413 27.6192C135.414 30.7707 135.416 33.9221 135.418 37.0737C135.285 37.5708 135.088 37.7375 134.624 37.7401C134.235 37.7424 133.846 37.7344 133.457 37.7444C132.923 37.7581 132.64 37.4154 132.639 36.8563C132.634 31.4758 132.635 26.0951 132.641 20.7146C132.641 20.4914 132.716 20.2682 132.756 20.045Z" fill="#A38F8F"/>
<path fill-rule="evenodd" clip-rule="evenodd" d="M135.418 37.0739C135.416 33.9223 135.414 30.7709 135.413 27.6193C135.413 25.2153 135.414 22.8113 135.415 20.4072C135.426 20.4075 135.438 20.4095 135.449 20.4134C135.453 20.5341 135.461 20.6549 135.461 20.7757C135.462 26.0915 135.462 31.4073 135.46 36.7231C135.46 36.84 135.432 36.9569 135.418 37.0739Z" fill="#A38F8F"/>
<path fill-rule="evenodd" clip-rule="evenodd" d="M110.5 37.7312C110.463 37.6941 110.432 37.6462 110.389 37.6218C110.181 37.5037 110.043 37.3531 110.049 37.0665C110.061 36.4616 110.053 35.8562 110.052 35.251C110.052 34.9944 110.031 34.7353 110.056 34.4818C110.091 34.1371 110.369 33.8697 110.689 33.8653C111.383 33.8556 112.077 33.8532 112.771 33.8642C113.225 33.8713 113.499 34.19 113.503 34.7022C113.51 35.4687 113.508 36.2354 113.505 37.0019C113.504 37.2992 113.368 37.5006 113.115 37.614C113.055 37.6409 113.004 37.6924 112.949 37.7326C112.133 37.7323 111.316 37.7317 110.5 37.7312Z" fill="#A38F8F"/>
<path fill-rule="evenodd" clip-rule="evenodd" d="M110.5 37.731C111.316 37.7315 112.133 37.732 112.949 37.7324C112.958 37.7351 112.97 37.7351 112.975 37.7413C112.984 37.752 112.99 37.7667 112.997 37.7797C112.17 37.7712 111.344 37.7629 110.518 37.7534C110.512 37.7534 110.506 37.7388 110.5 37.731Z" fill="#A38F8F"/>
</svg>
