<svg width="160" height="48" viewBox="0 0 160 48" fill="none" xmlns="http://www.w3.org/2000/svg">
<path fill-rule="evenodd" clip-rule="evenodd" d="M81.5674 22.1957C81.6719 22.3015 81.7765 22.4074 81.8803 22.5132C81.9125 22.4309 81.9738 22.3487 81.974 22.2663C81.9791 20.3647 81.9747 18.4629 81.9813 16.5614C81.9821 16.3472 82.0382 16.1332 82.0686 15.9192C82.1925 15.8223 82.3068 15.6668 82.4422 15.6406C82.7334 15.5841 83.0372 15.5641 83.3323 15.5856C83.6132 15.606 83.9192 15.6038 84.1321 15.8738C84.1639 15.9877 84.1957 16.1015 84.2275 16.2154C84.2269 22.4924 84.2263 28.7694 84.2258 35.0463C84.2113 35.0648 84.1892 35.0809 84.1835 35.1021C84.0656 35.5373 83.7666 35.6489 83.3926 35.6387C83.138 35.6318 82.8831 35.6399 82.6284 35.6367C82.3671 35.6333 82.1011 35.4226 82.0309 35.1494C82.0122 35.0769 82.0552 34.9882 82.0523 34.9076C82.0447 34.6948 82.0323 34.4819 82.0112 34.2703C82.0047 34.2051 81.9719 34.0983 81.9369 34.0909C81.868 34.0763 81.7483 34.091 81.7206 34.1406C81.399 34.7163 80.8585 35.0042 80.3756 35.3631C80.2048 35.49 79.9917 35.5495 79.7978 35.6392C79.73 35.6706 79.6639 35.7142 79.5931 35.7286C79.2468 35.7985 78.901 35.8963 78.5516 35.9176C77.8819 35.9585 77.2035 35.9852 76.5518 35.7762C76.0696 35.6216 75.6057 35.3995 75.1321 35.2119C75.0907 35.1954 75.0387 35.2109 74.9917 35.2117C74.955 35.1724 74.9184 35.1331 74.8819 35.094C74.6243 34.8809 74.3665 34.6677 74.1086 34.4546C73.8938 34.1899 73.6552 33.9434 73.4695 33.6564C73.1631 33.1827 72.8598 32.7009 72.6903 32.142C72.5146 31.5624 72.3164 30.9883 72.1831 30.3972C72.097 30.0155 72.0904 29.6078 72.0825 29.211C72.068 28.484 72.0692 27.7562 72.084 27.0292C72.0901 26.7347 72.1228 26.4343 72.1892 26.1493C72.3145 25.6124 72.473 25.0846 72.6176 24.5529C72.649 24.4822 72.679 24.4107 72.7118 24.3406C72.8363 24.0746 72.9323 23.784 73.0984 23.5534C73.1897 23.4266 73.2714 23.3367 73.2441 23.173L73.2421 23.1753C73.5236 22.9823 73.7381 22.7234 73.8859 22.3988C74.192 22.1508 74.4846 21.8791 74.8072 21.66C75.4251 21.2404 76.0972 20.9444 76.8194 20.8312C77.2816 20.7587 77.7543 20.7258 78.2209 20.7373C78.6247 20.7473 79.0317 20.8195 79.4278 20.9121C79.7269 20.9822 80.0166 21.1138 80.2996 21.2459C80.4433 21.3129 80.563 21.4412 80.7133 21.5571C80.713 21.5571 80.7736 21.5363 80.8014 21.5604C80.9978 21.731 81.1854 21.9135 81.3806 22.0858C81.4346 22.1335 81.5047 22.1596 81.5674 22.1957ZM80.74 32.5727L80.7458 32.5655C80.8153 32.5389 80.9036 32.5332 80.951 32.4822C81.1391 32.28 81.2845 32.0426 81.426 31.7972C81.7178 31.2912 81.8755 30.7314 81.962 30.1582C82.0427 29.6235 82.0545 29.073 82.0591 28.529C82.0627 28.1084 81.9882 27.6874 81.9847 27.2661C81.9807 26.7719 81.9451 26.2911 81.8 25.8171C81.6321 25.2684 81.4119 24.7668 81.0524 24.3256C80.8546 24.0829 80.6563 23.8663 80.4182 23.6677C79.988 23.3088 79.5099 23.0556 78.9922 23.003C78.2821 22.9309 77.5554 22.9299 76.8636 23.1842C76.5394 23.3034 76.2046 23.4371 75.9278 23.6474C75.6514 23.8573 75.4323 24.1624 75.2073 24.444C75.1272 24.5444 75.1035 24.6984 75.054 24.828L75.0523 24.837C74.9983 24.8768 74.9239 24.9032 74.8935 24.9584C74.5924 25.5057 74.4324 26.1158 74.342 26.7332C74.258 27.3077 74.2492 27.899 74.247 28.4831C74.2451 28.9689 74.2951 29.4555 74.3342 29.9406C74.3489 30.1226 74.3705 30.314 74.4358 30.4792C74.6413 30.9994 74.8693 31.5091 75.0881 32.0231C75.1305 32.1227 75.1495 32.2465 75.2161 32.3192C75.3716 32.4891 75.5529 32.6306 75.7176 32.7909C76.2275 33.2872 76.8491 33.5691 77.5008 33.6481C78.0911 33.7197 78.7021 33.6152 79.3015 33.5576C79.4981 33.5388 79.702 33.4528 79.8757 33.3458C80.1443 33.1803 80.393 32.9751 80.6421 32.775C80.6928 32.7344 80.7083 32.6415 80.74 32.5727Z" fill="#6000E5"/>
<path fill-rule="evenodd" clip-rule="evenodd" d="M96.637 34.5045L96.618 34.5105C96.4942 34.5901 96.3702 34.6692 96.2467 34.7494C96.1975 34.7813 96.1473 34.847 96.1014 34.8432C95.946 34.8305 95.9166 34.9396 95.89 35.0621L95.8958 35.06C95.7052 34.9817 95.6131 35.1711 95.4777 35.2428C95.067 35.3827 94.6599 35.5373 94.2446 35.6579C93.8692 35.7671 93.488 35.877 93.1032 35.9172C92.6725 35.9622 92.2348 35.9345 91.8003 35.9288C91.2392 35.9214 90.6959 35.7832 90.1806 35.5607C89.7188 35.3613 89.2733 35.1256 88.8662 34.7869C88.3653 34.3701 87.9331 33.891 87.5644 33.3477C87.2387 32.8677 86.9667 32.3473 86.8202 31.7578C86.6928 31.2446 86.5062 30.7473 86.4015 30.2295C86.322 29.8369 86.3008 29.4228 86.3053 29.0188C86.3141 28.2387 86.2842 27.461 86.3668 26.6766C86.4353 26.0245 86.5733 25.3984 86.7776 24.8027C87.0398 24.0381 87.4593 23.3502 87.9358 22.7122C87.9731 22.6623 87.9802 22.5858 88.0014 22.5216C88.0126 22.5098 88.0238 22.4979 88.035 22.486C88.078 22.4802 88.1334 22.4912 88.1623 22.4661C88.504 22.1678 88.8418 21.8642 89.1806 21.562C89.5344 21.4036 89.8944 21.2598 90.2405 21.0833C90.6999 20.8491 91.1945 20.7683 91.6833 20.7402C92.3556 20.7016 93.028 20.7047 93.7002 20.8973C94.0203 20.9891 94.3272 21.1174 94.644 21.2141C94.7835 21.2567 94.9139 21.3391 95.0438 21.413C95.2429 21.5263 95.4651 21.616 95.6247 21.7776C95.7224 21.8764 95.7822 21.9241 95.9006 21.8809L95.8845 21.8842C95.8845 21.8842 95.9007 21.8823 95.9007 21.8824C95.9045 21.9059 95.9008 21.9366 95.9131 21.9516C96.1098 22.1916 96.3021 22.4367 96.5098 22.6649C96.6042 22.7686 96.7301 22.838 96.8418 22.923C96.8418 22.923 96.8445 22.9221 96.8444 22.9221C96.8115 23.0784 96.9007 23.1363 97.0153 23.1736L97.0144 23.1731C97.0925 23.373 97.1633 23.577 97.2509 23.7718C97.3403 23.9704 97.4872 24.1483 97.5369 24.3556C97.6568 24.856 97.8755 25.3162 97.9379 25.847C97.9888 26.2796 98.101 26.7062 98.0905 27.1505C98.0903 27.6909 98.0902 28.2311 98.09 28.7715C98.0601 28.8372 98.0301 28.9029 98.0001 28.9685C97.9699 29.001 97.9397 29.0334 97.9096 29.0659C97.8796 29.0986 97.8496 29.1314 97.8196 29.1641C97.7878 29.195 97.756 29.2259 97.7243 29.2568C97.6817 29.2593 97.6391 29.2617 97.5965 29.2641C97.08 29.263 96.5635 29.261 96.0469 29.2609C93.6289 29.2606 91.2108 29.2599 88.7929 29.2649C88.7114 29.2651 88.6301 29.3239 88.5487 29.3554L88.5462 29.3581C88.4214 29.4942 88.4208 29.9196 88.5452 30.1448C88.5474 30.307 88.5497 30.4691 88.5519 30.6313C88.5803 30.6985 88.6087 30.7658 88.6372 30.833C88.6381 30.8641 88.6391 30.8952 88.6401 30.9263C88.6682 30.9938 88.6962 31.0612 88.7244 31.1286C88.727 31.1917 88.7295 31.2548 88.7321 31.3179C88.7607 31.3522 88.7893 31.3865 88.8178 31.4209C88.8782 31.5505 88.9386 31.6801 88.9989 31.8097C89.1032 32.0001 89.1779 32.2235 89.3185 32.3733C89.5427 32.6125 89.7935 32.8359 90.0647 33.0055C90.4176 33.226 90.7875 33.4455 91.1763 33.5574C91.5569 33.6671 91.97 33.6534 92.3696 33.6724C93.171 33.7104 93.9265 33.5228 94.6191 33.0729C94.736 32.997 94.8349 32.8883 94.9422 32.7947C94.9968 32.7546 95.0612 32.7241 95.1044 32.6725C95.2331 32.5192 95.3534 32.3577 95.477 32.1994L95.4751 32.2015C95.6395 32.1038 95.7951 31.9553 95.9702 31.9191C96.3047 31.8502 96.6509 31.8174 96.991 31.8254C97.1689 31.8296 97.3634 31.9202 97.5167 32.0285C97.7983 32.2274 97.7469 32.5442 97.6922 32.8468C97.6762 32.8969 97.6601 32.947 97.6442 32.997C97.5895 33.1461 97.5349 33.2952 97.4801 33.4444L97.4698 33.4343C97.4698 33.4343 97.4783 33.4462 97.4782 33.4462C97.4418 33.469 97.3971 33.4837 97.3706 33.5162C97.1393 33.7993 96.9101 34.0846 96.6838 34.3726C96.6573 34.4064 96.6521 34.4601 96.637 34.5045ZM88.9043 25.1861C88.8901 25.2028 88.8758 25.2196 88.8617 25.2362C88.788 25.4176 88.7144 25.5989 88.6408 25.7803C88.6085 26.0235 88.5762 26.2667 88.5438 26.5099C88.5303 26.6094 88.5168 26.709 88.5033 26.8086C88.4903 26.8406 88.4774 26.8727 88.4645 26.9047C88.4917 26.9387 88.5191 26.9726 88.5463 27.0065C88.5546 27.066 88.5629 27.1254 88.5772 27.2284C88.6134 27.1526 88.6258 27.1265 88.6382 27.1004C90.9699 27.1011 93.3016 27.1025 95.6332 27.0987C95.7009 27.0985 95.7685 27.044 95.8361 27.0148C95.867 26.9428 95.9202 26.8727 95.9252 26.7987C95.9536 26.3685 95.8824 25.9562 95.7605 25.5435C95.6242 25.0818 95.4701 24.6451 95.1273 24.3124C94.9189 24.1101 94.7495 23.8455 94.5166 23.6909C94.0394 23.3741 93.541 23.1084 92.9596 23.0481C92.4393 22.9941 91.9339 22.9512 91.4113 23.0651C90.7724 23.2041 90.221 23.5112 89.7204 23.9418C89.4414 24.1817 89.1823 24.4502 89.0781 24.8436C88.9316 24.9043 88.8967 25.0324 88.9043 25.1861Z" fill="#6000E5"/>
<path fill-rule="evenodd" clip-rule="evenodd" d="M121.611 35.5428C121.551 35.4934 121.491 35.444 121.43 35.3946C121.442 35.354 121.475 35.2932 121.462 35.276C121.292 35.0598 121.304 34.8029 121.309 34.5451C121.312 34.3666 121.319 34.1872 121.307 34.0097C121.3 33.8995 121.261 33.792 121.236 33.6832C121.145 33.7585 121.052 33.8314 120.965 33.9107C120.945 33.9289 120.948 33.9768 120.928 33.9975C120.788 34.1472 120.639 34.2882 120.505 34.4435C120.457 34.4986 120.44 34.5857 120.409 34.6583L120.411 34.6565C120.349 34.6742 120.276 34.6744 120.227 34.7123C119.801 35.0426 119.348 35.2883 118.842 35.4612C118.195 35.6822 117.539 35.7482 116.875 35.7799C116.319 35.8065 115.767 35.7447 115.236 35.5459C114.807 35.3853 114.335 35.3135 114.035 34.874C114.017 34.8474 113.967 34.8492 113.936 34.8304C113.811 34.7556 113.684 34.6838 113.564 34.5999C113.412 34.4931 113.265 34.3756 113.116 34.2627L113.118 34.2643C113.089 34.1856 113.079 34.0879 113.03 34.0312C112.572 33.507 112.313 32.8657 112.233 32.1702C112.134 31.3096 112.244 30.4694 112.687 29.7079C112.966 29.2272 113.343 28.8598 113.751 28.5249C113.95 28.3621 114.169 28.2293 114.379 28.0829C114.79 27.9106 115.194 27.7162 115.613 27.5722C116.049 27.4222 116.497 27.3112 116.944 27.2021C117.181 27.1442 117.427 27.1308 117.667 27.0896C118.002 27.032 118.336 26.9633 118.671 26.9067C118.95 26.8596 119.23 26.8235 119.509 26.7816C119.883 26.7256 120.258 26.6712 120.631 26.6113C120.797 26.5846 120.962 26.5461 121.127 26.5129C121.259 26.5308 121.313 26.4765 121.309 26.3237C121.301 25.9841 121.312 25.6439 121.302 25.3043C121.3 25.2147 121.249 25.1268 121.221 25.038C121.219 24.9418 121.217 24.8456 121.215 24.7494C121.187 24.6817 121.159 24.6141 121.131 24.5464C121.128 24.4833 121.125 24.4202 121.122 24.3571C121.095 24.3221 121.068 24.2871 121.041 24.2521C121.04 24.2216 121.038 24.191 121.036 24.1605C121.009 24.1247 120.981 24.089 120.954 24.0532C120.952 24.0235 120.95 23.9937 120.948 23.9638C120.932 23.9325 120.917 23.9011 120.901 23.8697C120.826 23.7705 120.752 23.6712 120.677 23.572C120.647 23.5392 120.618 23.5064 120.589 23.4736L120.587 23.4721C120.557 23.4404 120.527 23.4086 120.497 23.3768C120.464 23.379 120.432 23.3811 120.4 23.3832L120.401 23.3843C120.307 23.1202 120.101 23.0314 119.872 22.9799C119.825 22.9492 119.778 22.9186 119.732 22.888C119.659 22.8833 119.586 22.8787 119.513 22.874C119.496 22.846 119.479 22.818 119.461 22.79C118.978 22.7242 118.495 22.6369 118.009 22.6015C117.762 22.5834 117.509 22.6585 117.259 22.6915C117.197 22.7215 117.134 22.7516 117.072 22.7817C117.014 22.7843 116.957 22.7869 116.899 22.7895C116.837 22.8201 116.776 22.8508 116.714 22.8815C116.686 22.8836 116.658 22.8856 116.629 22.8876C116.597 22.918 116.565 22.9484 116.533 22.9788C116.505 22.9806 116.477 22.9824 116.449 22.9842C116.06 23.1944 115.722 23.4758 115.445 23.8397C115.409 23.8872 115.404 23.963 115.385 24.0257L115.382 24.0235C115.322 24.051 115.235 24.06 115.207 24.109C115.071 24.3464 114.95 24.5946 114.824 24.8389C114.327 24.8274 113.83 24.8157 113.333 24.8042C113.32 24.8039 113.307 24.8016 113.295 24.7972C113.288 24.758 113.295 24.7036 113.273 24.6818C113.013 24.417 113.085 24.0953 113.175 23.8002C113.417 23.0011 113.906 22.4004 114.518 21.9066C114.586 21.8524 114.63 21.7651 114.686 21.6932L114.681 21.6943C114.758 21.6819 114.845 21.6891 114.911 21.6533C115.107 21.5483 115.287 21.4013 115.489 21.3175C115.73 21.2182 116.024 21.2289 116.227 21.0807C116.491 20.8869 116.784 20.8767 117.055 20.8445C117.576 20.7826 118.108 20.8235 118.635 20.821C119.238 20.8181 119.821 20.8782 120.407 21.0908C120.799 21.2327 121.179 21.3729 121.537 21.5931C121.62 21.6443 121.724 21.6556 121.818 21.6853L121.817 21.687C121.868 21.7625 121.915 21.8433 121.973 21.9122C122.107 22.0706 122.244 22.2273 122.386 22.3762C122.436 22.4278 122.508 22.454 122.569 22.4918L122.568 22.4902C122.579 22.5522 122.575 22.6233 122.603 22.6744C122.708 22.8671 122.834 23.0467 122.932 23.2434C123.062 23.5079 123.174 23.7837 123.294 24.0545C123.324 24.1829 123.353 24.3113 123.382 24.4397C123.411 24.819 123.463 25.1983 123.463 25.5777C123.47 28.6707 123.469 31.7637 123.462 34.8567C123.462 35.0091 123.412 35.1736 123.346 35.3096C123.3 35.4033 123.186 35.4575 123.103 35.5292C122.606 35.5338 122.108 35.5383 121.611 35.5428ZM119.001 33.4763C119.104 33.4657 119.227 33.4909 119.305 33.4379C119.536 33.2816 119.76 33.1087 119.967 32.9166C120.586 32.3414 120.949 31.5951 121.124 30.7397C121.27 30.0239 121.343 29.2988 121.308 28.5622C121.292 28.2246 121.284 28.2051 120.988 28.2694C120.93 28.282 120.868 28.2716 120.808 28.2794C120.536 28.315 120.264 28.3464 119.993 28.392C119.469 28.4803 118.945 28.573 118.423 28.6717C117.971 28.7572 117.518 28.8409 117.07 28.9491C116.714 29.0353 116.356 29.1327 116.014 29.2709C115.721 29.3896 115.423 29.5348 115.176 29.7389C114.939 29.9351 114.749 30.2088 114.567 30.4716C114.166 31.048 114.231 31.6874 114.442 32.3079C114.65 32.9222 115.1 33.3162 115.636 33.5658C116.038 33.7529 116.462 33.8618 116.912 33.8881C117.43 33.9182 117.941 33.9319 118.435 33.7609C118.617 33.6981 118.868 33.7516 118.969 33.4878L118.983 33.4761L119.001 33.4763Z" fill="#6000E5"/>
<path fill-rule="evenodd" clip-rule="evenodd" d="M57.9545 21.1842C58.0657 21.1119 58.1769 21.0396 58.288 20.9673C58.637 20.9854 58.986 21.0121 59.3354 21.0196C59.7923 21.0293 60.0196 21.2703 60.0196 21.77C60.0198 26.129 60.0197 30.4878 60.0195 34.8467C60.0195 35.4079 59.8107 35.6345 59.2946 35.6353C59.04 35.6357 58.7848 35.6465 58.531 35.6315C58.3959 35.6235 58.2631 35.5705 58.1293 35.5377C57.9379 35.4173 57.8608 35.2286 57.8588 34.9962C57.8568 34.7515 57.8563 34.5068 57.8551 34.262C57.8291 34.175 57.803 34.088 57.777 34.001C57.7526 33.9975 57.7283 33.994 57.704 33.9906C57.5943 34.1442 57.5013 34.3179 57.3713 34.4473C57.0933 34.7241 56.7962 34.978 56.5069 35.2413C56.3409 35.3362 56.1794 35.4425 56.0079 35.5237C55.5301 35.75 55.0262 35.8861 54.509 35.9205C54.0386 35.9519 53.5649 35.9254 53.0927 35.9244C52.7421 35.8283 52.3792 35.7675 52.0441 35.6275C51.623 35.4517 51.2094 35.2393 50.8214 34.9892C50.5247 34.798 50.2746 34.5215 49.9991 34.2895C49.9636 34.2597 49.8998 34.2699 49.8491 34.2616L49.8505 34.2634C49.8121 34.1721 49.7846 34.0725 49.733 33.991C49.5956 33.7743 49.4263 33.5786 49.3086 33.3506C49.0131 32.7782 48.7468 32.19 48.6583 31.5272C48.6119 31.1794 48.5087 30.834 48.5069 30.487C48.493 27.938 48.4984 25.389 48.4977 22.84C48.4976 22.4642 48.5051 22.0881 48.4955 21.7126C48.4826 21.2078 48.7851 21.0135 49.1339 21.0194C49.4337 21.0244 49.7336 21.0195 50.0335 21.0204C50.4106 21.0216 50.6586 21.2945 50.6587 21.7108C50.6594 24.1373 50.6639 26.5637 50.6568 28.9902C50.6544 29.7838 50.6983 30.5683 50.9371 31.323C50.9964 31.5104 51.1202 31.6735 51.2143 31.8478L51.2111 31.8598L51.2152 31.848C51.3094 32.0579 51.3668 32.3041 51.505 32.4706C51.8579 32.8958 52.2781 33.2185 52.7896 33.4142C53.1635 33.5572 53.5416 33.6507 53.9268 33.6633C54.4311 33.6797 54.9333 33.7112 55.4363 33.5024C55.7187 33.3852 55.9852 33.2584 56.2401 33.0899C56.3473 33.0205 56.4664 32.9663 56.5595 32.8791C57.0011 32.4658 57.3338 31.9874 57.533 31.3655C57.7252 30.7658 57.8321 30.152 57.8444 29.5415C57.8831 27.6301 57.8452 25.7171 57.8652 23.805C57.8745 22.9317 57.7568 22.0507 57.9545 21.1842Z" fill="#6000E5"/>
<path fill-rule="evenodd" clip-rule="evenodd" d="M70.0066 16.0263C70.0148 16.035 70.0169 16.0452 70.0126 16.0568C70.0108 16.0894 70.0073 16.122 70.0073 16.1545C70.0078 19.6912 70.0086 23.2279 70.009 26.7646C70.0094 29.5743 70.0094 32.3839 70.0094 35.1935C69.8241 35.5974 69.5355 35.7874 69.1118 35.7455C68.8667 35.7213 68.6176 35.7512 68.3712 35.7366C68.0925 35.72 67.8695 35.5937 67.7649 35.2878C67.7632 35.0753 67.7599 34.8629 67.7599 34.6504C67.7596 28.8482 67.7598 23.046 67.7598 17.2438C67.7598 16.9006 67.7569 16.5573 67.7608 16.2142C67.7633 15.988 67.9341 15.682 68.1141 15.6446C68.5116 15.5619 68.91 15.4422 69.3205 15.597C69.4722 15.6542 69.6386 15.665 69.7983 15.6968L69.8106 15.7072C69.8585 15.8285 69.9066 15.9496 69.9545 16.0709C69.9719 16.0561 69.9892 16.0412 70.0066 16.0263Z" fill="#6000E5"/>
<path fill-rule="evenodd" clip-rule="evenodd" d="M107.358 23.1249C107.306 23.1605 107.254 23.1959 107.203 23.2314C107.116 23.2464 107.03 23.2735 106.944 23.2744C106.334 23.2801 105.724 23.2805 105.114 23.2826C104.778 23.3456 104.436 23.3798 104.11 23.4804C103.84 23.564 103.539 23.6669 103.342 23.8666C103.056 24.1556 102.718 24.4286 102.608 24.8797C102.54 25.1546 102.475 25.43 102.406 25.7045C102.362 25.8794 102.313 26.0527 102.27 26.2277C102.257 26.2783 102.245 26.3341 102.252 26.3844C102.268 26.5003 102.314 26.6142 102.315 26.7291C102.321 27.5782 102.318 28.4274 102.318 29.2765C102.318 31.1054 102.321 32.9343 102.314 34.7632C102.313 35.0112 102.306 35.2882 102.103 35.4528C101.982 35.5508 101.816 35.6093 101.664 35.6286C101.435 35.6577 101.2 35.637 100.968 35.6374C100.878 35.6367 100.787 35.6361 100.697 35.6354C100.639 35.6336 100.581 35.6316 100.524 35.6297C100.491 35.5666 100.473 35.4747 100.424 35.4455C100.235 35.3333 100.153 35.184 100.153 34.9393C100.159 30.678 100.157 26.4167 100.158 22.1554C100.158 22.009 100.166 21.8625 100.173 21.7162C100.193 21.2628 100.38 21.0755 100.773 21.1121C100.795 21.1141 100.819 21.1095 100.839 21.1007C101.232 20.9284 101.623 21.0102 102.001 21.1438C102.097 21.1777 102.196 21.3341 102.22 21.4519C102.276 21.7306 102.283 22.0207 102.321 22.3045C102.329 22.3692 102.379 22.4274 102.41 22.4886C102.488 22.3985 102.56 22.3021 102.643 22.2195C102.853 22.0115 103.068 21.8097 103.281 21.6054C103.293 21.6008 103.301 21.5927 103.308 21.5812L103.314 21.5659C103.314 21.5659 103.329 21.5644 103.329 21.5644C103.496 21.503 103.681 21.4721 103.828 21.3744C104.255 21.0901 104.736 21.063 105.206 21.0309C105.765 20.9927 106.328 21.0151 106.889 21.025C107.015 21.0273 107.14 21.0865 107.266 21.1195L107.268 21.1209C107.298 21.1527 107.329 21.1846 107.359 21.2165C107.39 21.2158 107.42 21.2153 107.45 21.2147L107.45 21.2146C107.478 21.3352 107.54 21.459 107.53 21.5757C107.487 22.0936 107.689 22.6456 107.358 23.1249Z" fill="#6000E5"/>
<path fill-rule="evenodd" clip-rule="evenodd" d="M64.7998 21.0738C65.0356 21.2489 65.0958 21.508 65.0956 21.7986C65.0946 23.2025 65.0948 24.6063 65.0948 26.0101C65.0949 28.9484 65.0943 31.8866 65.0964 34.8249C65.0967 35.1161 65.04 35.3761 64.8224 35.5669C64.7705 35.6124 64.712 35.6682 64.6507 35.6785C64.1416 35.7644 63.6316 35.81 63.1253 35.6527C63.1352 35.6326 63.1565 35.5976 63.1535 35.595C63.0389 35.4933 62.9222 35.3945 62.8057 35.2954L62.8076 35.2969C62.8096 35.2562 62.8134 35.2155 62.8134 35.1748C62.8129 30.7163 62.8121 26.2578 62.8114 21.7994C62.8114 21.7259 62.8087 21.6521 62.8135 21.579C62.8323 21.289 63.0482 21.0168 63.3095 21.029C63.7732 21.0507 64.2465 20.9132 64.7018 21.1134C64.7257 21.1239 64.7668 21.0881 64.7998 21.0738Z" fill="#6000E5"/>
<path fill-rule="evenodd" clip-rule="evenodd" d="M62.6344 15.7891C62.8008 15.5439 63.0318 15.4758 63.3001 15.4813C63.7257 15.4899 64.1516 15.4808 64.5773 15.4844C65.0669 15.4886 65.3546 15.8036 65.3561 16.3379C65.3574 16.8345 65.3545 17.3311 65.3496 17.8276C65.3464 18.1606 65.2391 18.4302 64.9417 18.5744C64.2645 18.5707 63.5875 18.5669 62.9104 18.5632C62.879 18.5191 62.8544 18.4654 62.8152 18.4324C62.5871 18.2408 62.5178 17.9903 62.5373 17.6835C62.5773 17.0526 62.4618 16.4123 62.6344 15.7891Z" fill="#6000E5"/>
<path fill-rule="evenodd" clip-rule="evenodd" d="M125.897 15.8152C125.99 15.5345 126.184 15.4052 126.447 15.402C126.948 15.3961 127.449 15.3927 127.95 15.4036C128.341 15.4121 128.587 15.6936 128.592 16.1228C128.597 16.5955 128.598 17.0683 128.592 17.5409C128.586 17.9443 128.342 18.2138 127.969 18.2204C127.468 18.2292 126.967 18.2279 126.466 18.2217C126.208 18.2185 126.004 18.1034 125.899 17.8285C125.899 17.1574 125.898 16.4863 125.897 15.8152Z" fill="#6000E5"/>
<path fill-rule="evenodd" clip-rule="evenodd" d="M40.6129 35.678C40.2103 35.7062 39.8077 35.7578 39.405 35.7587C36.5304 35.7654 33.6557 35.7619 30.7811 35.7599C30.7095 35.7599 30.638 35.7398 30.5664 35.7291C30.5752 35.6495 30.5916 35.5699 30.5916 35.4903C30.5929 31.4047 30.5924 27.3192 30.5929 23.2336C30.5933 19.622 30.5945 16.0104 30.5954 12.3987C30.775 12.3976 30.9545 12.3965 31.1341 12.3955C31.2204 12.4095 31.3067 12.4357 31.393 12.4358C33.9868 12.4379 36.5805 12.4377 39.1743 12.4358C39.2538 12.4358 39.3334 12.4128 39.4129 12.4005C39.6411 12.4149 39.8692 12.4294 40.0974 12.4439C40.0889 12.4512 40.0802 12.4585 40.0715 12.4657C40.1061 12.4624 40.1408 12.4591 40.1754 12.4558C40.5151 12.5175 40.8549 12.5793 41.1947 12.641C41.1857 12.6553 41.1768 12.6696 41.1678 12.684C41.0629 12.6825 40.9566 12.6925 40.8533 12.6775C40.4479 12.6185 40.0437 12.4985 39.6386 12.4963C36.7146 12.4802 33.7904 12.4883 30.8662 12.4845C30.6984 12.4842 30.6353 12.5616 30.6364 12.7313C30.6376 12.9313 30.6363 13.1314 30.6363 13.3315C30.6363 20.4818 30.6363 27.6322 30.6363 34.7825C30.6363 34.9826 30.6375 35.1826 30.6364 35.3827C30.6351 35.6056 30.7594 35.7117 30.9775 35.6829C31.1398 35.6615 31.3036 35.6398 31.4667 35.6397C34.2559 35.637 37.0451 35.6407 39.8342 35.6336C40.1607 35.6328 40.489 35.5925 40.8128 35.542C41.1248 35.4934 41.4356 35.4225 41.7403 35.3345C42.0403 35.2479 42.3443 35.1562 42.6239 35.0138C42.8869 34.8798 43.1174 34.6716 43.3679 34.5064C43.4666 34.4413 43.6063 34.4317 43.6829 34.3484C43.8639 34.1514 44.0611 33.9824 44.2577 33.8068C44.5131 33.5787 44.7205 33.2687 44.8979 32.9594C45.1087 32.5922 45.282 32.1959 45.4397 31.7973C45.5339 31.559 45.5671 31.292 45.6281 31.038C45.6355 31.0072 45.6379 30.9714 45.6543 30.9472C45.877 30.6205 45.8578 30.214 45.8736 29.8562C45.9102 29.0305 45.9404 28.2021 45.733 27.3762C45.6182 26.9192 45.4031 26.5252 45.2568 26.0927C45.202 25.931 45.0945 25.7864 44.995 25.6477C44.7863 25.3566 44.5991 25.0331 44.3442 24.799C43.9977 24.4809 43.598 24.2308 43.2175 23.9576C42.9435 23.7608 42.9304 23.7433 43.2364 23.5687C43.8002 23.247 44.2144 22.7438 44.6117 22.2316C44.8424 21.9342 44.9937 21.5619 45.1707 21.2171C45.4573 20.659 45.5463 20.0271 45.6012 19.4153C45.6561 18.8033 45.5594 18.175 45.5239 17.5542C45.5204 17.493 45.4758 17.4357 45.4576 17.3741C45.4203 17.248 45.3637 17.1215 45.3581 16.993C45.3386 16.5419 45.1156 16.1758 44.951 15.787C44.8674 15.5896 44.7454 15.4108 44.6358 15.2271C44.5056 15.0088 44.4018 14.7562 44.23 14.5864C43.9399 14.2996 43.6271 14.0404 43.3713 13.7132C43.3711 13.6946 43.371 13.676 43.3709 13.6575C44.5809 14.54 45.272 15.7979 45.5608 17.3263C45.827 18.7353 45.7906 20.1234 45.1769 21.4384C44.7351 22.385 44.1088 23.1485 43.2565 23.68C43.2132 23.707 43.1753 23.7442 43.1813 23.7395C43.6509 24.1349 44.1583 24.4909 44.5861 24.9376C45.4121 25.8003 45.8305 26.9 45.9583 28.1306C46.108 29.5718 45.9633 30.9732 45.3723 32.2848C44.5567 34.0943 43.161 35.0885 41.3994 35.5359C41.1741 35.5931 40.9423 35.6203 40.7135 35.6614C40.68 35.667 40.6464 35.6725 40.6129 35.678Z" fill="#6000E5"/>
<path fill-rule="evenodd" clip-rule="evenodd" d="M51.2168 31.848C51.1226 31.6737 50.9989 31.5105 50.9396 31.3231C50.7007 30.5684 50.6569 29.7838 50.6592 28.9903C50.6664 26.5638 50.6619 24.1374 50.6612 21.7109C50.6611 21.2946 50.413 21.0217 50.0359 21.0206C49.7361 21.0195 49.4362 21.0245 49.1364 21.0195C48.7875 21.0136 48.4851 21.2079 48.498 21.7127C48.5076 22.0882 48.5 22.4643 48.5002 22.8401C48.5009 25.3891 48.4955 27.9382 48.5093 30.4871C48.5112 30.8341 48.6143 31.1796 48.6607 31.5273C48.7492 32.1902 49.0155 32.7783 49.311 33.3507C49.4287 33.5787 49.5981 33.7744 49.7355 33.9912C49.787 34.0726 49.8145 34.1721 49.853 34.2635C49.3049 33.6885 48.9622 32.9794 48.7299 32.2015C48.4867 31.3874 48.3744 30.5502 48.375 29.6935C48.3768 27.0866 48.3755 24.4796 48.3756 21.8726C48.3757 21.1876 48.6353 20.905 49.2627 20.9048C49.4952 20.9047 49.7276 20.9035 49.9601 20.9053C50.4696 20.9093 50.7539 21.2172 50.7542 21.7735C50.7554 24.1925 50.7612 26.6115 50.7513 29.0306C50.7473 30.0043 50.8576 30.9488 51.2168 31.848Z" fill="#6000E5"/>
<path fill-rule="evenodd" clip-rule="evenodd" d="M102.411 22.4885C102.38 22.4273 102.33 22.369 102.321 22.3043C102.284 22.0205 102.276 21.7305 102.22 21.4518C102.196 21.334 102.097 21.1775 102.001 21.1436C101.623 21.01 101.232 20.9282 100.839 21.1006C100.819 21.1094 100.795 21.1139 100.774 21.1119C100.381 21.0754 100.194 21.2626 100.173 21.7161C100.167 21.8623 100.158 22.0088 100.158 22.1552C100.157 26.4165 100.159 30.6778 100.154 34.9391C100.153 35.1838 100.235 35.3332 100.424 35.4453C100.474 35.4745 100.492 35.5665 100.524 35.6296C100.498 35.635 100.473 35.6404 100.447 35.6458C100.18 35.5254 100.077 35.2863 100.059 34.9924C100.049 34.8298 100.055 34.666 100.055 34.5026C100.056 30.2652 100.059 26.0276 100.053 21.7901C100.052 21.3162 100.269 20.9053 100.869 20.9078C101.131 20.9089 101.394 20.9174 101.656 20.9055C102.097 20.8853 102.444 21.2991 102.42 21.7299C102.406 21.982 102.413 22.2355 102.411 22.4885Z" fill="#6000E5"/>
<path fill-rule="evenodd" clip-rule="evenodd" d="M88.0012 22.5215C87.98 22.5856 87.9728 22.6621 87.9356 22.712C87.459 23.3501 87.0395 24.038 86.7773 24.8025C86.573 25.3982 86.4351 26.0243 86.3665 26.6764C86.284 27.4609 86.3138 28.2385 86.305 29.0187C86.3005 29.4226 86.3217 29.8367 86.4012 30.2294C86.506 30.7471 86.6925 31.2445 86.82 31.7576C86.9664 32.3472 87.2385 32.8675 87.5641 33.3476C87.9328 33.8908 88.365 34.37 88.866 34.7868C89.273 35.1254 89.7185 35.3611 90.1804 35.5605C90.6957 35.7831 91.239 35.9212 91.8001 35.9287C92.2346 35.9344 92.6723 35.9621 93.103 35.917C93.4877 35.8769 93.8689 35.7669 94.2444 35.6578C94.6597 35.5371 95.0667 35.3825 95.4774 35.2427C95.4887 35.2579 95.5 35.273 95.5113 35.2882C94.7035 35.7395 93.8333 35.9292 92.9386 36.0082C91.4004 36.1439 89.9665 35.8366 88.7133 34.7941C87.7243 33.9714 87.027 32.9072 86.6539 31.6223C86.0001 29.3711 85.9783 27.1032 86.6767 24.856C86.9504 23.9752 87.3927 23.1871 88.0012 22.5215Z" fill="#6000E5"/>
<path fill-rule="evenodd" clip-rule="evenodd" d="M74.9922 35.2116C75.0393 35.2109 75.0913 35.1954 75.1327 35.2118C75.6062 35.3995 76.0701 35.6215 76.5524 35.7761C77.204 35.9851 77.8825 35.9584 78.5521 35.9175C78.9016 35.8962 79.2473 35.7984 79.5936 35.7285C79.6645 35.7142 79.7305 35.6705 79.7983 35.6391C79.9923 35.5494 80.2053 35.49 80.3761 35.363C80.8589 35.0042 81.3994 34.7163 81.7211 34.1406C81.7488 34.0909 81.8685 34.0762 81.9374 34.0908C81.9724 34.0983 82.0052 34.2051 82.0117 34.2702C82.0329 34.4818 82.0452 34.6947 82.0528 34.9075C82.0557 34.9881 82.0128 35.0768 82.0314 35.1494C82.1016 35.4225 82.3677 35.6332 82.6289 35.6366C82.8837 35.6399 83.1386 35.6317 83.3932 35.6387C83.7672 35.6488 84.0661 35.5373 84.184 35.1021C84.1898 35.0808 84.2118 35.0648 84.2263 35.0463C84.2333 35.0491 84.2405 35.0544 84.2474 35.0539C84.253 35.0535 84.2627 35.0467 84.2629 35.0422C84.2665 34.9778 84.2709 34.9134 84.2709 34.849C84.2712 28.7227 84.2714 22.5964 84.2694 16.4702C84.2694 16.3852 84.2424 16.3003 84.228 16.2154C84.1963 16.1015 84.1645 15.9876 84.1327 15.8737L84.1542 15.8735L84.1757 15.874C84.2123 16.0451 84.2805 16.2162 84.2807 16.3873C84.2867 21.3567 84.2859 26.3262 84.2861 31.2955C84.2861 32.4888 84.2866 33.6821 84.2851 34.8755C84.2844 35.4306 84.0017 35.7413 83.4944 35.7461C83.2094 35.7487 82.9243 35.7509 82.6395 35.744C82.2147 35.7336 81.9226 35.415 81.9121 34.9527C81.9066 34.7091 81.9111 34.4652 81.9111 34.1861C81.855 34.2227 81.8209 34.2342 81.8011 34.2593C80.9121 35.3794 79.7786 35.9296 78.4311 36.0134C77.3005 36.0837 76.2187 35.9099 75.2012 35.3482C75.1289 35.3083 75.0617 35.2574 74.9922 35.2116Z" fill="#6000E5"/>
<path fill-rule="evenodd" clip-rule="evenodd" d="M58.1299 35.5377C58.2637 35.5704 58.3965 35.6234 58.5316 35.6314C58.7854 35.6464 59.0406 35.6355 59.2953 35.6352C59.8113 35.6344 60.0201 35.4078 60.0201 34.8466C60.0203 30.4877 60.0204 26.1288 60.0202 21.7699C60.0202 21.2703 59.7929 21.0292 59.336 21.0195C58.9866 21.012 58.6376 20.9853 58.2886 20.9672C58.3503 20.9477 58.4116 20.9126 58.4734 20.9113C58.7881 20.9052 59.1031 20.9001 59.4176 20.9094C59.8287 20.9214 60.113 21.236 60.1297 21.6843C60.1343 21.8066 60.1306 21.9293 60.1306 22.0518C60.1305 26.3155 60.1299 30.5793 60.1319 34.8431C60.1321 35.098 60.1057 35.3491 59.9154 35.51C59.7866 35.6188 59.6166 35.7121 59.458 35.7278C59.1235 35.7611 58.7841 35.7475 58.4473 35.7345C58.341 35.7304 58.2365 35.6673 58.1312 35.6312C58.1308 35.6001 58.1303 35.5689 58.1299 35.5377Z" fill="#6000E5"/>
<path fill-rule="evenodd" clip-rule="evenodd" d="M100.967 35.6376C101.2 35.6371 101.434 35.6578 101.663 35.6287C101.815 35.6094 101.981 35.5509 102.102 35.453C102.305 35.2883 102.313 35.0113 102.314 34.7633C102.32 32.9344 102.317 31.1055 102.317 29.2766C102.317 28.4275 102.32 27.5783 102.314 26.7293C102.313 26.6143 102.267 26.5004 102.251 26.3845C102.244 26.3342 102.256 26.2784 102.269 26.2278C102.312 26.0528 102.362 25.8795 102.405 25.7046C102.474 25.4301 102.539 25.1547 102.607 24.8799C102.717 24.4287 103.055 24.1557 103.341 23.8667C103.539 23.6671 103.839 23.5642 104.109 23.4805C104.435 23.38 104.778 23.3457 105.113 23.2827C105.184 23.2962 105.256 23.321 105.327 23.3214C105.919 23.3247 106.512 23.3235 107.104 23.3236C106.995 23.3387 106.885 23.3632 106.775 23.3671C106.057 23.3927 105.333 23.3573 104.622 23.4489C103.452 23.5998 102.731 24.3762 102.51 25.6329C102.449 25.9834 102.425 26.3465 102.424 26.704C102.418 29.3902 102.421 32.0765 102.421 34.7628C102.421 34.8607 102.423 34.9594 102.413 35.0563C102.375 35.4222 102.116 35.7138 101.779 35.7348C101.481 35.7532 101.181 35.7344 100.882 35.732C100.91 35.7005 100.939 35.669 100.967 35.6376Z" fill="#6000E5"/>
<path fill-rule="evenodd" clip-rule="evenodd" d="M69.7978 15.6963C69.6381 15.6644 69.4717 15.6537 69.3201 15.5965C68.9095 15.4416 68.5111 15.5614 68.1136 15.6441C67.9336 15.6816 67.7629 15.9874 67.7603 16.2137C67.7565 16.5568 67.7593 16.9001 67.7593 17.2433C67.7593 23.0455 67.7592 28.8477 67.7594 34.6499C67.7594 34.8623 67.7627 35.0747 67.7644 35.2872C67.7349 35.1571 67.6794 35.0269 67.6793 34.8967C67.6751 28.7078 67.6753 22.5189 67.6765 16.33C67.6766 15.8084 67.9712 15.487 68.4435 15.4827C68.7356 15.48 69.0302 15.4579 69.3191 15.4917C69.4836 15.5109 69.6386 15.625 69.7978 15.6963Z" fill="#6000E5"/>
<path fill-rule="evenodd" clip-rule="evenodd" d="M128.369 21.5124C128.375 21.5932 128.385 21.674 128.385 21.7548C128.386 26.0926 128.386 30.4303 128.386 34.7682C128.386 35.411 128.2 35.6117 127.604 35.6146C127.289 35.6161 126.974 35.6202 126.66 35.6124C126.262 35.6026 126.03 35.3501 126.029 34.9207C126.028 30.5013 126.027 26.0818 126.034 21.6623C126.034 21.5126 126.117 21.363 126.161 21.2134L126.175 21.2195C126.143 21.4001 126.083 21.5806 126.082 21.7612C126.077 26.115 126.077 30.4688 126.081 34.8226C126.081 35.2751 126.311 35.5522 126.743 35.5412C127.057 35.5331 127.372 35.5395 127.687 35.5377C128.062 35.5356 128.222 35.4007 128.329 34.9985C128.341 34.9038 128.362 34.8093 128.362 34.7146C128.364 30.4132 128.364 26.1118 128.363 21.8105C128.363 21.7128 128.357 21.6151 128.354 21.5173L128.369 21.5124Z" fill="#6000E5"/>
<path fill-rule="evenodd" clip-rule="evenodd" d="M64.7985 21.0739C64.7654 21.0882 64.7244 21.124 64.7005 21.1135C64.2452 20.9133 63.7719 21.0508 63.3082 21.0291C63.0469 21.0169 62.831 21.2891 62.8121 21.5791C62.8074 21.6522 62.81 21.726 62.8101 21.7995C62.8108 26.2579 62.8115 30.7164 62.812 35.1749C62.812 35.2156 62.8083 35.2563 62.8063 35.297C62.7769 35.1661 62.7219 35.0352 62.7218 34.9043C62.7172 30.5174 62.7171 26.1306 62.7187 21.7438C62.7189 21.2291 63.0014 20.914 63.469 20.9071C63.7901 20.9024 64.1115 20.9182 64.4327 20.9248C64.4289 20.9373 64.4252 20.9498 64.4215 20.9624C64.453 20.9533 64.4845 20.9443 64.516 20.9353C64.6102 20.9815 64.7044 21.0277 64.7985 21.0739Z" fill="#6000E5"/>
<path fill-rule="evenodd" clip-rule="evenodd" d="M72.6184 24.5529C72.4737 25.0845 72.3153 25.6123 72.19 26.1493C72.1235 26.4343 72.0908 26.7347 72.0848 27.0291C72.07 27.7561 72.0688 28.484 72.0833 29.2109C72.0912 29.6077 72.0978 30.0154 72.1839 30.3971C72.3172 30.9883 72.5153 31.5624 72.6911 32.1419C72.8606 32.7008 73.1639 33.1827 73.4703 33.6564C73.6559 33.9435 73.8946 34.1898 74.1094 34.4546C74.0952 34.4633 74.0812 34.472 74.0671 34.4808C73.3193 33.7723 72.8221 32.8816 72.4735 31.8818C72.006 30.5412 71.9285 29.1452 71.9664 27.7308C71.994 26.702 72.1373 25.6981 72.4685 24.7307C72.4997 24.6395 72.5397 24.5518 72.5756 24.4624C72.5899 24.4926 72.6042 24.5228 72.6184 24.5529Z" fill="#6000E5"/>
<path fill-rule="evenodd" clip-rule="evenodd" d="M109.184 35.6124C108.884 35.6124 108.584 35.6194 108.285 35.6107C107.924 35.6001 107.691 35.358 107.685 34.9647C107.674 34.3112 107.674 33.6572 107.684 33.0038C107.69 32.5877 107.949 32.3174 108.328 32.314C108.905 32.3089 109.483 32.3082 110.06 32.3152C110.435 32.3197 110.685 32.5808 110.691 32.9885C110.702 33.6502 110.7 34.3123 110.692 34.9741C110.687 35.3454 110.451 35.599 110.106 35.6114C109.799 35.6226 109.492 35.6138 109.184 35.6138C109.184 35.6134 109.184 35.6129 109.184 35.6124ZM110.148 35.5319C110.193 35.4995 110.234 35.4578 110.282 35.436C110.487 35.3443 110.597 35.1813 110.598 34.9407C110.6 34.3205 110.602 33.7001 110.597 33.0799C110.593 32.6654 110.371 32.4076 110.004 32.4018C109.443 32.3928 108.881 32.3948 108.319 32.4027C108.06 32.4063 107.835 32.6226 107.807 32.9015C107.787 33.1067 107.804 33.3163 107.804 33.5239C107.804 34.0136 107.811 34.5035 107.801 34.993C107.797 35.2249 107.908 35.3468 108.077 35.4423C108.111 35.462 108.137 35.5008 108.166 35.5308C108.171 35.5371 108.176 35.549 108.18 35.549C108.849 35.5567 109.518 35.5634 110.186 35.5703C110.181 35.5598 110.177 35.5479 110.169 35.5393C110.165 35.5342 110.155 35.5342 110.148 35.5319Z" fill="#6000E5"/>
<path fill-rule="evenodd" clip-rule="evenodd" d="M57.9554 21.1841C57.7578 22.0505 57.8754 22.9315 57.8663 23.805C57.8462 25.717 57.8842 27.6301 57.8455 29.5414C57.8332 30.152 57.7262 30.7657 57.5341 31.3654C57.3349 31.9873 57.0021 32.4658 56.5606 32.8791C56.4675 32.9662 56.3483 33.0205 56.2412 33.0898C56.2413 33.0628 56.2415 33.0358 56.2417 33.0089C57.1166 32.3958 57.5267 31.4744 57.6754 30.3934C57.7318 29.9835 57.7589 29.5651 57.7602 29.1504C57.7679 26.7022 57.7641 24.2538 57.7639 21.8055C57.7639 21.5747 57.772 21.3475 57.9554 21.1841Z" fill="#6000E5"/>
<path fill-rule="evenodd" clip-rule="evenodd" d="M81.5683 22.1959C81.5055 22.1598 81.4354 22.1336 81.3814 22.0859C81.1862 21.9136 80.9985 21.7311 80.8021 21.5605C80.7743 21.5364 80.7137 21.5572 80.7141 21.5572C80.5638 21.4414 80.4441 21.313 80.3004 21.246C80.0174 21.114 79.7276 20.9823 79.4285 20.9123C79.0324 20.8196 78.6254 20.7474 78.2217 20.7375C77.755 20.726 77.2824 20.7588 76.8201 20.8313C76.098 20.9446 75.4259 21.2406 74.8079 21.6601C74.4853 21.8793 74.1928 22.151 73.8865 22.3989C73.8706 22.3979 73.8548 22.397 73.8389 22.3961C74.4052 21.7392 75.0932 21.2857 75.8688 20.9945C77.2251 20.4852 78.5921 20.4687 79.9514 20.9729C80.5183 21.1832 81.0051 21.5563 81.4406 22.0039C81.4924 22.0572 81.5261 22.1314 81.5683 22.1959Z" fill="#6000E5"/>
<path fill-rule="evenodd" clip-rule="evenodd" d="M121.121 24.3574C121.124 24.4206 121.127 24.4836 121.13 24.5468C121.158 24.6145 121.186 24.6821 121.214 24.7497C121.216 24.8459 121.218 24.9422 121.22 25.0384C121.219 25.4365 121.225 25.8349 121.214 26.2327C121.212 26.3271 121.157 26.4198 121.126 26.5133C120.961 26.5465 120.797 26.585 120.63 26.6116C120.257 26.6716 119.883 26.726 119.509 26.782C119.229 26.8239 118.949 26.86 118.67 26.9071C118.335 26.9637 118.002 27.0324 117.667 27.0899C117.426 27.1312 117.18 27.1446 116.943 27.2025C116.496 27.3116 116.048 27.4225 115.612 27.5726C115.193 27.7166 114.789 27.911 114.378 28.0833C114.355 28.0682 114.331 28.0532 114.307 28.0382C115.033 27.5747 115.826 27.2962 116.646 27.1473C118.064 26.8901 119.49 26.6863 120.912 26.4597C120.999 26.4458 121.086 26.4293 121.182 26.4125C121.212 25.637 121.228 24.8812 120.946 24.1607L120.955 24.1519C120.982 24.1549 121.009 24.1579 121.036 24.1609C121.037 24.1915 121.039 24.222 121.041 24.2526C121.068 24.2875 121.094 24.3225 121.121 24.3574Z" fill="#6000E5"/>
<path fill-rule="evenodd" clip-rule="evenodd" d="M30.5958 12.3999C30.5949 16.0116 30.5937 19.6232 30.5933 23.2348C30.5928 27.3204 30.5933 31.406 30.592 35.4916C30.592 35.5711 30.5756 35.6507 30.5668 35.7303C30.5601 35.6334 30.5474 35.5367 30.5474 35.4399C30.5466 27.857 30.5466 20.2741 30.5489 12.6912C30.5489 12.5941 30.5795 12.497 30.5958 12.3999Z" fill="#6000E5"/>
<path fill-rule="evenodd" clip-rule="evenodd" d="M123.102 35.5295C123.185 35.4577 123.299 35.4035 123.345 35.3098C123.411 35.1739 123.46 35.0094 123.461 34.857C123.467 31.764 123.469 28.6709 123.462 25.5779C123.461 25.1985 123.409 24.8192 123.381 24.4399C123.41 24.5096 123.457 24.577 123.465 24.6494C123.503 24.9976 123.556 25.3472 123.557 25.6963C123.564 28.7511 123.561 31.8059 123.561 34.8607C123.56 35.2461 123.457 35.4237 123.168 35.5445C123.146 35.5395 123.124 35.5345 123.102 35.5295Z" fill="#6000E5"/>
<path fill-rule="evenodd" clip-rule="evenodd" d="M121.818 21.6856C121.723 21.6559 121.62 21.6446 121.536 21.5934C121.178 21.3732 120.798 21.233 120.407 21.0911C119.82 20.8785 119.237 20.8184 118.635 20.8213C118.107 20.8238 117.576 20.7829 117.054 20.8448C116.784 20.877 116.491 20.8872 116.226 21.081C116.024 21.2293 115.729 21.2185 115.489 21.3178C115.287 21.4016 115.107 21.5486 114.911 21.6536C114.844 21.6894 114.758 21.6823 114.681 21.6947C115.248 21.2454 115.886 20.9697 116.568 20.8341C118.052 20.5391 119.523 20.5799 120.95 21.1616C121.257 21.2864 121.53 21.5084 121.818 21.6856Z" fill="#6000E5"/>
<path fill-rule="evenodd" clip-rule="evenodd" d="M113.115 34.2632C113.264 34.3761 113.411 34.4935 113.563 34.6004C113.683 34.6843 113.81 34.7561 113.935 34.8308C113.966 34.8496 114.016 34.8479 114.034 34.8744C114.334 35.3139 114.806 35.3857 115.235 35.5464C115.766 35.7452 116.318 35.807 116.874 35.7804C117.538 35.7487 118.194 35.6826 118.841 35.4617C119.347 35.2888 119.8 35.043 120.226 34.7127C120.275 34.6749 120.348 34.6747 120.41 34.657C119.917 35.1309 119.343 35.4462 118.711 35.6137C117.491 35.9367 116.266 36.0186 115.048 35.5913C114.383 35.3577 113.791 34.98 113.277 34.4621C113.218 34.4023 113.169 34.3298 113.115 34.2632Z" fill="#6000E5"/>
<path fill-rule="evenodd" clip-rule="evenodd" d="M95.8991 21.8806C95.7808 21.9237 95.7209 21.8761 95.6233 21.7773C95.4636 21.6157 95.2415 21.526 95.0424 21.4127C94.9125 21.3388 94.782 21.2564 94.6425 21.2138C94.3257 21.1171 94.0189 20.9888 93.6987 20.897C93.0266 20.7044 92.3542 20.7012 91.6818 20.7399C91.193 20.768 90.6984 20.8487 90.2391 21.083C89.893 21.2595 89.533 21.4033 89.1792 21.5617C89.166 21.5459 89.1528 21.5302 89.1396 21.5145C89.7099 21.0978 90.3459 20.8544 91.0152 20.7343C92.6365 20.4433 94.1836 20.65 95.5994 21.6283C95.7055 21.7016 95.7995 21.796 95.8991 21.8806Z" fill="#6000E5"/>
<path fill-rule="evenodd" clip-rule="evenodd" d="M70.0099 35.1934C70.0098 32.3837 70.0099 29.5741 70.0095 26.7645C70.0091 23.2278 70.0083 19.6911 70.0078 16.1544C70.0078 16.1218 70.0113 16.0893 70.0131 16.0566C70.028 16.1591 70.0559 16.2617 70.056 16.3642C70.0581 22.5384 70.0582 28.7126 70.056 34.8868C70.056 34.9891 70.0259 35.0912 70.0099 35.1934Z" fill="#6000E5"/>
<path fill-rule="evenodd" clip-rule="evenodd" d="M114.307 28.0381C114.331 28.0531 114.355 28.0681 114.379 28.0833C114.169 28.2296 113.949 28.3623 113.751 28.5252C113.342 28.8601 112.966 29.2275 112.686 29.7082C112.243 30.4697 112.133 31.3099 112.233 32.1705C112.313 32.866 112.572 33.5073 113.03 34.0315C113.079 34.0882 113.089 34.1859 113.117 34.2646C112.334 33.4264 112.03 32.3994 112.133 31.2246C112.252 29.8607 112.964 28.9224 113.992 28.2225C114.093 28.1538 114.202 28.0992 114.307 28.0381Z" fill="#6000E5"/>
<path fill-rule="evenodd" clip-rule="evenodd" d="M94.9423 32.7941C94.8351 32.8877 94.7361 32.9963 94.6192 33.0723C93.9266 33.5222 93.1711 33.7097 92.3698 33.6718C91.9701 33.6528 91.557 33.6665 91.1764 33.5568C90.7876 33.4449 90.4178 33.2254 90.0649 33.0049C89.7936 32.8353 89.5429 32.6118 89.3186 32.3727C89.178 32.2228 89.1033 31.9995 88.999 31.8091C89.0261 31.8101 89.0532 31.811 89.0803 31.812C89.9804 33.2073 91.2459 33.6776 92.7562 33.5597C93.5275 33.4995 94.243 33.2888 94.8711 32.7808C94.8948 32.7852 94.9186 32.7897 94.9423 32.7941Z" fill="#6000E5"/>
<path fill-rule="evenodd" clip-rule="evenodd" d="M56.2422 33.0092C56.242 33.0361 56.2418 33.0631 56.2417 33.09C55.9868 33.2586 55.7203 33.3854 55.4379 33.5026C54.9349 33.7114 54.4327 33.6798 53.9284 33.6634C53.5432 33.6509 53.1651 33.5574 52.7912 33.4144C52.2796 33.2187 51.8594 32.896 51.5066 32.4708C51.3684 32.3042 51.311 32.058 51.2168 31.8481C51.492 32.3232 51.8153 32.744 52.2642 33.042C52.644 33.2942 53.0567 33.435 53.4896 33.5028C54.4529 33.6537 55.3848 33.5717 56.2422 33.0092Z" fill="#6000E5"/>
<path fill-rule="evenodd" clip-rule="evenodd" d="M97.9997 28.9686C98.0297 28.9029 98.0597 28.8373 98.0896 28.7716C98.1185 28.7709 98.1474 28.7702 98.1763 28.7695C98.0943 29.1609 97.8403 29.3781 97.4564 29.3789C96.6776 29.3803 95.899 29.379 95.1202 29.379C93.0386 29.3792 90.957 29.3794 88.8754 29.3797C88.7866 29.3797 88.6979 29.3797 88.5537 29.3797C88.5867 29.7773 88.6162 30.1502 88.6494 30.5228C88.6616 30.6591 88.683 30.7944 88.7002 30.9302C88.68 30.929 88.6599 30.9277 88.6397 30.9264C88.6388 30.8953 88.6378 30.8642 88.6369 30.8331C88.6085 30.7659 88.58 30.6986 88.5516 30.6314C88.5493 30.4692 88.5471 30.3071 88.5449 30.145C88.5453 29.8827 88.5456 29.6205 88.5459 29.3582L88.5484 29.3555C88.6681 29.3551 88.7878 29.3544 88.9076 29.3544C91.7211 29.3543 94.5347 29.355 97.3482 29.3504C97.4309 29.3503 97.5135 29.2942 97.5962 29.2643C97.6387 29.2618 97.6813 29.2594 97.7239 29.257C97.7557 29.2261 97.7874 29.1951 97.8192 29.1642C97.8492 29.1315 97.8792 29.0987 97.9092 29.066C97.9393 29.0335 97.9695 29.0011 97.9997 28.9686Z" fill="#6000E5"/>
<path fill-rule="evenodd" clip-rule="evenodd" d="M82.0701 15.9194C82.0396 16.1334 81.9835 16.3474 81.9828 16.5616C81.9762 18.4632 81.9806 20.3649 81.9755 22.2665C81.9752 22.3489 81.914 22.4311 81.8818 22.5135C81.8939 22.4102 81.9153 22.3068 81.9154 22.2034C81.9177 20.2553 81.9149 18.3073 81.9224 16.3593C81.923 16.1969 81.9898 16.0348 82.0259 15.8726C82.0406 15.8882 82.0553 15.9037 82.0701 15.9194Z" fill="#6000E5"/>
<path fill-rule="evenodd" clip-rule="evenodd" d="M107.267 21.1192C107.141 21.0863 107.016 21.027 106.889 21.0248C106.328 21.0149 105.766 20.9924 105.207 21.0306C104.736 21.0628 104.256 21.0899 103.828 21.3742C103.682 21.4719 103.497 21.5028 103.33 21.5642C103.553 21.4249 103.762 21.2265 104.001 21.1594C104.446 21.0349 104.906 20.9537 105.364 20.9165C105.862 20.876 106.365 20.8976 106.864 20.9109C106.999 20.9144 107.132 20.9859 107.266 21.0262C107.266 21.0572 107.267 21.0883 107.267 21.1192Z" fill="#6000E5"/>
<path fill-rule="evenodd" clip-rule="evenodd" d="M98.0898 27.1502C98.1002 26.7059 97.9881 26.2794 97.9372 25.8468C97.8748 25.3159 97.6561 24.8557 97.5362 24.3554C97.4864 24.148 97.3395 23.9701 97.2502 23.7716C97.1626 23.5768 97.0918 23.3728 97.0137 23.1729C97.4164 23.7234 97.653 24.3628 97.8452 25.0254C98.1865 26.2025 98.2388 27.4146 98.2091 28.6363C98.2082 28.6669 98.1905 28.6971 98.1807 28.7275C98.1785 28.2874 98.1809 27.8472 98.1706 27.4073C98.1686 27.321 98.118 27.2359 98.0898 27.1502Z" fill="#6000E5"/>
<path fill-rule="evenodd" clip-rule="evenodd" d="M49.8496 34.2617C49.9003 34.2701 49.9641 34.2599 49.9996 34.2897C50.2751 34.5216 50.5252 34.7981 50.8219 34.9894C51.2099 35.2395 51.6235 35.4518 52.0446 35.6277C52.3797 35.7676 52.7426 35.8285 53.0932 35.9246C53.0833 35.94 53.0735 35.9554 53.0637 35.9708C51.8728 35.8212 50.8267 35.3287 49.96 34.4127C49.918 34.3682 49.8862 34.3123 49.8496 34.2617Z" fill="#6000E5"/>
<path fill-rule="evenodd" clip-rule="evenodd" d="M114.684 21.6934C114.628 21.7653 114.584 21.8525 114.516 21.9067C113.904 22.4006 113.415 23.0012 113.173 23.8004C113.084 24.0955 113.011 24.4171 113.271 24.6819C113.293 24.7038 113.286 24.7582 113.293 24.7973C113.09 24.7165 113.011 24.529 113.019 24.3236C113.028 24.0988 113.057 23.8628 113.133 23.6554C113.44 22.8095 113.949 22.1426 114.684 21.6934Z" fill="#6000E5"/>
<path fill-rule="evenodd" clip-rule="evenodd" d="M39.4126 12.4009C39.333 12.4132 39.2535 12.4362 39.1739 12.4362C36.5802 12.4381 33.9864 12.4383 31.3927 12.4362C31.3064 12.4361 31.2201 12.4099 31.1338 12.3959C31.1933 12.392 31.2529 12.3847 31.3124 12.3847C33.9307 12.3841 36.549 12.3841 39.1673 12.385C39.249 12.385 39.3308 12.3953 39.4126 12.4009Z" fill="#6000E5"/>
<path fill-rule="evenodd" clip-rule="evenodd" d="M53.0654 35.971C53.0752 35.9556 53.0851 35.9402 53.0949 35.9248C53.5672 35.9258 54.0409 35.9523 54.5113 35.9209C55.0284 35.8865 55.5323 35.7504 56.0102 35.5241C56.1817 35.4429 56.3431 35.3365 56.5091 35.2417C56.5201 35.257 56.5312 35.2724 56.5422 35.2877C56.0912 35.6487 55.575 35.8337 55.0312 35.9296C54.3789 36.0448 53.7228 36.0752 53.0654 35.971Z" fill="#6000E5"/>
<path fill-rule="evenodd" clip-rule="evenodd" d="M97.6916 32.8466C97.7464 32.5439 97.7977 32.2271 97.5162 32.0283C97.3629 31.92 97.1684 31.8293 96.9905 31.8251C96.6503 31.8171 96.3042 31.8499 95.9697 31.9189C95.7946 31.9549 95.639 32.1035 95.4746 32.2013C95.6519 31.9267 95.8909 31.7603 96.2011 31.7497C96.521 31.7387 96.8424 31.7331 97.1617 31.753C97.6818 31.7855 97.954 32.2698 97.7565 32.7883C97.747 32.8133 97.7138 32.8274 97.6916 32.8466Z" fill="#6000E5"/>
<path fill-rule="evenodd" clip-rule="evenodd" d="M120.408 34.6582C120.439 34.5857 120.456 34.4985 120.504 34.4434C120.638 34.2881 120.787 34.1471 120.927 33.9975C120.947 33.9766 120.944 33.9289 120.964 33.9106C121.052 33.8314 121.144 33.7584 121.235 33.6831C121.26 33.7919 121.299 33.8994 121.307 34.0096C121.318 34.1872 121.311 34.3665 121.308 34.545C121.303 34.8028 121.291 35.0598 121.461 35.2759C121.474 35.2931 121.441 35.354 121.429 35.3945C121.253 35.2849 121.237 35.0968 121.235 34.9068C121.231 34.5502 121.234 34.1935 121.234 33.8238C120.946 34.1146 120.677 34.3864 120.408 34.6582Z" fill="#6000E5"/>
<path fill-rule="evenodd" clip-rule="evenodd" d="M117.258 22.6914C117.508 22.6584 117.761 22.5833 118.009 22.6014C118.494 22.6369 118.977 22.7241 119.46 22.7899C119.464 22.8182 119.467 22.8465 119.47 22.8748L119.464 22.8822C118.608 22.6781 117.751 22.6513 116.895 22.8824L116.889 22.875C116.892 22.8465 116.895 22.818 116.898 22.7895C116.956 22.7869 117.013 22.7843 117.071 22.7817C117.134 22.7516 117.196 22.7215 117.258 22.6914Z" fill="#6000E5"/>
<path fill-rule="evenodd" clip-rule="evenodd" d="M82.0686 15.9189C82.0538 15.9033 82.0391 15.8877 82.0244 15.8721C82.1499 15.6026 82.366 15.4944 82.6284 15.4867C82.9052 15.4786 83.1826 15.493 83.4593 15.4832C83.7665 15.4724 84.0147 15.5734 84.1751 15.874L84.1537 15.8734L84.1322 15.8736C83.9192 15.6036 83.6132 15.6059 83.3323 15.5854C83.0372 15.5639 82.7333 15.5839 82.4422 15.6404C82.3067 15.6666 82.1924 15.822 82.0686 15.9189Z" fill="#6000E5"/>
<path fill-rule="evenodd" clip-rule="evenodd" d="M62.6337 15.7891C62.4612 16.4122 62.5767 17.0526 62.5367 17.6834C62.5172 17.9903 62.5865 18.2407 62.8146 18.4323C62.8538 18.4653 62.8784 18.519 62.9097 18.5631C62.8936 18.565 62.8776 18.5669 62.8615 18.5687C62.5865 18.4477 62.4688 18.2022 62.4621 17.9023C62.4497 17.3495 62.4464 16.7957 62.467 16.2435C62.4727 16.0898 62.5754 15.9405 62.6337 15.7891Z" fill="#6000E5"/>
<path fill-rule="evenodd" clip-rule="evenodd" d="M126.16 21.2138C126.269 21.0217 126.439 20.9551 126.634 20.9536C127.013 20.9506 127.392 20.9483 127.771 20.9551C128.109 20.9612 128.297 21.1432 128.368 21.5129C128.368 21.5129 128.352 21.5178 128.352 21.5178C128.344 21.5147 128.335 21.513 128.325 21.5128C128.238 21.277 128.103 21.0861 127.862 21.0424C127.702 21.0133 127.535 21.0123 127.372 21.0235C126.99 21.05 126.582 20.9032 126.24 21.2144C126.226 21.227 126.196 21.2186 126.174 21.2198L126.16 21.2138Z" fill="#6000E5"/>
<path fill-rule="evenodd" clip-rule="evenodd" d="M41.168 12.6846C41.1769 12.6703 41.1859 12.656 41.1948 12.6416C41.9758 12.8156 42.6949 13.1487 43.3528 13.639C43.3439 13.6471 43.3355 13.6556 43.3275 13.6648C43.2856 13.6528 43.2382 13.6509 43.2025 13.6275C42.7134 13.3074 42.2051 13.0364 41.6523 12.8702C41.4877 12.8207 41.3292 12.7472 41.168 12.6846Z" fill="#6000E5"/>
<path fill-rule="evenodd" clip-rule="evenodd" d="M56.5419 35.2875C56.5308 35.2721 56.5198 35.2568 56.5088 35.2415C56.7981 34.9782 57.0952 34.7242 57.3732 34.4474C57.5032 34.318 57.5961 34.1444 57.7058 33.9907C57.7302 33.9942 57.7545 33.9977 57.7789 34.0012C57.8049 34.0882 57.8309 34.1752 57.857 34.2621C57.8289 34.2935 57.8008 34.3248 57.7727 34.3561C57.7595 34.3126 57.7463 34.2691 57.7381 34.2417C57.3337 34.5952 56.9378 34.9413 56.5419 35.2875Z" fill="#6000E5"/>
<path fill-rule="evenodd" clip-rule="evenodd" d="M62.8613 18.5691C62.8773 18.5672 62.8934 18.5653 62.9095 18.5635C63.5866 18.5672 64.2637 18.5709 64.9408 18.5747C64.8353 18.605 64.7302 18.6595 64.6243 18.6616C64.1492 18.6709 63.6738 18.6714 63.1988 18.6609C63.0857 18.6584 62.9738 18.6011 62.8613 18.5691Z" fill="#6000E5"/>
<path fill-rule="evenodd" clip-rule="evenodd" d="M72.6189 24.5523C72.6047 24.5222 72.5904 24.492 72.5762 24.4619C72.7992 24.032 73.0223 23.6022 73.2454 23.1724C73.2727 23.3361 73.191 23.426 73.0997 23.5527C72.9337 23.7834 72.8376 24.074 72.7131 24.34C72.6803 24.41 72.6503 24.4815 72.6189 24.5523Z" fill="#6000E5"/>
<path fill-rule="evenodd" clip-rule="evenodd" d="M123.293 24.0545C123.173 23.7837 123.061 23.5079 122.93 23.2434C122.833 23.0467 122.707 22.8671 122.602 22.6744C122.574 22.6233 122.577 22.5522 122.566 22.4902C122.914 22.9538 123.202 23.4497 123.293 24.0545Z" fill="#6000E5"/>
<path fill-rule="evenodd" clip-rule="evenodd" d="M89.1413 21.5142C89.1544 21.5299 89.1676 21.5456 89.1808 21.5613C88.842 21.8635 88.5042 22.1672 88.1625 22.4655C88.1336 22.4906 88.0782 22.4796 88.0352 22.4854C88.4039 22.1617 88.7726 21.8379 89.1413 21.5142Z" fill="#6000E5"/>
<path fill-rule="evenodd" clip-rule="evenodd" d="M107.358 23.1246C107.689 22.6453 107.487 22.0933 107.53 21.5754C107.54 21.4587 107.479 21.3349 107.45 21.2144C107.467 21.2293 107.488 21.2408 107.5 21.2597C107.707 21.6084 107.674 22.751 107.445 23.0824C107.428 23.1065 107.388 23.111 107.358 23.1246Z" fill="#6000E5"/>
<path fill-rule="evenodd" clip-rule="evenodd" d="M115.384 24.0263C115.403 23.9636 115.408 23.8879 115.444 23.8403C115.721 23.4765 116.06 23.1951 116.448 22.9849C116.447 23.0159 116.447 23.0469 116.446 23.0778C116.092 23.394 115.738 23.7102 115.384 24.0263Z" fill="#6000E5"/>
<path fill-rule="evenodd" clip-rule="evenodd" d="M125.897 15.8145C125.898 16.4856 125.899 17.1567 125.9 17.8279C125.899 17.1567 125.898 16.4855 125.897 15.8145Z" fill="#6000E5"/>
<path fill-rule="evenodd" clip-rule="evenodd" d="M96.8406 22.9234C96.7289 22.8385 96.6029 22.769 96.5085 22.6653C96.3008 22.4371 96.1086 22.192 95.9118 21.952C95.8995 21.9369 95.9032 21.9063 95.8994 21.8828C96.2132 22.2297 96.5268 22.5766 96.8406 22.9234Z" fill="#6000E5"/>
<path fill-rule="evenodd" clip-rule="evenodd" d="M113.331 24.8052C113.828 24.8167 114.325 24.8284 114.822 24.84C114.825 24.8552 114.827 24.8705 114.827 24.8861C114.364 24.8943 113.902 24.9049 113.439 24.9061C113.403 24.9063 113.367 24.8404 113.331 24.8052Z" fill="#6000E5"/>
<path fill-rule="evenodd" clip-rule="evenodd" d="M98.0903 27.1504C98.1186 27.2361 98.1692 27.3211 98.1712 27.4075C98.1815 27.8474 98.1791 28.2876 98.1812 28.7277C98.1874 28.7426 98.1859 28.7565 98.1766 28.7694C98.1477 28.7701 98.1188 28.7707 98.0898 28.7715C98.09 28.2311 98.0902 27.6908 98.0903 27.1504Z" fill="#6000E5"/>
<path fill-rule="evenodd" clip-rule="evenodd" d="M96.6367 34.5041C96.6518 34.4597 96.6571 34.406 96.6836 34.3722C96.9099 34.0843 97.1391 33.799 97.3704 33.5158C97.3969 33.4834 97.4416 33.4687 97.478 33.4458C97.2725 33.8694 97.0028 34.2322 96.6367 34.5041Z" fill="#6000E5"/>
<path fill-rule="evenodd" clip-rule="evenodd" d="M123.1 35.5298C123.122 35.5348 123.145 35.5398 123.167 35.5448C122.881 35.5627 122.595 35.5933 122.309 35.5947C122.076 35.5957 121.842 35.5617 121.608 35.5433C122.106 35.5388 122.603 35.5342 123.1 35.5298Z" fill="#6000E5"/>
<path fill-rule="evenodd" clip-rule="evenodd" d="M57.7725 34.3562C57.8006 34.3249 57.8287 34.2936 57.8568 34.2622C57.858 34.507 57.8585 34.7517 57.8605 34.9965C57.8624 35.2289 57.9395 35.4176 58.1309 35.538C58.1314 35.5692 58.1319 35.6004 58.1323 35.6316C57.8765 35.4854 57.7667 35.2491 57.7737 34.9407C57.7735 34.9131 57.7734 34.8855 57.7732 34.8579C57.7729 34.6906 57.7727 34.5235 57.7725 34.3562Z" fill="#6000E5"/>
<path fill-rule="evenodd" clip-rule="evenodd" d="M74.0664 34.4803C74.0805 34.4716 74.0946 34.4629 74.1087 34.4541C74.3665 34.6672 74.6244 34.8804 74.882 35.0935C74.7265 34.9989 74.5642 34.9154 74.4178 34.8066C74.2913 34.7127 74.1829 34.5902 74.0664 34.4803Z" fill="#6000E5"/>
<path fill-rule="evenodd" clip-rule="evenodd" d="M122.566 22.4923C122.505 22.4545 122.433 22.4282 122.383 22.3766C122.24 22.2278 122.104 22.0712 121.97 21.9126C121.912 21.8437 121.865 21.763 121.813 21.6875C122.064 21.9557 122.315 22.224 122.566 22.4923Z" fill="#6000E5"/>
<path fill-rule="evenodd" clip-rule="evenodd" d="M73.8392 22.3965C73.8551 22.3974 73.8709 22.3983 73.8868 22.3992C73.7392 22.7239 73.5247 22.9828 73.2432 23.1758C73.4418 22.916 73.6405 22.6563 73.8392 22.3965Z" fill="#6000E5"/>
<path fill-rule="evenodd" clip-rule="evenodd" d="M114.827 24.885C114.827 24.8695 114.826 24.8541 114.822 24.8389C114.948 24.5945 115.069 24.3463 115.205 24.1089C115.233 24.0599 115.32 24.0509 115.38 24.0234C115.258 24.2588 115.142 24.4981 115.011 24.7269C114.972 24.7948 114.89 24.8331 114.827 24.885Z" fill="#6000E5"/>
<path fill-rule="evenodd" clip-rule="evenodd" d="M107.104 23.3235C106.512 23.3233 105.919 23.3246 105.327 23.3213C105.255 23.3209 105.184 23.296 105.112 23.2826C105.722 23.2805 106.333 23.2801 106.943 23.2744C107.029 23.2735 107.115 23.2464 107.201 23.2314C107.169 23.2621 107.136 23.2928 107.104 23.3235Z" fill="#6000E5"/>
<path fill-rule="evenodd" clip-rule="evenodd" d="M119.869 22.9808C120.099 23.0323 120.305 23.1211 120.398 23.3852C120.086 23.2178 119.774 23.0505 119.462 22.8832L119.468 22.8759C119.468 22.876 119.489 22.8784 119.489 22.8784L119.51 22.875C119.583 22.8797 119.656 22.8843 119.729 22.8889C119.776 22.9195 119.822 22.9501 119.869 22.9808Z" fill="#6000E5"/>
<path fill-rule="evenodd" clip-rule="evenodd" d="M95.8896 35.0614C95.9162 34.9389 95.9457 34.8298 96.101 34.8425C96.147 34.8463 96.1972 34.7806 96.2464 34.7486C96.3698 34.6685 96.4938 34.5894 96.6176 34.5098C96.375 34.6936 96.1323 34.8775 95.8896 35.0614Z" fill="#6000E5"/>
<path fill-rule="evenodd" clip-rule="evenodd" d="M89.0784 31.8129C89.0513 31.8119 89.0242 31.811 88.9971 31.8099C88.9368 31.6803 88.8764 31.5507 88.8161 31.421C88.7875 31.3868 88.7589 31.3525 88.7303 31.3182C88.7277 31.255 88.7252 31.192 88.7227 31.1288C88.7263 31.0766 88.7299 31.0243 88.7335 30.9722C88.8484 31.2524 88.9634 31.5327 89.0784 31.8129Z" fill="#6000E5"/>
<path fill-rule="evenodd" clip-rule="evenodd" d="M120.675 23.5722C120.75 23.6714 120.825 23.7707 120.9 23.8698C120.915 23.9012 120.93 23.9326 120.946 23.964C120.948 23.9938 120.95 24.0237 120.952 24.0535C120.953 24.0862 120.953 24.1189 120.954 24.1516L120.945 24.1604C120.763 23.9015 120.581 23.6424 120.398 23.3834C120.431 23.3812 120.463 23.3791 120.495 23.377C120.525 23.4087 120.555 23.4405 120.586 23.4722L120.587 23.4737C120.616 23.5066 120.646 23.5394 120.675 23.5722Z" fill="#6000E5"/>
<path fill-rule="evenodd" clip-rule="evenodd" d="M94.9423 32.795C94.9186 32.7906 94.8948 32.7861 94.8711 32.7817C95.0731 32.5877 95.2751 32.3937 95.4772 32.1997C95.3536 32.3581 95.2332 32.5196 95.1046 32.6728C95.0613 32.7244 94.997 32.7549 94.9423 32.795Z" fill="#6000E5"/>
<path fill-rule="evenodd" clip-rule="evenodd" d="M95.5114 35.2879C95.5001 35.2727 95.4888 35.2576 95.4775 35.2424C95.6129 35.1707 95.705 34.9814 95.8957 35.0596C95.7676 35.1357 95.6395 35.2118 95.5114 35.2879Z" fill="#6000E5"/>
<path fill-rule="evenodd" clip-rule="evenodd" d="M97.4795 33.4439C97.5342 33.2948 97.5889 33.1457 97.6436 32.9966C97.5888 33.1457 97.5342 33.2949 97.4795 33.4439Z" fill="#6000E5"/>
<path fill-rule="evenodd" clip-rule="evenodd" d="M62.8057 35.2949C62.9222 35.394 63.039 35.4928 63.1535 35.5945C63.1565 35.5971 63.1352 35.6321 63.1253 35.6522C63.0188 35.5332 62.9123 35.414 62.8057 35.2949Z" fill="#6000E5"/>
<path fill-rule="evenodd" clip-rule="evenodd" d="M70.0057 16.0266C69.9883 16.0415 69.9709 16.0564 69.9535 16.0713C69.9055 15.95 69.8575 15.8288 69.8096 15.7075C69.875 15.8138 69.9403 15.9203 70.0057 16.0266Z" fill="#6000E5"/>
<path fill-rule="evenodd" clip-rule="evenodd" d="M100.447 35.6456C100.473 35.6402 100.498 35.6348 100.524 35.6294C100.581 35.6313 100.639 35.6332 100.697 35.6351C100.726 35.6669 100.754 35.6988 100.783 35.7307C100.671 35.7023 100.559 35.6739 100.447 35.6456Z" fill="#6000E5"/>
<path fill-rule="evenodd" clip-rule="evenodd" d="M97.0157 23.1735C96.9011 23.1361 96.8119 23.0783 96.8448 22.9219C96.9019 23.0057 96.9588 23.0896 97.0157 23.1735Z" fill="#6000E5"/>
<path fill-rule="evenodd" clip-rule="evenodd" d="M100.783 35.7308C100.754 35.699 100.726 35.6671 100.697 35.6353C100.788 35.6359 100.878 35.6365 100.968 35.6372C100.94 35.6687 100.911 35.7001 100.883 35.7316C100.85 35.7313 100.816 35.7311 100.783 35.7308Z" fill="#6000E5"/>
<path fill-rule="evenodd" clip-rule="evenodd" d="M116.628 22.8886C116.656 22.8865 116.685 22.8845 116.713 22.8824C116.772 22.8803 116.83 22.8781 116.889 22.876L116.895 22.8834C116.806 22.9173 116.716 22.9513 116.627 22.9851C116.627 22.953 116.628 22.9208 116.628 22.8886Z" fill="#6000E5"/>
<path fill-rule="evenodd" clip-rule="evenodd" d="M88.7338 30.9714C88.7302 31.0236 88.7266 31.0758 88.723 31.128C88.6949 31.0606 88.6668 30.9932 88.6387 30.9258C88.6588 30.927 88.679 30.9283 88.6991 30.9296C88.7107 30.9435 88.7222 30.9575 88.7338 30.9714Z" fill="#6000E5"/>
<path fill-rule="evenodd" clip-rule="evenodd" d="M116.445 23.0779C116.446 23.0469 116.446 23.0159 116.447 22.9849C116.475 22.9831 116.503 22.9813 116.531 22.9795C116.555 22.9849 116.579 22.9903 116.603 22.9957C116.551 23.0231 116.498 23.0505 116.445 23.0779Z" fill="#6000E5"/>
<path fill-rule="evenodd" clip-rule="evenodd" d="M116.605 22.9965C116.581 22.9911 116.557 22.9856 116.532 22.9802C116.565 22.9495 116.597 22.9188 116.629 22.8882C116.629 22.9207 116.629 22.9532 116.628 22.9857L116.619 22.9976L116.605 22.9965Z" fill="#6000E5"/>
<path fill-rule="evenodd" clip-rule="evenodd" d="M107.266 21.1202C107.266 21.089 107.266 21.0576 107.266 21.0264C107.3 21.0538 107.334 21.0811 107.368 21.1086L107.354 21.1251C107.325 21.124 107.296 21.1229 107.268 21.1217L107.266 21.1202Z" fill="#6000E5"/>
<path fill-rule="evenodd" clip-rule="evenodd" d="M107.451 21.2157C107.42 21.2163 107.39 21.2169 107.359 21.2176C107.357 21.1865 107.355 21.1555 107.353 21.1245L107.367 21.1079C107.395 21.1438 107.423 21.1797 107.451 21.2157Z" fill="#6000E5"/>
<path fill-rule="evenodd" clip-rule="evenodd" d="M40.1761 12.4563C40.1412 12.4597 40.1062 12.463 40.0713 12.4664C40.0801 12.459 40.0889 12.4517 40.0975 12.4443C40.1236 12.4483 40.1498 12.4524 40.1761 12.4563Z" fill="#6000E5"/>
<path fill-rule="evenodd" clip-rule="evenodd" d="M64.5172 20.9349C64.4855 20.944 64.4537 20.9531 64.4219 20.9622C64.4256 20.9496 64.4293 20.9369 64.4331 20.9243C64.4612 20.9278 64.4892 20.9313 64.5172 20.9349Z" fill="#6000E5"/>
<path fill-rule="evenodd" clip-rule="evenodd" d="M57.7725 34.8579C57.7727 34.8858 57.7729 34.9137 57.7731 34.9415C57.7729 34.9136 57.7727 34.8858 57.7725 34.8579Z" fill="#6000E5"/>
<path fill-rule="evenodd" clip-rule="evenodd" d="M103.307 21.5812C103.3 21.5925 103.292 21.6004 103.28 21.6049C103.282 21.5878 103.29 21.5799 103.307 21.5812Z" fill="#6000E5"/>
<path fill-rule="evenodd" clip-rule="evenodd" d="M43.3709 13.6586C43.371 13.6773 43.3711 13.696 43.3713 13.7148C43.3566 13.6982 43.3419 13.6817 43.3271 13.6652C43.3351 13.6559 43.3436 13.6473 43.3526 13.6392C43.3636 13.6401 43.3697 13.6466 43.3709 13.6586Z" fill="#6000E5"/>
<path fill-rule="evenodd" clip-rule="evenodd" d="M80.7474 32.5655C81.256 32.0007 81.6375 31.3515 81.779 30.5683C81.8583 30.1296 81.9083 29.6792 81.9201 29.2325C81.948 28.1715 81.9941 27.1037 81.7508 26.0619C81.4204 24.6469 80.6575 23.589 79.3422 23.2284C78.0942 22.8861 76.8423 22.9929 75.7865 23.9463C75.5095 24.1963 75.2975 24.5318 75.0557 24.8281C75.1052 24.6985 75.1288 24.5445 75.2089 24.4441C75.4339 24.1625 75.653 23.8574 75.9294 23.6475C76.2062 23.4372 76.541 23.3035 76.8652 23.1843C77.557 22.9299 78.2836 22.931 78.9938 23.0031C79.5116 23.0556 79.9897 23.3088 80.4198 23.6678C80.6579 23.8664 80.8562 24.083 81.054 24.3257C81.4136 24.7669 81.6338 25.2685 81.8017 25.8172C81.9467 26.2912 81.9824 26.772 81.9864 27.2662C81.9898 27.6875 82.0643 28.1085 82.0608 28.5291C82.0561 29.0731 82.0444 29.6235 81.9637 30.1583C81.8771 30.7315 81.7195 31.2913 81.4277 31.7973C81.2861 32.0427 81.1407 32.2801 80.9526 32.4823C80.9052 32.5332 80.8169 32.5389 80.7474 32.5655Z" fill="#6000E5"/>
<path fill-rule="evenodd" clip-rule="evenodd" d="M75.0534 24.8364C74.1749 26.6232 74.2254 28.5153 74.5554 30.424C74.7089 31.3114 75.1219 32.0817 75.7432 32.6831C76.3394 33.2602 77.0713 33.5137 77.8624 33.5591C78.8587 33.6162 79.784 33.4038 80.5727 32.6884C80.6234 32.6424 80.6849 32.6106 80.7413 32.5721C80.7095 32.6409 80.694 32.7337 80.6432 32.7745C80.3941 32.9746 80.1454 33.1797 79.8768 33.3452C79.7031 33.4523 79.4992 33.5383 79.3026 33.5571C78.7032 33.6147 78.0923 33.7192 77.5019 33.6476C76.8502 33.5685 76.2285 33.2866 75.7187 32.7904C75.5539 32.63 75.3727 32.4885 75.2171 32.3186C75.1506 32.246 75.1316 32.1222 75.0892 32.0226C74.8704 31.5086 74.6424 30.9988 74.4369 30.4786C74.3716 30.3134 74.35 30.122 74.3353 29.94C74.2962 29.4549 74.2462 28.9684 74.2481 28.4826C74.2503 27.8985 74.2591 27.3072 74.3431 26.7326C74.4335 26.1152 74.5934 25.5051 74.8946 24.9579C74.925 24.9026 74.9994 24.8762 75.0534 24.8364Z" fill="#6000E5"/>
<path fill-rule="evenodd" clip-rule="evenodd" d="M84.2303 16.2153C84.2447 16.3003 84.2716 16.3852 84.2717 16.4702C84.2736 22.5964 84.2735 28.7227 84.2732 34.849C84.2732 34.9134 84.2687 34.9778 84.2651 35.0421C84.2649 35.0466 84.2552 35.0535 84.2496 35.0539C84.2428 35.0543 84.2356 35.049 84.2285 35.0463C84.2291 28.7693 84.2297 22.4923 84.2303 16.2153Z" fill="#6000E5"/>
<path fill-rule="evenodd" clip-rule="evenodd" d="M89.0773 24.8434C89.1817 24.4501 89.4408 24.1816 89.7198 23.9416C90.2204 23.5111 90.7717 23.204 91.4107 23.0649C91.9333 22.9511 92.4386 22.994 92.959 23.0479C93.5404 23.1083 94.0387 23.374 94.516 23.6908C94.7489 23.8453 94.9183 24.1099 95.1267 24.3122C95.4695 24.645 95.6236 25.0816 95.7599 25.5434C95.8818 25.956 95.953 26.3683 95.9245 26.7986C95.9196 26.8725 95.8664 26.9427 95.8355 27.0146C95.5774 27.0124 95.319 27.0086 95.0608 27.0086C92.979 27.008 90.8972 27.0075 88.8154 27.0121C88.7561 27.0122 88.6969 27.0696 88.6376 27.1003C88.6252 27.1264 88.6128 27.1524 88.5766 27.2282C88.5623 27.1252 88.554 27.0658 88.5458 27.0064C88.5185 26.9724 88.4911 26.9385 88.4639 26.9046C88.4768 26.8725 88.4897 26.8405 88.5027 26.8084C88.5162 26.7089 88.5298 26.6093 88.5432 26.5098C88.5756 26.2666 88.6079 26.0234 88.6402 25.7802C88.6577 25.781 88.6751 25.7818 88.6926 25.7826C88.6462 26.1699 88.5998 26.5572 88.5517 26.9597C91.0123 26.9597 93.4217 26.9597 95.8316 26.9597C95.8411 26.9225 95.8516 26.8998 95.852 26.877C95.8753 25.4553 95.2827 24.1566 94.0194 23.4928C92.2823 22.5801 90.3331 23.1207 89.0945 24.853L89.0773 24.8434Z" fill="#6000E5"/>
<path fill-rule="evenodd" clip-rule="evenodd" d="M97.5956 29.2637C97.513 29.2937 97.4303 29.3497 97.3476 29.3498C94.5341 29.3544 91.7206 29.3537 88.907 29.3538C88.7873 29.3538 88.6676 29.3546 88.5479 29.355C88.6293 29.3234 88.7106 29.2646 88.792 29.2645C91.21 29.2595 93.6281 29.2602 96.0461 29.2604C96.5626 29.2605 97.0791 29.2625 97.5956 29.2637Z" fill="#6000E5"/>
<path fill-rule="evenodd" clip-rule="evenodd" d="M88.6377 27.1004C88.697 27.0697 88.7562 27.0123 88.8155 27.0121C90.8972 27.0075 92.979 27.0081 95.0608 27.0087C95.3191 27.0087 95.5774 27.0125 95.8356 27.0146C95.7679 27.0439 95.7003 27.0985 95.6327 27.0986C93.301 27.1024 90.9693 27.101 88.6377 27.1004Z" fill="#6000E5"/>
<path fill-rule="evenodd" clip-rule="evenodd" d="M88.5452 29.3574C88.5448 29.6197 88.5445 29.8819 88.5442 30.1442C88.4197 29.9189 88.4203 29.4936 88.5452 29.3574Z" fill="#6000E5"/>
<path fill-rule="evenodd" clip-rule="evenodd" d="M88.6931 25.7829C88.6756 25.7821 88.6581 25.7813 88.6406 25.7804C88.7143 25.5991 88.7879 25.4177 88.8615 25.2363C88.8725 25.2469 88.8835 25.2573 88.8946 25.2677C88.8275 25.4394 88.7603 25.6112 88.6931 25.7829Z" fill="#6000E5"/>
<path fill-rule="evenodd" clip-rule="evenodd" d="M88.9033 25.1858C88.8958 25.0322 88.9307 24.9041 89.0769 24.8433C89.0769 24.8433 89.0942 24.8529 89.0942 24.8529C89.0358 24.9687 88.9774 25.0845 88.9189 25.2003L88.9033 25.1858Z" fill="#6000E5"/>
<path fill-rule="evenodd" clip-rule="evenodd" d="M88.5527 30.6313C88.5812 30.6986 88.6097 30.7658 88.638 30.8331C88.6096 30.7658 88.5811 30.6986 88.5527 30.6313Z" fill="#6000E5"/>
<path fill-rule="evenodd" clip-rule="evenodd" d="M88.5445 26.5103C88.531 26.6098 88.5175 26.7094 88.5039 26.8089C88.5174 26.7093 88.5309 26.6098 88.5445 26.5103Z" fill="#6000E5"/>
<path fill-rule="evenodd" clip-rule="evenodd" d="M98.0015 28.9692C97.971 29.0019 97.9406 29.0347 97.9102 29.0674C97.9406 29.0347 97.971 29.002 98.0015 28.9692Z" fill="#6000E5"/>
<path fill-rule="evenodd" clip-rule="evenodd" d="M88.4639 26.9048C88.4914 26.939 88.519 26.9733 88.5465 27.0075C88.5189 26.9732 88.4914 26.939 88.4639 26.9048Z" fill="#6000E5"/>
<path fill-rule="evenodd" clip-rule="evenodd" d="M97.8197 29.1641C97.7877 29.1952 97.7557 29.2265 97.7236 29.2576C97.7556 29.2264 97.7877 29.1952 97.8197 29.1641Z" fill="#6000E5"/>
<path fill-rule="evenodd" clip-rule="evenodd" d="M88.8613 25.2362C88.8757 25.2193 88.8901 25.2024 88.9044 25.1855L88.9201 25.2001C88.9117 25.2227 88.9033 25.2452 88.8948 25.2678C88.8836 25.2573 88.8725 25.2468 88.8613 25.2362Z" fill="#6000E5"/>
<path fill-rule="evenodd" clip-rule="evenodd" d="M118.999 33.4772C119.562 33.1577 120.097 32.786 120.428 32.1819C120.662 31.7539 120.859 31.2895 121.001 30.8157C121.238 30.0218 121.205 29.1903 121.188 28.3517C121.15 28.3471 121.122 28.3373 121.096 28.3416C119.794 28.5586 118.488 28.7554 117.191 29.0033C116.466 29.1418 115.767 29.4036 115.168 29.8975C114.073 30.7994 114.122 32.4363 115.289 33.2241C116.383 33.9622 117.557 33.9656 118.755 33.566C118.827 33.5422 118.897 33.5146 118.967 33.4888C118.866 33.7526 118.615 33.6991 118.433 33.7619C117.94 33.9329 117.428 33.9192 116.91 33.8891C116.46 33.8628 116.036 33.7539 115.634 33.5668C115.098 33.3171 114.648 32.9232 114.44 32.3089C114.229 31.6884 114.164 31.049 114.565 30.4726C114.747 30.2098 114.937 29.9361 115.175 29.7399C115.421 29.5358 115.719 29.3906 116.012 29.2719C116.354 29.1337 116.712 29.0362 117.068 28.9501C117.516 28.8419 117.969 28.7582 118.421 28.6727C118.943 28.574 119.467 28.4813 119.991 28.393C120.262 28.3474 120.535 28.3159 120.807 28.2803C120.866 28.2726 120.928 28.283 120.986 28.2704C121.282 28.206 121.29 28.2256 121.306 28.5632C121.342 29.2998 121.268 30.0249 121.122 30.7407C120.947 31.596 120.584 32.3424 119.965 32.9176C119.758 33.1097 119.534 33.2826 119.303 33.4389C119.225 33.4918 119.102 33.4666 118.999 33.4772Z" fill="#6000E5"/>
<path fill-rule="evenodd" clip-rule="evenodd" d="M121.126 26.5134C121.157 26.42 121.211 26.3273 121.214 26.2329C121.224 25.8351 121.219 25.4368 121.22 25.0386C121.248 25.1273 121.299 25.2152 121.301 25.3048C121.311 25.6444 121.3 25.9846 121.308 26.3242C121.312 26.4771 121.258 26.5314 121.126 26.5134Z" fill="#6000E5"/>
<path fill-rule="evenodd" clip-rule="evenodd" d="M121.213 24.7493C121.185 24.6817 121.157 24.6141 121.129 24.5464C121.157 24.614 121.185 24.6816 121.213 24.7493Z" fill="#6000E5"/>
<path fill-rule="evenodd" clip-rule="evenodd" d="M117.258 22.6919C117.196 22.722 117.134 22.7521 117.071 22.7822C117.134 22.7521 117.196 22.722 117.258 22.6919Z" fill="#6000E5"/>
<path fill-rule="evenodd" clip-rule="evenodd" d="M116.888 22.8751C116.83 22.8772 116.771 22.8794 116.713 22.8815C116.775 22.8509 116.836 22.8202 116.898 22.7896C116.895 22.8181 116.892 22.8466 116.888 22.8751Z" fill="#6000E5"/>
<path fill-rule="evenodd" clip-rule="evenodd" d="M119.87 22.9801C119.824 22.9494 119.777 22.9188 119.73 22.8882C119.777 22.9188 119.824 22.9494 119.87 22.9801Z" fill="#6000E5"/>
<path fill-rule="evenodd" clip-rule="evenodd" d="M121.12 24.3588C121.093 24.3235 121.066 24.2883 121.039 24.2529C121.066 24.2882 121.093 24.3235 121.12 24.3588Z" fill="#6000E5"/>
<path fill-rule="evenodd" clip-rule="evenodd" d="M120.954 24.1521C120.953 24.1192 120.953 24.0862 120.952 24.0532C120.98 24.0892 121.008 24.1252 121.036 24.1613C121.008 24.1582 120.981 24.1552 120.954 24.1521Z" fill="#6000E5"/>
<path fill-rule="evenodd" clip-rule="evenodd" d="M119.512 22.8749L119.491 22.8784C119.491 22.8784 119.47 22.8759 119.47 22.8758C119.466 22.8472 119.463 22.8186 119.46 22.79C119.477 22.8183 119.495 22.8466 119.512 22.8749Z" fill="#6000E5"/>
<path fill-rule="evenodd" clip-rule="evenodd" d="M120.946 23.9652C120.931 23.9335 120.915 23.9018 120.899 23.8701C120.915 23.9018 120.931 23.9336 120.946 23.9652Z" fill="#6000E5"/>
<path fill-rule="evenodd" clip-rule="evenodd" d="M107.354 21.124C107.357 21.155 107.359 21.1861 107.361 21.2171C107.33 21.1849 107.299 21.1527 107.269 21.1206C107.297 21.1217 107.326 21.1229 107.354 21.124Z" fill="#6000E5"/>
<path fill-rule="evenodd" clip-rule="evenodd" d="M43.3279 13.664C43.3425 13.6804 43.3571 13.6967 43.3716 13.7132C43.6275 14.0403 43.9403 14.2995 44.2304 14.5863C44.4022 14.7562 44.506 15.0087 44.6362 15.227C44.7458 15.4107 44.8677 15.5895 44.9513 15.7869C45.116 16.1757 45.339 16.5418 45.3585 16.9929C45.3641 17.1214 45.4207 17.2479 45.458 17.374C45.4762 17.4356 45.5208 17.4929 45.5243 17.5541C45.5598 18.1749 45.6565 18.8033 45.6016 19.4152C45.5467 20.0271 45.4577 20.6589 45.1711 21.2171C44.9941 21.5617 44.8428 21.934 44.6121 22.2315C44.2148 22.7436 43.8006 23.2469 43.2367 23.5686C42.9307 23.7432 42.9438 23.7607 43.2178 23.9575C43.5983 24.2308 43.998 24.4808 44.3446 24.7989C44.5995 25.0329 44.7867 25.3566 44.9954 25.6476C45.0949 25.7864 45.2024 25.9309 45.2571 26.0926C45.4035 26.5251 45.6186 26.9191 45.7334 27.3761C45.9408 28.202 45.9105 29.0304 45.874 29.8561C45.8582 30.2139 45.8774 30.6204 45.6547 30.9471C45.6383 30.9712 45.6359 31.0071 45.6285 31.0379C45.5675 31.292 45.5343 31.5589 45.4401 31.7972C45.2824 32.1958 45.1091 32.5921 44.8983 32.9593C44.7209 33.2686 44.5135 33.5786 44.2581 33.8068C44.0615 33.9823 43.8643 34.1513 43.6832 34.3483C43.6066 34.4316 43.467 34.4412 43.3683 34.5063C43.1178 34.6716 42.8873 34.8796 42.6243 35.0137C42.3448 35.1561 42.0407 35.2478 41.7407 35.3344C41.436 35.4224 41.1252 35.4933 40.8132 35.5419C40.4894 35.5924 40.1611 35.6327 39.8346 35.6335C37.0455 35.6406 34.2563 35.6369 31.4671 35.6396C31.304 35.6397 31.1403 35.6614 30.9779 35.6828C30.7597 35.7116 30.6355 35.6055 30.6368 35.3826C30.6379 35.1825 30.6367 34.9825 30.6367 34.7824C30.6367 27.632 30.6367 20.4817 30.6367 13.3314C30.6367 13.1313 30.638 12.9312 30.6368 12.7312C30.6357 12.5615 30.6988 12.4841 30.8666 12.4844C33.7908 12.4882 36.715 12.48 39.6391 12.4961C40.0441 12.4984 40.4483 12.6184 40.8538 12.6773C40.957 12.6923 41.0634 12.6823 41.1683 12.6838C41.3296 12.7463 41.4881 12.8198 41.6527 12.8694C42.2055 13.0356 42.7138 13.3066 43.2029 13.6267C43.2385 13.6501 43.286 13.6521 43.3279 13.664Z" fill="#6000E5"/>
<path fill-rule="evenodd" clip-rule="evenodd" d="M126.176 21.2195C126.199 21.2183 126.228 21.2267 126.242 21.2141C126.585 20.9029 126.993 21.0497 127.374 21.0232C127.537 21.012 127.704 21.013 127.865 21.0421C128.106 21.0858 128.241 21.2767 128.328 21.5125C128.327 23.4578 128.326 25.403 128.327 27.3483C128.327 29.8984 128.329 32.4484 128.33 34.9985C128.223 35.4008 128.063 35.5357 127.688 35.5378C127.373 35.5396 127.059 35.5332 126.744 35.5412C126.312 35.5523 126.082 35.2751 126.082 34.8227C126.078 30.4689 126.078 26.1151 126.083 21.7613C126.084 21.5807 126.144 21.4001 126.176 21.2195Z" fill="#6000E5"/>
<path fill-rule="evenodd" clip-rule="evenodd" d="M128.328 34.9983C128.327 32.4482 128.325 29.8981 128.324 27.348C128.324 25.4027 128.325 23.4575 128.326 21.5122C128.335 21.5125 128.344 21.5141 128.353 21.5172C128.356 21.6149 128.363 21.7126 128.363 21.8103C128.363 26.1117 128.364 30.4131 128.362 34.7145C128.362 34.8091 128.34 34.9037 128.328 34.9983Z" fill="#6000E5"/>
<path fill-rule="evenodd" clip-rule="evenodd" d="M108.167 35.5304C108.137 35.5004 108.112 35.4616 108.077 35.4419C107.909 35.3464 107.797 35.2245 107.802 34.9926C107.812 34.5031 107.805 34.0132 107.805 33.5235C107.805 33.3159 107.787 33.1062 107.808 32.9011C107.836 32.6222 108.061 32.4059 108.32 32.4023C108.881 32.3944 109.443 32.3925 110.005 32.4014C110.372 32.4071 110.593 32.665 110.597 33.0795C110.602 33.6997 110.6 34.3201 110.598 34.9403C110.597 35.1808 110.487 35.3439 110.283 35.4356C110.234 35.4574 110.193 35.4991 110.149 35.5316C109.488 35.5313 108.827 35.5308 108.167 35.5304Z" fill="#6000E5"/>
<path fill-rule="evenodd" clip-rule="evenodd" d="M108.166 35.5308C108.827 35.5312 109.487 35.5316 110.148 35.5319C110.155 35.5341 110.165 35.5341 110.169 35.5391C110.176 35.5478 110.181 35.5596 110.186 35.5702C109.517 35.5633 108.849 35.5566 108.18 35.5489C108.175 35.5489 108.171 35.5371 108.166 35.5308Z" fill="#6000E5"/>
</svg>
