<svg width="120" height="27" viewBox="0 0 120 27" fill="none" xmlns="http://www.w3.org/2000/svg">
<path d="M18.7874 18.1079C18.7874 18.709 18.304 19.2032 17.7158 19.2032H10.2976C8.95533 19.2032 7.85486 18.0821 7.85486 16.7065V10.5254C7.85486 9.15352 8.95173 8.02869 10.2976 8.02869H17.7158C18.304 8.02869 18.7874 8.52288 18.7874 9.12402V9.57003C18.7874 9.76901 19.0038 9.89257 19.1752 9.79147L24.3439 6.74235C24.4657 6.67052 24.5068 6.5136 24.4334 6.39276C22.1044 2.55734 17.947 0 13.2057 0C5.9137 0 0 6.04088 0 13.4979C0 20.955 5.9137 26.9959 13.2057 26.9959C17.947 26.9959 22.1044 24.4386 24.4334 20.6031C24.5068 20.4823 24.4657 20.3254 24.3439 20.2535L19.1752 17.2044C19.0038 17.1033 18.7874 17.2269 18.7874 17.4259V18.1116V18.1079Z" fill="#A38F8F"/>
<path d="M19.4618 14.6297C18.6247 14.1357 18.6247 12.9007 19.4618 12.4067L25.1121 9.07235C25.9492 8.57836 26.9955 9.19585 26.9955 10.1838L26.9955 16.8526C26.9955 17.8406 25.9492 18.4581 25.1121 17.9641L19.4618 14.6297Z" fill="#A38F8F"/>
<path d="M44.9043 19.5259C47.2367 19.5259 49.2662 17.9205 49.7811 15.7093L55.8998 16.406C55.4152 21.4342 50.7504 25.0994 44.7528 25.0994C37.8769 25.0994 32.9092 20.2226 32.9092 13.4981C32.9092 6.77352 37.8769 1.89673 44.7225 1.89673C50.6292 1.89673 55.294 5.59219 55.8392 10.7113L49.7508 11.3474C49.2964 9.10591 47.267 7.47021 44.9346 7.47021C41.6935 7.47021 39.4823 9.92375 39.4823 13.4981C39.4823 17.0723 41.7238 19.5259 44.9043 19.5259Z" fill="#A38F8F"/>
<path d="M73.7081 24.3421H59.1989V2.654H65.772V18.7686H73.7081V24.3421Z" fill="#A38F8F"/>
<path d="M86.5523 8.19719L84.0079 16.618H89.127L86.5523 8.19719ZM82.766 21.2222L81.8573 24.3421H74.9813L81.7664 2.654H91.3382L98.1234 24.3421H91.2474L90.3387 21.2222H82.766Z" fill="#A38F8F"/>
<path d="M109.61 7.34905H106.854V13.8615H109.61C111.882 13.8615 113.427 12.5288 113.427 10.5901C113.427 8.65155 111.852 7.34905 109.61 7.34905ZM110.822 18.5566H106.854V24.3421H100.523V2.654H110.913C116.305 2.654 120 5.86481 120 10.5901C120 15.3155 116.274 18.5566 110.822 18.5566Z" fill="#A38F8F"/>
</svg>
