<svg width="160" height="48" viewBox="0 0 160 48" fill="none" xmlns="http://www.w3.org/2000/svg">
<g clip-path="url(#clip0_748_3481)">
<path fill-rule="evenodd" clip-rule="evenodd" d="M35.6797 24.0438C35.6797 28.6247 38.8725 32 43.7168 32C47.1009 32 49.8872 30.0402 50.725 27.1369C50.7737 26.968 50.6672 26.7961 50.4956 26.7545L48.1248 26.18C47.9571 26.1394 47.7884 26.2385 47.7285 26.3996C47.1165 28.046 45.512 29.063 43.6287 29.063C40.8701 29.063 38.9907 27.1572 38.7818 24.3164C38.7808 24.2678 38.7796 24.2225 38.7785 24.1792C38.7734 23.9834 38.7695 23.8312 38.7864 23.6252C39.0166 20.8167 40.8891 18.937 43.6287 18.937C45.4671 18.937 47.0399 19.9061 47.6831 21.4838C47.7472 21.641 47.9157 21.7347 48.0807 21.6922L50.4503 21.0806C50.6227 21.0361 50.7267 20.8602 50.6728 20.6913C49.7763 17.8827 47.0336 16 43.7168 16C38.8725 16 35.6797 19.3753 35.6797 23.9562V24.0438Z" fill="#2B2B2B"/>
<path d="M130.786 16.3296C130.608 16.3296 130.464 16.4733 130.464 16.6506V31.351C130.464 31.5283 130.608 31.6721 130.786 31.6721H133.224C133.402 31.6721 133.547 31.5283 133.547 31.351V25.581C133.547 25.4037 133.691 25.26 133.869 25.26H140.248C140.426 25.26 140.571 25.4037 140.571 25.581V31.351C140.571 31.5283 140.715 31.6721 140.893 31.6721H143.331C143.509 31.6721 143.654 31.5283 143.654 31.351V16.6506C143.654 16.4733 143.509 16.3296 143.331 16.3296H140.893C140.715 16.3296 140.571 16.4733 140.571 16.6506V22.0151C140.571 22.1924 140.426 22.3361 140.248 22.3361H133.869C133.691 22.3361 133.547 22.1924 133.547 22.0151V16.6506C133.547 16.4733 133.402 16.3296 133.224 16.3296H130.786Z" fill="#2B2B2B"/>
<path d="M116.156 16.3296C115.978 16.3296 115.834 16.4733 115.834 16.6506V18.9456C115.834 19.1229 115.978 19.2666 116.156 19.2666H120.342C120.52 19.2666 120.664 19.4103 120.664 19.5876V31.351C120.664 31.5283 120.809 31.6721 120.987 31.6721H123.425C123.603 31.6721 123.747 31.5283 123.747 31.351V19.5876C123.747 19.4103 123.892 19.2666 124.07 19.2666H128.255C128.433 19.2666 128.578 19.1229 128.578 18.9456V16.6506C128.578 16.4733 128.433 16.3296 128.255 16.3296H116.156Z" fill="#2B2B2B"/>
<path d="M107.971 16.3296C107.84 16.3296 107.722 16.409 107.672 16.5303L101.702 31.2307C101.616 31.4417 101.772 31.6721 102.001 31.6721H104.672C104.805 31.6721 104.923 31.5919 104.972 31.4696L106.236 28.3061C106.297 28.1518 106.467 28.0684 106.629 28.1066C107.125 28.2235 108.226 28.4398 109.581 28.4398C110.938 28.4398 112.04 28.2231 112.535 28.1063C112.697 28.0682 112.866 28.1508 112.928 28.3041L114.212 31.4712C114.261 31.5926 114.38 31.6721 114.511 31.6721H117.205C117.434 31.6721 117.59 31.4411 117.504 31.23L111.491 16.5296C111.441 16.4086 111.323 16.3296 111.192 16.3296H107.971ZM111.523 24.779C111.592 24.951 111.501 25.144 111.321 25.1898C110.942 25.2858 110.284 25.4216 109.592 25.4216C108.901 25.4216 108.242 25.2855 107.863 25.1895C107.683 25.1438 107.592 24.9516 107.661 24.7797L109.433 20.3614C109.486 20.227 109.677 20.2266 109.732 20.3608L111.523 24.779Z" fill="#2B2B2B"/>
<path d="M82.8254 16.3296C82.6473 16.3296 82.5029 16.4733 82.5029 16.6506V31.351C82.5029 31.5283 82.6473 31.6721 82.8254 31.6721H85.2639C85.4417 31.6721 85.586 31.5288 85.5864 31.3518L85.6059 22.9854C85.6063 22.8109 85.8468 22.7623 85.9155 22.9229L89.5757 31.4768C89.6264 31.5952 89.7432 31.6721 89.8725 31.6721H92.6608C92.7902 31.6721 92.907 31.5952 92.9576 31.4767L96.6381 22.8626C96.7068 22.7017 96.9478 22.7506 96.9478 22.9254V31.351C96.9478 31.5283 97.0922 31.6721 97.2703 31.6721H99.708C99.8861 31.6721 100.03 31.5283 100.03 31.351V16.6506C100.03 16.4733 99.8861 16.3296 99.708 16.3296H96.5226C96.3932 16.3296 96.2763 16.4066 96.2257 16.5251L91.4151 27.7956C91.3595 27.9259 91.1739 27.9259 91.1183 27.7956L86.3077 16.5251C86.2571 16.4066 86.1402 16.3296 86.0108 16.3296H82.8254Z" fill="#2B2B2B"/>
<path d="M68.8665 16.3296C68.6883 16.3296 68.5439 16.4733 68.5439 16.6506V31.351C68.5439 31.5283 68.6883 31.6721 68.8665 31.6721H79.2532C79.4313 31.6721 79.5757 31.5283 79.5757 31.351V29.0561C79.5757 28.8788 79.4313 28.7351 79.2532 28.7351H71.9492C71.7711 28.7351 71.6267 28.5913 71.6267 28.4141V25.615C71.6267 25.4377 71.7711 25.294 71.9492 25.294H78.3504C78.5285 25.294 78.6729 25.1503 78.6729 24.973V22.678C78.6729 22.5007 78.5285 22.357 78.3504 22.357H71.9492C71.7711 22.357 71.6267 22.2133 71.6267 22.036V19.5876C71.6267 19.4103 71.7711 19.2666 71.9492 19.2666H79.2532C79.4313 19.2666 79.5757 19.1229 79.5757 18.9456V16.6506C79.5757 16.4733 79.4313 16.3296 79.2532 16.3296H68.8665Z" fill="#2B2B2B"/>
<path d="M53.0195 16.3296C52.8417 16.3296 52.6975 16.4729 52.697 16.6498L52.6758 25.5132C52.6758 29.3488 55.2521 32.0008 59.2596 32.0008C63.2231 32.0008 65.7994 29.3488 65.7994 25.5132L65.7782 16.6498C65.7778 16.4729 65.6335 16.3296 65.4557 16.3296H63.018C62.8395 16.3296 62.695 16.4738 62.6955 16.6514L62.7167 25.4693C62.7167 27.7269 61.4616 29.0638 59.2596 29.0638C57.0357 29.0638 55.7585 27.7049 55.7585 25.4693L55.7798 16.6514C55.7802 16.4738 55.6357 16.3296 55.4572 16.3296H53.0195Z" fill="#2B2B2B"/>
<path d="M16.8194 29.4391C16.9997 29.6189 17.0002 29.9119 16.8095 30.0806C15.1693 31.5328 13.1413 32.1141 12.1663 32.3221C11.8739 32.3845 11.63 32.1411 11.6925 31.8494C11.901 30.8766 12.4836 28.853 13.939 27.2165C14.1081 27.0263 14.4018 27.0268 14.582 27.2066L16.8194 29.4391Z" fill="#FFBA07"/>
<path fill-rule="evenodd" clip-rule="evenodd" d="M23.6042 27.2437C23.5541 27.3049 23.529 27.3829 23.5334 27.4618C23.644 29.414 23.6017 30.1886 22.0934 31.6934C21.0195 32.765 18.4856 33.5975 17.1136 33.9885C16.8238 34.0711 16.599 33.7244 16.7746 33.4801C17.6451 32.2692 19.062 29.904 17.8622 28.7069C17.0343 27.8809 16.7793 27.6264 16.5243 27.3719C16.2695 27.1176 16.0148 26.8634 15.1883 26.0388C14.0063 24.8594 11.7472 26.2814 10.5553 27.188C10.3113 27.3735 9.95026 27.1492 10.0351 26.855C10.4333 25.4744 11.2598 22.9987 12.3195 21.9413C13.8278 20.4364 14.6041 20.3942 16.5607 20.5045C16.6398 20.509 16.7179 20.4839 16.7793 20.4339C17.6453 19.7281 24.2758 14.4449 29.2077 14.0043C29.6952 13.9607 30.0919 14.3566 30.0482 14.843C29.6066 19.7638 24.3115 26.3796 23.6042 27.2437ZM21.6015 22.4701C22.2651 23.1322 23.558 22.9155 24.4894 21.9862C25.4208 21.0569 25.6379 19.7669 24.9743 19.1048C24.3108 18.4427 23.0179 18.6594 22.0865 19.5887C21.1551 20.518 20.938 21.808 21.6015 22.4701Z" fill="#2B2B2B"/>
</g>
<defs>
<clipPath id="clip0_748_3481">
<rect width="160" height="48" fill="white"/>
</clipPath>
</defs>
</svg>
