<svg width="160" height="26" viewBox="0 0 160 26" fill="none" xmlns="http://www.w3.org/2000/svg">
<path fill-rule="evenodd" clip-rule="evenodd" d="M31.3623 13.0535C31.3623 18.5232 35.1661 22.5534 40.9375 22.5534C44.9691 22.5534 48.2886 20.2134 49.2868 16.7467C49.3449 16.5451 49.2179 16.3398 49.0135 16.2902L46.189 15.6043C45.9892 15.5557 45.7882 15.674 45.7169 15.8664C44.9878 17.8322 43.0762 19.0466 40.8325 19.0466C37.546 19.0466 35.307 16.771 35.0581 13.379C35.0569 13.321 35.0555 13.2668 35.0541 13.2152C35.0481 12.9813 35.0434 12.7997 35.0635 12.5537C35.3377 9.2003 37.5686 6.95583 40.8325 6.95583C43.0227 6.95583 44.8965 8.11298 45.6628 9.99677C45.7391 10.1845 45.9398 10.2964 46.1364 10.2456L48.9596 9.51536C49.1649 9.46224 49.2888 9.2522 49.2246 9.05048C48.1565 5.697 44.889 3.44897 40.9375 3.44897C35.1661 3.44897 31.3623 7.47924 31.3623 12.9489V13.0535Z" fill="#A38F8F"/>
<path d="M144.67 3.84131C144.458 3.84131 144.286 4.01292 144.286 4.22462V21.7774C144.286 21.9891 144.458 22.1607 144.67 22.1607H147.575C147.787 22.1607 147.959 21.9891 147.959 21.7774V14.8877C147.959 14.676 148.131 14.5044 148.343 14.5044H155.943C156.155 14.5044 156.327 14.676 156.327 14.8877V21.7774C156.327 21.9891 156.499 22.1607 156.711 22.1607H159.616C159.828 22.1607 160 21.9891 160 21.7774V4.22462C160 4.01292 159.828 3.84131 159.616 3.84131H156.711C156.499 3.84131 156.327 4.01292 156.327 4.22462V10.6299C156.327 10.8416 156.155 11.0133 155.943 11.0133H148.343C148.131 11.0133 147.959 10.8416 147.959 10.6299V4.22462C147.959 4.01292 147.787 3.84131 147.575 3.84131H144.67Z" fill="#A38F8F"/>
<path d="M127.241 3.84131C127.028 3.84131 126.856 4.01292 126.856 4.22462V6.96485C126.856 7.17655 127.028 7.34816 127.241 7.34816H132.227C132.439 7.34816 132.611 7.51978 132.611 7.73147V21.7774C132.611 21.9891 132.783 22.1607 132.996 22.1607H135.9C136.112 22.1607 136.284 21.9891 136.284 21.7774V7.73147C136.284 7.51978 136.456 7.34816 136.668 7.34816H141.655C141.867 7.34816 142.039 7.17654 142.039 6.96485V4.22462C142.039 4.01292 141.867 3.84131 141.655 3.84131H127.241Z" fill="#A38F8F"/>
<path d="M117.488 3.84131C117.332 3.84131 117.191 3.93612 117.132 4.08095L110.019 21.6337C109.917 21.8857 110.102 22.1607 110.375 22.1607H113.558C113.715 22.1607 113.857 22.0649 113.915 21.919L115.421 18.1416C115.494 17.9574 115.696 17.8578 115.889 17.9035C116.48 18.043 117.791 18.3013 119.406 18.3013C121.023 18.3013 122.336 18.0425 122.926 17.903C123.118 17.8575 123.319 17.9561 123.393 18.1392L124.923 21.9208C124.982 22.0658 125.123 22.1607 125.28 22.1607H128.489C128.762 22.1607 128.948 21.8849 128.845 21.6328L121.681 4.08008C121.622 3.93571 121.482 3.84131 121.325 3.84131H117.488ZM121.719 13.9301C121.802 14.1356 121.694 14.366 121.478 14.4206C121.027 14.5353 120.243 14.6974 119.42 14.6974C118.595 14.6974 117.811 14.5349 117.359 14.4203C117.145 14.3657 117.036 14.1362 117.118 13.931L119.229 8.65537C119.293 8.49487 119.521 8.49445 119.586 8.65471L121.719 13.9301Z" fill="#A38F8F"/>
<path d="M87.5307 3.84106C87.3185 3.84106 87.1465 4.01268 87.1465 4.22438V21.7771C87.1465 21.9888 87.3185 22.1604 87.5307 22.1604H90.4358C90.6477 22.1604 90.8196 21.9894 90.82 21.778L90.8432 11.7883C90.8437 11.5799 91.1302 11.5219 91.2121 11.7137L95.5728 21.9273C95.6332 22.0687 95.7723 22.1604 95.9263 22.1604H99.2483C99.4024 22.1604 99.5415 22.0686 99.6019 21.9271L103.987 11.6416C104.069 11.4495 104.356 11.5079 104.356 11.7166V21.7771C104.356 21.9888 104.528 22.1604 104.74 22.1604H107.644C107.856 22.1604 108.028 21.9888 108.028 21.7771V4.22438C108.028 4.01268 107.856 3.84106 107.644 3.84106H103.849C103.695 3.84106 103.556 3.93296 103.495 4.07449L97.7642 17.5318C97.6979 17.6874 97.4768 17.6874 97.4105 17.5318L91.6793 4.07449C91.6191 3.93296 91.4798 3.84106 91.3257 3.84106H87.5307Z" fill="#A38F8F"/>
<path d="M70.8999 3.84131C70.6877 3.84131 70.5156 4.01292 70.5156 4.22462V21.7774C70.5156 21.9891 70.6877 22.1607 70.8999 22.1607H83.2743C83.4865 22.1607 83.6585 21.9891 83.6585 21.7774V19.0371C83.6585 18.8254 83.4865 18.6538 83.2743 18.6538H74.5725C74.3603 18.6538 74.1883 18.4822 74.1883 18.2705V14.9284C74.1883 14.7167 74.3603 14.5451 74.5725 14.5451H82.1987C82.4109 14.5451 82.583 14.3734 82.583 14.1617V11.4215C82.583 11.2098 82.4109 11.0382 82.1987 11.0382H74.5725C74.3603 11.0382 74.1883 10.8666 74.1883 10.6549V7.73147C74.1883 7.51978 74.3603 7.34816 74.5725 7.34816H83.2743C83.4865 7.34816 83.6585 7.17654 83.6585 6.96485V4.22462C83.6585 4.01292 83.4865 3.84131 83.2743 3.84131H70.8999Z" fill="#A38F8F"/>
<path d="M52.0209 3.84106C51.809 3.84106 51.6372 4.01212 51.6366 4.22346L51.6113 14.8065C51.6113 19.3864 54.6806 22.553 59.4551 22.553C64.1771 22.553 67.2464 19.3864 67.2464 14.8065L67.2211 4.22346C67.2206 4.01212 67.0487 3.84106 66.8369 3.84106H63.9327C63.7201 3.84106 63.5479 4.01324 63.5484 4.2253L63.5737 14.7542C63.5737 17.4497 62.0784 19.0461 59.4551 19.0461C56.8055 19.0461 55.284 17.4236 55.284 14.7542L55.3093 4.2253C55.3098 4.01324 55.1376 3.84106 54.9251 3.84106H52.0209Z" fill="#A38F8F"/>
<path d="M8.89426 19.4942C9.10899 19.7089 9.10956 20.0587 8.88242 20.2602C6.92836 21.9941 4.51222 22.6883 3.35064 22.9366C3.00227 23.0111 2.71167 22.7205 2.78616 22.3721C3.03453 21.2106 3.7287 18.7944 5.46256 16.8404C5.66411 16.6132 6.0139 16.6138 6.22862 16.8285L8.89426 19.4942Z" fill="#A38F8F"/>
<path fill-rule="evenodd" clip-rule="evenodd" d="M16.9778 16.8717C16.918 16.9449 16.8881 17.0379 16.8934 17.1322C17.0251 19.4631 16.9747 20.388 15.1778 22.1849C13.8984 23.4643 10.8795 24.4584 9.24501 24.9253C8.89982 25.0239 8.63196 24.6099 8.8412 24.3182C9.87822 22.8724 11.5662 20.0482 10.1368 18.6188C9.1506 17.6326 8.84675 17.3287 8.54299 17.0249C8.2394 16.7212 7.9359 16.4177 6.95132 15.4331C5.54312 14.0249 2.8517 15.7228 1.43164 16.8052C1.14101 17.0268 0.710862 16.7589 0.811935 16.4077C1.28638 14.7592 2.27102 11.8031 3.53351 10.5406C5.3304 8.74367 6.25533 8.69323 8.5863 8.82496C8.68055 8.83029 8.77362 8.80034 8.84674 8.74062C9.8785 7.89798 17.7778 1.58964 23.6535 1.06349C24.2343 1.01148 24.7069 1.48414 24.6549 2.06493C24.1288 7.94057 17.8204 15.84 16.9778 16.8717ZM14.5918 11.172C15.3823 11.9625 16.9227 11.7038 18.0323 10.5942C19.1419 9.4846 19.4006 7.94423 18.6101 7.1537C17.8195 6.36317 16.2792 6.62183 15.1695 7.73145C14.0599 8.84106 13.8013 10.3814 14.5918 11.172Z" fill="#A38F8F"/>
</svg>
