<svg width="160" height="48" viewBox="0 0 160 48" fill="none" xmlns="http://www.w3.org/2000/svg">
<path d="M41.5869 31.6587L41.7002 31.7724L41.5869 31.6587Z" fill="#3448F0"/>
<path d="M41.9093 13.4363C41.7438 15.7526 40.42 18.0926 39.0844 19.9516L38.9249 20.1773C38.4344 20.8425 37.8907 21.5077 37.2997 22.1669C35.5918 24.008 33.7243 25.677 31.6914 27.1617C30.805 27.8269 29.9008 28.4505 28.973 29.0445C28.7484 29.187 28.5238 29.3236 28.2992 29.4602L27.8442 29.7512C27.8324 29.7572 27.8265 29.775 27.8324 29.7928C27.8383 29.8047 27.8442 29.8047 27.856 29.8047L29.1857 29.8225H29.3571C29.5403 29.8225 29.7235 29.8225 29.9067 29.8225C32.0578 29.8284 34.2799 29.8462 36.4192 29.7928C36.8033 29.7809 36.2478 30.3511 36.1591 30.4996C35.9818 30.7965 35.7986 31.0816 35.6095 31.3726C35.4145 31.6696 35.2018 31.9546 34.989 32.2338C34.7999 32.4892 34.6049 32.7386 34.4217 32.994C32.1346 36.1833 30.6277 37.5493 27.6315 38.6303C27.135 38.8084 26.7923 38.9629 26.3727 38.6124C26.2545 38.5115 26.1363 38.4165 26.0181 38.3096C24.8244 37.2643 23.8256 36.017 23.0633 34.6213C20.788 30.4639 20.9831 25.677 22.6555 21.3354C23.2346 19.8269 23.9497 18.3837 24.8007 16.9939C24.8362 16.9404 24.8657 16.887 24.9012 16.8335C27.3419 12.8543 30.5981 9.2611 34.1557 6.24401C34.3744 6.05395 34.599 5.86984 34.8176 5.68573C34.8413 5.66791 34.8767 5.66791 34.8945 5.68573C34.9949 5.78075 35.0895 5.87578 35.1899 5.97081C35.3672 6.14304 35.5504 6.31528 35.7277 6.48751C36.0528 6.80823 36.3778 7.123 36.6969 7.44372C37.6425 8.39399 38.5407 9.3977 39.4213 10.4133C39.4567 10.4549 39.4922 10.4905 39.5276 10.5321C39.9295 10.9953 40.3314 11.4645 40.7214 11.9337C40.9342 12.1891 41.1469 12.4445 41.3597 12.7058C41.466 12.8365 41.5724 12.9671 41.6729 13.0919C41.732 13.1809 41.9152 13.3413 41.9093 13.4363Z" fill="#3448F0"/>
<path d="M48.2279 29.7828C48.3875 28.5712 48.3757 27.3358 48.1747 26.1183C48.0743 25.4472 47.9147 24.7464 47.6902 24.004C47.3592 22.923 46.9455 21.8659 46.4728 20.8384C46.2364 20.3276 45.9823 19.8228 45.7222 19.3299C45.5922 19.0923 45.4622 18.8547 45.3322 18.6172C45.2435 18.4627 44.7412 17.6372 44.8358 18.142C44.8594 18.2667 44.7353 18.6944 44.7058 18.8191C44.6408 19.0864 44.5698 19.3536 44.4989 19.6209C44.3571 20.1257 44.2094 20.6424 44.0143 21.1294L43.447 22.5489L42.856 23.8139L42.2355 24.9899V24.9958C42.2355 25.0077 42.2414 25.0136 42.2532 25.0136H46.4609H46.4668C46.4728 25.0196 46.4787 25.0255 46.4787 25.0374C46.1418 25.9461 45.7695 26.837 45.3617 27.716C44.688 29.171 43.9257 30.5786 43.0688 31.9328L42.3833 32.9721L41.6682 33.9699C41.0358 34.8192 40.3799 35.6032 39.6884 36.3337C39.0384 37.0167 38.3588 37.664 37.6201 38.2461C36.8104 38.8875 35.9417 39.4577 35.0139 39.9031C34.1097 40.3426 33.1464 40.6693 32.1654 40.8771C31.7695 40.9603 31.3735 41.0197 30.9717 41.0731C30.9244 41.0791 30.8712 41.085 30.8594 41.1325C31.013 41.1563 31.1667 41.1682 31.3203 41.1978C32.0827 41.3582 32.8391 41.5126 33.6192 41.578C34.3875 41.6433 35.1616 41.6433 35.9299 41.578C36.8932 41.5007 37.8505 41.3166 38.7724 41.0316C39.5052 40.8059 40.2203 40.5208 40.9058 40.1704C43.5297 38.8341 45.669 36.6485 46.9633 33.9936C47.5956 32.6752 48.0329 31.2438 48.2279 29.7828Z" fill="#3448F0"/>
<path d="M43.6934 24.9185L43.6998 24.9249C43.6998 24.9249 43.6998 24.9185 43.6934 24.9185Z" fill="#3448F0"/>
<path d="M43.1705 34.5299L43.1641 34.5234C43.1641 34.5234 43.1641 34.5299 43.1705 34.5299Z" fill="#3448F0"/>
<path d="M43.156 34.5179C43.156 34.5179 43.1498 34.5117 43.1436 34.5117C43.1436 34.5117 43.1498 34.5117 43.156 34.5179Z" fill="#3448F0"/>
<path d="M43.1777 34.5386L43.1842 34.545C43.1842 34.5386 43.1777 34.5386 43.1777 34.5386Z" fill="#3448F0"/>
<path d="M43.1943 34.5503C43.1943 34.5503 43.2005 34.5565 43.2005 34.5627C43.1943 34.5565 43.1943 34.5565 43.1943 34.5503Z" fill="#3448F0"/>
<path d="M40.408 9.69885C39.9884 9.56225 39.557 9.46722 39.1138 9.41971C39.0902 9.41971 39.0665 9.41377 39.0429 9.41377C38.8951 9.40189 38.7474 9.39001 38.5937 9.40189C38.5287 9.40783 38.4696 9.41377 38.4105 9.44347C38.3692 9.46722 38.3278 9.5088 38.3455 9.55631C38.3633 9.60382 38.4165 9.6157 38.4637 9.62164C38.6056 9.6454 38.7415 9.68103 38.8774 9.71667C39.2793 9.82357 39.687 9.93642 40.0593 10.1265C40.2425 10.2215 40.4198 10.3225 40.5853 10.4472C40.8099 10.6135 41.0167 10.8035 41.194 11.0173C41.3713 11.2312 41.519 11.4747 41.6254 11.73C41.7436 12.0032 41.8204 12.2883 41.8618 12.5853C41.9032 12.8704 41.9032 13.1554 41.8854 13.4405C41.72 15.7568 40.3962 18.0968 39.0606 19.9558L38.901 20.1815C38.4105 20.8467 37.8669 21.5118 37.2759 22.1711C35.568 24.0122 33.7005 25.6811 31.6676 27.1659C30.5743 27.9915 29.4396 28.7576 28.2754 29.4644L27.8204 29.7554C27.8145 29.7614 27.8086 29.7673 27.8086 29.7792C27.8086 29.797 27.8204 29.8089 27.8381 29.8089L29.1678 29.8267H35.698H36.5017C36.5254 29.8267 36.5313 29.8386 36.5194 29.8564C35.893 30.9967 35.172 32.0717 34.3565 33.0873L34.1851 33.3011C32.7609 35.065 31.0648 36.6745 29.1382 37.8386C28.3759 38.2959 27.5781 38.6523 26.733 38.8958C25.8525 39.169 23.9318 39.555 23.7309 38.1712C23.7013 37.9574 23.6836 37.7376 23.6954 37.5179C23.7013 37.3041 23.7309 37.0903 23.7782 36.8824C23.8195 36.6983 23.8786 36.5142 23.9495 36.336C23.9673 36.2944 23.985 36.2469 24.0086 36.2113C24.0205 36.1935 24.0323 36.1756 24.05 36.1578C24.0677 36.1341 23.9791 36.0272 23.9614 36.0093C23.9259 35.9618 23.985 36.0034 23.9377 35.9737C23.8964 35.95 23.8727 35.9143 23.8432 35.8787C23.3881 36.3716 22.9863 37.0725 22.9685 37.7436C22.9272 39.6798 24.5819 40.0896 26.1361 39.7748C27.6135 39.4778 28.9314 38.8483 30.2788 38.0405C30.5329 37.8921 30.8225 37.6723 31.1534 37.3872C32.554 36.1875 33.7951 34.9225 34.8706 33.598C35.9817 32.2083 36.9272 30.7176 37.7014 29.114C37.7132 29.0962 37.7014 29.0843 37.6837 29.0843L30.2906 29.0783C30.2847 29.0783 30.2729 29.0724 30.2729 29.0665C30.267 29.0546 30.267 29.0427 30.2788 29.0308L32.1285 27.7123C34.1792 26.2097 36.0644 24.5289 37.79 22.67C38.4637 21.9276 39.0842 21.1555 39.6634 20.3537C40.7803 18.7917 41.7672 17.0218 42.3168 15.1569C42.9078 13.1436 42.7896 10.4888 40.408 9.69885ZM31.5612 27.4094L31.5671 27.4154C31.5671 27.4154 31.5612 27.4154 31.5612 27.4094Z" fill="#3448F0"/>
<path d="M46.5095 24.9878H42.3018C42.2959 24.9878 42.2959 24.9878 42.2959 24.9878C42.29 24.9818 42.2841 24.97 42.29 24.964L42.9105 23.7881L43.5015 22.523L44.0688 21.1036C44.2166 20.7353 44.3288 20.3493 44.4411 19.9692C44.8134 18.7279 45.103 17.4094 45.0557 16.1087C45.0144 14.8971 44.6893 13.6737 44.1988 12.569C44.0806 12.3017 43.9506 12.0404 43.8147 11.791C43.7792 11.7256 43.7083 11.6544 43.667 11.595C43.6551 11.5831 43.6374 11.5771 43.6197 11.5771C43.596 11.5831 43.5842 11.6068 43.596 11.6306C43.7024 11.9751 43.8088 12.3255 43.9152 12.6759C44.1752 13.5252 44.3348 14.3983 44.382 15.2832C44.3998 15.6395 44.4057 16.0018 44.3879 16.3582C44.3702 16.7145 44.3348 17.0768 44.2816 17.4272C44.1752 18.1637 44.0215 18.8823 43.8147 19.601C43.7142 19.9514 43.602 20.2958 43.4838 20.6344C43.4719 20.6641 43.4601 20.6938 43.4542 20.7294C43.1055 21.6856 42.6978 22.6181 42.2309 23.5267C41.8527 24.287 41.4331 25.0234 40.9603 25.7421C40.9485 25.7599 40.9544 25.7658 40.9721 25.7658L45.434 25.7183C45.4399 25.7183 45.4399 25.7183 45.4458 25.7183C45.4576 25.7242 45.4635 25.7421 45.4576 25.7539L44.7603 27.3694C43.927 29.1868 42.9401 30.9269 41.8054 32.584C41.0017 33.748 40.1152 34.8468 39.146 35.8683C38.4014 36.6464 37.6095 37.3769 36.7526 38.0183C36.1912 38.44 35.5884 38.7963 34.9856 39.1527C34.7906 39.2655 34.5956 39.3784 34.3947 39.4734C34.1819 39.5684 33.9633 39.6397 33.7446 39.7169C33.5082 39.806 33.2718 39.901 33.0295 39.9842C32.7872 40.0673 32.539 40.1148 32.2967 40.192C32.0958 40.2514 31.8949 40.3049 31.688 40.3524C31.2684 40.4474 30.8489 40.5246 30.4234 40.59C28.7864 40.8572 27.043 40.881 25.3883 40.78C25.3824 40.78 25.3824 40.78 25.3765 40.78C25.3469 40.786 25.3292 40.8097 25.3351 40.8394C25.341 40.881 25.9379 41.0057 26.0029 41.0176C26.5584 41.1067 27.1198 41.172 27.6813 41.2017C28.2486 41.2373 28.81 41.2373 29.3773 41.2076C29.7083 41.1898 30.0392 41.1898 30.3702 41.1601C30.9257 41.1067 31.4812 41.0057 32.0249 40.8929C32.5627 40.786 33.0886 40.6434 33.6087 40.4771C33.8451 40.3999 34.0755 40.3168 34.306 40.2277C35.3048 39.8357 36.2267 39.2952 37.0836 38.6597C37.255 38.535 37.4204 38.4044 37.5859 38.2678C38.3364 37.6679 39.0456 37.0146 39.7134 36.3078C40.4048 35.5833 41.0667 34.7933 41.6931 33.944L42.4082 32.9463L43.0937 31.9069C43.9506 30.5528 44.713 29.1452 45.3867 27.6901C45.7944 26.8111 46.1668 25.9202 46.5036 25.0115V25.0056C46.5272 24.9997 46.5213 24.9878 46.5095 24.9878ZM43.5133 20.8779H43.5074C43.5074 20.8779 43.5074 20.8779 43.5133 20.8779ZM43.4956 20.8779C43.4956 20.8779 43.4897 20.8779 43.4897 20.8838C43.4897 20.8838 43.4956 20.8838 43.4956 20.8779ZM43.4779 20.8957C43.4838 20.8898 43.4838 20.8898 43.4779 20.8957V20.8957Z" fill="#3448F0"/>
<path d="M36.5625 41.5496C36.5625 41.5496 44.1624 35.747 47.4304 23.1738C47.4304 23.1738 52.0163 38.384 36.5625 41.5496Z" fill="#3448F0"/>
<path d="M45.812 19.6509C45.812 19.6509 44.5296 23.3153 43.1172 24.6517H46.9112C46.9112 24.6517 45.4633 30.3711 43.7318 32.4973C43.7318 32.4973 46.6039 31.6302 48.1168 30.5077C48.1168 30.5077 49.3224 25.5782 45.812 19.6509Z" fill="#3448F0"/>
<path d="M41.3603 12.7248C41.4667 12.8555 41.5731 12.9861 41.6735 13.1109C41.7267 13.1762 41.8863 13.3128 41.904 13.4138C41.904 13.4019 41.904 13.396 41.904 13.3841C41.1594 12.3982 40.3675 11.436 39.5283 10.4917C39.5401 10.5273 39.552 10.563 39.5697 10.5986C39.9597 11.044 40.3439 11.4954 40.7221 11.9527C40.9348 12.2081 41.1476 12.4694 41.3603 12.7248Z" fill="#3448F0"/>
<path d="M30.9621 26.5238C32.2681 25.1875 33.521 23.7858 34.7206 22.3367L36.003 20.6975L37.4155 18.6663L37.5337 18.4822C38.692 16.6826 39.7734 14.5742 39.8739 12.4361C39.9034 11.8778 39.7971 11.272 39.5607 10.6068C39.5489 10.589 39.5311 10.5712 39.5193 10.5593C39.4839 10.5178 39.4484 10.4821 39.4129 10.4405C38.5324 9.43089 37.6341 8.42123 36.6886 7.47096C36.3694 7.15025 36.0444 6.82953 35.7194 6.51476C35.5421 6.34252 35.3648 6.17028 35.1816 5.99805C34.8329 6.07526 34.4843 6.16434 34.1415 6.26531C30.5957 9.27053 27.3394 12.8637 24.8987 16.843C24.8633 16.8964 24.8337 16.9499 24.7983 17.0033C24.686 17.6982 24.6328 18.405 24.6328 19.1295C24.6328 22.9128 26.1871 26.3338 28.6928 28.7747C29.4669 28.0442 30.2234 27.29 30.9621 26.5238Z" fill="#3448F0"/>
<path d="M30.9621 26.5238C32.2681 25.1875 33.521 23.7858 34.7206 22.3367L36.003 20.6975L37.4155 18.6663L37.5337 18.4822C38.692 16.6826 39.7734 14.5742 39.8739 12.4361C39.9034 11.8778 39.7971 11.272 39.5607 10.6068C39.5489 10.589 39.5311 10.5712 39.5193 10.5593C39.4839 10.5178 39.4484 10.4821 39.4129 10.4405C38.5324 9.43089 37.6341 8.42123 36.6886 7.47096C36.3694 7.15025 36.0444 6.82953 35.7194 6.51476C35.5421 6.34252 35.3648 6.17028 35.1816 5.99805C34.8329 6.07526 34.4843 6.16434 34.1415 6.26531C30.5957 9.27053 27.3394 12.8637 24.8987 16.843C24.8633 16.8964 24.8337 16.9499 24.7983 17.0033C24.686 17.6982 24.6328 18.405 24.6328 19.1295C24.6328 22.9128 26.1871 26.3338 28.6928 28.7747C29.4669 28.0442 30.2234 27.29 30.9621 26.5238Z" fill="#3448F0"/>
<path d="M39.0854 19.8947L38.9258 20.1204C38.4353 20.7856 37.8917 21.4508 37.3007 22.1101C35.5928 23.9512 33.7253 25.6201 31.6924 27.1049C30.8 27.776 29.8781 28.4115 28.9385 29.0054C28.9503 29.0173 28.9621 29.0292 28.9739 29.0411C29.9018 28.4531 30.8118 27.8235 31.6924 27.1583C33.7194 25.6736 35.5928 24.0046 37.3007 22.1635C37.8917 21.5043 38.4353 20.845 38.9258 20.1739L39.0854 19.9482C40.421 18.0892 41.7448 15.7492 41.9102 13.4329C41.9102 13.427 41.9102 13.4151 41.9102 13.4092C41.7329 15.7136 40.4151 18.0477 39.0854 19.8947Z" fill="#3448F0"/>
<path d="M37.3007 22.1122C37.8917 21.453 38.4354 20.7937 38.9259 20.1226L39.0855 19.8969C40.4151 18.0498 41.733 15.7158 41.9044 13.4114C41.8867 13.3163 41.7271 13.1738 41.6739 13.1085C41.5675 12.9778 41.4612 12.8471 41.3607 12.7224C41.1479 12.467 40.9352 12.2057 40.7224 11.9503C40.3442 11.4989 39.9601 11.0476 39.5701 10.5962C39.8064 11.2614 39.9069 11.8672 39.8833 12.4255C39.7769 14.5636 38.7013 16.672 37.543 18.4715L37.4248 18.6556L36.0124 20.6868L34.73 22.326C33.5363 23.7811 32.2834 25.1768 30.9715 26.5132C30.2328 27.2793 29.4763 28.0336 28.7021 28.77C28.779 28.8472 28.8617 28.9245 28.9444 29.0017C29.8841 28.4077 30.806 27.7723 31.6984 27.1011C33.7254 25.6223 35.5928 23.9534 37.3007 22.1122Z" fill="#3448F0"/>
<path opacity="0.8" d="M37.3007 22.1122C37.8917 21.453 38.4354 20.7937 38.9259 20.1226L39.0855 19.8969C40.4151 18.0498 41.733 15.7158 41.9044 13.4114C41.8867 13.3163 41.7271 13.1738 41.6739 13.1085C41.5675 12.9778 41.4612 12.8471 41.3607 12.7224C41.1479 12.467 40.9352 12.2057 40.7224 11.9503C40.3442 11.4989 39.9601 11.0476 39.5701 10.5962C39.8064 11.2614 39.9069 11.8672 39.8833 12.4255C39.7769 14.5636 38.7013 16.672 37.543 18.4715L37.4248 18.6556L36.0124 20.6868L34.73 22.326C33.5363 23.7811 32.2834 25.1768 30.9715 26.5132C30.2328 27.2793 29.4763 28.0336 28.7021 28.77C28.779 28.8472 28.8617 28.9245 28.9444 29.0017C29.8841 28.4077 30.806 27.7723 31.6984 27.1011C33.7254 25.6223 35.5928 23.9534 37.3007 22.1122Z" fill="#3448F0"/>
<path d="M36.1715 30.4979C35.9943 30.7948 35.8111 31.0859 35.6219 31.3709C35.4269 31.6679 35.2142 31.953 35.0014 32.2381C33.1221 31.7986 31.3906 30.9671 29.9014 29.8268C32.0584 29.8327 34.2864 29.8505 36.4257 29.7971C36.8098 29.7852 36.2602 30.3553 36.1715 30.4979Z" fill="#3448F0"/>
<path opacity="0.8" d="M36.5345 29.8486H35.7308C35.1221 30.8286 34.4247 31.6898 33.6328 32.4381L33.1069 32.9251C32.9591 33.0558 32.8055 33.1805 32.6518 33.2993C32.4982 33.424 32.3386 33.5428 32.1791 33.6556C32.0195 33.7744 31.8599 33.8873 31.6945 34.0001C31.529 34.1129 31.3635 34.2199 31.198 34.3268C31.0326 34.4337 30.8612 34.5346 30.6898 34.6356C30.5184 34.7366 30.347 34.8316 30.1757 34.9266C30.0043 35.0216 29.827 35.1107 29.6497 35.1998C29.4724 35.2889 29.2951 35.3721 29.1119 35.4552C28.9346 35.5383 28.7514 35.6156 28.5682 35.6928C28.385 35.77 28.2018 35.8412 28.0186 35.9125C27.8354 35.9838 27.6463 36.0491 27.4631 36.1144C27.274 36.1798 27.0908 36.2392 26.9017 36.2986C26.7126 36.358 26.5235 36.4114 26.3344 36.4649C26.1453 36.5183 25.9562 36.5658 25.7611 36.6133C25.572 36.6609 25.377 36.7024 25.1879 36.744C25.0638 36.7737 24.9338 36.7975 24.8097 36.8212C24.7506 36.8331 24.6797 36.839 24.6442 36.8865C24.6206 36.9162 24.6383 36.94 24.656 36.9637C24.6915 37.0053 24.721 37.041 24.7565 37.0825C24.8274 37.1597 24.8924 37.2369 24.9633 37.3142C25.1052 37.4686 25.247 37.6171 25.3947 37.7596C25.5425 37.9081 25.6961 38.0506 25.8498 38.1932C26.0093 38.3357 26.1689 38.4723 26.3285 38.6089C26.3994 38.6683 26.4644 38.7217 26.5353 38.7752C26.5708 38.8049 26.6062 38.8286 26.6417 38.8583C26.6594 38.8702 26.6771 38.888 26.6949 38.8999C26.7008 38.9059 26.7421 38.9415 26.7481 38.9415C27.5931 38.692 28.3969 38.3416 29.1533 37.8843C31.0858 36.7202 32.7818 35.0989 34.212 33.3349L34.3834 33.1211C35.1989 32.1055 35.9199 31.0305 36.5463 29.8902C36.564 29.8605 36.5581 29.8486 36.5345 29.8486Z" fill="#3448F0"/>
<path d="M23.3982 27.6783C23.3982 27.6783 22.1985 20.0049 34.2779 8.41162C34.2779 8.41162 24.8933 20.0524 28.2855 28.1772L23.3982 27.6783Z" fill="#3448F0"/>
<path d="M62.5188 29.3815C61.4223 29.3815 60.4494 29.1343 59.6001 28.6398C58.7509 28.1345 58.0844 27.4465 57.6006 26.5758C57.1169 25.6943 56.875 24.6838 56.875 23.5443C56.875 22.4048 57.1169 21.3997 57.6006 20.5289C58.0844 19.6474 58.7455 18.9594 59.584 18.4649C60.4332 17.9597 61.4061 17.707 62.5026 17.707C63.2766 17.707 63.9969 17.8468 64.6634 18.1263C65.3299 18.395 65.9104 18.7767 66.4049 19.2712C66.9101 19.7549 67.2971 20.3139 67.5659 20.9482L65.518 21.706C65.3352 21.3083 65.0934 20.9643 64.7924 20.674C64.4914 20.373 64.1474 20.1419 63.7604 19.9807C63.3734 19.8087 62.9541 19.7227 62.5026 19.7227C61.8469 19.7227 61.261 19.8893 60.745 20.2225C60.2398 20.545 59.842 20.9912 59.5518 21.5609C59.2723 22.1307 59.1325 22.7918 59.1325 23.5443C59.1325 24.2968 59.2776 24.9633 59.5679 25.5438C59.8581 26.1135 60.2613 26.565 60.7773 26.8983C61.2933 27.2208 61.8845 27.382 62.551 27.382C63.0132 27.382 63.4325 27.296 63.8088 27.124C64.1958 26.9413 64.5344 26.694 64.8246 26.3823C65.1256 26.0705 65.3675 25.7104 65.5503 25.3019L67.5981 26.0437C67.3294 26.6994 66.9424 27.2799 66.4371 27.7852C65.9426 28.2904 65.3621 28.6828 64.6956 28.9623C64.0291 29.2418 63.3035 29.3815 62.5188 29.3815Z" fill="#212B36"/>
<path d="M74.2515 24.5279L72.1713 23.9958L75.7995 17.9005H78.315L74.2515 24.5279ZM72.1068 29.188V23.77H74.316V29.188H72.1068ZM72.1713 24.5279L68.1078 17.9005H70.6233L74.2515 23.9958L72.1713 24.5279Z" fill="#212B36"/>
<path d="M87.4814 29.188L83.1599 17.9005H85.369L89.8195 29.188H87.4814ZM78.5643 29.188L83.0148 17.9005H85.2239L80.9024 29.188H78.5643ZM80.6605 26.7048V24.7537H87.7394V26.7048H80.6605Z" fill="#212B36"/>
<path d="M91.1719 29.188V17.9005H93.4777L98.9925 25.4793V17.9005H101.185V29.188H98.9925L93.381 21.4642V29.188H91.1719Z" fill="#212B36"/>
<path d="M103.644 29.188V17.9005H110.787V19.9162H105.853V22.48H110.11V24.4473H105.853V27.1724H110.851V29.188H103.644Z" fill="#212B36"/>
<path d="M113.139 29.188V17.9005H117.332C118.127 17.9005 118.831 18.0564 119.444 18.3682C120.057 18.6799 120.535 19.1099 120.879 19.6582C121.223 20.1957 121.395 20.8245 121.395 21.5448C121.395 22.2543 121.212 22.8885 120.847 23.4475C120.492 23.9958 120.003 24.4258 119.379 24.7375C118.756 25.0385 118.046 25.189 117.251 25.189H115.348V29.188H113.139ZM119.347 29.188L116.735 24.6569L118.428 23.4475L121.847 29.188H119.347ZM115.348 23.1734H117.348C117.681 23.1734 117.977 23.1035 118.235 22.9638C118.503 22.824 118.713 22.6305 118.863 22.3833C119.025 22.136 119.105 21.8565 119.105 21.5448C119.105 21.061 118.928 20.6687 118.573 20.3677C118.229 20.0667 117.783 19.9162 117.235 19.9162H115.348V23.1734Z" fill="#212B36"/>
<path d="M128.773 29.3815C127.622 29.3815 126.601 29.1343 125.709 28.6398C124.827 28.1345 124.134 27.4465 123.629 26.5758C123.124 25.6943 122.871 24.6838 122.871 23.5443C122.871 22.4048 123.124 21.3997 123.629 20.5289C124.134 19.6474 124.827 18.9594 125.709 18.4649C126.601 17.9597 127.622 17.707 128.773 17.707C129.461 17.707 130.095 17.8092 130.675 18.0134C131.256 18.2177 131.767 18.5025 132.207 18.868C132.659 19.2228 133.035 19.6313 133.336 20.0935L131.53 21.2223C131.347 20.932 131.105 20.674 130.804 20.4483C130.514 20.2225 130.192 20.0452 129.837 19.9162C129.482 19.7872 129.127 19.7227 128.773 19.7227C128.063 19.7227 127.434 19.8893 126.886 20.2225C126.338 20.545 125.908 20.9912 125.596 21.5609C125.284 22.1307 125.128 22.7918 125.128 23.5443C125.128 24.286 125.279 24.9472 125.58 25.5277C125.892 26.1082 126.327 26.565 126.886 26.8983C127.445 27.2208 128.09 27.382 128.821 27.382C129.391 27.382 129.896 27.2692 130.337 27.0434C130.788 26.8177 131.143 26.5005 131.401 26.092C131.659 25.6835 131.788 25.2105 131.788 24.673L133.884 24.3505C133.884 25.4148 133.664 26.3232 133.223 27.0757C132.793 27.8282 132.191 28.4033 131.417 28.801C130.654 29.188 129.772 29.3815 128.773 29.3815ZM129.144 24.8665V23.1412H133.884V24.5118L132.691 24.8665H129.144Z" fill="#212B36"/>
<path d="M140.547 24.5279L138.466 23.9958L142.095 17.9005H144.61L140.547 24.5279ZM138.402 29.188V23.77H140.611V29.188H138.402ZM138.466 24.5279L134.403 17.9005H136.918L140.547 23.9958L138.466 24.5279Z" fill="#212B36"/>
</svg>
