<svg width="151" height="32" viewBox="0 0 151 32" fill="none" xmlns="http://www.w3.org/2000/svg">
<path d="M26.5656 7.71676C25.1961 5.32363 23.2631 3.46515 20.7652 2.14064C18.2666 0.816808 15.3482 0.154541 12.0074 0.154541H0.133789L7.85385 6.74621H11.5104C14.4287 6.74621 16.7023 7.55757 18.3264 9.18366C19.9525 10.8091 20.7652 13.0813 20.7652 15.9997C20.7652 18.92 19.9525 21.1768 18.3264 22.772C16.7023 24.3679 14.4287 25.1638 11.5104 25.1638H7.85385L0.133789 31.8455H12.0074C15.3173 31.8455 18.229 31.1846 20.7423 29.8587C22.5934 28.8841 24.1342 27.6154 25.3647 26.0511C25.8046 25.4922 26.2049 24.8958 26.5656 24.2618C27.9351 21.8545 28.6202 19.1007 28.6202 15.9997C28.6202 12.8711 27.9351 10.1085 26.5656 7.71676Z" fill="#A38F8F"/>
<path d="M0.129883 3.34058L0.133222 28.6591L14.916 15.9999L0.129883 3.34058Z" fill="#A38F8F"/>
<path d="M28.6202 15.9997C28.6202 19.1007 27.9352 21.8545 26.5656 24.2618C26.205 24.8958 25.8047 25.4922 25.3647 26.0511C26.2802 -1.05041 7.85385 6.74621 7.85385 6.74621L0.133789 0.154541H12.0074C15.3482 0.154541 18.2666 0.816808 20.7652 2.14064C23.2631 3.46515 25.1961 5.32363 26.5656 7.71676C27.9352 10.1085 28.6202 12.8711 28.6202 15.9997Z" fill="#A38F8F"/>
<path d="M0.129883 3.3406L14.916 15.9999C14.916 15.9999 3.33432 3.87635 0.133222 28.6592L0.129883 3.3406Z" fill="#A38F8F"/>
<path d="M49.8019 16.1605C49.8019 20.518 46.7387 23.7105 42.3381 23.7105H37.4629V8.6106H42.3381C46.7387 8.6106 49.8019 11.8031 49.8019 16.1605ZM47.1701 16.1605C47.1701 13.3993 45.315 11.0697 42.3811 11.0697H40.0515V21.2514H42.3811C45.3149 21.2514 47.1701 18.9 47.1701 16.1605Z" fill="#A38F8F"/>
<path d="M61.4283 18.5547C61.4283 18.7488 61.4283 19.1372 61.4067 19.5254H53.7703C53.9646 20.4314 55.0215 21.5963 56.6394 21.5963C58.4297 21.5963 59.4437 20.5608 59.4437 20.5608L60.7379 22.5022C60.7379 22.5022 59.1201 23.9691 56.6394 23.9691C53.533 23.9691 51.1387 21.5963 51.1387 18.5979C51.1387 15.5995 53.3174 13.2266 56.2726 13.2266C59.0769 13.2266 61.4283 15.4053 61.4283 18.5547ZM58.8396 17.6487C58.7965 16.7642 57.9768 15.5778 56.2726 15.5778C54.6116 15.5778 53.8566 16.7426 53.7703 17.6487H58.8396Z" fill="#A38F8F"/>
<path d="M67.6197 23.9691C64.9663 23.9691 62.6367 21.7472 62.6367 18.5979C62.6367 15.4486 64.9663 13.2266 67.6197 13.2266C69.7552 13.2266 70.7045 14.8228 70.7045 14.8228V13.4854H73.0988V23.7966C73.0988 27.3559 70.467 28.9305 67.5981 28.9305C64.6643 28.9305 62.7445 26.9891 62.7445 26.9891L64.2114 25.0045C64.2114 25.0045 65.6351 26.5146 67.5981 26.5146C69.6043 26.5146 70.5102 25.4144 70.5102 23.8828V22.6533C70.1652 23.0847 69.2376 23.9691 67.6197 23.9691ZM70.5102 17.0663C70.5102 17.0663 69.7768 15.6425 68.0727 15.6425C66.3253 15.6425 65.2683 16.9153 65.2683 18.5979C65.2683 20.2805 66.3253 21.5532 68.0727 21.5532C69.7552 21.5532 70.5102 20.1294 70.5102 20.1294V17.0663Z" fill="#A38F8F"/>
<path d="M82.6983 13.5502L81.7922 15.8798C81.7922 15.8798 81.3177 15.6425 80.5627 15.6425C78.9879 15.6425 78.2761 17.0231 78.2761 17.0231V23.7103H75.6875V13.4854H78.1466V14.9739C78.1466 14.9739 79.0311 13.2266 80.9294 13.2266C81.857 13.2266 82.6983 13.5502 82.6983 13.5502Z" fill="#A38F8F"/>
<path d="M93.2896 18.5547C93.2896 18.7488 93.2896 19.1372 93.268 19.5254H85.6316C85.8259 20.4314 86.8829 21.5963 88.5007 21.5963C90.291 21.5963 91.305 20.5608 91.305 20.5608L92.5992 22.5022C92.5992 22.5022 90.9814 23.9691 88.5007 23.9691C85.3944 23.9691 83 21.5963 83 18.5979C83 15.5995 85.1787 13.2266 88.1339 13.2266C90.9382 13.2266 93.2896 15.4053 93.2896 18.5547ZM90.701 17.6487C90.6578 16.7642 89.8381 15.5778 88.1339 15.5778C86.4729 15.5778 85.718 16.7426 85.6316 17.6487H90.701Z" fill="#A38F8F"/>
<path d="M104.788 18.5547C104.788 18.7488 104.788 19.1372 104.766 19.5254H97.1297C97.3239 20.4314 98.3809 21.5963 99.9987 21.5963C101.789 21.5963 102.803 20.5608 102.803 20.5608L104.097 22.5022C104.097 22.5022 102.479 23.9691 99.9987 23.9691C96.8924 23.9691 94.498 21.5963 94.498 18.5979C94.498 15.5995 96.6767 13.2266 99.632 13.2266C102.436 13.2266 104.788 15.4053 104.788 18.5547ZM102.199 17.6487C102.156 16.7642 101.336 15.5778 99.632 15.5778C97.971 15.5778 97.216 16.7426 97.1297 17.6487H102.199Z" fill="#A38F8F"/>
<path d="M106.986 8.6106H109.575V21.2514H116.003V23.7105H106.986V8.6106Z" fill="#A38F8F"/>
<path d="M126.444 17.0447V23.7102H124.05V22.416C124.05 22.416 122.993 23.9691 120.685 23.9691C118.765 23.9691 116.996 22.718 116.996 20.5392C116.996 18.5763 118.787 17.1526 121.008 17.1526C122.885 17.1526 123.856 17.886 123.856 17.886V17.3035C123.856 15.9661 122.562 15.5348 121.655 15.5348C120.167 15.5348 118.592 16.2897 118.592 16.2897L117.751 14.1542C117.751 14.1542 119.649 13.2266 121.785 13.2266C124.719 13.2266 126.444 14.715 126.444 17.0447ZM123.856 20.6255V19.5685C123.856 19.5685 122.928 19.0509 121.526 19.0509C120.728 19.0509 119.628 19.396 119.628 20.4962C119.628 21.5747 120.685 21.812 121.483 21.812C123.036 21.812 123.856 20.6255 123.856 20.6255Z" fill="#A38F8F"/>
<path d="M129.335 8.6106H131.924V14.5642C131.924 14.5642 132.873 13.2268 134.814 13.2268C137.467 13.2268 139.797 15.4487 139.797 18.5982C139.797 21.7477 137.467 23.9694 134.814 23.9694C132.614 23.9694 131.73 22.3731 131.73 22.3731V23.7105H129.335V8.6106ZM131.924 20.1297C131.924 20.1297 132.657 21.5534 134.361 21.5534C136.108 21.5534 137.165 20.2806 137.165 18.5982C137.165 16.9158 136.108 15.6428 134.361 15.6428C132.657 15.6428 131.924 17.0665 131.924 17.0665V20.1297Z" fill="#A38F8F"/>
<path d="M142.494 20.2373C142.494 20.2373 143.853 21.7041 145.579 21.7041C146.636 21.7041 147.52 21.4021 147.52 20.7766C147.52 20.1078 147.046 19.9785 145.493 19.6549C143.465 19.2234 141.696 18.3605 141.696 16.4191C141.696 14.8228 143.292 13.2266 146.096 13.2266C148.405 13.2266 149.936 14.4776 149.936 14.4776L148.642 16.3761C148.642 16.3761 147.477 15.4916 146.096 15.4916C145.126 15.4916 144.241 15.8368 144.241 16.4622C144.241 17.0877 144.932 17.2388 146.657 17.6055C148.685 18.0371 150.13 18.7057 150.13 20.8196C150.13 22.567 148.275 23.9691 145.665 23.9691C142.667 23.9691 141.049 22.114 141.049 22.114L142.494 20.2373Z" fill="#A38F8F"/>
</svg>
