<svg width="140" height="46" viewBox="0 0 140 46" fill="none" xmlns="http://www.w3.org/2000/svg">
<path d="M36.2615 13.2923C36.2615 12.0386 35.366 11.1757 34.1122 11.1757C30.9698 11.1757 27.8273 11.1757 24.6848 11.1757C21.5424 11.1757 18.5627 11.2408 15.5017 11.1431C13.6129 11.0942 12.8477 12.2503 12.8477 13.8297C12.8802 16.907 12.8477 19.9843 12.8477 23.078C12.8477 26.1716 12.8477 28.9721 12.8477 31.9192C12.8477 33.3683 13.7106 34.3778 14.9643 34.3778C21.3633 34.3778 27.7622 34.3778 34.1448 34.3778C35.3497 34.3778 36.2452 33.4823 36.2452 32.2774C36.2452 25.9599 36.2452 19.6261 36.2452 13.3086L36.2615 13.2923ZM15.697 20.0006C16.2832 18.9097 16.9508 17.8677 17.6509 16.8419C18.1557 16.0929 19.1326 15.9301 19.8816 16.386C20.6631 16.8419 20.9562 17.8188 20.5003 18.6329C19.8979 19.6913 19.2466 20.7008 18.5953 21.7265C18.2859 22.215 17.7975 22.443 17.2276 22.443C15.9413 22.443 15.0946 21.1404 15.697 20.0006ZM19.0023 31.1539C17.6346 31.1539 16.8531 29.7862 17.5532 28.5651C18.5464 26.8717 19.6048 25.1947 20.6306 23.5176C22.4053 20.6193 24.1801 17.7211 25.9548 14.8229C26.3782 14.139 26.8829 13.6017 27.7459 13.6506C29.081 13.732 29.7649 15.116 29.0159 16.3534C27.4528 18.9748 25.8409 21.5637 24.2452 24.1526C23.0403 26.139 21.8192 28.1092 20.6143 30.0956C20.2398 30.7143 19.7676 31.1377 19.0023 31.1539ZM33.2656 21.7265C32.3863 23.2408 31.442 24.7225 30.5302 26.2204C29.5207 27.8487 28.5274 29.4932 27.5179 31.1051C26.8504 32.1797 25.906 32.4728 25.0105 31.9029C24.1475 31.3656 23.9847 30.3724 24.6034 29.3466C26.4922 26.2693 28.3809 23.1919 30.2696 20.0983C30.6441 19.4796 31.1326 19.0563 31.8979 19.0725C33.2493 19.0725 33.9983 20.4728 33.2819 21.7103L33.2656 21.7265Z" fill="#0E121B"/>
<path d="M90.9557 17.2812H96.0032C97.1918 21.3681 98.3804 25.4224 99.569 29.4929C99.6342 29.4929 99.6993 29.4929 99.7644 29.4929C100.953 25.4224 102.142 21.3681 103.314 17.2975H108.378C106.359 23.0614 104.356 28.7439 102.386 34.4102H96.9313C94.9449 28.7277 92.9584 23.0614 90.9395 17.2812H90.9557Z" fill="#0E121B"/>
<path d="M85.324 11.4541H89.9156V34.3795H85.324V11.4541Z" fill="#0E121B"/>
<path d="M65.6809 20.1978C65.1924 17.4624 63.9875 15.1015 61.6592 13.4082C59.9333 12.1707 57.9794 11.5194 55.9116 11.4543C52.7854 11.3403 49.6429 11.4217 46.4353 11.4217V34.3797C46.6144 34.4122 46.7447 34.4448 46.8749 34.4448C50.1151 34.3959 53.3715 34.5099 56.6117 34.2494C60.7637 33.9238 63.6293 31.6768 65.111 27.7691C66.0391 25.3105 66.1531 22.7542 65.6972 20.1978H65.6809ZM60.6985 25.6687C60.0635 28.3064 58.305 29.8695 55.5859 30.0649C54.1856 30.1626 52.7854 30.0812 51.3037 30.0812V15.476C53.9088 15.59 56.6605 14.8247 58.8424 16.7949C59.6728 17.5438 60.2915 18.6836 60.6334 19.7582C61.2521 21.6795 61.1707 23.6822 60.6985 25.6687Z" fill="#0E121B"/>
<path d="M118.667 26.9906H124.577C124.708 24.6459 124.48 22.5292 123.356 20.5917C122.021 18.3121 119.904 17.2212 117.348 16.9933C114.303 16.7328 111.617 17.5794 109.777 20.1357C108.002 22.5944 107.709 25.4112 108.279 28.3257C108.604 30.0028 109.305 31.5659 110.607 32.6893C113.782 35.4248 118.699 35.5876 122.135 33.1778C123.242 32.4288 124.17 31.0937 124.447 29.498C122.949 29.4166 121.549 29.3352 120.165 29.2538C118.862 31.3542 116.811 31.4845 115.199 30.9634C113.587 30.4424 112.708 28.9607 112.854 27.0068H118.651L118.667 26.9906ZM116.778 20.494C118.667 20.5754 120.181 22.2199 119.986 24.0272H112.887C112.887 21.9594 114.613 20.3963 116.778 20.494Z" fill="#0E121B"/>
<path d="M83.6232 24.8402C83.4278 21.5512 82.1089 19.0112 78.9664 17.5946C75.3843 15.9827 70.7602 17.2527 68.5947 20.5092C67.113 22.7398 66.999 25.231 67.2758 27.7548C67.4549 29.4155 68.0736 30.9298 69.2297 32.1998C71.3626 34.5444 74.1306 35.0003 77.094 34.7398C79.1455 34.5607 80.9529 33.7303 82.3043 32.1184C82.923 31.3694 83.3789 30.3762 83.4278 29.497C81.9624 29.4155 80.5621 29.3341 79.2107 29.2527C77.9732 31.4671 75.482 31.5974 73.7887 30.767C72.3559 30.0668 71.7371 28.2758 72.0791 26.9895H83.5092C83.558 26.7778 83.5906 26.7127 83.5906 26.6313C83.5906 26.0288 83.6232 25.4427 83.5906 24.8565L83.6232 24.8402ZM79.0967 24.0098H72.0139C71.6883 22.5933 73.3165 20.7045 75.2378 20.4929C77.2242 20.2812 79.2758 21.9257 79.0967 24.0098Z" fill="#0E121B"/>
</svg>
