<svg width="132" height="40" viewBox="0 0 132 40" fill="none" xmlns="http://www.w3.org/2000/svg">
<path d="M18.8665 24.9205C19.1932 24.5968 19.601 24.435 20.0911 24.435C20.3524 24.435 20.606 24.5166 20.8504 24.6784C21.0948 24.8402 21.2176 25.0691 21.2176 25.3625C21.2176 25.8928 21.0046 26.394 20.5812 26.8651C19.6663 27.8663 18.4849 28.9228 17.0486 29.6306C15.611 30.3372 13.8414 31.1003 11.6197 31.1003C7.69899 31.1003 4.73753 29.532 2.84252 27.6176C0.947507 25.7033 0 23.1403 0 19.93C0 16.1606 0.980179 13.2805 2.94054 11.2925C4.9009 9.30453 7.91201 7.78491 11.6367 7.78491C14.5433 7.78491 16.7428 9.05455 18.5724 10.5413C20.4021 12.0293 21.3169 14.2449 21.3169 17.1908C21.3169 18.1039 21.015 18.6933 20.41 18.9578C19.8049 19.2222 19.1762 19.3551 18.5228 19.3551H5.34133C5.30865 19.5314 5.29297 19.7011 5.29297 19.8629V20.3274C5.29297 22.743 5.82357 24.7165 6.88609 26.248C7.94729 27.7795 9.68678 28.5452 12.1046 28.5452C13.4441 28.5452 14.538 28.3321 15.3875 27.9045C16.237 27.4782 16.931 26.9769 17.4707 26.4019C18.0092 25.827 18.4757 25.3349 18.8678 24.9218L18.8665 24.9205ZM11.1727 10.0755C9.66979 10.0755 8.40471 10.6505 7.37487 11.7991C6.34634 12.9477 5.71641 14.8475 5.4877 17.4987H14.6504C15.2059 17.4987 15.6214 17.4105 15.8998 17.2342C16.1769 17.0579 16.3167 16.7198 16.3167 16.2185C16.3167 14.8041 16.0632 13.641 15.5574 12.728C15.0503 11.8149 14.406 11.1452 13.6219 10.7176C12.8377 10.2913 12.0209 10.0768 11.1714 10.0768L11.1727 10.0755Z" fill="#A38F8F"/>
<path d="M67.9339 24.9139C68.2606 24.5902 68.6684 24.4284 69.1584 24.4284C69.4198 24.4284 69.6734 24.51 69.9178 24.6718C70.1621 24.8336 70.285 25.0625 70.285 25.3559C70.285 25.8862 70.072 26.3875 69.6485 26.8585C68.7337 27.8597 67.5523 28.9162 66.116 29.624C64.6784 30.3306 62.9088 31.0937 60.6871 31.0937C56.7664 31.0937 53.8049 29.5254 51.9099 27.611C50.0149 25.6967 49.0674 23.1337 49.0674 19.9235C49.0674 16.154 50.0476 13.274 52.0079 11.286C53.9683 9.29794 56.9794 7.77832 60.7041 7.77832C63.6106 7.77832 65.8102 9.04796 67.6398 10.5347C69.4695 12.0227 70.3843 14.2384 70.3843 17.1842C70.3843 18.0973 70.0824 18.6867 69.4773 18.9512C68.8722 19.2156 68.2436 19.3485 67.5902 19.3485H54.4087C54.376 19.5248 54.3604 19.6945 54.3604 19.8564V20.3208C54.3604 22.7364 54.891 24.7099 55.9535 26.2414C57.0147 27.7729 58.7542 28.5386 61.1719 28.5386C62.5115 28.5386 63.6054 28.3255 64.4549 27.8979C65.3044 27.4716 65.9983 26.9703 66.5381 26.3953C67.0765 25.8204 67.5431 25.3283 67.9352 24.9152L67.9339 24.9139ZM60.2401 10.0689C58.7372 10.0689 57.4721 10.6439 56.4423 11.7925C55.4137 12.9411 54.7838 14.841 54.5551 17.4921H63.7178C64.2732 17.4921 64.6888 17.4039 64.9672 17.2276C65.2443 17.0513 65.3841 16.7132 65.3841 16.2119C65.3841 14.7975 65.1306 13.6345 64.6248 12.7214C64.1177 11.8083 63.4734 11.1386 62.6893 10.711C61.9051 10.2847 61.0883 10.0703 60.2388 10.0703L60.2401 10.0689Z" fill="#A38F8F"/>
<path d="M46.1449 8.37172C46.618 8.37172 47.0284 8.44671 47.3747 8.59407C47.721 8.74274 47.8935 9.01114 47.8935 9.39664C47.8935 9.87292 47.8021 10.2742 47.6204 10.6005L38.4943 29.6385C38.3113 30.0254 37.9205 30.3069 37.3194 30.4858C36.7182 30.6648 36.053 30.7529 35.325 30.7529C34.669 30.7529 34.0678 30.6635 33.5215 30.4858C32.9752 30.3069 32.6106 30.0254 32.4289 29.6385L23.4675 10.6005C23.3577 10.3926 23.2858 10.1992 23.2492 10.0203C23.2139 9.84134 23.1943 9.69398 23.1943 9.57426C23.1943 9.06903 23.4126 8.74274 23.8504 8.59275C23.9759 8.55065 24.1013 8.51381 24.2294 8.48355C24.6947 8.37303 24.9351 8.3533 25.2161 8.3704C25.2161 8.3704 25.7023 8.39803 26.2695 8.69143C27.8587 9.51242 28.401 11.4136 28.5762 11.9859C29.2688 14.2515 31.7951 19.4972 35.7289 27.1598H36.0504C36.8646 25.5244 38.6446 21.922 40.2978 18.3131C41.5877 15.4988 41.8008 14.8186 41.9641 14.3673C42.347 13.3121 42.7195 12.2346 43.0841 11.1347C43.339 10.4216 43.667 9.78214 44.0682 9.21771C44.4681 8.65327 45.1608 8.3704 46.1449 8.3704V8.37172Z" fill="#A38F8F"/>
<path d="M132 9.41789C132 9.03239 131.826 8.76399 131.481 8.61532C131.135 8.46665 130.724 8.39297 130.251 8.39297C129.267 8.39297 128.576 8.67584 128.175 9.24027C127.773 9.8047 127.445 10.4441 127.191 11.1572C126.826 12.2571 126.453 13.3347 126.071 14.3899C125.907 14.8412 125.694 15.5214 124.404 18.3356C122.75 21.9446 120.971 25.5469 120.157 27.1823H119.835C115.902 19.5184 113.375 14.2741 112.683 12.0085C112.507 11.4348 111.965 9.53499 110.376 8.714C109.809 8.4206 109.323 8.39297 109.323 8.39297C109.042 8.37718 108.801 8.39691 108.336 8.50612C108.208 8.53638 108.081 8.57322 107.957 8.61532C107.519 8.76399 107.301 9.0916 107.301 9.59682C107.301 9.71655 107.319 9.86391 107.356 10.0428C107.392 10.2218 107.465 10.4152 107.574 10.6231L116.365 29.2993C116.5 29.6572 116.598 29.9663 116.669 30.2084C116.741 30.4571 116.776 30.665 116.793 30.761C116.914 31.4373 116.862 32.1807 116.793 32.5846C116.525 34.1581 115.06 36.1435 113.422 36.5316C112.719 36.6987 112.17 36.6461 112.17 36.6461C111.568 36.5882 111.445 36.4067 110.918 36.4132C110.663 36.4159 110.096 36.4224 109.643 36.8369C109.151 37.2855 109.112 37.9158 109.111 38.1144C109.106 38.7328 109.419 39.2262 109.6 39.4235C110.663 40.5919 113.149 39.7038 114.312 39.2104C116.104 38.4499 117.593 37.179 118.794 35.6541C120.538 33.4385 121.789 30.8597 123.048 28.3441C124.497 25.4483 125.924 22.5406 127.347 19.6316C128.043 18.2107 128.735 16.7884 129.428 15.3661C129.808 14.5833 130.189 13.8005 130.568 13.0176C130.758 12.6229 130.951 12.2282 131.141 11.8335C131.294 11.519 131.71 10.9678 131.727 10.6231C131.727 10.6231 132 10.0955 132 9.4192V9.41789Z" fill="#A38F8F"/>
<path d="M74.1086 10.2098C74.1073 10.1598 74.1034 10.0216 74.1112 9.8361C74.1138 9.78216 74.1269 9.50192 74.1687 9.28483C74.1988 9.12958 74.2733 8.75066 74.5203 8.48489C74.5203 8.48489 75.0169 7.95335 76.316 8.18886C76.4885 8.22043 76.6544 8.27438 76.6544 8.27438C76.7119 8.2928 76.7551 8.3099 76.7708 8.31648C76.8818 8.3599 76.9629 8.40331 76.9929 8.4191C77.1001 8.47699 77.1772 8.53094 77.2033 8.54936C77.3236 8.63619 77.4072 8.71908 77.4503 8.76381C77.5222 8.83881 77.5758 8.90854 77.6137 8.96117C77.6725 9.04405 77.7091 9.11116 77.7326 9.15194C77.7758 9.23088 77.8084 9.30193 77.8333 9.35982C77.9248 9.6006 77.9823 9.80979 78.0202 9.97162C78.0411 10.0716 78.0646 10.2032 78.0855 10.3479C78.0894 10.3729 78.1025 10.4716 78.1143 10.5979C78.1143 10.6071 78.1182 10.6426 78.1221 10.6887C78.1247 10.7268 78.1312 10.8044 78.1365 10.9071C78.1365 10.9071 78.1391 10.9492 78.1404 10.9913C78.1482 11.1781 78.1495 11.3768 78.1495 11.3768C78.1495 11.6702 78.1495 11.9623 78.1495 12.0978C78.1495 12.2333 78.1495 12.3438 78.1495 12.4109C78.2097 12.4109 78.2698 12.4083 78.3299 12.407C78.85 11.953 79.5558 11.3834 80.4419 10.7966C80.7111 10.6176 81.7383 9.94399 82.8034 9.45192C85.5218 8.19544 88.1931 8.30069 88.5617 8.31911C90.4684 8.41384 92.7803 8.5362 94.3931 10.3347C95.3746 11.4294 95.8646 12.9688 95.8646 14.9541C95.8607 19.3512 95.8568 23.7482 95.8529 28.1439C95.849 28.2321 95.8411 28.3544 95.8241 28.5005C95.8098 28.6242 95.7888 28.8123 95.7431 29.0057C95.6751 29.2873 95.6137 29.5438 95.4098 29.7741C95.2491 29.9556 95.0661 30.0464 94.9459 30.1056C94.776 30.1898 94.6335 30.2254 94.4767 30.2648C94.2454 30.3227 94.0676 30.3398 93.8977 30.3556C93.6939 30.374 93.4142 30.399 93.0561 30.3596C92.8614 30.3385 92.7176 30.3056 92.5713 30.2411C92.4262 30.1767 92.3425 30.1083 92.3033 30.0741C92.3033 30.0741 92.2079 29.9885 92.1452 29.8912C92.1269 29.8622 92.1073 29.828 92.1073 29.828C92.1047 29.8241 92.0995 29.8135 92.0916 29.8004C92.0851 29.7872 92.0733 29.7662 92.0589 29.7386C92.0576 29.7346 92.0498 29.7201 92.042 29.7017C92.0367 29.6899 92.0328 29.6807 92.0315 29.678C92.0276 29.6675 92.0236 29.6583 92.0197 29.6517C91.9831 29.5623 91.9387 29.4386 91.9034 29.286C91.8825 29.1952 91.8721 29.1268 91.8642 29.0728C91.8485 28.9676 91.8328 28.8307 91.8263 28.5939C91.8198 28.3808 91.8263 28.2229 91.8263 28.2176C91.8341 27.965 91.8368 24.7139 91.8263 16.5974C91.8263 15.9199 91.6708 15.2502 91.3597 14.6489C90.9677 13.8897 90.2985 12.9451 89.1824 12.2293C88.7773 11.9688 87.6403 11.2623 86.0746 11.2623C84.8513 11.2623 83.9431 11.5912 83.0962 11.9215C82.5146 12.1491 81.5109 12.5491 80.4523 13.4332C80.0341 13.7819 79.6773 14.1463 79.3754 14.5068C78.6056 15.4225 78.1966 16.5909 78.1914 17.7895C78.177 20.9392 78.1639 24.089 78.1495 27.2387C78.1561 27.4322 78.1587 27.7084 78.1417 28.04C78.126 28.3479 78.1169 28.5347 78.0711 28.7807C77.9953 29.1886 77.9221 29.5794 77.6137 29.8609C77.4882 29.9754 77.3536 30.0438 77.2635 30.0912C77.0256 30.2135 76.8087 30.2648 76.6597 30.2885C76.4741 30.324 76.312 30.3438 76.18 30.3569C75.9017 30.3832 75.6939 30.3793 75.6481 30.378C75.5017 30.374 75.3946 30.3727 75.2678 30.3517C75.1228 30.328 74.8679 30.2859 74.6483 30.1227C74.302 29.8635 74.2171 29.4254 74.1674 29.1754C74.1347 29.0057 74.1203 28.8097 74.1177 28.761C74.1007 28.5268 74.1086 28.3531 74.1099 28.3123C74.1386 27.5058 74.1151 12.5767 74.1099 11.6162C74.1073 11.1478 74.123 10.6781 74.1099 10.2098H74.1086Z" fill="#A38F8F"/>
<path d="M103.612 27.6598C103.612 28.8584 103.411 29.6123 103.009 29.9175C102.608 30.224 101.981 30.3767 101.126 30.3767C100.505 30.3767 100.09 30.2109 99.8833 29.8767C99.6755 29.5438 99.5723 29.0847 99.5723 28.4979V1.87881C99.5723 1.26569 99.6755 0.799939 99.8833 0.480226C100.09 0.160513 100.505 0 101.126 0C101.981 0 102.608 0.247349 103.009 0.739418C103.411 1.2328 103.612 2.07879 103.612 3.27739V27.6584V27.6598Z" fill="#A38F8F"/>
</svg>
