<svg width="94" height="51" viewBox="0 0 94 51" fill="none" xmlns="http://www.w3.org/2000/svg">
<g clip-path="url(#clip0_215_749)">
<path fill-rule="evenodd" clip-rule="evenodd" d="M86.9871 1.99998H85.0127V22.1984H86.9871V1.99998ZM94 1.99998H92.0256V22.1984H94V1.99998ZM72.822 5.51842C76.518 5.51842 79.6454 6.73529 79.6454 11.7215V22.1985H77.7406V19.2898C76.8023 20.477 74.7553 22.1985 71.2015 22.1985C67.2496 22.1985 65.2879 20.2693 65.2879 17.5684C65.2879 14.9863 66.7094 12.6119 72.3956 12.6119C74.1269 12.6119 75.6645 12.6877 77.321 12.7693C77.46 12.7762 77.5998 12.7831 77.7406 12.79V11.7215C77.7406 8.48639 76.4043 7.12112 72.822 7.12112C69.5809 7.12112 68.3584 8.36767 67.9888 10.1781H66.0839C66.3967 7.18048 69.0692 5.51842 72.822 5.51842ZM71.5142 20.5958C74.67 20.5958 76.8023 18.9633 77.7406 17.6278V14.4223C75.7788 14.3036 74.4142 14.2443 72.6799 14.2443C69.3819 14.2443 67.2496 15.0159 67.2496 17.4794C67.2496 19.7053 69.0976 20.5958 71.5142 20.5958ZM56.7802 7.80376H61.8693V6.14169H56.7802V2H54.8753V6.14169H51.4068V7.80376H54.8753V16.6186C54.8753 20.8035 56.3537 22.1985 59.9644 22.1985C60.8742 22.1985 61.3291 22.1391 61.8693 21.9907V20.3286C57.8037 20.7442 56.7802 20.0912 56.7802 16.6186V7.80376ZM42.2603 12.9416C42.5715 12.9935 42.8767 13.0425 43.1751 13.0904C46.7994 13.6721 49.3965 14.0889 49.3965 17.5717C49.3965 20.6287 46.4965 22.2017 42.5446 22.2017C38.3653 22.2017 34.8114 20.7474 34.8114 17.2452H36.7163C36.7163 19.6493 39.73 20.5397 42.5446 20.5397C45.1318 20.5397 47.4916 19.7086 47.4916 17.5717C47.4916 15.6589 45.6375 15.3856 43.3182 15.0436C42.7944 14.9664 42.2469 14.8857 41.6917 14.7818C41.5336 14.7519 41.3758 14.7225 41.2191 14.6934L41.2183 14.6932C38.1057 14.1138 35.3232 13.5959 35.3232 10.0924C35.3232 7.2728 37.9957 5.5217 41.8054 5.5217C46.0985 5.5217 48.6004 7.2728 48.6004 10.1814H46.724C46.724 8.51935 45.1603 7.15408 41.8054 7.15408C38.7918 7.15408 37.2281 8.31159 37.2281 10.0924C37.2281 12.078 39.2058 12.4174 41.9954 12.8961C42.0828 12.9111 42.1713 12.9263 42.2603 12.9416ZM30.8173 11.8138C30.8173 8.13351 28.5998 5.5217 24.7616 5.5217C21.4352 5.5217 19.6156 6.53905 18.8764 7.72624V5.96689H17L17 22.1985H18.8764V12.6448C18.9049 10.0033 20.3264 7.33216 23.9087 7.33216C27.3204 7.33216 28.9125 9.05359 28.9125 12.6448V22.1985H30.8173V11.8138Z" fill="#A38F8F"/>
<path fill-rule="evenodd" clip-rule="evenodd" d="M39.9436 38.1653C39.9436 30.9817 34.6839 27.3602 28.486 27.3602C22.2597 27.3602 17 30.9817 17 38.1653C17 45.3488 22.2597 49 28.486 49C34.6839 49 39.9436 45.3488 39.9436 38.1653ZM36.3329 38.1653C36.3329 42.796 33.5183 45.9425 28.486 45.9425C23.4254 45.9425 20.6107 42.796 20.6107 38.1653C20.6107 33.5642 23.4254 30.4177 28.486 30.4177C33.5183 30.4177 36.3329 33.5642 36.3329 38.1653ZM60.4359 30.6485V27.3552H41.8706V30.6485H49.4048V49H52.9017V30.6485H60.4359Z" fill="#A38F8F"/>
</g>
<g clip-path="url(#clip1_215_749)">
<path fill-rule="evenodd" clip-rule="evenodd" d="M2.8 30.4702H9.2V46.1173H2.8V30.4702ZM0 48.9997V27.5879H12V48.9997H0ZM7.2 32.5291H4.8V44.0585H7.2V32.5291Z" fill="#A38F8F"/>
<path fill-rule="evenodd" clip-rule="evenodd" d="M8.50993 0H3.48963L1.63477 6.81938L4.79979 9.53447V27.5882H7.19979V9.53445L10.3648 6.81938L8.50993 0ZM4.36481 5.94533L5.30993 2.47059H6.68963L7.63477 5.94533L6.16533 7.20588H5.83425L4.36481 5.94533Z" fill="#A38F8F"/>
</g>
<defs>
<clipPath id="clip0_215_749">
<rect width="77" height="47" fill="white" transform="translate(17 2)"/>
</clipPath>
<clipPath id="clip1_215_749">
<rect width="12" height="49" fill="white"/>
</clipPath>
</defs>
</svg>
