<svg width="160" height="48" viewBox="0 0 160 48" fill="none" xmlns="http://www.w3.org/2000/svg">
<g clip-path="url(#clip0_748_3527)">
<mask id="mask0_748_3527" style="mask-type:luminance" maskUnits="userSpaceOnUse" x="2" y="-2" width="156" height="51">
<path d="M157.735 -1.5708H2.98633V48.2557H157.735V-1.5708Z" fill="white"/>
</mask>
<g mask="url(#mask0_748_3527)">
<path d="M19.7306 27.9596C20.0425 29.3959 19.1005 30.8222 17.6384 31.127L16.7941 31.3014C15.3342 31.6083 13.8865 30.6805 13.5754 29.2449L11.8442 21.2233C11.5346 19.7885 12.4736 18.3629 13.9343 18.0567L14.7807 17.8801C16.2407 17.5746 17.6883 18.4996 17.9994 19.9359L19.7306 27.9596Z" fill="#F37021"/>
</g>
<mask id="mask1_748_3527" style="mask-type:luminance" maskUnits="userSpaceOnUse" x="2" y="-2" width="156" height="51">
<path d="M157.735 -1.5708H2.98633V48.2557H157.735V-1.5708Z" fill="white"/>
</mask>
<g mask="url(#mask1_748_3527)">
<path d="M27.2034 27.8069C27.5108 29.2439 26.5718 30.6695 25.1126 30.9735L24.2668 31.1487C22.8062 31.4542 21.3607 30.5292 21.0503 29.0929L18.5747 17.632C18.265 16.1929 19.2048 14.768 20.6633 14.4632L21.5105 14.2873C22.9689 13.9819 24.418 14.9068 24.7277 16.3453L27.2034 27.8069Z" fill="#F37021"/>
</g>
<mask id="mask2_748_3527" style="mask-type:luminance" maskUnits="userSpaceOnUse" x="2" y="-2" width="156" height="51">
<path d="M157.735 -1.5708H2.98633V48.2557H157.735V-1.5708Z" fill="white"/>
</mask>
<g mask="url(#mask2_748_3527)">
<path d="M34.5227 26.9459C34.8309 28.3836 33.8919 29.8078 32.4319 30.1126L31.5847 30.2913C30.127 30.5968 28.6772 29.6704 28.3682 28.2327L25.3167 14.1035C25.0078 12.6666 25.9454 11.241 27.4053 10.9369L28.2525 10.7582C29.7124 10.452 31.1594 11.3791 31.4704 12.8168L34.5227 26.9459Z" fill="#F37021"/>
</g>
<mask id="mask3_748_3527" style="mask-type:luminance" maskUnits="userSpaceOnUse" x="2" y="-2" width="156" height="51">
<path d="M157.735 -1.5708H2.98633V48.2557H157.735V-1.5708Z" fill="white"/>
</mask>
<g mask="url(#mask3_748_3527)">
<path d="M41.5807 24.8908C41.891 26.3271 40.9505 27.7527 39.4899 28.0574L38.6441 28.234C37.1849 28.5402 35.7387 27.6131 35.4269 26.1775L33.0026 14.9366C32.6893 13.5003 33.6298 12.074 35.0905 11.77L35.9355 11.592C37.3947 11.2865 38.8424 12.2129 39.1535 13.6477L41.5807 24.8908Z" fill="#F37021"/>
</g>
<mask id="mask4_748_3527" style="mask-type:luminance" maskUnits="userSpaceOnUse" x="2" y="-2" width="156" height="51">
<path d="M157.735 -1.5708H2.98633V48.2557H157.735V-1.5708Z" fill="white"/>
</mask>
<g mask="url(#mask4_748_3527)">
<path d="M38.1201 35.7289C36.6595 36.0351 35.2111 35.1073 34.9036 33.6717L34.7206 32.8393C34.4124 31.4016 35.3536 29.976 36.8135 29.6727L41.2476 28.7434C42.7054 28.4379 44.1559 29.3629 44.4656 30.7999L44.6464 31.6337C44.9561 33.0714 44.0163 34.4963 42.5535 34.8004L38.1201 35.7289Z" fill="#F37021"/>
</g>
<mask id="mask5_748_3527" style="mask-type:luminance" maskUnits="userSpaceOnUse" x="2" y="-2" width="156" height="51">
<path d="M157.735 -1.5708H2.98633V48.2557H157.735V-1.5708Z" fill="white"/>
</mask>
<g mask="url(#mask5_748_3527)">
<path d="M47.9431 14.3546C49.131 13.5243 50.9274 12.9525 52.5877 12.9262C54.2242 12.9262 55.7543 13.3684 56.5733 14.7163C57.3654 13.5485 58.8182 12.9525 60.3208 12.9262C62.8001 12.8984 65.3879 14.3802 65.3879 17.3674V26.6401H62.51V17.4714C62.51 16.2509 61.4544 15.7047 60.3201 15.7047C59.185 15.7047 58.0238 16.3271 58.0238 17.3674V26.6401H55.1741V17.4201C55.1741 16.1975 54.0137 15.7047 52.7722 15.7047C52.0856 15.7047 51.3723 15.8863 50.7928 16.2509V26.6401H47.9424L47.9431 14.3546Z" fill="#F37021"/>
</g>
<mask id="mask6_748_3527" style="mask-type:luminance" maskUnits="userSpaceOnUse" x="2" y="-2" width="156" height="51">
<path d="M157.735 -1.5708H2.98633V48.2557H157.735V-1.5708Z" fill="white"/>
</mask>
<g mask="url(#mask6_748_3527)">
<path d="M70.6679 13.1846H67.7646V26.6394H70.6679V13.1846Z" fill="#F37021"/>
</g>
<mask id="mask7_748_3527" style="mask-type:luminance" maskUnits="userSpaceOnUse" x="2" y="-2" width="156" height="51">
<path d="M157.735 -1.5708H2.98633V48.2557H157.735V-1.5708Z" fill="white"/>
</mask>
<g mask="url(#mask7_748_3527)">
<path d="M72.8857 17.5493C72.8857 14.4318 75.6038 12.9258 78.269 12.9258C80.4054 12.9258 82.8362 13.8864 83.5734 16.4584L80.9342 17.4454C80.5942 16.2505 79.509 15.7043 78.4021 15.7043C77.1599 15.7043 75.789 16.3537 75.789 17.5244V22.3039C75.789 23.471 77.0022 24.1211 78.2697 24.1211C79.4027 24.1211 80.5942 23.5764 80.9342 22.3829L83.627 23.3685C82.8883 25.9405 80.4061 26.9018 78.2697 26.9018C75.6045 26.9018 72.8865 25.3958 72.8865 22.2768L72.8857 17.5493Z" fill="#F37021"/>
</g>
<mask id="mask8_748_3527" style="mask-type:luminance" maskUnits="userSpaceOnUse" x="2" y="-2" width="156" height="51">
<path d="M157.735 -1.5708H2.98633V48.2557H157.735V-1.5708Z" fill="white"/>
</mask>
<g mask="url(#mask8_748_3527)">
<path d="M91.9403 13.0817V15.6011C90.4362 15.1582 88.0351 15.7819 88.0351 17.5992V26.6398H85.1318V17.5493C85.1318 15.6274 86.2141 14.2503 87.6654 13.4969C88.5097 13.054 89.9892 12.9258 90.3834 12.9258C90.832 12.9258 91.3348 12.9521 91.9403 13.0817Z" fill="#F37021"/>
</g>
<mask id="mask9_748_3527" style="mask-type:luminance" maskUnits="userSpaceOnUse" x="2" y="-2" width="156" height="51">
<path d="M157.735 -1.5708H2.98633V48.2557H157.735V-1.5708Z" fill="white"/>
</mask>
<g mask="url(#mask9_748_3527)">
<path d="M92.7314 17.5764C92.7314 14.4852 95.4517 12.9521 98.1429 12.9258C100.781 12.9521 103.499 14.4852 103.499 17.5764V22.2498C103.499 25.3943 100.781 26.8748 98.1429 26.9004C95.4509 26.8748 92.7314 25.3943 92.7314 22.2498V17.5764ZM95.639 17.5764V22.1216C95.639 23.3927 96.9304 24.1204 98.1437 24.1204C99.2788 24.1204 100.6 23.3934 100.6 22.1216V17.5764C100.6 16.3025 99.2795 15.7043 98.1437 15.7043C96.9304 15.7043 95.639 16.3025 95.639 17.5764Z" fill="#F37021"/>
</g>
<mask id="mask10_748_3527" style="mask-type:luminance" maskUnits="userSpaceOnUse" x="2" y="-2" width="156" height="51">
<path d="M157.735 -1.5708H2.98633V48.2557H157.735V-1.5708Z" fill="white"/>
</mask>
<g mask="url(#mask10_748_3527)">
<path d="M105.191 14.3546C106.379 13.5243 108.176 12.9525 109.836 12.9262C111.472 12.9262 113.003 13.3684 113.821 14.7163C114.615 13.5485 116.066 12.9525 117.57 12.9262C120.05 12.8984 122.638 14.3802 122.638 17.3674V26.6401H119.759V17.4714C119.759 16.2509 118.705 15.7047 117.57 15.7047C116.436 15.7047 115.274 16.3271 115.274 17.3674V26.6401H112.422V17.4201C112.422 16.1975 111.261 15.7047 110.021 15.7047C109.334 15.7047 108.622 15.8863 108.043 16.2509V26.6401H105.193V14.3546H105.191Z" fill="#F37021"/>
</g>
<mask id="mask11_748_3527" style="mask-type:luminance" maskUnits="userSpaceOnUse" x="2" y="-2" width="156" height="51">
<path d="M157.735 -1.5708H2.98633V48.2557H157.735V-1.5708Z" fill="white"/>
</mask>
<g mask="url(#mask11_748_3527)">
<path d="M132.059 17.4454C132.059 16.1209 130.688 15.4458 129.207 15.4722C128.127 15.4722 127.018 15.8361 126.332 16.588L124.694 14.926C126.175 13.3146 127.837 12.9258 129.578 12.9258C132.241 12.9258 134.96 14.3279 134.96 17.367V25.9896C133.696 26.456 131.792 26.9004 129.79 26.9004C126.939 26.9004 124.218 25.9896 124.218 22.7967C124.218 19.8323 126.753 18.4836 129.288 18.4836C130.264 18.4836 131.267 18.6659 132.059 19.0034V17.4454H132.059ZM132.059 21.2386C131.478 20.978 130.58 20.7708 129.709 20.7708C128.021 20.7708 127.069 21.6018 127.069 22.7696C127.069 24.0442 128.284 24.5114 129.606 24.5114C130.554 24.5114 131.425 24.3825 132.06 24.2258L132.059 21.2386Z" fill="#F37021"/>
</g>
<mask id="mask12_748_3527" style="mask-type:luminance" maskUnits="userSpaceOnUse" x="2" y="-2" width="156" height="51">
<path d="M157.735 -1.5708H2.98633V48.2557H157.735V-1.5708Z" fill="white"/>
</mask>
<g mask="url(#mask12_748_3527)">
<path d="M148.08 26.6394H144.729L143.303 24.4326L141.853 21.8606L140.346 24.4583L138.923 26.6394H135.545L140.19 19.9123L135.545 13.1846H138.923L140.24 15.2097L141.853 17.9911L143.46 15.1848L144.729 13.1846H148.054L143.592 19.9123L148.08 26.6394Z" fill="#F37021"/>
</g>
<mask id="mask13_748_3527" style="mask-type:luminance" maskUnits="userSpaceOnUse" x="2" y="-2" width="156" height="51">
<path d="M157.735 -1.5708H2.98633V48.2557H157.735V-1.5708Z" fill="white"/>
</mask>
<g mask="url(#mask13_748_3527)">
<path d="M67.7607 32.5637C68.1905 32.4163 68.6535 32.2881 69.0767 32.2881C69.7148 32.3009 70.3471 32.6406 70.3471 33.3783V35.674H69.8327V33.3591C69.8327 32.9553 69.4413 32.7623 69.0767 32.7623C68.7765 32.7623 68.4705 32.8392 68.2816 32.9097V35.674H67.7607V32.5637Z" fill="black"/>
</g>
<mask id="mask14_748_3527" style="mask-type:luminance" maskUnits="userSpaceOnUse" x="2" y="-2" width="156" height="51">
<path d="M157.735 -1.5708H2.98633V48.2557H157.735V-1.5708Z" fill="white"/>
</mask>
<g mask="url(#mask14_748_3527)">
<path d="M72.3486 33.396C72.3486 32.659 73.0063 32.293 73.6581 32.2866C74.3034 32.293 74.9545 32.6583 74.9545 33.396V34.6272C74.9545 35.3714 74.3034 35.7302 73.6581 35.7367C73.0063 35.7302 72.3486 35.3714 72.3486 34.6272V33.396ZM72.8695 33.3839V34.6344C72.8695 35.0516 73.2797 35.2496 73.6581 35.2496C74.0227 35.2496 74.4336 35.0516 74.4336 34.6344V33.3839C74.4336 32.9667 74.0234 32.7751 73.6581 32.7751C73.2804 32.7744 72.8695 32.9667 72.8695 33.3839Z" fill="black"/>
</g>
<mask id="mask15_748_3527" style="mask-type:luminance" maskUnits="userSpaceOnUse" x="2" y="-2" width="156" height="51">
<path d="M157.735 -1.5708H2.98633V48.2557H157.735V-1.5708Z" fill="white"/>
</mask>
<g mask="url(#mask15_748_3527)">
<path d="M78.343 35.7249C78.2714 35.7313 78.2063 35.7377 78.1412 35.7377C77.4568 35.7377 76.9619 35.3275 76.9619 34.6482V31.5122H77.4763V32.3525H78.1672V32.8267H77.4763V34.6489C77.4763 35.027 77.8018 35.3859 78.343 35.2841V35.7249Z" fill="black"/>
</g>
<mask id="mask16_748_3527" style="mask-type:luminance" maskUnits="userSpaceOnUse" x="2" y="-2" width="156" height="51">
<path d="M157.735 -1.5708H2.98633V48.2557H157.735V-1.5708Z" fill="white"/>
</mask>
<g mask="url(#mask16_748_3527)">
<path d="M80.6625 32.479C80.936 32.3451 81.229 32.2867 81.4901 32.2867C82.1412 32.2732 82.7352 32.62 82.7352 33.3897V35.6727H82.2201V33.3833C82.2201 32.9532 81.8294 32.7674 81.4453 32.761C81.1776 32.761 80.9627 32.8001 80.6632 32.9276V35.6719H80.1416V31.1958H80.6632L80.6625 32.479Z" fill="black"/>
</g>
<mask id="mask17_748_3527" style="mask-type:luminance" maskUnits="userSpaceOnUse" x="2" y="-2" width="156" height="51">
<path d="M157.735 -1.5708H2.98633V48.2557H157.735V-1.5708Z" fill="white"/>
</mask>
<g mask="url(#mask17_748_3527)">
<path d="M85.0929 31.0688C85.3012 31.0688 85.4582 31.2234 85.4582 31.4284C85.4582 31.6271 85.3012 31.7873 85.0929 31.7873C84.891 31.7873 84.7275 31.6271 84.7275 31.4284C84.7283 31.2234 84.891 31.0688 85.0929 31.0688ZM85.3671 35.6739H84.8455V32.352H85.3671V35.6739Z" fill="black"/>
</g>
<mask id="mask18_748_3527" style="mask-type:luminance" maskUnits="userSpaceOnUse" x="2" y="-2" width="156" height="51">
<path d="M157.735 -1.5708H2.98633V48.2557H157.735V-1.5708Z" fill="white"/>
</mask>
<g mask="url(#mask18_748_3527)">
<path d="M87.491 32.5637C87.9214 32.4163 88.3837 32.2881 88.8069 32.2881C89.445 32.3009 90.0773 32.6406 90.0773 33.3783V35.674H89.5629V33.3591C89.5629 32.9553 89.1716 32.7623 88.8069 32.7623C88.5074 32.7623 88.2007 32.8392 88.0111 32.9097V35.674H87.4902L87.491 32.5637Z" fill="black"/>
</g>
<mask id="mask19_748_3527" style="mask-type:luminance" maskUnits="userSpaceOnUse" x="2" y="-2" width="156" height="51">
<path d="M157.735 -1.5708H2.98633V48.2557H157.735V-1.5708Z" fill="white"/>
</mask>
<g mask="url(#mask19_748_3527)">
<path d="M92.5202 36.1098C92.6635 36.2893 93.0476 36.4374 93.3414 36.4374C93.7458 36.4374 94.1495 36.3149 94.1495 35.8407V35.5644C93.9013 35.6933 93.6409 35.7374 93.3804 35.7374C92.7293 35.7445 92.084 35.3529 92.084 34.6344V33.3783C92.084 32.6527 92.7156 32.2881 93.3544 32.2881C93.8044 32.2881 94.1502 32.3458 94.6646 32.5508V35.8407C94.6646 36.5848 94.0258 36.9116 93.3869 36.9116C92.9507 36.9116 92.5007 36.745 92.2012 36.4239L92.5202 36.1098ZM94.1495 32.8912C93.8818 32.788 93.6532 32.7566 93.3537 32.7566C92.976 32.7566 92.5984 32.9938 92.6049 33.3918V34.6615C92.6049 35.046 92.9507 35.2838 93.3674 35.2838C93.6604 35.2838 93.889 35.239 94.1495 35.1428V32.8912Z" fill="black"/>
</g>
<mask id="mask20_748_3527" style="mask-type:luminance" maskUnits="userSpaceOnUse" x="2" y="-2" width="156" height="51">
<path d="M157.735 -1.5708H2.98633V48.2557H157.735V-1.5708Z" fill="white"/>
</mask>
<g mask="url(#mask20_748_3527)">
<path d="M100.581 35.7378C99.8448 35.7378 99.4346 35.3341 99.4346 34.6547V31.1919H99.9562V34.6547C99.9562 35.0208 100.152 35.2579 100.581 35.2579V35.7378Z" fill="black"/>
</g>
<mask id="mask21_748_3527" style="mask-type:luminance" maskUnits="userSpaceOnUse" x="2" y="-2" width="156" height="51">
<path d="M157.735 -1.5708H2.98633V48.2557H157.735V-1.5708Z" fill="white"/>
</mask>
<g mask="url(#mask21_748_3527)">
<path d="M102.588 31.0688C102.796 31.0688 102.953 31.2234 102.953 31.4284C102.953 31.6271 102.796 31.7873 102.588 31.7873C102.386 31.7873 102.223 31.6271 102.223 31.4284C102.223 31.2234 102.386 31.0688 102.588 31.0688ZM102.861 35.6739H102.341V32.352H102.861V35.6739Z" fill="black"/>
</g>
<mask id="mask22_748_3527" style="mask-type:luminance" maskUnits="userSpaceOnUse" x="2" y="-2" width="156" height="51">
<path d="M157.735 -1.5708H2.98633V48.2557H157.735V-1.5708Z" fill="white"/>
</mask>
<g mask="url(#mask22_748_3527)">
<path d="M107.084 32.3525H107.762L106.237 33.8657L107.729 35.6744H107.071L105.872 34.231L105.521 34.5778V35.6744H104.999V31.1982H105.521V33.8913L107.084 32.3525Z" fill="black"/>
</g>
<mask id="mask23_748_3527" style="mask-type:luminance" maskUnits="userSpaceOnUse" x="2" y="-2" width="156" height="51">
<path d="M157.735 -1.5708H2.98633V48.2557H157.735V-1.5708Z" fill="white"/>
</mask>
<g mask="url(#mask23_748_3527)">
<path d="M109.769 34.6728C109.769 35.0766 110.153 35.2624 110.551 35.2624C110.857 35.2624 111.182 35.1214 111.32 34.8131L111.775 35.0061C111.541 35.4938 111.039 35.7367 110.551 35.7367C109.9 35.7367 109.241 35.3714 109.241 34.6336V33.3896C109.241 32.6455 109.899 32.2866 110.551 32.2866C111.189 32.2866 111.841 32.6455 111.841 33.3896V34.2683H109.769V34.6728H109.769ZM111.346 33.3647C111.346 32.9731 110.936 32.7559 110.551 32.7559C110.114 32.7559 109.762 32.9738 109.769 33.3782V33.8397H111.346V33.3647Z" fill="black"/>
</g>
<mask id="mask24_748_3527" style="mask-type:luminance" maskUnits="userSpaceOnUse" x="2" y="-2" width="156" height="51">
<path d="M157.735 -1.5708H2.98633V48.2557H157.735V-1.5708Z" fill="white"/>
</mask>
<g mask="url(#mask24_748_3527)">
<path d="M118.376 33.3593C118.376 32.9741 117.986 32.7626 117.581 32.7626C117.282 32.7626 116.949 32.878 116.748 33.1222L116.422 32.8082C116.735 32.4678 117.197 32.2891 117.62 32.2891C118.266 32.2891 118.898 32.6415 118.898 33.36V35.5148C118.429 35.675 117.953 35.7455 117.503 35.7384C116.825 35.732 116.298 35.4115 116.298 34.6995C116.304 33.9689 116.904 33.642 117.569 33.642C117.861 33.642 118.129 33.6997 118.376 33.8022V33.3593ZM118.376 34.1732C118.168 34.1027 117.895 34.0451 117.62 34.0451C117.197 34.0451 116.819 34.2245 116.813 34.6987C116.813 35.1224 117.119 35.2955 117.517 35.3019C117.803 35.3083 118.096 35.2955 118.376 35.2378V34.1732Z" fill="black"/>
</g>
<mask id="mask25_748_3527" style="mask-type:luminance" maskUnits="userSpaceOnUse" x="2" y="-2" width="156" height="51">
<path d="M157.735 -1.5708H2.98633V48.2557H157.735V-1.5708Z" fill="white"/>
</mask>
<g mask="url(#mask25_748_3527)">
<path d="M120.969 32.5637C121.399 32.4163 121.862 32.2881 122.285 32.2881C122.924 32.3009 123.556 32.6406 123.556 33.3783V35.674H123.041V33.3591C123.041 32.9553 122.65 32.7623 122.285 32.7623C121.985 32.7623 121.679 32.8392 121.49 32.9097V35.674H120.969V32.5637H120.969Z" fill="black"/>
</g>
<mask id="mask26_748_3527" style="mask-type:luminance" maskUnits="userSpaceOnUse" x="2" y="-2" width="156" height="51">
<path d="M157.735 -1.5708H2.98633V48.2557H157.735V-1.5708Z" fill="white"/>
</mask>
<g mask="url(#mask26_748_3527)">
<path d="M126.122 36.0772C126.305 36.2958 126.643 36.4111 126.95 36.4111C127.367 36.4111 127.783 36.2502 127.783 35.7888V35.5331C127.556 35.687 127.249 35.7311 126.976 35.7382C126.305 35.7446 125.64 35.3338 125.64 34.596V32.3516H126.174V34.6089C126.174 35.0126 126.571 35.2376 126.963 35.244C127.23 35.244 127.516 35.1864 127.783 35.0838V32.3516H128.305V35.7888C128.305 36.5585 127.66 36.911 126.989 36.911C126.546 36.911 126.07 36.7316 125.765 36.3976L126.122 36.0772Z" fill="black"/>
</g>
<mask id="mask27_748_3527" style="mask-type:luminance" maskUnits="userSpaceOnUse" x="2" y="-2" width="156" height="51">
<path d="M157.735 -1.5708H2.98633V48.2557H157.735V-1.5708Z" fill="white"/>
</mask>
<g mask="url(#mask27_748_3527)">
<path d="M131.799 35.7249C131.726 35.7313 131.662 35.7377 131.597 35.7377C130.913 35.7377 130.417 35.3275 130.417 34.6482V31.5122H130.932V32.3525H131.622V32.8267H130.932V34.6489C130.932 35.027 131.258 35.3859 131.799 35.2841V35.7249Z" fill="black"/>
</g>
<mask id="mask28_748_3527" style="mask-type:luminance" maskUnits="userSpaceOnUse" x="2" y="-2" width="156" height="51">
<path d="M157.735 -1.5708H2.98633V48.2557H157.735V-1.5708Z" fill="white"/>
</mask>
<g mask="url(#mask28_748_3527)">
<path d="M134.118 32.479C134.391 32.3451 134.684 32.2867 134.945 32.2867C135.596 32.2732 136.19 32.62 136.19 33.3897V35.6727H135.674V33.3833C135.674 32.9532 135.285 32.7674 134.9 32.761C134.633 32.761 134.418 32.8001 134.118 32.9276V35.6719H133.597V31.1958H134.118L134.118 32.479Z" fill="black"/>
</g>
<mask id="mask29_748_3527" style="mask-type:luminance" maskUnits="userSpaceOnUse" x="2" y="-2" width="156" height="51">
<path d="M157.735 -1.5708H2.98633V48.2557H157.735V-1.5708Z" fill="white"/>
</mask>
<g mask="url(#mask29_748_3527)">
<path d="M138.549 31.0688C138.758 31.0688 138.915 31.2234 138.915 31.4284C138.915 31.6271 138.758 31.7873 138.549 31.7873C138.347 31.7873 138.185 31.6271 138.185 31.4284C138.185 31.2234 138.347 31.0688 138.549 31.0688ZM138.823 35.6739H138.302V32.352H138.823V35.6739Z" fill="black"/>
</g>
<mask id="mask30_748_3527" style="mask-type:luminance" maskUnits="userSpaceOnUse" x="2" y="-2" width="156" height="51">
<path d="M157.735 -1.5708H2.98633V48.2557H157.735V-1.5708Z" fill="white"/>
</mask>
<g mask="url(#mask30_748_3527)">
<path d="M140.947 32.5637C141.377 32.4163 141.84 32.2881 142.263 32.2881C142.902 32.3009 143.533 32.6406 143.533 33.3783V35.674H143.019V33.3591C143.019 32.9553 142.628 32.7623 142.263 32.7623C141.963 32.7623 141.657 32.8392 141.468 32.9097V35.674H140.946V32.5637H140.947Z" fill="black"/>
</g>
<mask id="mask31_748_3527" style="mask-type:luminance" maskUnits="userSpaceOnUse" x="2" y="-2" width="156" height="51">
<path d="M157.735 -1.5708H2.98633V48.2557H157.735V-1.5708Z" fill="white"/>
</mask>
<g mask="url(#mask31_748_3527)">
<path d="M145.977 36.1098C146.12 36.2893 146.504 36.4374 146.798 36.4374C147.203 36.4374 147.606 36.3149 147.606 35.8407V35.5644C147.358 35.6933 147.098 35.7374 146.836 35.7374C146.185 35.7445 145.54 35.3529 145.54 34.6344V33.3783C145.54 32.6527 146.172 32.2881 146.81 32.2881C147.26 32.2881 147.606 32.3458 148.121 32.5508V35.8407C148.121 36.5848 147.482 36.9116 146.844 36.9116C146.407 36.9116 145.957 36.745 145.657 36.4239L145.977 36.1098ZM147.606 32.8912C147.339 32.788 147.11 32.7566 146.81 32.7566C146.433 32.7566 146.054 32.9938 146.062 33.3918V34.6615C146.062 35.046 146.407 35.2838 146.824 35.2838C147.117 35.2838 147.345 35.239 147.606 35.1428V32.8912Z" fill="black"/>
</g>
</g>
<defs>
<clipPath id="clip0_748_3527">
<rect width="138" height="27" fill="white" transform="translate(11 10)"/>
</clipPath>
</defs>
</svg>
