<svg width="141" height="30" viewBox="0 0 141 30" fill="none" xmlns="http://www.w3.org/2000/svg">
<path d="M58.7001 6.04235V23.9571H55.5899V9.89899H55.5484L49.9916 23.9571H47.9181L42.2368 9.89899H42.1954V23.9571H39.334V6.04235H43.8127L48.9548 19.3125H49.0378L54.4702 6.04235H58.7001ZM61.2712 7.41083C61.2712 6.9132 61.4371 6.49851 61.8103 6.16676C62.1835 5.835 62.5982 5.66913 63.0958 5.66913C63.6349 5.66913 64.0911 5.835 64.4229 6.16676C64.7546 6.49851 64.962 6.9132 64.962 7.41083C64.962 7.90847 64.7961 8.32316 64.4229 8.65491C64.0496 8.98667 63.6349 9.15254 63.0958 9.15254C62.5567 9.15254 62.142 8.98667 61.8103 8.65491C61.4785 8.28169 61.2712 7.867 61.2712 7.41083ZM64.6302 11.1016V23.9571H61.6029V11.1016H64.6302ZM73.7949 21.7592C74.2511 21.7592 74.7487 21.6763 75.2878 21.4274C75.8269 21.2201 76.3245 20.9298 76.7807 20.5981V23.418C76.2831 23.7083 75.744 23.9156 75.1219 24.04C74.4999 24.1644 73.8364 24.2474 73.0899 24.2474C71.1823 24.2474 69.648 23.6668 68.4868 22.4642C67.2842 21.2616 66.7037 19.7272 66.7037 17.9026C66.7037 15.8291 67.3257 14.1289 68.5283 12.8018C69.7309 11.4748 71.4312 10.8113 73.6705 10.8113C74.2511 10.8113 74.8316 10.8943 75.3707 11.0187C75.9513 11.1431 76.4075 11.3504 76.7392 11.5163V14.4191C76.2831 14.0874 75.7854 13.7971 75.3293 13.6312C74.8316 13.4653 74.334 13.3409 73.8364 13.3409C72.6338 13.3409 71.68 13.7142 70.9335 14.5021C70.1871 15.29 69.8553 16.3267 69.8553 17.6537C69.8553 18.9393 70.2285 19.976 70.9335 20.681C71.6385 21.386 72.5923 21.7592 73.7949 21.7592ZM85.3648 10.8943C85.6136 10.8943 85.821 10.8943 86.0283 10.9357C86.2357 10.9772 86.4015 11.0187 86.5259 11.0601V14.1289C86.3601 14.0044 86.1527 13.88 85.821 13.7971C85.4892 13.7142 85.1575 13.6312 84.7013 13.6312C83.9549 13.6312 83.3328 13.963 82.8352 14.585C82.3376 15.2071 82.0473 16.1608 82.0473 17.4879V23.9571H79.02V11.1016H82.0473V13.1336H82.0887C82.379 12.4286 82.7937 11.8895 83.3328 11.4748C83.9134 11.1016 84.5769 10.8943 85.3648 10.8943ZM86.6918 17.7367C86.6918 15.6217 87.3139 13.9215 88.475 12.6774C89.6776 11.4334 91.3364 10.8113 93.4513 10.8113C95.4418 10.8113 97.0177 11.3919 98.1373 12.5945C99.257 13.7971 99.8376 15.4144 99.8376 17.4464C99.8376 19.5199 99.2155 21.1786 98.0544 22.4227C96.8518 23.6668 95.2345 24.2888 93.161 24.2888C91.1705 24.2888 89.5947 23.7083 88.4335 22.5471C87.2724 21.3445 86.6918 19.7272 86.6918 17.7367ZM89.8435 17.6123C89.8435 18.9393 90.1338 19.976 90.7558 20.681C91.3778 21.386 92.2487 21.7592 93.3684 21.7592C94.4466 21.7592 95.3174 21.4274 95.898 20.681C96.4786 19.976 96.7688 18.9393 96.7688 17.5293C96.7688 16.1608 96.4786 15.1241 95.898 14.3777C95.3174 13.6727 94.4466 13.2995 93.4098 13.2995C92.2902 13.2995 91.4608 13.6727 90.8387 14.4191C90.1338 15.2071 89.8435 16.2438 89.8435 17.6123ZM104.358 14.5021C104.358 14.9168 104.482 15.29 104.772 15.5388C105.063 15.7876 105.643 16.0779 106.597 16.4511C107.8 16.9488 108.671 17.4879 109.127 18.0684C109.624 18.6905 109.873 19.3954 109.873 20.2663C109.873 21.4689 109.417 22.4227 108.463 23.1692C107.551 23.9156 106.265 24.2474 104.689 24.2474C104.15 24.2474 103.57 24.1644 102.906 24.04C102.243 23.9156 101.704 23.7497 101.248 23.5424V20.5566C101.787 20.9298 102.409 21.2616 103.031 21.4689C103.653 21.6763 104.233 21.8007 104.772 21.8007C105.436 21.8007 105.975 21.7177 106.265 21.5104C106.597 21.303 106.763 21.0128 106.763 20.5566C106.763 20.1419 106.597 19.8101 106.265 19.4784C105.934 19.1881 105.27 18.8563 104.358 18.4831C103.238 18.027 102.45 17.4879 101.994 16.9073C101.538 16.3267 101.289 15.5803 101.289 14.668C101.289 13.5068 101.745 12.553 102.657 11.8066C103.57 11.0601 104.772 10.6869 106.224 10.6869C106.68 10.6869 107.178 10.7284 107.717 10.8528C108.256 10.9772 108.753 11.1016 109.127 11.226V14.1703C108.712 13.9215 108.256 13.6727 107.717 13.4653C107.178 13.258 106.639 13.1751 106.141 13.1751C105.56 13.1751 105.104 13.2995 104.814 13.5068C104.524 13.7971 104.358 14.0874 104.358 14.5021ZM111.159 17.7367C111.159 15.6217 111.781 13.9215 112.942 12.6774C114.144 11.4334 115.803 10.8113 117.918 10.8113C119.909 10.8113 121.484 11.3919 122.604 12.5945C123.724 13.7971 124.304 15.4144 124.304 17.4464C124.304 19.5199 123.682 21.1786 122.521 22.4227C121.319 23.6668 119.701 24.2888 117.628 24.2888C115.637 24.2888 114.062 23.7083 112.9 22.5471C111.781 21.3445 111.159 19.7272 111.159 17.7367ZM114.31 17.6123C114.31 18.9393 114.601 19.976 115.223 20.681C115.845 21.386 116.716 21.7592 117.835 21.7592C118.913 21.7592 119.784 21.4274 120.365 20.681C120.945 19.976 121.236 18.9393 121.236 17.5293C121.236 16.1608 120.945 15.1241 120.365 14.3777C119.784 13.6727 118.913 13.2995 117.877 13.2995C116.757 13.2995 115.928 13.6727 115.306 14.4191C114.642 15.2071 114.31 16.2438 114.31 17.6123ZM134.381 13.5898H129.861V23.9571H126.793V13.5898H124.636V11.1016H126.793V9.31842C126.793 7.9914 127.249 6.87173 128.12 6.00088C128.99 5.13002 130.11 4.71533 131.479 4.71533C131.852 4.71533 132.184 4.7568 132.474 4.7568C132.764 4.7568 133.013 4.83974 133.22 4.92268V7.53524C133.137 7.49377 132.93 7.41083 132.681 7.3279C132.432 7.24496 132.142 7.20349 131.81 7.20349C131.188 7.20349 130.691 7.41083 130.359 7.78406C130.027 8.15728 129.861 8.77932 129.861 9.52577V11.0601H134.381V8.15728L137.409 7.24496V11.0601H140.477V13.5483H137.409V19.5613C137.409 20.3492 137.575 20.8883 137.823 21.2201C138.114 21.5519 138.57 21.7177 139.192 21.7177C139.358 21.7177 139.565 21.6763 139.814 21.5933C140.063 21.5104 140.27 21.4274 140.436 21.303V23.7912C140.229 23.9156 139.938 23.9985 139.482 24.0815C139.026 24.1644 138.611 24.2059 138.155 24.2059C136.87 24.2059 135.916 23.8741 135.294 23.2106C134.672 22.5471 134.34 21.5104 134.34 20.1419L134.381 13.5898Z" fill="#A38F8F"/>
<path d="M14.66 0.0710449H0.477539V14.2535H14.66V0.0710449Z" fill="#A38F8F"/>
<path d="M30.3348 0.0710449H16.1523V14.2535H30.3348V0.0710449Z" fill="#A38F8F"/>
<path d="M14.66 15.7466H0.477539V29.9291H14.66V15.7466Z" fill="#A38F8F"/>
<path d="M30.3348 15.7466H16.1523V29.9291H30.3348V15.7466Z" fill="#A38F8F"/>
</svg>
