<svg width="116" height="38" viewBox="0 0 116 38" fill="none" xmlns="http://www.w3.org/2000/svg">
<mask id="mask0_220_1377" style="mask-type:luminance" maskUnits="userSpaceOnUse" x="0" y="0" width="116" height="38">
<path d="M116 0H0V37.9468H116V0Z" fill="white"/>
</mask>
<g mask="url(#mask0_220_1377)">
<path d="M12.5478 22.4898C12.7815 23.5837 12.0754 24.6699 10.9794 24.902L10.3465 25.0349C9.25215 25.2686 8.167 24.562 7.9338 23.4687L6.63606 17.3596C6.40396 16.2669 7.10787 15.1812 8.20279 14.948L8.83729 14.8135C9.93166 14.5808 11.0168 15.2853 11.25 16.3791L12.5478 22.4898Z" fill="#A38F8F"/>
</g>
<mask id="mask1_220_1377" style="mask-type:luminance" maskUnits="userSpaceOnUse" x="0" y="0" width="116" height="38">
<path d="M116 0H0V37.9468H116V0Z" fill="white"/>
</mask>
<g mask="url(#mask1_220_1377)">
<path d="M18.1491 22.3734C18.3795 23.4678 17.6756 24.5535 16.5818 24.785L15.9478 24.9184C14.8529 25.1511 13.7694 24.4466 13.5367 23.3528L11.681 14.6244C11.4489 13.5284 12.1533 12.4432 13.2466 12.2111L13.8816 12.0771C14.9749 11.8445 16.0612 12.5489 16.2933 13.6444L18.1491 22.3734Z" fill="#A38F8F"/>
</g>
<mask id="mask2_220_1377" style="mask-type:luminance" maskUnits="userSpaceOnUse" x="0" y="0" width="116" height="38">
<path d="M116 0H0V37.9468H116V0Z" fill="white"/>
</mask>
<g mask="url(#mask2_220_1377)">
<path d="M23.6364 21.717C23.8674 22.812 23.1635 23.8966 22.0691 24.1287L21.4341 24.2648C20.3413 24.4974 19.2546 23.7919 19.023 22.697L16.7355 11.9365C16.504 10.8422 17.2068 9.75646 18.3012 9.52489L18.9362 9.38877C20.0306 9.15558 21.1152 9.86167 21.3484 10.9566L23.6364 21.717Z" fill="#A38F8F"/>
</g>
<mask id="mask3_220_1377" style="mask-type:luminance" maskUnits="userSpaceOnUse" x="0" y="0" width="116" height="38">
<path d="M116 0H0V37.9468H116V0Z" fill="white"/>
</mask>
<g mask="url(#mask3_220_1377)">
<path d="M28.9264 20.152C29.1591 21.2458 28.4541 22.3315 27.3592 22.5636L26.7252 22.6981C25.6314 22.9313 24.5473 22.2252 24.3136 21.1319L22.4963 12.5711C22.2615 11.4773 22.9665 10.391 24.0614 10.1594L24.6948 10.0239C25.7887 9.79122 26.8738 10.4968 27.107 11.5895L28.9264 20.152Z" fill="#A38F8F"/>
</g>
<mask id="mask4_220_1377" style="mask-type:luminance" maskUnits="userSpaceOnUse" x="0" y="0" width="116" height="38">
<path d="M116 0H0V37.9468H116V0Z" fill="white"/>
</mask>
<g mask="url(#mask4_220_1377)">
<path d="M26.3343 28.4069C25.2394 28.6401 24.1537 27.9335 23.9232 26.8402L23.786 26.2063C23.555 25.1113 24.2605 24.0256 25.3549 23.7946L28.6787 23.0869C29.7715 22.8543 30.8588 23.5587 31.0909 24.6531L31.2265 25.2881C31.4586 26.383 30.7541 27.4682 29.6576 27.6998L26.3343 28.4069Z" fill="#A38F8F"/>
</g>
<mask id="mask5_220_1377" style="mask-type:luminance" maskUnits="userSpaceOnUse" x="0" y="0" width="116" height="38">
<path d="M116 0H0V37.9468H116V0Z" fill="white"/>
</mask>
<g mask="url(#mask5_220_1377)">
<path d="M33.6998 12.1277C34.5902 11.4954 35.9368 11.0599 37.1814 11.0398C38.4081 11.0398 39.5551 11.3766 40.1689 12.4032C40.7628 11.5138 41.8517 11.0599 42.9781 11.0398C44.8366 11.0187 46.7764 12.1472 46.7764 14.4222V21.4841H44.6191V14.5014C44.6191 13.5719 43.8279 13.1559 42.9776 13.1559C42.1267 13.1559 41.2563 13.6299 41.2563 14.4222V21.4841H39.1201V14.4623C39.1201 13.5312 38.2503 13.1559 37.3197 13.1559C36.805 13.1559 36.2703 13.2942 35.8359 13.5719V21.4841H33.6992L33.6998 12.1277Z" fill="#A38F8F"/>
</g>
<mask id="mask6_220_1377" style="mask-type:luminance" maskUnits="userSpaceOnUse" x="0" y="0" width="116" height="38">
<path d="M116 0H0V37.9468H116V0Z" fill="white"/>
</mask>
<g mask="url(#mask6_220_1377)">
<path d="M50.7329 11.2371H48.5566V21.484H50.7329V11.2371Z" fill="#A38F8F"/>
</g>
<mask id="mask7_220_1377" style="mask-type:luminance" maskUnits="userSpaceOnUse" x="0" y="0" width="116" height="38">
<path d="M116 0H0V37.9468H116V0Z" fill="white"/>
</mask>
<g mask="url(#mask7_220_1377)">
<path d="M52.3926 14.5612C52.3926 12.187 54.43 11.04 56.4279 11.04C58.0293 11.04 59.8515 11.7716 60.4041 13.7304L58.4257 14.4821C58.1709 13.5721 57.3574 13.1561 56.5277 13.1561C55.5965 13.1561 54.5689 13.6507 54.5689 14.5423V18.1822C54.5689 19.0711 55.4783 19.5662 56.4284 19.5662C57.2777 19.5662 58.1709 19.1513 58.4257 18.2424L60.4442 18.993C59.8905 20.9518 58.0299 21.6839 56.4284 21.6839C54.4306 21.6839 52.3931 20.5369 52.3931 18.1616L52.3926 14.5612Z" fill="#A38F8F"/>
</g>
<mask id="mask8_220_1377" style="mask-type:luminance" maskUnits="userSpaceOnUse" x="0" y="0" width="116" height="38">
<path d="M116 0H0V37.9468H116V0Z" fill="white"/>
</mask>
<g mask="url(#mask8_220_1377)">
<path d="M66.6798 11.1588V13.0775C65.5524 12.7402 63.7524 13.2152 63.7524 14.5992V21.4843H61.5762V14.5612C61.5762 13.0976 62.3875 12.0487 63.4753 11.475C64.1082 11.1377 65.2172 11.04 65.5128 11.04C65.849 11.04 66.2259 11.0601 66.6798 11.1588Z" fill="#A38F8F"/>
</g>
<mask id="mask9_220_1377" style="mask-type:luminance" maskUnits="userSpaceOnUse" x="0" y="0" width="116" height="38">
<path d="M116 0H0V37.9468H116V0Z" fill="white"/>
</mask>
<g mask="url(#mask9_220_1377)">
<path d="M67.2715 14.5818C67.2715 12.2277 69.3106 11.0601 71.3279 11.04C73.3052 11.0601 75.3432 12.2277 75.3432 14.5818V18.141C75.3432 20.5358 73.3052 21.6633 71.3279 21.6828C69.31 21.6633 67.2715 20.5358 67.2715 18.141V14.5818ZM69.451 14.5818V18.0434C69.451 19.0114 70.419 19.5656 71.3285 19.5656C72.1794 19.5656 73.1696 19.012 73.1696 18.0434V14.5818C73.1696 13.6117 72.1799 13.1561 71.3285 13.1561C70.419 13.1561 69.451 13.6117 69.451 14.5818Z" fill="#A38F8F"/>
</g>
<mask id="mask10_220_1377" style="mask-type:luminance" maskUnits="userSpaceOnUse" x="0" y="0" width="116" height="38">
<path d="M116 0H0V37.9468H116V0Z" fill="white"/>
</mask>
<g mask="url(#mask10_220_1377)">
<path d="M76.6133 12.1277C77.5037 11.4954 78.8503 11.0599 80.0949 11.0398C81.321 11.0398 82.4691 11.3766 83.0819 12.4032C83.6774 11.5138 84.7652 11.0599 85.8922 11.0398C87.7512 11.0187 89.691 12.1472 89.691 14.4222V21.4841H87.5332V14.5014C87.5332 13.5719 86.743 13.1559 85.8922 13.1559C85.0424 13.1559 84.1709 13.6299 84.1709 14.4222V21.4841H82.0331V14.4623C82.0331 13.5312 81.1632 13.1559 80.2332 13.1559C79.7185 13.1559 79.1849 13.2942 78.7505 13.5719V21.4841H76.6144V12.1277H76.6133Z" fill="#A38F8F"/>
</g>
<mask id="mask11_220_1377" style="mask-type:luminance" maskUnits="userSpaceOnUse" x="0" y="0" width="116" height="38">
<path d="M116 0H0V37.9468H116V0Z" fill="white"/>
</mask>
<g mask="url(#mask11_220_1377)">
<path d="M96.7492 14.4821C96.7492 13.4734 95.7215 12.9593 94.6108 12.9793C93.8017 12.9793 92.9704 13.2564 92.4557 13.8291L91.2279 12.5634C92.338 11.3361 93.5837 11.04 94.889 11.04C96.8853 11.04 98.9233 12.1078 98.9233 14.4224V20.9892C97.9759 21.3444 96.549 21.6828 95.0479 21.6828C92.9113 21.6828 90.8711 20.9892 90.8711 18.5575C90.8711 16.2999 92.7719 15.2727 94.6716 15.2727C95.4037 15.2727 96.1553 15.4116 96.7486 15.6686V14.4821H96.7492ZM96.7492 17.3709C96.3137 17.1724 95.6401 17.0146 94.9872 17.0146C93.722 17.0146 93.0083 17.6475 93.0083 18.5369C93.0083 19.5076 93.9194 19.8634 94.9102 19.8634C95.6206 19.8634 96.2736 19.7652 96.7497 19.6459L96.7492 17.3709Z" fill="#A38F8F"/>
</g>
<mask id="mask12_220_1377" style="mask-type:luminance" maskUnits="userSpaceOnUse" x="0" y="0" width="116" height="38">
<path d="M116 0H0V37.9468H116V0Z" fill="white"/>
</mask>
<g mask="url(#mask12_220_1377)">
<path d="M108.761 21.4837H106.25L105.181 19.8031L104.094 17.8443L102.964 19.8226L101.897 21.4837H99.3652L102.847 16.3605L99.3652 11.2368H101.897L102.885 12.7791L104.094 14.8974L105.298 12.7602L106.25 11.2368H108.742L105.397 16.3605L108.761 21.4837Z" fill="#A38F8F"/>
</g>
<mask id="mask13_220_1377" style="mask-type:luminance" maskUnits="userSpaceOnUse" x="0" y="0" width="116" height="38">
<path d="M116 0H0V37.9468H116V0Z" fill="white"/>
</mask>
<g mask="url(#mask13_220_1377)">
<path d="M48.5547 25.9955C48.8768 25.8833 49.2239 25.7856 49.5411 25.7856C50.0195 25.7954 50.4934 26.0541 50.4934 26.6159V28.3643H50.1079V26.6013C50.1079 26.2938 49.8145 26.1468 49.5411 26.1468C49.3161 26.1468 49.0867 26.2054 48.9451 26.2591V28.3643H48.5547V25.9955Z" fill="#A38F8F"/>
</g>
<mask id="mask14_220_1377" style="mask-type:luminance" maskUnits="userSpaceOnUse" x="0" y="0" width="116" height="38">
<path d="M116 0H0V37.9468H116V0Z" fill="white"/>
</mask>
<g mask="url(#mask14_220_1377)">
<path d="M51.9941 26.6301C51.9941 26.0688 52.4871 25.79 52.9757 25.7852C53.4595 25.79 53.9475 26.0682 53.9475 26.6301V27.5677C53.9475 28.1344 53.4595 28.4078 52.9757 28.4126C52.4871 28.4078 51.9941 28.1344 51.9941 27.5677V26.6301ZM52.3846 26.6209V27.5731C52.3846 27.8909 52.6921 28.0417 52.9757 28.0417C53.249 28.0417 53.5571 27.8909 53.5571 27.5731V26.6209C53.5571 26.3031 53.2496 26.1572 52.9757 26.1572C52.6926 26.1566 52.3846 26.3031 52.3846 26.6209Z" fill="#A38F8F"/>
</g>
<mask id="mask15_220_1377" style="mask-type:luminance" maskUnits="userSpaceOnUse" x="0" y="0" width="116" height="38">
<path d="M116 0H0V37.9468H116V0Z" fill="white"/>
</mask>
<g mask="url(#mask15_220_1377)">
<path d="M56.4864 28.4038C56.4327 28.4087 56.3839 28.4136 56.3351 28.4136C55.8221 28.4136 55.4512 28.1012 55.4512 27.5839V25.1956H55.8368V25.8355H56.3547V26.1967H55.8368V27.5844C55.8368 27.8724 56.0808 28.1457 56.4864 28.0682V28.4038Z" fill="#A38F8F"/>
</g>
<mask id="mask16_220_1377" style="mask-type:luminance" maskUnits="userSpaceOnUse" x="0" y="0" width="116" height="38">
<path d="M116 0H0V37.9468H116V0Z" fill="white"/>
</mask>
<g mask="url(#mask16_220_1377)">
<path d="M58.2225 25.9318C58.4275 25.8299 58.6471 25.7854 58.8429 25.7854C59.331 25.7751 59.7762 26.0392 59.7762 26.6254V28.3641H59.3901V26.6206C59.3901 26.293 59.0972 26.1515 58.8093 26.1466C58.6086 26.1466 58.4476 26.1764 58.223 26.2735V28.3635H57.832V24.9546H58.223L58.2225 25.9318Z" fill="#A38F8F"/>
</g>
<mask id="mask17_220_1377" style="mask-type:luminance" maskUnits="userSpaceOnUse" x="0" y="0" width="116" height="38">
<path d="M116 0H0V37.9468H116V0Z" fill="white"/>
</mask>
<g mask="url(#mask17_220_1377)">
<path d="M61.5453 24.8574C61.7015 24.8574 61.8192 24.9751 61.8192 25.1313C61.8192 25.2826 61.7015 25.4046 61.5453 25.4046C61.394 25.4046 61.2715 25.2826 61.2715 25.1313C61.272 24.9751 61.394 24.8574 61.5453 24.8574ZM61.7509 28.3645H61.3599V25.8347H61.7509V28.3645Z" fill="#A38F8F"/>
</g>
<mask id="mask18_220_1377" style="mask-type:luminance" maskUnits="userSpaceOnUse" x="0" y="0" width="116" height="38">
<path d="M116 0H0V37.9468H116V0Z" fill="white"/>
</mask>
<g mask="url(#mask18_220_1377)">
<path d="M63.3443 25.9955C63.667 25.8833 64.0135 25.7856 64.3307 25.7856C64.8091 25.7954 65.283 26.0541 65.283 26.6159V28.3643H64.8975V26.6013C64.8975 26.2938 64.6041 26.1468 64.3307 26.1468C64.1062 26.1468 63.8763 26.2054 63.7342 26.2591V28.3643H63.3438L63.3443 25.9955Z" fill="#A38F8F"/>
</g>
<mask id="mask19_220_1377" style="mask-type:luminance" maskUnits="userSpaceOnUse" x="0" y="0" width="116" height="38">
<path d="M116 0H0V37.9468H116V0Z" fill="white"/>
</mask>
<g mask="url(#mask19_220_1377)">
<path d="M67.1141 28.6962C67.2215 28.8329 67.5095 28.9457 67.7296 28.9457C68.0328 28.9457 68.3354 28.8524 68.3354 28.4912V28.2808C68.1494 28.379 67.9542 28.4126 67.7589 28.4126C67.2708 28.418 66.7871 28.1197 66.7871 27.5725V26.6159C66.7871 26.0633 67.2605 25.7856 67.7394 25.7856C68.0767 25.7856 68.3359 25.8296 68.7215 25.9858V28.4912C68.7215 29.0579 68.2427 29.3068 67.7638 29.3068C67.4368 29.3068 67.0995 29.1799 66.875 28.9354L67.1141 28.6962ZM68.3354 26.245C68.1347 26.1663 67.9634 26.1425 67.7389 26.1425C67.4558 26.1425 67.1727 26.3231 67.1776 26.6262V27.5932C67.1776 27.886 67.4368 28.0671 67.7492 28.0671C67.9688 28.0671 68.1402 28.033 68.3354 27.9598V26.245Z" fill="#A38F8F"/>
</g>
<mask id="mask20_220_1377" style="mask-type:luminance" maskUnits="userSpaceOnUse" x="0" y="0" width="116" height="38">
<path d="M116 0H0V37.9468H116V0Z" fill="white"/>
</mask>
<g mask="url(#mask20_220_1377)">
<path d="M73.1545 28.4128C72.6024 28.4128 72.2949 28.1053 72.2949 27.5879V24.9507H72.6859V27.5879C72.6859 27.8667 72.8329 28.0473 73.1545 28.0473V28.4128Z" fill="#A38F8F"/>
</g>
<mask id="mask21_220_1377" style="mask-type:luminance" maskUnits="userSpaceOnUse" x="0" y="0" width="116" height="38">
<path d="M116 0H0V37.9468H116V0Z" fill="white"/>
</mask>
<g mask="url(#mask21_220_1377)">
<path d="M74.6606 24.8572C74.8168 24.8572 74.9339 24.9749 74.9339 25.131C74.9339 25.2823 74.8168 25.4044 74.6606 25.4044C74.5093 25.4044 74.3867 25.2823 74.3867 25.131C74.3867 24.9749 74.5093 24.8572 74.6606 24.8572ZM74.8656 28.3643H74.4751V25.8344H74.8656V28.3643Z" fill="#A38F8F"/>
</g>
<mask id="mask22_220_1377" style="mask-type:luminance" maskUnits="userSpaceOnUse" x="0" y="0" width="116" height="38">
<path d="M116 0H0V37.9468H116V0Z" fill="white"/>
</mask>
<g mask="url(#mask22_220_1377)">
<path d="M78.0297 25.8346H78.5379L77.3947 26.987L78.5135 28.3645H78.02L77.1214 27.2653L76.8578 27.5294V28.3645H76.4668V24.9556H76.8578V27.0066L78.0297 25.8346Z" fill="#A38F8F"/>
</g>
<mask id="mask23_220_1377" style="mask-type:luminance" maskUnits="userSpaceOnUse" x="0" y="0" width="116" height="38">
<path d="M116 0H0V37.9468H116V0Z" fill="white"/>
</mask>
<g mask="url(#mask23_220_1377)">
<path d="M80.0418 27.6024C80.0418 27.9099 80.3298 28.0515 80.6281 28.0515C80.8575 28.0515 81.1015 27.9441 81.2045 27.7093L81.5462 27.8562C81.3705 28.2277 80.9941 28.4126 80.6286 28.4126C80.14 28.4126 79.6465 28.1344 79.6465 27.5726V26.6252C79.6465 26.0585 80.1394 25.7852 80.6286 25.7852C81.1069 25.7852 81.5955 26.0585 81.5955 26.6252V27.2944H80.0424V27.6024H80.0418ZM81.2241 26.6062C81.2241 26.3079 80.9166 26.1425 80.6281 26.1425C80.3005 26.1425 80.0369 26.3085 80.0418 26.6165V26.9679H81.2241V26.6062Z" fill="#A38F8F"/>
</g>
<mask id="mask24_220_1377" style="mask-type:luminance" maskUnits="userSpaceOnUse" x="0" y="0" width="116" height="38">
<path d="M116 0H0V37.9468H116V0Z" fill="white"/>
</mask>
<g mask="url(#mask24_220_1377)">
<path d="M86.4936 26.6012C86.4936 26.3078 86.2007 26.1468 85.8976 26.1468C85.6731 26.1468 85.4236 26.2346 85.2729 26.4206L85.0283 26.1815C85.2631 25.9223 85.6096 25.7861 85.9269 25.7861C86.4106 25.7861 86.8846 26.0546 86.8846 26.6018V28.2428C86.5332 28.3648 86.1763 28.4185 85.839 28.4131C85.3309 28.4082 84.9355 28.1641 84.9355 27.6218C84.9404 27.0654 85.39 26.8165 85.8884 26.8165C86.1075 26.8165 86.3081 26.8604 86.4936 26.9385V26.6012ZM86.4936 27.2211C86.3374 27.1674 86.1324 27.1235 85.9269 27.1235C85.6096 27.1235 85.3266 27.2601 85.3217 27.6213C85.3217 27.944 85.5511 28.0758 85.8493 28.0806C86.0641 28.0855 86.2837 28.0758 86.4936 28.0318V27.2211Z" fill="#A38F8F"/>
</g>
<mask id="mask25_220_1377" style="mask-type:luminance" maskUnits="userSpaceOnUse" x="0" y="0" width="116" height="38">
<path d="M116 0H0V37.9468H116V0Z" fill="white"/>
</mask>
<g mask="url(#mask25_220_1377)">
<path d="M88.438 25.9958C88.7602 25.8835 89.1067 25.7859 89.4245 25.7859C89.9028 25.7957 90.3768 26.0543 90.3768 26.6162V28.3646H89.9907V26.6015C89.9907 26.294 89.6978 26.1471 89.4245 26.1471C89.1994 26.1471 88.97 26.2056 88.828 26.2593V28.3646H88.4375V25.9958H88.438Z" fill="#A38F8F"/>
</g>
<mask id="mask26_220_1377" style="mask-type:luminance" maskUnits="userSpaceOnUse" x="0" y="0" width="116" height="38">
<path d="M116 0H0V37.9468H116V0Z" fill="white"/>
</mask>
<g mask="url(#mask26_220_1377)">
<path d="M92.3012 28.6718C92.4378 28.8383 92.6916 28.9262 92.9216 28.9262C93.2339 28.9262 93.5463 28.8036 93.5463 28.4522V28.2575C93.376 28.3746 93.1461 28.4083 92.9411 28.4137C92.4378 28.4186 91.9395 28.1057 91.9395 27.5438V25.8345H92.3402V27.5536C92.3402 27.8611 92.6379 28.0324 92.9313 28.0373C93.1314 28.0373 93.3462 27.9934 93.5463 27.9153V25.8345H93.9373V28.4522C93.9373 29.0384 93.4536 29.3069 92.9509 29.3069C92.619 29.3069 92.2621 29.1702 92.0333 28.9159L92.3012 28.6718Z" fill="#A38F8F"/>
</g>
<mask id="mask27_220_1377" style="mask-type:luminance" maskUnits="userSpaceOnUse" x="0" y="0" width="116" height="38">
<path d="M116 0H0V37.9468H116V0Z" fill="white"/>
</mask>
<g mask="url(#mask27_220_1377)">
<path d="M96.5573 28.4038C96.5031 28.4087 96.4548 28.4136 96.406 28.4136C95.893 28.4136 95.5215 28.1012 95.5215 27.5839V25.1956H95.9076V25.8355H96.425V26.1967H95.9076V27.5844C95.9076 27.8724 96.1516 28.1457 96.5573 28.0682V28.4038Z" fill="#A38F8F"/>
</g>
<mask id="mask28_220_1377" style="mask-type:luminance" maskUnits="userSpaceOnUse" x="0" y="0" width="116" height="38">
<path d="M116 0H0V37.9468H116V0Z" fill="white"/>
</mask>
<g mask="url(#mask28_220_1377)">
<path d="M98.2967 25.9318C98.5017 25.8299 98.7213 25.7854 98.9171 25.7854C99.4052 25.7751 99.8504 26.0392 99.8504 26.6254V28.3641H99.4638V26.6206C99.4638 26.293 99.1715 26.1515 98.8835 26.1466C98.6828 26.1466 98.5218 26.1764 98.2972 26.2735V28.3635H97.9062V24.9546H98.2972L98.2967 25.9318Z" fill="#A38F8F"/>
</g>
<mask id="mask29_220_1377" style="mask-type:luminance" maskUnits="userSpaceOnUse" x="0" y="0" width="116" height="38">
<path d="M116 0H0V37.9468H116V0Z" fill="white"/>
</mask>
<g mask="url(#mask29_220_1377)">
<path d="M101.617 24.8574C101.773 24.8574 101.891 24.9751 101.891 25.1313C101.891 25.2826 101.773 25.4046 101.617 25.4046C101.466 25.4046 101.344 25.2826 101.344 25.1313C101.344 24.9751 101.466 24.8574 101.617 24.8574ZM101.823 28.3645H101.432V25.8347H101.823V28.3645Z" fill="#A38F8F"/>
</g>
<mask id="mask30_220_1377" style="mask-type:luminance" maskUnits="userSpaceOnUse" x="0" y="0" width="116" height="38">
<path d="M116 0H0V37.9468H116V0Z" fill="white"/>
</mask>
<g mask="url(#mask30_220_1377)">
<path d="M103.415 25.9955C103.737 25.8833 104.084 25.7856 104.401 25.7856C104.88 25.7954 105.353 26.0541 105.353 26.6159V28.3643H104.968V26.6013C104.968 26.2938 104.674 26.1468 104.401 26.1468C104.177 26.1468 103.947 26.2054 103.805 26.2591V28.3643H103.414V25.9955H103.415Z" fill="#A38F8F"/>
</g>
<mask id="mask31_220_1377" style="mask-type:luminance" maskUnits="userSpaceOnUse" x="0" y="0" width="116" height="38">
<path d="M116 37.9468V0H58H0V37.9468H116Z" fill="white"/>
</mask>
<g mask="url(#mask31_220_1377)">
<path d="M107.183 28.6962C107.29 28.8329 107.578 28.9457 107.799 28.9457C108.102 28.9457 108.404 28.8524 108.404 28.4912V28.2808C108.218 28.379 108.023 28.4126 107.827 28.4126C107.339 28.418 106.855 28.1197 106.855 27.5725V26.6159C106.855 26.0633 107.329 25.7856 107.808 25.7856C108.145 25.7856 108.404 25.8296 108.79 25.9858V28.4912C108.79 29.0579 108.311 29.3068 107.833 29.3068C107.505 29.3068 107.168 29.1799 106.943 28.9354L107.183 28.6962ZM108.404 26.245C108.204 26.1663 108.032 26.1425 107.808 26.1425C107.525 26.1425 107.241 26.3231 107.246 26.6262V27.5932C107.246 27.886 107.506 28.0671 107.818 28.0671C108.038 28.0671 108.209 28.033 108.404 27.9598V26.245Z" fill="#A38F8F"/>
</g>
</svg>
