<svg width="96" height="40" viewBox="0 0 96 40" fill="none" xmlns="http://www.w3.org/2000/svg">
<path fill-rule="evenodd" clip-rule="evenodd" d="M29.8559 32.5201C29.8559 29.133 29.8559 25.8311 29.8559 22.5457C29.2614 22.1981 29.1693 22.6391 29.0586 22.9935C28.1501 25.8988 27.232 28.8016 26.3606 31.718C26.1742 32.3419 25.9276 32.5927 25.2265 32.5696C23.4422 32.5107 23.4314 32.5552 22.9069 30.8882C22.0917 28.2966 21.2994 25.6979 20.4718 23.1102C20.3809 22.8261 20.1215 22.5951 19.9404 22.3397C19.8496 22.3823 19.7591 22.4251 19.6683 22.4676C19.6683 25.7989 19.6683 29.1298 19.6683 32.5042C16.4334 32.5042 13.2836 32.5042 10.0824 32.5042C10.0824 30.6888 10.0824 28.8828 10.0824 26.9908C10.8598 26.9908 11.6484 26.9908 12.4946 26.9908C12.4946 22.2955 12.4946 17.6854 12.4946 12.9896C11.6882 12.9896 10.8977 12.9896 10.0713 12.9896C10.0713 11.0986 10.0713 9.29276 10.0713 7.38902C10.7708 7.38902 11.4551 7.38902 12.139 7.38902C14.6639 7.38902 17.1889 7.4039 19.7135 7.37711C20.25 7.37133 20.4458 7.52015 20.596 8.05838C21.7763 12.2885 23.006 16.5049 24.2256 20.7241C24.2989 20.978 24.4166 21.2192 24.7263 21.4925C26.2677 16.7994 27.8092 12.1065 29.3511 7.41184C32.7081 7.41184 36.0058 7.41184 39.3679 7.41184C39.3679 9.25886 39.3679 11.0842 39.3679 12.9809C38.5909 12.9809 37.8251 12.9809 36.9984 12.9809C36.9984 17.6371 36.9984 22.2236 36.9984 26.9051C37.759 26.9051 38.5465 26.9051 39.3825 26.9051C39.3825 28.8305 39.3825 30.661 39.3825 32.5201C36.2087 32.5201 33.0812 32.5201 29.8559 32.5201Z" fill="#A38F8F"/>
<path fill-rule="evenodd" clip-rule="evenodd" d="M79.5725 26.8769C79.5725 25.4756 79.5725 24.1343 79.5725 22.7441C81.2874 22.7441 82.9349 22.7441 84.6124 22.7441C84.6124 26.0015 84.6124 29.2176 84.6124 32.4915C77.8762 32.4915 71.1523 32.4915 64.3668 32.4915C64.3668 30.6901 64.3668 28.8649 64.3668 26.9549C65.1096 26.9549 65.8442 26.9549 66.6178 26.9549C66.6178 22.283 66.6178 17.695 66.6178 13.0196C65.8828 13.0196 65.1498 13.0196 64.3623 13.0196C64.3623 11.129 64.3623 9.32435 64.3623 7.45435C68.3882 7.45435 72.4447 7.45435 76.5533 7.45435C76.5533 9.25887 76.5533 11.0627 76.5533 12.9605C75.8163 12.9605 75.0836 12.9605 74.2902 12.9605C74.2902 17.6376 74.2902 22.2224 74.2902 26.877C75.9918 26.8769 77.7169 26.8769 79.5725 26.8769Z" fill="#A38F8F"/>
<path fill-rule="evenodd" clip-rule="evenodd" d="M44.3642 12.9935C43.4674 12.9935 42.6186 12.9935 41.7246 12.9935C41.7246 11.1163 41.7246 9.31164 41.7246 7.44775C44.965 7.44775 48.2156 7.44775 51.5594 7.44775C50.8277 9.25741 50.1108 11.0299 49.395 12.803C48.8399 14.1776 48.283 15.5517 47.7336 16.9286C47.4563 17.6231 47.666 17.9573 48.4237 17.966C49.9159 17.9837 51.4082 17.9713 52.9487 17.9713C52.9487 22.8305 52.9487 27.6349 52.9487 32.4939C49.226 32.4939 45.5009 32.4939 41.7259 32.4939C41.7259 30.6903 41.7259 28.8845 41.7259 26.9758C42.5747 26.9758 43.4434 26.9758 44.3644 26.9758C44.3642 22.2891 44.3642 17.7038 44.3642 12.9935Z" fill="#A38F8F"/>
<path fill-rule="evenodd" clip-rule="evenodd" d="M54.3835 25.6445C54.9853 24.0694 55.5734 22.5087 56.1777 20.9544C56.8842 19.1378 57.6081 17.328 58.3178 15.5127C58.619 14.7428 58.3693 14.3717 57.523 14.3638C56.0542 14.3501 54.5851 14.36 53.0566 14.36C53.0566 12.0577 53.0566 9.78543 53.0566 7.50881C56.6295 6.97802 60.1541 7.95693 62.411 10.9229C64.7131 13.9489 64.939 18.2462 62.9752 21.5659C61.3623 24.2929 57.6705 26.0675 54.3835 25.6445Z" fill="#A38F8F"/>
</svg>
