<svg width="118" height="30" viewBox="0 0 118 30" fill="none" xmlns="http://www.w3.org/2000/svg">
<g clip-path="url(#clip0_1237_859)">
<g clip-path="url(#clip1_1237_859)">
<path fill-rule="evenodd" clip-rule="evenodd" d="M11.7547 3.03516H-0.216553V26.9777H11.7547V20.9921C18.2878 20.9919 22.2293 16.9722 22.2293 11.2654C22.2293 6.30683 18.2878 3.03526 11.7547 3.03516Z" fill="url(#paint0_linear_1237_859)"/>
<path d="M11.7547 9.01953L23.726 20.9908V26.9764H-0.216553V20.9908L11.7547 9.01953Z" fill="url(#paint1_linear_1237_859)"/>
<path d="M-0.216553 3.03516H11.7547V26.9777H-0.216553V3.03516Z" fill="url(#paint2_linear_1237_859)"/>
<path fill-rule="evenodd" clip-rule="evenodd" d="M23.7544 26.9764V20.9906L11.7834 9.01953L11.7831 9.01976V26.9764H23.7544Z" fill="url(#paint3_linear_1237_859)"/>
<path d="M3.37549 17.3984C5.2647 19.5121 8.21886 20.9898 11.7741 20.9898C15.3394 20.9898 17.9281 19.5308 20.1727 17.3984C13.6168 18.292 9.93097 18.3059 3.37549 17.3984Z" fill="#020305"/>
<path d="M11.7546 20.9571C12.9943 20.9571 13.9992 19.9521 13.9992 18.7124C13.9992 18.464 13.9615 18.2624 13.887 18.0391C12.1899 18.0979 11.2694 18.0947 9.64095 18.0391C9.56643 18.2624 9.51001 18.464 9.51001 18.7124C9.51001 19.9521 10.515 20.9571 11.7546 20.9571Z" fill="white"/>
</g>
<path d="M39.384 16.762V14.674H42.066C42.63 14.674 43.062 14.53 43.362 14.242C43.674 13.954 43.83 13.564 43.83 13.072C43.83 12.616 43.68 12.238 43.38 11.938C43.08 11.638 42.648 11.488 42.084 11.488H39.384V9.292H42.408C43.248 9.292 43.986 9.454 44.622 9.778C45.258 10.09 45.756 10.528 46.116 11.092C46.476 11.656 46.656 12.304 46.656 13.036C46.656 13.78 46.476 14.434 46.116 14.998C45.756 15.55 45.252 15.982 44.604 16.294C43.956 16.606 43.194 16.762 42.318 16.762H39.384ZM37.224 22V9.292H40.05V22H37.224ZM44.136 22L40.176 16.528L42.768 15.826L47.484 22H44.136ZM53.9958 22.216C53.0358 22.216 52.1478 22.048 51.3318 21.712C50.5278 21.376 49.8198 20.908 49.2078 20.308C48.5958 19.708 48.1218 19.012 47.7858 18.22C47.4498 17.416 47.2818 16.552 47.2818 15.628C47.2818 14.692 47.4498 13.828 47.7858 13.036C48.1218 12.244 48.5898 11.554 49.1898 10.966C49.7898 10.366 50.4918 9.904 51.2958 9.58C52.1118 9.244 52.9998 9.076 53.9598 9.076C54.9078 9.076 55.7838 9.244 56.5878 9.58C57.4038 9.904 58.1118 10.366 58.7118 10.966C59.3238 11.554 59.7978 12.25 60.1338 13.054C60.4698 13.846 60.6378 14.71 60.6378 15.646C60.6378 16.57 60.4698 17.434 60.1338 18.238C59.7978 19.03 59.3298 19.726 58.7298 20.326C58.1298 20.914 57.4218 21.376 56.6058 21.712C55.8018 22.048 54.9318 22.216 53.9958 22.216ZM53.9598 19.642C54.7158 19.642 55.3758 19.474 55.9398 19.138C56.5158 18.802 56.9598 18.334 57.2718 17.734C57.5838 17.122 57.7398 16.42 57.7398 15.628C57.7398 15.028 57.6498 14.488 57.4698 14.008C57.2898 13.516 57.0318 13.096 56.6958 12.748C56.3598 12.388 55.9578 12.118 55.4898 11.938C55.0338 11.746 54.5238 11.65 53.9598 11.65C53.2038 11.65 52.5378 11.818 51.9618 12.154C51.3978 12.478 50.9598 12.94 50.6478 13.54C50.3358 14.128 50.1798 14.824 50.1798 15.628C50.1798 16.228 50.2698 16.774 50.4498 17.266C50.6298 17.758 50.8818 18.184 51.2058 18.544C51.5418 18.892 51.9438 19.162 52.4118 19.354C52.8798 19.546 53.3958 19.642 53.9598 19.642ZM63.8717 22V19.804H66.8597C67.4117 19.804 67.8437 19.642 68.1557 19.318C68.4677 18.994 68.6237 18.598 68.6237 18.13C68.6237 17.806 68.5517 17.518 68.4077 17.266C68.2637 17.014 68.0597 16.816 67.7957 16.672C67.5437 16.528 67.2317 16.456 66.8597 16.456H63.8717V14.314H66.6257C67.0937 14.314 67.4717 14.2 67.7597 13.972C68.0477 13.732 68.1917 13.372 68.1917 12.892C68.1917 12.424 68.0477 12.076 67.7597 11.848C67.4717 11.608 67.0937 11.488 66.6257 11.488H63.8717V9.292H67.1657C67.9817 9.292 68.6717 9.442 69.2357 9.742C69.8117 10.042 70.2497 10.444 70.5497 10.948C70.8497 11.452 70.9997 12.01 70.9997 12.622C70.9997 13.402 70.7477 14.062 70.2437 14.602C69.7397 15.142 68.9957 15.514 68.0117 15.718L68.0837 14.764C69.1517 14.968 69.9737 15.382 70.5497 16.006C71.1377 16.63 71.4317 17.398 71.4317 18.31C71.4317 19.006 71.2577 19.636 70.9097 20.2C70.5737 20.752 70.0817 21.19 69.4337 21.514C68.7977 21.838 68.0297 22 67.1297 22H63.8717ZM61.7117 22V9.292H64.5017V22H61.7117ZM75.9192 17.266L71.0232 9.292H74.2992L78.0612 15.736H75.9552L79.7172 9.292H82.9212L77.9892 17.266H75.9192ZM75.5772 22V15.97H78.4032V22H75.5772ZM83.2112 22V9.292H86.0372V22H83.2112ZM85.3892 22V19.516H91.6712V22H85.3892ZM97.9439 22.216C96.9839 22.216 96.0959 22.048 95.2799 21.712C94.4759 21.376 93.7679 20.908 93.1559 20.308C92.5439 19.708 92.0699 19.012 91.7339 18.22C91.3979 17.416 91.2299 16.552 91.2299 15.628C91.2299 14.692 91.3979 13.828 91.7339 13.036C92.0699 12.244 92.5379 11.554 93.1379 10.966C93.7379 10.366 94.4399 9.904 95.2439 9.58C96.0599 9.244 96.9479 9.076 97.9079 9.076C98.8559 9.076 99.7319 9.244 100.536 9.58C101.352 9.904 102.06 10.366 102.66 10.966C103.272 11.554 103.746 12.25 104.082 13.054C104.418 13.846 104.586 14.71 104.586 15.646C104.586 16.57 104.418 17.434 104.082 18.238C103.746 19.03 103.278 19.726 102.678 20.326C102.078 20.914 101.37 21.376 100.554 21.712C99.7499 22.048 98.8799 22.216 97.9439 22.216ZM97.9079 19.642C98.6639 19.642 99.3239 19.474 99.8879 19.138C100.464 18.802 100.908 18.334 101.22 17.734C101.532 17.122 101.688 16.42 101.688 15.628C101.688 15.028 101.598 14.488 101.418 14.008C101.238 13.516 100.98 13.096 100.644 12.748C100.308 12.388 99.9059 12.118 99.4379 11.938C98.9819 11.746 98.4719 11.65 97.9079 11.65C97.1519 11.65 96.4859 11.818 95.9099 12.154C95.3459 12.478 94.9079 12.94 94.5959 13.54C94.2839 14.128 94.1279 14.824 94.1279 15.628C94.1279 16.228 94.2179 16.774 94.3979 17.266C94.5779 17.758 94.8299 18.184 95.1539 18.544C95.4899 18.892 95.8919 19.162 96.3599 19.354C96.8279 19.546 97.3439 19.642 97.9079 19.642ZM105.66 22V9.292H107.64L108.486 11.83V22H105.66ZM114.426 22L106.938 12.406L107.64 9.292L115.128 18.886L114.426 22ZM114.426 22L113.67 19.462V9.292H116.496V22H114.426Z" fill="#020305"/>
</g>
<defs>
<linearGradient id="paint0_linear_1237_859" x1="11.0064" y1="3.03516" x2="11.0064" y2="26.9777" gradientUnits="userSpaceOnUse">
<stop stop-color="#1B76FF"/>
<stop offset="1" stop-color="#021EAC"/>
</linearGradient>
<linearGradient id="paint1_linear_1237_859" x1="11.7547" y1="9.01953" x2="11.7547" y2="26.9764" gradientUnits="userSpaceOnUse">
<stop stop-color="#1B76FF"/>
<stop offset="1" stop-color="#1B76FF"/>
</linearGradient>
<linearGradient id="paint2_linear_1237_859" x1="11.6667" y1="3.00647" x2="0.375882" y2="24.7816" gradientUnits="userSpaceOnUse">
<stop offset="0.242896" stop-color="#0336F9"/>
<stop offset="1" stop-color="#0336F9" stop-opacity="0"/>
</linearGradient>
<linearGradient id="paint3_linear_1237_859" x1="17.7688" y1="9.01953" x2="17.7688" y2="26.9764" gradientUnits="userSpaceOnUse">
<stop stop-color="white"/>
<stop offset="1" stop-color="white" stop-opacity="0"/>
</linearGradient>
<clipPath id="clip0_1237_859">
<rect width="118" height="30" fill="white"/>
</clipPath>
<clipPath id="clip1_1237_859">
<rect width="24" height="24" fill="white" transform="translate(-0.111084 3)"/>
</clipPath>
</defs>
</svg>
