<svg width="140" height="52" viewBox="0 0 140 52" fill="none" xmlns="http://www.w3.org/2000/svg">
<g clip-path="url(#clip0_1237_954)">
<g clip-path="url(#clip1_1237_954)">
<path fill-rule="evenodd" clip-rule="evenodd" d="M23.7547 14.0352H11.7834V37.9777H23.7547V31.9921C30.2878 31.9919 34.2293 27.9722 34.2293 22.2654C34.2293 17.3068 30.2878 14.0353 23.7547 14.0352Z" fill="url(#paint0_linear_1237_954)"/>
<path d="M23.7547 20.0195L35.726 31.9908V37.9764H11.7834V31.9908L23.7547 20.0195Z" fill="url(#paint1_linear_1237_954)"/>
<path d="M11.7834 14.0352H23.7547V37.9777H11.7834V14.0352Z" fill="url(#paint2_linear_1237_954)"/>
<path fill-rule="evenodd" clip-rule="evenodd" d="M35.7544 37.9764V31.9906L23.7834 20.0195L23.7831 20.0198V37.9764H35.7544Z" fill="url(#paint3_linear_1237_954)"/>
<path d="M15.3755 28.3984C17.2647 30.5121 20.2189 31.9898 23.7741 31.9898C27.3394 31.9898 29.9281 30.5308 32.1727 28.3984C25.6168 29.292 21.931 29.3059 15.3755 28.3984Z" fill="#020305"/>
<path d="M23.7546 31.9571C24.9943 31.9571 25.9992 30.9521 25.9992 29.7124C25.9992 29.464 25.9615 29.2624 25.887 29.0391C24.1899 29.0979 23.2694 29.0947 21.6409 29.0391C21.5664 29.2624 21.51 29.464 21.51 29.7124C21.51 30.9521 22.515 31.9571 23.7546 31.9571Z" fill="white"/>
</g>
<path d="M51.384 27.762V25.674H54.066C54.63 25.674 55.062 25.53 55.362 25.242C55.674 24.954 55.83 24.564 55.83 24.072C55.83 23.616 55.68 23.238 55.38 22.938C55.08 22.638 54.648 22.488 54.084 22.488H51.384V20.292H54.408C55.248 20.292 55.986 20.454 56.622 20.778C57.258 21.09 57.756 21.528 58.116 22.092C58.476 22.656 58.656 23.304 58.656 24.036C58.656 24.78 58.476 25.434 58.116 25.998C57.756 26.55 57.252 26.982 56.604 27.294C55.956 27.606 55.194 27.762 54.318 27.762H51.384ZM49.224 33V20.292H52.05V33H49.224ZM56.136 33L52.176 27.528L54.768 26.826L59.484 33H56.136ZM65.9958 33.216C65.0358 33.216 64.1478 33.048 63.3318 32.712C62.5278 32.376 61.8198 31.908 61.2078 31.308C60.5958 30.708 60.1218 30.012 59.7858 29.22C59.4498 28.416 59.2818 27.552 59.2818 26.628C59.2818 25.692 59.4498 24.828 59.7858 24.036C60.1218 23.244 60.5898 22.554 61.1898 21.966C61.7898 21.366 62.4918 20.904 63.2958 20.58C64.1118 20.244 64.9998 20.076 65.9598 20.076C66.9078 20.076 67.7838 20.244 68.5878 20.58C69.4038 20.904 70.1118 21.366 70.7118 21.966C71.3238 22.554 71.7978 23.25 72.1338 24.054C72.4698 24.846 72.6378 25.71 72.6378 26.646C72.6378 27.57 72.4698 28.434 72.1338 29.238C71.7978 30.03 71.3298 30.726 70.7298 31.326C70.1298 31.914 69.4218 32.376 68.6058 32.712C67.8018 33.048 66.9318 33.216 65.9958 33.216ZM65.9598 30.642C66.7158 30.642 67.3758 30.474 67.9398 30.138C68.5158 29.802 68.9598 29.334 69.2718 28.734C69.5838 28.122 69.7398 27.42 69.7398 26.628C69.7398 26.028 69.6498 25.488 69.4698 25.008C69.2898 24.516 69.0318 24.096 68.6958 23.748C68.3598 23.388 67.9578 23.118 67.4898 22.938C67.0338 22.746 66.5238 22.65 65.9598 22.65C65.2038 22.65 64.5378 22.818 63.9618 23.154C63.3978 23.478 62.9598 23.94 62.6478 24.54C62.3358 25.128 62.1798 25.824 62.1798 26.628C62.1798 27.228 62.2698 27.774 62.4498 28.266C62.6298 28.758 62.8818 29.184 63.2058 29.544C63.5418 29.892 63.9438 30.162 64.4118 30.354C64.8798 30.546 65.3958 30.642 65.9598 30.642ZM75.8717 33V30.804H78.8597C79.4117 30.804 79.8437 30.642 80.1557 30.318C80.4677 29.994 80.6237 29.598 80.6237 29.13C80.6237 28.806 80.5517 28.518 80.4077 28.266C80.2637 28.014 80.0597 27.816 79.7957 27.672C79.5437 27.528 79.2317 27.456 78.8597 27.456H75.8717V25.314H78.6257C79.0937 25.314 79.4717 25.2 79.7597 24.972C80.0477 24.732 80.1917 24.372 80.1917 23.892C80.1917 23.424 80.0477 23.076 79.7597 22.848C79.4717 22.608 79.0937 22.488 78.6257 22.488H75.8717V20.292H79.1657C79.9817 20.292 80.6717 20.442 81.2357 20.742C81.8117 21.042 82.2497 21.444 82.5497 21.948C82.8497 22.452 82.9997 23.01 82.9997 23.622C82.9997 24.402 82.7477 25.062 82.2437 25.602C81.7397 26.142 80.9957 26.514 80.0117 26.718L80.0837 25.764C81.1517 25.968 81.9737 26.382 82.5497 27.006C83.1377 27.63 83.4317 28.398 83.4317 29.31C83.4317 30.006 83.2577 30.636 82.9097 31.2C82.5737 31.752 82.0817 32.19 81.4337 32.514C80.7977 32.838 80.0297 33 79.1297 33H75.8717ZM73.7117 33V20.292H76.5017V33H73.7117ZM87.9192 28.266L83.0232 20.292H86.2992L90.0612 26.736H87.9552L91.7172 20.292H94.9212L89.9892 28.266H87.9192ZM87.5772 33V26.97H90.4032V33H87.5772ZM95.2112 33V20.292H98.0372V33H95.2112ZM97.3892 33V30.516H103.671V33H97.3892ZM109.944 33.216C108.984 33.216 108.096 33.048 107.28 32.712C106.476 32.376 105.768 31.908 105.156 31.308C104.544 30.708 104.07 30.012 103.734 29.22C103.398 28.416 103.23 27.552 103.23 26.628C103.23 25.692 103.398 24.828 103.734 24.036C104.07 23.244 104.538 22.554 105.138 21.966C105.738 21.366 106.44 20.904 107.244 20.58C108.06 20.244 108.948 20.076 109.908 20.076C110.856 20.076 111.732 20.244 112.536 20.58C113.352 20.904 114.06 21.366 114.66 21.966C115.272 22.554 115.746 23.25 116.082 24.054C116.418 24.846 116.586 25.71 116.586 26.646C116.586 27.57 116.418 28.434 116.082 29.238C115.746 30.03 115.278 30.726 114.678 31.326C114.078 31.914 113.37 32.376 112.554 32.712C111.75 33.048 110.88 33.216 109.944 33.216ZM109.908 30.642C110.664 30.642 111.324 30.474 111.888 30.138C112.464 29.802 112.908 29.334 113.22 28.734C113.532 28.122 113.688 27.42 113.688 26.628C113.688 26.028 113.598 25.488 113.418 25.008C113.238 24.516 112.98 24.096 112.644 23.748C112.308 23.388 111.906 23.118 111.438 22.938C110.982 22.746 110.472 22.65 109.908 22.65C109.152 22.65 108.486 22.818 107.91 23.154C107.346 23.478 106.908 23.94 106.596 24.54C106.284 25.128 106.128 25.824 106.128 26.628C106.128 27.228 106.218 27.774 106.398 28.266C106.578 28.758 106.83 29.184 107.154 29.544C107.49 29.892 107.892 30.162 108.36 30.354C108.828 30.546 109.344 30.642 109.908 30.642ZM117.66 33V20.292H119.64L120.486 22.83V33H117.66ZM126.426 33L118.938 23.406L119.64 20.292L127.128 29.886L126.426 33ZM126.426 33L125.67 30.462V20.292H128.496V33H126.426Z" fill="#020305"/>
</g>
<defs>
<linearGradient id="paint0_linear_1237_954" x1="23.0064" y1="14.0352" x2="23.0064" y2="37.9777" gradientUnits="userSpaceOnUse">
<stop stop-color="#1B76FF"/>
<stop offset="1" stop-color="#021EAC"/>
</linearGradient>
<linearGradient id="paint1_linear_1237_954" x1="23.7547" y1="20.0195" x2="23.7547" y2="37.9764" gradientUnits="userSpaceOnUse">
<stop stop-color="#1B76FF"/>
<stop offset="1" stop-color="#1B76FF"/>
</linearGradient>
<linearGradient id="paint2_linear_1237_954" x1="23.6667" y1="14.0065" x2="12.3759" y2="35.7816" gradientUnits="userSpaceOnUse">
<stop offset="0.242896" stop-color="#0336F9"/>
<stop offset="1" stop-color="#0336F9" stop-opacity="0"/>
</linearGradient>
<linearGradient id="paint3_linear_1237_954" x1="29.7688" y1="20.0195" x2="29.7688" y2="37.9764" gradientUnits="userSpaceOnUse">
<stop stop-color="white"/>
<stop offset="1" stop-color="white" stop-opacity="0"/>
</linearGradient>
<clipPath id="clip0_1237_954">
<rect width="118" height="30" fill="white" transform="translate(12 11)"/>
</clipPath>
<clipPath id="clip1_1237_954">
<rect width="24" height="24" fill="white" transform="translate(11.8889 14)"/>
</clipPath>
</defs>
</svg>
