<svg width="120" height="32" viewBox="0 0 120 32" fill="none" xmlns="http://www.w3.org/2000/svg">
<path d="M15.255 0.745117C6.8587 0.745117 0 7.55193 0 16C0 24.448 6.84142 31.2548 15.255 31.2548C23.7031 31.2548 30.51 24.448 30.51 16C30.51 7.55193 23.7031 0.745117 15.255 0.745117ZM19.8505 10.4371C20.006 10.8862 20.0578 11.3872 20.0578 11.8883C20.0578 12.8903 19.8159 13.8405 19.3149 14.687L19.0731 14.9807L20.0751 16.7256V19.6798L17.0172 16.6219H14.7713L20.0233 23.0659V26.262L7.5152 13.685H15.2723C16.2743 13.685 17.069 12.8903 17.069 11.8883C17.069 10.8862 16.2743 10.0915 15.2723 10.0915H10.5213L7.56703 7.1373H20.1615L23.1157 10.0915H19.7641L19.8505 10.4371Z" fill="#A38F8F"/>
<path d="M36.8513 5.09741H43.6927C44.9366 5.09741 45.9904 5.2529 46.7851 5.59842C47.5799 5.94394 48.2364 6.3413 48.6855 6.89413C49.1347 7.39514 49.4802 7.99981 49.6876 8.63903C49.8949 9.29552 49.9813 9.93474 49.9813 10.5394C49.9813 11.1959 49.8776 11.7833 49.6357 12.3361C49.4284 12.9408 49.0829 13.4418 48.6855 13.891C48.2882 14.3402 47.7872 14.7375 47.1825 15.083C46.5778 15.3767 45.9386 15.584 45.1784 15.6877L50.7241 24.5849H47.4244L42.4315 15.9814H39.4773V24.5849H36.834V5.09741H36.8513ZM39.5118 13.6837H42.9671C43.4681 13.6837 43.9691 13.6318 44.5219 13.58C45.023 13.4764 45.4721 13.3381 45.8695 13.1308C46.2669 12.9235 46.5778 12.578 46.8197 12.1806C47.0616 11.7833 47.1652 11.2305 47.1652 10.574C47.1652 9.91746 47.0616 9.3819 46.8197 8.96727C46.5778 8.56992 46.2669 8.2244 45.8695 8.01708C45.4721 7.80977 45.023 7.67156 44.5219 7.5679C44.0209 7.46425 43.5199 7.46425 42.9671 7.46425H39.5118V13.6837Z" fill="#A38F8F"/>
<path d="M63.0602 24.5848H60.5551V22.5807H60.5033C60.2096 23.2891 59.6568 23.8246 58.862 24.2738C58.1192 24.723 57.2208 24.9303 56.2188 24.9303C55.5623 24.9303 54.9749 24.8266 54.422 24.6366C53.8692 24.4466 53.3682 24.1356 52.919 23.7382C52.4698 23.3409 52.1243 22.8399 51.8651 22.1834C51.6233 21.5269 51.4678 20.784 51.4678 19.9375V11.5413H53.9728V19.2464C53.9728 19.8511 54.0765 20.4039 54.2147 20.8013C54.3702 21.2505 54.6121 21.596 54.8712 21.8551C55.1649 22.097 55.4759 22.3043 55.8214 22.4598C56.1669 22.5635 56.5643 22.6671 56.9271 22.6671C57.4281 22.6671 57.9291 22.5635 58.3783 22.4253C58.8275 22.2698 59.2248 21.9761 59.5358 21.6305C59.8813 21.285 60.1405 20.8358 60.2787 20.283C60.486 19.7302 60.5724 19.091 60.5724 18.3308V11.5758H63.0775L63.0602 24.5848Z" fill="#A38F8F"/>
<path d="M65.2021 11.5411H67.7072V13.3897H67.759C68.2601 12.6814 68.9166 12.1458 69.7113 11.7485C70.5578 11.3511 71.4043 11.1438 72.3027 11.1438C73.3047 11.1438 74.2549 11.3511 75.0497 11.6448C75.8444 11.9903 76.5527 12.4913 77.1574 13.096C77.762 13.7525 78.1594 14.4435 78.5049 15.2901C78.7986 16.1366 78.9541 17.035 78.9541 17.9852C78.9541 18.9354 78.7986 19.8855 78.5049 20.6802C78.2112 21.5268 77.762 22.2351 77.1574 22.8743C76.5527 23.479 75.8616 23.98 75.0497 24.3255C74.2549 24.671 73.3047 24.8265 72.3027 24.8265C71.3525 24.8265 70.506 24.6192 69.6594 24.2219C68.8129 23.8245 68.2082 23.2717 67.759 22.6152H67.7072V30.1649H65.2021V11.5411ZM72.009 13.5452C71.3525 13.5452 70.7651 13.6488 70.2123 13.8907C69.6594 14.1326 69.2103 14.4435 68.8647 14.8409C68.5192 15.2383 68.2082 15.6874 68.0182 16.2921C67.8109 16.8449 67.7245 17.4496 67.7245 18.1407C67.7245 18.7971 67.8282 19.3845 68.0182 19.9892C68.2255 20.542 68.5192 21.0431 68.8647 21.4404C69.2103 21.8378 69.6594 22.1487 70.2123 22.3906C70.7651 22.6325 71.3698 22.7361 72.009 22.7361C72.6655 22.7361 73.2529 22.6325 73.8058 22.3906C74.3586 22.1487 74.8078 21.8378 75.1533 21.4404C75.4988 21.0431 75.8098 20.5939 75.9999 19.9892C76.2072 19.4364 76.2935 18.8317 76.2935 18.1407C76.2935 17.4842 76.1899 16.8968 75.9999 16.2921C75.7925 15.7393 75.4988 15.2383 75.1533 14.8409C74.8078 14.4435 74.3586 14.1326 73.8058 13.8907C73.2529 13.6316 72.6482 13.5452 72.009 13.5452Z" fill="#A38F8F"/>
<path d="M82.3569 18.9875C82.3569 19.5403 82.4606 20.0931 82.7024 20.5423C82.9443 20.9915 83.2553 21.3889 83.7045 21.7344C84.1018 22.0799 84.551 22.3391 85.1038 22.4773C85.6567 22.6846 86.2095 22.771 86.7451 22.771C87.488 22.771 88.1963 22.5636 88.7492 22.2181C89.302 21.8726 89.8548 21.3716 90.304 20.8187L92.1526 22.2699C90.7532 24.0667 88.8528 24.9132 86.3477 24.9132C85.2939 24.9132 84.3955 24.7577 83.549 24.4122C82.7024 24.0667 81.9941 23.5657 81.4413 22.961C80.8366 22.3563 80.4392 21.6134 80.0937 20.7669C79.8 19.9204 79.6445 19.022 79.6445 18.0718C79.6445 17.1216 79.8 16.1715 80.1455 15.3768C80.4911 14.5302 80.9403 13.8219 81.5449 13.1827C82.1496 12.578 82.8407 12.077 83.6872 11.7315C84.5337 11.386 85.4321 11.2305 86.3823 11.2305C87.5398 11.2305 88.5246 11.4378 89.3365 11.8351C90.1313 12.2325 90.7878 12.7853 91.2888 13.4418C91.7898 14.0983 92.1871 14.8412 92.3945 15.6359C92.6363 16.4306 92.74 17.2771 92.74 18.1409V18.9875H82.3569ZM90.1485 16.9834C90.1485 16.4306 90.0449 15.9296 89.9067 15.4804C89.7512 15.0312 89.5093 14.6339 89.1983 14.2883C88.9046 13.9428 88.49 13.6837 88.0408 13.4936C87.5916 13.3036 87.0388 13.2 86.3996 13.2C85.7949 13.2 85.2421 13.3036 84.7583 13.5455C84.2573 13.7873 83.8081 14.0983 83.4626 14.4438C83.1171 14.7894 82.8579 15.2385 82.6679 15.6877C82.4606 16.1369 82.3742 16.5861 82.3742 17.0353H90.1658V16.9834H90.1485Z" fill="#A38F8F"/>
<path d="M96.0405 18.9875C96.0405 19.5403 96.1442 20.0931 96.386 20.5423C96.6279 20.9915 96.9389 21.3889 97.3881 21.7344C97.7854 22.0799 98.2346 22.3391 98.7874 22.4773C99.3403 22.6846 99.8931 22.771 100.429 22.771C101.172 22.771 101.88 22.5636 102.433 22.2181C102.986 21.8726 103.538 21.3716 103.988 20.8187L105.836 22.2699C104.437 24.0667 102.536 24.9132 100.031 24.9132C98.9775 24.9132 98.0791 24.7577 97.2326 24.4122C96.386 24.0667 95.6777 23.5657 95.1249 22.961C94.5202 22.3563 94.1228 21.6134 93.7773 20.7669C93.4836 19.9204 93.3281 19.022 93.3281 18.0718C93.3281 17.1216 93.4836 16.1715 93.8291 15.3768C94.1747 14.5302 94.6238 13.8219 95.2285 13.1827C95.8332 12.578 96.5242 12.077 97.3708 11.7315C98.2173 11.386 99.1157 11.2305 100.066 11.2305C101.223 11.2305 102.208 11.4378 103.02 11.8351C103.815 12.2325 104.471 12.7853 104.972 13.4418C105.473 14.0983 105.871 14.8412 106.078 15.6359C106.32 16.4306 106.424 17.2771 106.424 18.1409V18.9875H96.0405ZM103.901 16.9834C103.901 16.4306 103.798 15.9296 103.659 15.4804C103.504 15.0312 103.262 14.6339 102.951 14.2883C102.657 13.9428 102.243 13.6837 101.794 13.4936C101.344 13.3036 100.791 13.2 100.152 13.2C99.5476 13.2 98.9948 13.3036 98.511 13.5455C98.01 13.7873 97.5608 14.0983 97.2153 14.4438C96.8698 14.7894 96.6106 15.2385 96.4206 15.6877C96.2133 16.1369 96.1269 16.5861 96.1269 17.0353H103.919V16.9834H103.901Z" fill="#A38F8F"/>
<path d="M107.891 7.44751H110.396V17.1913L115.993 11.542H119.448L113.402 17.485L120.001 24.5855H116.46L110.413 17.7787V24.5855H107.891V7.44751Z" fill="#A38F8F"/>
</svg>
