<svg width="160" height="48" viewBox="0 0 160 48" fill="none" xmlns="http://www.w3.org/2000/svg">
<path d="M32.9881 8C24.1883 8 17 15.1181 17 23.9524C17 32.7868 24.1702 39.9049 32.9881 39.9049C41.8423 39.9049 48.9763 32.7868 48.9763 23.9524C48.9763 15.1181 41.8423 8 32.9881 8ZM37.8045 18.1351C37.9675 18.6048 38.0218 19.1288 38.0218 19.6527C38.0218 20.7005 37.7683 21.6942 37.2432 22.5794L36.9897 22.8865L38.0399 24.7112V27.8005L34.835 24.6028H32.4812L37.9856 31.3415V34.6837L24.8764 21.5316H33.0063C34.0564 21.5316 34.8893 20.7005 34.8893 19.6527C34.8893 18.6048 34.0564 17.7738 33.0063 17.7738H28.0269L24.9307 14.6845H38.1304L41.2267 17.7738H37.714L37.8045 18.1351Z" fill="url(#paint0_linear_748_3500)"/>
<path d="M55.6216 12.5498H62.7918C64.0955 12.5498 65.2 12.7124 66.0329 13.0737C66.8658 13.435 67.5539 13.8506 68.0247 14.4287C68.4954 14.9526 68.8576 15.5849 69.0748 16.2534C69.2921 16.9399 69.3827 17.6083 69.3827 18.2407C69.3827 18.9272 69.274 19.5414 69.0205 20.1195C68.8032 20.7518 68.4411 21.2758 68.0247 21.7455C67.6082 22.2152 67.0831 22.6307 66.4494 22.9921C65.8156 23.2992 65.1457 23.516 64.349 23.6244L70.1612 32.9284H66.7029L61.4701 23.9315H58.3738V32.9284H55.6035V12.5498H55.6216ZM58.41 21.5287H62.0314C62.5565 21.5287 63.0816 21.4745 63.661 21.4203C64.1861 21.3119 64.6568 21.1674 65.0733 20.9506C65.4897 20.7338 65.8156 20.3725 66.0691 19.9569C66.3226 19.5414 66.4313 18.9633 66.4313 18.2768C66.4313 17.5903 66.3226 17.0302 66.0691 16.5966C65.8156 16.1811 65.4897 15.8198 65.0733 15.603C64.6568 15.3862 64.1861 15.2417 63.661 15.1333C63.1359 15.0249 62.6108 15.0249 62.0314 15.0249H58.41V21.5287Z" fill="url(#paint1_linear_748_3500)"/>
<path d="M83.09 32.9281H80.4645V30.8324H80.4102C80.1024 31.5731 79.523 32.1331 78.6901 32.6029C77.9115 33.0726 76.9699 33.2894 75.9198 33.2894C75.2317 33.2894 74.6161 33.181 74.0367 32.9823C73.4573 32.7835 72.9322 32.4583 72.4614 32.0428C71.9906 31.6273 71.6285 31.1034 71.3569 30.4169C71.1034 29.7303 70.9404 28.9535 70.9404 28.0682V19.2881H73.5659V27.3456C73.5659 27.9779 73.6745 28.556 73.8194 28.9716C73.9823 29.4413 74.2358 29.8026 74.5074 30.0736C74.8152 30.3265 75.1412 30.5433 75.5033 30.7059C75.8654 30.8143 76.2819 30.9227 76.6621 30.9227C77.1872 30.9227 77.7123 30.8143 78.1831 30.6698C78.6539 30.5072 79.0703 30.2001 79.3962 29.8387C79.7584 29.4774 80.03 29.0077 80.1748 28.4296C80.3921 27.8515 80.4826 27.183 80.4826 26.3881V19.3242H83.1081L83.09 32.9281Z" fill="url(#paint2_linear_748_3500)"/>
<path d="M85.335 19.2881H87.9604V21.2212H88.0147C88.5398 20.4804 89.2279 19.9204 90.0608 19.5049C90.948 19.0894 91.8352 18.8726 92.7768 18.8726C93.827 18.8726 94.8228 19.0894 95.6557 19.3965C96.4886 19.7578 97.231 20.2817 97.8647 20.914C98.4985 21.6005 98.9149 22.3232 99.2771 23.2084C99.5849 24.0937 99.7478 25.0331 99.7478 26.0268C99.7478 27.0204 99.5849 28.014 99.2771 28.8451C98.9693 29.7303 98.4985 30.471 97.8647 31.1395C97.231 31.7718 96.5067 32.2957 95.6557 32.6571C94.8228 33.0184 93.827 33.181 92.7768 33.181C91.7809 33.181 90.8937 32.9642 90.0065 32.5487C89.1192 32.1331 88.4855 31.555 88.0147 30.8685H87.9604V38.7634H85.335V19.2881ZM92.469 21.3838C91.7809 21.3838 91.1653 21.4922 90.5859 21.7451C90.0065 21.998 89.5357 22.3232 89.1736 22.7387C88.8114 23.1542 88.4855 23.624 88.2863 24.2563C88.0691 24.8344 87.9785 25.4667 87.9785 26.1894C87.9785 26.8759 88.0872 27.4901 88.2863 28.1224C88.5036 28.7006 88.8114 29.2245 89.1736 29.64C89.5357 30.0555 90.0065 30.3807 90.5859 30.6336C91.1653 30.8866 91.799 30.995 92.469 30.995C93.157 30.995 93.7727 30.8866 94.3521 30.6336C94.9315 30.3807 95.4022 30.0555 95.7644 29.64C96.1265 29.2245 96.4524 28.7548 96.6516 28.1224C96.8689 27.5443 96.9594 26.912 96.9594 26.1894C96.9594 25.5028 96.8508 24.8886 96.6516 24.2563C96.4343 23.6782 96.1265 23.1542 95.7644 22.7387C95.4022 22.3232 94.9315 21.998 94.3521 21.7451C93.7727 21.4741 93.1389 21.3838 92.469 21.3838Z" fill="url(#paint3_linear_748_3500)"/>
<path d="M103.314 27.0751C103.314 27.6532 103.423 28.2313 103.677 28.701C103.93 29.1708 104.256 29.5863 104.727 29.9476C105.143 30.3089 105.614 30.5799 106.193 30.7245C106.773 30.9413 107.352 31.0316 107.913 31.0316C108.692 31.0316 109.434 30.8148 110.014 30.4535C110.593 30.0921 111.173 29.5682 111.643 28.9901L113.581 30.5077C112.114 32.3865 110.123 33.2718 107.497 33.2718C106.393 33.2718 105.451 33.1092 104.564 32.7479C103.677 32.3865 102.934 31.8626 102.355 31.2303C101.721 30.598 101.305 29.8211 100.942 28.9359C100.635 28.0507 100.472 27.1112 100.472 26.1176C100.472 25.1239 100.635 24.1303 100.997 23.2993C101.359 22.414 101.83 21.6733 102.463 21.0049C103.097 20.3725 103.821 19.8486 104.709 19.4873C105.596 19.126 106.537 18.9634 107.533 18.9634C108.746 18.9634 109.778 19.1802 110.629 19.5957C111.462 20.0112 112.15 20.5893 112.676 21.2758C113.201 21.9624 113.617 22.7392 113.834 23.5703C114.088 24.4013 114.196 25.2865 114.196 26.1899V27.0751H103.314ZM111.481 24.9794C111.481 24.4013 111.372 23.8774 111.227 23.4077C111.064 22.9379 110.811 22.5224 110.485 22.1611C110.177 21.7998 109.742 21.5288 109.271 21.33C108.801 21.1313 108.221 21.0229 107.551 21.0229C106.918 21.0229 106.338 21.1313 105.831 21.3842C105.306 21.6372 104.835 21.9624 104.473 22.3237C104.111 22.685 103.84 23.1547 103.64 23.6245C103.423 24.0942 103.333 24.5639 103.333 25.0336H111.499V24.9794H111.481Z" fill="url(#paint4_linear_748_3500)"/>
<path d="M117.655 27.0751C117.655 27.6532 117.764 28.2313 118.017 28.701C118.271 29.1708 118.597 29.5863 119.068 29.9476C119.484 30.3089 119.955 30.5799 120.534 30.7245C121.114 30.9413 121.693 31.0316 122.254 31.0316C123.033 31.0316 123.775 30.8148 124.355 30.4535C124.934 30.0921 125.514 29.5682 125.984 28.9901L127.922 30.5077C126.455 32.3865 124.463 33.2718 121.838 33.2718C120.733 33.2718 119.792 33.1092 118.905 32.7479C118.017 32.3865 117.275 31.8626 116.696 31.2303C116.062 30.598 115.645 29.8211 115.283 28.9359C114.975 28.0507 114.812 27.1112 114.812 26.1176C114.812 25.1239 114.975 24.1303 115.338 23.2993C115.7 22.414 116.17 21.6733 116.804 21.0049C117.438 20.3725 118.162 19.8486 119.049 19.4873C119.937 19.126 120.878 18.9634 121.874 18.9634C123.087 18.9634 124.119 19.1802 124.97 19.5957C125.803 20.0112 126.491 20.5893 127.016 21.2758C127.541 21.9624 127.958 22.7392 128.175 23.5703C128.429 24.4013 128.537 25.2865 128.537 26.1899V27.0751H117.655ZM125.894 24.9794C125.894 24.4013 125.785 23.8774 125.64 23.4077C125.477 22.9379 125.224 22.5224 124.898 22.1611C124.59 21.7998 124.156 21.5288 123.685 21.33C123.214 21.1313 122.635 21.0229 121.965 21.0229C121.331 21.0229 120.751 21.1313 120.244 21.3842C119.719 21.6372 119.249 21.9624 118.886 22.3237C118.524 22.685 118.253 23.1547 118.054 23.6245C117.836 24.0942 117.746 24.5639 117.746 25.0336H125.912V24.9794H125.894Z" fill="url(#paint5_linear_748_3500)"/>
<path d="M130.075 15.0063H132.701V25.1957L138.567 19.288H142.189L135.851 25.5028L142.768 32.928H139.056L132.719 25.8099V32.928H130.075V15.0063Z" fill="url(#paint6_linear_748_3500)"/>
<defs>
<linearGradient id="paint0_linear_748_3500" x1="16.503" y1="23.9412" x2="141.042" y2="23.9412" gradientUnits="userSpaceOnUse">
<stop stop-color="#EA5518"/>
<stop offset="0.2752" stop-color="#E63918"/>
<stop offset="0.637" stop-color="#B01280"/>
<stop offset="1" stop-color="#1E65AF"/>
</linearGradient>
<linearGradient id="paint1_linear_748_3500" x1="16.5032" y1="22.7359" x2="141.042" y2="22.7359" gradientUnits="userSpaceOnUse">
<stop stop-color="#EA5518"/>
<stop offset="0.2752" stop-color="#E63918"/>
<stop offset="0.637" stop-color="#B01280"/>
<stop offset="1" stop-color="#1E65AF"/>
</linearGradient>
<linearGradient id="paint2_linear_748_3500" x1="16.5038" y1="26.2905" x2="141.043" y2="26.2905" gradientUnits="userSpaceOnUse">
<stop stop-color="#EA5518"/>
<stop offset="0.2752" stop-color="#E63918"/>
<stop offset="0.637" stop-color="#B01280"/>
<stop offset="1" stop-color="#1E65AF"/>
</linearGradient>
<linearGradient id="paint3_linear_748_3500" x1="16.5035" y1="28.826" x2="141.043" y2="28.826" gradientUnits="userSpaceOnUse">
<stop stop-color="#EA5518"/>
<stop offset="0.2752" stop-color="#E63918"/>
<stop offset="0.637" stop-color="#B01280"/>
<stop offset="1" stop-color="#1E65AF"/>
</linearGradient>
<linearGradient id="paint4_linear_748_3500" x1="16.5031" y1="26.1341" x2="141.042" y2="26.1341" gradientUnits="userSpaceOnUse">
<stop stop-color="#EA5518"/>
<stop offset="0.2752" stop-color="#E63918"/>
<stop offset="0.637" stop-color="#B01280"/>
<stop offset="1" stop-color="#1E65AF"/>
</linearGradient>
<linearGradient id="paint5_linear_748_3500" x1="16.5035" y1="26.1341" x2="141.043" y2="26.1341" gradientUnits="userSpaceOnUse">
<stop stop-color="#EA5518"/>
<stop offset="0.2752" stop-color="#E63918"/>
<stop offset="0.637" stop-color="#B01280"/>
<stop offset="1" stop-color="#1E65AF"/>
</linearGradient>
<linearGradient id="paint6_linear_748_3500" x1="16.5023" y1="23.964" x2="141.041" y2="23.964" gradientUnits="userSpaceOnUse">
<stop stop-color="#EA5518"/>
<stop offset="0.2752" stop-color="#E63918"/>
<stop offset="0.637" stop-color="#B01280"/>
<stop offset="1" stop-color="#1E65AF"/>
</linearGradient>
</defs>
</svg>
