<svg width="68" height="56" viewBox="0 0 68 56" fill="none" xmlns="http://www.w3.org/2000/svg">
<path fill-rule="evenodd" clip-rule="evenodd" d="M33.3639 10.9249C33.4287 10.8318 33.4047 10.7037 33.3105 10.6405L33.1347 10.5309C31.0585 9.28417 28.1109 9.14758 25.6031 10.2311L25.4164 10.3143C22.6993 11.5627 20.8693 14.0658 20.4541 17.5189L20.4311 17.7213L20.3258 17.7368C16.4537 18.3278 14.1844 21.1152 14.1812 24.6207C14.1779 28.1409 16.4949 31.1631 19.9218 31.5068L19.986 31.5099L20.9617 31.5066L24.1617 31.5042L27.6468 31.5106L35.5371 22.8934C35.7434 22.9729 35.9675 23.0165 36.2019 23.0165C37.2233 23.0165 38.0519 22.1878 38.0519 21.1665C38.0519 20.1446 37.2234 19.3165 36.2019 19.3165C35.1799 19.3165 34.3519 20.1445 34.3519 21.1665C34.3519 21.5033 34.4419 21.8192 34.5993 22.0912L27.1046 30.2754L22.4008 30.2709L20.0173 30.276L19.8873 30.2613C17.2238 29.9092 15.4118 27.4905 15.4145 24.6218C15.4173 21.5568 17.458 19.2076 21.0587 18.8905L21.5875 18.8439L21.6201 18.314L21.6368 18.0809C21.9083 14.7628 23.5696 12.4532 26.0922 11.3633C28.3639 10.3818 31.0549 10.5686 32.7771 11.7677L33.3639 10.9249ZM35.0671 11.8908C34.8704 11.6981 34.5542 11.7026 34.3631 11.901L24.0641 22.5871C23.8191 22.4673 23.5436 22.4001 23.2524 22.4001C22.2304 22.4001 21.4024 23.2281 21.4024 24.2501C21.4024 25.2716 22.2306 26.1001 23.2524 26.1001C24.2742 26.1001 25.1024 25.2716 25.1024 24.2501C25.1024 23.9701 25.0403 23.7047 24.9291 23.4669L34.7096 13.3182L34.793 13.4216C35.2479 14.001 35.6884 14.7508 36.1108 15.6714L36.3202 16.1278L37.2169 15.9223L37.5027 15.8609C39.4185 15.4658 40.8372 15.527 42.2917 16.3286C43.2114 16.8356 44.0643 17.6336 44.845 18.7743L45.8628 18.0777L45.6954 17.8392C44.8518 16.6677 43.9131 15.8141 42.887 15.2485L42.6909 15.1439C40.9936 14.2697 39.3491 14.22 37.2493 14.6539L37.0154 14.7033L36.8446 14.3665C36.3194 13.364 35.7577 12.5673 35.1541 11.9761L35.0671 11.8908ZM23.8683 24.2503C23.8683 23.9094 23.5924 23.6336 23.2516 23.6336C22.9107 23.6336 22.6349 23.9094 22.6349 24.2503C22.6349 24.5907 22.911 24.8669 23.2516 24.8669C23.5922 24.8669 23.8683 24.5907 23.8683 24.2503ZM36.2011 20.55C36.5416 20.55 36.8178 20.8261 36.8178 21.1667C36.8178 21.5069 36.5413 21.7833 36.2011 21.7833C35.8605 21.7833 35.5844 21.5072 35.5844 21.1667C35.5844 20.8258 35.8603 20.55 36.2011 20.55Z" fill="#8168D4"/>
<path fill-rule="evenodd" clip-rule="evenodd" d="M42.2312 25.3925C42.3214 25.6104 42.3712 25.8492 42.3712 26.0997C42.3712 27.121 41.5426 27.9497 40.5212 27.9497C39.4993 27.9497 38.6712 27.1212 38.6712 26.0997C38.6712 25.0777 39.4992 24.2497 40.5212 24.2497C40.8413 24.2497 41.1426 24.331 41.4052 24.4742L46.0004 19.8613C46.3127 19.5478 46.848 19.7692 46.8476 20.2117L46.8466 21.233L46.943 21.1928C49.1583 20.3032 51.5957 21.4092 52.8558 23.6871L52.933 23.831C54.4149 26.6791 53.383 29.8209 49.8355 31.3815C49.6388 31.4646 49.4278 31.5086 49.2143 31.5111L48.0372 31.5253L45.1447 31.5426L43.0564 31.5469L37.2937 31.5401L30.1785 31.5099C30.0688 31.5094 29.9804 31.4201 29.981 31.3105L29.9855 30.4738C29.9861 30.3644 30.0752 30.2761 30.1846 30.2765L38.2201 30.3092L42.4381 30.314L46.4335 30.3036L48.5263 30.287L49.2051 30.2786C49.2537 30.278 49.3018 30.268 49.3467 30.2492C52.1695 29.0051 52.9642 26.7147 51.9047 24.5311L51.8389 24.4002C50.7473 22.3022 48.5189 21.4614 46.7152 22.7116L46.6007 22.7942L46.4078 22.939C46.0811 23.1842 45.6147 22.9513 45.6143 22.5428L45.6139 21.9964L42.2312 25.3925ZM40.5214 25.4822C40.8619 25.4822 41.138 25.7583 41.138 26.0989C41.138 26.4391 40.8616 26.7155 40.5214 26.7155C40.1808 26.7155 39.9047 26.4394 39.9047 26.0989C39.9047 25.758 40.1805 25.4822 40.5214 25.4822Z" fill="#8168D4"/>
<path fill-rule="evenodd" clip-rule="evenodd" d="M20.3868 36.879V44.3185H20.3572L15.1785 39.2969L15.2068 44.0619H14.0426V36.6323H14.1018L19.2614 41.7174L19.2423 36.879H20.3868ZM3.64184 44.1414C4.14833 44.1414 4.57918 44.0493 4.93438 43.8651C5.28958 43.6809 5.56091 43.4326 5.74838 43.1202C5.93584 42.8077 6.02958 42.4641 6.02958 42.0891C6.02958 41.7471 5.98024 41.4593 5.88158 41.2258C5.78291 40.9923 5.64806 40.7966 5.47704 40.6387C5.30602 40.4809 5.11362 40.3477 4.89984 40.2391C4.68606 40.1306 4.47064 40.0369 4.25358 39.9579C4.00362 39.8593 3.76518 39.7557 3.53824 39.6471C3.31131 39.5386 3.12713 39.4103 2.98571 39.2623C2.84429 39.1143 2.77358 38.9417 2.77358 38.7443C2.77358 38.4681 2.87718 38.251 3.08438 38.0931C3.29158 37.9353 3.57278 37.8563 3.92798 37.8563C4.19109 37.8563 4.46735 37.904 4.75678 37.9994C5.0462 38.0948 5.31918 38.2082 5.57571 38.3398L6.00984 37.4617C5.73358 37.2906 5.4162 37.1443 5.05771 37.0226C4.69922 36.9009 4.26673 36.8401 3.76024 36.8401C3.33269 36.8532 2.95611 36.9453 2.63051 37.1163C2.30491 37.2873 2.05002 37.5176 1.86584 37.807C1.68166 38.0964 1.58958 38.4385 1.58958 38.8331C1.58958 39.162 1.65206 39.4383 1.77704 39.6619C1.90202 39.8856 2.06482 40.0747 2.26544 40.2293C2.46606 40.3838 2.68149 40.5137 2.91171 40.619C3.14193 40.7242 3.36886 40.8196 3.59251 40.9051C3.81615 40.9906 4.02335 41.0877 4.21411 41.1962C4.40486 41.3047 4.5578 41.4313 4.67291 41.5761C4.78802 41.7208 4.84558 41.8951 4.84558 42.099C4.84558 42.3489 4.77815 42.5496 4.64331 42.7009C4.50846 42.8521 4.34073 42.9623 4.14011 43.0314C3.93949 43.1005 3.73722 43.135 3.53331 43.135C3.34255 43.135 3.13864 43.1054 2.92158 43.0462C2.70451 42.987 2.49402 42.9081 2.29011 42.8094C2.0862 42.7107 1.90531 42.6022 1.74744 42.4838L1.23438 43.3817C1.45144 43.5264 1.68824 43.6563 1.94478 43.7714C2.20131 43.8865 2.47264 43.9769 2.75878 44.0427C3.04491 44.1085 3.33926 44.1414 3.64184 44.1414ZM12.4523 44.0621V42.9571H8.70298V41.0035H11.9195V39.8984H8.70298V37.9843H12.3142V36.8792H7.54858V44.0621H12.4523ZM24.2046 44.1414C24.7111 44.1414 25.142 44.0493 25.4972 43.8652C25.8524 43.681 26.1237 43.4327 26.3112 43.1202C26.4986 42.8078 26.5924 42.4641 26.5924 42.0892C26.5924 41.7471 26.543 41.4593 26.4444 41.2258C26.3457 40.9923 26.2108 40.7966 26.0398 40.6388C25.8688 40.4809 25.6764 40.3477 25.4626 40.2392C25.2488 40.1306 25.0334 40.0369 24.8164 39.958C24.5664 39.8593 24.328 39.7557 24.101 39.6472C23.8741 39.5386 23.6899 39.4104 23.5485 39.2624C23.4071 39.1144 23.3364 38.9417 23.3364 38.7444C23.3364 38.4681 23.44 38.251 23.6472 38.0932C23.8544 37.9353 24.1356 37.8564 24.4908 37.8564C24.7539 37.8564 25.0301 37.904 25.3196 37.9994C25.609 38.0948 25.882 38.2083 26.1385 38.3398L26.5726 37.4617C26.2964 37.2907 25.979 37.1443 25.6205 37.0226C25.262 36.9009 24.8295 36.8401 24.323 36.8401C23.8955 36.8532 23.5189 36.9453 23.1933 37.1164C22.8677 37.2874 22.6128 37.5176 22.4286 37.807C22.2444 38.0964 22.1524 38.4385 22.1524 38.8332C22.1524 39.162 22.2148 39.4383 22.3398 39.662C22.4648 39.8856 22.6276 40.0747 22.8282 40.2293C23.0288 40.3839 23.2443 40.5138 23.4745 40.619C23.7047 40.7243 23.9316 40.8196 24.1553 40.9052C24.3789 40.9907 24.5861 41.0877 24.7769 41.1962C24.9676 41.3048 25.1206 41.4314 25.2357 41.5761C25.3508 41.7208 25.4084 41.8951 25.4084 42.099C25.4084 42.349 25.3409 42.5496 25.2061 42.7009C25.0712 42.8522 24.9035 42.9624 24.7029 43.0314C24.5023 43.1005 24.3 43.135 24.0961 43.135C23.9053 43.135 23.7014 43.1054 23.4844 43.0462C23.2673 42.987 23.0568 42.9081 22.8529 42.8094C22.649 42.7108 22.4681 42.6022 22.3102 42.4838L21.7972 43.3817C22.0142 43.5264 22.251 43.6563 22.5076 43.7714C22.7641 43.8865 23.0354 43.977 23.3216 44.0428C23.6077 44.1085 23.902 44.1414 24.2046 44.1414ZM31.1496 41.7337V44.0622H30.0051V41.7337L27.3509 36.8793H28.7619L30.615 40.4233L32.4323 36.8793H33.8432L31.1496 41.7337ZM36.2123 44.0622V41.566H37.2483L37.3642 41.5641L38.9848 44.0622H40.3168L38.5698 41.2823L38.6782 41.2221C38.8387 41.1274 38.9794 41.0186 39.1002 40.8959L39.1871 40.8013C39.3811 40.5744 39.5209 40.3195 39.6064 40.0366C39.6919 39.7538 39.7347 39.4709 39.7347 39.1881C39.7347 38.8197 39.6706 38.4925 39.5423 38.2064C39.414 37.9202 39.2348 37.6785 39.0046 37.4812C38.7743 37.2838 38.4948 37.1342 38.1659 37.0322C37.837 36.9303 37.4752 36.8793 37.0806 36.8793H35.0579V44.0622H36.2123ZM36.2117 40.4608H37.2378C37.4944 40.4608 37.7081 40.4196 37.8792 40.3374C38.0502 40.2552 38.1834 40.1516 38.2788 40.0266C38.3741 39.9016 38.4432 39.7684 38.486 39.627C38.5287 39.4856 38.5501 39.3524 38.5501 39.2274C38.5501 39.109 38.5304 38.9791 38.4909 38.8377C38.4514 38.6963 38.384 38.5614 38.2886 38.4332C38.1932 38.3049 38.0633 38.198 37.8989 38.1125C37.7344 38.027 37.5272 37.9842 37.2773 37.9842H36.2117V40.4608ZM44.1054 44.0622V37.9844H45.9604V36.8793H41.1553V37.9844H42.9609V44.0622H44.1054ZM52.3232 42.9572V44.0622H47.4194V36.8793H52.185V37.9844H48.5738V39.8985H51.7904V41.0036H48.5738V42.9572H52.3232ZM57.0804 44.1407C57.429 44.1472 57.7464 44.1127 58.0325 44.0371C58.3187 43.9614 58.5653 43.871 58.7725 43.7657C58.9797 43.6605 59.136 43.5717 59.2412 43.4993L58.7577 42.4732C58.5867 42.6179 58.3614 42.7478 58.0819 42.8629C57.8023 42.978 57.4784 43.0356 57.11 43.0356C56.7351 43.0356 56.398 42.9715 56.0987 42.8432C55.7994 42.7149 55.5429 42.5373 55.3291 42.3104C55.1153 42.0835 54.9509 41.8121 54.8357 41.4964C54.7206 41.1807 54.6631 40.8353 54.6631 40.4604C54.6631 40.0986 54.7272 39.7631 54.8555 39.454C54.9837 39.1448 55.1564 38.8735 55.3735 38.64C55.5905 38.4065 55.8438 38.2256 56.1332 38.0973C56.4226 37.969 56.7252 37.9049 57.0409 37.9049C57.3896 37.9049 57.702 37.9674 57.9783 38.0924C58.2545 38.2174 58.4848 38.3423 58.6689 38.4673L59.1228 37.3918C58.8794 37.2406 58.5785 37.1041 58.22 36.9824C57.8615 36.8607 57.4553 36.7998 57.0015 36.7998C56.4884 36.7998 56.0148 36.8919 55.5807 37.0761C55.1465 37.2603 54.7716 37.5185 54.4559 37.8506C54.1401 38.1828 53.8968 38.5758 53.7257 39.0297C53.5547 39.4836 53.4692 39.9835 53.4692 40.5295C53.4692 41.0162 53.5531 41.475 53.7208 41.9059C53.8885 42.3367 54.127 42.7182 54.4361 43.0504C54.7453 43.3826 55.1235 43.6457 55.5708 43.8397C56.0181 44.0338 56.5213 44.1341 57.0804 44.1407ZM61.9233 41.0036V44.0622H60.7689V36.8793H61.9233V39.9084H65.4555V36.8793H66.6001V44.0622H65.4555V41.0036H61.9233Z" fill="#8168D4"/>
</svg>
