<svg width="97" height="54" viewBox="0 0 97 54" fill="none" xmlns="http://www.w3.org/2000/svg">
<path fill-rule="evenodd" clip-rule="evenodd" d="M47.4792 2.83463C47.5709 2.70292 47.5368 2.52163 47.4035 2.43219L47.1547 2.27711C44.2164 0.512631 40.0448 0.319318 36.4957 1.85275L36.2316 1.97046C32.3862 3.73732 29.7964 7.27971 29.2087 12.1667L29.1761 12.4531L29.0272 12.475C23.5472 13.3115 20.3357 17.2563 20.3311 22.2173C20.3264 27.1992 23.6055 31.4764 28.4555 31.9628L28.5462 31.9672L29.9271 31.9625L34.4559 31.9591L39.3881 31.9682L50.5546 19.7729C50.8466 19.8854 51.1639 19.947 51.4955 19.947C52.941 19.947 54.1137 18.7743 54.1137 17.3288C54.1137 15.8827 52.9413 14.7107 51.4955 14.7107C50.0492 14.7107 48.8774 15.8825 48.8774 17.3288C48.8774 17.8056 49.0048 18.2525 49.2275 18.6376L38.6208 30.2201L31.9638 30.2137L28.5905 30.2209L28.4065 30.2001C24.6371 29.7018 22.0727 26.2788 22.0765 22.219C22.0806 17.8813 24.9686 14.5566 30.0644 14.1078L30.8128 14.0419L30.8589 13.2919L30.8825 12.962C31.2667 8.26621 33.6179 4.99751 37.188 3.45504C40.4029 2.06602 44.2113 2.33033 46.6487 4.02738L47.4792 2.83463ZM49.7413 4.05641C49.5445 3.86367 49.2284 3.86822 49.0372 4.06654L34.3178 19.3394C33.971 19.1698 33.5811 19.0747 33.169 19.0747C31.7226 19.0747 30.5508 20.2465 30.5508 21.6928C30.5508 23.1386 31.7228 24.311 33.169 24.311C34.6151 24.311 35.7872 23.1386 35.7872 21.6928C35.7872 21.2967 35.6992 20.9211 35.5418 20.5846L49.3837 6.22174L49.5016 6.36806C50.1454 7.18804 50.7688 8.24919 51.3666 9.55201L51.663 10.1979L52.9319 9.90719L53.3364 9.82029C56.0478 9.26114 58.0556 9.34762 60.114 10.4822C61.4157 11.1996 62.6227 12.3291 63.7276 13.9434L65.168 12.9575L64.931 12.6199C63.7371 10.9621 62.4087 9.75393 60.9566 8.95354L60.679 8.80557C58.2769 7.56827 55.9496 7.49794 52.9778 8.11204L52.6468 8.18189L52.4052 7.70537C51.6619 6.28656 50.8669 5.15904 50.0127 4.32228L49.7413 4.05641ZM34.0406 21.6931C34.0406 21.2108 33.6502 20.8204 33.1678 20.8204C32.6855 20.8204 32.2951 21.2108 32.2951 21.6931C32.2951 22.175 32.6858 22.5659 33.1678 22.5659C33.6498 22.5659 34.0406 22.175 34.0406 21.6931ZM51.4944 16.4564C51.9763 16.4564 52.3671 16.8471 52.3671 17.3291C52.3671 17.8106 51.9759 18.2019 51.4944 18.2019C51.0124 18.2019 50.6217 17.811 50.6217 17.3291C50.6217 16.8468 51.012 16.4564 51.4944 16.4564Z" fill="#A38F8F"/>
<path fill-rule="evenodd" clip-rule="evenodd" d="M60.0288 23.3098C60.1565 23.6181 60.2269 23.9561 60.2269 24.3105C60.2269 25.756 59.0542 26.9287 57.6087 26.9287C56.1626 26.9287 54.9905 25.7563 54.9905 24.3105C54.9905 22.8642 56.1624 21.6923 57.6087 21.6923C58.0618 21.6923 58.4881 21.8075 58.8598 22.0101L65.7154 15.1281C66.0276 14.8146 66.563 15.0361 66.5625 15.4785L66.5606 17.423L66.6971 17.3662C69.8323 16.1072 73.2818 17.6724 75.0651 20.8962L75.1743 21.0998C77.2715 25.1305 75.8112 29.5769 70.7907 31.7856C70.5123 31.9031 70.2137 31.9654 69.9116 31.969L68.2456 31.9891L64.1521 32.0135L61.1966 32.0197L53.0411 32.0101L42.8889 31.9669C42.7793 31.9665 42.6908 31.8771 42.6914 31.7675L42.6987 30.4187C42.6993 30.3093 42.7884 30.221 42.8978 30.2214L54.3521 30.2681L60.3216 30.2748L65.976 30.26L68.9379 30.2366L69.8984 30.2246C69.9673 30.2238 70.0353 30.2097 70.0989 30.1831C74.0938 28.4224 75.2185 25.1809 73.719 22.0907L73.6259 21.9055C72.081 18.9362 68.9273 17.7463 66.3747 19.5156L66.2126 19.6326L65.6105 20.0844C65.2838 20.3296 64.8174 20.0967 64.817 19.6882L64.8161 18.5035L60.0288 23.3098ZM57.609 23.4367C58.0909 23.4367 58.4817 23.8274 58.4817 24.3094C58.4817 24.7909 58.0905 25.1821 57.609 25.1821C57.127 25.1821 56.7363 24.7913 56.7363 24.3094C56.7363 23.827 57.1266 23.4367 57.609 23.4367Z" fill="#A38F8F"/>
<path fill-rule="evenodd" clip-rule="evenodd" d="M29.113 39.5659V50.0945H29.0711L21.7419 42.9879L21.7821 49.7314H20.1344V39.2168H20.2182L27.5203 46.4133L27.4932 39.5659H29.113ZM5.41494 49.8439C6.13174 49.8439 6.74149 49.7136 7.24418 49.4529C7.74687 49.1922 8.13087 48.8408 8.39618 48.3986C8.66148 47.9565 8.79414 47.4701 8.79414 46.9394C8.79414 46.4554 8.72432 46.0481 8.58468 45.7176C8.44505 45.3872 8.25421 45.1102 8.01218 44.8868C7.77014 44.6634 7.49785 44.4749 7.1953 44.3213C6.89276 44.1677 6.58788 44.035 6.28068 43.9233C5.92694 43.7837 5.58948 43.637 5.26832 43.4834C4.94716 43.3298 4.6865 43.1483 4.48636 42.9389C4.28621 42.7294 4.18614 42.485 4.18614 42.2058C4.18614 41.8148 4.33276 41.5076 4.62599 41.2842C4.91923 41.0608 5.31719 40.949 5.81989 40.949C6.19225 40.949 6.58323 41.0165 6.99283 41.1515C7.40243 41.2865 7.78876 41.4471 8.15181 41.6333L8.76621 40.3905C8.37523 40.1485 7.92607 39.9413 7.41872 39.7691C6.91138 39.5969 6.2993 39.5108 5.5825 39.5108C4.97741 39.5294 4.44447 39.6597 3.98367 39.9018C3.52287 40.1438 3.16214 40.4696 2.90149 40.8792C2.64083 41.2888 2.5105 41.7729 2.5105 42.3314C2.5105 42.7969 2.59894 43.1879 2.77581 43.5044C2.95269 43.8209 3.18309 44.0885 3.46701 44.3073C3.75094 44.5261 4.05581 44.7099 4.38163 44.8589C4.70745 45.0078 5.02861 45.1428 5.34512 45.2638C5.66163 45.3848 5.95487 45.5221 6.22483 45.6757C6.49479 45.8293 6.71123 46.0085 6.87414 46.2133C7.03705 46.4181 7.1185 46.6648 7.1185 46.9534C7.1185 47.3072 7.02308 47.5911 6.83225 47.8052C6.64141 48.0193 6.40403 48.1752 6.1201 48.273C5.83618 48.3707 5.54992 48.4196 5.26134 48.4196C4.99138 48.4196 4.70279 48.3777 4.39559 48.2939C4.08839 48.2101 3.7905 48.0984 3.50192 47.9588C3.21334 47.8192 2.95734 47.6656 2.73392 47.498L2.00781 48.7687C2.31501 48.9735 2.65014 49.1573 3.01319 49.3202C3.37625 49.4832 3.76025 49.6112 4.16519 49.7042C4.57014 49.7973 4.98672 49.8439 5.41494 49.8439ZM17.8838 49.7317V48.1678H12.5776V45.403H17.1298V43.8391H12.5776V41.1301H17.6883V39.5662H10.9439V49.7317H17.8838ZM34.5161 49.8439C35.2329 49.8439 35.8426 49.7136 36.3453 49.4529C36.848 49.1923 37.232 48.8409 37.4973 48.3987C37.7626 47.9565 37.8953 47.4701 37.8953 46.9395C37.8953 46.4554 37.8255 46.0481 37.6858 45.7177C37.5462 45.3872 37.3553 45.1102 37.1133 44.8868C36.8713 44.6634 36.599 44.4749 36.2964 44.3213C35.9939 44.1677 35.689 44.035 35.3818 43.9233C35.0281 43.7837 34.6906 43.6371 34.3695 43.4835C34.0483 43.3299 33.7876 43.1484 33.5875 42.9389C33.3873 42.7294 33.2873 42.4851 33.2873 42.2058C33.2873 41.8148 33.4339 41.5076 33.7271 41.2842C34.0204 41.0608 34.4183 40.9491 34.921 40.9491C35.2934 40.9491 35.6844 41.0166 36.094 41.1516C36.5036 41.2865 36.8899 41.4471 37.2529 41.6333L37.8673 40.3905C37.4764 40.1485 37.0272 39.9414 36.5199 39.7692C36.0125 39.5969 35.4004 39.5108 34.6836 39.5108C34.0785 39.5294 33.5456 39.6598 33.0848 39.9018C32.624 40.1438 32.2633 40.4697 32.0026 40.8793C31.742 41.2889 31.6116 41.7729 31.6116 42.3315C31.6116 42.7969 31.7001 43.1879 31.8769 43.5044C32.0538 43.8209 32.2842 44.0886 32.5681 44.3073C32.8521 44.5261 33.1569 44.71 33.4828 44.8589C33.8086 45.0078 34.1297 45.1428 34.4463 45.2638C34.7628 45.3849 35.056 45.5222 35.326 45.6758C35.5959 45.8294 35.8124 46.0086 35.9753 46.2134C36.1382 46.4182 36.2196 46.6649 36.2196 46.9534C36.2196 47.3072 36.1242 47.5911 35.9334 47.8052C35.7425 48.0193 35.5052 48.1753 35.2212 48.273C34.9373 48.3708 34.6511 48.4196 34.3625 48.4196C34.0925 48.4196 33.8039 48.3777 33.4967 48.294C33.1895 48.2102 32.8916 48.0985 32.6031 47.9588C32.3145 47.8192 32.0585 47.6656 31.8351 47.498L31.1089 48.7687C31.4161 48.9735 31.7513 49.1574 32.1143 49.3203C32.4774 49.4832 32.8614 49.6112 33.2663 49.7043C33.6713 49.7974 34.0879 49.8439 34.5161 49.8439ZM44.3448 46.4364V49.7318H42.7251V46.4364L38.9688 39.5663H40.9656L43.5882 44.5819L46.1601 39.5663H48.1569L44.3448 46.4364ZM51.5097 49.7318V46.199H52.9759L53.14 46.1964L55.4335 49.7318H57.3186L54.8462 45.7976L54.9995 45.7125C55.2267 45.5783 55.4258 45.4244 55.5968 45.2508L55.7198 45.1169C55.9944 44.7957 56.1922 44.435 56.3132 44.0347C56.4342 43.6344 56.4948 43.2341 56.4948 42.8338C56.4948 42.3125 56.404 41.8494 56.2225 41.4444C56.0409 41.0395 55.7873 40.6974 55.4614 40.4181C55.1356 40.1388 54.74 39.9271 54.2745 39.7828C53.8091 39.6385 53.2971 39.5663 52.7385 39.5663H49.876V49.7318H51.5097ZM51.5089 44.6349H52.9611C53.3241 44.6349 53.6267 44.5767 53.8687 44.4604C54.1108 44.344 54.2993 44.1974 54.4342 44.0205C54.5692 43.8437 54.667 43.6551 54.7275 43.455C54.788 43.2549 54.8182 43.0663 54.8182 42.8895C54.8182 42.7219 54.7903 42.5381 54.7345 42.3379C54.6786 42.1378 54.5832 41.9469 54.4482 41.7654C54.3132 41.5839 54.1294 41.4326 53.8967 41.3116C53.6639 41.1906 53.3707 41.1301 53.0169 41.1301H51.5089V44.6349ZM62.6804 49.7318V41.1303H65.3055V39.5663H58.5053V41.1303H61.0606V49.7318H62.6804ZM74.3104 48.1679V49.7318H67.3704V39.5663H74.1149V41.1303H69.0042V43.8392H73.5563V45.4031H69.0042V48.1679H74.3104ZM81.043 49.8428C81.5364 49.8521 81.9855 49.8033 82.3905 49.6962C82.7954 49.5892 83.1445 49.4612 83.4378 49.3122C83.731 49.1633 83.9521 49.0376 84.101 48.9352L83.4168 47.483C83.1748 47.6878 82.8559 47.8716 82.4603 48.0345C82.0647 48.1974 81.6062 48.2789 81.0849 48.2789C80.5543 48.2789 80.0772 48.1881 79.6536 48.0066C79.23 47.8251 78.867 47.5737 78.5644 47.2526C78.2619 46.9314 78.0292 46.5474 77.8663 46.1006C77.7034 45.6537 77.6219 45.165 77.6219 44.6344C77.6219 44.1224 77.7127 43.6476 77.8942 43.2101C78.0757 42.7726 78.3201 42.3886 78.6273 42.0581C78.9345 41.7276 79.2929 41.4716 79.7025 41.2901C80.1121 41.1086 80.5403 41.0178 80.9871 41.0178C81.4805 41.0178 81.9227 41.1062 82.3137 41.2831C82.7047 41.46 83.0305 41.6369 83.2911 41.8137L83.9335 40.2917C83.589 40.0776 83.1631 39.8844 82.6558 39.7122C82.1484 39.54 81.5736 39.4539 80.9313 39.4539C80.2052 39.4539 79.5349 39.5842 78.9205 39.8449C78.3061 40.1055 77.7755 40.4709 77.3287 40.941C76.8818 41.4111 76.5374 41.9673 76.2953 42.6097C76.0533 43.252 75.9323 43.9595 75.9323 44.7321C75.9323 45.421 76.051 46.0703 76.2884 46.6801C76.5257 47.2898 76.8632 47.8297 77.3007 48.2998C77.7383 48.77 78.2735 49.1423 78.9065 49.4169C79.5396 49.6916 80.2517 49.8335 81.043 49.8428ZM87.8967 45.4031V49.7318H86.263V39.5663H87.8967V43.8532H92.8957V39.5663H94.5155V49.7318H92.8957V45.4031H87.8967Z" fill="#A38F8F"/>
</svg>
