<svg width="85" height="41" viewBox="0 0 85 41" fill="none" xmlns="http://www.w3.org/2000/svg">
<path d="M6.48064 11.8098C6.24516 11.513 5.94839 11.2678 5.59355 11.0775C5.25161 10.8711 4.83226 10.7678 4.32903 10.7678C3.85484 10.7678 3.44194 10.8711 3.0871 11.0775C2.74516 11.2711 2.57742 11.5582 2.57742 11.942C2.57742 12.2517 2.67419 12.5033 2.86452 12.6969C3.07097 12.8904 3.30968 13.0453 3.57419 13.1646C3.85484 13.284 4.15161 13.3711 4.46129 13.4324C4.77097 13.4904 5.03871 13.542 5.26129 13.5872C5.69032 13.6904 6.09032 13.8162 6.46129 13.9646C6.84516 14.113 7.17097 14.3065 7.43871 14.542C7.71935 14.7775 7.93548 15.0678 8.08387 15.4065C8.24839 15.7485 8.32903 16.1614 8.32903 16.6517C8.32903 17.2453 8.20322 17.7549 7.95161 18.184C7.7 18.5969 7.37419 18.9388 6.97419 19.2065C6.57419 19.4743 6.11613 19.6646 5.59677 19.784C5.09355 19.9033 4.58387 19.9614 4.06452 19.9614C3.19032 19.9614 2.42258 19.8291 1.75484 19.5614C1.10322 19.2936 0.519355 18.8065 0 18.0969L1.50968 16.8517C1.83548 17.1775 2.19677 17.4646 2.59677 17.7162C2.99677 17.9678 3.48387 18.0936 4.06129 18.0936C4.3129 18.0936 4.56451 18.0711 4.81613 18.0259C5.08387 17.9678 5.3129 17.884 5.50323 17.7807C5.70968 17.6614 5.87419 17.5227 5.99032 17.3582C6.12258 17.1807 6.19032 16.9807 6.19032 16.7582C6.19032 16.4614 6.09355 16.2162 5.9 16.0259C5.72258 15.8324 5.5 15.684 5.23226 15.5807C4.98064 15.4614 4.70645 15.3743 4.40968 15.313C4.12903 15.2388 3.87742 15.1807 3.65484 15.1356C3.2258 15.0324 2.81935 14.913 2.43226 14.7807C2.04839 14.6485 1.70645 14.4711 1.40968 14.2485C1.1129 14.0259 0.877419 13.7453 0.699999 13.4033C0.52258 13.0614 0.432257 12.642 0.432257 12.1388C0.432257 11.5904 0.541934 11.1162 0.764515 10.7162C0.999999 10.3001 1.30645 9.96139 1.67419 9.69364C2.05806 9.4259 2.48709 9.2259 2.96129 9.09364C3.44839 8.96139 3.93871 8.89364 4.4258 8.89364C5.13548 8.89364 5.81613 9.0259 6.46774 9.29364C7.11935 9.56139 7.63871 10.0033 8.02258 10.6259L6.46774 11.8033L6.48064 11.8098ZM16.3935 10.9001H13.529V15.6743C13.529 15.9711 13.5355 16.2678 13.5516 16.5614C13.5645 16.842 13.6194 17.1033 13.7064 17.3388C13.8097 17.5614 13.9581 17.7453 14.1516 17.8936C14.3581 18.0259 14.6548 18.0936 15.0387 18.0936C15.2742 18.0936 15.5194 18.0711 15.771 18.0259C16.0226 17.9807 16.2516 17.9001 16.4581 17.7807V19.6033C16.2226 19.7356 15.9097 19.8259 15.5258 19.8711C15.1548 19.9291 14.8677 19.9614 14.6613 19.9614C13.8903 19.9614 13.2903 19.8582 12.8613 19.6517C12.4452 19.4291 12.1355 19.1485 11.929 18.8065C11.7355 18.4646 11.6194 18.0872 11.5742 17.6743C11.5452 17.2453 11.529 16.8162 11.529 16.3872V10.9033H9.21935V9.17106H11.529V6.21622H13.529V9.17106H16.3935V10.9033V10.9001ZM19.0161 10.4549C19.5774 9.93558 20.229 9.55171 20.971 9.3001C21.7097 9.03235 22.4516 8.90009 23.1903 8.90009C23.929 8.90009 24.6194 8.99687 25.1677 9.18719C25.729 9.38074 26.1903 9.6388 26.5452 9.96461C26.9 10.2904 27.1581 10.6678 27.3226 11.0969C27.5 11.5098 27.5903 11.9485 27.5903 12.4065V17.7807C27.5903 18.1517 27.5968 18.4904 27.6129 18.8033C27.629 19.113 27.6516 19.4098 27.6806 19.6904H25.9032C25.8581 19.1582 25.8355 18.6259 25.8355 18.0904H25.7903C25.3452 18.7711 24.8194 19.2517 24.2129 19.5324C23.6065 19.813 22.9032 19.9549 22.1032 19.9549C21.6161 19.9549 21.1484 19.8872 20.7032 19.7549C20.2581 19.6227 19.8677 19.4227 19.5258 19.1549C19.2 18.8872 18.9419 18.5614 18.7484 18.1775C18.5548 17.7775 18.4581 17.3195 18.4581 16.8001C18.4581 16.1195 18.6064 15.5485 18.9032 15.0904C19.2129 14.6324 19.629 14.2614 20.1484 13.9807C20.6806 13.684 21.2968 13.4775 21.9903 13.3582C22.7 13.2259 23.4548 13.1582 24.2548 13.1582H25.7194V12.713C25.7194 12.4453 25.6677 12.1807 25.5645 11.913C25.4613 11.6453 25.3065 11.4098 25.0968 11.2033C24.8903 10.9807 24.6323 10.8098 24.3194 10.6936C24.0097 10.5614 23.6387 10.4936 23.2097 10.4936C22.8258 10.4936 22.4839 10.5291 22.1871 10.6033C21.9065 10.6775 21.6452 10.7743 21.4097 10.8904C21.171 10.9936 20.9581 11.1194 20.7645 11.2678C20.571 11.4162 20.3871 11.5582 20.2097 11.6904L19.0097 10.4453L19.0161 10.4549ZM24.6581 14.6291C24.1839 14.6291 23.6968 14.6582 23.1935 14.7194C22.7065 14.7646 22.2548 14.8614 21.8387 15.0065C21.4387 15.1549 21.1064 15.3614 20.8387 15.6291C20.5871 15.8969 20.4613 16.2356 20.4613 16.6517C20.4613 17.2582 20.6613 17.6969 21.0613 17.9614C21.4774 18.2291 22.0323 18.3614 22.7258 18.3614C23.2742 18.3614 23.7387 18.2711 24.1258 18.0936C24.5097 17.9001 24.8226 17.6582 25.0581 17.3614C25.2935 17.0646 25.4645 16.7388 25.5677 16.384C25.671 16.013 25.7226 15.6517 25.7226 15.2969V14.6291H24.6548H24.6581ZM30.4903 9.16461H32.4903V10.7872H32.5355C32.6677 10.5065 32.8452 10.2549 33.0677 10.0324C33.2903 9.79687 33.5355 9.59687 33.8 9.43235C34.0806 9.27106 34.3839 9.14203 34.7097 9.05493C35.0355 8.95171 35.3613 8.90009 35.6871 8.90009C36.0129 8.90009 36.3097 8.94526 36.5742 9.03235L36.4839 11.1872C36.3226 11.142 36.1581 11.1065 35.9968 11.0775C35.8323 11.0485 35.671 11.0324 35.5097 11.0324C34.5323 11.0324 33.7839 11.3065 33.2677 11.8549C32.7484 12.4033 32.4903 13.2549 32.4903 14.4098V19.6936H30.4903V9.16461ZM38.7065 2.90332H40.7032V10.6743H40.7484C41.1032 10.1259 41.6129 9.69687 42.2806 9.38719C42.9484 9.06139 43.6581 8.90009 44.4129 8.90009C45.2258 8.90009 45.9613 9.04203 46.6129 9.32268C47.2774 9.60332 47.8419 9.99687 48.3 10.5001C48.7742 10.9872 49.1355 11.5743 49.3871 12.2549C49.6387 12.9227 49.7645 13.6453 49.7645 14.4324C49.7645 15.2195 49.6387 15.942 49.3871 16.6098C49.1355 17.2775 48.7742 17.8614 48.3 18.3646C47.8419 18.8678 47.2774 19.2614 46.6129 19.542C45.9613 19.8227 45.229 19.9646 44.4129 19.9646C43.7032 19.9646 43.0065 19.8098 42.3258 19.4969C41.6581 19.1872 41.1355 18.7485 40.7484 18.1872H40.7032V19.6969H38.7065V2.90332ZM44.1677 18.0936C44.7 18.0936 45.1806 18.0033 45.6097 17.8259C46.0387 17.6324 46.4032 17.3807 46.6968 17.0711C46.9935 16.7453 47.2226 16.3614 47.3839 15.9162C47.5484 15.4582 47.629 14.9614 47.629 14.4291C47.629 13.8969 47.5484 13.4065 47.3839 12.9646C47.2226 12.5065 46.9903 12.1195 46.6968 11.8098C46.4 11.484 46.0387 11.2324 45.6097 11.0549C45.1806 10.8614 44.7 10.7678 44.1677 10.7678C43.6355 10.7678 43.1548 10.8646 42.7226 11.0549C42.2936 11.2324 41.9323 11.484 41.6355 11.8098C41.3387 12.1195 41.1097 12.5065 40.9484 12.9646C40.7839 13.4098 40.7032 13.8969 40.7032 14.4291C40.7032 14.9614 40.7839 15.4582 40.9484 15.9162C41.1097 16.3614 41.3419 16.7453 41.6355 17.0711C41.9323 17.3807 42.2936 17.6324 42.7226 17.8259C43.1516 18.0033 43.6323 18.0936 44.1677 18.0936ZM52.2807 9.16784H54.2806V10.7904H54.3258C54.4581 10.5098 54.6355 10.2582 54.8581 10.0356C55.0806 9.8001 55.3258 9.60009 55.5903 9.43558C55.871 9.27429 56.1742 9.14526 56.5 9.05816C56.8258 8.95493 57.1516 8.90332 57.4774 8.90332C57.8032 8.90332 58.1 8.94848 58.3645 9.03558L58.2774 11.1904C58.1129 11.1453 57.9516 11.1098 57.7871 11.0807C57.6258 11.0517 57.4613 11.0356 57.3 11.0356C56.3226 11.0356 55.5742 11.3098 55.0581 11.8582C54.5387 12.4065 54.2806 13.2582 54.2806 14.413V19.6969H52.2807V9.16461V9.16784ZM60.6548 9.16784H62.6548V19.6936H60.6548V9.16461V9.16784ZM71.4742 10.9001H68.6097V15.6743C68.6097 15.9711 68.6161 16.2678 68.6323 16.5614C68.6484 16.842 68.7 17.1033 68.7871 17.3388C68.8903 17.5614 69.0387 17.7453 69.2323 17.8936C69.4387 18.0259 69.7355 18.0936 70.1194 18.0936C70.3548 18.0936 70.6 18.0711 70.8516 18.0259C71.1032 17.9807 71.3323 17.9001 71.5387 17.7807V19.6033C71.3032 19.7356 70.9903 19.8259 70.6065 19.8711C70.2355 19.9291 69.9484 19.9614 69.7419 19.9614C68.971 19.9614 68.3742 19.8582 67.9419 19.6517C67.5258 19.4291 67.2161 19.1485 67.0097 18.8065C66.8161 18.4646 66.7 18.0872 66.6548 17.6743C66.6258 17.2453 66.6097 16.8162 66.6097 16.3872V10.9033H64.3V9.17106H66.6097V6.21622H68.6097V9.17106H71.4742V10.9033V10.9001ZM75.5613 15.1646C75.5613 15.6227 75.6581 16.0453 75.8484 16.4291C76.0548 16.8001 76.3226 17.1162 76.6484 17.384C76.9742 17.6517 77.3516 17.8582 77.7806 18.0065C78.2097 18.1549 78.6548 18.2291 79.1129 18.2291C79.7355 18.2291 80.2742 18.0872 80.7355 17.8065C81.1936 17.5098 81.6161 17.1259 82 16.6517L83.5097 17.8065C82.4 19.242 80.8452 19.9614 78.8452 19.9614C78.0161 19.9614 77.2613 19.8195 76.5807 19.5388C75.9129 19.2582 75.3452 18.8711 74.871 18.384C74.4129 17.8807 74.0581 17.2969 73.8064 16.6291C73.5548 15.9485 73.429 15.2162 73.429 14.4291C73.429 13.642 73.5613 12.9194 73.829 12.2517C74.1097 11.5711 74.4871 10.9872 74.9613 10.4969C75.4516 9.99364 76.0258 9.60009 76.6936 9.31945C77.3613 9.0388 78.0839 8.89687 78.871 8.89687C79.8032 8.89687 80.5871 9.05816 81.2258 9.38397C81.8774 9.70977 82.4097 10.1388 82.8258 10.6711C83.2419 11.1904 83.5355 11.7807 83.7129 12.4485C83.9065 13.1001 84.0032 13.7646 84.0032 14.4485V15.1582H75.5645L75.5613 15.1646ZM81.8678 13.5646C81.8516 13.1194 81.7774 12.713 81.6452 12.342C81.5258 11.9711 81.3419 11.6549 81.0903 11.3872C80.8387 11.1065 80.5194 10.8904 80.1355 10.742C79.7645 10.5807 79.329 10.4969 78.8258 10.4969C78.3226 10.4969 77.8871 10.5936 77.471 10.784C77.071 10.9614 76.7323 11.2001 76.4484 11.4936C76.1677 11.7904 75.9452 12.1227 75.7806 12.4936C75.6323 12.8485 75.5581 13.2033 75.5581 13.5582H81.8645L81.8678 13.5646Z" fill="#042751"/>
<path d="M3.54834 26.7383H6.50318C7.09995 26.7383 7.62253 26.806 8.07092 26.9415C8.52576 27.077 8.91608 27.2609 9.24189 27.4931C9.57737 27.7157 9.85156 27.977 10.0677 28.2705C10.2903 28.5641 10.4677 28.8673 10.5935 29.1802C10.7225 29.4899 10.8129 29.8028 10.8677 30.1125C10.9225 30.4222 10.9516 30.7092 10.9516 30.9738C10.9516 31.5157 10.8516 32.0415 10.6516 32.5512C10.4516 33.0544 10.158 33.5028 9.76769 33.9028C9.37737 34.2931 8.89027 34.6092 8.30963 34.848C7.73544 35.0867 7.07092 35.206 6.31286 35.206H3.55156V26.7415L3.54834 26.7383ZM4.69673 34.1286H6.14511C6.63221 34.1286 7.09027 34.0641 7.51931 33.9383C7.95802 33.8028 8.34189 33.6028 8.66769 33.3415C8.9935 33.0802 9.25479 32.7512 9.44511 32.3609C9.63544 31.9609 9.73221 31.4996 9.73221 30.9738C9.73221 30.7028 9.68705 30.3867 9.59995 30.0286C9.51285 29.6609 9.34511 29.3157 9.09673 28.9899C8.85802 28.6641 8.52253 28.3867 8.0935 28.1641C7.66447 27.9318 7.10641 27.8189 6.41931 27.8189H4.69673V34.1318V34.1286ZM18.7032 26.7383H24.1677V27.8157H19.8516V30.3383H23.8709V31.4157H19.8516V34.1318H24.3838V35.2092H18.7032V26.7447V26.7383ZM32.1129 26.7383H33.6193L38.2838 33.6963H38.3064V26.7383H39.4548V35.2028H37.9967L33.2871 28.2447H33.2645V35.2028H32.1161V26.7383H32.1129ZM49.4967 27.8157H46.7709V26.7383H53.3709V27.8157H50.6451V35.206H49.4967V27.8157ZM75.2096 26.7383H76.358V34.1286H80.2451V35.206H75.2096V26.7415V26.7383Z" fill="#042751"/>
<path d="M64.4454 40.1254C61.6777 40.1254 58.9131 39.277 56.5551 37.5834C56.3164 37.4125 56.2615 37.077 56.4325 36.8383C56.6035 36.5996 56.9389 36.5447 57.1777 36.7157C61.526 39.8383 67.368 39.8383 71.7164 36.7157C71.9551 36.5447 72.2906 36.5996 72.4615 36.8383C72.6325 37.077 72.5777 37.4125 72.3389 37.5834C69.9777 39.277 67.2131 40.1254 64.4486 40.1254H64.4454Z" fill="#00A896"/>
<path d="M61.4628 7.87554C61.5485 8.19383 62.0001 8.19383 62.0858 7.87555L62.3761 6.79732C62.406 6.68631 62.4927 6.59959 62.6037 6.5697L63.6819 6.27939C64.0002 6.1937 64.0002 5.74212 63.6819 5.65642L62.6037 5.36611C62.4927 5.33622 62.406 5.2495 62.3761 5.13849L62.0858 4.06027C62.0001 3.74199 61.5485 3.74199 61.4628 4.06027L61.1725 5.13849C61.1426 5.2495 61.0559 5.33622 60.9449 5.36611L59.8666 5.65642C59.5484 5.74212 59.5484 6.1937 59.8666 6.27939L60.9449 6.5697C61.0559 6.59959 61.1426 6.68631 61.1725 6.79732L61.4628 7.87554Z" fill="#042751"/>
<path d="M64.1775 26.7383H65.2194L68.842 35.2028H67.5033L66.6549 33.1092H62.6259L61.7872 35.2028H60.4485L64.1807 26.7383H64.1775ZM66.2356 32.106L64.6582 28.2189H64.6356L63.0324 32.106H66.2356Z" fill="#00A896"/>
</svg>
