<svg width="160" height="48" viewBox="0 0 160 48" fill="none" xmlns="http://www.w3.org/2000/svg">
<path d="M15.7789 20.7124H8.46245C8.06091 20.7124 7.71009 20.8563 7.4269 21.1398C7.14371 21.4233 7 21.7702 7 22.1764C7 22.5826 7.14371 22.9296 7.42267 23.2173C7.70587 23.5093 8.05668 23.6532 8.45823 23.6532H10.5378V32.3061C10.5378 32.8097 10.673 33.2159 10.9351 33.5121C11.2098 33.821 11.6029 33.9775 12.1101 33.9775C12.6173 33.9775 13.0316 33.821 13.3147 33.5078C13.5895 33.2032 13.7332 32.8012 13.7332 32.3061V23.6532H15.7789C16.1847 23.6532 16.5313 23.5051 16.8145 23.2173C17.0977 22.9296 17.2372 22.5784 17.2372 22.1764C17.2372 21.7745 17.0935 21.4233 16.8103 21.1398C16.5271 20.8563 16.1805 20.7124 15.7747 20.7124H15.7789Z" fill="#02BFDF"/>
<path d="M20.1636 24.0936C19.7029 24.0936 19.3352 24.2417 19.0731 24.5294C18.8195 24.8129 18.6885 25.1895 18.6885 25.6507V32.4165C18.6885 32.8651 18.8153 33.2416 19.0689 33.5251C19.3309 33.8213 19.6987 33.9737 20.1636 33.9737C20.6286 33.9737 20.9963 33.8256 21.2626 33.5294C21.5246 33.2416 21.6556 32.8693 21.6556 32.4165V25.6507C21.6556 25.1895 21.5246 24.8087 21.2626 24.5252C20.9963 24.2375 20.6243 24.0894 20.1636 24.0894V24.0936Z" fill="#02BFDF"/>
<path d="M32.2758 21.0148C31.9588 21.3279 31.8024 21.7087 31.8024 22.1446V28.153L26.7134 21.1375C26.4091 20.7525 25.9864 20.5578 25.4623 20.5578C25.0269 20.5578 24.6508 20.7144 24.338 21.0233C24.0252 21.3322 23.873 21.7087 23.873 22.1446V32.3885C23.873 32.8244 24.0294 33.2009 24.338 33.5098C24.6465 33.8187 25.0269 33.9753 25.4623 33.9753C25.8977 33.9753 26.2738 33.8187 26.5908 33.5098C26.9078 33.2009 27.0685 32.8201 27.0685 32.3843V26.3759L32.1701 33.3913C32.466 33.7679 32.8845 33.9583 33.4213 33.9583C33.8566 33.9583 34.2328 33.806 34.5413 33.5014C34.8541 33.1967 35.0105 32.8201 35.0105 32.3843V22.1403C35.0105 21.7045 34.8541 21.3279 34.5456 21.0106C33.92 20.3717 32.8971 20.3843 32.2758 21.0106V21.0148Z" fill="#02BFDF"/>
<path d="M48.7825 22.1131C48.7825 21.6773 48.6261 21.3049 48.3217 20.996C48.0174 20.6914 47.6497 20.5391 47.2228 20.5391C46.7198 20.5391 46.3014 20.7464 45.9759 21.1484L42.1465 25.7986H40.4051V22.2104C40.4051 21.7196 40.2698 21.3134 39.9993 21.013C39.7203 20.6999 39.3188 20.5433 38.8031 20.5433C38.2875 20.5433 37.8986 20.7041 37.6196 21.0172C37.3491 21.3219 37.2139 21.7238 37.2139 22.2147V32.3105C37.2139 32.8014 37.3491 33.2076 37.6196 33.508C37.8986 33.8211 38.2959 33.9819 38.8031 33.9819C39.3103 33.9819 39.7203 33.8253 39.9993 33.508C40.2698 33.2033 40.4051 32.8014 40.4051 32.3105V28.7224H42.1465L45.9717 33.3641C46.2887 33.7746 46.7114 33.9819 47.2228 33.9819C47.6455 33.9819 48.0174 33.8296 48.3217 33.5249C48.6261 33.2202 48.7825 32.8437 48.7825 32.4078C48.7825 32.027 48.6683 31.6928 48.4401 31.4093L44.9995 27.2626L48.4401 23.1117C48.6641 22.8324 48.7825 22.4982 48.7825 22.1173V22.1131Z" fill="#02BFDF"/>
<path d="M58.2866 23.3667C58.6417 23.3667 58.946 23.2313 59.1996 22.9648C59.4448 22.7024 59.5716 22.3893 59.5716 22.0296C59.5716 21.67 59.4448 21.3569 59.1954 21.0988C58.946 20.8406 58.6375 20.7095 58.2866 20.7095H51.8197C51.3125 20.7095 50.9152 20.8703 50.6362 21.1791C50.3657 21.4838 50.2305 21.8858 50.2305 22.3766V32.1213C50.2305 32.6163 50.3657 33.0183 50.6362 33.3187C50.9152 33.6318 51.3125 33.7926 51.8197 33.7926H58.2866C58.6375 33.7926 58.9418 33.6657 59.1954 33.4118C59.4448 33.1622 59.5716 32.8491 59.5716 32.4894C59.5716 32.1297 59.4448 31.8209 59.1996 31.5543C58.946 31.2877 58.6417 31.1523 58.2866 31.1523H53.4386V28.5797H56.5072C56.8622 28.5797 57.1666 28.4443 57.4202 28.1777C57.6695 27.9154 57.7921 27.6023 57.7921 27.2426C57.7921 26.8829 57.6653 26.5698 57.4202 26.3075C57.1708 26.0409 56.8622 25.9055 56.5072 25.9055H53.4386V23.3498H58.2866V23.3667Z" fill="#02BFDF"/>
<path d="M70.2377 29.0393C70.0306 28.6881 69.7855 28.3919 69.5065 28.1422C70.056 27.901 70.5082 27.5329 70.8548 27.0421C71.3113 26.3989 71.5438 25.5696 71.5438 24.5795C71.5438 23.3524 71.1845 22.3919 70.4702 21.7191C69.7643 21.0506 68.788 20.7163 67.5707 20.7163H62.8959C62.3802 20.7163 61.9745 20.8771 61.6997 21.186C61.4292 21.4906 61.2939 21.8926 61.2939 22.3834V32.3058C61.2939 32.7967 61.4292 33.2029 61.6997 33.5033C61.9787 33.8164 62.3802 33.9772 62.9001 33.9772C63.42 33.9772 63.8215 33.8206 64.1005 33.5033C64.371 33.1986 64.5063 32.7967 64.5063 32.3058V29.1027H65.4488C66.1843 29.1027 66.7253 29.4074 67.1057 30.0294L69.0458 33.1944C69.3755 33.7064 69.8446 33.9772 70.3941 33.9772C70.8252 33.9772 71.2057 33.8249 71.5184 33.5244C71.8354 33.2198 71.9961 32.8432 71.9961 32.4031C71.9961 32.0858 71.9073 31.7938 71.7424 31.5569L70.2377 29.0393ZM68.3568 24.9011C68.3568 25.3877 68.2258 25.7558 67.9553 26.0308C67.689 26.3016 67.3424 26.437 66.9028 26.437H64.5063V23.3693H66.9028C67.3424 23.3693 67.689 23.5005 67.9553 23.7755C68.2258 24.0506 68.3568 24.4187 68.3568 24.9053V24.9011Z" fill="#02BFDF"/>
<path d="M88.7239 20.5404C88.0138 20.5404 87.5024 20.8662 87.253 21.4882L84.307 29.0241L81.3567 21.4839C81.1073 20.8662 80.6044 20.5361 79.9027 20.5361C79.4674 20.5361 79.087 20.6969 78.7742 21.01C78.4572 21.3232 78.3008 21.704 78.3008 22.1398C78.3008 22.3894 78.3557 22.6264 78.4529 22.821L82.8572 33.0396C83.1277 33.6235 83.6138 33.9451 84.307 33.9705C84.624 33.9705 84.9156 33.8816 85.1735 33.7124C85.4271 33.5431 85.6215 33.3189 85.7567 33.0354L90.1526 22.8422C90.2709 22.6095 90.3301 22.3725 90.3301 22.144C90.3301 21.7082 90.1695 21.3274 89.8567 21.0143C89.5439 20.6969 89.1635 20.5404 88.7281 20.5404H88.7239Z" fill="#02BFDF"/>
<path d="M93.2369 24.0936C92.7761 24.0936 92.4084 24.2417 92.1464 24.5294C91.8927 24.8129 91.7617 25.1895 91.7617 25.6507V32.4165C91.7617 32.8651 91.8885 33.2416 92.1421 33.5251C92.4042 33.8213 92.7719 33.9737 93.2369 33.9737C93.7018 33.9737 94.0695 33.8256 94.3358 33.5294C94.5979 33.2416 94.7289 32.8693 94.7289 32.4165V25.6507C94.7289 25.1895 94.5979 24.8087 94.3358 24.5252C94.0695 24.2375 93.6976 24.0894 93.2369 24.0894V24.0936Z" fill="#02BFDF"/>
<path d="M93.2398 19.9769C92.7411 19.9769 92.3226 20.1419 92.0014 20.4719C91.6844 20.7978 91.5195 21.2167 91.5195 21.7117C91.5195 22.2068 91.6801 22.6299 92.0014 22.9515C92.3226 23.2773 92.7368 23.4465 93.2398 23.4465C93.7428 23.4465 94.157 23.2815 94.4867 22.9557C94.8206 22.6299 94.9897 22.211 94.9897 21.7075C94.9897 21.204 94.8206 20.7893 94.4867 20.4593C94.157 20.1334 93.7343 19.9727 93.2398 19.9727V19.9769Z" fill="#02BFDF"/>
<path d="M104.845 30.8763H100.157V22.2106C100.157 21.7198 100.022 21.3136 99.7515 21.0131C99.4726 20.7 99.071 20.5435 98.5512 20.5435C98.0313 20.5435 97.6297 20.7042 97.355 21.0174C97.0845 21.322 96.9492 21.724 96.9492 22.2148V32.1372C96.9492 32.6323 97.0845 33.0342 97.355 33.3347C97.634 33.6478 98.0355 33.8086 98.5554 33.8086H104.849C105.255 33.8086 105.601 33.6647 105.876 33.3812C106.151 33.0977 106.29 32.7507 106.29 32.3488C106.29 31.9468 106.151 31.5998 105.876 31.3163C105.597 31.0328 105.251 30.889 104.849 30.889L104.845 30.8763Z" fill="#02BFDF"/>
<path d="M115.651 30.8763H110.964V22.2106C110.964 21.7198 110.829 21.3136 110.558 21.0131C110.279 20.7 109.878 20.5435 109.358 20.5435C108.838 20.5435 108.436 20.7042 108.162 21.0174C107.891 21.322 107.756 21.724 107.756 22.2148V32.1372C107.756 32.6323 107.891 33.0342 108.162 33.3347C108.441 33.6478 108.842 33.8086 109.362 33.8086H115.656C116.061 33.8086 116.408 33.6647 116.683 33.3812C116.957 33.0977 117.097 32.7507 117.097 32.3488C117.097 31.9468 116.957 31.5998 116.683 31.3163C116.404 31.0328 116.057 30.889 115.656 30.889L115.651 30.8763Z" fill="#02BFDF"/>
<path d="M125.252 21.4699C124.981 20.886 124.495 20.5645 123.802 20.5391C123.485 20.5391 123.193 20.6279 122.936 20.7972C122.682 20.9664 122.488 21.1907 122.352 21.4742L117.957 31.6843C117.851 31.8959 117.796 32.1328 117.796 32.3825C117.796 32.8183 117.957 33.1991 118.274 33.508C118.586 33.8169 118.967 33.9734 119.402 33.9734C120.116 33.9734 120.619 33.6434 120.86 33.0171L121.668 30.8169H125.945L126.752 33.0214C126.917 33.4572 127.31 33.9734 128.223 33.9734C128.659 33.9734 129.039 33.8169 129.352 33.508C129.669 33.1991 129.829 32.8183 129.829 32.3825C129.829 32.154 129.77 31.917 129.66 31.7012L125.256 21.4657L125.252 21.4699ZM124.981 28.1808H122.644L123.819 24.9819L124.981 28.1808Z" fill="#02BFDF"/>
<path d="M141.189 25.9213H137.22C136.844 25.9213 136.527 26.0567 136.282 26.3275C136.041 26.5898 135.918 26.9029 135.918 27.2584C135.918 27.6138 136.041 27.9269 136.282 28.1892C136.527 28.4558 136.844 28.5912 137.22 28.5912H139.604V30.3641C139.008 31.02 138.226 31.3416 137.22 31.3416C136.155 31.3416 135.352 30.9946 134.769 30.2753C134.177 29.5517 133.877 28.5362 133.877 27.2584C133.877 25.9805 134.177 24.9565 134.773 24.2414C135.36 23.5348 136.163 23.1921 137.22 23.1921C138.205 23.1921 139.186 23.484 140.158 24.0722C140.327 24.1568 140.504 24.1991 140.682 24.1991C141.071 24.1991 141.392 24.0807 141.637 23.8522C141.886 23.6152 142.013 23.2894 142.013 22.8832C142.013 22.3966 141.785 21.9862 141.354 21.7027C140.259 20.9326 138.869 20.5391 137.22 20.5391C135.255 20.5391 133.657 21.1526 132.469 22.3628C131.286 23.5729 130.686 25.2189 130.686 27.2584C130.686 29.2978 131.277 30.9015 132.444 32.1286C133.615 33.3557 135.221 33.9777 137.22 33.9777C139.219 33.9777 140.902 33.2837 142.068 31.9551C142.356 31.7308 142.554 31.4854 142.651 31.2315C142.744 30.9904 142.791 30.6815 142.791 30.2837V27.5419C142.791 27.0764 142.643 26.6871 142.356 26.3825C142.06 26.0736 141.667 25.917 141.189 25.917V25.9213Z" fill="#02BFDF"/>
<path d="M152.715 31.1653H147.867V28.5927H150.936C151.291 28.5927 151.595 28.4573 151.849 28.1907C152.098 27.9284 152.221 27.6153 152.221 27.2556C152.221 26.896 152.094 26.5828 151.849 26.3205C151.599 26.0539 151.291 25.9185 150.936 25.9185H147.867V23.3628H152.715C153.07 23.3628 153.375 23.2274 153.628 22.9608C153.873 22.6985 154 22.3854 154 22.0257C154 21.6661 153.873 21.353 153.624 21.0948C153.375 20.8367 153.066 20.7056 152.715 20.7056H146.248C145.741 20.7056 145.344 20.8664 145.065 21.1752C144.794 21.4799 144.659 21.8819 144.659 22.3727V32.1174C144.659 32.6124 144.794 33.0144 145.065 33.3148C145.344 33.6279 145.741 33.7887 146.248 33.7887H152.715C153.066 33.7887 153.37 33.6618 153.624 33.4079C153.873 33.1583 154 32.8452 154 32.4855C154 32.1258 153.873 31.8169 153.628 31.5504C153.375 31.2838 153.07 31.1484 152.715 31.1484V31.1653Z" fill="#02BFDF"/>
<path d="M23.1365 17.2691C23.2083 15.7035 22.0798 14.9673 20.6385 15.0011C19.1972 15.035 17.9968 15.8304 17.9207 17.396C17.9165 17.5187 17.9207 17.6372 17.9249 17.7557C17.9249 18.0519 18.001 18.3269 18.1109 18.6019C18.1489 18.695 18.1912 18.7881 18.2335 18.877C18.449 19.317 18.7322 19.7486 18.9351 20.2098C19.2986 21.0519 19.1972 21.238 19.1972 21.238L21.4965 21.183C21.4965 21.183 21.4035 21.0011 21.8473 20.1379C22.2911 19.2747 23.0097 18.5089 23.09 17.6541C23.1111 17.5314 23.1238 17.4003 23.1323 17.2733L23.1365 17.2691Z" fill="#F6921E"/>
<path d="M21.5212 20.9414C21.5212 20.9414 21.0563 21.1911 20.3546 21.2122C19.6488 21.2291 19.2092 21.0006 19.2092 21.0006C19.2092 21.0006 18.833 21.3138 18.9218 21.4322C19.0105 21.5507 19.057 21.5296 19.057 21.5296C19.057 21.5296 18.9344 22.7439 19.2345 23.0613C19.5135 23.3532 20.1856 23.3236 20.2828 23.3194C20.3715 23.3194 21.0013 23.3194 21.3056 23.0105C21.6353 22.6805 21.6269 21.4703 21.6269 21.4703C21.6269 21.4703 21.6734 21.4915 21.7706 21.3645C21.8678 21.2418 21.5212 20.9456 21.5212 20.9456V20.9414Z" fill="#02BFDF"/>
<path d="M19.565 21.2045C19.565 20.7814 19.5565 19.9732 19.51 19.2581C19.4382 19.2666 19.3706 19.2666 19.3072 19.2497C19.193 19.22 19.0451 19.1397 18.9732 18.9112C18.7873 18.3061 18.8422 17.7179 19.1 17.6037C19.1592 17.5783 19.3156 17.5445 19.4678 17.7983C19.5734 17.9803 19.6411 18.4584 19.6833 19.0043C19.7721 18.9619 19.8651 18.8985 19.9496 18.8181C19.9116 18.7123 19.882 18.5896 19.8778 18.4669C19.8609 18.1918 19.92 17.7772 20.106 17.7137C20.1525 17.6968 20.2032 17.7095 20.2413 17.7349C20.3723 17.8406 20.3554 18.2426 20.3343 18.4711C20.3216 18.6234 20.2709 18.7504 20.1821 18.8562C20.2201 18.9239 20.2624 18.9746 20.3089 19.0085C20.3512 19.0423 20.3934 19.0508 20.4315 19.0381L20.4822 19.2243C20.3892 19.2497 20.292 19.2243 20.199 19.1608C20.1398 19.1185 20.0891 19.0593 20.0426 18.9916C19.9327 19.0846 19.8144 19.1566 19.7002 19.2031C19.7552 20.0705 19.7552 21.0268 19.7552 21.2003H19.5608L19.565 21.2045ZM19.2099 17.7814C19.2099 17.7814 19.193 17.7772 19.1846 17.7814C19.0916 17.8237 18.9732 18.2384 19.1634 18.8562C19.2015 18.9746 19.2607 19.0423 19.3579 19.0635C19.4001 19.072 19.4509 19.0762 19.5016 19.0635C19.4635 18.5134 19.4001 18.048 19.3072 17.8914C19.2691 17.828 19.2353 17.7941 19.2099 17.7814ZM20.1441 17.9464C20.106 18.0395 20.0637 18.2342 20.0764 18.4542C20.0764 18.5134 20.0891 18.5727 20.1018 18.6277C20.1271 18.5727 20.1398 18.5177 20.1483 18.4542C20.1694 18.2215 20.161 18.0437 20.1483 17.9464H20.1441Z" fill="black"/>
<path d="M20.8597 21.1661C20.8682 21.0942 20.9569 20.0871 21.1006 19.1689C20.9907 19.1266 20.8851 19.0631 20.7836 18.9785C20.7287 19.0589 20.6653 19.1224 20.6019 19.1689C20.5131 19.2324 20.4159 19.2535 20.3271 19.2324L20.3694 19.042C20.4159 19.0504 20.4624 19.0293 20.492 19.0081C20.5469 18.97 20.6019 18.9108 20.6484 18.8346C20.5723 18.7289 20.5343 18.6019 20.5343 18.4538C20.5343 18.2676 20.5469 17.8234 20.6906 17.7218C20.7287 17.6922 20.7752 17.6837 20.8217 17.7007C20.9992 17.7599 21.033 18.1788 20.9907 18.4581C20.9738 18.5808 20.9358 18.6992 20.8851 18.8093C20.9612 18.8812 21.0457 18.9362 21.1345 18.9785C21.2274 18.4242 21.3416 17.9291 21.4641 17.7472C21.6374 17.4891 21.7811 17.5102 21.8572 17.5526C22.0982 17.6795 22.0982 18.2507 21.8572 18.86C21.7558 19.1097 21.5867 19.1943 21.4599 19.2155C21.405 19.2239 21.35 19.2282 21.2908 19.2197C21.1767 19.9432 21.0922 20.7599 21.0499 21.1872L20.8597 21.1703V21.1661ZM21.7685 17.7133C21.7685 17.7133 21.7008 17.726 21.6248 17.8445C21.5149 18.0053 21.4134 18.475 21.3204 19.0208C21.3542 19.0208 21.3923 19.0208 21.4219 19.0166C21.536 18.9954 21.6248 18.915 21.6755 18.7796C21.9164 18.1703 21.8488 17.7557 21.7642 17.7133H21.7685ZM20.7836 17.9334C20.754 18.0265 20.7287 18.2126 20.7287 18.4538C20.7287 18.5131 20.7371 18.5681 20.754 18.6146C20.7752 18.5511 20.7921 18.4877 20.8005 18.4242C20.8344 18.2126 20.8132 18.0265 20.7836 17.9334Z" fill="black"/>
<path d="M19.0611 21.6146C19.0189 21.5934 18.9977 21.5426 19.0146 21.4961C19.0315 21.4453 19.0865 21.4199 19.1372 21.4368C19.1372 21.4368 19.5768 21.5849 20.3249 21.5849C21.0688 21.5849 21.5887 21.3776 21.5929 21.3734C21.6437 21.3522 21.6986 21.3734 21.7197 21.4242C21.7409 21.4749 21.7197 21.5299 21.669 21.5511C21.6479 21.5596 21.1111 21.7754 20.3249 21.7754C19.543 21.7754 19.0949 21.6188 19.0738 21.6146H19.0611Z" fill="black"/>
<path d="M19.32 22.1654C19.2777 22.1443 19.2566 22.0977 19.2693 22.0512C19.2862 22.0004 19.3369 21.9708 19.3876 21.9877C19.3919 21.9877 19.9033 22.14 20.4274 22.085C20.9557 22.0258 21.2347 21.8988 21.2347 21.8988C21.2812 21.8777 21.3404 21.8988 21.3615 21.9454C21.3826 21.9919 21.3615 22.0512 21.315 22.0723C21.3023 22.0766 21.0107 22.212 20.4443 22.2754C19.8779 22.3389 19.3496 22.1781 19.3285 22.1739C19.3242 22.1739 19.32 22.1739 19.3158 22.1696L19.32 22.1654Z" fill="black"/>
<path d="M19.2985 22.6801C19.2562 22.6589 19.2351 22.6124 19.2478 22.5658C19.2647 22.515 19.3154 22.4854 19.3661 22.5024C19.3704 22.5024 19.8818 22.6547 20.4059 22.5997C20.9343 22.5404 21.2132 22.4135 21.2132 22.4135C21.2597 22.3923 21.3189 22.4135 21.34 22.46C21.3612 22.5066 21.34 22.5658 21.2935 22.587C21.2809 22.5912 20.9892 22.7266 20.4271 22.7901C19.8607 22.8535 19.3323 22.6928 19.3112 22.6885C19.307 22.6885 19.3027 22.6885 19.2985 22.6843V22.6801Z" fill="black"/>
</svg>
