<svg width="154" height="24" viewBox="0 0 154 24" fill="none" xmlns="http://www.w3.org/2000/svg">
<g clip-path="url(#clip0_215_662)">
<path d="M9.19687 5.98413H1.53207C1.11142 5.98413 0.743897 6.13484 0.447224 6.43184C0.150551 6.72883 0 7.09231 0 7.51785C0 7.9434 0.150551 8.30688 0.442796 8.60831C0.739469 8.91417 1.10699 9.06488 1.52765 9.06488H3.7062V18.1298C3.7062 18.6573 3.8479 19.0828 4.12243 19.3931C4.41025 19.7167 4.82205 19.8807 5.3534 19.8807C5.88476 19.8807 6.3187 19.7167 6.61537 19.3887C6.90319 19.0695 7.05374 18.6484 7.05374 18.1298V9.06488H9.19687C9.62195 9.06488 9.98505 8.90973 10.2817 8.60831C10.5784 8.30688 10.7245 7.93896 10.7245 7.51785C10.7245 7.09675 10.574 6.72883 10.2773 6.43184C9.98062 6.13484 9.61753 5.98413 9.19244 5.98413H9.19687Z" fill="#A38F8F"/>
<path d="M13.7895 9.52592C13.3069 9.52592 12.9216 9.68106 12.6471 9.98249C12.3814 10.2795 12.2441 10.674 12.2441 11.1572V18.2451C12.2441 18.715 12.377 19.1095 12.6427 19.4065C12.9172 19.7168 13.3024 19.8763 13.7895 19.8763C14.2766 19.8763 14.6618 19.7212 14.9408 19.4109C15.2153 19.1095 15.3526 18.7194 15.3526 18.2451V11.1572C15.3526 10.674 15.2153 10.275 14.9408 9.97806C14.6618 9.67663 14.2721 9.52148 13.7895 9.52148V9.52592Z" fill="#A38F8F"/>
<path d="M26.4786 6.29883C26.1465 6.62685 25.9826 7.0258 25.9826 7.48237V13.7768L20.6514 6.42738C20.3326 6.024 19.8898 5.82009 19.3407 5.82009C18.8846 5.82009 18.4905 5.9841 18.1629 6.30769C17.8352 6.63128 17.6758 7.0258 17.6758 7.48237V18.214C17.6758 18.6706 17.8396 19.0651 18.1629 19.3887C18.4861 19.7123 18.8846 19.8763 19.3407 19.8763C19.7968 19.8763 20.1909 19.7123 20.523 19.3887C20.8551 19.0651 21.0233 18.6661 21.0233 18.2096V11.9151L26.3679 19.2646C26.6778 19.6591 27.1162 19.8585 27.6785 19.8585C28.1346 19.8585 28.5287 19.699 28.852 19.3798C29.1796 19.0607 29.3435 18.6661 29.3435 18.2096V7.47794C29.3435 7.02136 29.1796 6.62685 28.8564 6.2944C28.201 5.62505 27.1295 5.63835 26.4786 6.2944V6.29883Z" fill="#A38F8F"/>
<path d="M43.7717 7.45147C43.7717 6.99489 43.6078 6.60481 43.289 6.28123C42.9702 5.96207 42.585 5.80249 42.1378 5.80249C41.6108 5.80249 41.1725 6.01969 40.8315 6.4408L36.8198 11.3124H34.9955V7.55342C34.9955 7.03922 34.8538 6.61368 34.5704 6.29896C34.2781 5.97093 33.8575 5.80692 33.3173 5.80692C32.777 5.80692 32.3697 5.97537 32.0774 6.30339C31.794 6.62255 31.6523 7.04365 31.6523 7.55785V18.1343C31.6523 18.6485 31.794 19.0741 32.0774 19.3888C32.3697 19.7168 32.7859 19.8853 33.3173 19.8853C33.8486 19.8853 34.2781 19.7213 34.5704 19.3888C34.8538 19.0697 34.9955 18.6485 34.9955 18.1343V14.3754H36.8198L40.8271 19.2381C41.1592 19.6681 41.602 19.8853 42.1378 19.8853C42.5805 19.8853 42.9702 19.7257 43.289 19.4065C43.6078 19.0874 43.7717 18.6929 43.7717 18.2363C43.7717 17.8374 43.6521 17.4872 43.413 17.1902L39.8086 12.8461L43.413 8.49759C43.6477 8.20503 43.7717 7.85484 43.7717 7.4559V7.45147Z" fill="#A38F8F"/>
<path d="M53.7288 8.76325C54.1007 8.76325 54.4195 8.6214 54.6852 8.34214C54.942 8.06731 55.0749 7.73929 55.0749 7.3625C55.0749 6.98572 54.942 6.6577 54.6808 6.3873C54.4195 6.11691 54.0963 5.97949 53.7288 5.97949H46.954C46.4226 5.97949 46.0064 6.14794 45.7141 6.47153C45.4308 6.79068 45.2891 7.21179 45.2891 7.72599V17.9346C45.2891 18.4532 45.4308 18.8743 45.7141 19.189C46.0064 19.5171 46.4226 19.6855 46.954 19.6855H53.7288C54.0963 19.6855 54.4151 19.5525 54.6808 19.2865C54.942 19.025 55.0749 18.697 55.0749 18.3202C55.0749 17.9434 54.942 17.6198 54.6852 17.3406C54.4195 17.0613 54.1007 16.9195 53.7288 16.9195H48.6499V14.2244H51.8646C52.2365 14.2244 52.5553 14.0825 52.821 13.8033C53.0823 13.5284 53.2107 13.2004 53.2107 12.8236C53.2107 12.4468 53.0778 12.1188 52.821 11.844C52.5598 11.5647 52.2365 11.4229 51.8646 11.4229H48.6499V8.74552H53.7288V8.76325Z" fill="#A38F8F"/>
<path d="M66.2485 14.708C66.0315 14.34 65.7747 14.0297 65.4824 13.7682C66.0581 13.5155 66.5319 13.1299 66.895 12.6157C67.3732 11.9419 67.6167 11.0731 67.6167 10.0359C67.6167 8.75036 67.2403 7.74413 66.492 7.03933C65.7525 6.33896 64.7297 5.98877 63.4544 5.98877H58.5571C58.0169 5.98877 57.5918 6.15721 57.304 6.4808C57.0206 6.79996 56.8789 7.22107 56.8789 7.73527V18.13C56.8789 18.6442 57.0206 19.0698 57.304 19.3845C57.5962 19.7125 58.0169 19.8809 58.5615 19.8809C59.1062 19.8809 59.5268 19.7169 59.8191 19.3845C60.1025 19.0653 60.2442 18.6442 60.2442 18.13V14.7744H61.2316C62.0021 14.7744 62.5688 15.0936 62.9674 15.7452L64.9998 19.0609C65.3452 19.5973 65.8367 19.8809 66.4123 19.8809C66.864 19.8809 67.2625 19.7214 67.5901 19.4066C67.9222 19.0875 68.0905 18.693 68.0905 18.232C68.0905 17.8995 67.9975 17.5937 67.8248 17.3454L66.2485 14.708ZM64.278 10.3727C64.278 10.8825 64.1408 11.2682 63.8574 11.5563C63.5784 11.84 63.2153 11.9818 62.7548 11.9818H60.2442V8.76809H62.7548C63.2153 8.76809 63.5784 8.90551 63.8574 9.19363C64.1408 9.48176 64.278 9.86741 64.278 10.3772V10.3727Z" fill="#A38F8F"/>
<path d="M85.6147 5.80253C84.8708 5.80253 84.335 6.14385 84.0737 6.79546L80.9874 14.6902L77.8967 6.79103C77.6355 6.14385 77.1085 5.7981 76.3735 5.7981C75.9174 5.7981 75.5189 5.96654 75.1912 6.29456C74.8591 6.62258 74.6953 7.02153 74.6953 7.4781C74.6953 7.73963 74.7529 7.98786 74.8547 8.19177L79.4687 18.8968C79.752 19.5085 80.2613 19.8454 80.9874 19.872C81.3195 19.872 81.6251 19.7789 81.8952 19.6016C82.1608 19.4243 82.3645 19.1894 82.5062 18.8924L87.1113 8.21393C87.2353 7.97013 87.2973 7.7219 87.2973 7.48253C87.2973 7.02596 87.129 6.62702 86.8014 6.29899C86.4737 5.96654 86.0752 5.80253 85.6191 5.80253H85.6147Z" fill="#A38F8F"/>
<path d="M90.3422 9.52592C89.8596 9.52592 89.4744 9.68106 89.1998 9.98249C88.9341 10.2795 88.7969 10.674 88.7969 11.1572V18.2451C88.7969 18.715 88.9297 19.1095 89.1954 19.4065C89.4699 19.7168 89.8552 19.8763 90.3422 19.8763C90.8293 19.8763 91.2145 19.7212 91.4935 19.4109C91.768 19.1095 91.9053 18.7194 91.9053 18.2451V11.1572C91.9053 10.674 91.768 10.275 91.4935 9.97806C91.2145 9.67663 90.8249 9.52148 90.3422 9.52148V9.52592Z" fill="#A38F8F"/>
<path d="M90.3451 5.21293C89.8226 5.21293 89.3843 5.38581 89.0478 5.73156C88.7157 6.07288 88.543 6.51172 88.543 7.03035C88.543 7.54898 88.7112 7.99225 89.0478 8.32914C89.3843 8.67046 89.8182 8.84777 90.3451 8.84777C90.8721 8.84777 91.306 8.67489 91.6514 8.33357C92.0012 7.99225 92.1783 7.55341 92.1783 7.02592C92.1783 6.49842 92.0012 6.06401 91.6514 5.71826C91.306 5.37694 90.8632 5.2085 90.3451 5.2085V5.21293Z" fill="#A38F8F"/>
<path d="M102.502 16.6316H97.5913V7.55338C97.5913 7.03918 97.4496 6.61364 97.1662 6.29892C96.874 5.9709 96.4533 5.80688 95.9087 5.80688C95.364 5.80688 94.9434 5.97533 94.6556 6.30335C94.3722 6.62251 94.2305 7.04362 94.2305 7.55781V17.9526C94.2305 18.4712 94.3722 18.8923 94.6556 19.207C94.9478 19.535 95.3685 19.7035 95.9131 19.7035H102.506C102.931 19.7035 103.294 19.5528 103.582 19.2558C103.87 18.9588 104.016 18.5953 104.016 18.1742C104.016 17.7531 103.87 17.3896 103.582 17.0926C103.29 16.7956 102.927 16.6449 102.506 16.6449L102.502 16.6316Z" fill="#A38F8F"/>
<path d="M113.824 16.6314H108.914V7.55314C108.914 7.03894 108.772 6.6134 108.488 6.29867C108.196 5.97065 107.776 5.80664 107.231 5.80664C106.686 5.80664 106.266 5.97508 105.978 6.30311C105.694 6.62226 105.553 7.04337 105.553 7.55757V17.9523C105.553 18.4709 105.694 18.8921 105.978 19.2068C106.27 19.5348 106.691 19.7032 107.235 19.7032H113.829C114.254 19.7032 114.617 19.5525 114.905 19.2555C115.192 18.9585 115.339 18.5951 115.339 18.174C115.339 17.7528 115.192 17.3894 114.905 17.0924C114.612 16.7954 114.249 16.6447 113.829 16.6447L113.824 16.6314Z" fill="#A38F8F"/>
<path d="M123.881 6.77793C123.598 6.16622 123.089 5.82933 122.362 5.80273C122.03 5.80273 121.725 5.89582 121.455 6.07313C121.189 6.25044 120.985 6.48537 120.844 6.78237L116.239 17.4785C116.128 17.7002 116.07 17.9484 116.07 18.2099C116.07 18.6665 116.239 19.0655 116.571 19.3891C116.898 19.7126 117.297 19.8767 117.753 19.8767C118.501 19.8767 119.028 19.5309 119.281 18.8749L120.126 16.5698H124.607L125.453 18.8793C125.626 19.3359 126.038 19.8767 126.994 19.8767C127.45 19.8767 127.849 19.7126 128.176 19.3891C128.508 19.0655 128.677 18.6665 128.677 18.2099C128.677 17.9706 128.615 17.7223 128.5 17.4963L123.886 6.7735L123.881 6.77793ZM123.598 13.8082H121.149L122.38 10.4571L123.598 13.8082Z" fill="#A38F8F"/>
<path d="M140.578 11.4409H136.42C136.026 11.4409 135.694 11.5828 135.437 11.8665C135.184 12.1413 135.056 12.4693 135.056 12.8417C135.056 13.214 135.184 13.542 135.437 13.8169C135.694 14.0961 136.026 14.238 136.42 14.238H138.917V16.0953C138.293 16.7824 137.474 17.1193 136.42 17.1193C135.304 17.1193 134.463 16.7558 133.852 16.0022C133.232 15.2442 132.917 14.1804 132.917 12.8417C132.917 11.503 133.232 10.4303 133.856 9.68113C134.472 8.94086 135.313 8.58181 136.42 8.58181C137.452 8.58181 138.479 8.88767 139.497 9.50382C139.674 9.59247 139.86 9.6368 140.046 9.6368C140.454 9.6368 140.79 9.51269 141.047 9.27332C141.308 9.02509 141.441 8.68376 141.441 8.25822C141.441 7.74846 141.202 7.31848 140.75 7.02149C139.604 6.21473 138.147 5.80249 136.42 5.80249C134.361 5.80249 132.687 6.44524 131.443 7.713C130.203 8.98076 129.574 10.7051 129.574 12.8417C129.574 14.9782 130.194 16.6582 131.416 17.9437C132.643 19.2292 134.325 19.8808 136.42 19.8808C138.514 19.8808 140.277 19.1539 141.499 17.762C141.8 17.5271 142.008 17.27 142.11 17.004C142.207 16.7513 142.256 16.4277 142.256 16.0111V13.1387C142.256 12.6511 142.101 12.2432 141.8 11.9241C141.49 11.6005 141.078 11.4365 140.578 11.4365V11.4409Z" fill="#A38F8F"/>
<path d="M152.653 16.9333H147.574V14.2382H150.788C151.16 14.2382 151.479 14.0963 151.745 13.8171C152.006 13.5423 152.135 13.2142 152.135 12.8375C152.135 12.4607 152.002 12.1326 151.745 11.8578C151.484 11.5786 151.16 11.4367 150.788 11.4367H147.574V8.75934H152.653C153.025 8.75934 153.343 8.61749 153.609 8.33823C153.866 8.0634 153.999 7.73538 153.999 7.3586C153.999 6.98182 153.866 6.65379 153.605 6.3834C153.343 6.113 153.02 5.97559 152.653 5.97559H145.878C145.346 5.97559 144.93 6.14403 144.638 6.46762C144.355 6.78678 144.213 7.20789 144.213 7.72208V17.9307C144.213 18.4493 144.355 18.8704 144.638 19.1851C144.93 19.5131 145.346 19.6816 145.878 19.6816H152.653C153.02 19.6816 153.339 19.5486 153.605 19.2826C153.866 19.0211 153.999 18.6931 153.999 18.3163C153.999 17.9395 153.866 17.6159 153.609 17.3367C153.343 17.0574 153.025 16.9156 152.653 16.9156V16.9333Z" fill="#A38F8F"/>
<path d="M16.9054 2.37589C16.9807 0.735781 15.7984 -0.0355141 14.2885 -5.22896e-05C12.7785 0.0354095 11.521 0.868763 11.4413 2.50887C11.4369 2.63742 11.4413 2.76154 11.4457 2.88565C11.4457 3.19595 11.5254 3.48407 11.6405 3.7722C11.6804 3.86972 11.7247 3.96724 11.769 4.06033C11.9948 4.52133 12.2915 4.97347 12.504 5.45664C12.8848 6.33875 12.7785 6.53379 12.7785 6.53379L15.1873 6.47617C15.1873 6.47617 15.0899 6.28556 15.5549 5.38128C16.0198 4.47701 16.7725 3.67468 16.8567 2.77927C16.8788 2.65072 16.8921 2.51331 16.901 2.38032L16.9054 2.37589Z" fill="#A38F8F"/>
<path d="M15.212 6.22339C15.212 6.22339 14.7249 6.48492 13.9899 6.50708C13.2504 6.52481 12.7899 6.28545 12.7899 6.28545C12.7899 6.28545 12.3958 6.61347 12.4888 6.73759C12.5818 6.8617 12.6305 6.83954 12.6305 6.83954C12.6305 6.83954 12.5021 8.11173 12.8165 8.44419C13.1087 8.75004 13.8128 8.71902 13.9146 8.71458C14.0076 8.71458 14.6674 8.71458 14.9862 8.39099C15.3316 8.04524 15.3227 6.77748 15.3227 6.77748C15.3227 6.77748 15.3714 6.79964 15.4733 6.66666C15.5751 6.53811 15.212 6.22782 15.212 6.22782V6.22339Z" fill="#A38F8F"/>
<path d="M13.1628 6.4986C13.1628 6.05532 13.154 5.20867 13.1053 4.45954C13.03 4.46841 12.9592 4.46841 12.8927 4.45067C12.7732 4.41965 12.6182 4.33542 12.5429 4.09606C12.3481 3.46218 12.4057 2.84603 12.6758 2.72634C12.7378 2.69975 12.9016 2.66428 13.061 2.93025C13.1717 3.12086 13.2426 3.62175 13.2868 4.19358C13.3798 4.14925 13.4772 4.08276 13.5658 3.99854C13.5259 3.88772 13.4949 3.75917 13.4905 3.63062C13.4728 3.34249 13.5348 2.90808 13.7296 2.84159C13.7783 2.82386 13.8315 2.83716 13.8713 2.86376C14.0086 2.97458 13.9909 3.39568 13.9687 3.63505C13.9555 3.79463 13.9023 3.92761 13.8093 4.03843C13.8492 4.10935 13.8935 4.16255 13.9422 4.19801C13.9864 4.23347 14.0307 4.24234 14.0706 4.22904L14.1237 4.42408C14.0263 4.45067 13.9245 4.42408 13.827 4.35759C13.7651 4.31326 13.7119 4.2512 13.6632 4.18028C13.5481 4.2778 13.4241 4.35315 13.3045 4.40191C13.3621 5.31062 13.3621 6.31242 13.3621 6.49416H13.1584L13.1628 6.4986ZM12.7909 2.91252C12.7909 2.91252 12.7732 2.90808 12.7643 2.91252C12.6669 2.95684 12.5429 3.39125 12.7422 4.03843C12.782 4.16255 12.844 4.23347 12.9459 4.25563C12.9902 4.2645 13.0433 4.26893 13.0964 4.25563C13.0566 3.67938 12.9902 3.19178 12.8927 3.02777C12.8529 2.96128 12.8175 2.92582 12.7909 2.91252ZM13.7695 3.08539C13.7296 3.18291 13.6853 3.38682 13.6986 3.61732C13.6986 3.67938 13.7119 3.74144 13.7252 3.79906C13.7518 3.74144 13.7651 3.68381 13.7739 3.61732C13.796 3.37352 13.7872 3.18735 13.7739 3.08539H13.7695Z" fill="#FBF9F9"/>
<path d="M14.5189 6.45872C14.5277 6.38336 14.6207 5.32837 14.7713 4.36647C14.6561 4.32214 14.5454 4.25565 14.4392 4.167C14.3816 4.25122 14.3152 4.31771 14.2488 4.36647C14.1558 4.43296 14.0539 4.45512 13.9609 4.43296L14.0052 4.23349C14.0539 4.24235 14.1026 4.22019 14.1336 4.19803C14.1912 4.15813 14.2488 4.09607 14.2975 4.01628C14.2178 3.90547 14.1779 3.77248 14.1779 3.61734C14.1779 3.4223 14.1912 2.95686 14.3417 2.85048C14.3816 2.81945 14.4303 2.81058 14.479 2.82831C14.665 2.89037 14.7004 3.32921 14.6561 3.62177C14.6384 3.75032 14.5986 3.87444 14.5454 3.98969C14.6251 4.06504 14.7137 4.12267 14.8067 4.167C14.9041 3.58631 15.0236 3.06768 15.1521 2.87707C15.3336 2.60668 15.4842 2.62884 15.5639 2.67317C15.8163 2.80615 15.8163 3.40457 15.5639 4.04288C15.4576 4.30441 15.2805 4.39307 15.1476 4.41523C15.0901 4.4241 15.0325 4.42853 14.9705 4.41966C14.851 5.17766 14.7624 6.03318 14.7181 6.48088L14.5189 6.46315V6.45872ZM15.4709 2.84161C15.4709 2.84161 15.4 2.85491 15.3203 2.97902C15.2052 3.14747 15.0989 3.6395 15.0015 4.21132C15.0369 4.21132 15.0768 4.21132 15.1078 4.20689C15.2273 4.18473 15.3203 4.10051 15.3735 3.95866C15.6259 3.32035 15.555 2.88594 15.4664 2.84161H15.4709ZM14.4392 3.07211C14.4082 3.16963 14.3816 3.36467 14.3816 3.61734C14.3816 3.6794 14.3904 3.73702 14.4082 3.78578C14.4303 3.71929 14.448 3.6528 14.4569 3.58631C14.4923 3.36467 14.4702 3.16963 14.4392 3.07211Z" fill="#FBF9F9"/>
<path d="M12.6349 6.92795C12.5906 6.90578 12.5685 6.85259 12.5862 6.80383C12.6039 6.75064 12.6615 6.72404 12.7146 6.74177C12.7146 6.74177 13.1751 6.89692 13.9589 6.89692C14.7382 6.89692 15.2828 6.67971 15.2872 6.67528C15.3404 6.65312 15.3979 6.67528 15.4201 6.72847C15.4422 6.78167 15.4201 6.83929 15.367 6.86145C15.3448 6.87032 14.7825 7.09639 13.9589 7.09639C13.1397 7.09639 12.6703 6.93238 12.6482 6.92795H12.6349Z" fill="#A38F8F"/>
<path d="M12.9066 7.50443C12.8623 7.48226 12.8402 7.4335 12.8534 7.38474C12.8711 7.33155 12.9243 7.30052 12.9774 7.31825C12.9818 7.31825 13.5176 7.47783 14.0667 7.4202C14.6202 7.35815 14.9124 7.22516 14.9124 7.22516C14.9611 7.203 15.0231 7.22516 15.0453 7.27392C15.0674 7.32268 15.0453 7.38474 14.9966 7.40691C14.9833 7.41134 14.6778 7.55319 14.0844 7.61968C13.4911 7.68617 12.9376 7.51773 12.9154 7.51329C12.911 7.51329 12.9066 7.51329 12.9021 7.50886L12.9066 7.50443Z" fill="#A38F8F"/>
<path d="M12.8831 8.04544C12.8389 8.02328 12.8167 7.97452 12.83 7.92576C12.8477 7.87256 12.9008 7.84154 12.954 7.85927C12.9584 7.85927 13.4942 8.01885 14.0433 7.96122C14.5968 7.89916 14.889 7.76618 14.889 7.76618C14.9377 7.74402 14.9997 7.76618 15.0218 7.81494C15.044 7.8637 15.0218 7.92576 14.9731 7.94792C14.9598 7.95235 14.6543 8.0942 14.0654 8.16069C13.4721 8.22718 12.9186 8.05874 12.8964 8.05431C12.892 8.05431 12.8876 8.05431 12.8831 8.04987V8.04544Z" fill="#A38F8F"/>
</g>
<defs>
<clipPath id="clip0_215_662">
<rect width="154" height="24" fill="white"/>
</clipPath>
</defs>
</svg>
