<svg width="181" height="46" viewBox="0 0 181 46" fill="none" xmlns="http://www.w3.org/2000/svg">
<path fill-rule="evenodd" clip-rule="evenodd" d="M57.5236 37.4538C59.5519 34.535 61.5768 31.6139 63.6097 28.6982C64.9493 26.7763 66.285 24.8514 67.6568 22.9526C67.9988 22.4794 68.0207 22.1467 67.6699 21.6605C66.2176 19.6488 64.8093 17.6055 63.2719 15.4125C65.0388 15.4125 66.6403 15.396 68.2406 15.4344C68.4299 15.4389 68.6476 15.7182 68.7916 15.9143C69.4217 16.7729 70.0294 17.6479 70.6456 18.5171C70.7161 18.4657 70.7479 18.4537 70.7617 18.4307C72.9763 14.6981 76.62 12.4052 79.7305 9.57743C80.8201 8.58687 81.9801 7.67366 83.1078 6.72516C83.6396 6.69544 83.6824 7.04359 83.6622 7.44023C80.389 12.1333 77.1286 16.8357 73.8265 21.5083C73.4043 22.1058 73.383 22.4959 73.8181 23.0858C75.0875 24.8065 76.2897 26.5768 77.5145 28.3302C77.6733 28.5576 77.8093 28.8007 78.0471 29.1831C76.3244 29.1831 74.7472 29.2033 73.1718 29.1593C72.9597 29.1534 72.7155 28.8538 72.557 28.6384C71.9422 27.8025 71.3561 26.9458 70.7627 26.1018C70.6626 26.1544 70.5942 26.1666 70.5714 26.2057C68.6016 29.5798 65.4403 31.8084 62.6562 34.3965C61.3242 35.6345 59.9342 36.8105 58.5704 38.0144C58.4706 38.1002 58.371 38.1859 58.2714 38.2716C58.2108 38.3244 58.1502 38.3769 58.0896 38.4298C57.9827 38.399 57.8302 38.3076 57.7766 38.3476C57.5117 38.5454 57.273 38.7781 56.9444 39.0699C56.8826 38.7819 56.8478 38.6201 56.8132 38.4581C56.8055 38.4115 56.8247 38.3835 56.8711 38.3747C57.0886 38.0679 57.3061 37.7608 57.5236 37.4538Z" fill="#A38F8F"/>
<path fill-rule="evenodd" clip-rule="evenodd" d="M131.64 29.191C130.466 29.191 129.339 29.2199 128.216 29.1683C127.971 29.1571 127.665 28.9077 127.513 28.6832C126.221 26.7665 124.957 24.8301 123.584 22.7455C123.584 24.9842 123.584 27.057 123.584 29.1606C122.293 29.1606 121.051 29.1606 119.741 29.1606C119.741 25.0858 119.741 20.9973 119.741 16.7897C120.883 16.7897 122.06 16.764 123.235 16.8131C123.45 16.8224 123.707 17.0994 123.852 17.3155C125.008 19.0461 126.141 20.7919 127.283 22.5323C127.434 22.7619 127.592 22.987 127.803 23.2977C127.803 21.0757 127.803 18.9865 127.803 16.8437C129.074 16.8437 130.332 16.8437 131.64 16.8437C131.64 20.9264 131.64 24.9928 131.64 29.191Z" fill="#A38F8F"/>
<path fill-rule="evenodd" clip-rule="evenodd" d="M103.842 29.1598C102.502 29.1598 101.209 29.1598 99.8328 29.1598C99.8328 27.6994 99.8328 26.2665 99.8328 24.779C98.544 24.779 97.3365 24.779 96.0555 24.779C96.0555 26.2032 96.0555 27.6405 96.0555 29.1342C94.6438 29.1342 93.3038 29.1342 91.918 29.1342C91.918 25.0392 91.918 20.9695 91.918 16.845C93.2681 16.845 94.5889 16.845 95.992 16.845C95.992 18.2602 95.992 19.6945 95.992 21.1938C97.2938 21.1938 98.5146 21.1938 99.7947 21.1938C99.7947 19.7407 99.7947 18.3293 99.7947 16.8547C101.165 16.8547 102.479 16.8547 103.842 16.8547C103.842 20.9237 103.842 24.9949 103.842 29.1598Z" fill="#A38F8F"/>
<path fill-rule="evenodd" clip-rule="evenodd" d="M145.89 21.0787C144.661 21.0787 143.51 21.0987 142.36 21.0584C142.175 21.0519 141.932 20.811 141.831 20.6184C141.418 19.8269 140.737 19.5225 139.905 19.5316C139.047 19.541 138.402 19.9642 138.069 20.7584C137.461 22.2033 137.408 23.6807 137.994 25.1424C138.375 26.0918 139.189 26.4632 140.153 26.445C141.029 26.4283 141.764 26.0857 142.242 25.1026C141.607 25.1026 141.078 25.1026 140.502 25.1026C140.502 24.1512 140.502 23.3026 140.502 22.4026C142.328 22.4026 144.141 22.4026 146.019 22.4026C146.019 24.6441 146.019 26.8833 146.019 29.1869C145.163 29.1869 144.31 29.1869 143.441 29.1869C143.38 28.8877 143.318 28.587 143.238 28.1956C141.462 29.6826 139.503 29.8423 137.471 29.2063C134.829 28.3797 133.412 26.0706 133.485 22.894C133.602 17.791 138.57 14.831 143.141 17.1404C144.654 17.905 145.58 19.1895 145.89 21.0787Z" fill="#A38F8F"/>
<path fill-rule="evenodd" clip-rule="evenodd" d="M22.9112 16.8198C24.2841 16.8198 25.5834 16.8198 26.9931 16.8198C26.9931 17.3039 26.9931 17.7581 26.9931 18.2124C26.9925 20.269 26.9659 22.326 26.9995 24.3821C27.0265 26.0303 27.8513 26.6952 29.3783 26.3859C30.2457 26.2102 30.7059 25.6253 30.7221 24.5315C30.7552 22.2728 30.7489 20.0135 30.7585 17.7542C30.7597 17.4692 30.7587 17.1845 30.7587 16.8455C32.1386 16.8455 33.4568 16.8455 34.8793 16.8455C34.8793 17.7376 34.8849 18.6257 34.8781 19.5137C34.8647 21.2507 34.9462 22.9957 34.8043 24.7224C34.5593 27.7012 33.2733 29.064 30.3237 29.4151C29.0781 29.5634 27.7607 29.4909 26.5249 29.2592C24.3191 28.8456 23.0535 27.3233 22.9393 24.8658C22.8156 22.2125 22.9112 19.5495 22.9112 16.8198Z" fill="#A38F8F"/>
<path fill-rule="evenodd" clip-rule="evenodd" d="M148.514 16.8257C151.975 16.8257 155.386 16.8257 158.836 16.8257C158.836 17.7973 158.836 18.7343 158.836 19.7249C156.77 19.7249 154.749 19.7249 152.67 19.7249C152.67 20.3132 152.67 20.8507 152.67 21.4872C154.233 21.4872 155.837 21.4872 157.478 21.4872C157.478 22.5014 157.478 23.4186 157.478 24.4324C155.9 24.4324 154.296 24.4324 152.654 24.4324C152.654 25.0912 152.654 25.6545 152.654 26.3C154.73 26.3 156.775 26.3 158.839 26.3C158.839 27.2956 158.839 28.2083 158.839 29.1561C155.386 29.1561 151.976 29.1561 148.514 29.1561C148.514 25.06 148.514 20.9914 148.514 16.8257Z" fill="#A38F8F"/>
<path fill-rule="evenodd" clip-rule="evenodd" d="M60.907 26.2784C60.907 27.3129 60.907 28.2013 60.907 29.1409C57.4678 29.1409 54.0615 29.1409 50.6025 29.1409C50.6025 25.0652 50.6025 20.9946 50.6025 16.8567C54.0034 16.8567 57.4351 16.8567 60.885 16.8567C60.885 17.8021 60.885 18.7434 60.885 19.7601C58.7873 19.7601 56.7407 19.7601 54.6544 19.7601C54.6544 20.3467 54.6544 20.8591 54.6544 21.4669C56.2429 21.4669 57.85 21.4669 59.5003 21.4669C59.5003 22.503 59.5003 23.4451 59.5003 24.4525C57.8886 24.4525 56.3045 24.4525 54.6673 24.4525C54.6673 25.0759 54.6673 25.6354 54.6673 26.2784C56.743 26.2784 58.7902 26.2784 60.907 26.2784Z" fill="#A38F8F"/>
<path fill-rule="evenodd" clip-rule="evenodd" d="M90.3167 21.5042C88.837 21.5042 87.5982 21.5042 86.3055 21.5042C86.0465 20.4881 85.5695 19.6541 84.3478 19.5526C83.391 19.473 82.6886 19.7847 82.2867 20.6516C81.5979 22.1379 81.5854 23.6809 82.1365 25.2069C82.4401 26.0477 83.255 26.478 84.2281 26.4499C85.1386 26.4238 85.7592 25.9908 86.0825 25.1411C86.1643 24.9262 86.2282 24.7043 86.3061 24.4681C87.5909 24.4681 88.8602 24.4681 90.196 24.4681C90.064 25.8766 89.5344 27.0525 88.5405 27.999C85.911 30.5032 80.6915 29.8945 78.6973 26.8642C76.3527 23.3009 77.938 18.1015 81.7717 16.7814C84.5431 15.8271 87.9342 16.733 89.2591 18.881C89.7264 19.6381 89.9418 20.5494 90.3167 21.5042Z" fill="#A38F8F"/>
<path fill-rule="evenodd" clip-rule="evenodd" d="M105.237 29.1903C106.467 25.7683 107.657 22.4587 108.846 19.149C108.875 19.0674 108.899 18.9838 108.931 18.9035C109.208 18.2139 109.306 17.2786 109.816 16.9071C110.294 16.5585 111.209 16.7952 111.931 16.7935C113.866 16.7884 113.867 16.7917 114.519 18.5999C115.694 21.8587 116.868 25.118 118.04 28.3779C118.126 28.6184 118.197 28.8646 118.29 29.1559C116.913 29.1559 115.59 29.1559 114.236 29.1559C114.072 28.6468 113.915 28.1589 113.744 27.6267C112.658 27.6267 111.586 27.6682 110.52 27.6107C109.911 27.5778 109.585 27.7574 109.519 28.3622C109.446 29.0318 109.094 29.2501 108.415 29.207C107.406 29.1428 106.39 29.1903 105.237 29.1903ZM113.018 24.9852C112.599 23.548 112.211 22.2176 111.752 20.6405C111.29 22.235 110.899 23.584 110.493 24.9852C111.334 24.9852 112.107 24.9852 113.018 24.9852Z" fill="#A38F8F"/>
<path fill-rule="evenodd" clip-rule="evenodd" d="M40.0186 29.1669C38.6913 29.1669 37.4213 29.1669 36.0273 29.1669C36.3717 28.1697 36.6876 27.2278 37.0219 26.2925C38.0598 23.389 39.1207 20.4933 40.1346 17.5812C40.3484 16.9675 40.6503 16.7373 41.3095 16.7728C42.4047 16.8316 43.5055 16.7888 44.6367 16.7888C46.1178 20.9174 47.5847 25.0063 49.0856 29.1903C47.7628 29.1903 46.5499 29.2131 45.34 29.1655C45.1612 29.1585 44.8706 28.8352 44.8453 28.6317C44.7341 27.7405 44.234 27.5144 43.4224 27.6171C42.9948 27.6714 42.5546 27.6267 42.1202 27.6265C40.4955 27.6257 40.4955 27.6257 40.0186 29.1669ZM42.5069 20.625C42.0502 22.2293 41.6646 23.5847 41.27 24.971C42.1751 24.971 42.9415 24.971 43.77 24.971C43.3591 23.5572 42.9671 22.2088 42.5069 20.625Z" fill="#A38F8F"/>
<path fill-rule="evenodd" clip-rule="evenodd" d="M77.7785 35.8289C78.2277 35.7319 78.5807 35.6092 78.8533 36.1875C79.1178 36.7487 80.2562 36.7695 80.5508 36.2333C80.6556 36.0425 80.5224 35.604 80.3492 35.4122C80.1805 35.2256 79.8242 35.2019 79.5461 35.1209C78.9573 34.9497 78.276 34.8272 78.1967 34.0866C78.1133 33.3055 78.3822 32.5993 79.0442 32.0992C79.6551 31.6377 80.8275 31.5385 81.4331 31.9219C81.974 32.2647 82.2335 32.7423 82.0153 33.4393C81.5548 33.5883 81.1987 33.6171 80.8942 33.0606C80.6112 32.5435 79.8681 32.5635 79.4899 33.0291C79.2056 33.3792 79.1526 33.7198 79.6882 33.8963C80.128 34.041 80.5811 34.1493 81.0127 34.3141C81.7071 34.579 81.9897 35.0664 81.81 35.8237C81.4489 37.3447 79.6544 38.1373 78.3028 37.357C77.6906 37.0044 77.6446 36.4718 77.7785 35.8289Z" fill="#A38F8F"/>
<path fill-rule="evenodd" clip-rule="evenodd" d="M131.998 33.8261C131.675 33.6175 131.287 33.4659 131.044 33.1878C130.613 32.6942 129.753 32.5611 129.418 33.1647C129.014 33.89 128.803 34.7488 128.662 35.576C128.619 35.8327 129.053 36.3957 129.313 36.4246C129.696 36.4673 130.222 36.2575 130.499 35.973C130.855 35.607 131.12 35.3038 131.652 35.5553C131.649 36.6291 130.534 37.648 129.361 37.6567C128.203 37.6654 127.546 36.9816 127.518 35.725C127.488 34.4017 127.775 33.1849 128.843 32.2951C129.555 31.7014 130.405 31.4772 131.273 31.859C131.958 32.1604 132.302 32.7594 131.998 33.8261Z" fill="#A38F8F"/>
<path fill-rule="evenodd" clip-rule="evenodd" d="M145.649 36.0712C145.51 37.084 144.936 37.4238 144.222 37.579C143.236 37.7928 142.516 37.2166 142.492 36.2088C142.455 34.6758 143.05 33.591 144.112 33.2528C145.155 32.9206 145.995 33.4348 146.134 34.49C146.256 35.4241 145.985 35.7301 145.03 35.7308C144.77 35.731 144.505 35.6963 144.251 35.7361C144.019 35.7724 143.776 35.8548 143.592 35.9902C143.541 36.0268 143.655 36.4609 143.749 36.4841C143.999 36.5453 144.29 36.5219 144.545 36.4576C144.922 36.3627 145.282 36.2031 145.649 36.0712ZM143.737 34.58C143.771 34.664 143.804 34.7481 143.838 34.8321C144.237 34.8321 144.636 34.8321 145.035 34.8321C144.935 34.4888 144.737 34.2041 144.557 34.2145C144.278 34.2307 144.01 34.4479 143.737 34.58Z" fill="#A38F8F"/>
<path fill-rule="evenodd" clip-rule="evenodd" d="M102.576 36.3166C102.221 37.1523 101.451 37.6819 100.66 37.636C99.867 37.5898 99.3652 37.1243 99.3295 36.3116C99.2781 35.1401 99.4397 33.9808 100.631 33.4305C101.113 33.208 101.899 33.1807 102.324 33.4355C102.7 33.6611 102.846 34.3857 102.949 34.918C103.053 35.4571 102.756 35.7861 102.139 35.7345C101.765 35.7032 101.384 35.6989 101.011 35.7316C100.803 35.7496 100.554 35.8216 100.423 35.9619C100.354 36.0357 100.449 36.4171 100.56 36.4685C100.767 36.565 101.057 36.5866 101.28 36.5238C101.686 36.41 102.068 36.2118 102.46 36.049C102.498 36.1383 102.537 36.2275 102.576 36.3166ZM100.562 34.5801C100.597 34.6652 100.632 34.7502 100.667 34.8354C101.07 34.8354 101.474 34.8354 101.877 34.8354C101.772 34.4947 101.573 34.1998 101.389 34.2088C101.108 34.222 100.837 34.4455 100.562 34.5801Z" fill="#A38F8F"/>
<path fill-rule="evenodd" clip-rule="evenodd" d="M85.7128 36.0622C85.2514 37.3832 83.9781 37.9314 83.0076 37.3929C82.8387 37.2991 82.6782 37.1445 82.5784 36.9792C81.8767 35.8161 82.7645 33.5397 84.0996 33.2736C84.5931 33.1752 85.4015 33.3028 85.6444 33.6347C85.9608 34.067 85.8866 34.8047 85.9049 35.4132C85.9078 35.5119 85.5236 35.6989 85.3098 35.7128C84.6842 35.7535 84.0542 35.7273 83.4079 35.7273C83.5726 36.6733 83.8517 36.8032 84.5626 36.435C84.8762 36.2727 85.2419 36.2106 85.7128 36.0622ZM84.9365 34.8493C84.9739 34.7798 85.0115 34.7101 85.0489 34.6408C84.8416 34.4856 84.6182 34.1882 84.4306 34.2094C84.1601 34.2398 83.9156 34.5012 83.6598 34.6639C83.7032 34.7256 83.7464 34.7875 83.7895 34.8493C84.1719 34.8493 84.5541 34.8493 84.9365 34.8493Z" fill="#A38F8F"/>
<path fill-rule="evenodd" clip-rule="evenodd" d="M113.612 35.8604C113.635 34.5276 114.48 33.4329 115.664 33.2017C116.639 33.0111 117.359 33.5323 117.495 34.5279C117.671 35.8211 116.981 37.0809 115.878 37.4787C114.615 37.9345 113.588 37.2015 113.612 35.8604ZM116.433 34.7351C116.319 34.6419 116.067 34.2717 115.762 34.2204C115.188 34.1242 114.679 34.8922 114.668 35.7222C114.662 36.2097 114.81 36.5892 115.378 36.6017C115.988 36.6152 116.431 35.9572 116.433 34.7351Z" fill="#A38F8F"/>
<path fill-rule="evenodd" clip-rule="evenodd" d="M154.523 39.0846C154.792 38.6939 154.91 38.3267 155.144 38.2225C155.692 37.9795 155.744 37.6279 155.668 37.1084C155.491 35.8914 155.365 34.667 155.22 33.4575C156.284 33.2185 156.375 33.2748 156.415 34.2158C156.437 34.7482 156.419 35.2823 156.419 35.8156C156.509 35.8309 156.599 35.8462 156.689 35.8615C156.972 35.2236 157.29 34.5985 157.527 33.9441C157.736 33.3641 158.056 33.1564 158.725 33.4364C158.665 33.6348 158.63 33.851 158.538 34.0385C157.847 35.4367 157.129 36.8213 156.454 38.2264C156.122 38.9174 155.621 39.2162 154.523 39.0846Z" fill="#A38F8F"/>
<path fill-rule="evenodd" clip-rule="evenodd" d="M108.834 34.5339C109.694 35.0432 111.238 34.8327 110.771 36.4611C110.566 37.1755 109.708 37.6384 108.821 37.5721C108.014 37.5115 107.422 37.2365 107.413 36.0419C107.843 36.1843 108.237 36.231 108.526 36.4295C109.016 36.766 109.386 36.7799 109.844 36.1801C109.432 36.0282 109.103 35.8935 108.766 35.7855C107.85 35.4921 107.578 34.7811 108.083 33.9704C108.574 33.1806 109.91 32.8577 110.598 33.437C110.826 33.6292 110.846 34.0686 110.962 34.395C110.634 34.3771 110.247 34.4644 109.992 34.3196C109.445 34.0099 109.473 33.9608 108.834 34.5339Z" fill="#A38F8F"/>
<path fill-rule="evenodd" clip-rule="evenodd" d="M146.44 37.3463C146.676 36.1039 146.897 34.889 147.147 33.6799C147.174 33.5457 147.351 33.3573 147.477 33.342C148.142 33.2617 148.831 33.1213 149.476 33.2238C149.804 33.2761 150.316 33.8087 150.3 34.0997C150.243 35.1299 150.033 36.159 149.783 37.1642C149.737 37.35 149.235 37.423 148.734 37.6383C148.928 36.5987 149.106 35.8463 149.19 35.084C149.221 34.8074 149.029 34.5064 148.939 34.2165C148.634 34.3797 148.15 34.4755 148.057 34.7195C147.804 35.3857 147.675 36.1086 147.573 36.82C147.482 37.4536 147.182 37.599 146.44 37.3463Z" fill="#A38F8F"/>
<path fill-rule="evenodd" clip-rule="evenodd" d="M134.119 33.4919C133.983 34.1973 133.803 34.8979 133.734 35.6097C133.705 35.9149 133.909 36.2424 134.007 36.5597C134.315 36.3543 134.783 36.2137 134.897 35.9304C135.142 35.3248 135.257 34.6509 135.328 33.9944C135.404 33.2829 135.761 33.2159 136.468 33.4329C136.221 34.6963 135.98 35.9568 135.717 37.2124C135.695 37.316 135.528 37.4533 135.418 37.4636C134.778 37.524 134.132 37.6075 133.494 37.5729C132.902 37.5407 132.509 37.1705 132.595 36.5314C132.721 35.5897 132.858 34.6438 133.098 33.7276C133.158 33.4991 133.631 33.3781 133.913 33.2078C133.982 33.3025 134.05 33.3972 134.119 33.4919Z" fill="#A38F8F"/>
<path fill-rule="evenodd" clip-rule="evenodd" d="M122.012 33.4218C121.768 34.688 121.544 35.9019 121.286 37.1081C121.255 37.2524 121.044 37.4424 120.896 37.4626C120.316 37.5416 119.727 37.6011 119.143 37.5915C118.557 37.5821 118.083 37.2896 118.151 36.6425C118.257 35.6431 118.422 34.6433 118.668 33.6703C118.719 33.4699 119.236 33.387 119.727 33.1638C119.529 34.1966 119.348 34.9245 119.267 35.6631C119.236 35.9438 119.434 36.2495 119.528 36.544C119.841 36.3529 120.321 36.2306 120.435 35.9572C120.684 35.3542 120.807 34.6809 120.872 34.0254C120.941 33.3314 121.27 33.2151 122.012 33.4218Z" fill="#A38F8F"/>
<path fill-rule="evenodd" clip-rule="evenodd" d="M98.5004 35.8429C98.3038 37.0882 97.6136 37.6488 96.6714 37.6081C96.0923 37.5831 95.6302 37.3533 95.4397 36.7173C95.0736 35.4951 95.8445 33.7143 96.9577 33.2885C97.7886 32.9709 98.7152 33.2849 98.9121 34.0001C98.978 34.2393 98.8543 34.5304 98.8176 34.7977C98.5293 34.7355 98.1619 34.7635 97.967 34.594C97.3573 34.0646 97.0332 34.0754 96.6979 34.7904C96.5654 35.0727 96.4475 35.3942 96.4492 35.6972C96.4508 35.9803 96.6197 36.2626 96.715 36.5451C96.9878 36.451 97.2646 36.3667 97.5328 36.2603C97.8591 36.131 98.1781 35.9829 98.5004 35.8429Z" fill="#A38F8F"/>
<path fill-rule="evenodd" clip-rule="evenodd" d="M154.226 35.7947C153.88 37.0569 153.217 37.6662 152.307 37.5773C151.877 37.5356 151.309 37.2662 151.1 36.9212C150.406 35.7768 151.325 33.6606 152.604 33.2508C153.368 33.0061 154.235 33.317 154.436 33.9667C154.505 34.1899 154.368 34.4765 154.324 34.7341C154.042 34.6816 153.679 34.7218 153.493 34.5596C152.932 34.0731 152.581 34.086 152.256 34.7501C152.131 35.0054 152.002 35.3037 152.02 35.5726C152.042 35.9103 152.214 36.2383 152.321 36.5703C152.585 36.4484 152.846 36.3172 153.115 36.2072C153.425 36.0806 153.742 35.9732 154.226 35.7947Z" fill="#A38F8F"/>
<path fill-rule="evenodd" clip-rule="evenodd" d="M89.5986 33.4233C90.4616 33.1668 90.8601 33.3366 90.7981 34.1792C90.7586 34.717 90.7908 35.26 90.7908 35.8006C90.8848 35.8247 90.9787 35.8487 91.0725 35.8729C91.3468 35.2431 91.6447 34.6224 91.8888 33.9813C92.1329 33.3401 92.5309 33.1546 93.2338 33.445C92.6004 34.7012 92.0072 35.9499 91.3299 37.1512C91.2122 37.3602 90.74 37.4335 90.4295 37.4379C90.3127 37.4396 90.1171 37.0798 90.0827 36.8648C89.9009 35.7326 89.759 34.5934 89.5986 33.4233Z" fill="#A38F8F"/>
<path fill-rule="evenodd" clip-rule="evenodd" d="M122.277 37.3559C122.515 36.1156 122.736 34.9012 122.993 33.6944C123.025 33.5467 123.238 33.3494 123.386 33.3304C123.946 33.2599 124.515 33.2536 125.144 33.2197C125.149 33.7996 125.251 34.3356 124.385 34.4494C124.128 34.483 123.847 34.9396 123.728 35.2584C123.548 35.7393 123.45 36.2656 123.41 36.7799C123.356 37.4719 123.029 37.612 122.277 37.3559Z" fill="#A38F8F"/>
<path fill-rule="evenodd" clip-rule="evenodd" d="M139.58 37.3692C139.808 36.1464 140.016 34.957 140.264 33.7759C140.301 33.6012 140.516 33.3482 140.668 33.3341C141.237 33.2816 141.815 33.3131 142.453 33.3131C142.491 33.7924 142.542 34.2685 141.748 34.43C141.456 34.4894 141.162 34.9427 141.029 35.2794C140.851 35.727 140.81 36.2336 140.743 36.7194C140.654 37.3639 140.361 37.6565 139.58 37.3692Z" fill="#A38F8F"/>
<path fill-rule="evenodd" clip-rule="evenodd" d="M139.521 33.3139C139.603 33.795 139.741 34.2822 138.888 34.4323C138.605 34.4824 138.316 34.956 138.183 35.2957C137.995 35.7724 137.907 36.3007 137.855 36.815C137.788 37.4626 137.445 37.5693 136.726 37.3873C136.976 36.1091 137.217 34.8267 137.492 33.5511C137.514 33.4477 137.756 33.3325 137.901 33.3246C138.418 33.2972 138.939 33.3139 139.521 33.3139Z" fill="#A38F8F"/>
<path fill-rule="evenodd" clip-rule="evenodd" d="M89.1901 33.3138C89.2665 33.8166 89.2662 34.2555 88.4879 34.4328C88.1799 34.5029 87.8898 34.9965 87.7477 35.3584C87.5724 35.8049 87.5506 36.3136 87.4792 36.7981C87.3953 37.368 87.1278 37.6278 86.3682 37.3459C86.5834 36.1136 86.7948 34.8533 87.0371 33.5989C87.0592 33.4843 87.2758 33.3336 87.4087 33.3267C87.981 33.2964 88.556 33.3138 89.1901 33.3138Z" fill="#A38F8F"/>
<path fill-rule="evenodd" clip-rule="evenodd" d="M162.342 16.7735C163.531 16.7847 164.436 17.6835 164.439 18.8541C164.441 20.0297 163.434 21.0203 162.273 20.9845C161.133 20.9494 160.211 19.9767 160.226 18.8247C160.241 17.6412 161.148 16.7622 162.342 16.7735ZM162.274 17.0873C161.331 17.11 160.532 17.9631 160.561 18.9182C160.591 19.8851 161.414 20.6593 162.385 20.6341C163.342 20.6092 164.111 19.7868 164.093 18.8084C164.074 17.8514 163.243 17.0642 162.274 17.0873Z" fill="#A38F8F"/>
<path fill-rule="evenodd" clip-rule="evenodd" d="M93.167 37.6212C93.4513 36.143 93.6469 34.9299 93.9456 33.7428C94.0036 33.5118 94.4635 33.3816 94.7379 33.2048C94.8197 33.2808 94.9012 33.3566 94.9829 33.4324C94.7436 34.6864 94.5355 35.9479 94.2301 37.1857C94.1861 37.3628 93.6721 37.4247 93.167 37.6212Z" fill="#A38F8F"/>
<path fill-rule="evenodd" clip-rule="evenodd" d="M105.391 37.3355C105.622 36.124 105.815 34.9033 106.117 33.7098C106.173 33.4883 106.664 33.3764 106.955 33.2139C107.019 33.2886 107.084 33.3632 107.148 33.4377C106.923 34.6195 106.733 35.8101 106.445 36.976C106.382 37.2307 105.963 37.3977 105.708 37.6049C105.603 37.5152 105.496 37.4253 105.391 37.3355Z" fill="#A38F8F"/>
<path fill-rule="evenodd" clip-rule="evenodd" d="M56.8133 38.4584C56.8479 38.6204 56.8827 38.782 56.9445 39.0702C57.2731 38.7782 57.5118 38.5455 57.7766 38.3478C57.8304 38.3079 57.9828 38.3993 58.0897 38.43C57.3112 39.1368 56.5329 39.8438 55.7543 40.5507C55.6526 40.459 55.5509 40.3668 55.4492 40.2751C55.9038 39.6695 56.3585 39.0639 56.8133 38.4584Z" fill="#A38F8F"/>
<path fill-rule="evenodd" clip-rule="evenodd" d="M83.6628 7.44022C83.683 7.04358 83.6402 6.69544 83.1084 6.72516C83.7117 6.18165 84.3152 5.63831 84.9185 5.09497C85.0143 5.17162 85.1101 5.24845 85.2058 5.32492C84.6916 6.03008 84.1771 6.73507 83.6628 7.44022Z" fill="#A38F8F"/>
<path fill-rule="evenodd" clip-rule="evenodd" d="M106.336 32.7258C106.241 31.9636 106.481 31.62 107.241 31.8291C107.427 32.8066 107.352 32.8862 106.336 32.7258Z" fill="#A38F8F"/>
<path fill-rule="evenodd" clip-rule="evenodd" d="M94.1406 32.7305C94.1781 32.087 94.2587 31.568 95.072 31.842C95.2268 32.8325 95.1838 32.877 94.1406 32.7305Z" fill="#A38F8F"/>
<path fill-rule="evenodd" clip-rule="evenodd" d="M57.5235 37.4539C57.306 37.761 57.0886 38.0679 56.8711 38.3752C57.0886 38.0681 57.306 37.7608 57.5235 37.4539Z" fill="#A38F8F"/>
<path fill-rule="evenodd" clip-rule="evenodd" d="M161.914 18.7639C161.855 19.4053 161.827 19.7117 161.8 20.018C161.742 20.0197 161.685 20.0213 161.628 20.0227C161.628 19.2796 161.628 18.5366 161.628 17.5554C162.225 17.7447 162.797 17.89 163.316 18.1433C163.371 18.1698 163.115 18.8317 162.961 19.3382C162.999 19.406 163.136 19.6507 163.273 19.8956C163.226 19.9426 163.179 19.9895 163.131 20.0366C162.779 19.6686 162.427 19.3007 161.914 18.7639ZM162.996 18.6157C163.026 18.4869 163.055 18.3583 163.085 18.2293C162.748 18.1719 162.409 18.0713 162.075 18.085C161.983 18.0889 161.905 18.4332 161.756 18.762C162.297 18.6982 162.647 18.6569 162.996 18.6157Z" fill="#A38F8F"/>
</svg>
