<svg width="161" height="24" viewBox="0 0 161 24" fill="none" xmlns="http://www.w3.org/2000/svg">
<path d="M0.826172 9.8362V0H4.54305V9.98733C4.54305 11.5719 4.58906 12.5992 4.68107 13.0691C4.83994 13.8236 5.21682 14.4316 5.81173 14.893C6.41407 15.3458 7.23442 15.5722 8.27279 15.5722C9.32717 15.5722 10.1224 15.3584 10.6584 14.9308C11.1939 14.4946 11.5162 13.9619 11.6254 13.3328C11.7339 12.7042 11.7882 11.6603 11.7882 10.2011V0H15.5051V9.68507C15.5051 11.8988 15.4048 13.4627 15.2042 14.3769C15.0031 15.2911 14.6305 16.0625 14.0864 16.6911C13.5504 17.3202 12.8303 17.8234 11.9262 18.2006C11.0222 18.5699 9.84178 18.7545 8.38509 18.7545C6.62723 18.7545 5.29226 18.5533 4.38018 18.1508C3.47611 17.7398 2.76033 17.2114 2.23286 16.5657C1.70539 15.9114 1.35793 15.2279 1.19049 14.5152C0.947611 13.459 0.826172 11.8993 0.826172 9.8362ZM18.1548 14.6285L21.6959 14.0875C21.8462 14.7751 22.1517 15.2991 22.6123 15.6598C23.0729 16.0118 23.7175 16.1879 24.5462 16.1879C25.4588 16.1879 26.1451 16.0204 26.6052 15.6855C26.9149 15.4503 27.0698 15.1357 27.0698 14.7419C27.0698 14.4734 26.9861 14.2513 26.8186 14.0755C26.6432 13.9078 26.2497 13.7527 25.6382 13.6101C22.7923 12.981 20.9884 12.4065 20.2267 11.8867C19.1717 11.1654 18.6442 10.1634 18.6442 8.88049C18.6442 7.72299 19.1006 6.7501 20.0132 5.96183C20.9259 5.17356 22.3405 4.77942 24.2573 4.77942C26.082 4.77942 27.4381 5.0771 28.3256 5.67245C29.2131 6.26781 29.8243 7.14853 30.1592 8.31462L26.8315 8.93029C26.6892 8.4105 26.4172 8.01236 26.0154 7.73587C25.6217 7.4588 25.0565 7.32026 24.3198 7.32026C23.3906 7.32026 22.7251 7.45021 22.3234 7.71011C22.0554 7.89501 21.9214 8.13401 21.9214 8.4271C21.9214 8.67898 22.0388 8.8928 22.2737 9.06854C22.5914 9.30382 23.6881 9.63527 25.5637 10.0629C27.4467 10.4905 28.7608 11.0146 29.506 11.6351C30.2426 12.2637 30.6109 13.1398 30.6109 14.2636C30.6109 15.488 30.1003 16.5405 29.0791 17.4209C28.0579 18.3014 26.5469 18.7416 24.5462 18.7416C22.7294 18.7416 21.2896 18.3726 20.2267 17.6348C19.1717 16.8969 18.4811 15.8948 18.1548 14.6285ZM41.423 14.188L44.9384 14.7796C44.4864 16.0711 43.7706 17.0563 42.7911 17.7352C41.8202 18.4061 40.6021 18.7416 39.1368 18.7416C36.8183 18.7416 35.1025 17.9828 33.9892 16.4652C33.1103 15.2493 32.6708 13.7146 32.6708 11.861C32.6708 9.64729 33.2483 7.9159 34.4033 6.66681C35.5588 5.40855 37.0195 4.77942 38.7853 4.77942C40.7695 4.77942 42.3351 5.43775 43.482 6.75439C44.629 8.06245 45.1773 10.0709 45.127 12.7798H36.2866C36.3117 13.8279 36.5963 14.6454 37.1404 15.2322C37.685 15.8109 38.363 16.1003 39.1745 16.1003C39.7271 16.1003 40.1917 15.9494 40.5684 15.6478C40.9455 15.3455 41.2304 14.8589 41.423 14.188ZM36.35 10.6159H41.6236C41.5984 9.59291 41.3347 8.81723 40.8324 8.28886C40.33 7.75247 39.7189 7.48427 38.9988 7.48427C38.229 7.48427 37.593 7.76506 37.0906 8.32664C36.5883 8.88879 36.3414 9.65187 36.35 10.6159ZM51.3804 14.3142V18.4402H47.8521V5.08168H51.1292V6.98108C51.6899 6.08348 52.1922 5.49213 52.6362 5.20705C53.0883 4.92196 53.5989 4.77942 54.1681 4.77942C54.9716 4.77942 55.7459 5.00182 56.4911 5.44662L55.3982 8.52843C54.8038 8.1426 54.2515 7.94968 53.7412 7.94968C53.2468 7.94968 52.8282 8.08793 52.4854 8.36442C52.1419 8.6329 51.8699 9.1235 51.6693 9.8362C51.4767 10.5489 51.3804 12.0416 51.3804 14.3142Z" fill="#A38F8F"/>
<path d="M72.037 18.4402H58.0361V0H71.6856V3.11959H61.753V7.20692H70.9955V10.3145H61.753V15.3326H72.037V18.4402ZM77.6004 18.4402H73.4686L78.2784 11.5596L73.67 5.08168H77.9767L80.3374 8.75426L82.8234 5.08168H86.9671L82.447 11.4084L87.382 18.4402H83.0497L80.3374 14.3013L77.6004 18.4402ZM89.3656 23.521V5.08168H92.6556V7.04377C93.0825 6.37285 93.6603 5.82787 94.3889 5.40884C95.117 4.98923 95.9248 4.77942 96.8123 4.77942C98.361 4.77942 99.6751 5.38737 100.755 6.60326C101.835 7.81916 102.375 9.51305 102.375 11.6849C102.375 13.9158 101.831 15.6518 100.743 16.8928C99.6539 18.1253 98.3352 18.7416 96.7865 18.7416C96.0499 18.7416 95.3804 18.5948 94.7781 18.3011C94.1837 18.008 93.5557 17.5051 92.8939 16.7924V23.521H89.3656ZM92.8571 11.5347C92.8571 13.0356 93.1542 14.1465 93.7486 14.8672C94.3429 15.5799 95.067 15.9363 95.9207 15.9363C96.7408 15.9363 97.4229 15.6094 97.9669 14.9557C98.5115 14.2933 98.7838 13.2117 98.7838 11.7107C98.7838 10.3099 98.5032 9.27004 97.9421 8.59111C97.3814 7.91161 96.6865 7.57186 95.8573 7.57186C94.9955 7.57186 94.28 7.90732 93.7108 8.57823C93.1417 9.24056 92.8571 10.226 92.8571 11.5347ZM112.897 14.188L116.413 14.7796C115.961 16.0711 115.246 17.0563 114.266 17.7352C113.295 18.4061 112.077 18.7416 110.612 18.7416C108.293 18.7416 106.577 17.9828 105.464 16.4652C104.585 15.2493 104.145 13.7146 104.145 11.861C104.145 9.64729 104.723 7.9159 105.878 6.66681C107.033 5.40855 108.494 4.77942 110.26 4.77942C112.244 4.77942 113.81 5.43775 114.957 6.75439C116.104 8.06245 116.652 10.0709 116.602 12.7798H107.761C107.787 13.8279 108.071 14.6454 108.615 15.2322C109.159 15.8109 109.837 16.1003 110.649 16.1003C111.202 16.1003 111.667 15.9494 112.043 15.6478C112.42 15.3455 112.704 14.8589 112.897 14.188ZM107.824 10.6159H113.098C113.073 9.59291 112.81 8.81723 112.307 8.28886C111.805 7.75247 111.194 7.48427 110.474 7.48427C109.704 7.48427 109.068 7.76506 108.566 8.32664C108.063 8.88879 107.816 9.65187 107.824 10.6159ZM122.855 14.3142V18.4402H119.326V5.08168H122.604V6.98108C123.165 6.08348 123.667 5.49213 124.11 5.20705C124.562 4.92196 125.073 4.77942 125.643 4.77942C126.446 4.77942 127.221 5.00182 127.966 5.44662L126.873 8.52843C126.279 8.14259 125.726 7.94968 125.216 7.94968C124.722 7.94968 124.303 8.08792 123.96 8.36442C123.617 8.6329 123.345 9.1235 123.144 9.8362C122.952 10.5489 122.855 12.0416 122.855 14.3142ZM133.013 3.27072H129.485V0H133.013V3.27072ZM133.013 18.4402H129.485V5.08168H133.013V18.4402ZM135.814 11.5716C135.814 10.3981 136.103 9.26203 136.68 8.16349C137.258 7.06495 138.074 6.2263 139.129 5.64755C140.192 5.0688 141.376 4.77942 142.683 4.77942C144.7 4.77942 146.353 5.43775 147.643 6.75439C148.931 8.06245 149.576 9.71856 149.576 11.7227C149.576 13.7441 148.923 15.4214 147.617 16.7546C146.32 18.0793 144.683 18.7416 142.708 18.7416C141.485 18.7416 140.317 18.4648 139.204 17.9112C138.099 17.3577 137.258 16.5485 136.68 15.4838C136.103 14.4104 135.814 13.1063 135.814 11.5716ZM139.43 11.7605C139.43 13.0857 139.744 14.1004 140.372 14.8045C141 15.5092 141.774 15.8616 142.695 15.8616C143.615 15.8616 144.385 15.5092 145.005 14.8045C145.633 14.1004 145.947 13.0774 145.947 11.7356C145.947 10.4275 145.633 9.42117 145.005 8.71648C144.385 8.01236 143.615 7.6603 142.695 7.6603C141.774 7.6603 141 8.01236 140.372 8.71648C139.744 9.42117 139.43 10.4358 139.43 11.7605ZM155.717 14.3142V18.4402H152.187V5.08168H155.465V6.98108C156.026 6.08348 156.528 5.49213 156.972 5.20705C157.424 4.92196 157.935 4.77942 158.504 4.77942C159.308 4.77942 160.082 5.00182 160.826 5.44662L159.734 8.52843C159.14 8.14259 158.587 7.94968 158.077 7.94968C157.583 7.94968 157.164 8.08792 156.822 8.36442C156.478 8.6329 156.206 9.1235 156.005 9.8362C155.813 10.5489 155.717 12.0416 155.717 14.3142Z" fill="#A38F8F"/>
</svg>
