<svg width="101" height="56" viewBox="0 0 101 56" fill="none" xmlns="http://www.w3.org/2000/svg">
<g clip-path="url(#clip0_1317_331)">
<path d="M25.8843 38.6288V35.0905H26.4671V35.5431C26.7894 35.1179 27.2351 35.0151 27.5917 35.0151C28.202 35.0151 28.5586 35.2482 28.7163 35.6459C28.8123 35.8859 28.8397 36.1739 28.8397 36.5099V38.6288H28.2088V36.6334C28.2088 36.0848 28.1334 35.5157 27.4546 35.5157C26.8648 35.5157 26.5151 35.9271 26.5151 36.7774V38.6288H25.8843ZM31.0833 38.7317C30.0341 38.7317 29.3827 37.9637 29.3827 36.8597C29.3827 35.7625 30.041 34.9877 31.0902 34.9877C32.1462 34.9877 32.8113 35.7625 32.8113 36.8597C32.8113 37.9637 32.153 38.7317 31.0833 38.7317ZM31.0833 38.2311C31.7484 38.2311 32.1599 37.6825 32.1599 36.8665C32.1599 36.0505 31.7416 35.4951 31.0902 35.4951C30.4456 35.4951 30.0342 36.0368 30.0342 36.8528C30.0342 37.6757 30.4387 38.2311 31.0833 38.2311ZM33.9638 38.6288L32.9764 35.0905H33.6278L34.1078 36.8597C34.2107 37.2437 34.2998 37.6962 34.3753 38.0802H34.4164C34.4918 37.6962 34.6153 37.2437 34.7181 36.8597L35.1981 35.0905H36.0416L36.5421 36.8597C36.6518 37.2437 36.7547 37.6962 36.8301 38.0802H36.8713C36.9398 37.6962 37.0358 37.2437 37.1387 36.8597L37.6187 35.0905H38.2084L37.2278 38.6288H36.4118L35.925 36.8597C35.8153 36.4482 35.7124 35.9819 35.6233 35.5705H35.5821C35.4861 35.9819 35.3764 36.4482 35.2667 36.8597L34.7798 38.6288H33.9638ZM39.6797 40.0071V35.0905H40.2831V35.5705C40.5231 35.2139 40.8934 35.0151 41.4145 35.0151C42.3608 35.0151 42.8957 35.7831 42.8957 36.8597C42.8957 38.0185 42.258 38.7042 41.3871 38.7042C40.9071 38.7042 40.53 38.5671 40.3105 38.2311V40.0071H39.6797ZM41.2911 38.2037C41.874 38.2037 42.2511 37.7031 42.2511 36.8597C42.2511 36.0162 41.874 35.5157 41.2911 35.5157C40.6945 35.5157 40.2968 36.0642 40.2968 36.8597C40.2968 37.6619 40.6945 38.2037 41.2911 38.2037ZM44.4657 38.7042C43.684 38.7042 43.2383 38.2585 43.2383 37.6345C43.2383 36.4757 44.7194 36.5168 45.5971 36.4139V36.2905C45.5971 35.7625 45.3571 35.4608 44.8154 35.4608C44.3217 35.4608 43.9925 35.7077 43.9925 36.1808H43.3685C43.3685 35.4539 43.9651 34.9877 44.8154 34.9877C46.1525 34.9877 46.2143 35.8791 46.2143 36.5922V37.5591C46.2143 37.9705 46.2348 38.3065 46.3034 38.6288H45.7137C45.6931 38.5259 45.6726 38.3888 45.6657 38.1488C45.364 38.5465 44.9731 38.7042 44.4657 38.7042ZM44.6097 38.2448C45.1171 38.2448 45.5971 38.0391 45.5971 37.0997V36.9008C45.0623 36.9694 43.876 36.9282 43.876 37.6482C43.876 37.9911 44.1571 38.2448 44.6097 38.2448ZM46.9825 38.6288V35.0905H47.5791V35.6117C47.8534 35.1865 48.1825 35.0494 48.5734 35.0494C48.7037 35.0494 48.8408 35.0631 48.9711 35.0905V35.6459C48.8134 35.6185 48.6763 35.5979 48.5528 35.5979C47.7917 35.5979 47.6134 36.1465 47.6134 37.0037V38.6288H46.9825ZM50.4861 38.6905C49.9306 38.6905 49.5946 38.4437 49.5946 37.6688V35.6117H48.9432V35.0905H49.5946V34.2334H50.2255V35.0905H50.9935V35.6117H50.2255V37.3739C50.2255 37.8745 50.2461 38.1557 50.6506 38.1557C50.7466 38.1557 50.8632 38.1557 51.0072 38.1214V38.6288C50.8221 38.6699 50.6438 38.6905 50.4861 38.6905ZM54.0737 38.7317C53.0246 38.7317 52.3731 37.9637 52.3731 36.8597C52.3731 35.7625 53.0314 34.9877 54.0806 34.9877C55.1366 34.9877 55.8017 35.7625 55.8017 36.8597C55.8017 37.9637 55.1434 38.7317 54.0737 38.7317ZM54.0737 38.2311C54.7389 38.2311 55.1503 37.6825 55.1503 36.8665C55.1503 36.0505 54.732 35.4951 54.0806 35.4951C53.436 35.4951 53.0246 36.0368 53.0246 36.8528C53.0246 37.6757 53.4291 38.2311 54.0737 38.2311ZM56.5379 38.6288V35.6117H55.8865V35.0905H56.5379V34.9122C56.5379 34.6037 56.5585 34.3294 56.6339 34.1374C56.7779 33.7739 57.0865 33.6094 57.5253 33.6094C57.6419 33.6094 57.7996 33.6162 57.9436 33.6505V34.1717C57.8408 34.1511 57.7242 34.1442 57.6419 34.1442C57.2168 34.1442 57.1688 34.3979 57.1688 34.9465V35.0905H57.9436V35.6117H57.1688V38.6288H56.5379ZM59.4645 38.6288V33.6505H60.9045C61.5559 33.6505 62.0565 33.7465 62.4473 34.0139C63.0782 34.4528 63.4142 35.2277 63.4142 36.1397C63.4142 37.0517 63.037 37.8059 62.4062 38.2448C62.0153 38.5122 61.5559 38.6288 60.9045 38.6288H59.4645ZM60.1365 38.0802H60.8153C61.3845 38.0802 61.8439 37.9568 62.1319 37.7031C62.4953 37.3877 62.7079 36.7979 62.7079 36.1397C62.7079 35.4882 62.5227 34.8848 62.1593 34.5625C61.8782 34.3157 61.3845 34.1991 60.8153 34.1991H60.1365V38.0802ZM65.5183 38.7317C64.4349 38.7317 63.8383 38.0254 63.8383 36.8597C63.8383 35.7899 64.4897 34.9877 65.532 34.9877C66.636 34.9877 67.1366 35.7488 67.1366 37.0585H64.4966C64.5309 37.7579 64.9629 38.2311 65.5389 38.2311C65.9914 38.2311 66.3343 38.0254 66.4646 37.5728H67.1297C66.9789 38.3339 66.3274 38.7317 65.5183 38.7317ZM64.5103 36.5442H66.4646C66.396 35.8311 66.012 35.4951 65.5046 35.4951C64.9697 35.4951 64.5994 35.8311 64.5103 36.5442ZM68.5336 38.6288L67.2239 35.0905H67.9164L68.5404 36.8597C68.6776 37.2574 68.801 37.6825 68.9039 38.0802H68.945C69.041 37.6825 69.1713 37.2574 69.3084 36.8597L69.9324 35.0905H70.577L69.2673 38.6288H68.5336ZM71.075 38.6288V33.6505H72.5491C72.8783 33.6505 73.2211 33.6642 73.516 33.7534C74.0577 33.9179 74.4486 34.3362 74.4486 35.0494C74.4486 35.6391 74.0166 36.1534 73.3651 36.2974V36.3179C73.8863 36.3454 74.092 36.6951 74.2017 37.0311L74.7228 38.6288H74.0028L73.5571 37.2162C73.3514 36.5717 72.9468 36.5648 72.3023 36.5648H71.747V38.6288H71.075ZM71.747 36.0162H72.316C72.9948 36.0162 73.7628 35.9339 73.7628 35.1111C73.7628 34.5419 73.4406 34.3225 73.0223 34.2402C72.8097 34.1991 72.556 34.1991 72.316 34.1991H71.747V36.0162ZM76.6264 38.7317C75.5429 38.7317 74.9464 38.0254 74.9464 36.8597C74.9464 35.7899 75.5978 34.9877 76.6401 34.9877C77.7441 34.9877 78.2447 35.7488 78.2447 37.0585H75.6047C75.6389 37.7579 76.0709 38.2311 76.6469 38.2311C77.0995 38.2311 77.4424 38.0254 77.5727 37.5728H78.2378C78.0869 38.3339 77.4355 38.7317 76.6264 38.7317ZM75.6184 36.5442H77.5727C77.5041 35.8311 77.1201 35.4951 76.6127 35.4951C76.0778 35.4951 75.7075 35.8311 75.6184 36.5442ZM79.6421 38.6288L78.3324 35.0905H79.025L79.649 36.8597C79.7862 37.2574 79.9096 37.6825 80.0124 38.0802H80.0536C80.1496 37.6825 80.2799 37.2574 80.417 36.8597L81.041 35.0905H81.6856L80.3759 38.6288H79.6421Z" fill="black"/>
<path fill-rule="evenodd" clip-rule="evenodd" d="M8.40256 28.5821V23.9412H13.1412C13.1412 21.395 11.0032 19.2998 8.40256 19.2998C5.80193 19.2998 3.66389 21.395 3.66389 23.9412C3.66389 26.4874 5.80338 28.5821 8.40256 28.5821ZM17.068 38.4967V33.8539H21.8066C21.8066 31.3081 19.6685 29.2129 17.068 29.2129C14.4673 29.2129 12.3293 31.3081 12.3293 33.8539C12.3293 36.3996 14.4683 38.4953 17.068 38.4953V38.4967ZM17.068 28.4484L21.9417 19.4339H12.1937L17.068 28.4484ZM13.2777 29.3495L8.40256 38.3596L3.52881 29.3486L13.2777 29.3495Z" fill="black"/>
<path d="M26.2646 24.1326V19.8218H27.8936V24.1988C27.8936 24.8932 27.9138 25.3435 27.9541 25.5495C28.0237 25.8801 28.1889 26.1465 28.4496 26.3487C28.7136 26.5472 29.0731 26.6464 29.5282 26.6464C29.9903 26.6464 30.3388 26.5527 30.5737 26.3653C30.8084 26.1741 30.9497 25.9407 30.9975 25.6649C31.045 25.3895 31.0688 24.932 31.0688 24.2925V19.8218H32.6978V24.0663C32.6978 25.0365 32.6539 25.7219 32.566 26.1226C32.4778 26.5232 32.3145 26.8613 32.0761 27.1367C31.8412 27.4125 31.5256 27.633 31.1294 27.7983C30.7331 27.9601 30.2158 28.0411 29.5774 28.0411C28.807 28.0411 28.222 27.9529 27.8222 27.7765C27.426 27.5964 27.1123 27.3648 26.8812 27.0818C26.6499 26.7951 26.4977 26.4955 26.4244 26.1832C26.3179 25.7203 26.2646 25.0367 26.2646 24.1326ZM33.8591 26.2328L35.411 25.9957C35.4769 26.2971 35.6107 26.5267 35.8126 26.6848C36.0145 26.8391 36.297 26.9162 36.6601 26.9162C37.0601 26.9162 37.3609 26.8428 37.5625 26.6961C37.6982 26.593 37.7661 26.4551 37.7661 26.2825C37.7661 26.1648 37.7294 26.0675 37.6561 25.9905C37.5791 25.917 37.4068 25.849 37.1387 25.7865C35.8915 25.5108 35.1009 25.2591 34.7671 25.0313C34.3047 24.7151 34.0736 24.2759 34.0736 23.7137C34.0736 23.2064 34.2735 22.7801 34.6735 22.4346C35.0735 22.0891 35.6935 21.9164 36.5335 21.9164C37.3332 21.9164 37.9276 22.0469 38.3165 22.3078C38.7054 22.5687 38.9733 22.9546 39.1201 23.4657L37.6617 23.7355C37.5993 23.5077 37.4801 23.3332 37.304 23.2121C37.1315 23.0907 36.8838 23.0299 36.5609 23.0299C36.1537 23.0299 35.862 23.0869 35.686 23.2008C35.5685 23.2818 35.5098 23.3866 35.5098 23.515C35.5098 23.6254 35.5612 23.7191 35.6642 23.7961C35.8034 23.8992 36.284 24.0445 37.1061 24.2319C37.9313 24.4193 38.5072 24.649 38.8338 24.921C39.1566 25.1964 39.318 25.5804 39.318 26.0729C39.318 26.6095 39.0943 27.0708 38.6467 27.4566C38.1992 27.8425 37.537 28.0354 36.6601 28.0354C35.8639 28.0354 35.2329 27.8738 34.7671 27.5504C34.3047 27.227 34.002 26.7878 33.8591 26.2328ZM44.0565 26.0398L45.5972 26.2991C45.3991 26.8651 45.0854 27.2968 44.6561 27.5944C44.2306 27.8884 43.6967 28.0354 43.0546 28.0354C42.0385 28.0354 41.2865 27.7029 40.7986 27.0378C40.4134 26.5049 40.2208 25.8323 40.2208 25.0199C40.2208 24.0498 40.4739 23.291 40.9801 22.7436C41.4865 22.1921 42.1267 21.9164 42.9006 21.9164C43.7701 21.9164 44.4562 22.2049 44.9589 22.7819C45.4616 23.3552 45.7019 24.2354 45.6798 25.4226H41.8055C41.8164 25.882 41.9412 26.2402 42.1796 26.4974C42.4183 26.751 42.7155 26.8778 43.0711 26.8778C43.3133 26.8778 43.5169 26.8117 43.682 26.6795C43.8473 26.547 43.9721 26.3338 44.0565 26.0398ZM41.8332 24.4743H44.1444C44.1334 24.0259 44.0178 23.686 43.7977 23.4545C43.5775 23.2193 43.3097 23.1018 42.9941 23.1018C42.6567 23.1018 42.378 23.2249 42.1579 23.471C41.9377 23.7174 41.8295 24.0518 41.8332 24.4743ZM48.4204 26.0951V27.9033H46.8741V22.0489H48.3104V22.8813C48.5561 22.4879 48.7762 22.2287 48.9708 22.1038C49.1689 21.9789 49.3927 21.9164 49.6422 21.9164C49.9943 21.9164 50.3336 22.0139 50.6602 22.2088L50.1813 23.5594C49.9208 23.3903 49.6787 23.3058 49.455 23.3058C49.2384 23.3058 49.055 23.3663 48.9047 23.4876C48.7542 23.6052 48.6349 23.8202 48.547 24.1326C48.4627 24.4449 48.4204 25.0991 48.4204 26.0951Z" fill="black"/>
<path d="M57.4729 27.9033H51.3369V19.8218H57.3189V21.189H52.9659V22.9803H57.0165V24.3422H52.9659V26.5414H57.4729V27.9033ZM59.9111 27.9033H58.1003L60.2082 24.8879L58.1886 22.0489H60.076L61.1106 23.6584L62.2001 22.0489H64.0161L62.0352 24.8216L64.198 27.9033H62.2993L61.1106 26.0895L59.9111 27.9033ZM65.0673 30.13V22.0489H66.5092V22.9088C66.6962 22.6147 66.9495 22.3759 67.2688 22.1922C67.5879 22.0083 67.9419 21.9164 68.3308 21.9164C69.0096 21.9164 69.5855 22.1828 70.0586 22.7157C70.532 23.2486 70.7686 23.991 70.7686 24.9428C70.7686 25.9205 70.5302 26.6813 70.0533 27.2252C69.5762 27.7653 68.9983 28.0354 68.3196 28.0354C67.9968 28.0354 67.7033 27.9711 67.4393 27.8423C67.1789 27.7139 66.9036 27.4935 66.6136 27.1812V30.13H65.0673ZM66.5974 24.8769C66.5974 25.5348 66.7277 26.0216 66.9881 26.3375C67.2486 26.6498 67.5659 26.806 67.9401 26.806C68.2995 26.806 68.5985 26.6627 68.8369 26.3762C69.0756 26.086 69.1949 25.6119 69.1949 24.9541C69.1949 24.3402 69.072 23.8845 68.826 23.5869C68.5803 23.2891 68.2757 23.1402 67.9123 23.1402C67.5347 23.1402 67.2211 23.2872 66.9716 23.5812C66.7221 23.8715 66.5974 24.3034 66.5974 24.8769ZM75.38 26.0398L76.9208 26.2991C76.7234 26.8651 76.4093 27.2968 75.98 27.5944C75.5542 27.8884 75.0207 28.0354 74.3782 28.0354C73.3627 28.0354 72.6104 27.7029 72.1229 27.0378C71.7371 26.5049 71.5444 25.8323 71.5444 25.0199C71.5444 24.0498 71.7976 23.291 72.3039 22.7436C72.81 22.1921 73.4504 21.9164 74.2246 21.9164C75.0941 21.9164 75.7805 22.2049 76.2831 22.7819C76.7858 23.3552 77.0258 24.2354 77.0038 25.4226H73.1295C73.1405 25.882 73.2653 26.2402 73.5032 26.4974C73.7419 26.751 74.0395 26.8778 74.3954 26.8778C74.6374 26.8778 74.8411 26.8117 75.0056 26.6795C75.1709 26.547 75.2957 26.3338 75.38 26.0398ZM73.157 24.4743H75.4685C75.4575 24.0259 75.3416 23.686 75.1215 23.4545C74.9014 23.2193 74.6333 23.1018 74.3179 23.1018C73.9805 23.1018 73.7021 23.2249 73.482 23.471C73.2619 23.7174 73.1535 24.0518 73.157 24.4743ZM79.7446 26.0951V27.9033H78.1976V22.0489H79.6342V22.8813C79.8797 22.4879 80.0998 22.2287 80.2946 22.1038C80.4927 21.9789 80.7163 21.9164 80.9659 21.9164C81.3183 21.9164 81.6578 22.0139 81.9842 22.2088L81.5055 23.5594C81.245 23.3903 81.0029 23.3058 80.7787 23.3058C80.5627 23.3058 80.3789 23.3663 80.2287 23.4876C80.0779 23.6052 79.9586 23.8202 79.8708 24.1326C79.7864 24.4449 79.7446 25.0991 79.7446 26.0951ZM84.1963 21.2552H82.65V19.8218H84.1963V21.2552ZM84.1963 27.9033H82.65V22.0489H84.1963V27.9033ZM85.4237 24.8931C85.4237 24.3788 85.5499 23.8809 85.8036 23.3995C86.0566 22.918 86.4139 22.5505 86.876 22.2969C87.3423 22.0432 87.8614 21.9164 88.434 21.9164C89.3179 21.9164 90.0427 22.2049 90.6077 22.7819C91.172 23.3552 91.4546 24.081 91.4546 24.9593C91.4546 25.8452 91.1686 26.5803 90.596 27.1646C90.0276 27.7452 89.3103 28.0354 88.445 28.0354C87.9087 28.0354 87.3972 27.9141 86.9096 27.6715C86.4248 27.4289 86.0566 27.0743 85.8036 26.6076C85.5499 26.1372 85.4237 25.5657 85.4237 24.8931ZM87.0084 24.9759C87.0084 25.5567 87.1462 26.0014 87.4212 26.31C87.6962 26.6188 88.0356 26.7732 88.4395 26.7732C88.8427 26.7732 89.18 26.6188 89.4516 26.31C89.7266 26.0014 89.8644 25.5531 89.8644 24.965C89.8644 24.3918 89.7266 23.9507 89.4516 23.6419C89.18 23.3332 88.8427 23.1789 88.4395 23.1789C88.0356 23.1789 87.6962 23.3332 87.4212 23.6419C87.1462 23.9507 87.0084 24.3954 87.0084 24.9759ZM94.146 26.0951V27.9033H92.5997V22.0489H94.0363V22.8813C94.2818 22.4879 94.5019 22.2287 94.6959 22.1038C94.8941 21.9789 95.1183 21.9164 95.3679 21.9164C95.7197 21.9164 96.0591 22.0139 96.3855 22.2088L95.9069 23.5594C95.6463 23.3903 95.4043 23.3058 95.18 23.3058C94.964 23.3058 94.781 23.3663 94.6301 23.4876C94.4799 23.6052 94.3606 23.8202 94.2722 24.1326C94.1885 24.4449 94.146 25.0991 94.146 26.0951Z" fill="black"/>
</g>
<defs>
<clipPath id="clip0_1317_331">
<rect width="93.9429" height="24" fill="white" transform="translate(3.52881 16)"/>
</clipPath>
</defs>
</svg>
