<svg width="160" height="48" viewBox="0 0 160 48" fill="none" xmlns="http://www.w3.org/2000/svg">
<path d="M7 22.7554V13.7998H10.3917V22.893C10.3917 24.3356 10.4337 25.2709 10.5176 25.6988C10.6626 26.3858 11.0065 26.9393 11.5493 27.3594C12.099 27.7717 12.8476 27.9778 13.7951 27.9778C14.7572 27.9778 15.4828 27.7831 15.972 27.3938C16.4606 26.9966 16.7547 26.5117 16.8543 25.9389C16.9534 25.3666 17.0029 24.4162 17.0029 23.0876V13.7998H20.3946V22.6178C20.3946 24.6332 20.3031 26.0572 20.1201 26.8895C19.9365 27.7219 19.5965 28.4242 19.1 28.9965C18.6109 29.5693 17.9538 30.0274 17.1289 30.3709C16.3039 30.7071 15.2268 30.8752 13.8976 30.8752C12.2935 30.8752 11.0753 30.692 10.2431 30.3256C9.41808 29.9513 8.76493 29.4703 8.28361 28.8823C7.80229 28.2866 7.48523 27.6643 7.33244 27.0154C7.11081 26.0538 7 24.6338 7 22.7554ZM22.8124 27.1186L26.0437 26.6261C26.1809 27.252 26.4596 27.7292 26.8799 28.0575C27.3002 28.3781 27.8885 28.5384 28.6446 28.5384C29.4774 28.5384 30.1037 28.3859 30.5235 28.081C30.8061 27.8668 30.9474 27.5804 30.9474 27.2218C30.9474 26.9774 30.871 26.7751 30.7183 26.6151C30.5582 26.4624 30.1991 26.3212 29.6411 26.1914C27.0442 25.6186 25.3982 25.0956 24.703 24.6223C23.7404 23.9656 23.2591 23.0532 23.2591 21.8852C23.2591 20.8313 23.6755 19.9456 24.5083 19.2279C25.3411 18.5102 26.632 18.1513 28.381 18.1513C30.0461 18.1513 31.2835 18.4223 32.0934 18.9644C32.9032 19.5064 33.4609 20.3083 33.7665 21.37L30.73 21.9306C30.6001 21.4573 30.3519 21.0948 29.9853 20.8431C29.626 20.5908 29.1103 20.4647 28.4381 20.4647C27.5902 20.4647 26.9829 20.583 26.6163 20.8196C26.3718 20.988 26.2495 21.2056 26.2495 21.4724C26.2495 21.7017 26.3566 21.8964 26.571 22.0564C26.8609 22.2706 27.8616 22.5724 29.5731 22.9618C31.2914 23.3511 32.4905 23.8282 33.1705 24.3932C33.8427 24.9655 34.1788 25.7632 34.1788 26.7863C34.1788 27.9012 33.7128 28.8594 32.7809 29.661C31.8491 30.4626 30.4703 30.8634 28.6446 30.8634C26.9868 30.8634 25.673 30.5275 24.703 29.8557C23.7404 29.1839 23.1102 28.2715 22.8124 27.1186ZM44.0448 26.7175L47.2527 27.2562C46.8402 28.432 46.187 29.329 45.2932 29.9472C44.4072 30.558 43.2957 30.8634 41.9586 30.8634C39.843 30.8634 38.2773 30.1726 37.2615 28.7909C36.4594 27.6838 36.0584 26.2865 36.0584 24.5988C36.0584 22.5834 36.5854 21.007 37.6393 19.8697C38.6937 18.7241 40.0266 18.1513 41.6379 18.1513C43.4485 18.1513 44.8771 18.7507 45.9237 19.9495C46.9703 21.1404 47.4706 22.969 47.4248 25.4354H39.3578C39.3807 26.3897 39.6404 27.134 40.1369 27.6682C40.6338 28.1951 41.2526 28.4586 41.9931 28.4586C42.4973 28.4586 42.9213 28.3213 43.2649 28.0466C43.6091 27.7714 43.8691 27.3284 44.0448 26.7175ZM39.4157 23.4652H44.2278C44.2049 22.5338 43.9642 21.8276 43.5059 21.3465C43.0475 20.8582 42.4898 20.614 41.8327 20.614C41.1303 20.614 40.5499 20.8696 40.0915 21.3809C39.6331 21.8928 39.4079 22.5875 39.4157 23.4652ZM53.131 26.8325V30.589H49.9114V18.4265H52.9018V20.1559C53.4134 19.3386 53.8717 18.8002 54.2769 18.5407C54.6894 18.2811 55.1554 18.1513 55.6747 18.1513C56.4079 18.1513 57.1145 18.3538 57.7945 18.7588L56.7972 21.5647C56.2549 21.2134 55.7509 21.0377 55.2852 21.0377C54.8341 21.0377 54.4521 21.1636 54.1393 21.4153C53.8259 21.6598 53.5776 22.1065 53.3946 22.7554C53.2189 23.4043 53.131 24.7633 53.131 26.8325Z" fill="#079DD1"/>
<path d="M71.979 30.589H59.2031V13.7998H71.6583V16.6401H62.5948V20.3615H71.0286V23.1908H62.5948V27.7597H71.979V30.589ZM77.0556 30.589H73.2853L77.6743 24.3244L73.4691 18.4265H77.399L79.5532 21.7703L81.8216 18.4265H85.6028L81.4782 24.1868L85.9814 30.589H82.0281L79.5532 26.8207L77.0556 30.589ZM87.7915 35.2149V18.4265H90.7936V20.2129C91.1831 19.6021 91.7103 19.1059 92.3752 18.7244C93.0396 18.3423 93.7767 18.1513 94.5865 18.1513C95.9997 18.1513 97.1989 18.7048 98.1839 19.8119C99.1695 20.9189 99.6623 22.4611 99.6623 24.4386C99.6623 26.4697 99.1659 28.0502 98.173 29.1802C97.1796 30.3024 95.9763 30.8634 94.5631 30.8634C93.8909 30.8634 93.28 30.7297 92.7303 30.4624C92.188 30.1955 91.6149 29.7376 91.011 29.0887V35.2149H87.7915ZM90.9774 24.3018C90.9774 25.6684 91.2486 26.6797 91.7909 27.3359C92.3332 27.9848 92.9939 28.3093 93.773 28.3093C94.5214 28.3093 95.1437 28.0117 95.6402 27.4165C96.1371 26.8134 96.3856 25.8286 96.3856 24.462C96.3856 23.1867 96.1296 22.2399 95.6175 21.6217C95.1059 21.0031 94.4718 20.6937 93.7151 20.6937C92.9288 20.6937 92.2759 20.9992 91.7565 21.61C91.2371 22.213 90.9774 23.1103 90.9774 24.3018ZM109.264 26.7175L112.473 27.2562C112.06 28.432 111.407 29.329 110.513 29.9472C109.627 30.558 108.516 30.8634 107.179 30.8634C105.063 30.8634 103.497 30.1726 102.481 28.7909C101.679 27.6838 101.278 26.2865 101.278 24.5988C101.278 22.5834 101.805 21.007 102.859 19.8697C103.913 18.7241 105.246 18.1513 106.858 18.1513C108.668 18.1513 110.097 18.7507 111.144 19.9495C112.19 21.1404 112.691 22.969 112.645 25.4354H104.578C104.601 26.3897 104.86 27.134 105.357 27.6682C105.853 28.1951 106.472 28.4586 107.213 28.4586C107.717 28.4586 108.141 28.3213 108.485 28.0466C108.829 27.7714 109.088 27.3284 109.264 26.7175ZM104.635 23.4652H109.448C109.425 22.5338 109.184 21.8276 108.726 21.3465C108.267 20.8582 107.71 20.614 107.053 20.614C106.35 20.614 105.77 20.8696 105.311 21.3809C104.853 21.8928 104.628 22.5875 104.635 23.4652ZM118.351 26.8325V30.589H115.131V18.4265H118.122V20.1559C118.633 19.3386 119.091 18.8002 119.496 18.5407C119.909 18.2811 120.375 18.1513 120.895 18.1513C121.628 18.1513 122.334 18.3538 123.014 18.7588L122.017 21.5647C121.475 21.2134 120.971 21.0377 120.505 21.0377C120.054 21.0377 119.672 21.1636 119.359 21.4153C119.046 21.6598 118.798 22.1065 118.615 22.7554C118.439 23.4043 118.351 24.7633 118.351 26.8325ZM127.62 16.7777H124.401V13.7998H127.62V16.7777ZM127.62 30.589H124.401V18.4265H127.62V30.589ZM130.176 24.3354C130.176 23.2669 130.439 22.2326 130.966 21.2324C131.493 20.2322 132.238 19.4687 133.2 18.9417C134.17 18.4148 135.251 18.1513 136.444 18.1513C138.284 18.1513 139.793 18.7507 140.969 19.9495C142.145 21.1404 142.733 22.6482 142.733 24.473C142.733 26.3133 142.138 27.8405 140.946 29.0543C139.762 30.2604 138.269 30.8634 136.466 30.8634C135.351 30.8634 134.285 30.6114 133.269 30.1074C132.261 29.6034 131.493 28.8667 130.966 27.8973C130.439 26.92 130.176 25.7327 130.176 24.3354ZM133.476 24.5074C133.476 25.714 133.762 26.6378 134.335 27.2789C134.908 27.9205 135.614 28.2413 136.454 28.2413C137.295 28.2413 137.997 27.9205 138.563 27.2789C139.136 26.6378 139.422 25.7064 139.422 24.4847C139.422 23.2938 139.136 22.3775 138.563 21.7359C137.997 21.0948 137.295 20.7743 136.454 20.7743C135.614 20.7743 134.908 21.0948 134.335 21.7359C133.762 22.3775 133.476 23.3013 133.476 24.5074ZM148.337 26.8325V30.589H145.117V18.4265H148.108V20.1559C148.619 19.3386 149.078 18.8002 149.482 18.5407C149.895 18.2811 150.361 18.1513 150.881 18.1513C151.614 18.1513 152.32 18.3538 153 18.7588L152.003 21.5647C151.461 21.2134 150.957 21.0377 150.491 21.0377C150.04 21.0377 149.658 21.1636 149.345 21.4153C149.032 21.6598 148.783 22.1065 148.6 22.7554C148.425 23.4043 148.337 24.7633 148.337 26.8325Z" fill="#DA3A3A"/>
</svg>
