<svg width="97" height="42" viewBox="0 0 97 42" fill="none" xmlns="http://www.w3.org/2000/svg">
<path fill-rule="evenodd" clip-rule="evenodd" d="M40.2928 5.36938C40.9031 4.3217 40.1474 3.00684 38.9349 3.00684H34.5659L20.6433 27.0143L13.0627 14.1158C12.4981 13.1552 11.4672 12.5653 10.353 12.5653H5.04826L20.554 39.2553L40.2928 5.36938Z" fill="#A38F8F"/>
<path fill-rule="evenodd" clip-rule="evenodd" d="M18.3691 22.5151L29.1398 4.53543C29.7075 3.58765 30.7312 3.00757 31.8361 3.00757H34.2591L20.6416 26.4491L18.3691 22.5151Z" fill="#A38F8F"/>
<path fill-rule="evenodd" clip-rule="evenodd" d="M20.1211 39.2542L4.61887 12.6016H2.62332C1.40785 12.6016 0.652487 13.9223 1.26878 14.9699L14.6431 37.7048C15.2078 38.6647 16.2384 39.2542 17.3522 39.2542H20.1211Z" fill="#A38F8F"/>
<path d="M73.4758 39.3771V3.00757H65.2061V39.3771H73.4758Z" fill="#A38F8F"/>
<path d="M96.5898 30.8698C95.6815 31.4433 94.3909 31.7778 93.0524 31.7778C90.8057 31.7778 89.7541 30.6309 89.7541 28.1457V19.7327H96.781V12.4702H89.7541V3.00757H81.58V12.4702H76.7998V19.7327H81.58V30.0574C81.58 35.9357 84.9739 39.3766 90.7579 39.3766C93.0524 39.3766 94.7733 38.9943 96.5898 37.9907V30.8698Z" fill="#A38F8F"/>
<path d="M48.2653 39.209C55.8658 39.209 61.6976 33.2351 61.6976 25.8752C61.6976 18.5154 55.8658 12.5415 48.2653 12.5415C40.6648 12.5415 34.833 18.5154 34.833 25.8752C34.833 33.2351 40.6648 39.209 48.2653 39.209ZM48.2653 31.8969C45.7318 31.8969 43.3417 29.8897 43.3417 25.8752C43.3417 21.8608 45.7318 19.9013 48.2653 19.9013C50.7988 19.9013 53.1889 21.8608 53.1889 25.8752C53.1889 29.8897 50.7988 31.8969 48.2653 31.8969Z" fill="#A38F8F"/>
</svg>
