<svg width="160" height="48" viewBox="0 0 160 48" fill="none" xmlns="http://www.w3.org/2000/svg">
<path fill-rule="evenodd" clip-rule="evenodd" d="M73.5878 13.7211C74.0324 12.9579 73.4818 12 72.5985 12H69.4156L59.2728 29.4898L53.7503 20.093C53.339 19.3932 52.5879 18.9635 51.7762 18.9635H47.9116L59.2078 38.4075L73.5878 13.7211Z" fill="#1434CB"/>
<path fill-rule="evenodd" clip-rule="evenodd" d="M57.6172 26.2115L65.4637 13.1131C65.8774 12.4226 66.6231 12 67.428 12H69.1932L59.2727 29.0775L57.6172 26.2115Z" fill="#A1AEEA"/>
<path fill-rule="evenodd" clip-rule="evenodd" d="M58.8936 38.407L47.6 18.9902H46.1462C45.2607 18.9902 44.7104 19.9524 45.1594 20.7156L54.9028 37.2783C55.3142 37.9776 56.065 38.407 56.8763 38.407H58.8936Z" fill="#A1AEEA"/>
<path d="M97.7648 38.4957V12H91.7402V38.4957H97.7648Z" fill="#1434CB"/>
<path d="M114.605 32.298C113.943 32.7158 113.003 32.9595 112.028 32.9595C110.391 32.9595 109.625 32.1239 109.625 30.3135V24.1845H114.744V18.8937H109.625V12H103.67V18.8937H100.188V24.1845H103.67V31.7061C103.67 35.9886 106.142 38.4954 110.356 38.4954C112.028 38.4954 113.281 38.2168 114.605 37.4857V32.298Z" fill="#1434CB"/>
<path d="M79.397 38.3739C84.934 38.3739 89.1826 34.0218 89.1826 28.6601C89.1826 23.2984 84.934 18.9463 79.397 18.9463C73.8599 18.9463 69.6113 23.2984 69.6113 28.6601C69.6113 34.0218 73.8599 38.3739 79.397 38.3739ZM79.397 33.047C77.5513 33.047 75.8101 31.5847 75.8101 28.6601C75.8101 25.7355 77.5513 24.308 79.397 24.308C81.2426 24.308 82.9839 25.7355 82.9839 28.6601C82.9839 31.5847 81.2426 33.047 79.397 33.047Z" fill="#1434CB"/>
</svg>
