<svg width="97" height="62" viewBox="0 0 97 62" fill="none" xmlns="http://www.w3.org/2000/svg">
<path fill-rule="evenodd" clip-rule="evenodd" d="M49.512 0.00463867C49.839 0.0491621 50.1657 0.0961277 50.4931 0.137927C53.8932 0.571843 56.8896 1.91595 59.4643 4.17833C62.1679 6.55385 63.9506 9.50222 64.7607 13.0135C65.6258 16.7638 65.2693 20.4129 63.6479 23.906C61.8983 27.6751 59.1062 30.4231 55.345 32.175C53.7341 32.9253 52.0348 33.3721 50.2715 33.5776C50.218 33.5838 50.1632 33.5784 50.0563 33.5784C50.4183 33.3181 50.4285 32.9658 50.4273 32.5994C50.422 30.7444 50.4249 28.8894 50.4249 27.0345C50.4249 26.9494 50.4249 26.8644 50.4249 26.7418C50.5695 26.7418 50.6985 26.7371 50.8271 26.7426C52.0228 26.7929 53.1203 26.4984 54.078 25.769C55.3406 24.8075 56.0446 23.5217 56.0633 21.9333C56.0977 19.0143 56.0744 16.0945 56.0746 13.1751C56.0746 13.1373 56.0689 13.0994 56.064 13.0397C55.7081 13.0397 55.3604 13.0397 54.9891 13.0397C54.9891 12.8317 54.9891 12.646 54.9891 12.4602C54.9891 11.6462 54.9921 10.8322 54.9877 10.0182C54.9859 9.65683 54.7536 9.38875 54.4248 9.34779C54.0969 9.30703 53.7935 9.5025 53.7098 9.81891C53.6863 9.90772 53.6854 10.0043 53.6853 10.0973C53.6836 11.0674 53.6843 12.0375 53.6843 13.039C53.5514 13.039 53.4295 13.039 53.3075 13.039C52.6044 13.039 51.9012 13.0353 51.1982 13.0436C51.1096 13.0446 50.9903 13.0837 50.9385 13.1481C50.2095 14.0549 49.4895 14.969 48.7681 15.882C48.7462 15.9098 48.7328 15.9444 48.6986 16.0064C50.2858 16.0064 51.8421 16.0064 53.4673 16.0064C50.74 19.0121 48.0557 21.9706 45.3713 24.929C45.3579 24.9231 45.3445 24.9172 45.3311 24.9113C45.9971 22.7741 46.6632 20.6369 47.337 18.4746C45.975 18.4746 44.6373 18.4746 43.2494 18.4746C44.4478 16.6556 45.6219 14.8735 46.822 13.0521C45.6217 13.0521 44.4587 13.0521 43.2633 13.0521C43.2633 12.9384 43.2633 12.8558 43.2633 12.7733C43.2633 11.8732 43.2656 10.9731 43.2623 10.073C43.2608 9.6448 43.0048 9.35437 42.6324 9.34366C42.2423 9.33239 41.9608 9.6069 41.9585 10.0207C41.9534 10.9286 41.9568 11.8365 41.9568 12.7444C41.9568 12.8301 41.9568 12.9158 41.9568 13.0304C41.5221 13.0304 41.0974 13.0304 40.6518 13.0304C40.6518 13.1357 40.6518 13.2123 40.6518 13.2889C40.6518 16.1223 40.6502 18.9556 40.6523 21.7889C40.6542 24.316 42.5207 26.4274 45.0284 26.7121C45.5056 26.7663 45.9942 26.7199 46.5152 26.7199C46.5152 26.8431 46.5152 26.9326 46.5152 27.0221C46.5152 28.9005 46.5187 30.779 46.512 32.6574C46.5108 33.0062 46.5506 33.3261 46.8562 33.5599C46.8465 33.5779 46.8367 33.596 46.8269 33.614C46.3777 33.5518 45.9259 33.5047 45.4799 33.4248C42.3817 32.8694 39.638 31.5605 37.2855 29.4671C34.413 26.911 32.591 23.7375 31.8844 19.9475C31.2508 16.5496 31.5828 13.2357 33.0139 10.0865C35.3659 4.91043 39.3413 1.67178 44.8763 0.386751C45.6328 0.211147 46.4178 0.159062 47.1894 0.0479879C47.2304 0.0421172 47.2689 0.0195268 47.3086 0.00463867C48.0431 0.00463867 48.7775 0.00463867 49.512 0.00463867Z" fill="#A38F8F"/>
<path fill-rule="evenodd" clip-rule="evenodd" d="M71.9199 58.464C72.8886 58.3368 73.8314 58.2131 74.7849 58.0879C74.8068 58.1363 74.8286 58.1753 74.8425 58.2169C75.0065 58.7044 75.339 59.0269 75.8229 59.1788C76.593 59.4205 77.3673 59.4065 78.1173 59.1097C78.8937 58.8025 79.3204 58.1918 79.469 57.3833C79.5862 56.7457 79.6849 56.1046 79.7907 55.465C79.8018 55.3973 79.8054 55.3283 79.8201 55.1865C79.7215 55.2672 79.6594 55.2994 79.6235 55.3502C78.6838 56.6815 77.3596 57.1231 75.8 56.9917C74.7545 56.9037 73.8755 56.4828 73.2659 55.5946C72.7946 54.9078 72.6079 54.1243 72.5987 53.3081C72.5777 51.4504 72.9877 49.7025 74.0975 48.1808C75.0954 46.8127 76.439 46.0432 78.1604 46.0415C79.4949 46.0401 80.3582 46.6461 80.8405 47.8745C80.865 47.9368 80.9103 47.9908 80.946 48.0486C80.9665 48.0436 80.987 48.0386 81.0075 48.0336C81.1092 47.4223 81.2108 46.8111 81.3137 46.1924C82.3244 46.1924 83.32 46.1924 84.3321 46.1924C84.1847 47.0784 84.0398 47.9487 83.8955 48.8191C83.5442 50.9377 83.1935 53.0564 82.8421 55.175C82.713 55.9533 82.6057 56.7362 82.4484 57.5088C82.0976 59.2311 81.0429 60.3783 79.434 60.9987C77.7774 61.6375 76.0703 61.7178 74.3556 61.2428C73.4633 60.9956 72.7171 60.5165 72.2547 59.676C72.0525 59.3086 71.9475 58.9121 71.9199 58.464ZM75.7661 52.5201C75.7661 52.6685 75.7568 52.8176 75.7677 52.9652C75.8317 53.8386 76.2954 54.4916 77.0085 54.6545C77.9686 54.874 78.8277 54.6406 79.4629 53.8817C80.4084 52.752 80.6639 51.4054 80.4259 49.9848C80.2482 48.9233 79.5269 48.4115 78.4505 48.4775C77.5466 48.533 76.9159 49.0376 76.4668 49.7883C75.9651 50.6269 75.7816 51.5547 75.7661 52.5201Z" fill="#A38F8F"/>
<path fill-rule="evenodd" clip-rule="evenodd" d="M39.67 47.6405C38.6188 47.6405 37.6064 47.6405 36.6133 47.6405C36.5623 47.3169 36.5422 47.0021 36.4602 46.7043C36.2084 45.7894 35.4224 45.172 34.4335 45.0903C32.4865 44.9291 31.0865 45.806 30.1509 47.4512C29.3254 48.9029 29.0192 50.4869 29.212 52.1521C29.3882 53.6743 30.3967 54.5931 31.9221 54.6278C33.3322 54.6599 34.5287 54.2022 35.3792 53.0235C35.5374 52.8044 35.6353 52.5423 35.7735 52.3074C35.8089 52.2472 35.8913 52.1762 35.9527 52.1757C36.9211 52.1686 37.8896 52.172 38.8581 52.1739C38.8724 52.1739 38.8867 52.1849 38.9156 52.1967C38.743 52.816 38.4822 53.3988 38.1298 53.9341C36.5437 56.3428 34.3025 57.4803 31.4279 57.3573C30.1981 57.3047 29.0621 56.9545 28.0823 56.1855C26.9905 55.3284 26.3625 54.1757 26.1748 52.8235C25.7562 49.8073 26.4333 47.0659 28.4692 44.755C29.7277 43.3264 31.3591 42.5514 33.256 42.364C34.559 42.2353 35.831 42.3631 37.0278 42.9306C38.5742 43.6638 39.4132 44.9128 39.6216 46.5997C39.654 46.8628 39.6557 47.1297 39.6694 47.395C39.6735 47.472 39.67 47.5493 39.67 47.6405Z" fill="#A38F8F"/>
<path fill-rule="evenodd" clip-rule="evenodd" d="M50.4329 57.1643C49.4162 57.1643 48.4198 57.1643 47.3987 57.1643C47.4871 56.6288 47.574 56.108 47.659 55.5868C47.9407 53.8603 48.2354 52.1357 48.4966 50.4061C48.6132 49.6338 48.2765 48.9844 47.6911 48.7369C47.1157 48.4936 46.529 48.5197 45.9567 48.7425C44.9621 49.1299 44.5198 49.9319 44.3545 50.9352C44.0232 52.9468 43.6883 54.9579 43.3542 56.9691C43.3441 57.03 43.326 57.0896 43.309 57.1605C42.3054 57.1605 41.3025 57.1605 40.2842 57.1605C41.0938 52.2749 41.9006 47.4063 42.7089 42.5283C43.6975 42.5283 44.67 42.5283 45.6583 42.5283C45.3546 44.397 45.0528 46.2541 44.751 48.1111C44.7774 48.1212 44.8038 48.1313 44.8302 48.1414C44.8761 48.0777 44.9255 48.0162 44.9675 47.9499C45.8862 46.4986 47.235 45.9423 48.9018 46.0646C49.7524 46.127 50.4945 46.432 51.0413 47.1182C51.4392 47.6176 51.6149 48.2018 51.6688 48.8299C51.7297 49.54 51.597 50.232 51.4801 50.9262C51.1313 52.9975 50.7844 55.0693 50.4329 57.1643Z" fill="#A38F8F"/>
<path fill-rule="evenodd" clip-rule="evenodd" d="M53.996 49.3044C54.2049 48.7283 54.4986 48.2369 54.8901 47.8063C55.8782 46.7199 57.1437 46.2198 58.5737 46.0785C59.5644 45.9806 60.5385 46.0517 61.4798 46.4014C62.9152 46.9347 63.6239 48.1852 63.3691 49.6903C62.9609 52.1025 62.5653 54.5168 62.1636 56.93C62.1509 57.006 62.1301 57.0807 62.1112 57.1642C61.1616 57.1642 60.2193 57.1642 59.2399 57.1642C59.3218 56.6592 59.4015 56.1669 59.4814 55.6745C59.4518 55.6536 59.4223 55.6327 59.3927 55.6118C59.3664 55.6671 59.3488 55.7289 59.3125 55.7765C58.3641 57.0209 57.0677 57.4525 55.5598 57.3725C55.0425 57.3451 54.5412 57.2374 54.0729 56.9992C53.1285 56.5189 52.6334 55.5626 52.7665 54.4631C52.997 52.5599 54.0359 51.4082 55.9933 50.974C56.7597 50.804 57.5513 50.7498 58.3298 50.6322C58.7688 50.566 59.2115 50.5053 59.6398 50.3932C60.1447 50.2611 60.3239 50.0015 60.3443 49.5024C60.3673 48.9404 60.1601 48.5818 59.7031 48.3925C58.7686 48.0056 57.4071 48.4394 56.8884 49.3103C56.7821 49.4887 56.6788 49.536 56.4856 49.514C56.0746 49.4672 55.6611 49.4442 55.2487 49.4102C54.8446 49.3769 54.4405 49.342 53.996 49.3044ZM59.921 52.1822C59.1212 52.3255 58.3326 52.4635 57.5453 52.609C57.0025 52.7093 56.474 52.8586 56.0846 53.2825C55.7514 53.6453 55.6194 54.0831 55.7721 54.5622C55.9155 55.0125 56.2923 55.2009 56.7251 55.2378C57.0702 55.2673 57.4293 55.265 57.7685 55.2028C58.4208 55.0831 58.9491 54.7323 59.3514 54.1985C59.8147 53.5837 59.7937 52.8405 59.921 52.1822Z" fill="#A38F8F"/>
<path fill-rule="evenodd" clip-rule="evenodd" d="M95.7516 52.4608C93.258 52.4608 90.7836 52.4608 88.3143 52.4608C87.9936 53.3615 88.3242 54.4252 89.043 54.8356C90.1526 55.469 91.8589 55.065 92.5533 53.9965C92.6336 53.8729 92.7076 53.8419 92.8528 53.8536C93.6231 53.9153 94.3946 53.9609 95.1658 54.0122C95.2415 54.0173 95.3172 54.0228 95.4497 54.032C95.2848 54.343 95.1552 54.6339 94.9857 54.8993C94.1354 56.2319 92.8787 56.9537 91.3621 57.2515C90.2529 57.4693 89.1424 57.4717 88.0521 57.1246C86.4371 56.6103 85.5288 55.4722 85.3457 53.818C85.1071 51.6609 85.6576 49.6961 87.1086 48.0546C88.4378 46.5508 90.1531 45.9345 92.1427 46.0639C93.0331 46.1218 93.8629 46.3663 94.5755 46.9248C95.4392 47.6019 95.8343 48.5296 95.9679 49.593C96.0887 50.5543 95.9193 51.4923 95.7516 52.4608ZM93.1783 50.5603C93.4321 49.2772 92.6578 48.3265 91.3708 48.3244C90.1611 48.3224 88.9819 49.2263 88.6661 50.4C88.6529 50.449 88.6592 50.5032 88.6562 50.5603C90.1746 50.5603 91.6778 50.5603 93.1783 50.5603Z" fill="#A38F8F"/>
<path fill-rule="evenodd" clip-rule="evenodd" d="M24.1453 50.5559C24.091 52.575 23.5058 54.386 21.9906 55.7959C20.6618 57.0323 19.0547 57.4884 17.2697 57.3718C16.3498 57.3117 15.4883 57.0609 14.7446 56.4925C13.843 55.8034 13.3623 54.8579 13.2411 53.7545C13.0185 51.7287 13.4826 49.864 14.7637 48.258C15.8309 46.9201 17.2597 46.2242 18.9583 46.0718C19.9703 45.981 20.9577 46.0741 21.8839 46.5135C23.2101 47.1428 23.8829 48.2486 24.1012 49.6671C24.1203 49.7906 24.1383 49.9151 24.1435 50.0398C24.1507 50.2115 24.1453 50.3838 24.1453 50.5559ZM21.081 50.6752C21.0605 50.4696 21.0489 50.1953 21.0036 49.9267C20.8535 49.037 20.2895 48.4543 19.5146 48.3816C18.7809 48.3127 18.1461 48.5387 17.6139 49.0491C17.0258 49.6129 16.6954 50.3213 16.4944 51.096C16.2664 51.975 16.1518 52.8624 16.4073 53.7567C16.6276 54.5276 17.1199 54.948 17.909 55.0173C18.7137 55.088 19.3792 54.7739 19.8982 54.174C20.7474 53.1926 21.0202 52.004 21.081 50.6752Z" fill="#A38F8F"/>
<path fill-rule="evenodd" clip-rule="evenodd" d="M2.1416 42.5165C3.27234 42.5165 4.36543 42.52 5.45843 42.5125C5.61575 42.5114 5.63155 42.6108 5.66788 42.7107C6.18768 44.1411 6.70706 45.5716 7.22668 47.002C7.42376 47.5445 7.61929 48.0876 7.8205 48.6286C7.84797 48.7024 7.90441 48.7655 7.94745 48.8336C8.01749 48.7811 8.10722 48.7424 8.15456 48.6741C9.31737 47.0004 10.4757 45.3235 11.6348 43.6473C11.8658 43.3133 12.0934 42.9768 12.3316 42.648C12.375 42.5879 12.4617 42.5225 12.5289 42.522C13.6279 42.5142 14.7271 42.5165 15.861 42.5165C15.8055 42.6046 15.7695 42.6698 15.726 42.7294C13.529 45.7467 11.3341 48.7655 9.12881 51.7767C8.92789 52.0511 8.92175 52.358 8.87023 52.6594C8.62411 54.0992 8.38877 55.5409 8.1487 56.9816C8.13872 57.0415 8.11898 57.0998 8.10192 57.1663C7.09049 57.1663 6.08581 57.1663 5.04748 57.1663C5.10786 56.7872 5.16393 56.4208 5.22482 56.0553C5.44286 54.7457 5.66516 53.4369 5.87673 52.1264C5.89384 52.0203 5.86042 51.8957 5.81935 51.7921C4.62627 48.7832 3.4291 45.7758 2.23302 42.7681C2.20484 42.6974 2.18089 42.6251 2.1416 42.5165Z" fill="#A38F8F"/>
<path fill-rule="evenodd" clip-rule="evenodd" d="M64.4854 57.1377C65.0907 53.4988 65.697 49.8538 66.3056 46.1948C67.2848 46.1948 68.2571 46.1948 69.2535 46.1948C69.1496 46.8298 69.0472 47.4562 68.9448 48.0826C68.9675 48.0926 68.9902 48.1025 69.0129 48.1125C69.0619 48.0365 69.1162 47.9635 69.159 47.8843C69.6459 46.9816 70.3476 46.3461 71.3638 46.102C71.8304 45.9899 72.5474 46.0079 72.9676 46.1466C72.8189 47.0312 72.6694 47.9205 72.5201 48.8082C72.2153 48.7694 71.9312 48.7221 71.6452 48.6985C69.9475 48.5585 68.7472 49.5463 68.4933 51.2284C68.2018 53.16 67.8695 55.0853 67.5481 57.0122C67.538 57.0729 67.4527 57.1677 67.4018 57.168C66.4488 57.1755 65.4958 57.1712 64.5427 57.1683C64.5295 57.1683 64.5162 57.1547 64.4854 57.1377Z" fill="#A38F8F"/>
</svg>
